P2
80 80
255
111 109 109 109 110 112 115 116 117 118 121 122 122 122 124 123 124 124 123 127 125 124 125 126 128 123 105 101 106 176 188 191 196 204 202 198 205 202 205 205 204 207 207 206 202 194 194 189 201 217 216 214 214 213 220 135 58 64 65 62 154 218 213 212 216 120 59 63 63 60 169 215 211 211 212 103 63 72 70 68
110 107 111 113 113 111 112 116 117 116 121 122 123 123 124 124 124 125 125 125 125 125 127 125 129 116 82 76 85 180 198 191 185 184 185 188 194 194 195 192 195 198 205 205 204 196 193 186 195 210 212 220 220 219 180 165 144 145 163 160 187 194 190 196 206 175 130 128 152 155 191 207 206 205 201 168 105 64 67 64
109 109 113 110 109 111 113 112 115 117 120 123 124 124 125 123 126 126 126 127 128 126 127 129 131 116 79 77 87 184 199 193 183 195 188 194 199 200 201 193 202 203 203 206 208 208 200 205 209 208 187 139 142 123 95 172 172 171 184 195 196 174 176 191 199 193 161 167 200 208 204 202 203 201 199 194 168 136 138 136
111 111 111 109 111 113 115 115 117 117 122 124 122 122 126 125 125 127 126 128 128 128 128 130 132 117 81 77 87 186 200 171 167 168 159 155 165 165 176 152 161 173 204 208 208 199 201 209 209 211 161 62 66 40 66 150 154 145 152 164 167 161 160 153 155 158 154 149 155 176 177 177 177 177 180 190 204 218 216 216
114 111 111 111 114 115 116 118 120 120 122 125 123 127 128 128 126 130 128 127 129 131 130 129 131 120 83 79 88 185 202 169 166 153 148 158 142 153 150 152 143 169 206 206 202 199 208 208 208 211 160 68 71 42 66 149 154 146 148 151 160 162 161 162 164 164 165 164 164 162 162 163 162 154 162 181 202 213 211 211
113 112 112 114 113 114 116 117 116 120 124 125 125 125 126 127 127 130 129 130 131 131 130 128 130 117 82 78 88 186 201 201 197 199 196 197 190 200 198 205 199 185 180 188 187 207 208 207 206 214 163 68 69 39 63 147 158 146 148 152 154 153 156 157 162 159 158 157 159 160 162 157 158 162 163 181 198 213 212 211
112 110 112 115 114 115 119 119 118 119 120 124 124 125 127 124 129 129 129 129 129 130 129 126 130 115 81 76 89 186 201 179 170 174 172 179 183 197 206 192 164 167 177 193 195 189 207 206 209 214 164 69 70 36 63 141 151 148 132 153 159 166 150 154 155 170 159 160 165 155 164 166 156 147 158 187 204 213 212 211
113 112 112 113 114 114 116 118 118 122 121 121 123 128 126 125 130 129 126 127 128 129 128 126 129 115 81 77 89 187 202 173 147 132 130 144 142 178 202 157 184 168 165 201 185 172 200 210 209 214 162 64 64 32 68 140 149 146 142 143 150 161 159 156 154 162 167 161 166 156 157 166 159 164 163 188 204 218 216 216
115 112 110 113 114 115 117 120 120 122 123 124 123 125 125 124 128 130 128 127 128 126 124 125 129 114 82 77 89 188 201 194 186 180 179 178 193 199 186 174 202 180 175 190 170 200 197 209 209 212 182 130 126 82 81 132 139 151 165 164 161 161 163 166 166 163 166 166 167 164 162 163 161 164 168 189 188 169 169 169
115 113 113 114 115 117 116 117 119 122 122 124 124 126 128 127 128 129 129 128 129 125 124 125 127 116 81 78 90 191 201 201 201 200 197 195 190 206 189 173 198 180 164 148 178 203 196 207 208 206 210 222 216 158 109 141 161 155 165 165 164 165 164 164 161 163 162 163 164 165 165 164 167 167 166 195 158 68 71 69
117 115 112 113 114 116 117 119 120 124 122 125 125 125 126 128 126 129 129 129 128 126 124 124 128 115 81 77 91 192 200 204 181 146 145 149 159 205 195 173 157 150 117 141 152 199 193 203 208 209 210 218 208 152 115 161 193 160 159 160 161 163 162 161 157 160 160 159 162 164 165 165 165 165 164 191 162 72 73 71
117 115 112 112 112 114 118 121 121 121 123 124 123 123 125 126 126 126 129 128 128 127 129 130 132 117 83 78 93 191 201 204 184 157 171 159 175 206 189 182 151 134 133 153 148 179 195 207 210 209 210 218 204 149 116 174 205 151 134 136 139 139 138 141 142 141 144 143 142 141 139 138 141 139 146 192 164 74 74 71
116 114 113 114 113 114 116 117 121 121 121 125 123 125 125 125 123 127 127 127 127 128 130 130 132 115 82 78 92 191 203 198 200 207 196 198 207 203 190 178 169 138 195 158 143 180 199 209 209 209 210 219 199 146 117 181 204 150 127 129 128 128 128 134 141 142 141 142 138 129 128 128 129 127 140 191 167 76 75 73
112 112 111 112 112 113 114 118 119 121 121 122 122 122 122 122 123 124 127 126 127 129 131 131 131 116 83 77 92 192 207 161 148 163 136 156 166 163 177 196 150 147 207 186 135 196 198 207 206 206 210 222 198 148 121 194 196 178 181 182 181 180 173 174 172 169 168 168 173 175 175 174 169 157 160 185 160 78 73 70
110 112 110 116 113 113 114 117 118 121 117 118 117 118 118 120 122 123 126 126 129 128 129 129 130 115 82 78 94 191 203 165 151 141 148 136 144 160 177 196 165 174 204 189 156 181 207 208 209 211 200 185 160 117 113 195 193 197 209 207 208 203 177 184 186 198 190 190 198 200 204 195 174 185 191 188 174 112 105 102
111 112 114 117 114 118 120 122 119 121 117 116 118 118 120 121 121 120 126 127 128 129 129 129 131 114 81 78 94 185 192 191 196 196 199 190 196 202 205 205 184 186 194 185 187 206 209 209 209 214 163 72 53 27 80 198 197 200 207 205 205 196 169 176 173 189 197 195 192 186 197 172 144 180 189 195 199 211 211 210
112 112 115 117 115 116 114 119 121 119 118 116 119 120 121 123 123 120 125 126 126 126 126 126 130 113 78 77 94 191 201 172 171 192 190 190 192 190 189 178 163 178 173 181 205 206 206 206 207 213 162 70 48 24 72 200 208 209 208 205 205 191 166 171 179 189 195 196 192 188 194 177 140 156 177 193 200 212 213 212
114 113 116 115 114 116 117 118 120 119 118 118 121 122 123 124 124 120 125 125 126 125 125 128 128 111 78 78 92 186 197 153 132 131 153 157 151 149 147 147 140 152 147 162 198 198 204 207 207 214 161 70 46 23 73 200 205 205 203 198 201 192 171 177 181 192 196 198 195 193 195 196 172 172 183 192 197 211 212 211
113 116 116 114 114 118 118 119 120 120 119 119 121 124 122 123 125 124 126 128 129 124 127 128 128 109 80 77 95 191 198 177 175 179 181 177 174 150 187 187 181 184 186 190 206 204 198 206 208 214 159 69 43 24 74 178 180 183 178 200 202 195 191 187 186 197 199 195 177 187 198 193 174 177 191 195 196 210 212 211
114 115 115 114 117 118 120 120 120 122 121 120 119 119 122 123 123 123 126 127 127 126 127 128 131 111 80 77 96 196 204 198 200 208 199 202 207 204 209 208 200 208 199 207 207 208 201 203 208 213 159 66 39 23 75 181 175 178 172 195 195 197 193 193 193 199 197 186 182 188 198 191 185 187 188 194 197 211 213 212
116 116 115 117 118 117 117 119 121 121 121 121 119 124 123 125 124 123 126 125 125 128 129 132 133 112 82 78 99 193 200 199 195 200 196 205 205 204 204 203 197 203 197 205 205 206 202 201 207 211 167 85 53 37 81 197 186 177 165 195 194 192 197 199 197 183 181 179 176 180 197 195 188 189 190 193 194 201 202 202
115 114 116 116 117 117 118 119 120 121 121 121 120 121 123 126 124 124 125 125 125 127 128 129 131 112 83 79 99 196 205 199 187 191 195 198 197 208 207 206 198 205 196 206 209 209 200 204 209 208 205 202 150 132 116 197 197 183 185 198 194 189 194 190 179 173 177 177 187 190 199 200 196 189 195 192 181 102 89 90
114 114 115 115 113 118 120 121 121 121 122 121 122 124 125 124 125 123 125 128 128 129 130 131 131 113 84 81 100 195 203 189 178 182 190 200 201 204 204 203 198 203 195 198 202 199 198 204 205 205 206 210 156 141 123 199 207 197 178 178 181 196 193 180 171 165 179 193 198 198 194 198 188 185 195 194 179 93 71 72
116 117 116 114 119 120 119 122 123 120 121 121 123 124 124 121 123 123 124 128 125 128 130 130 132 113 83 82 102 196 199 190 193 194 202 205 206 205 205 205 206 205 196 195 198 200 207 208 208 208 205 205 152 140 123 200 204 196 170 167 159 188 180 176 173 172 187 197 200 192 181 195 187 177 191 193 165 92 73 74
117 115 118 117 118 122 121 123 120 120 123 124 122 124 122 123 125 123 123 127 126 129 130 130 134 111 82 79 101 189 192 194 199 202 207 206 206 206 206 206 207 205 198 198 204 207 207 207 206 206 200 201 150 140 123 200 206 204 185 169 171 188 179 164 181 188 198 200 197 182 177 194 182 162 184 195 163 91 73 74
121 118 118 110 100 86 80 88 121 121 124 122 123 119 119 123 126 124 123 125 125 126 129 131 134 112 83 79 103 195 196 197 197 201 204 203 203 203 203 203 204 202 198 201 198 205 205 205 206 203 200 198 148 139 124 192 198 205 190 171 185 194 185 184 196 200 196 191 174 173 188 196 174 157 175 196 168 87 73 74
90 70 54 40 33 31 56 71 128 114 115 113 116 83 88 130 129 130 129 128 129 129 132 134 134 112 83 80 106 200 195 202 196 203 206 207 207 207 207 207 207 205 199 207 197 206 208 208 206 205 198 190 145 138 119 175 185 202 206 206 200 188 193 198 202 202 187 167 167 195 203 192 176 155 175 196 178 92 73 74
25 25 26 30 32 32 59 84 131 106 110 107 113 79 74 121 122 123 124 126 129 130 132 135 138 117 82 80 107 198 196 193 179 187 192 194 193 193 195 204 205 203 197 205 199 200 205 204 202 210 180 85 52 48 86 165 170 181 202 204 203 200 200 201 199 200 195 177 190 200 198 188 176 163 192 191 190 180 178 178
28 29 30 31 31 32 60 115 129 103 108 105 112 82 68 114 117 117 116 118 121 122 125 129 133 114 83 80 107 194 199 196 187 194 194 194 194 194 203 205 206 204 198 206 204 198 207 203 205 210 174 52 24 20 76 161 173 171 197 202 202 201 200 202 200 199 197 197 197 195 194 177 169 173 197 195 190 208 213 213
41 32 32 29 31 32 62 124 118 98 105 103 114 97 71 108 113 113 114 114 116 118 119 123 127 110 82 78 108 195 208 182 188 205 204 204 210 211 211 211 211 209 203 212 211 202 205 209 208 210 175 53 26 23 77 150 164 159 196 204 202 199 197 195 194 192 190 186 189 188 188 185 169 181 199 193 188 204 210 209
52 62 69 52 30 33 63 92 115 95 102 102 117 115 83 102 109 109 111 112 112 113 115 118 122 109 80 78 107 200 210 183 182 193 191 192 201 202 200 199 198 199 199 199 200 202 206 210 208 205 178 91 37 22 78 165 170 179 202 196 200 198 197 196 194 195 195 196 199 199 199 191 171 187 199 193 187 204 209 209
93 92 86 64 30 43 59 63 96 84 94 103 116 121 92 80 109 107 108 110 110 110 111 114 117 102 123 154 163 188 174 175 177 180 180 184 171 145 145 143 140 151 167 148 156 189 196 199 203 202 201 199 67 19 80 182 179 200 200 181 189 201 201 197 193 191 193 200 203 202 202 197 187 199 200 194 185 204 210 209
94 84 79 57 31 45 45 38 39 44 47 51 57 62 58 48 69 76 93 102 104 104 105 107 111 95 146 179 172 160 160 168 171 171 173 173 182 182 181 186 193 198 203 207 207 219 223 219 222 227 225 214 68 15 78 177 186 210 201 186 192 203 202 196 192 189 187 181 193 206 207 205 203 206 202 197 189 204 211 209
40 39 60 46 31 39 88 153 135 122 108 95 83 70 56 45 37 72 132 131 120 129 128 130 135 130 159 171 170 185 184 186 184 180 172 154 151 154 154 150 167 205 208 195 189 202 208 207 205 205 204 195 103 86 98 164 202 215 209 198 190 201 197 202 197 200 198 180 185 208 209 203 193 199 207 196 178 177 214 219
34 39 50 47 30 37 118 227 220 221 220 217 213 206 194 180 161 139 212 223 213 188 186 180 177 185 188 186 186 215 223 218 195 193 188 188 179 176 171 142 68 97 126 94 75 126 136 135 131 124 119 116 99 128 108 149 169 172 169 165 153 157 156 159 166 172 167 149 151 167 166 159 146 148 154 153 170 165 210 216
61 83 47 29 31 39 125 210 185 191 190 194 197 201 212 210 204 148 202 216 183 174 184 178 177 182 184 184 189 219 225 217 193 196 192 207 214 222 222 217 92 50 47 48 46 50 52 54 53 52 51 54 61 67 80 75 72 73 76 77 76 77 76 75 77 80 84 88 85 83 84 84 84 79 55 59 165 158 203 211
42 42 35 30 33 40 133 213 196 196 196 198 192 189 191 189 195 151 197 188 167 171 182 179 180 183 186 183 193 221 224 214 192 196 191 207 212 216 217 222 101 106 125 127 137 135 139 138 129 100 103 110 93 61 92 116 115 107 99 128 135 140 135 114 121 141 110 110 139 140 138 152 150 129 65 65 165 157 213 220
32 34 37 40 43 42 141 223 208 206 205 205 202 199 205 204 198 141 171 166 167 169 180 179 181 184 187 185 195 222 224 211 190 196 191 207 213 216 219 219 97 134 158 156 154 155 151 145 144 134 152 123 86 71 106 120 121 109 100 126 139 136 141 123 122 128 98 111 129 138 128 134 125 125 65 65 174 163 215 218
43 42 42 43 40 40 150 214 201 203 202 201 199 199 198 192 194 127 145 161 167 167 178 178 181 185 188 185 197 223 223 209 189 194 190 207 213 216 221 217 97 173 212 212 213 214 214 215 217 222 200 95 92 95 83 79 76 77 82 81 82 81 89 81 72 68 70 71 70 69 67 65 63 62 43 56 181 166 211 220
35 33 33 32 33 41 157 214 200 202 202 203 199 199 195 192 191 111 140 162 167 167 175 175 181 186 190 184 200 223 222 206 188 192 191 206 213 215 221 214 95 175 210 211 213 212 212 213 214 217 195 104 110 87 36 26 27 28 28 28 28 26 24 22 20 19 18 18 17 16 14 11 10 6 1 39 170 166 213 218
29 30 31 32 36 43 165 212 200 203 203 201 199 201 195 193 188 100 142 163 166 165 174 173 183 186 190 183 202 223 221 203 188 191 192 206 214 215 223 211 92 160 183 187 191 205 213 213 213 217 195 93 88 109 123 124 125 124 119 123 127 125 122 122 120 118 115 115 112 102 99 96 92 89 70 82 156 155 212 218
38 40 41 43 46 45 171 211 202 201 202 200 201 199 196 192 184 95 145 163 166 165 172 171 184 186 190 182 204 223 220 200 187 190 193 205 214 215 224 208 89 143 173 169 172 207 213 212 213 217 193 99 94 133 212 212 216 215 218 219 219 220 217 219 223 223 222 223 223 221 219 216 218 218 171 138 164 164 215 218
42 42 43 44 44 47 178 209 201 201 202 200 202 199 196 193 179 87 147 164 165 164 171 171 183 187 190 181 207 223 219 197 187 189 194 205 214 216 224 203 91 172 197 193 187 207 212 212 213 217 191 102 102 131 200 194 199 199 203 200 199 200 197 203 212 212 215 218 215 216 217 221 223 219 169 139 167 168 214 219
37 37 36 36 37 50 185 212 202 202 201 201 201 196 199 198 173 86 149 163 164 164 170 171 183 187 190 180 210 223 217 194 188 187 196 205 215 217 224 199 92 177 208 211 207 210 211 212 212 216 190 102 102 124 180 173 172 179 181 181 181 171 169 170 197 204 210 212 211 217 217 219 220 208 165 143 161 162 216 219
31 30 30 31 35 53 190 212 201 200 199 201 199 197 198 201 168 86 150 163 164 164 168 172 183 187 189 180 212 223 216 191 188 186 197 205 215 218 224 197 92 153 194 211 211 210 211 212 212 216 188 101 101 129 194 183 171 192 194 195 197 181 174 172 189 196 202 203 207 210 211 207 202 194 146 128 160 163 214 224
34 31 32 34 39 57 195 204 200 203 200 198 198 198 194 192 159 83 150 162 163 164 168 173 184 188 188 180 214 222 214 188 188 185 197 204 215 218 224 194 89 165 201 211 211 211 210 211 213 217 188 99 98 129 191 175 171 187 185 177 168 156 156 163 180 187 192 197 199 194 193 196 194 183 141 128 154 158 210 215
40 41 42 43 44 61 200 207 199 204 202 201 198 196 196 194 151 84 151 162 162 164 168 175 185 189 187 180 216 222 212 186 187 183 196 204 214 219 222 189 92 161 198 198 205 208 193 198 207 212 185 99 98 120 158 148 153 157 158 158 157 159 166 175 186 196 187 184 200 191 197 208 202 193 178 180 185 186 188 191
43 42 42 43 45 67 204 204 206 209 208 206 205 201 198 197 144 86 152 162 160 164 168 177 185 189 185 181 218 222 211 185 186 181 195 204 214 220 220 186 97 165 167 169 165 173 165 178 174 183 181 101 102 105 139 148 154 156 158 162 165 167 170 177 188 197 183 190 211 197 210 229 221 209 194 194 215 197 199 211
34 32 33 34 38 73 209 207 200 208 205 204 206 204 203 205 137 89 153 161 159 164 168 179 185 190 184 182 219 221 209 184 185 180 194 203 214 222 218 182 95 176 180 184 176 180 179 175 178 185 182 101 100 108 141 150 154 155 157 161 165 166 171 177 190 198 188 197 207 206 194 208 206 197 204 196 203 189 205 211
32 30 28 29 38 79 210 205 200 199 202 199 199 198 193 196 129 94 154 162 159 165 168 180 186 191 182 183 220 219 207 184 184 179 193 204 214 222 217 179 98 193 205 207 209 211 211 212 209 205 180 96 97 107 141 147 152 153 154 159 164 167 172 176 189 196 189 202 209 210 201 191 197 193 209 203 192 192 206 206
34 34 31 32 37 86 211 202 201 201 202 199 199 196 194 197 121 97 154 161 158 165 169 182 186 191 180 185 221 218 205 184 182 178 191 204 214 223 213 176 99 185 177 187 186 184 191 190 198 217 181 99 101 104 135 143 148 151 153 158 164 168 173 177 195 201 191 192 206 207 206 196 196 201 197 196 189 186 203 207
38 39 40 41 41 93 212 203 199 204 201 198 202 196 190 196 113 101 154 161 158 165 170 183 186 191 178 186 222 218 204 184 181 177 191 205 215 223 215 175 100 186 193 192 195 192 196 192 197 216 179 99 100 103 135 144 149 153 155 158 163 168 173 176 201 207 184 181 197 211 217 204 197 199 181 199 196 189 203 209
39 39 40 40 40 100 214 202 199 200 200 197 200 198 187 194 106 105 154 161 158 165 171 184 186 191 176 187 222 217 202 185 178 176 191 206 215 224 209 171 100 173 179 190 181 185 192 188 194 216 177 98 100 102 133 142 148 152 155 157 161 167 173 175 192 192 173 180 199 208 215 208 194 194 174 194 187 191 186 188
31 30 31 31 37 109 213 200 200 200 202 197 195 201 191 196 99 109 155 160 157 165 172 185 186 191 175 191 222 215 200 184 177 177 191 206 216 223 205 168 106 184 189 198 193 193 194 193 198 215 175 100 99 97 123 128 134 141 142 142 145 150 156 156 175 202 195 200 207 214 211 206 199 199 195 202 199 202 193 187
27 27 27 28 37 117 214 200 204 201 198 200 198 196 191 198 93 114 155 160 157 165 173 185 187 191 173 194 222 214 199 184 174 177 191 207 216 223 206 164 109 200 203 204 206 208 209 210 210 214 173 97 99 89 108 121 131 137 139 141 143 145 151 155 188 231 216 218 228 227 228 228 200 191 209 224 222 221 221 224
28 29 29 29 38 126 212 198 203 200 198 200 199 193 192 196 87 118 155 159 157 165 174 186 187 190 172 198 221 213 197 185 171 178 192 208 217 222 208 161 114 199 202 203 204 206 208 208 208 213 170 96 97 93 113 124 134 141 141 143 146 147 152 155 187 231 211 212 228 228 228 228 191 179 203 208 202 197 209 225
31 32 29 28 38 134 213 202 199 200 199 198 197 195 192 196 81 121 155 158 157 165 176 186 188 189 171 202 221 212 195 185 171 179 193 209 217 221 201 157 120 200 203 203 204 205 206 207 208 213 168 94 92 94 114 124 133 140 141 139 143 146 150 152 178 220 208 212 218 219 219 218 199 195 210 221 217 217 218 214
31 31 50 59 45 142 211 202 200 201 199 199 196 197 190 192 77 124 154 158 157 165 178 186 188 188 172 205 220 212 193 184 168 180 194 210 217 221 202 153 121 197 201 203 203 204 205 206 207 212 166 90 91 84 97 115 128 136 141 135 140 147 153 156 78 49 55 58 60 61 62 63 64 67 73 72 70 68 62 90
28 27 122 143 59 150 211 201 198 201 199 196 199 197 191 191 73 127 154 157 157 165 179 186 188 187 173 209 219 211 191 184 166 181 194 210 217 220 207 153 65 71 77 183 205 204 205 205 206 211 163 93 93 74 97 123 134 141 148 152 152 153 160 167 56 65 74 59 57 64 38 18 21 20 50 67 66 38 71 104
54 56 101 112 55 159 212 200 200 208 204 201 201 199 193 188 70 130 154 156 156 165 181 186 189 185 175 211 218 209 190 183 165 181 196 211 217 216 201 148 57 45 44 178 206 203 205 205 205 211 160 95 92 84 103 119 132 140 146 151 152 153 159 167 54 92 106 91 97 92 36 25 24 41 65 60 67 54 59 96
125 120 138 127 57 166 214 199 200 204 203 203 202 202 201 188 67 132 154 154 156 166 182 186 191 184 177 213 217 210 188 184 166 182 197 211 218 215 199 145 76 66 63 182 205 203 204 205 205 211 158 89 88 85 112 131 134 139 148 150 140 140 147 150 47 19 29 43 53 56 58 58 70 86 93 102 105 98 92 109
124 124 128 116 57 174 209 201 202 200 200 197 196 194 192 181 66 134 153 153 156 166 183 185 190 182 180 212 216 211 188 184 165 183 199 211 219 210 198 141 85 87 90 186 205 203 204 204 205 210 156 90 89 76 154 187 184 184 187 180 106 66 64 55 43 53 77 92 103 104 103 109 89 74 140 176 176 170 169 174
128 134 135 121 59 181 207 201 201 202 202 198 196 195 190 177 65 135 152 152 156 167 184 185 191 180 183 210 215 211 187 183 164 183 200 211 219 209 199 135 82 80 83 189 207 205 203 204 204 210 155 92 88 42 134 160 144 146 168 186 129 65 66 88 106 110 113 108 114 125 119 114 84 73 125 154 161 166 157 170
131 123 129 108 61 187 207 200 200 203 198 197 196 193 191 172 64 136 152 151 155 168 185 185 191 178 188 207 214 212 185 181 163 184 201 211 220 209 202 134 77 64 62 160 172 161 155 199 205 209 152 80 63 39 140 162 151 162 169 172 156 79 85 111 121 128 128 114 118 141 139 117 98 71 110 148 163 157 154 172
92 93 125 94 64 194 211 200 203 204 201 199 196 193 193 167 63 137 151 149 155 169 185 184 190 176 192 201 213 212 185 179 163 184 203 211 220 207 204 132 64 53 56 122 132 131 133 155 195 210 139 61 52 34 126 172 168 170 173 169 161 98 79 84 77 79 85 91 96 102 105 107 104 52 79 147 163 173 173 177
96 122 130 76 68 198 208 201 199 204 201 200 198 193 195 161 64 137 150 148 155 170 185 184 190 175 197 195 212 213 185 178 164 185 204 211 221 199 200 128 40 26 36 123 134 133 133 133 190 210 130 56 52 36 40 60 77 87 92 80 88 79 65 76 89 93 99 103 108 113 111 109 114 95 98 126 138 145 144 146
100 126 135 73 73 202 206 204 201 203 201 199 195 194 194 156 64 137 148 146 154 171 184 184 190 175 201 188 210 214 186 178 166 186 206 211 221 197 200 124 42 34 43 125 134 133 133 136 190 210 130 48 49 35 33 51 81 106 116 124 137 146 142 143 180 186 186 186 187 189 190 190 191 192 194 195 196 196 193 193
103 113 125 76 80 206 206 203 202 204 201 196 193 192 196 150 66 135 146 145 154 173 184 184 189 176 203 182 207 217 188 176 168 187 206 211 220 201 204 119 102 124 126 132 133 133 132 131 175 211 129 43 47 32 31 56 88 108 117 127 141 154 158 169 212 215 213 213 213 215 216 215 214 213 215 216 216 217 217 214
104 110 116 79 85 214 216 215 209 210 208 200 199 194 197 144 69 134 145 145 153 174 183 185 188 179 204 176 202 217 192 177 169 188 207 211 220 202 206 105 105 130 133 133 133 135 140 165 200 209 136 55 55 39 33 63 90 106 116 124 137 150 155 169 219 218 216 215 215 215 215 214 213 213 215 216 215 214 213 210
110 106 99 79 79 171 176 177 183 191 195 199 204 206 212 142 67 120 126 126 153 175 183 186 188 182 207 181 196 219 198 178 172 191 207 212 220 205 210 100 108 132 136 136 138 151 163 177 193 208 142 71 72 40 37 62 87 107 117 123 133 147 155 164 214 216 214 213 213 214 215 214 213 213 213 214 213 212 211 208
108 102 103 95 61 63 62 59 63 76 74 69 77 88 110 93 51 58 55 67 147 177 182 186 187 186 207 183 192 220 205 181 176 195 207 215 209 105 106 77 156 156 150 148 151 166 179 192 202 208 141 75 76 44 48 48 55 74 88 93 109 130 149 159 211 221 219 218 218 220 220 219 219 219 219 220 220 218 216 216
105 93 115 143 68 48 43 42 43 77 109 114 110 94 71 52 97 146 141 138 148 180 178 183 187 192 205 183 189 217 213 189 180 197 206 216 182 58 47 76 166 179 174 179 192 205 205 205 204 208 139 74 69 44 67 66 78 77 84 99 109 106 100 79 140 183 177 175 171 170 166 160 155 154 149 146 143 138 146 146
93 87 134 120 77 123 140 131 124 152 164 173 185 192 188 175 176 186 171 159 179 198 185 183 178 172 187 192 193 203 203 192 189 196 204 210 196 180 178 180 186 191 201 210 213 212 206 204 205 209 138 71 60 43 71 61 129 137 117 99 94 101 111 86 84 103 105 106 110 109 109 111 111 114 117 121 124 122 130 133
78 108 132 139 176 189 180 177 183 188 191 188 184 183 185 185 180 184 189 183 186 200 202 200 199 196 197 203 201 202 198 198 204 209 216 217 218 215 211 205 209 213 214 213 210 209 208 206 207 211 135 65 54 35 60 58 130 156 157 153 138 114 88 72 88 133 156 148 142 137 134 129 125 120 117 114 112 111 111 113
124 150 173 187 183 178 178 180 188 194 190 186 186 188 189 184 187 190 185 186 192 190 188 190 192 190 192 199 200 190 193 207 211 218 218 216 215 214 208 203 210 212 211 211 209 208 208 205 199 203 131 62 49 54 61 49 122 153 154 156 156 159 156 144 118 89 89 98 106 115 124 132 140 149 158 167 175 183 191 197
169 185 185 179 179 179 181 189 191 191 190 186 190 188 186 191 193 186 189 196 192 190 191 189 186 191 198 206 207 201 197 202 217 219 217 216 215 214 212 213 211 211 211 211 211 209 209 203 177 174 152 120 98 89 89 64 112 149 152 157 155 155 156 156 157 157 160 211 223 223 223 223 223 222 221 220 220 219 217 216
171 172 173 174 178 183 183 183 182 186 192 190 187 187 191 191 187 192 197 192 191 193 190 188 193 201 208 214 210 207 212 208 221 219 217 219 218 216 213 211 211 211 211 208 201 195 190 181 177 176 163 142 121 103 97 73 106 144 148 153 152 153 153 154 154 153 154 197 219 217 216 216 217 216 215 215 215 215 214 214
161 163 167 171 176 182 177 175 179 185 189 185 186 189 187 187 193 193 187 189 193 189 186 193 201 209 216 213 185 191 220 212 220 221 217 185 174 185 200 204 203 199 193 188 184 184 183 181 181 179 172 165 160 146 127 99 82 104 128 144 148 149 150 151 152 152 151 187 218 216 216 216 216 215 215 215 216 215 215 215
170 168 170 174 176 175 171 172 175 181 182 182 182 184 186 188 186 184 185 186 186 185 192 200 208 216 202 160 146 142 142 65 112 199 183 140 151 164 183 192 194 195 194 195 194 194 193 193 193 192 190 187 186 187 185 179 161 136 111 96 105 122 141 149 149 149 149 180 218 216 216 216 216 216 216 216 216 216 215 214
178 177 179 181 181 180 179 179 180 183 182 181 183 182 181 181 181 179 180 181 185 191 198 208 215 202 177 177 124 76 90 103 120 163 182 190 195 197 196 191 194 194 193 193 193 193 193 188 189 185 180 179 177 180 181 177 182 192 183 154 125 105 95 109 132 147 147 178 213 211 210 210 210 209 205 199 193 186 178 170
