P2
80 80
255
115 113 113 112 111 111 112 113 116 118 118 119 122 124 124 123 125 124 126 125 125 128 126 125 126 126 129 126 108 104 99 150 190 190 195 202 206 197 204 203 205 206 204 206 207 206 205 195 196 193 195 215 218 215 213 212 219 156 58 64 64 61 134 217 212 211 216 139 58 62 63 56 150 215 209 209 214 118 60 70
113 112 112 110 112 115 115 113 114 117 119 117 122 123 124 125 125 126 125 126 126 127 126 126 129 127 129 122 86 77 74 143 199 196 187 186 186 186 195 193 197 194 193 197 203 205 207 198 195 189 188 207 211 218 220 220 190 161 146 139 159 158 180 197 188 194 202 182 136 122 146 152 183 206 204 204 200 171 122 64
112 112 112 111 115 113 111 113 115 114 117 118 121 124 126 125 127 125 127 128 127 128 129 128 128 130 131 122 83 79 75 148 201 198 185 193 192 189 200 198 203 195 198 204 204 205 208 209 204 201 210 206 207 153 143 131 92 151 180 166 182 191 197 179 171 186 197 197 168 159 192 206 203 200 201 201 198 196 177 136
113 111 113 113 114 111 112 114 117 117 119 118 123 126 124 123 127 127 127 128 127 129 129 129 129 131 133 123 85 79 75 147 203 188 164 172 165 156 164 166 177 161 160 165 194 208 208 204 198 207 209 209 201 89 64 46 48 134 157 143 151 158 167 161 160 153 153 155 155 147 151 170 176 175 176 176 176 189 196 216
114 115 117 114 114 113 115 117 118 120 122 122 123 127 124 128 130 130 127 131 129 128 129 132 132 130 132 125 87 81 76 146 203 189 161 163 149 154 151 148 152 153 145 153 196 207 205 198 205 209 209 208 200 92 71 48 47 132 155 147 145 150 155 161 160 161 161 163 163 163 162 161 160 160 162 154 155 176 193 211
113 116 117 114 113 116 115 116 117 119 118 121 124 127 127 127 127 129 128 131 131 131 133 132 132 129 131 123 85 80 75 146 202 202 197 200 198 194 197 192 201 201 203 194 176 191 182 199 209 208 206 208 204 93 70 45 44 127 160 149 140 157 148 155 153 155 159 160 156 156 156 157 161 156 156 160 159 174 190 211
113 115 115 113 113 117 116 116 120 121 120 121 122 125 126 126 128 126 130 130 131 130 131 131 131 127 131 121 85 78 75 147 203 191 176 170 178 175 186 189 205 205 172 170 166 192 194 189 201 206 207 210 205 95 70 43 43 124 151 149 134 144 158 165 153 151 152 165 161 159 161 157 158 165 158 146 151 176 198 211
113 114 115 114 114 114 116 117 117 119 120 123 123 123 124 129 128 126 131 131 128 128 129 130 129 127 130 121 85 78 75 148 203 195 149 145 127 141 143 157 204 175 168 185 152 192 198 170 188 208 209 210 205 91 65 36 47 123 150 147 139 142 147 155 161 154 153 156 165 162 161 159 153 163 158 162 159 179 197 215
112 116 117 115 112 115 117 117 118 120 121 123 125 125 125 127 127 126 129 131 131 128 129 128 126 125 129 121 86 79 74 148 204 200 188 185 179 176 188 194 202 165 198 196 164 197 170 190 198 204 210 210 206 142 127 88 72 115 140 142 162 164 159 159 161 165 164 163 163 165 164 163 161 160 160 160 165 179 193 173
113 115 117 116 115 116 116 119 119 118 120 124 124 125 126 127 130 128 129 130 131 129 130 127 125 127 128 122 85 80 74 148 205 200 203 200 202 196 192 201 202 170 193 193 165 162 156 200 199 201 209 206 206 219 220 167 114 121 161 152 162 163 163 163 163 164 160 161 160 161 162 163 163 162 164 166 163 181 186 83
116 116 118 118 114 115 115 118 118 121 121 126 124 126 127 127 127 129 128 130 131 130 130 128 126 126 128 122 85 80 75 151 204 202 199 159 146 151 149 192 200 189 157 165 122 138 141 183 199 196 207 208 209 216 214 160 118 137 190 170 157 159 160 161 161 161 157 157 159 158 158 162 163 164 164 164 161 176 188 90
116 114 118 118 114 114 114 116 119 122 123 122 125 125 125 124 126 128 128 127 130 130 129 128 130 130 133 123 86 80 76 152 203 203 200 164 166 167 163 199 197 188 163 144 124 157 145 163 194 199 210 209 209 216 211 157 118 146 203 174 131 135 136 140 136 139 141 140 142 142 141 140 139 137 138 140 136 173 190 95
116 116 117 118 114 116 115 115 118 118 123 123 123 126 125 126 127 126 125 128 128 129 127 129 131 130 133 122 86 80 73 152 205 203 196 207 202 195 206 206 196 188 169 152 168 188 137 163 196 204 210 209 208 216 208 154 117 150 205 173 126 126 127 127 127 129 139 140 140 139 140 129 126 126 126 127 127 171 191 99
116 114 114 115 112 114 114 114 115 119 121 122 123 123 124 123 124 123 125 125 128 127 128 130 132 132 132 122 86 80 74 152 207 192 139 168 148 146 166 168 167 192 180 129 190 206 142 174 196 206 206 206 206 219 208 154 119 163 203 183 176 181 180 180 173 173 170 171 165 167 168 173 173 172 171 157 156 171 183 100
116 113 112 114 112 117 116 116 115 119 119 123 119 119 119 119 120 121 123 124 127 127 130 130 130 130 131 121 86 80 77 151 206 188 154 144 146 145 138 156 166 195 182 161 197 202 167 164 201 208 208 209 209 190 169 120 104 163 199 193 204 209 206 208 184 180 183 194 193 186 195 198 201 200 179 176 190 186 187 131
116 114 114 114 116 119 116 119 122 124 121 123 120 118 119 119 120 122 123 121 126 128 129 130 130 130 132 121 85 80 76 149 196 191 196 194 201 194 192 201 204 208 195 182 193 192 182 198 209 208 209 209 206 99 58 28 46 163 202 196 203 206 204 203 176 171 174 179 196 195 193 186 190 190 142 166 185 192 195 206
113 113 114 115 116 119 117 118 117 119 122 122 120 118 120 121 122 125 125 121 125 127 127 127 127 127 130 121 81 79 76 152 203 192 162 189 196 192 194 197 191 188 167 174 177 174 198 206 206 206 206 207 207 99 53 26 35 161 210 208 208 206 203 200 171 167 174 184 191 195 192 188 187 191 145 145 168 185 196 207
115 115 116 115 118 118 117 118 119 119 121 121 120 119 123 123 124 125 126 122 126 126 127 126 126 129 129 119 81 80 74 149 198 184 133 136 149 169 163 160 148 154 145 147 153 149 186 199 201 207 207 210 211 99 51 25 34 161 208 204 203 200 197 199 177 172 178 187 193 196 195 192 191 196 182 165 179 187 193 205
117 118 115 117 119 117 116 119 121 120 122 122 121 120 123 125 124 123 125 126 126 129 130 126 127 129 130 117 83 80 76 152 203 189 174 178 185 182 181 160 172 192 183 183 185 186 200 207 200 201 210 215 213 98 47 25 35 149 180 183 176 191 202 199 190 188 182 193 197 197 183 178 193 197 179 171 183 193 192 203
117 118 116 117 117 117 118 119 122 122 122 123 123 122 121 121 124 124 125 124 127 128 129 127 128 128 132 119 83 79 76 156 207 203 197 208 206 199 208 205 208 210 203 205 204 202 208 208 207 202 213 216 209 95 43 24 34 150 180 177 172 184 195 196 193 193 190 197 196 192 179 184 193 197 180 187 183 190 193 204
118 119 118 119 117 119 120 119 119 120 123 123 122 122 120 125 125 126 126 124 127 127 126 128 129 132 134 120 86 81 78 154 204 202 196 201 197 202 206 206 205 205 200 201 199 202 205 206 207 203 211 212 206 109 56 39 41 160 195 181 164 182 197 191 193 198 198 188 180 178 178 172 190 197 187 187 187 190 192 197
119 118 118 116 118 119 119 119 120 121 121 123 122 123 121 123 123 127 126 126 126 127 126 128 129 130 132 121 86 82 77 157 207 205 191 193 193 201 196 206 208 208 201 203 200 201 209 210 208 202 211 209 208 206 159 134 107 159 205 188 178 194 196 190 190 194 182 174 175 173 182 186 193 199 197 188 192 190 191 141
117 116 117 117 117 118 116 119 121 122 123 122 124 123 123 125 126 125 126 125 126 129 129 129 131 132 133 121 87 84 79 157 205 200 181 185 189 199 202 204 205 204 200 202 199 195 201 202 199 203 205 204 205 214 165 142 117 160 210 204 183 178 176 190 195 184 173 166 168 186 197 197 194 195 193 182 189 192 191 140
119 119 119 119 120 117 120 122 121 123 125 123 122 122 124 125 125 123 124 125 125 129 127 128 131 132 132 122 86 85 80 159 204 195 193 195 202 205 207 206 206 206 206 207 200 195 197 199 204 208 207 207 208 211 160 141 117 160 209 201 180 167 158 176 186 174 176 167 178 192 198 196 183 185 193 178 180 195 181 132
121 120 119 118 119 120 117 122 123 127 123 123 123 126 124 124 123 125 126 125 123 128 127 130 131 131 134 121 85 82 79 154 196 191 201 199 208 208 207 207 207 207 207 207 200 199 199 207 207 206 206 206 205 208 157 142 117 160 209 204 198 169 171 177 187 164 174 180 194 198 198 190 174 184 192 168 166 195 182 130
121 120 121 120 122 122 118 110 98 84 84 97 132 121 125 124 123 117 127 126 124 126 127 127 129 132 134 120 86 82 79 158 202 195 200 199 205 204 204 204 204 204 204 204 199 201 197 203 205 205 205 205 203 207 154 142 118 157 199 202 201 173 176 190 192 178 192 196 198 193 181 170 176 195 185 163 157 191 186 132
119 120 114 97 81 64 48 37 34 33 64 89 138 112 116 115 109 74 117 133 131 130 131 130 133 134 135 123 88 83 80 163 203 198 202 201 207 208 208 208 208 207 207 208 200 204 202 200 208 207 208 204 207 201 150 140 118 140 184 193 204 206 204 191 191 192 201 200 197 173 161 179 200 199 180 166 155 189 192 143
111 60 38 29 27 27 29 33 32 36 67 105 133 106 111 110 107 64 103 125 124 126 127 130 131 132 135 138 118 83 80 164 200 200 185 186 191 195 195 194 194 200 205 205 199 202 204 196 204 205 202 204 205 109 53 50 53 131 171 172 191 204 203 201 199 199 199 198 198 185 176 197 198 191 185 162 175 192 189 186
104 35 29 30 31 32 33 33 32 37 75 131 130 103 110 108 109 65 95 119 118 118 119 121 123 125 129 134 119 82 81 163 199 203 189 192 195 194 195 193 199 205 206 206 199 203 207 200 202 206 202 207 205 81 23 22 31 128 170 170 180 203 201 201 200 200 200 198 197 195 196 195 195 185 173 162 187 196 190 194
103 39 53 52 33 37 30 32 32 35 81 133 116 100 107 107 115 80 89 114 114 114 115 116 118 120 123 128 115 81 81 163 205 202 176 202 205 205 207 212 212 211 211 212 204 208 212 208 200 207 209 208 206 82 21 24 32 126 155 160 174 203 202 200 197 195 194 191 190 186 185 188 186 186 178 166 193 196 188 192
100 47 67 55 54 74 67 39 33 37 73 104 117 98 103 109 121 103 87 111 110 111 114 113 114 115 118 122 111 81 78 163 210 204 173 193 193 191 198 205 202 201 200 199 199 200 199 199 202 209 210 207 202 110 68 33 30 134 165 172 192 199 197 199 196 196 194 194 194 193 197 197 198 195 184 168 197 195 187 191
97 51 93 94 95 93 83 43 33 38 67 76 89 83 93 105 117 112 77 98 109 109 113 111 111 112 114 117 104 126 155 179 190 171 172 180 180 181 188 171 146 146 143 142 153 168 148 157 190 195 198 201 199 198 195 62 26 140 181 187 203 192 178 197 199 199 194 191 190 194 201 201 201 199 190 188 201 196 187 189
96 51 99 98 91 83 77 40 33 39 64 47 38 41 45 49 54 57 53 56 65 68 75 93 106 106 107 111 97 150 181 173 164 165 172 172 174 174 173 182 183 185 189 197 204 208 209 204 209 215 213 211 210 217 206 64 21 138 177 202 206 194 183 199 203 198 193 188 188 182 182 199 205 206 202 203 203 199 192 191
94 39 54 47 37 55 60 37 33 40 60 77 154 138 124 111 98 84 73 59 45 37 43 109 128 125 132 130 126 158 173 173 180 183 187 187 192 197 195 193 185 180 172 164 165 185 197 187 198 205 205 204 204 204 194 105 78 128 178 213 212 204 191 193 199 198 199 196 200 189 175 196 207 207 195 193 202 203 184 177
92 32 28 32 39 44 58 37 31 40 56 98 227 222 223 221 219 215 209 197 183 168 112 191 225 199 188 186 181 176 182 188 188 185 209 224 222 200 195 190 189 181 176 170 119 78 86 75 125 135 135 130 124 118 116 114 117 123 159 171 170 167 161 149 159 155 160 168 171 158 145 159 166 165 153 143 153 152 136 168
81 44 78 59 78 74 30 33 31 41 57 105 214 188 193 193 196 199 202 213 211 210 137 192 205 173 182 185 179 177 183 186 186 186 214 226 221 198 197 196 208 216 223 227 193 68 46 43 47 49 50 49 48 49 52 61 59 80 74 72 73 74 77 76 78 76 75 77 81 86 92 87 87 87 88 86 82 61 43 157
69 43 61 45 42 42 30 33 33 43 55 113 217 199 198 198 200 194 190 192 190 197 147 185 176 169 177 184 180 180 184 188 186 188 217 226 219 196 197 195 208 214 218 222 202 80 122 125 115 111 105 102 78 85 97 86 55 91 113 114 106 93 125 133 139 135 115 120 143 115 114 139 143 142 156 152 133 73 48 163
63 32 32 33 35 37 40 43 43 43 53 121 226 210 208 207 207 204 201 206 206 202 146 156 169 168 174 182 179 181 185 189 187 190 219 225 217 194 198 194 208 215 218 224 197 83 149 149 146 141 137 140 130 156 163 93 66 102 112 116 107 98 123 137 135 140 123 119 130 99 111 129 139 129 137 129 129 71 48 172
62 34 43 45 45 43 44 44 37 43 51 130 219 203 205 204 203 201 201 200 194 196 139 143 169 167 172 180 179 180 186 190 188 192 221 225 214 192 197 193 208 215 217 225 193 93 205 214 213 214 216 216 217 219 212 107 91 96 80 74 75 81 80 82 83 89 81 72 67 69 71 70 69 67 66 64 63 46 40 175
61 36 41 37 36 34 34 33 32 41 49 138 218 203 204 204 205 201 200 197 193 195 130 143 169 167 170 177 176 180 187 191 187 194 222 224 212 191 195 193 207 215 217 226 189 93 203 211 213 212 211 212 214 216 208 109 113 86 32 26 28 28 28 28 25 23 21 19 18 18 17 16 15 13 11 10 5 3 21 161
59 36 40 32 30 31 32 34 34 39 45 146 217 203 206 205 204 201 203 197 194 193 119 143 169 166 168 176 173 182 187 191 187 195 223 223 210 190 195 193 207 215 217 227 185 89 178 187 191 203 213 212 214 215 207 104 87 100 125 127 125 120 125 127 125 122 122 120 118 114 115 111 102 99 97 94 90 72 68 154
56 32 38 39 41 42 43 46 42 38 44 154 216 204 203 204 202 203 201 198 194 192 112 146 168 165 167 175 171 183 188 191 186 197 223 223 207 189 194 194 207 216 217 227 181 88 168 169 170 203 213 212 213 215 206 107 97 114 210 217 215 218 219 219 220 217 218 222 222 221 222 223 221 219 216 218 218 172 128 166
56 35 44 44 44 44 45 45 40 37 45 162 214 203 203 205 202 204 201 198 194 189 99 148 168 164 167 173 170 182 189 192 185 199 224 222 204 189 193 195 207 216 218 227 176 95 193 194 186 204 212 212 213 215 205 107 105 113 193 199 199 202 200 199 199 196 201 211 212 214 217 214 215 215 220 222 217 171 130 168
55 37 43 39 38 37 37 37 33 36 47 169 217 204 204 204 204 203 198 201 199 187 96 151 168 163 167 171 170 183 189 192 183 201 224 221 201 189 192 196 207 216 219 227 173 98 206 212 207 210 212 212 212 215 204 108 106 111 174 172 178 181 181 181 171 168 169 194 203 208 212 210 216 216 218 219 207 166 135 163
52 38 40 33 32 31 32 32 32 36 48 176 216 204 203 201 203 201 200 200 201 183 92 153 167 163 167 169 171 183 188 192 183 204 224 219 198 190 191 197 205 217 220 227 170 95 192 211 211 211 211 212 212 214 202 106 105 114 184 170 190 193 194 196 182 174 171 187 196 201 202 206 208 209 206 201 193 149 119 157
51 35 39 37 34 33 34 37 36 37 51 182 209 202 206 203 200 200 199 197 192 176 87 154 166 162 167 169 173 184 189 191 181 206 224 218 195 190 189 197 205 217 220 226 165 99 200 211 211 212 211 211 213 215 202 104 101 115 179 169 185 187 187 183 166 153 151 159 169 185 192 197 197 196 195 193 185 153 124 153
50 35 41 42 43 44 44 46 45 39 53 188 212 202 206 205 203 200 198 198 194 171 84 156 165 161 167 169 174 185 190 191 181 208 224 217 193 189 187 197 206 216 221 224 161 102 199 198 204 208 195 196 206 211 199 104 101 108 155 145 152 154 156 156 156 156 158 165 173 183 193 184 183 198 189 199 206 197 187 175
47 38 45 45 44 44 45 46 44 39 58 194 208 208 211 210 209 207 203 199 197 166 82 158 164 160 167 169 176 186 190 190 180 210 224 215 191 188 185 196 205 216 222 222 159 95 169 169 164 174 165 177 175 179 192 105 106 99 134 145 151 154 156 158 161 164 166 169 175 186 195 180 192 208 195 212 227 217 202 190
47 39 41 38 36 35 36 37 36 39 61 200 212 202 210 207 206 208 206 205 206 159 82 160 163 160 168 169 178 186 191 189 180 213 223 214 190 188 183 194 205 216 223 219 154 109 183 184 177 180 180 174 179 180 195 105 103 100 136 146 152 154 154 157 161 163 165 170 175 188 196 186 198 204 205 192 207 200 198 200
47 41 43 36 34 30 31 32 33 40 66 203 209 203 201 204 201 201 201 195 196 152 84 161 163 160 168 169 179 187 192 188 180 214 222 212 189 187 182 194 205 216 224 217 150 119 209 207 209 211 211 212 211 203 195 100 99 100 136 145 149 151 151 154 160 163 166 171 175 187 193 187 203 205 210 195 191 193 195 207
47 37 36 35 38 34 34 35 35 37 72 206 205 203 203 204 201 201 198 196 197 144 86 162 162 159 168 169 181 187 192 187 180 216 222 210 188 186 180 193 205 216 224 214 148 124 181 185 188 183 190 190 195 214 197 101 105 98 131 140 145 149 150 153 158 164 167 171 175 194 199 189 192 204 206 202 191 196 200 190
44 39 41 39 40 41 43 44 41 37 77 209 206 201 206 203 200 204 199 192 197 136 89 163 161 160 168 170 183 187 192 186 179 217 221 209 188 186 179 193 206 217 224 216 144 124 197 191 196 192 195 194 195 212 196 101 104 97 131 140 146 150 152 155 158 163 168 172 175 199 204 181 181 196 211 214 199 195 194 178
42 40 42 40 41 40 42 42 38 37 84 212 206 201 202 203 199 201 200 190 195 127 93 163 160 160 168 171 184 188 193 184 179 219 220 208 188 184 178 193 207 217 224 212 142 121 181 190 182 184 191 189 190 214 195 100 103 96 129 138 145 149 152 154 157 161 166 171 174 190 189 170 181 199 208 212 204 190 187 173
41 37 36 31 31 31 31 32 31 36 91 214 203 202 202 205 200 196 203 194 198 119 97 163 160 160 168 171 185 188 193 183 182 220 219 206 187 183 178 193 208 218 223 208 138 129 193 198 194 193 194 193 196 212 193 100 103 93 119 126 130 137 140 140 142 145 149 154 154 173 201 194 200 207 212 208 202 197 195 195
38 33 34 30 28 27 28 30 30 37 99 215 202 207 204 201 202 200 198 193 201 112 102 163 159 160 167 172 186 189 193 182 184 221 218 205 187 181 178 193 208 218 223 209 134 137 208 204 206 207 209 210 210 212 191 97 101 88 103 117 126 134 137 138 140 142 144 150 154 187 230 213 218 226 225 227 223 192 192 214
38 28 28 30 32 32 31 30 31 37 107 214 200 205 203 200 201 201 195 194 200 104 106 163 158 160 167 174 187 189 192 180 187 221 216 203 187 179 178 194 210 218 222 210 131 143 207 203 204 206 207 208 208 211 190 97 100 90 108 120 129 138 141 140 142 144 146 150 153 185 230 209 213 226 227 227 222 180 184 204
38 28 31 34 34 33 31 30 29 36 115 216 205 202 202 201 200 198 197 193 201 96 111 163 157 161 167 175 187 190 192 179 191 222 215 202 187 178 178 194 211 219 220 204 129 149 207 203 204 205 206 207 207 211 187 95 95 90 110 120 128 137 140 139 137 142 145 148 150 175 217 205 210 215 216 216 213 193 195 212
37 30 34 33 32 38 61 62 59 45 122 215 204 203 203 202 201 198 199 191 198 90 116 162 156 161 167 177 188 190 192 177 194 222 215 200 186 175 179 195 211 219 219 204 125 150 204 203 203 204 205 205 206 210 186 92 92 84 92 111 123 132 138 138 133 142 146 153 154 72 46 52 54 56 58 59 60 61 66 70
35 33 33 31 25 63 152 148 148 69 130 215 204 200 203 203 197 201 199 192 199 84 120 161 155 161 167 178 188 190 191 177 198 221 214 198 186 174 181 196 212 219 219 208 122 65 71 172 206 203 204 205 206 209 183 92 95 79 91 118 130 137 143 149 151 149 152 159 164 54 69 72 59 59 64 32 20 22 26 60
47 47 53 56 55 72 112 121 126 62 139 217 203 203 209 208 204 203 201 195 197 79 124 160 155 161 166 180 188 190 190 177 202 220 213 196 186 171 181 197 212 219 215 204 119 48 38 164 207 203 204 205 205 209 181 93 96 84 100 115 127 136 142 147 150 150 152 158 165 52 96 102 91 96 84 29 25 24 50 64
118 129 141 143 128 121 139 140 134 62 147 219 203 203 205 205 205 204 203 202 199 74 128 159 154 161 167 182 188 192 190 177 205 218 213 195 186 171 182 198 212 220 213 201 118 62 58 170 206 203 203 204 204 208 180 89 91 84 104 127 135 134 145 148 146 135 139 145 146 44 19 30 44 53 56 58 59 73 88 94
129 134 133 130 126 125 128 131 126 59 156 214 204 204 202 203 200 197 197 193 192 70 131 158 153 161 167 183 188 191 189 178 207 217 214 195 187 170 183 199 212 221 209 200 116 79 86 177 205 203 203 204 204 208 178 88 92 76 95 184 183 183 185 187 163 83 62 61 51 43 56 78 92 102 102 101 107 89 73 125
130 128 130 135 130 136 134 139 127 58 165 213 204 203 204 205 200 198 197 191 189 66 134 157 152 160 168 184 188 191 187 179 208 215 214 194 186 168 184 200 212 221 208 200 111 74 77 178 208 205 203 204 204 207 177 90 92 51 64 166 147 142 150 174 181 99 63 67 94 106 110 111 106 114 123 117 112 84 70 109
140 139 138 137 134 128 123 132 106 57 172 213 204 202 205 201 199 198 195 192 186 64 137 155 151 160 168 185 188 192 186 181 207 212 215 192 185 167 185 202 212 221 209 201 110 65 57 150 172 163 151 192 205 207 175 81 68 39 76 167 155 149 172 165 175 131 74 89 113 120 126 126 110 117 138 137 116 99 70 93
138 138 121 89 94 89 114 123 97 62 179 217 203 205 206 204 202 197 195 193 182 62 139 154 150 160 169 186 188 192 185 184 205 209 215 191 184 167 185 203 212 221 207 202 108 55 53 115 132 131 131 148 187 209 166 60 55 35 59 164 166 166 169 171 165 146 82 80 81 75 77 83 89 94 101 103 104 103 54 59
135 133 110 101 94 113 133 112 87 64 186 213 205 201 205 204 202 199 196 196 176 60 140 152 149 159 170 186 188 192 183 188 201 206 217 192 183 167 186 205 212 222 200 199 102 32 31 115 135 133 133 131 178 210 158 54 54 38 30 53 71 77 92 85 80 85 70 65 69 83 94 99 103 108 112 112 109 113 97 92
138 126 102 99 94 119 136 115 100 66 191 211 207 204 204 204 200 197 197 194 172 60 141 151 148 159 171 186 188 192 182 193 197 202 217 194 182 168 186 206 212 221 197 198 99 40 40 117 134 133 133 133 178 207 159 48 47 39 27 46 73 99 112 118 126 137 145 142 134 161 186 185 185 185 188 189 189 189 191 192
136 122 103 99 101 109 124 115 109 70 197 211 207 204 205 204 199 195 194 197 166 61 141 148 147 158 172 186 188 192 182 197 192 198 219 197 181 170 188 207 212 221 203 198 102 117 127 131 133 132 132 131 162 208 158 44 43 40 29 52 82 102 112 120 129 141 152 157 155 195 214 212 211 211 212 213 213 212 211 212
124 118 102 104 111 104 118 112 111 72 207 221 218 212 212 212 203 201 197 198 161 63 142 148 147 157 174 186 188 191 182 201 187 193 218 200 180 171 189 207 212 220 205 198 90 123 133 133 132 134 139 158 195 207 162 56 52 43 27 58 85 100 111 117 125 137 148 154 153 200 218 215 213 213 213 213 212 211 211 212
118 109 86 98 113 109 102 111 109 68 163 177 177 182 189 195 198 204 207 213 160 61 125 122 138 157 175 186 188 191 183 205 190 189 218 206 181 175 191 208 213 220 208 200 86 126 137 136 137 148 160 173 190 206 167 71 71 51 34 57 80 100 112 118 124 133 145 154 152 192 217 213 212 211 211 213 212 211 210 211
122 83 79 104 110 109 93 123 116 62 64 66 63 63 70 78 69 75 85 106 98 51 61 53 95 155 176 186 188 191 185 207 191 187 216 212 185 179 194 208 217 206 104 100 81 153 151 149 150 163 176 190 201 207 167 75 75 57 47 46 51 66 80 88 93 110 127 145 150 183 221 217 217 217 218 218 218 217 217 217
113 72 82 114 104 105 89 136 136 60 48 45 47 48 93 117 122 116 101 77 56 88 149 144 138 151 180 185 184 190 188 209 189 187 211 218 192 184 196 208 217 177 58 48 94 174 173 174 185 199 207 205 203 207 166 75 70 56 66 70 62 77 78 81 94 107 104 99 80 93 171 174 171 167 165 162 156 150 148 145
77 65 89 110 101 87 100 144 101 76 129 145 136 133 162 168 178 189 195 191 179 177 187 174 162 178 200 191 184 185 170 187 191 194 200 205 195 190 195 203 209 197 182 179 185 188 192 203 210 212 210 204 204 208 165 73 62 52 70 75 59 127 138 121 102 91 93 100 88 70 92 105 106 109 110 110 111 112 114 116
70 86 103 99 84 81 121 127 133 181 193 184 179 185 188 193 192 187 185 186 187 183 183 189 187 186 198 204 201 199 198 197 204 201 203 200 198 201 206 214 217 218 217 212 205 208 212 214 212 209 209 206 205 210 164 69 57 43 58 70 60 127 155 155 155 144 127 103 78 68 89 129 152 142 136 131 128 123 119 115
100 104 94 93 107 129 151 172 192 188 182 182 181 188 195 195 189 188 189 191 187 184 191 190 185 190 195 190 190 192 194 191 194 201 202 191 198 209 215 219 217 216 215 210 203 209 211 211 210 208 207 208 202 201 158 68 50 52 60 55 47 119 150 152 155 153 155 156 153 139 114 86 88 101 110 119 128 137 146 154
130 126 125 134 145 166 187 190 184 183 183 182 190 193 193 192 189 189 192 187 189 194 192 187 194 198 192 192 193 190 188 193 201 208 208 203 197 209 220 218 216 215 214 213 212 211 210 210 210 210 209 209 192 173 160 129 106 92 89 86 59 109 146 149 154 153 152 153 154 154 155 155 157 208 223 222 222 221 220 220
139 145 147 152 166 174 175 176 177 180 185 188 186 185 186 192 192 190 188 189 194 190 188 195 198 192 193 194 191 190 195 202 209 215 210 210 210 214 221 218 218 219 217 213 210 210 211 210 206 199 193 187 178 177 169 152 135 115 99 95 70 102 140 145 150 150 150 151 151 152 151 151 151 192 218 215 215 214 215 214
169 169 169 167 167 164 166 169 174 176 184 184 178 179 185 191 188 186 188 191 188 188 194 193 188 190 195 190 188 195 202 209 217 213 182 200 220 211 222 221 200 170 178 196 204 203 198 192 187 184 183 182 181 180 174 166 163 158 146 128 100 82 99 120 137 145 146 148 148 149 150 150 149 181 216 214 213 214 214 213
177 176 176 176 176 175 175 174 178 178 179 177 175 177 181 185 183 184 183 186 188 187 185 186 187 188 188 187 192 201 208 217 203 162 149 146 118 68 151 205 154 148 162 180 192 193 195 194 194 194 194 192 192 192 191 188 187 185 186 186 180 166 143 120 98 97 108 126 142 147 147 147 147 174 216 214 214 214 214 214
181 183 184 184 184 184 182 182 183 184 185 184 183 183 186 187 184 185 185 185 182 180 183 183 182 183 187 192 198 207 216 207 185 177 117 86 100 116 137 180 187 196 196 196 194 191 194 193 193 192 192 192 192 188 186 179 177 176 176 181 177 178 185 189 170 141 116 101 94 109 131 145 145 173 211 209 208 207 207 204
