P2
80 80
255
42 41 40 40 40 39 39 40 41 42 43 43 44 45 47 46 46 47 47 47 47 47 49 48 47 47 48 49 48 38 36 33 56 92 93 98 104 110 101 106 107 107 109 107 109 111 110 110 103 102 102 100 117 121 120 117 116 120 83 12 16 16 13 54 117 115 114 117 70 13 16 15 11 66 116 113 112 116 55 12
41 40 40 40 39 40 42 42 41 41 42 44 43 45 46 47 47 47 48 47 48 48 48 48 48 49 48 49 46 27 23 20 50 100 100 93 91 91 91 98 98 100 99 97 101 105 109 110 105 101 96 92 107 114 120 122 121 102 75 67 60 75 75 88 102 92 98 104 93 61 47 63 71 90 108 107 107 104 83 60
40 40 40 40 39 41 41 39 40 41 41 42 43 44 46 48 47 48 47 48 49 48 49 49 49 49 50 51 46 26 23 20 53 102 102 94 95 98 91 102 102 106 102 100 106 107 107 111 113 109 103 113 110 112 82 66 62 32 58 86 73 86 92 99 87 77 89 99 101 79 67 90 106 105 103 103 103 100 98 89
38 40 40 40 40 41 39 40 41 43 42 43 43 45 47 47 46 48 48 48 49 48 49 49 50 49 50 51 47 26 23 20 52 104 98 79 83 80 73 77 80 85 81 73 78 95 111 112 109 100 109 113 113 111 46 13 10 9 47 68 59 64 68 75 71 69 66 66 67 67 61 63 76 83 82 83 83 82 93 94
40 41 41 43 40 41 40 41 42 43 44 45 45 46 48 47 48 49 50 48 50 50 49 49 51 51 50 51 48 28 24 21 52 103 101 77 80 68 68 72 64 71 69 67 66 95 110 110 101 107 112 112 111 111 47 17 13 9 47 67 62 59 63 65 69 69 69 70 71 71 71 70 69 68 69 70 66 64 80 92
40 40 42 42 41 40 42 41 42 43 43 43 45 46 48 48 48 48 49 49 50 51 50 52 51 51 49 50 47 27 23 20 51 103 105 103 104 102 97 102 96 106 104 107 99 89 95 91 99 113 111 109 110 115 49 17 12 8 42 69 63 57 68 60 66 64 66 68 70 66 67 66 67 69 66 66 69 68 79 89
40 40 41 42 40 40 42 42 42 44 45 44 44 45 47 48 47 49 47 50 50 51 50 50 50 51 48 50 46 27 23 20 51 103 101 88 81 89 83 93 94 107 110 90 82 82 94 97 97 102 109 110 113 115 50 17 11 7 41 62 62 56 56 68 72 67 62 64 71 71 68 69 68 67 73 69 60 62 79 97
40 40 41 41 41 41 41 42 42 42 43 44 45 46 46 46 49 49 47 50 50 49 49 49 50 50 48 49 46 27 23 20 51 104 104 72 67 52 59 63 68 102 95 77 94 72 90 104 87 90 109 112 112 115 47 13 8 9 40 62 60 57 58 60 65 71 65 65 66 73 72 69 70 64 70 69 70 68 80 96
39 39 42 43 41 40 40 41 42 43 44 45 46 47 47 47 48 48 47 49 51 50 49 49 49 47 47 49 45 27 23 20 51 104 104 96 93 89 86 92 100 106 83 97 102 79 96 88 90 104 105 113 112 113 76 57 36 21 36 56 55 69 72 69 69 70 72 72 72 70 73 72 72 70 69 70 69 72 81 97
39 40 41 42 42 41 42 42 44 43 43 44 46 46 47 48 48 50 49 49 50 50 50 49 49 47 48 48 46 27 23 20 51 107 104 106 104 106 100 99 102 108 87 94 98 81 78 68 100 105 103 113 110 109 119 124 78 42 40 69 65 70 71 71 71 71 72 70 69 69 69 70 71 71 71 71 73 71 81 98
40 41 42 43 43 41 42 42 43 43 44 44 47 47 47 48 48 48 49 49 50 51 50 50 49 48 47 48 46 27 23 20 53 106 104 106 81 65 67 67 89 107 99 76 79 59 56 63 84 104 99 110 111 112 118 119 73 43 49 89 84 66 69 69 70 70 69 67 66 68 67 68 70 71 71 71 71 70 77 97
40 42 41 43 43 41 41 41 42 44 45 46 45 47 47 47 46 47 49 49 48 50 50 50 49 50 50 52 47 27 24 21 54 105 106 107 83 76 82 75 97 105 93 82 68 55 70 68 74 97 101 113 113 112 119 118 70 43 54 100 92 50 53 53 55 53 55 56 56 56 57 56 56 55 54 54 55 52 74 96
41 41 42 42 43 42 42 41 41 43 43 45 46 46 47 47 47 48 47 47 48 48 49 48 49 51 50 52 47 27 24 20 54 105 107 101 109 107 98 106 110 103 94 83 75 71 100 64 76 98 106 114 113 111 119 115 67 43 56 104 91 48 46 47 47 47 48 53 55 56 54 56 49 46 46 46 47 45 71 96
42 42 41 41 41 40 41 41 41 41 44 44 46 46 46 46 46 46 46 47 47 49 48 48 50 51 51 51 47 28 24 20 54 107 106 64 78 72 61 77 80 77 93 95 58 87 110 77 75 102 107 110 109 109 120 115 66 43 64 107 91 84 89 88 87 83 81 79 79 74 76 75 80 81 80 80 70 66 74 90
39 42 41 40 41 40 43 42 42 41 44 44 46 44 44 43 44 44 45 45 46 48 48 49 50 50 50 50 46 27 24 21 52 106 101 72 66 63 66 58 68 77 96 95 76 97 107 86 74 100 111 111 112 113 103 87 48 35 63 105 95 104 112 108 110 93 82 88 95 98 89 95 99 102 103 88 79 92 90 89
39 41 41 41 41 42 43 42 43 45 47 45 45 44 43 43 44 44 45 46 44 47 49 49 50 50 50 51 46 27 24 21 52 98 95 98 100 104 101 96 104 107 110 104 89 96 99 89 100 112 112 112 112 115 54 14 6 7 61 106 98 105 110 106 107 87 76 81 81 97 98 95 90 90 97 61 68 88 93 97
40 40 40 41 41 42 43 42 43 42 43 45 45 44 43 44 45 45 47 47 45 47 48 48 48 48 48 50 46 25 23 20 53 104 101 78 92 101 99 100 103 98 96 82 80 87 82 97 109 109 109 109 110 115 55 12 5 3 58 111 110 111 109 106 105 83 73 78 86 92 98 95 92 89 96 66 55 71 86 97
41 41 41 42 41 43 43 42 43 44 44 45 45 44 43 45 45 46 47 47 45 47 48 48 48 48 49 49 45 25 24 20 51 98 97 60 59 64 86 83 75 67 70 64 62 71 65 86 102 102 109 110 112 121 57 11 5 3 58 109 106 107 104 100 103 87 77 83 88 95 98 98 95 94 98 92 73 81 88 95
41 42 43 42 43 44 43 42 44 45 44 45 45 45 44 46 46 47 46 47 47 47 49 50 48 48 49 50 44 26 23 20 53 104 98 84 89 94 92 90 82 77 99 93 91 94 92 101 110 105 102 113 118 126 57 10 5 4 52 86 88 84 90 104 103 94 93 87 93 99 100 90 81 93 100 88 77 85 95 95
41 43 43 42 43 43 42 43 44 45 45 45 46 46 45 45 44 46 46 47 46 48 49 49 48 49 49 51 45 26 23 20 55 108 107 100 109 111 102 109 111 111 113 108 105 109 103 111 110 111 105 117 123 124 55 9 5 4 52 88 82 81 84 98 98 97 96 94 98 99 97 85 87 93 100 87 90 87 92 95
42 43 44 43 44 43 43 44 44 43 44 45 46 45 46 44 47 47 47 48 46 48 48 47 49 49 51 53 46 27 24 22 54 105 105 102 103 102 104 110 110 109 109 105 103 104 103 109 109 112 111 118 121 120 61 17 11 7 57 101 87 76 80 99 94 95 100 101 95 85 84 83 78 89 99 93 91 90 92 94
43 43 43 43 42 43 44 44 44 44 45 45 46 45 46 45 46 46 48 48 47 47 48 47 48 49 50 51 46 27 25 21 56 109 109 99 97 97 104 102 107 112 111 107 104 107 101 112 115 118 111 118 116 112 112 76 52 38 58 108 95 84 94 99 94 92 97 88 81 79 80 84 89 94 101 100 93 92 94 91
44 44 42 43 42 43 43 42 44 45 46 46 45 46 46 46 47 48 47 48 47 47 49 49 49 51 51 51 46 27 25 22 56 107 106 92 93 97 104 106 107 108 108 105 103 105 98 104 106 106 109 111 108 107 116 79 56 43 59 111 108 93 82 82 90 98 91 81 75 73 87 97 99 98 96 98 88 90 95 92
43 44 44 44 44 44 43 44 46 44 46 47 46 45 45 46 47 47 46 46 47 46 49 48 49 50 51 51 47 27 25 22 57 106 100 97 101 107 110 111 110 109 109 109 110 106 99 100 102 106 112 111 111 111 114 74 55 43 58 110 104 92 74 70 75 91 81 81 76 80 92 99 99 90 86 97 85 83 96 89
43 44 44 44 43 44 44 42 45 45 47 47 46 46 47 46 46 46 46 48 47 46 48 48 50 50 51 52 46 27 24 22 54 98 95 103 104 112 112 111 110 110 110 110 111 106 103 101 109 110 110 109 109 108 111 71 56 43 58 110 107 104 81 77 79 92 77 76 84 95 99 101 96 82 84 96 80 70 93 92
43 45 44 45 44 44 45 44 43 38 34 27 26 40 57 44 47 46 44 45 48 47 47 48 48 49 51 52 46 27 24 21 57 105 98 104 103 109 108 107 107 107 107 107 108 104 103 102 103 108 108 108 108 105 111 69 56 43 56 102 102 106 86 80 91 96 85 92 98 101 96 90 78 80 95 93 75 64 87 94
44 44 45 44 38 32 25 18 13 9 7 8 18 42 64 39 42 43 34 23 48 51 50 50 50 52 53 53 48 29 25 22 60 108 100 108 104 111 112 111 111 111 111 110 111 106 104 108 101 111 111 111 108 108 108 65 54 44 46 87 92 106 109 107 98 92 95 101 103 102 84 71 78 100 103 89 78 63 86 96
42 44 31 13 8 6 5 5 7 8 7 9 20 55 59 36 39 40 34 18 42 46 46 47 48 50 50 51 53 52 33 21 61 104 103 95 91 94 99 99 98 97 101 108 109 104 102 108 100 105 108 106 105 112 60 16 15 12 39 77 78 89 106 105 104 101 102 102 100 101 93 81 96 100 97 90 76 75 95 91
42 44 23 5 7 7 7 7 8 8 7 9 27 64 56 34 37 39 35 17 37 43 43 42 43 45 46 47 49 52 33 21 60 101 107 98 95 100 99 100 98 101 108 109 109 105 103 110 106 102 110 105 109 113 45 2 4 3 37 74 78 80 103 104 104 103 102 103 101 100 97 98 98 96 93 80 72 84 98 95
42 44 22 9 16 11 8 9 6 8 7 8 32 61 46 33 36 39 40 22 33 40 40 41 41 42 43 44 46 48 31 21 60 105 111 86 102 109 108 109 115 115 115 114 115 110 108 115 114 103 109 113 111 112 44 1 4 3 38 63 72 72 103 105 104 100 98 97 95 93 91 89 91 90 90 86 73 90 98 93
43 44 21 17 17 15 20 23 19 8 7 10 25 47 47 32 35 41 45 32 31 38 38 39 40 40 41 41 43 45 31 19 59 111 113 86 95 99 97 100 109 107 105 105 104 103 104 105 104 104 111 114 111 109 56 26 18 2 39 74 79 89 104 98 102 99 98 97 96 97 96 98 100 100 99 92 75 94 98 93
43 43 20 23 32 33 32 30 25 9 8 10 20 30 30 25 30 37 43 36 23 35 37 37 39 39 39 39 41 41 39 66 81 96 87 74 86 85 85 90 89 66 60 60 56 60 71 68 58 82 97 99 102 103 98 104 61 1 40 87 87 104 99 84 95 102 102 97 95 93 95 102 104 103 102 96 90 102 100 94
42 44 19 24 35 33 29 27 22 8 8 10 22 15 8 7 8 10 12 14 12 16 18 19 22 25 33 35 36 37 41 88 80 78 74 79 81 80 81 79 85 88 92 94 102 105 113 116 109 101 109 109 109 106 110 113 70 0 39 83 97 111 101 88 97 105 103 97 93 92 88 85 98 107 108 105 104 106 102 97
43 43 20 12 16 12 10 17 15 8 8 11 22 13 59 79 65 56 47 39 31 23 16 10 7 16 54 53 55 50 55 83 75 84 89 86 90 96 102 116 119 115 126 114 102 92 90 92 95 92 100 104 104 103 104 104 68 25 37 77 109 115 108 97 92 102 98 101 98 101 97 82 91 108 108 100 94 100 104 94
41 41 18 5 6 9 11 13 15 8 7 11 21 12 93 129 126 126 124 121 118 112 101 92 71 44 124 112 91 90 87 80 84 88 92 89 94 126 133 119 97 99 94 94 93 86 77 18 18 40 57 60 58 55 52 50 43 40 39 70 84 85 82 77 66 73 70 74 80 85 79 64 69 81 80 74 63 67 74 63
33 35 15 18 23 18 28 17 6 8 7 11 21 13 95 104 96 98 99 102 104 112 116 114 94 54 112 83 84 89 86 81 86 88 91 88 99 130 134 116 97 102 103 116 126 126 131 42 10 10 11 12 11 11 11 11 14 15 19 22 19 19 20 21 21 21 22 21 22 22 25 29 29 26 26 29 29 26 24 10
26 28 13 16 16 11 11 10 7 8 7 12 21 14 100 112 103 103 103 103 96 96 97 98 89 63 86 76 80 88 86 83 87 89 92 88 102 132 132 113 97 100 103 115 124 122 132 47 31 37 32 36 35 29 20 31 29 19 19 35 44 42 32 40 54 58 60 54 39 60 56 40 52 64 63 69 74 65 41 12
24 23 11 7 7 8 8 9 10 11 10 12 19 15 106 124 113 111 113 110 107 106 112 109 89 57 74 76 78 86 85 84 88 90 93 89 106 133 131 110 96 99 104 116 124 123 131 44 46 63 62 62 61 62 62 80 69 27 25 37 43 41 32 37 55 58 58 59 41 55 44 34 47 57 57 55 56 53 40 11
23 23 11 9 11 11 11 11 11 11 8 12 22 18 108 113 108 109 107 106 104 104 101 99 85 51 73 76 77 84 85 83 88 91 94 89 108 133 129 107 96 97 104 115 124 124 130 41 85 119 117 118 118 119 119 121 119 46 30 32 23 20 23 24 24 25 29 27 23 18 19 20 20 20 19 18 18 17 16 8
23 23 11 9 10 8 8 8 8 7 7 12 37 21 110 113 106 109 108 108 104 104 98 99 82 49 73 75 75 82 83 82 89 92 95 89 111 133 127 104 96 96 104 114 123 125 128 40 84 116 116 115 115 116 117 119 116 46 44 31 7 3 4 3 4 3 2 2 1 1 1 0 0 0 0 0 0 0 0 0
23 23 11 9 9 7 7 7 7 8 7 12 39 23 114 111 108 109 108 106 105 105 98 100 78 45 74 75 74 80 81 81 90 93 94 89 113 133 126 102 96 95 105 115 124 126 126 38 68 97 98 107 116 116 118 118 116 44 28 35 57 59 55 56 58 58 57 57 58 57 55 55 57 54 52 52 50 48 39 22
23 22 10 8 9 9 10 10 11 12 9 12 31 26 116 110 108 107 107 106 106 103 99 99 75 44 75 74 73 79 80 80 90 94 94 89 115 132 124 99 96 94 106 115 123 128 124 35 62 84 81 108 116 116 117 118 115 44 34 41 113 118 119 121 122 122 121 119 124 126 124 124 125 125 123 119 120 118 107 54
22 22 10 10 11 11 11 11 11 11 9 11 24 29 117 109 107 108 107 105 107 103 100 100 70 41 76 74 73 78 79 80 90 95 93 89 118 132 122 96 96 94 107 115 123 129 121 35 81 103 94 108 116 116 116 118 114 44 40 40 98 104 106 107 104 104 104 102 112 115 116 120 119 119 118 121 128 122 108 55
23 22 10 10 10 10 9 9 9 9 7 11 20 33 121 112 108 109 107 107 105 103 104 103 65 43 76 73 73 77 77 81 90 95 93 89 121 131 119 95 97 94 107 116 124 131 118 35 92 117 111 113 115 115 116 118 113 44 41 39 79 83 88 88 88 85 77 77 85 106 107 114 113 116 120 120 125 117 97 56
23 22 10 10 9 8 7 7 7 8 7 11 18 37 122 111 107 106 105 107 104 103 103 106 61 44 76 73 73 76 76 83 89 95 92 89 122 129 117 93 97 94 107 116 124 132 116 32 84 115 114 114 115 116 116 117 112 43 39 40 79 85 95 95 97 95 80 79 83 97 101 105 106 110 113 110 107 100 84 45
22 21 9 9 9 8 8 8 8 9 8 12 18 42 119 105 108 108 105 104 103 103 96 99 56 44 75 72 73 76 76 84 90 95 91 89 124 128 115 92 96 93 106 116 124 133 113 33 91 115 114 115 115 115 116 118 112 42 37 40 76 85 90 91 91 87 71 66 64 68 75 86 97 99 99 101 99 94 80 55
22 21 9 9 10 10 11 11 11 12 11 12 16 46 121 108 106 111 107 107 101 103 98 100 51 46 75 71 73 76 76 86 91 96 90 91 126 129 113 91 94 93 105 116 124 133 110 33 90 104 108 111 102 102 110 114 109 42 38 37 63 61 62 65 66 66 66 65 66 70 76 81 95 92 84 98 97 96 112 107
23 20 9 10 11 12 11 11 12 12 10 12 13 52 120 108 115 115 114 112 110 105 101 101 46 48 74 70 73 76 77 87 91 96 89 92 128 128 110 90 93 92 104 117 125 132 107 33 74 81 77 84 78 87 87 87 102 43 41 34 50 57 62 64 65 67 69 71 72 74 78 83 98 91 86 113 101 107 131 126
22 20 9 11 10 9 8 9 9 9 8 12 12 57 124 108 109 114 109 111 111 109 107 106 41 50 74 69 73 76 78 88 92 96 88 93 129 127 108 90 91 91 103 116 125 131 104 32 81 92 87 90 90 86 90 88 105 43 39 34 51 58 63 64 64 66 69 70 71 74 79 83 100 93 93 112 106 100 105 111
22 19 9 11 10 8 8 7 7 8 7 12 11 62 120 108 105 106 107 104 105 102 96 100 38 52 73 69 73 76 78 89 92 96 87 95 130 125 106 90 89 90 102 116 126 130 100 36 100 111 111 113 114 115 115 106 106 40 35 33 51 57 60 62 62 64 67 70 72 75 78 83 97 92 96 115 108 107 92 101
21 19 9 9 9 9 9 8 8 8 8 11 10 68 118 107 107 108 105 105 103 101 97 99 34 55 73 68 74 76 80 89 93 96 86 96 130 123 105 90 88 90 102 117 127 128 97 37 82 93 96 92 96 97 100 116 109 39 40 32 48 54 57 60 61 63 66 70 73 76 78 84 106 94 92 106 108 108 99 98
21 19 9 10 10 10 10 11 11 11 9 10 9 73 117 107 106 110 104 106 105 99 95 98 31 57 72 68 74 76 81 90 93 95 84 97 131 123 104 91 86 90 102 118 128 129 97 37 94 98 102 99 101 101 100 114 108 39 39 32 47 54 58 61 63 64 66 69 73 76 78 86 115 94 81 94 108 120 108 98
21 18 9 11 10 10 10 10 11 10 9 10 9 78 118 107 104 106 105 103 105 100 91 95 28 59 72 68 74 76 82 90 94 95 83 100 131 121 102 91 85 90 102 119 128 125 95 34 84 96 90 91 97 97 96 115 107 39 39 32 46 53 57 61 63 64 65 68 71 76 78 83 100 82 77 97 107 117 111 97
21 17 8 10 8 8 7 7 7 8 7 11 10 84 115 107 105 108 107 100 103 105 94 95 26 61 71 68 74 76 83 90 94 94 83 103 130 119 100 91 83 90 103 119 129 121 92 37 94 102 100 98 100 100 102 114 106 38 39 30 41 46 48 52 55 55 55 57 60 63 65 67 103 107 105 112 117 117 113 106
21 16 7 8 8 6 6 6 6 7 7 11 11 88 113 108 110 106 104 104 103 99 98 93 24 63 70 68 74 75 84 91 95 94 82 106 129 118 99 91 81 91 103 120 129 120 91 39 105 107 108 110 112 112 112 113 105 37 38 29 33 40 45 50 52 53 54 55 56 59 63 70 124 127 115 131 132 132 133 111
20 17 7 6 7 7 8 8 7 7 7 11 12 93 110 106 109 104 104 105 102 98 98 91 23 64 70 68 74 76 86 91 95 93 82 109 128 116 98 91 80 91 105 120 129 120 89 41 105 106 107 108 110 111 111 113 103 36 37 29 35 42 47 52 55 54 55 57 58 60 63 69 124 126 107 129 133 133 132 105
20 17 7 7 8 8 8 7 6 6 6 10 14 98 112 108 105 105 105 102 102 99 99 88 22 66 69 68 74 76 87 91 95 92 82 113 127 116 96 91 80 92 106 120 130 114 86 44 106 106 107 108 109 110 110 112 102 36 35 29 36 42 46 51 54 54 53 55 57 59 62 65 111 118 110 119 120 120 120 104
20 17 7 7 8 8 7 13 22 21 19 11 15 101 111 109 106 107 104 103 103 100 96 84 22 67 68 68 74 76 88 92 96 92 82 116 126 115 95 90 79 92 107 120 130 112 85 44 104 105 106 107 108 108 109 111 100 34 32 27 29 37 44 49 53 54 51 55 57 61 67 47 15 16 18 18 19 21 22 22
20 15 7 8 7 6 3 36 65 61 59 15 17 105 111 107 104 108 103 103 104 100 98 82 22 68 67 68 74 77 89 92 95 91 84 118 125 113 93 89 78 93 108 120 129 115 86 20 25 83 108 106 107 107 108 110 99 33 34 25 28 40 47 52 56 59 61 61 62 65 72 48 11 37 20 19 22 15 3 4
21 17 12 13 16 17 16 29 43 47 49 27 20 109 112 106 110 114 110 107 107 103 100 78 23 68 67 68 73 78 90 92 95 89 86 120 123 112 92 88 78 93 109 120 129 109 84 14 7 78 108 106 107 107 107 110 97 33 36 26 32 39 45 51 55 58 61 61 61 64 72 48 16 57 36 38 40 16 4 5
41 42 43 51 57 58 49 45 56 55 55 39 23 113 113 106 107 110 110 107 108 106 108 74 24 68 66 67 73 79 90 93 96 89 88 121 122 112 92 88 78 94 110 120 129 105 82 16 15 81 108 106 106 107 107 109 96 32 32 26 32 46 53 52 57 60 60 54 54 58 63 40 2 5 12 16 18 20 20 22
49 51 49 52 51 50 48 47 48 50 51 30 26 114 110 108 107 105 106 100 102 99 100 69 25 68 65 67 73 80 90 93 96 88 91 120 122 113 92 87 78 95 111 120 127 103 80 19 27 84 107 105 106 106 107 109 95 31 33 24 24 80 87 86 88 89 84 40 18 18 16 11 13 22 30 34 36 35 36 37
46 47 49 48 50 53 50 53 52 53 55 29 31 115 109 108 106 109 107 102 102 98 99 66 27 68 64 67 73 81 91 94 95 86 94 117 121 114 92 86 79 95 112 120 126 102 77 18 23 85 109 107 106 106 107 109 95 32 33 17 11 71 67 61 63 76 87 54 18 18 27 38 40 41 40 37 48 45 43 38
52 53 56 55 54 54 53 50 45 51 44 26 35 117 110 106 108 107 104 102 102 96 100 61 29 67 63 67 72 82 91 93 95 86 98 113 121 114 90 85 79 96 113 120 126 104 76 16 15 65 81 74 65 94 107 108 93 28 21 10 13 73 71 67 76 76 77 71 26 26 37 44 48 49 46 38 54 56 50 38
55 56 55 55 48 29 29 28 36 47 37 23 39 122 112 106 110 109 107 102 101 97 101 57 30 66 62 67 72 83 91 93 94 84 102 108 121 114 90 84 80 97 113 121 124 105 74 14 13 42 52 51 51 62 90 109 88 18 16 9 9 65 76 75 76 79 76 71 37 23 26 24 22 24 27 29 33 35 35 36
59 61 54 52 41 34 31 37 49 45 33 30 43 120 111 106 107 108 108 104 103 97 103 51 32 66 61 66 72 84 91 93 94 84 105 101 120 115 90 83 81 98 114 122 119 100 72 9 6 43 54 53 53 50 82 110 83 15 15 9 6 12 19 22 27 29 24 26 24 19 18 21 32 38 40 40 43 45 42 43
59 58 55 49 36 32 29 40 51 47 41 30 48 119 111 110 107 108 107 102 101 97 102 48 34 65 60 66 72 85 91 94 93 85 108 95 118 116 90 82 81 100 114 122 117 99 70 12 11 44 52 53 53 52 82 109 83 14 12 9 5 11 19 29 36 41 44 50 56 59 55 53 80 90 89 89 90 92 93 93
60 56 55 48 36 34 32 37 43 44 49 28 54 120 112 109 108 109 105 101 98 98 103 44 35 63 59 65 72 86 91 94 93 86 110 89 116 120 92 82 83 102 113 123 118 105 65 34 50 52 52 52 52 51 69 108 83 12 10 10 6 13 22 31 37 41 45 52 59 65 65 70 110 116 114 114 114 115 116 115
59 51 44 47 35 34 39 35 41 39 54 25 60 128 123 120 114 117 111 105 104 98 103 40 37 62 59 64 72 87 90 94 93 89 111 86 112 121 94 83 83 103 113 124 117 108 60 35 53 52 53 53 57 69 98 107 85 17 14 11 5 15 24 31 37 40 43 49 57 62 63 70 116 119 117 116 115 116 116 114
57 30 34 43 26 30 39 38 36 32 58 22 46 92 92 93 97 102 105 107 109 110 111 37 33 49 50 64 72 87 90 94 92 91 112 87 107 124 98 85 84 105 113 125 116 111 57 38 56 55 56 62 71 80 93 105 88 23 21 15 7 14 22 31 37 41 43 47 53 61 64 66 111 118 115 115 114 115 115 114
55 28 42 31 21 32 39 38 33 36 62 27 16 16 17 16 16 22 22 22 28 36 50 23 17 18 24 57 73 88 90 94 92 95 112 89 101 127 104 88 87 107 114 130 72 40 27 52 67 64 64 74 84 94 104 108 88 24 23 18 12 11 12 17 22 27 28 35 41 52 60 62 104 122 118 118 118 119 119 118
58 51 48 23 21 37 37 35 29 43 63 28 11 10 12 11 23 42 50 52 48 36 23 17 52 60 58 56 75 89 88 92 92 99 110 89 97 127 112 93 90 108 114 121 42 9 16 66 80 80 88 99 110 108 106 108 88 24 21 16 18 19 18 19 24 22 26 35 37 34 32 22 49 89 87 85 81 81 78 75
51 47 29 17 23 38 35 30 27 53 49 19 43 64 63 56 67 75 80 88 96 96 92 83 92 87 76 74 96 102 92 91 84 84 94 98 97 108 104 95 94 102 108 111 95 92 93 96 94 103 112 115 115 109 107 109 88 24 18 14 19 20 19 29 58 50 43 33 29 30 31 22 21 34 41 42 44 43 43 43
40 29 19 24 33 35 27 22 37 49 44 74 95 91 84 86 90 95 97 95 90 90 91 90 86 89 93 89 94 104 107 103 102 102 103 107 104 106 102 101 106 111 120 122 122 117 111 108 113 117 117 114 111 111 109 111 87 22 16 11 15 19 20 27 63 64 65 63 57 48 36 24 20 30 52 64 59 54 51 49
31 30 33 34 33 28 33 45 57 71 89 95 89 87 87 89 95 100 97 93 92 94 95 90 90 96 92 89 96 98 94 95 96 97 94 98 105 105 94 103 113 122 124 121 120 117 111 109 115 114 114 113 110 111 108 103 81 21 13 13 16 14 13 23 58 61 64 64 64 65 65 63 56 43 29 31 45 52 59 64
56 55 53 50 49 50 55 64 83 94 92 87 89 88 89 96 97 97 95 92 95 95 91 94 98 94 91 99 101 95 96 96 94 92 98 105 112 112 107 100 116 126 122 120 119 117 116 115 114 113 114 114 112 111 104 80 72 52 39 30 27 25 20 20 54 59 62 65 63 63 64 64 63 64 64 66 110 124 123 122
53 54 55 58 62 63 69 78 81 82 82 84 86 92 91 90 90 92 96 96 94 92 94 98 92 92 99 101 95 97 98 95 94 99 106 113 120 112 115 113 122 126 122 122 121 119 115 114 114 113 112 105 98 93 84 82 77 65 56 44 34 29 25 20 49 55 58 62 61 62 62 62 62 62 62 62 96 121 118 117
65 73 76 77 77 77 75 75 74 75 79 81 82 90 87 83 86 92 94 91 91 93 94 91 92 97 96 92 94 98 94 91 98 105 113 122 116 88 109 120 117 126 124 99 85 94 104 107 104 98 93 88 87 87 85 85 81 74 72 70 65 55 44 28 29 36 46 55 57 58 60 60 61 61 61 60 88 119 117 116
87 86 85 84 83 83 83 83 82 82 82 84 84 85 82 82 84 88 89 88 89 88 90 91 90 90 90 91 92 92 91 96 104 112 122 109 74 65 67 47 26 87 102 65 71 81 92 95 96 97 97 97 97 95 95 95 94 92 91 89 89 89 88 82 71 57 42 31 33 38 49 56 59 59 59 59 81 118 117 117
86 87 87 87 88 89 88 89 89 87 87 88 89 89 89 88 89 91 91 90 89 90 89 85 84 89 88 87 87 91 96 101 111 120 112 92 85 49 33 41 50 66 89 94 98 97 97 95 94 96 96 95 95 95 94 94 90 87 82 81 81 82 85 82 83 89 89 73 56 44 36 31 38 49 58 58 80 112 110 109
