P2
80 80
255
107 107 108 110 112 114 114 116 119 120 119 120 122 121 122 122 122 125 123 123 124 124 127 119 103 97 131 187 187 191 198 204 196 202 202 203 205 204 206 208 207 206 196 194 191 188 209 213 203 215 214 213 218 112 58 64 65 65 174 217 213 212 213 102 60 63 63 66 186 215 212 213 208 89 67 73 69 80 199 214
110 110 111 108 110 114 114 114 119 120 121 121 122 122 122 123 123 123 123 124 126 124 128 110 79 72 119 196 194 185 184 183 184 192 191 195 193 191 196 201 205 206 200 195 189 186 205 209 205 221 220 215 175 165 141 150 162 161 192 191 194 198 207 165 125 135 155 157 197 208 207 204 201 159 86 67 66 76 203 220
110 107 107 109 111 110 114 114 118 121 122 122 123 121 125 124 124 126 126 125 126 128 129 109 77 73 124 198 197 184 188 192 186 198 197 202 196 196 203 203 204 207 209 205 200 209 206 210 160 139 142 117 110 183 168 177 186 199 193 171 181 195 201 186 158 178 205 209 204 203 204 201 200 191 155 136 137 138 154 154
108 106 109 111 113 114 114 115 121 121 120 121 125 123 124 125 124 126 127 126 127 129 130 110 78 73 125 201 190 162 169 163 153 159 163 171 163 155 161 187 207 207 205 197 205 209 208 210 117 60 64 38 92 158 149 150 154 168 166 161 159 154 157 160 152 151 162 179 178 178 179 178 187 192 212 219 219 211 87 62
108 109 112 113 114 116 118 117 121 122 121 125 126 126 125 128 126 125 128 130 128 128 130 113 80 75 126 200 193 158 163 148 150 152 143 152 151 146 148 190 206 206 197 204 208 208 207 209 118 66 69 39 93 157 152 146 152 152 162 163 163 163 165 165 166 165 165 163 163 165 161 155 171 187 208 214 214 207 92 67
110 111 111 112 114 114 114 118 122 123 123 124 124 125 125 128 127 129 129 130 128 127 129 109 79 74 126 200 200 197 198 197 193 197 190 202 199 204 194 175 188 182 196 209 208 206 207 214 120 67 67 36 89 158 155 142 157 146 157 154 158 158 164 158 160 158 160 162 161 159 162 163 169 187 206 214 214 208 93 67
110 112 111 113 117 116 115 117 119 122 122 123 124 123 128 128 127 128 127 128 127 125 129 108 78 73 129 201 193 173 165 175 171 182 185 203 205 174 166 163 189 193 189 197 206 207 209 214 121 68 67 34 91 151 151 144 136 159 163 163 151 155 161 169 160 161 165 157 168 166 152 150 168 194 208 215 214 209 96 68
109 111 111 112 114 116 116 120 118 119 122 126 123 124 128 127 125 125 127 127 126 125 127 108 77 73 130 201 197 149 145 124 136 141 150 199 180 162 187 151 186 199 170 183 207 209 209 214 118 62 60 32 94 150 149 143 144 145 153 165 157 157 155 166 168 161 167 155 162 165 163 164 172 195 211 219 219 214 96 65
107 111 111 113 115 118 118 120 121 122 121 124 122 124 127 128 126 126 126 124 122 122 127 107 79 73 130 201 199 187 185 178 176 185 193 201 165 193 197 163 193 172 184 199 202 210 209 210 152 129 120 77 96 141 139 159 167 162 161 163 166 167 167 164 168 167 167 164 163 164 162 167 174 197 180 171 172 171 130 117
111 111 113 115 114 115 117 121 120 123 122 125 126 125 127 127 128 127 127 123 124 123 126 109 78 74 132 203 198 201 198 200 194 190 197 203 171 187 194 164 161 149 196 200 199 209 207 203 199 225 209 146 112 156 156 160 165 166 165 166 166 164 163 164 163 164 166 165 166 166 169 167 174 201 115 68 71 75 194 219
110 110 112 114 115 116 119 122 120 123 123 123 124 126 125 128 128 128 126 125 123 123 127 107 79 73 135 202 200 199 160 142 146 146 184 200 190 156 162 122 131 138 176 199 194 207 208 206 197 220 199 142 122 180 184 158 161 162 163 164 163 161 158 162 160 161 164 166 167 167 167 166 171 200 118 71 73 77 191 215
109 110 109 113 116 119 118 119 121 122 120 121 124 125 125 125 128 127 126 126 128 128 131 108 80 74 137 201 201 200 164 161 166 158 193 198 187 165 143 120 151 143 157 192 197 210 209 206 198 220 195 139 128 195 194 137 137 137 141 139 140 143 143 144 145 144 143 142 141 140 143 138 163 200 119 73 74 77 191 216
111 111 110 112 114 116 119 119 120 123 120 124 123 123 122 125 125 125 125 127 129 129 130 106 80 74 137 202 201 193 205 201 192 203 205 196 188 167 154 157 192 135 159 193 203 210 209 206 200 220 190 138 131 201 191 133 128 129 128 129 130 139 142 143 141 143 134 129 128 129 130 127 161 200 122 74 75 77 190 216
109 109 110 111 112 116 117 120 119 120 120 120 120 121 121 123 125 124 126 128 130 129 128 107 79 73 137 205 195 136 163 147 140 162 164 162 188 183 125 181 208 147 165 196 204 206 206 204 204 223 188 138 141 206 189 176 182 181 180 177 175 173 173 167 170 169 175 175 175 174 163 158 167 193 117 76 73 74 190 219
109 114 111 110 113 115 117 119 115 116 115 116 117 118 120 122 124 125 127 127 128 128 129 107 79 75 138 203 190 152 143 142 144 133 151 162 191 182 156 192 203 168 159 198 208 208 209 209 185 186 150 112 141 204 193 202 211 208 210 193 179 186 193 198 188 195 200 203 204 187 176 191 190 192 141 108 103 103 175 192
113 114 112 116 118 119 117 119 115 114 116 116 118 120 118 119 125 126 127 128 127 128 130 105 79 74 137 194 189 193 193 199 193 189 198 202 206 195 180 191 192 181 196 208 208 208 209 212 117 70 46 32 132 207 196 203 208 205 206 184 171 177 177 197 197 195 190 190 197 151 161 187 193 197 203 212 212 211 111 77
114 114 113 114 112 117 118 117 116 115 117 119 120 122 120 119 123 124 125 125 124 124 129 103 75 74 141 202 193 158 183 192 186 187 190 186 185 165 169 176 171 196 206 205 206 206 206 209 113 67 41 26 131 212 209 209 208 205 205 178 167 175 184 193 197 195 191 188 196 155 145 167 185 198 205 214 214 214 109 73
114 113 113 114 115 116 117 117 115 118 119 120 121 123 121 119 125 124 124 123 125 127 127 101 77 75 137 195 185 129 129 136 154 148 147 140 148 140 141 151 146 183 198 200 207 207 207 209 115 66 39 27 134 210 205 206 202 198 202 183 172 180 187 195 198 198 195 193 198 189 167 180 188 196 203 213 213 214 111 74
113 111 113 116 115 117 118 118 116 117 119 122 119 122 123 122 125 127 126 122 126 127 126 100 78 74 141 201 188 170 174 181 176 175 156 163 190 181 181 184 184 199 206 200 200 208 208 210 117 65 36 28 129 182 184 179 189 203 201 193 191 184 193 199 200 188 179 194 200 185 173 184 196 195 201 213 213 214 115 73
112 112 114 116 117 118 118 119 119 118 117 118 120 122 121 122 125 126 125 124 125 127 128 102 77 74 145 205 201 195 205 204 196 206 203 205 208 203 203 204 201 207 207 206 198 207 208 209 119 61 33 28 132 183 177 175 182 197 198 195 195 192 198 198 196 182 186 194 200 184 190 186 193 196 203 214 214 215 123 78
113 115 115 114 115 118 118 119 119 118 118 122 121 123 122 122 125 123 124 127 127 131 130 104 80 75 146 202 199 194 198 195 199 204 203 203 203 199 200 199 201 205 205 205 198 205 206 208 132 78 46 39 143 199 183 168 179 199 193 195 200 200 192 183 181 180 174 191 200 191 190 190 192 195 196 204 205 206 124 91
114 114 115 115 116 117 118 119 120 118 119 119 122 124 122 123 124 123 124 126 127 128 130 103 81 76 149 206 203 188 189 189 198 193 202 206 207 200 201 200 200 209 209 205 198 208 208 205 196 195 142 121 151 207 191 180 194 198 192 191 196 185 177 176 176 183 188 195 201 200 192 194 194 197 142 92 92 92 174 202
114 112 112 116 117 119 118 119 119 119 121 122 123 122 123 121 125 126 126 128 129 130 130 104 82 79 150 203 199 177 178 183 194 199 202 203 203 200 200 199 194 200 201 197 201 205 205 201 201 202 149 131 155 211 205 187 180 178 191 197 187 176 169 169 187 198 199 197 197 197 186 192 196 196 136 80 72 72 180 218
113 113 118 117 117 120 120 118 118 119 121 122 122 120 122 121 124 126 123 127 129 129 131 103 82 79 151 202 193 189 190 197 202 205 204 205 205 205 206 200 195 196 198 203 208 207 208 203 199 196 147 130 157 209 202 183 169 160 175 188 176 178 170 180 193 200 198 187 187 196 182 183 198 186 126 80 73 74 177 215
118 115 117 117 118 119 118 118 121 121 121 121 120 122 123 121 122 125 125 128 129 129 132 101 80 77 147 194 189 198 196 205 205 205 205 206 206 206 206 200 198 198 207 207 206 206 207 199 196 192 146 130 159 210 205 200 172 173 178 189 167 175 182 196 199 201 192 177 186 195 172 168 198 187 122 79 73 74 177 216
102 88 78 82 104 123 118 121 121 118 116 122 121 122 124 122 121 124 124 125 129 130 131 102 81 77 153 200 192 198 196 202 202 202 202 203 203 203 203 198 200 197 202 205 205 205 205 197 194 188 145 129 157 201 203 202 175 178 192 193 180 194 198 200 195 184 173 179 197 188 166 160 194 191 124 76 74 73 176 216
34 29 46 65 103 121 110 112 113 100 70 115 128 127 127 127 127 127 126 129 131 132 130 101 81 79 158 202 196 198 197 204 206 206 206 206 206 206 207 199 203 201 200 208 207 208 204 200 190 181 143 129 144 185 195 205 207 205 192 193 194 203 202 199 175 163 182 202 202 183 168 159 193 197 131 75 74 72 175 218
29 29 50 75 112 111 105 106 108 99 60 104 121 120 122 123 125 128 129 132 135 136 131 102 81 79 159 198 197 180 181 188 194 193 193 192 199 205 204 197 201 203 196 204 204 202 205 203 150 74 52 57 133 172 174 193 206 204 203 200 201 201 200 200 186 179 199 200 193 187 164 180 195 192 183 177 178 179 134 109
29 29 50 101 120 106 103 105 106 101 59 96 116 115 115 116 118 120 122 125 129 131 131 102 81 79 158 197 201 187 189 193 192 193 192 198 204 205 206 198 202 206 198 203 205 203 208 202 138 38 24 32 131 172 171 183 204 202 202 201 201 202 200 199 198 199 197 197 186 176 165 192 199 192 197 214 215 219 118 66
28 29 50 111 116 99 100 102 106 108 72 89 111 111 111 113 113 115 117 119 123 125 132 101 80 78 158 203 200 172 201 204 203 206 211 211 210 210 211 202 209 211 206 201 208 209 208 200 141 40 27 35 129 158 160 178 205 204 201 199 197 195 193 192 188 187 190 189 188 178 170 197 198 190 194 209 211 215 123 72
31 30 53 85 106 98 97 98 109 116 95 85 108 107 108 112 110 111 112 115 118 120 131 101 78 78 160 208 202 172 191 192 190 196 201 200 199 198 200 198 197 200 203 203 209 209 205 195 153 47 26 35 140 166 174 195 199 199 200 197 197 195 196 196 195 199 200 200 196 183 173 201 197 189 194 209 211 215 124 72
46 41 52 61 91 89 92 100 113 121 110 73 97 106 104 108 108 109 109 111 113 115 129 138 150 152 176 173 182 173 179 179 181 168 144 145 142 140 150 168 148 155 188 195 197 201 200 198 197 76 24 36 152 181 191 204 191 181 199 201 200 195 192 193 198 203 203 203 201 191 193 204 199 189 193 209 211 215 125 70
48 42 36 39 44 45 49 53 60 64 67 55 67 97 97 101 103 104 104 105 107 109 121 159 176 171 158 157 165 170 170 172 171 179 178 175 174 179 183 186 185 190 212 215 213 218 226 221 215 91 21 33 151 177 207 205 193 186 201 204 199 195 190 190 183 186 204 208 208 204 207 205 201 193 195 209 212 215 122 65
41 98 148 129 116 102 90 79 66 50 40 49 101 139 131 122 118 128 126 131 134 129 139 167 175 169 182 178 174 165 154 145 133 138 132 138 173 183 183 187 177 179 199 205 206 205 205 204 198 103 78 84 141 184 215 212 203 191 197 200 201 199 199 201 188 178 203 209 208 196 197 207 201 178 183 220 220 220 180 152
39 137 225 217 218 217 213 209 202 189 174 158 157 215 220 219 197 185 179 177 184 187 184 190 218 222 213 190 191 185 187 177 175 167 156 73 95 104 100 125 96 75 126 137 138 134 127 122 120 80 109 112 130 166 176 173 169 162 153 161 159 164 172 173 158 149 166 170 166 154 147 154 163 169 179 219 217 219 225 227
40 144 203 183 188 188 192 195 200 210 208 197 141 206 217 199 170 179 178 178 180 182 181 195 222 223 211 189 194 189 206 212 220 218 226 121 53 43 44 47 47 43 47 51 53 54 54 56 59 64 66 84 82 77 79 80 78 77 78 76 75 76 80 83 87 83 81 82 82 83 78 51 81 166 170 212 211 211 213 219
41 152 207 193 193 193 195 188 186 188 187 192 136 204 201 169 165 176 179 180 181 184 181 199 222 222 208 188 193 189 205 210 215 213 227 136 79 103 103 101 111 123 123 132 140 142 133 144 142 121 76 98 131 127 108 104 133 137 141 135 114 123 138 109 114 139 137 136 149 150 126 61 84 158 175 221 221 207 195 193
42 160 218 204 202 203 202 199 196 203 201 191 124 193 166 163 165 174 178 181 181 185 182 202 223 221 205 187 193 189 206 211 215 215 225 129 95 133 133 134 142 147 152 148 145 148 126 119 124 85 55 122 165 148 116 106 131 142 138 144 123 126 129 99 113 132 141 129 134 126 123 59 84 160 180 222 219 212 200 211
43 167 209 198 200 199 198 196 197 195 190 184 115 168 151 164 164 173 176 181 181 186 181 205 223 220 202 186 191 189 205 211 214 217 224 124 138 207 210 212 213 213 213 214 215 222 184 88 93 81 45 86 83 77 79 86 83 85 83 91 84 73 70 72 72 71 71 68 67 65 64 41 77 169 178 221 221 181 169 184
45 174 209 197 200 199 200 196 196 191 191 178 100 150 151 164 164 171 174 181 182 188 181 208 222 219 199 186 189 189 205 212 213 218 222 120 139 204 206 210 212 211 211 213 213 218 179 103 106 104 42 36 26 28 29 29 29 29 27 25 24 21 20 19 18 18 16 15 13 11 8 0 65 170 179 220 222 173 174 146
47 180 207 198 201 200 199 197 198 191 192 172 91 145 153 164 163 169 172 182 182 187 180 210 222 218 196 186 187 191 204 212 213 219 220 116 131 182 181 188 192 206 212 212 213 218 178 87 89 139 141 119 120 121 121 117 119 123 122 119 119 116 114 111 110 108 98 95 91 87 84 65 99 156 173 220 221 212 195 189
51 185 205 199 198 199 197 199 196 192 192 166 89 145 153 164 162 168 171 183 183 187 180 212 222 217 193 185 185 193 204 213 213 220 218 114 116 163 169 167 173 208 212 212 213 218 176 95 91 163 215 208 213 215 215 217 219 219 220 217 219 223 223 222 223 223 221 219 216 217 216 167 147 163 182 221 220 209 208 219
55 191 203 198 199 199 197 200 196 193 193 157 87 145 154 164 162 167 171 183 184 186 180 214 221 215 189 186 184 194 203 213 213 222 213 110 142 191 193 191 186 208 212 212 212 218 173 102 97 163 206 197 195 200 199 203 200 200 200 197 204 213 213 216 218 216 216 217 222 223 219 165 148 167 185 221 223 177 150 147
60 196 206 199 200 198 199 198 193 196 197 149 89 144 155 163 161 166 171 182 185 185 181 216 221 213 187 187 183 196 203 213 214 222 210 109 146 191 207 210 206 210 211 212 212 218 171 102 98 152 175 178 172 172 178 180 180 179 170 169 170 199 205 211 213 212 218 217 220 220 209 162 151 159 182 222 223 192 160 126
65 199 206 198 198 196 198 196 195 196 201 141 92 143 155 163 161 165 172 181 185 183 182 218 220 211 184 187 182 197 202 213 215 222 209 108 141 159 196 210 210 211 211 212 212 217 169 101 97 147 180 191 180 172 194 195 196 196 178 174 171 190 198 203 204 209 211 212 208 203 194 144 138 161 181 223 223 220 216 208
70 201 198 197 201 197 195 195 195 190 192 132 93 143 154 162 161 165 174 181 186 181 183 219 220 208 182 187 180 196 202 213 216 222 206 103 150 174 201 210 210 211 210 212 212 218 167 98 95 149 178 186 172 173 181 172 163 165 166 175 178 186 190 193 195 197 195 195 197 193 176 138 133 154 176 220 217 217 218 221
77 205 202 196 202 199 198 194 194 192 194 124 96 143 154 161 160 165 176 181 188 179 185 220 219 206 181 185 179 196 202 212 217 221 202 101 159 170 198 198 206 208 192 200 208 214 165 98 95 137 152 153 154 157 159 158 158 165 175 188 197 189 185 200 194 195 209 204 196 184 179 183 184 181 188 193 190 176 167 166
85 207 199 204 206 205 203 202 198 194 196 117 100 143 155 159 159 165 177 181 188 177 188 221 218 204 179 183 178 194 202 212 218 219 200 96 149 169 167 168 167 172 166 179 173 188 163 102 97 113 143 151 156 158 161 165 167 171 177 189 199 184 188 213 198 208 229 224 215 198 193 211 211 194 211 213 213 207 174 148
92 211 201 198 206 202 202 203 202 200 203 110 105 144 155 159 159 166 179 182 189 175 190 222 217 202 179 181 177 192 202 212 219 218 197 95 159 180 178 182 175 179 176 175 175 191 163 101 96 115 145 152 156 156 160 165 166 171 177 191 200 189 196 209 205 198 206 210 198 206 197 207 191 202 210 214 213 217 200 166
100 210 200 197 196 199 196 196 195 190 195 104 109 144 156 159 159 167 180 182 189 173 193 222 216 200 179 179 177 191 202 212 220 217 195 98 172 196 204 206 209 210 211 211 207 206 160 96 94 115 143 149 153 153 158 164 167 172 177 190 197 190 200 211 209 206 192 199 193 207 207 200 189 204 209 209 209 214 194 177
109 209 198 198 198 198 196 196 193 190 194 98 112 144 156 158 159 168 181 182 189 170 195 222 215 198 180 177 176 189 203 212 221 213 192 99 152 188 176 189 186 186 191 190 202 218 158 101 96 111 138 145 150 152 156 163 168 173 177 196 203 192 192 208 207 208 199 195 202 203 194 198 183 199 209 210 209 210 196 179
117 209 199 196 202 197 196 199 193 187 193 92 116 144 156 157 159 169 182 182 188 168 197 222 214 197 181 175 176 189 203 213 221 214 193 99 162 186 190 192 194 191 195 191 199 218 156 102 96 110 139 146 151 154 157 162 168 173 177 202 209 186 181 197 210 218 208 199 201 188 193 204 189 200 209 214 214 213 206 190
126 210 199 196 197 197 194 197 194 184 190 87 119 144 156 157 160 170 183 183 188 166 200 221 213 195 182 170 176 189 204 213 222 207 190 98 152 173 180 189 182 186 193 187 199 217 154 101 96 109 137 144 151 154 156 161 166 173 176 194 194 175 179 200 208 217 211 200 196 181 189 194 190 191 191 190 198 207 208 200
136 208 197 197 197 199 194 192 198 187 190 83 122 144 156 156 160 172 183 183 187 167 203 221 211 193 181 170 177 189 205 214 222 203 186 98 170 181 188 198 191 192 193 191 200 217 152 102 94 103 126 130 139 143 143 146 151 156 158 176 202 195 199 206 214 213 208 201 200 195 201 201 201 198 188 190 147 141 156 152
145 207 197 201 198 195 197 194 193 188 190 79 124 144 156 155 160 173 183 184 185 167 207 220 210 191 182 165 177 189 206 214 222 203 185 98 185 197 203 204 206 207 209 210 209 215 149 101 94 90 113 125 134 139 140 143 146 151 156 189 232 217 219 229 228 228 230 209 193 204 225 224 224 223 226 229 171 139 162 156
153 205 195 200 197 194 197 196 189 190 187 77 127 144 156 155 161 175 183 185 183 168 210 218 209 189 182 162 178 190 207 215 222 204 184 101 185 195 202 203 204 206 207 208 208 214 147 100 92 95 117 128 138 142 143 146 148 152 155 188 232 213 211 228 228 229 230 202 177 199 210 206 199 202 223 228 177 141 163 157
162 205 199 196 197 196 195 194 191 190 185 74 129 144 156 154 161 176 182 186 181 169 212 217 208 187 182 164 179 190 208 215 221 196 179 105 188 196 202 203 203 205 206 207 208 213 144 97 89 97 118 128 137 142 141 142 147 151 153 181 224 212 215 221 222 222 223 206 197 207 224 222 220 222 220 220 182 150 162 158
170 203 199 197 198 196 196 193 193 187 180 72 131 144 155 154 162 178 181 187 179 172 214 217 208 185 181 160 180 192 209 215 221 198 176 106 187 195 202 202 203 204 205 205 206 213 141 92 88 85 102 120 132 140 138 138 147 153 158 84 56 60 64 65 66 67 69 69 72 78 78 76 74 70 78 88 61 56 56 55
179 203 198 195 198 196 193 196 193 189 178 71 132 144 155 153 162 180 181 188 176 176 216 215 206 183 179 159 181 193 209 215 220 202 177 72 75 73 88 193 204 204 205 205 206 212 138 96 87 69 104 127 137 145 151 153 153 160 167 58 62 74 58 55 63 43 18 20 19 38 67 69 44 53 86 89 95 98 95 92
186 204 197 198 205 200 198 198 195 190 173 70 133 144 154 152 163 181 180 188 174 180 216 214 205 182 178 159 181 194 209 215 217 196 173 66 56 41 52 190 204 203 204 205 205 211 135 99 85 82 107 124 136 144 150 153 153 159 167 55 92 111 92 98 99 46 24 24 32 64 62 67 62 56 81 82 69 71 71 69
193 206 196 198 201 200 200 200 199 200 171 69 134 144 153 152 164 182 181 189 173 185 216 214 205 181 178 161 181 196 209 216 215 193 168 81 90 59 71 192 204 203 203 204 205 210 132 92 83 86 119 132 134 144 150 145 141 149 153 50 21 30 43 52 54 56 57 69 85 90 97 100 96 90 98 105 93 103 109 100
198 200 198 200 197 197 194 193 191 191 164 69 134 144 152 151 165 182 180 189 171 189 213 214 205 180 178 161 181 198 209 217 212 192 164 84 104 82 98 194 204 203 203 204 204 210 130 93 80 104 185 185 184 186 186 132 71 67 59 43 50 74 91 103 104 105 110 88 80 151 176 178 172 170 177 180 183 186 186 183
203 200 198 198 199 198 194 193 191 189 159 70 135 144 152 150 166 182 180 189 169 193 209 214 206 180 176 161 181 199 209 217 210 194 160 82 99 75 93 197 206 205 204 204 204 209 128 95 75 83 167 151 147 162 183 156 72 66 82 104 109 113 110 115 125 120 116 82 78 137 155 166 167 160 177 183 183 182 180 181
207 200 197 197 200 195 194 193 189 190 153 70 134 143 150 149 167 182 180 188 168 197 204 214 206 179 172 160 182 201 209 218 209 198 157 80 87 59 71 169 172 160 162 203 204 209 125 79 52 88 166 155 152 172 168 171 92 81 107 123 130 131 118 119 143 141 119 95 75 122 150 168 154 160 174 178 182 179 177 180
211 204 196 200 201 197 196 192 189 192 148 71 134 143 149 149 169 182 180 187 168 200 198 214 206 178 170 162 183 202 209 218 206 201 155 72 67 51 63 126 130 130 134 164 200 208 108 61 44 76 172 173 174 175 174 170 118 80 86 80 81 86 92 98 105 109 110 103 50 95 153 169 177 174 182 184 182 176 169 172
210 202 197 197 201 197 196 194 189 194 141 72 132 142 148 148 170 181 181 186 169 202 191 215 206 177 169 163 183 203 209 219 198 196 152 52 34 26 45 130 133 133 132 139 199 206 98 58 48 42 42 65 83 95 85 88 88 68 83 90 93 98 102 108 112 110 110 113 90 100 129 141 146 147 149 146 173 172 164 170
209 200 200 199 200 197 195 193 190 193 135 74 131 141 146 148 172 180 182 184 172 202 184 214 208 178 169 164 183 205 209 220 196 196 147 46 34 31 50 130 133 132 132 142 199 206 97 48 48 39 27 54 90 114 123 135 145 139 161 186 186 186 186 189 187 190 190 191 193 195 195 197 196 193 192 189 199 203 203 202
209 201 199 199 201 196 193 190 189 195 129 76 129 139 144 148 173 178 183 182 176 200 178 213 212 179 169 166 186 205 209 220 199 203 140 92 114 121 124 132 132 132 132 133 188 207 96 43 48 37 23 59 96 114 126 141 156 159 193 217 215 213 214 214 216 217 216 215 215 218 219 219 220 219 216 217 217 218 216 214
215 211 211 206 207 203 196 195 190 196 124 78 126 138 143 148 174 176 184 181 182 195 172 209 213 182 170 167 188 205 209 219 200 207 127 91 120 129 132 132 132 135 141 171 202 205 104 55 54 39 31 66 95 113 122 137 151 156 198 222 219 217 216 216 217 217 216 215 216 218 218 217 217 216 212 213 214 216 214 211
174 175 178 185 192 194 199 203 204 210 122 77 115 125 124 143 176 175 185 180 188 198 176 204 216 187 172 169 191 205 210 219 202 213 121 109 122 132 135 135 138 152 164 181 196 206 114 72 69 37 37 67 94 113 122 133 148 155 190 220 216 215 214 215 216 216 215 215 215 216 217 215 214 213 210 211 211 213 213 209
61 58 58 66 80 70 70 80 90 116 86 51 54 56 51 126 178 173 186 180 193 197 179 198 219 194 177 172 195 205 213 211 108 112 79 154 170 151 149 147 151 167 180 194 203 205 114 76 73 37 47 49 64 84 94 107 133 152 182 223 220 219 219 220 221 221 221 220 221 221 222 222 219 218 220 220 221 219 218 215
48 43 38 39 61 97 104 102 85 63 49 106 139 135 135 146 178 167 184 180 198 191 179 193 220 204 184 176 198 204 214 186 56 45 62 151 180 179 175 183 197 203 205 205 204 205 112 74 65 39 61 79 74 85 104 107 105 98 103 183 187 184 180 178 177 172 166 163 160 156 153 150 148 155 151 144 135 132 128 122
118 133 125 116 137 158 167 178 188 184 169 176 183 167 155 179 194 176 182 168 178 184 190 192 204 199 189 187 196 204 210 193 175 173 172 182 188 198 208 212 212 207 204 204 205 206 110 70 56 40 56 131 133 112 97 101 116 116 85 98 105 104 107 109 107 109 108 110 112 116 120 120 121 131 130 126 123 125 126 125
182 176 174 180 186 187 183 180 181 182 181 177 185 185 178 189 201 200 198 196 192 199 200 201 198 195 199 204 211 216 216 216 214 209 207 209 213 214 213 210 209 208 206 206 207 206 106 63 49 31 50 135 158 158 148 125 98 79 85 136 161 154 148 143 141 137 132 127 123 120 117 115 114 115 115 114 117 115 117 120
174 174 178 187 192 185 183 184 187 184 183 187 185 182 188 190 186 187 189 189 189 196 198 187 189 203 208 215 218 216 215 214 212 205 203 211 211 211 210 209 208 208 207 200 200 199 102 57 45 54 53 126 154 157 157 158 158 147 121 92 90 95 101 110 118 126 134 142 151 160 169 177 184 192 198 203 207 210 213 214
175 181 187 187 189 186 185 187 183 185 191 187 185 192 192 188 189 188 185 188 196 202 205 198 196 195 212 218 217 215 215 214 213 212 212 211 210 210 211 210 209 209 208 186 174 172 140 109 89 87 64 117 151 155 157 156 157 158 158 157 162 213 223 223 224 224 224 224 223 222 222 221 220 219 218 218 217 216 215 215
178 179 179 180 186 189 185 184 187 189 185 188 194 191 189 191 188 187 191 199 206 212 209 204 211 203 217 219 216 216 218 217 214 211 210 210 211 210 208 203 197 193 185 177 176 174 154 127 107 98 74 110 146 150 154 153 154 155 155 155 157 202 220 218 218 217 218 217 217 217 217 217 216 215 215 216 215 215 214 214
175 172 173 177 184 186 183 186 185 184 189 192 187 187 191 187 185 192 200 207 214 213 189 184 216 215 217 221 219 205 178 180 191 203 205 203 199 193 189 184 183 183 181 180 179 177 168 160 146 124 94 84 112 136 149 149 151 152 153 154 154 193 219 217 217 217 217 217 217 217 217 217 216 216 216 216 215 215 215 215
169 167 169 173 178 180 179 181 183 186 186 184 182 184 184 183 192 199 208 214 200 157 141 138 156 83 82 173 207 151 137 152 166 185 192 194 193 194 194 194 193 193 192 193 191 191 188 187 188 184 176 153 125 102 101 117 138 149 150 151 151 186 219 217 217 217 217 217 217 217 217 217 217 216 216 215 214 214 212 210
175 174 175 175 178 177 178 179 178 180 180 177 177 178 183 189 197 207 213 197 169 174 132 70 77 88 105 136 179 180 191 195 197 193 193 194 193 193 193 192 193 189 187 188 182 182 180 179 184 178 178 188 191 167 136 109 96 108 133 148 149 183 215 212 212 212 211 211 210 205 200 195 188 180 171 164 155 147 145 143
