P2
80 80
255
208 208 207 206 207 208 209 212 213 213 214 217 218 218 218 219 218 219 219 219 221 220 219 220 220 222 219 202 198 196 240 255 255 255 255 255 255 255 255 255 255 255 255 255 255 254 249 249 247 249 255 255 255 255 255 255 213 153 157 158 157 213 255 255 255 255 204 152 153 155 152 223 255 255 255 255 191 156 164 162
207 208 205 208 210 211 209 209 212 214 212 217 218 219 219 219 219 219 220 220 220 220 220 222 220 222 214 179 171 172 235 255 252 249 250 248 249 250 250 251 250 250 251 254 255 254 250 249 249 249 255 255 255 255 255 242 232 220 219 228 229 243 252 250 252 254 240 216 212 222 223 244 255 255 255 253 234 198 160 162
207 207 207 210 208 207 209 211 210 212 214 216 218 219 219 220 219 220 221 221 221 222 221 221 223 224 214 176 173 173 236 255 253 243 251 252 253 253 253 254 250 253 254 254 255 255 255 255 255 255 255 249 214 213 197 184 238 248 244 249 254 255 248 246 251 254 254 243 242 255 255 255 254 254 255 254 254 239 210 211
207 209 209 209 206 208 210 212 212 214 213 217 220 218 218 221 220 220 221 220 222 222 222 222 223 225 215 177 173 173 237 255 242 230 234 229 224 230 230 238 224 227 232 253 255 255 255 255 255 255 255 242 165 161 125 141 230 239 231 237 242 245 242 242 237 237 239 240 234 236 246 248 248 248 248 248 251 254 255 255
211 212 209 209 208 211 212 213 215 216 216 217 220 219 221 222 223 221 223 222 221 223 224 224 223 224 217 181 175 174 237 255 240 229 225 220 227 218 220 220 224 216 228 253 254 255 255 255 255 255 255 242 168 165 122 138 230 238 234 234 237 243 246 246 246 247 247 247 247 246 246 246 246 246 241 243 248 253 255 255
212 211 209 209 211 210 212 213 213 213 216 219 220 221 221 221 222 221 224 224 223 225 225 224 222 224 215 179 174 174 237 255 255 251 253 253 255 249 250 252 254 253 248 237 248 248 254 255 255 255 255 242 170 164 117 134 227 241 234 230 240 238 241 241 242 245 244 242 243 243 243 246 242 242 245 244 248 252 255 255
210 210 208 209 212 211 212 215 215 214 215 216 219 220 220 222 219 223 224 223 223 223 223 223 221 224 213 179 172 174 237 255 244 236 236 240 242 243 247 255 252 233 231 232 253 251 245 253 255 255 255 243 171 164 112 132 225 237 235 222 235 243 248 238 239 239 249 244 243 246 241 245 248 242 235 240 249 255 255 255
210 210 210 209 210 211 212 212 214 215 218 217 217 218 222 221 220 224 223 221 221 222 223 222 220 222 214 178 172 173 237 255 245 218 214 206 217 215 231 255 230 238 237 227 254 246 233 250 255 255 255 242 168 160 105 140 225 236 234 228 230 236 242 244 240 239 243 248 245 246 242 240 247 243 246 244 250 255 255 255
211 212 210 208 210 212 212 213 215 217 218 219 218 218 220 220 220 222 224 223 221 222 220 219 219 222 213 179 173 173 238 255 253 246 243 242 242 248 250 250 232 253 249 233 250 232 251 250 254 255 255 248 208 202 163 165 217 230 234 246 246 244 245 246 247 248 246 247 248 248 246 245 245 245 246 248 250 250 231 231
210 212 211 210 211 212 214 213 213 215 218 218 219 219 221 223 222 222 223 223 222 222 220 219 220 221 214 178 173 173 238 255 255 255 254 254 255 247 255 251 232 253 248 229 225 231 253 250 253 255 255 255 255 255 246 207 221 241 237 247 247 247 247 247 247 245 246 246 246 247 247 247 246 248 248 247 252 240 168 166
212 213 213 210 210 211 213 213 215 216 220 218 220 221 220 221 222 221 223 224 223 223 221 219 219 221 214 178 173 174 239 255 255 248 221 217 222 221 253 252 241 227 226 196 216 216 248 250 252 255 255 255 255 255 240 210 230 252 242 244 244 245 246 246 245 243 244 244 244 245 246 247 247 247 247 246 251 242 171 165
209 213 213 209 210 209 211 214 217 217 217 219 219 219 218 220 221 221 221 223 223 222 221 223 223 225 215 180 174 175 239 255 255 249 227 234 232 232 254 250 249 225 215 203 227 217 234 250 253 255 255 255 255 254 240 210 234 255 238 225 227 227 229 227 229 230 229 231 231 230 230 229 228 230 230 230 251 243 175 168
211 213 212 210 212 210 211 212 213 217 217 218 220 219 220 221 220 219 221 221 222 221 222 224 223 225 214 179 175 173 239 255 254 252 255 254 255 255 255 252 245 234 217 243 239 209 233 251 254 255 255 255 255 254 238 210 236 255 238 222 223 223 222 222 225 229 230 230 230 229 223 222 222 222 222 226 250 245 176 170
208 209 210 208 209 209 210 211 214 215 217 217 218 218 217 218 218 219 219 221 220 221 223 224 224 224 214 180 173 174 240 255 238 212 231 214 223 231 233 236 251 232 209 252 252 209 243 251 255 255 255 255 255 255 241 212 241 254 246 245 246 246 246 245 245 244 244 243 244 245 246 245 245 244 239 240 248 243 181 169
208 208 209 207 213 210 211 210 214 215 217 214 214 214 214 214 215 217 218 220 220 222 222 223 222 223 213 179 174 177 240 255 239 224 216 219 216 216 229 234 252 239 231 253 251 230 236 254 255 255 255 252 239 230 205 200 242 253 252 255 255 255 255 248 250 250 254 253 252 255 255 255 255 247 249 253 252 248 205 192
209 209 210 211 214 211 214 216 218 216 217 214 213 214 214 215 217 217 215 220 222 222 223 223 223 225 212 179 174 176 240 255 254 255 250 253 253 253 254 255 255 250 247 250 249 246 252 255 255 255 255 243 177 143 94 143 245 254 253 255 255 255 254 244 247 247 251 255 255 254 252 254 249 230 247 252 254 254 255 255
208 209 210 211 214 212 213 212 215 216 216 215 212 215 216 217 219 219 215 219 220 221 221 221 220 223 212 174 173 176 241 255 243 229 248 249 250 249 249 246 243 232 242 241 240 254 255 255 255 255 255 242 173 134 88 128 246 255 255 255 255 255 253 243 245 249 253 255 255 254 253 253 251 231 237 247 253 254 255 255
210 211 211 213 213 212 213 214 214 216 216 214 214 217 217 218 219 219 216 220 220 220 220 220 222 223 210 173 175 174 241 255 235 208 211 224 232 228 227 221 223 217 221 220 224 252 255 255 255 255 255 243 173 130 87 127 246 255 254 254 254 254 253 247 247 250 254 255 255 254 254 253 255 246 245 251 253 254 255 255
213 210 213 214 212 211 215 215 215 217 216 216 215 217 219 218 218 220 220 220 222 223 219 221 222 223 209 176 174 176 241 255 248 239 239 242 243 242 224 240 245 244 242 244 248 254 255 255 255 255 255 242 172 125 87 128 241 247 248 247 253 255 254 252 251 251 255 255 254 249 250 254 254 248 248 252 255 254 255 255
212 211 212 212 212 214 214 216 217 216 217 217 216 215 215 218 218 219 218 220 221 221 220 221 221 224 210 176 173 177 242 255 255 255 255 255 255 255 253 255 255 255 255 255 255 255 255 255 255 255 255 242 170 118 87 127 242 246 247 245 252 254 255 253 253 252 255 255 252 249 251 254 254 250 252 251 254 254 255 255
213 213 214 212 214 215 214 214 216 217 217 217 217 215 219 219 220 219 218 221 220 219 222 222 225 226 211 179 175 179 243 255 255 255 255 255 255 255 255 255 255 255 255 255 255 255 255 255 255 255 255 244 182 133 107 136 246 251 248 241 252 254 253 254 255 255 251 250 249 249 247 254 255 251 252 253 253 254 251 251
213 212 212 213 214 214 214 215 216 216 217 217 217 216 217 218 221 219 220 220 220 220 221 222 223 225 211 180 176 178 243 255 254 249 251 251 251 249 255 255 255 255 255 255 255 255 255 255 255 255 255 254 251 235 225 201 242 254 250 248 255 255 253 254 254 249 247 249 248 251 252 254 255 254 252 254 254 254 204 179
212 212 211 212 213 211 215 216 217 217 217 218 217 218 219 220 219 220 219 220 222 222 222 224 224 225 212 182 179 180 243 255 251 243 247 247 252 253 255 255 255 255 255 255 255 255 255 254 255 255 255 255 255 242 234 212 242 255 254 248 248 248 254 255 250 247 244 247 253 255 255 254 254 252 251 253 254 254 203 166
213 213 214 214 211 215 217 215 217 219 217 216 217 218 219 219 217 218 219 219 222 219 222 224 224 225 212 180 180 182 244 255 254 252 253 253 254 255 255 255 255 255 255 255 255 255 255 255 255 255 255 255 255 240 233 211 243 255 254 246 244 239 250 251 247 249 246 251 254 255 254 249 252 253 248 251 255 248 199 166
214 214 212 214 214 214 218 219 220 217 217 218 219 218 219 218 219 220 219 218 221 220 223 223 223 226 211 179 177 181 244 255 254 255 255 255 255 255 255 255 255 255 255 255 255 255 255 255 255 255 255 255 254 239 233 212 243 255 255 252 244 244 250 250 241 249 251 255 255 254 251 247 253 252 242 247 255 248 198 167
215 217 216 218 214 204 191 171 173 186 211 216 219 216 217 212 216 222 220 218 220 220 220 222 224 226 211 180 176 181 244 255 255 255 255 255 255 255 255 255 255 255 255 255 255 255 255 255 255 255 255 254 254 239 233 213 242 253 255 253 243 247 253 252 249 253 255 255 253 247 245 249 255 249 241 243 255 250 195 167
210 195 170 147 125 108 104 101 144 171 210 207 213 205 202 168 196 226 224 224 223 223 223 225 227 227 212 180 178 183 246 255 255 254 254 255 255 255 255 255 255 255 255 255 255 255 255 255 255 255 255 254 253 237 232 212 236 249 253 255 255 255 251 253 254 255 255 253 244 240 251 255 254 248 240 242 255 253 201 167
113 95 89 90 93 99 100 103 149 183 209 202 209 200 199 158 181 220 218 219 220 222 224 224 226 229 226 186 178 183 246 255 253 248 248 250 251 251 251 251 254 255 255 255 255 255 255 255 255 255 255 252 178 126 120 149 234 243 246 253 255 255 255 255 255 255 255 255 248 248 255 255 251 249 241 251 254 253 244 237
94 92 95 97 99 100 99 105 153 208 208 200 207 199 199 160 173 214 214 213 213 216 217 219 221 224 224 188 177 183 246 255 254 250 250 251 250 251 251 253 255 255 255 255 255 255 255 255 255 255 255 251 149 89 81 125 232 244 244 250 255 255 255 255 255 255 255 254 255 254 255 254 248 245 242 254 255 253 255 255
124 135 106 104 98 97 98 103 156 213 199 195 204 197 203 175 169 210 210 210 211 211 213 214 216 220 219 186 175 184 247 255 247 245 254 253 254 255 255 255 255 255 255 255 255 255 255 255 255 255 255 252 148 89 85 126 230 239 239 249 255 255 255 254 254 253 253 253 251 251 252 252 250 245 245 255 255 252 254 255
152 135 126 154 151 118 99 106 152 186 199 194 199 194 208 197 173 205 206 206 209 208 209 210 212 216 215 183 176 183 247 255 248 242 250 250 249 252 253 253 252 251 252 253 251 250 253 254 254 254 254 252 181 126 85 125 236 242 245 254 253 255 255 254 255 254 254 254 254 255 255 255 252 247 246 255 255 253 254 255
176 183 188 186 175 129 99 109 148 154 175 176 188 194 206 207 171 183 208 206 209 207 207 207 209 211 209 192 230 236 252 250 244 247 251 250 251 251 237 231 231 228 234 242 240 234 247 255 254 254 254 254 255 212 87 125 242 247 252 255 250 249 255 255 254 253 252 253 254 255 255 255 254 250 252 255 255 252 254 255
180 192 185 171 165 122 100 109 132 119 119 124 130 135 139 144 138 132 151 157 172 201 204 203 204 205 203 194 254 247 244 239 242 244 245 245 246 249 249 250 250 251 252 251 251 251 251 255 255 255 255 255 255 214 83 120 239 246 255 254 251 250 255 255 253 252 250 251 248 249 255 255 255 255 255 255 255 253 254 255
125 124 105 120 145 113 99 108 133 194 204 194 185 176 166 156 145 127 116 114 171 208 203 211 218 220 222 217 251 242 247 248 246 246 248 248 245 236 226 223 221 213 217 242 252 245 252 255 255 255 255 255 255 228 171 171 231 250 255 255 255 253 255 255 255 255 255 255 250 248 255 255 255 253 255 255 255 252 251 249
94 93 106 112 135 115 96 107 134 236 255 255 255 255 255 254 249 241 232 209 229 255 255 253 255 255 254 255 254 255 254 254 255 255 255 252 253 249 240 233 231 225 168 187 207 148 186 211 209 205 199 192 190 194 217 207 215 228 231 231 229 228 226 228 228 229 231 231 224 223 228 229 228 222 220 221 210 233 247 248
161 146 151 175 104 98 98 109 137 236 249 247 247 248 249 250 254 255 255 241 232 255 253 251 254 255 253 254 253 255 254 254 255 255 254 253 254 255 255 255 255 255 204 145 132 124 128 134 138 137 134 134 135 144 144 158 174 168 168 169 172 172 172 173 169 171 174 178 183 185 183 183 182 179 177 172 108 191 247 244
143 124 110 114 98 99 101 112 139 240 251 249 249 249 249 247 247 248 251 240 237 254 250 250 254 255 253 254 254 255 254 254 255 255 254 252 254 255 255 255 255 255 213 178 209 213 211 206 209 206 192 177 191 191 159 148 202 206 203 192 206 215 217 219 208 198 218 213 203 212 221 219 223 227 222 196 116 193 243 245
99 99 102 106 111 116 120 114 142 245 254 253 252 252 252 251 251 254 254 241 229 248 249 248 253 254 253 254 254 255 254 254 255 255 253 252 254 255 255 255 255 255 209 184 224 224 223 221 218 215 213 213 238 197 156 169 207 209 206 194 204 216 216 217 219 202 213 200 196 209 216 215 216 215 214 197 114 193 250 248
115 120 122 120 121 120 111 110 145 247 253 251 252 252 252 251 251 251 252 239 215 243 249 248 252 254 253 254 254 255 254 255 255 255 253 252 254 255 255 255 255 255 206 202 255 255 255 255 255 255 255 255 250 184 176 185 176 169 168 172 175 174 175 178 177 168 159 158 160 161 160 157 156 154 150 142 95 186 254 248
116 109 105 102 102 101 100 108 149 250 253 251 252 252 252 251 251 250 253 234 207 244 248 247 251 253 253 255 254 255 254 255 255 255 252 252 253 255 255 255 255 255 204 204 255 254 255 255 255 255 255 255 248 188 194 165 92 92 93 95 94 96 94 89 85 81 77 75 74 73 70 66 59 58 51 39 31 167 251 248
114 103 95 97 99 101 103 109 154 252 252 252 252 252 252 252 252 251 253 228 202 246 248 247 250 252 252 255 254 255 254 255 255 255 252 252 254 255 255 255 255 255 200 200 244 244 246 252 255 255 255 255 248 181 172 188 200 199 200 197 195 200 199 196 193 190 187 183 181 180 167 158 154 149 145 140 127 201 240 245
107 110 114 117 118 122 121 111 158 254 252 252 252 252 252 252 251 251 253 221 201 246 248 247 250 251 252 255 254 255 254 255 255 255 251 252 254 255 255 255 255 255 199 202 238 233 236 252 255 255 255 255 247 187 181 202 255 255 255 255 255 255 255 255 255 255 255 255 255 255 255 255 255 255 255 255 231 239 240 248
118 120 121 121 123 123 117 111 164 255 252 251 252 251 252 252 251 251 253 210 199 247 248 246 249 251 252 255 254 254 254 255 255 255 250 251 254 255 255 255 255 255 197 208 250 246 244 252 255 255 255 255 246 188 189 200 251 249 249 250 250 250 249 249 249 252 255 255 255 255 255 255 255 255 255 253 227 240 244 250
118 113 111 109 108 108 102 111 170 255 252 252 252 251 252 251 251 252 254 204 202 247 247 246 249 250 252 254 255 254 254 255 255 254 250 251 254 255 255 255 255 255 197 213 255 255 254 255 255 255 255 255 246 190 190 200 245 243 243 247 247 247 244 241 244 243 254 254 255 255 255 255 255 255 255 252 231 240 239 248
116 101 98 97 97 99 100 112 175 255 252 252 251 252 252 251 251 252 255 197 206 247 247 246 249 249 253 254 255 254 254 255 255 254 250 252 254 255 255 255 255 255 194 198 250 255 255 255 255 255 255 255 245 188 189 203 255 244 249 255 255 255 254 249 252 243 252 253 253 254 255 255 255 254 254 248 217 233 242 247
111 109 103 99 101 105 108 115 181 255 251 252 252 251 251 251 251 250 254 188 206 247 247 246 249 249 253 254 255 254 254 255 255 254 250 252 254 255 255 255 255 255 191 210 253 255 255 255 254 254 255 255 244 185 185 203 255 241 250 254 253 250 244 238 239 240 248 251 252 253 253 252 252 252 251 246 220 232 238 245
112 115 117 119 120 123 126 120 186 255 252 252 252 252 252 251 252 250 253 179 209 247 246 245 249 249 254 254 255 253 254 255 255 253 249 251 254 254 255 255 255 255 189 206 253 250 253 254 246 248 252 254 243 186 185 198 240 233 239 241 242 242 243 243 246 251 253 253 252 249 251 250 249 253 253 252 249 249 250 250
120 121 122 120 122 123 125 122 193 255 252 253 254 253 253 253 252 251 253 172 213 247 245 245 249 250 254 254 255 253 254 255 255 253 249 251 254 254 255 255 255 255 189 212 236 235 232 237 232 238 236 240 240 187 190 191 229 236 240 241 242 244 246 247 249 251 253 253 249 248 252 250 251 254 255 255 253 253 255 254
117 108 105 102 104 106 108 120 200 255 252 252 253 252 253 253 253 254 254 165 218 246 245 245 249 250 255 254 255 253 254 255 255 253 249 251 254 254 255 255 254 255 186 222 243 243 238 240 239 237 238 242 241 188 186 193 231 237 240 241 241 244 246 247 249 252 253 253 251 251 252 251 252 251 253 250 252 253 254 249
119 108 100 95 94 96 104 123 205 255 252 251 251 252 252 252 251 251 251 162 222 246 245 245 249 251 255 254 255 253 254 255 255 252 249 251 254 254 255 255 255 254 187 233 255 255 255 255 255 255 254 252 241 182 182 192 231 235 238 239 239 242 246 247 249 252 253 253 251 251 252 250 254 253 252 249 252 253 252 249
107 103 107 102 100 101 107 122 212 255 252 252 252 252 252 251 251 251 248 157 226 246 244 245 249 251 255 254 255 252 254 255 255 252 250 250 253 254 255 255 254 253 189 233 242 245 244 243 245 244 247 255 241 184 187 191 227 232 236 238 239 241 245 248 250 252 253 254 251 250 252 251 255 253 250 252 251 249 252 248
114 113 112 115 118 119 121 125 217 255 252 252 252 251 252 252 250 251 245 153 229 246 244 245 249 252 255 254 255 252 254 255 255 252 250 250 253 254 255 255 255 254 187 234 250 248 249 247 248 246 248 255 240 184 186 190 227 232 236 239 240 242 244 248 250 252 253 254 251 247 251 253 254 254 253 254 251 249 253 251
117 114 115 115 117 116 115 128 223 255 252 251 252 251 251 252 250 250 241 151 232 245 243 246 249 252 255 254 254 251 254 255 255 252 250 249 253 254 255 255 254 252 186 229 242 247 242 243 246 245 247 255 239 184 186 189 226 231 235 239 240 241 243 246 250 252 252 251 248 245 251 253 254 254 254 253 249 250 252 251
108 98 98 96 97 97 103 129 228 254 252 251 252 252 250 251 251 251 237 150 234 245 243 246 249 253 255 254 254 251 254 255 255 252 250 250 253 255 255 255 253 251 185 236 248 251 248 248 248 247 249 255 238 184 185 185 217 221 226 231 232 232 234 236 240 242 242 246 247 247 250 252 252 250 249 249 246 250 249 249
101 98 89 88 89 91 102 133 233 254 252 252 251 251 252 251 250 252 233 151 237 245 243 246 249 253 255 255 254 251 254 255 255 252 249 249 252 254 255 255 254 251 182 245 255 255 255 255 255 255 255 255 237 182 184 179 204 216 223 228 229 231 232 233 236 240 244 254 255 252 255 255 255 255 251 244 248 255 254 254
89 92 95 95 96 93 103 138 238 253 252 252 251 251 252 251 250 253 227 151 239 244 242 246 249 254 255 255 254 251 254 255 255 252 249 249 252 255 255 255 254 250 185 246 255 255 255 255 255 255 255 255 236 182 183 182 208 218 225 231 232 232 234 235 237 240 244 254 255 252 255 255 255 255 250 240 246 251 250 249
93 99 101 100 98 95 103 140 242 253 252 252 252 252 251 251 250 253 221 152 240 244 242 246 249 254 254 255 253 251 254 255 255 251 250 249 252 255 255 255 253 248 187 249 255 255 255 255 255 255 255 255 236 180 177 183 210 218 224 230 232 229 230 234 236 238 241 249 250 251 253 254 255 255 252 248 251 255 255 254
98 101 99 102 130 136 129 146 245 253 252 252 252 251 251 251 251 253 215 154 242 243 242 246 249 255 254 255 253 252 255 255 255 251 249 248 253 255 255 255 253 247 186 249 255 255 255 255 255 255 255 255 235 176 175 171 189 210 221 227 231 226 226 234 238 245 205 114 113 121 122 125 126 128 129 131 138 140 140 138
100 98 92 109 229 241 197 150 248 253 251 251 252 251 251 251 251 253 209 157 242 243 241 246 250 255 254 255 253 252 255 255 255 251 248 248 253 255 255 255 254 248 165 145 145 235 255 255 255 255 255 255 233 177 178 162 189 217 225 230 235 239 239 238 241 251 200 104 156 134 129 136 125 81 82 82 103 144 147 122
127 132 131 141 194 210 179 155 251 253 252 253 253 253 252 252 252 254 203 160 242 242 241 246 250 255 254 255 253 253 255 255 255 251 248 248 253 255 255 255 253 246 161 128 117 230 255 255 255 255 255 255 232 180 177 176 201 214 224 230 234 237 239 239 242 251 199 109 188 160 169 170 129 87 87 94 137 139 142 140
229 233 220 214 229 233 184 160 253 253 252 252 252 253 253 253 253 255 197 164 243 242 240 246 251 255 254 255 252 253 255 255 255 251 248 249 253 255 255 255 253 244 171 153 144 236 255 255 255 255 255 255 230 175 174 176 206 222 226 226 235 237 231 224 228 237 180 73 81 100 117 123 125 128 137 158 167 174 179 179
225 223 220 220 222 227 177 167 254 252 252 252 252 252 251 251 250 254 190 168 243 241 240 246 251 255 254 255 252 253 255 255 254 251 248 248 253 255 255 255 252 242 175 176 176 242 255 255 255 255 255 255 229 175 176 162 203 254 252 252 253 254 218 154 144 138 120 117 137 162 177 185 184 186 187 160 176 247 252 251
223 227 224 228 227 233 176 173 255 252 252 252 252 252 251 251 250 254 183 172 242 240 240 246 252 255 254 255 252 254 254 255 254 251 247 248 254 255 255 255 252 239 170 165 164 243 255 255 255 255 255 255 229 176 176 113 164 241 225 222 236 250 238 163 152 163 189 194 196 193 189 203 200 196 186 148 175 232 236 247
229 228 224 217 219 224 162 180 255 252 251 252 252 251 251 251 249 255 177 177 242 239 239 246 252 255 254 255 252 254 254 255 254 250 246 248 254 255 255 255 253 239 172 151 141 224 237 231 226 251 255 255 227 165 147 112 183 240 231 230 245 241 249 186 164 183 201 206 208 204 190 211 215 208 191 161 164 220 236 248
209 183 189 187 215 213 152 187 255 252 252 252 252 252 251 251 250 255 171 181 241 238 239 246 253 255 255 254 252 254 254 255 254 250 245 248 254 255 255 255 254 238 166 136 135 199 212 211 212 225 248 255 220 144 133 106 164 240 238 238 242 239 238 205 156 164 161 159 164 169 175 181 184 185 189 164 127 204 238 247
202 196 191 214 226 193 141 194 255 253 252 252 252 252 252 252 250 255 165 184 240 238 239 246 253 254 255 254 252 254 254 255 254 250 245 249 254 255 255 253 252 239 145 91 100 198 214 212 213 212 243 255 215 137 133 110 102 140 165 172 188 169 173 173 150 152 164 170 177 183 187 193 195 188 195 186 163 189 210 217
193 194 192 219 229 196 153 199 255 253 252 252 252 252 251 251 250 254 160 188 239 237 238 246 254 254 255 254 253 254 253 255 254 249 245 249 254 255 255 253 252 237 142 95 104 200 214 212 213 214 244 255 215 128 126 110 93 127 172 202 213 218 224 233 235 228 236 252 252 253 253 253 253 253 253 254 255 253 252 252
198 193 199 208 220 202 156 205 255 253 252 252 253 252 251 250 251 254 157 193 237 235 238 246 254 254 255 254 253 253 253 255 254 249 245 249 254 255 255 255 254 230 182 206 206 211 212 212 212 212 235 255 214 122 122 105 93 137 181 203 212 219 227 237 243 243 248 255 255 255 255 255 255 255 255 255 255 255 255 255
199 202 206 204 213 202 155 212 255 255 255 255 255 254 253 252 251 254 155 198 237 236 237 246 254 254 255 254 254 252 253 255 255 249 245 250 255 255 255 255 255 220 175 213 213 213 212 213 217 232 252 255 218 136 133 116 96 144 185 201 211 216 224 234 240 241 247 255 255 255 255 255 255 255 255 255 255 255 255 255
184 199 209 206 194 206 150 197 231 232 234 238 244 246 251 255 255 255 153 188 215 210 235 246 255 254 255 254 254 254 254 255 255 250 246 251 255 255 255 255 255 217 174 215 215 215 216 225 233 242 250 255 222 155 155 117 106 145 179 202 213 218 223 231 239 241 246 255 255 255 255 255 255 255 255 255 255 255 255 255
182 204 206 205 188 219 158 153 157 153 150 156 172 158 155 161 169 186 142 132 131 126 210 248 255 254 255 254 254 254 255 255 255 251 248 252 255 255 255 210 175 162 196 232 225 224 226 235 242 249 254 255 222 160 159 129 127 125 135 159 178 184 195 213 230 240 247 255 255 255 255 255 255 255 255 255 255 255 255 255
189 210 201 197 190 239 192 135 127 123 126 144 200 205 201 187 163 141 140 223 235 234 229 247 255 252 255 254 255 254 254 255 255 253 250 252 255 255 253 184 137 142 220 254 248 247 250 254 255 255 255 255 221 159 152 131 158 159 156 174 174 183 195 200 194 178 162 217 227 225 224 222 219 215 210 207 205 202 200 196
197 204 196 177 212 231 169 183 220 220 212 225 246 249 255 255 255 251 240 250 250 247 247 253 253 250 252 246 246 250 253 253 254 253 252 253 255 255 253 244 241 239 249 252 254 255 255 255 255 255 255 255 220 157 142 129 164 157 167 236 219 201 185 185 194 194 162 171 184 183 188 191 190 192 193 195 199 202 206 208
201 191 174 186 224 217 233 255 255 252 253 254 253 253 252 251 251 252 253 249 252 254 253 253 255 254 253 253 252 253 253 254 254 253 253 255 255 255 255 255 255 255 255 255 255 255 255 255 255 255 255 255 218 152 137 112 144 153 166 243 242 243 235 219 194 168 156 179 216 234 225 220 218 215 211 208 204 201 198 196
186 193 207 230 241 252 255 251 250 250 251 253 253 252 251 252 253 252 250 252 253 251 252 254 253 252 253 253 252 253 255 254 253 254 255 255 255 255 255 255 255 253 253 255 255 255 255 255 255 255 253 254 218 150 130 135 147 133 154 239 239 241 241 242 244 241 228 200 174 175 170 174 182 189 196 203 210 216 223 228
220 230 241 251 255 253 251 251 249 252 253 253 253 252 251 253 251 251 253 253 251 253 255 253 252 252 252 251 253 255 255 255 254 255 255 255 255 255 255 255 255 255 255 255 255 255 255 255 255 254 252 252 241 217 196 187 187 175 151 233 237 240 241 240 241 241 242 243 243 243 255 255 255 255 255 255 255 255 255 255
235 243 250 251 250 250 250 251 252 252 252 251 252 253 252 252 252 253 252 251 253 255 252 252 253 252 252 253 255 255 255 255 255 255 255 255 255 255 255 255 255 255 255 255 255 255 253 253 252 251 252 253 248 237 223 206 197 188 156 228 235 237 239 238 240 239 240 239 239 241 250 255 255 255 255 255 255 255 255 255
248 247 246 246 247 250 251 252 252 251 251 252 253 253 252 252 253 252 252 254 254 252 252 253 252 251 253 255 255 255 254 246 252 255 255 255 255 251 231 232 244 253 254 253 253 253 253 253 254 254 253 253 250 246 245 239 226 212 173 184 206 225 235 237 238 237 238 239 238 239 248 255 255 255 255 255 255 255 255 255
251 252 251 251 250 252 252 252 251 251 251 251 253 252 252 252 253 253 253 252 252 252 252 252 251 253 255 255 255 250 236 231 219 188 135 204 249 235 222 229 240 252 254 255 255 255 255 254 255 255 254 255 253 253 253 253 254 252 247 230 214 196 189 199 216 232 237 236 237 238 246 255 255 255 255 255 255 255 255 255
255 254 254 254 254 255 255 255 254 254 254 254 254 253 253 254 253 252 252 252 252 252 252 252 254 254 255 255 253 250 242 190 160 178 190 213 243 249 255 255 255 255 254 254 254 254 254 254 254 254 253 254 251 250 250 250 252 251 250 254 255 251 231 207 191 186 203 224 235 237 246 255 255 255 255 255 254 253 251 249
