P2
80 80
255
205 204 205 206 208 210 211 212 213 216 217 216 216 218 217 218 218 218 220 219 218 219 219 221 215 200 195 207 253 254 255 255 255 255 255 255 255 255 255 255 255 255 255 250 249 248 247 252 255 255 255 255 255 255 198 153 156 158 158 226 255 255 255 255 191 153 154 156 157 235 255 255 255 255 182 159 165 162 167 243
202 207 208 209 207 208 211 212 211 215 217 217 218 218 218 218 219 219 219 219 219 221 219 222 208 175 168 189 254 255 250 250 249 248 250 250 251 250 250 251 252 255 255 252 250 249 248 252 255 255 255 255 255 238 233 219 221 229 229 247 251 251 252 255 235 213 215 223 223 248 255 255 254 254 230 183 162 162 165 245
205 208 205 205 207 209 208 211 212 215 217 218 218 219 217 220 220 220 221 221 220 221 222 224 208 172 170 190 254 255 248 245 252 252 253 253 254 253 250 254 254 255 255 255 255 255 255 255 255 232 209 212 193 194 248 245 246 250 255 254 246 248 252 254 252 240 246 255 255 255 255 255 254 254 253 228 210 211 210 221
207 206 204 206 209 210 211 212 212 217 218 216 217 220 219 220 220 220 221 221 221 221 222 224 209 174 170 191 255 254 231 232 230 225 225 230 231 234 221 226 240 255 255 255 255 255 255 255 255 205 156 160 118 167 239 235 233 238 245 245 242 242 237 238 241 238 235 239 248 248 248 249 249 249 251 255 255 255 255 183
207 206 207 209 210 211 214 215 214 217 219 217 221 221 221 220 223 221 220 222 224 223 222 224 211 177 172 192 255 254 227 231 220 222 226 214 222 220 220 217 240 254 255 255 255 255 255 255 255 206 160 163 116 166 239 237 233 237 237 246 246 246 247 248 247 248 247 247 247 247 248 246 241 245 249 255 255 255 253 185
207 207 209 209 210 211 212 212 215 218 219 219 219 220 221 220 223 222 223 224 224 223 221 223 208 175 171 192 255 255 253 252 253 255 255 246 254 252 255 252 240 243 247 251 255 255 255 255 255 206 161 161 110 163 239 239 232 237 236 242 240 242 243 246 243 244 243 244 245 246 243 244 246 245 249 254 255 255 254 186
206 208 210 209 211 214 213 213 214 215 219 218 219 220 219 222 222 222 222 222 223 222 220 223 207 175 169 193 255 254 237 233 238 239 242 242 253 255 243 230 226 244 252 248 247 255 255 255 255 206 162 160 105 163 236 236 233 223 241 244 247 237 240 242 250 243 244 247 241 248 248 240 236 244 252 255 255 255 254 190
207 207 208 210 210 211 213 213 217 215 216 218 221 219 219 223 222 220 220 221 222 221 219 222 207 173 169 193 255 255 226 219 204 210 216 216 246 248 226 244 224 242 254 235 240 254 255 255 255 205 160 155 102 170 235 236 232 231 231 237 246 242 241 239 246 249 244 248 241 243 247 244 247 246 252 255 255 255 255 191
207 206 209 210 210 212 214 215 216 217 218 218 219 218 219 221 223 221 219 221 219 218 218 222 206 175 170 194 255 255 249 246 240 243 243 249 253 236 243 254 236 243 240 238 253 251 255 255 255 228 203 198 159 181 228 228 240 248 245 245 246 247 248 248 246 248 248 248 247 246 247 245 248 248 252 243 230 231 231 211
207 209 209 211 212 211 212 214 217 216 218 218 220 221 221 222 222 222 221 222 219 218 219 221 208 174 171 194 255 255 255 254 254 254 251 248 255 240 239 255 235 230 218 245 252 250 255 255 255 255 255 255 240 204 234 238 241 248 248 247 248 248 247 246 247 246 247 248 248 248 248 249 249 247 255 212 164 166 167 239
209 208 208 209 211 212 214 215 218 216 219 219 219 220 221 220 223 222 222 221 219 218 218 222 207 175 170 196 255 255 255 235 215 218 219 233 255 250 231 229 207 202 212 228 252 248 255 255 255 255 255 253 236 210 243 250 242 245 245 246 247 246 245 243 245 245 245 247 248 248 248 248 248 246 255 215 166 167 167 237
209 207 208 207 210 213 216 215 216 218 218 217 217 219 220 220 220 222 222 221 220 222 222 225 208 176 171 198 255 255 255 236 226 236 227 243 255 249 240 218 203 216 218 221 245 250 255 255 255 254 255 253 235 211 248 253 231 227 227 229 229 229 230 231 231 232 231 231 231 230 229 231 229 238 255 216 169 168 168 237
209 209 209 208 209 211 213 216 216 217 219 217 220 218 219 218 221 220 221 220 221 223 222 225 206 176 171 196 255 255 251 255 255 253 255 255 255 251 235 232 216 253 216 216 243 252 255 255 255 254 255 251 234 212 250 252 230 223 224 223 223 223 228 230 231 229 230 227 223 223 223 224 222 235 255 218 169 170 169 236
207 207 207 207 208 209 213 214 216 216 217 216 216 216 217 217 219 220 219 220 222 224 223 223 207 176 170 197 255 255 215 223 223 212 228 232 230 243 248 210 229 254 231 216 251 253 255 255 255 255 255 253 236 215 254 251 245 246 246 246 246 245 245 245 243 244 244 246 246 246 245 243 240 242 253 217 174 169 167 236
208 206 211 208 208 210 212 214 216 212 213 212 213 213 214 216 217 219 220 222 222 222 222 223 206 176 172 200 255 254 226 221 214 220 210 222 229 243 250 228 241 253 240 227 247 255 255 255 255 245 238 225 204 211 254 251 253 255 255 255 254 248 251 251 255 252 254 255 255 255 252 246 252 253 253 229 198 191 188 230
208 210 212 209 213 215 216 214 216 212 212 212 213 214 216 215 215 220 221 221 222 222 222 224 205 175 171 200 255 254 254 252 251 254 252 254 254 255 254 247 248 250 246 249 254 255 255 255 255 209 168 131 99 187 255 252 253 255 255 255 251 244 248 247 254 255 255 254 252 255 239 236 250 253 254 255 255 255 255 204
207 210 211 210 211 210 214 215 214 213 211 214 215 216 218 217 215 218 219 220 220 219 219 223 203 170 171 200 255 255 228 239 249 247 248 249 245 245 235 234 242 239 247 255 255 255 255 255 255 207 163 123 90 179 255 255 255 255 255 255 249 243 247 251 254 255 255 254 252 255 242 232 241 250 254 255 255 255 255 203
209 212 210 210 212 212 213 214 214 212 214 216 216 217 218 217 215 220 219 219 219 219 221 222 201 171 172 198 255 255 212 209 210 227 225 222 219 221 217 215 222 218 236 255 254 255 255 255 255 210 163 118 89 181 255 254 254 254 253 255 251 246 249 251 254 255 255 254 253 254 253 243 248 252 254 254 255 255 255 204
211 212 210 210 213 213 214 215 215 214 214 216 218 216 217 219 218 220 222 222 218 220 221 221 200 173 170 201 255 255 240 237 240 241 241 233 224 246 243 243 241 247 250 255 255 255 255 255 255 211 161 113 90 182 250 247 248 248 255 255 253 252 250 253 255 255 253 248 252 255 252 247 250 254 254 254 255 255 255 208
210 210 210 212 213 215 215 215 216 215 215 214 214 216 217 217 217 220 221 220 219 220 221 223 202 172 170 202 255 255 255 255 255 255 255 254 254 255 255 255 255 255 255 255 255 255 255 255 255 213 158 108 91 184 251 245 247 246 254 254 254 253 252 254 255 254 250 250 252 255 251 252 251 253 254 255 255 255 255 216
211 210 212 213 212 212 214 215 215 215 215 214 218 217 219 218 217 220 219 219 221 222 224 225 204 176 172 205 255 255 255 255 255 255 255 255 255 255 255 255 255 255 255 255 255 255 255 255 255 223 171 125 109 189 255 249 246 244 255 253 253 255 255 254 250 250 250 247 251 255 253 252 252 253 254 253 251 251 251 215
210 211 211 212 212 213 214 215 216 216 215 215 216 218 220 218 218 219 219 219 221 221 222 224 203 177 173 205 255 255 251 250 251 251 250 252 255 255 255 255 255 255 255 255 255 254 255 255 255 253 250 232 219 213 255 252 248 251 255 254 253 254 252 248 248 249 249 252 254 255 255 253 253 254 255 235 187 181 182 228
209 211 210 209 213 214 216 215 215 216 216 217 218 219 218 219 217 219 221 221 222 223 224 224 204 179 176 206 255 255 246 244 246 249 253 254 255 255 255 255 255 255 255 255 255 255 255 255 255 254 255 240 229 219 255 255 252 248 248 251 255 253 249 246 244 251 254 255 255 254 255 251 252 254 255 233 181 167 167 228
212 211 210 214 214 214 217 217 214 215 216 217 218 218 216 217 217 219 221 219 221 223 223 224 203 178 176 208 255 255 253 252 252 253 255 255 255 255 255 255 255 255 255 255 255 255 255 255 255 253 253 237 228 220 255 254 251 244 242 242 253 248 249 247 248 253 255 255 252 249 254 250 248 255 254 228 180 167 168 226
210 214 213 215 216 215 217 215 215 217 218 217 218 216 218 219 217 217 220 220 222 222 223 226 202 176 174 208 255 254 254 255 255 255 255 255 255 255 255 255 255 255 255 255 255 255 255 255 255 253 252 237 228 220 255 255 255 247 246 245 253 246 244 251 253 255 255 253 248 249 255 247 242 254 254 225 178 167 168 226
213 208 192 176 168 178 201 213 217 217 215 213 214 217 217 220 218 217 219 219 220 222 224 225 202 177 173 209 255 254 254 255 255 255 255 255 255 255 255 255 255 255 255 255 255 255 255 255 254 252 252 236 228 221 253 253 255 247 244 251 254 250 251 254 255 254 251 245 247 253 253 245 239 251 255 227 174 168 167 225
131 113 102 97 131 160 194 207 210 207 204 182 169 219 223 222 222 222 221 221 223 225 226 225 202 177 175 211 255 254 254 254 254 255 255 255 255 255 255 255 255 255 255 255 255 255 255 255 254 251 251 235 228 218 249 250 254 255 255 253 252 253 254 255 255 248 241 246 255 255 250 246 237 251 255 232 176 169 168 224
85 93 97 96 137 170 200 201 206 202 200 177 154 210 217 217 218 219 221 223 224 226 228 229 203 177 175 211 255 255 248 247 248 251 251 251 250 252 255 255 255 255 255 255 255 255 255 255 255 238 160 125 125 198 245 244 250 255 255 255 255 255 255 255 255 253 245 253 255 253 251 244 245 254 253 250 238 236 236 216
93 95 95 98 137 196 205 197 203 202 198 181 150 203 213 212 212 213 215 217 218 221 224 226 203 178 175 212 255 255 251 250 251 250 251 250 251 254 255 255 255 255 255 255 255 255 255 255 255 233 125 89 88 191 244 244 247 254 255 255 255 255 255 255 255 255 255 255 255 252 246 242 249 255 254 253 255 255 255 210
100 91 95 97 138 206 199 192 201 198 198 191 157 195 209 209 209 210 210 213 214 217 219 222 201 177 173 213 255 255 240 253 254 253 254 255 255 255 255 255 255 255 255 255 255 255 255 255 255 235 124 93 92 191 238 240 243 254 255 255 255 254 253 253 253 252 250 252 252 251 249 242 252 255 254 253 255 255 255 213
151 136 97 100 140 178 193 190 198 191 202 205 176 190 206 205 206 209 207 209 210 213 215 219 202 175 174 214 255 255 240 249 250 249 250 253 253 252 251 252 253 251 250 253 254 254 254 254 254 242 149 93 91 194 244 244 249 254 253 255 255 255 254 254 255 254 254 254 255 254 251 243 253 255 254 253 255 255 255 214
179 156 105 122 135 149 178 179 189 194 204 212 191 165 201 204 203 206 206 206 206 208 210 214 210 228 233 244 250 247 246 250 250 251 251 237 230 231 228 233 242 240 233 246 254 254 254 254 254 255 216 98 92 198 251 248 254 253 248 253 255 255 254 253 253 254 255 255 255 255 253 250 255 255 253 252 255 255 255 216
166 146 107 128 116 116 123 127 130 135 143 146 142 128 157 179 198 200 202 202 202 203 205 210 213 252 246 244 237 239 243 243 245 247 249 249 249 250 248 249 249 250 250 251 255 255 255 255 255 255 219 96 87 197 249 251 255 253 249 253 255 254 253 251 251 249 248 253 255 255 255 255 255 255 254 253 255 255 255 215
137 128 105 133 200 201 191 182 172 163 153 138 121 114 143 198 209 204 201 215 217 221 224 225 222 250 241 245 245 246 245 242 234 222 216 215 212 210 232 251 250 250 244 252 255 255 255 255 255 255 221 160 169 205 246 255 255 255 253 254 255 255 255 254 255 253 248 253 255 255 255 254 255 255 254 250 252 255 255 242
119 128 105 139 247 255 255 255 255 255 253 247 239 229 222 249 255 255 253 254 255 254 255 255 255 253 254 255 255 254 252 252 249 240 232 229 226 178 173 192 194 207 150 187 213 211 207 202 195 192 182 194 220 200 227 231 231 230 230 226 228 228 229 231 232 229 224 227 230 229 224 221 221 215 243 247 252 255 255 255
140 91 107 142 246 247 247 248 248 249 250 255 255 255 241 235 255 255 251 252 255 252 254 253 255 253 254 255 255 253 252 253 255 255 255 255 255 228 152 126 124 131 123 128 137 141 143 140 140 142 147 155 172 175 170 169 171 173 172 172 173 170 170 173 177 182 183 180 180 179 177 176 167 112 214 245 249 255 255 255
106 92 108 146 249 250 249 249 249 249 247 248 248 251 241 231 255 251 248 251 254 253 254 253 255 254 255 255 255 253 252 253 254 255 255 255 255 239 165 198 201 198 207 208 208 217 218 211 202 213 205 176 160 205 208 204 193 209 217 218 219 210 200 216 210 201 211 219 216 219 224 220 190 119 215 241 251 255 255 247
104 110 117 150 253 254 253 252 252 251 251 251 254 254 234 223 252 246 248 250 254 253 254 254 254 254 255 255 255 252 252 253 254 255 255 255 255 235 169 217 219 219 222 223 222 220 217 215 211 213 195 155 167 219 220 211 198 208 218 217 219 219 203 215 199 196 209 217 215 215 213 213 191 117 215 244 252 255 255 248
117 118 119 154 254 252 251 252 252 251 251 252 250 253 226 215 243 245 247 250 253 253 254 254 254 254 255 255 255 252 252 253 255 255 255 255 255 232 181 255 255 255 255 255 255 255 255 255 242 176 178 155 152 180 172 170 175 177 176 176 179 179 169 161 161 162 162 161 159 157 156 152 141 98 210 249 251 255 252 229
99 99 110 160 255 252 251 252 252 252 251 251 250 253 215 206 240 246 247 249 253 253 254 254 254 254 255 255 255 252 251 253 255 255 255 255 255 230 182 255 255 255 255 255 255 255 255 255 238 186 191 154 114 91 94 94 96 96 97 95 90 86 82 78 76 75 75 73 70 63 59 54 42 38 200 250 252 255 250 223
96 97 111 165 255 252 252 252 252 251 252 252 251 254 205 203 241 246 247 248 252 252 254 254 254 253 255 255 255 251 251 253 255 255 255 255 255 227 179 245 241 244 246 252 255 255 255 255 239 175 173 201 206 196 198 198 196 193 198 198 195 192 188 185 182 179 179 167 157 153 148 143 138 129 219 239 251 255 255 243
114 118 120 170 255 252 252 252 252 252 252 251 250 254 196 205 241 246 246 248 251 252 254 254 254 254 255 255 254 250 251 253 255 255 255 255 255 225 181 235 235 233 236 253 255 255 255 255 237 183 179 218 255 255 255 255 255 255 255 255 255 255 255 255 255 255 255 255 255 255 255 255 255 232 244 241 253 255 253 250
119 121 120 177 255 252 251 252 251 252 252 251 250 254 185 208 241 246 246 248 250 252 254 255 253 254 255 255 254 249 251 253 255 255 255 255 255 221 187 251 248 247 244 253 255 255 255 255 236 187 185 215 251 249 249 249 250 250 250 249 249 249 252 254 255 255 255 255 255 255 255 255 252 229 245 245 254 255 252 225
106 106 115 183 255 252 252 252 252 252 251 252 252 254 179 211 241 246 246 247 249 253 254 255 253 254 255 255 253 249 251 253 255 255 255 255 255 220 188 251 255 255 253 255 255 255 255 255 235 187 185 212 246 244 242 243 246 246 246 243 241 243 243 254 254 255 255 255 255 255 255 255 251 232 245 240 253 255 255 227
94 97 115 190 255 252 252 251 251 252 251 251 252 254 173 215 240 246 246 247 249 253 253 255 253 254 255 255 253 249 251 254 254 255 255 255 255 218 186 233 248 255 255 255 255 255 255 255 234 187 184 215 255 255 243 250 255 255 255 253 249 251 243 253 253 254 255 255 255 254 254 254 247 218 240 244 252 255 255 255
97 101 116 196 255 251 252 252 251 251 251 252 250 251 165 216 240 246 245 247 249 253 253 255 252 254 255 255 252 249 251 254 254 255 255 255 255 214 191 243 252 255 255 255 254 255 255 255 232 184 181 215 255 252 241 250 252 248 243 240 242 248 247 251 252 252 252 252 252 252 252 250 241 218 238 239 251 255 254 254
115 119 120 202 255 251 252 253 251 252 250 252 250 249 160 221 240 246 244 247 249 254 253 255 251 254 255 255 252 249 250 254 254 255 255 255 255 210 200 241 251 250 253 254 246 249 253 254 232 184 180 208 240 237 239 242 243 243 243 246 251 253 254 252 250 251 251 249 252 253 253 251 248 249 250 249 251 252 251 248
117 120 123 208 255 252 253 254 254 253 253 252 251 247 157 224 240 245 244 247 250 254 254 255 251 254 255 255 251 249 250 254 254 255 255 255 255 208 204 241 234 235 233 236 232 239 236 243 230 187 184 200 233 238 241 242 244 246 248 250 252 253 253 250 249 252 251 251 254 255 255 254 253 255 255 252 255 255 255 255
98 104 122 215 255 251 252 253 252 253 253 253 254 245 155 227 240 245 243 248 250 254 254 254 251 254 255 255 251 249 249 254 254 255 255 255 254 206 208 248 241 243 238 240 239 237 238 244 230 187 182 202 234 239 241 242 243 246 248 249 252 253 254 251 251 252 251 252 250 254 251 252 253 254 252 250 255 255 255 255
87 97 124 220 255 252 251 252 252 251 252 251 251 240 156 229 240 245 243 248 251 254 254 254 251 254 255 255 251 249 249 253 254 255 255 255 255 204 213 255 255 255 255 255 255 255 254 252 229 181 180 202 233 237 239 240 241 245 248 250 252 254 253 251 251 253 250 254 253 252 250 251 253 252 250 252 255 254 254 255
93 101 125 226 254 252 251 252 252 252 251 251 252 235 155 231 240 245 243 248 251 254 254 254 250 255 255 255 251 249 249 253 254 255 255 255 254 205 212 251 240 246 243 243 246 245 249 255 228 185 183 200 230 234 237 239 241 244 248 250 253 254 254 252 251 252 251 254 254 251 252 252 249 253 250 250 254 255 254 255
112 117 129 231 254 252 251 252 251 252 252 250 251 230 155 233 241 244 243 248 252 254 255 253 250 255 255 255 251 249 249 252 254 255 255 255 255 202 214 251 249 248 248 246 248 246 249 255 227 186 182 199 230 234 238 240 241 244 248 250 253 254 254 252 248 251 253 254 254 253 254 253 248 253 252 252 255 255 255 255
113 116 132 236 254 251 251 252 251 251 252 250 251 225 156 234 241 244 243 248 253 254 255 253 250 254 255 255 251 248 247 252 254 255 255 254 254 200 208 242 242 247 242 244 247 244 249 255 226 186 182 198 229 233 238 240 241 243 246 250 253 252 252 249 246 251 253 254 254 254 253 251 249 253 251 251 251 250 251 252
94 102 136 240 254 252 251 252 252 250 251 251 252 220 158 235 241 243 243 248 253 254 255 252 250 255 255 255 251 248 248 252 254 255 255 254 254 197 220 248 247 251 248 248 247 246 250 255 224 187 180 192 220 223 229 233 233 234 237 240 243 243 246 247 246 249 251 252 251 250 250 247 249 250 248 249 246 246 230 217
85 99 141 244 253 252 252 252 251 251 251 250 253 215 161 236 241 243 243 248 254 254 255 251 251 255 255 255 251 248 247 252 255 255 255 254 254 192 228 255 255 255 255 255 255 255 255 255 222 185 180 181 209 219 226 230 231 232 234 237 241 245 254 255 253 255 255 255 255 253 245 246 253 254 254 254 255 255 246 224
88 101 147 247 252 252 252 251 252 252 251 250 254 208 165 236 241 242 243 248 254 254 255 251 251 255 255 254 251 247 247 252 255 255 255 254 255 193 232 255 255 255 255 255 255 255 255 255 221 185 178 187 213 221 229 232 233 234 236 238 241 245 255 255 252 255 255 255 255 253 242 244 251 251 250 249 253 255 248 227
93 104 151 250 253 252 252 252 252 251 251 250 254 203 168 237 241 241 244 249 254 254 255 250 252 255 255 254 250 247 247 252 255 255 255 253 254 193 237 255 255 255 255 255 255 255 255 255 221 181 174 189 214 221 228 232 232 231 235 237 239 243 251 252 252 254 255 255 255 255 249 251 255 255 255 255 255 253 249 232
114 126 156 252 252 252 252 252 251 251 251 250 254 196 171 237 241 241 244 249 254 254 255 250 252 255 255 254 250 246 247 252 255 255 255 254 253 191 237 255 255 255 255 255 255 255 255 255 219 177 173 173 195 214 224 230 230 225 234 238 245 209 120 117 126 128 131 131 132 133 134 140 144 143 141 140 139 161 132 125
187 183 161 254 252 251 251 252 251 251 252 251 254 190 176 237 241 241 244 250 255 253 255 249 253 255 255 253 250 245 248 252 255 255 255 254 255 182 150 146 152 244 255 255 255 255 255 255 216 180 174 156 197 221 228 233 238 240 239 241 251 203 103 154 135 129 133 129 83 79 81 90 137 145 133 109 148 162 159 177
180 160 168 255 252 252 253 253 252 252 252 251 254 184 180 236 241 240 244 250 255 254 255 249 253 255 255 253 250 244 248 253 255 255 255 252 254 177 143 123 123 241 255 255 255 255 255 255 215 183 172 176 205 218 227 232 237 239 240 242 251 201 107 190 161 170 174 143 90 89 89 130 142 141 144 123 136 156 131 145
233 168 174 255 252 251 252 253 253 253 253 253 255 178 183 236 241 240 244 251 254 254 255 250 254 255 255 253 250 245 248 253 255 255 255 252 252 182 179 147 150 245 255 255 255 255 255 255 213 177 169 178 212 224 225 231 237 236 227 230 240 185 75 82 99 116 124 124 127 134 154 166 172 176 176 173 173 186 170 176
224 162 182 255 252 252 252 252 252 251 251 250 255 172 187 236 240 239 244 251 254 254 254 250 254 254 255 253 250 244 248 253 255 255 255 251 251 182 193 172 181 248 255 255 255 255 255 255 211 178 169 173 246 254 252 252 254 238 168 148 144 124 115 133 160 177 186 186 188 187 162 186 250 253 251 249 250 252 253 255
229 162 189 255 252 252 252 252 252 251 251 250 255 167 190 235 240 238 244 252 254 254 254 250 254 254 255 252 250 243 248 253 255 255 255 252 250 177 185 161 172 250 255 255 255 255 255 255 210 179 166 118 228 232 225 228 247 250 181 153 160 185 193 197 195 190 203 200 197 187 151 181 238 238 248 243 244 251 252 253
223 155 196 255 252 251 252 252 251 251 251 250 255 162 193 235 239 237 244 252 254 255 253 250 254 254 255 252 249 241 248 254 255 255 255 253 249 178 177 145 148 233 237 230 229 254 255 255 208 165 138 126 230 234 227 242 242 249 208 162 179 202 207 210 207 192 212 217 208 191 160 171 228 238 246 233 245 248 250 252
218 151 203 255 252 252 253 252 252 251 251 250 255 157 196 234 238 237 244 253 253 255 252 251 254 254 255 251 249 241 249 254 255 255 255 254 249 177 156 133 141 205 211 210 213 229 251 255 196 146 126 115 226 243 242 243 243 240 224 163 165 164 162 165 171 177 183 186 187 191 161 134 217 241 250 250 249 253 251 252
214 146 209 255 252 251 252 252 252 252 251 251 254 152 199 233 238 236 244 253 253 255 252 251 253 254 255 251 248 241 249 254 255 255 254 251 248 165 107 90 108 206 213 212 212 214 250 255 188 140 128 99 117 150 172 186 178 171 181 157 156 169 170 176 181 187 192 194 188 195 183 161 194 212 219 224 227 227 232 246
211 142 214 255 253 252 252 252 252 251 251 250 253 149 202 232 236 235 244 254 253 255 251 252 252 253 255 252 248 241 249 254 255 255 254 251 247 160 98 92 110 207 213 212 212 216 250 255 188 128 127 98 100 138 182 208 217 223 232 235 230 245 252 252 253 253 253 253 253 253 253 254 252 252 252 250 250 249 248 252
202 144 221 255 252 252 252 252 251 251 251 251 251 148 204 231 235 234 245 254 253 255 251 253 251 253 255 252 247 242 249 254 255 255 255 254 243 181 199 204 205 211 212 212 212 212 242 255 187 121 127 98 89 145 190 209 218 227 237 244 245 253 255 255 255 255 255 255 255 255 255 255 255 255 255 255 255 255 255 255
187 143 227 255 255 255 255 255 253 252 252 251 249 149 206 230 236 235 245 254 253 255 251 254 248 253 255 253 247 243 249 254 255 255 255 255 237 168 206 211 212 212 212 214 218 235 253 255 195 137 136 109 102 154 191 207 215 224 234 241 243 253 255 255 255 255 255 255 255 255 255 255 255 255 255 255 255 254 255 255
176 143 209 232 232 235 241 245 247 252 255 255 253 148 197 214 213 222 246 254 253 255 252 254 252 254 255 254 247 244 250 255 255 255 255 255 236 169 209 212 214 215 216 226 235 244 251 255 202 156 155 107 110 153 188 209 217 223 231 240 242 252 255 255 255 255 255 255 255 255 255 255 255 255 255 255 254 254 254 254
191 150 153 153 146 147 162 169 153 155 162 171 187 139 129 130 122 175 249 254 252 255 253 254 253 255 255 255 249 246 251 255 255 255 213 177 170 186 243 227 225 224 226 236 243 250 254 255 201 161 159 112 127 129 144 172 186 194 213 234 243 254 255 255 255 255 255 255 255 255 255 255 255 255 255 255 255 255 255 255
229 206 135 130 116 117 131 185 196 194 180 155 134 147 227 230 231 229 246 253 250 255 253 255 252 254 255 255 252 249 252 255 255 253 184 134 135 203 254 251 247 247 250 254 255 255 255 255 200 159 149 116 152 163 172 173 188 198 199 195 175 193 232 230 229 228 225 222 218 214 212 209 206 204 199 205 211 201 194 190
231 189 175 217 216 206 212 241 247 254 255 255 248 239 252 249 245 246 253 252 249 251 243 248 251 253 253 254 253 252 253 255 255 253 243 239 236 247 252 253 255 255 255 255 255 255 255 255 199 155 139 118 151 172 235 216 198 189 196 209 193 167 181 182 183 188 188 189 191 191 194 197 201 205 204 209 216 212 212 213
225 235 255 255 252 253 255 253 253 251 251 251 252 252 250 253 254 252 254 254 254 254 252 251 253 253 254 253 253 254 255 255 255 255 255 255 255 255 255 255 255 255 255 255 255 255 255 255 196 148 130 100 137 170 244 243 242 229 207 180 163 178 221 238 230 225 223 221 217 214 210 207 204 201 199 198 199 197 197 198
254 255 250 249 249 252 253 253 251 251 252 252 251 251 253 251 251 253 253 252 252 253 253 252 254 254 252 254 255 255 255 255 255 255 255 255 252 254 255 255 255 255 255 255 255 254 254 254 195 143 125 136 140 159 240 240 242 242 245 243 232 205 178 176 169 172 179 185 192 199 205 211 217 223 229 235 239 243 247 250
251 250 249 249 252 253 252 252 251 252 252 251 252 253 252 252 254 253 252 252 252 251 252 255 255 255 254 255 255 255 255 255 255 255 255 255 255 255 255 255 255 255 255 255 255 253 252 251 233 208 187 184 177 155 235 238 242 241 241 242 243 244 244 243 255 255 255 255 255 255 255 255 255 255 255 255 255 255 255 255
249 251 251 252 252 251 251 252 253 252 251 252 253 251 253 255 253 252 253 252 252 253 255 255 255 255 255 255 255 255 255 255 255 255 255 255 255 255 255 255 255 254 253 252 252 251 253 252 244 228 211 198 189 159 231 236 239 240 240 240 241 241 241 242 252 255 255 255 255 255 255 255 255 255 255 255 255 255 255 255
249 250 251 251 250 250 251 253 252 252 252 252 252 253 254 252 252 253 252 251 253 255 255 255 255 248 249 255 255 255 255 255 243 232 237 248 254 254 254 253 253 253 253 254 254 254 253 252 249 245 239 226 209 171 189 214 231 238 238 239 239 240 240 241 250 255 255 255 255 255 255 255 255 255 255 255 255 255 255 255
250 251 251 249 249 250 251 252 252 252 252 253 253 253 252 251 252 252 251 253 255 255 255 250 234 229 220 210 132 172 240 247 222 222 229 243 253 254 254 255 255 255 255 255 255 254 254 253 253 252 253 254 251 244 224 208 193 196 212 231 238 238 238 239 248 255 255 255 255 255 255 255 255 255 255 255 255 255 255 255
253 254 253 253 253 253 253 253 252 253 253 252 252 252 251 251 251 252 253 254 255 255 252 246 244 196 147 166 173 197 229 248 250 255 255 255 254 255 255 254 254 254 254 255 253 254 253 251 251 250 251 252 250 251 255 255 241 217 195 187 202 225 236 238 247 255 255 255 255 255 255 254 253 251 248 245 241 237 233 229
