P2
80 80
255
203 203 205 206 208 210 210 212 214 215 215 215 216 216 217 217 216 219 217 217 218 218 221 213 198 193 216 255 254 255 255 255 255 255 255 255 255 255 255 255 255 255 249 248 247 247 254 254 251 255 255 255 255 190 152 156 158 159 231 255 255 255 255 185 152 153 156 158 240 255 255 255 253 177 160 165 162 169 248 255
206 206 207 205 206 209 210 210 214 215 216 216 217 217 217 218 218 218 218 218 220 218 222 205 173 166 203 255 254 248 250 248 248 250 249 251 250 250 251 252 255 255 251 249 249 248 254 254 253 255 255 255 238 232 218 222 229 229 248 250 251 252 255 233 212 216 223 224 250 255 255 254 253 227 177 163 162 167 250 255
207 203 204 206 207 206 209 210 214 216 216 217 218 216 219 218 219 220 220 219 220 221 223 204 170 168 205 255 254 245 247 252 252 254 253 254 251 251 255 254 255 255 255 255 255 255 255 255 225 209 211 191 200 250 244 247 250 255 253 245 248 252 254 251 240 248 255 255 255 255 254 254 254 253 223 209 210 211 221 220
205 203 205 207 209 210 210 211 216 216 215 216 219 217 218 219 218 220 220 220 221 222 223 205 172 168 206 255 250 228 233 228 224 225 229 233 228 223 226 245 255 255 255 255 255 255 255 255 195 156 158 117 181 241 234 234 238 245 244 242 241 236 237 241 237 235 240 248 248 248 248 248 250 251 255 255 255 255 177 156
204 205 207 209 210 212 213 213 216 217 216 220 220 220 219 221 220 219 221 223 222 221 223 207 175 170 207 255 250 224 228 218 223 222 214 221 221 217 218 246 254 255 255 255 255 255 255 255 196 159 160 114 180 241 236 233 237 238 246 246 246 246 248 247 248 247 247 247 247 248 245 242 246 250 255 255 255 253 179 159
206 207 207 208 210 210 210 213 217 218 218 218 219 219 219 222 221 222 222 223 221 220 222 204 173 169 207 255 255 252 253 253 255 253 246 254 253 255 251 237 246 247 252 255 255 255 255 255 197 160 158 109 178 242 238 230 240 233 242 240 242 243 247 243 244 243 244 245 245 243 244 246 246 250 254 255 255 253 179 159
207 208 208 209 212 212 211 213 214 217 217 218 219 218 221 221 221 221 221 222 221 219 222 203 172 167 209 255 250 235 232 238 239 242 243 255 255 237 230 226 249 252 246 249 255 255 255 255 197 162 157 105 179 237 236 231 225 243 245 245 237 240 244 248 243 244 246 241 249 247 238 237 245 253 255 255 255 254 183 161
205 207 208 208 209 212 212 215 213 214 217 220 218 219 222 221 219 219 220 221 220 219 221 203 171 168 209 255 254 219 217 201 212 214 220 252 240 229 244 220 248 251 231 244 254 255 255 255 196 159 151 103 185 237 235 230 231 232 238 247 241 241 239 247 249 244 247 240 245 246 245 246 246 253 255 255 255 255 185 161
204 208 207 209 210 213 213 215 216 216 216 218 217 218 220 222 220 219 220 218 217 216 221 202 173 168 211 255 254 246 245 240 242 245 249 254 230 249 252 231 248 234 243 251 252 255 255 255 220 203 194 157 190 230 229 242 248 245 245 246 247 248 248 246 249 248 248 247 246 247 245 248 248 253 239 231 232 231 207 197
207 208 209 210 210 210 213 215 215 217 217 219 220 219 220 221 221 220 220 217 218 218 220 204 172 169 211 255 254 255 254 254 254 248 251 255 234 245 254 229 228 220 250 251 250 255 255 254 250 255 255 236 206 238 237 244 248 248 247 247 247 246 245 246 246 246 247 247 247 248 249 249 248 255 196 165 166 168 245 255
206 206 208 209 211 212 214 217 215 218 218 218 219 220 219 222 221 221 220 218 217 218 221 202 173 168 213 255 255 254 227 214 218 217 242 253 248 227 228 197 208 210 236 251 249 255 255 254 248 255 252 232 212 247 248 242 245 246 246 247 246 245 243 245 244 245 246 247 248 248 248 248 247 255 199 166 166 169 243 255
205 206 206 209 212 215 214 214 216 216 215 216 218 219 219 219 221 220 220 219 221 221 224 203 174 169 214 255 255 254 230 228 234 227 248 252 250 233 216 198 222 214 225 248 250 255 255 253 248 255 251 231 215 252 250 228 227 228 229 228 229 230 230 231 232 231 231 230 229 229 232 229 241 255 200 169 167 170 243 255
207 208 206 208 210 212 215 214 216 217 216 219 217 218 217 219 219 219 219 221 222 222 224 202 174 169 213 255 255 250 255 255 254 255 255 254 249 232 224 225 250 207 222 247 252 255 255 254 250 255 250 230 216 253 249 226 223 223 222 223 224 228 230 230 229 230 226 223 223 223 224 222 240 255 201 170 169 170 242 255
205 206 206 207 208 212 213 215 214 215 215 215 215 216 216 218 219 218 220 221 223 222 222 203 174 168 214 255 251 209 227 217 214 228 232 231 247 243 203 240 254 216 228 251 254 255 255 254 253 255 252 232 220 255 250 244 246 246 246 245 245 244 244 243 244 244 246 245 245 246 241 240 243 254 201 174 168 169 243 255
205 209 207 207 209 211 213 214 210 212 211 212 212 213 215 216 218 219 221 221 221 221 222 202 173 170 217 255 249 224 217 215 217 210 225 229 247 245 225 247 253 234 228 251 255 255 255 255 242 237 222 203 220 254 251 254 255 255 255 252 248 251 253 255 251 254 255 255 255 250 247 253 252 254 216 197 190 189 234 243
209 210 208 212 214 214 213 214 211 210 211 211 213 215 213 214 219 220 220 221 220 221 223 200 173 169 217 255 254 255 251 252 253 252 254 255 255 252 246 249 249 245 250 255 255 255 255 255 199 166 124 105 209 255 252 254 255 255 255 248 245 248 248 255 255 255 253 253 254 234 240 251 253 254 255 255 255 255 196 172
209 210 209 210 208 213 214 213 211 210 212 214 215 217 215 214 218 218 219 219 218 218 223 198 169 169 217 255 251 224 243 249 247 247 248 244 243 231 237 241 238 250 255 255 255 255 255 255 196 161 116 95 205 255 255 255 255 255 255 246 243 248 252 254 255 255 254 252 255 236 233 243 251 254 255 255 255 255 194 170
210 209 209 210 211 212 213 212 211 213 214 215 216 217 216 214 219 218 218 218 219 220 221 196 170 170 217 255 248 205 206 212 226 222 220 215 220 214 215 220 218 243 255 255 255 255 255 255 198 159 111 95 208 255 254 254 254 253 255 249 246 249 252 254 255 255 254 253 255 251 243 249 252 254 255 255 255 255 195 170
209 208 208 212 211 213 213 213 212 213 215 217 215 216 218 217 219 221 220 216 219 221 220 196 172 169 219 255 252 238 236 241 240 240 225 229 245 243 242 242 247 251 255 255 255 255 255 255 200 157 107 96 207 249 247 247 250 255 255 253 252 250 254 255 255 251 248 253 255 250 247 251 254 254 254 255 255 255 200 169
209 208 211 212 213 213 214 215 214 213 212 214 215 216 216 216 219 220 219 218 219 220 222 197 171 169 220 255 255 255 255 255 255 255 253 255 255 255 255 255 255 255 255 255 255 255 255 255 202 153 103 97 210 250 246 246 248 254 254 254 253 252 255 255 254 249 251 253 255 250 252 251 253 254 255 255 255 255 208 177
209 211 211 210 210 213 214 214 214 213 213 217 216 218 216 216 219 217 218 220 221 224 223 199 174 171 222 255 255 255 255 255 255 255 255 255 255 255 255 255 255 255 255 255 255 255 255 255 213 166 119 113 215 254 249 243 247 255 253 254 255 255 253 250 250 250 246 252 255 252 252 252 253 254 252 251 251 252 208 186
210 209 211 210 212 212 214 214 215 214 214 214 217 218 217 217 219 217 219 220 221 221 223 198 176 172 222 255 255 249 250 250 251 249 253 255 255 255 255 255 255 255 255 255 255 255 255 254 251 249 230 214 225 255 251 247 253 255 253 253 255 251 248 249 248 250 252 254 255 255 252 254 254 255 219 185 181 183 235 248
209 208 208 212 213 214 213 214 215 215 216 217 217 217 217 216 219 220 220 221 222 223 222 199 177 175 223 255 254 243 244 246 249 253 254 255 255 255 255 255 255 255 255 255 255 255 255 254 253 254 238 224 228 255 255 250 248 247 253 255 252 248 245 245 252 255 255 255 254 254 251 253 254 255 215 178 166 168 237 255
209 209 213 212 212 215 215 213 213 214 216 217 216 215 217 216 218 220 218 221 222 222 224 198 177 176 225 255 254 252 252 252 253 255 255 255 255 255 255 255 255 255 255 255 255 255 255 254 253 252 236 223 229 255 254 249 244 241 246 253 247 249 246 249 253 255 255 251 250 254 249 249 255 253 210 177 167 168 234 255
214 212 213 212 214 215 213 213 216 216 216 215 214 217 217 216 216 219 219 221 222 222 224 196 175 173 225 255 254 255 255 255 255 255 255 255 255 255 255 255 255 255 255 255 255 255 255 254 252 251 236 223 230 255 255 254 245 246 247 252 243 247 250 254 255 254 253 247 251 254 245 244 255 253 207 175 167 169 235 255
195 177 166 175 192 213 214 216 214 212 211 217 215 216 218 217 216 218 218 219 222 223 224 197 175 172 227 255 254 254 255 255 255 255 255 255 255 255 255 255 255 255 255 255 255 255 255 254 252 250 235 223 231 253 254 254 244 246 252 253 249 253 254 255 254 249 245 248 254 251 243 240 254 254 207 171 168 169 234 255
101 95 124 156 184 207 208 207 202 189 161 209 222 221 221 221 221 220 220 222 224 225 223 197 176 175 229 255 254 254 254 254 255 255 255 255 255 255 255 255 255 255 255 255 255 255 255 253 251 249 234 222 225 250 251 254 255 255 252 253 253 255 255 255 246 241 249 255 255 249 243 239 254 255 212 173 169 168 234 255
93 92 129 165 192 200 203 203 197 187 147 198 217 216 217 218 219 221 222 224 227 228 224 197 176 175 229 255 253 246 247 249 251 251 251 251 253 255 255 255 255 255 255 255 255 255 255 255 229 152 125 134 219 245 245 252 255 255 255 255 255 255 255 255 251 246 255 255 252 251 242 248 254 253 245 236 236 235 210 191
92 93 130 189 202 196 200 202 195 189 146 190 212 211 211 211 214 215 217 219 222 223 224 197 176 175 229 255 254 250 250 250 250 251 250 252 255 255 255 255 255 255 255 255 255 255 255 255 222 115 87 102 216 245 244 248 255 255 255 255 255 255 255 255 255 255 255 255 250 246 242 252 255 253 254 255 255 255 198 162
91 93 130 199 198 190 197 198 195 196 159 182 208 208 207 209 209 211 212 214 218 219 224 196 175 173 231 255 251 240 254 254 253 254 255 255 255 255 255 255 255 255 255 255 255 255 255 255 224 116 91 105 216 239 239 246 255 255 255 254 253 253 253 253 251 251 252 252 251 247 243 254 255 253 253 255 255 255 202 168
95 97 134 173 188 189 195 190 197 205 183 178 205 204 204 208 206 207 208 210 214 215 224 196 174 174 231 255 252 239 250 250 249 251 253 253 252 251 252 252 250 251 254 254 254 254 254 254 233 122 91 106 221 242 245 252 254 254 255 254 254 254 255 254 254 255 254 255 253 249 244 255 255 253 253 255 255 255 204 168
120 114 131 148 175 180 188 194 202 212 200 161 192 202 200 205 204 205 205 207 209 211 222 225 231 233 248 246 250 245 250 250 251 245 230 230 228 228 236 243 234 237 253 254 254 254 254 254 255 153 89 108 227 249 250 255 252 249 255 255 255 254 253 253 254 255 255 255 254 251 251 255 255 252 253 255 255 255 205 166
125 119 113 117 125 126 131 136 142 145 148 137 154 194 195 199 201 201 200 202 204 206 216 241 251 247 238 236 240 243 244 246 246 249 249 248 246 247 247 248 247 248 253 255 255 255 255 255 255 172 86 104 227 246 254 255 252 249 254 255 254 252 251 251 248 249 254 255 255 255 255 255 255 254 254 255 255 255 203 163
118 168 204 193 185 174 164 156 143 125 113 131 187 209 205 201 202 215 216 221 222 219 227 243 244 241 245 245 243 237 228 218 212 214 208 214 241 249 248 249 244 245 255 255 255 255 255 255 255 187 160 169 223 248 255 255 255 253 255 255 255 255 254 255 251 248 255 255 255 254 255 255 255 252 250 255 255 255 235 217
118 199 255 255 255 255 255 254 250 243 233 226 237 255 255 255 252 255 254 254 255 255 255 254 255 254 255 252 251 250 245 235 229 228 217 160 186 191 188 207 177 156 207 213 209 206 199 193 196 169 205 206 210 229 231 232 231 230 226 229 228 230 232 232 227 225 229 231 228 224 221 217 228 250 249 255 255 255 255 255
119 203 253 245 247 247 249 250 252 255 255 255 224 250 255 254 249 253 253 253 253 254 253 254 255 255 254 252 252 254 255 255 255 255 255 193 138 120 121 126 125 121 130 137 140 140 140 143 147 151 152 178 177 173 175 175 174 173 173 171 169 170 175 178 182 180 178 179 177 177 174 134 157 249 245 255 255 255 255 255
120 209 254 249 249 249 249 247 247 248 249 251 217 250 255 249 247 252 253 254 253 254 253 254 255 255 254 251 253 253 255 255 255 255 255 204 171 195 194 192 198 205 202 208 214 216 208 215 217 206 160 192 214 211 200 199 219 218 221 216 202 208 217 201 204 217 216 215 223 224 210 147 160 244 246 255 255 250 247 248
121 215 255 252 252 252 252 251 250 254 254 251 204 251 247 246 246 251 253 254 253 254 253 254 255 255 254 251 253 254 255 255 255 255 255 199 182 213 212 212 217 219 222 220 217 218 203 204 210 175 138 211 239 227 207 202 217 220 218 222 209 210 211 194 204 214 219 213 216 210 210 146 159 245 248 255 255 252 246 252
121 221 254 251 252 252 251 251 251 251 251 246 195 245 238 246 246 251 253 253 253 254 253 254 255 255 254 251 252 254 255 255 255 255 255 196 212 255 255 255 255 255 255 255 255 255 237 174 177 163 118 180 177 172 172 179 177 178 176 182 176 165 161 162 162 162 161 158 157 154 150 115 148 250 248 255 255 236 229 237
122 226 255 251 252 252 252 251 251 251 252 241 184 237 238 246 246 250 252 253 253 255 253 254 255 255 253 251 252 254 254 255 255 255 255 194 214 255 254 255 255 255 255 255 255 255 233 186 188 177 110 103 90 94 95 95 96 97 93 89 86 80 77 74 74 74 70 67 61 57 49 33 118 252 248 255 255 229 232 217
124 231 254 251 252 252 252 251 252 251 252 236 176 235 239 246 245 249 251 254 253 255 253 255 255 255 252 250 251 254 254 255 255 255 255 190 209 245 241 244 246 253 255 255 255 255 233 173 173 213 217 195 196 197 196 193 194 197 195 193 189 186 183 179 177 174 158 152 148 142 139 127 173 243 244 255 255 250 241 239
127 235 254 252 251 252 251 252 251 251 253 230 174 235 239 246 245 249 250 254 253 254 252 255 255 255 251 250 251 254 254 255 255 255 255 189 200 235 235 233 237 253 255 255 255 255 232 181 178 225 255 255 255 255 255 255 255 255 255 255 255 255 255 255 255 255 255 255 255 255 255 243 236 243 249 255 255 249 249 255
132 239 253 251 252 252 251 252 251 251 254 222 173 236 240 246 245 248 250 253 253 254 252 255 255 255 250 250 251 255 254 255 255 255 255 187 218 251 248 246 244 253 255 255 255 255 230 187 182 225 252 250 249 249 249 250 250 250 249 249 250 254 254 255 255 255 255 255 255 255 255 239 235 246 250 255 255 233 221 219
136 243 254 251 252 252 252 252 251 252 254 216 176 235 240 245 244 247 250 254 254 254 252 255 255 255 250 250 251 255 254 255 255 255 255 188 222 251 255 255 253 255 255 255 255 255 229 188 183 219 243 245 243 242 245 245 246 246 240 243 240 250 255 255 255 255 255 255 255 255 254 240 238 243 249 255 255 241 226 207
140 246 254 252 251 251 252 251 251 252 254 209 179 235 240 245 244 247 250 253 254 253 252 255 255 255 249 250 252 255 254 255 255 255 254 187 219 232 249 255 255 255 255 255 255 255 228 188 183 219 252 255 248 243 255 255 255 255 248 251 245 248 253 253 254 255 255 255 254 254 254 228 228 245 249 255 255 255 254 249
145 248 252 251 252 251 251 251 251 250 253 200 179 234 240 245 244 247 251 253 254 253 252 255 255 254 249 250 251 255 254 255 255 255 254 183 226 242 252 255 255 255 254 255 255 255 226 184 181 220 250 254 244 245 250 246 242 242 244 250 247 250 251 251 251 252 252 252 252 250 247 228 225 241 246 255 255 254 255 255
151 251 253 251 252 252 252 251 251 251 254 192 183 235 240 244 244 247 252 253 254 252 252 255 255 254 248 249 252 254 254 255 255 254 253 181 233 239 252 250 253 254 245 249 253 254 225 184 179 216 237 238 239 241 243 243 244 248 252 253 253 251 250 252 249 251 253 253 252 250 249 249 248 248 250 252 251 247 243 242
158 252 252 253 253 253 253 253 252 251 254 187 189 234 240 244 243 247 252 253 255 251 252 255 255 254 248 249 252 254 255 255 255 254 252 178 228 239 234 234 234 235 232 239 236 244 224 188 182 205 234 238 242 242 244 247 248 250 253 253 252 249 250 252 250 252 255 255 255 254 253 255 254 253 255 255 255 254 247 237
164 255 252 252 253 252 253 253 253 253 255 180 194 234 241 243 243 247 253 253 255 250 253 255 255 253 248 248 251 253 254 255 255 254 251 177 234 246 241 242 238 239 238 237 237 246 224 187 180 207 235 239 241 242 244 247 248 250 253 254 253 251 251 251 251 250 252 253 251 253 253 255 250 252 255 255 255 255 253 244
170 255 252 251 251 252 251 251 251 250 254 175 198 234 241 243 243 248 253 253 255 250 253 255 255 253 248 248 251 253 255 255 255 255 250 182 243 255 255 255 255 255 255 255 253 253 222 182 178 206 234 237 239 240 242 246 248 251 253 253 252 251 252 252 252 254 252 252 249 252 253 252 250 253 255 254 254 255 252 249
177 255 252 252 252 252 252 251 251 250 254 170 202 234 241 242 243 248 254 253 255 249 253 255 255 252 248 247 251 253 255 255 255 254 248 185 231 250 240 247 243 243 246 245 250 255 221 187 180 204 230 234 238 239 241 245 249 251 253 254 253 251 251 252 252 255 253 250 252 251 250 253 248 253 255 254 254 255 252 249
184 255 252 251 252 251 251 252 250 250 254 164 206 234 241 242 243 249 254 253 255 248 253 255 255 252 249 247 251 252 255 255 255 255 248 185 238 250 248 248 248 246 248 246 250 255 219 187 180 202 230 235 239 240 242 245 249 251 253 254 254 250 248 253 253 254 254 253 254 251 250 253 252 254 255 255 255 255 255 251
192 255 252 251 251 252 251 252 251 249 253 160 210 234 241 242 244 249 254 253 255 247 253 255 255 252 249 244 250 253 255 255 255 253 246 184 231 241 243 247 242 244 247 244 250 255 218 187 179 201 229 234 238 240 242 244 248 251 253 252 251 247 248 253 254 254 254 254 253 249 251 252 251 251 251 250 251 253 254 253
199 255 252 251 252 252 251 251 252 250 252 157 213 234 241 241 244 250 254 254 254 248 253 255 255 252 249 245 251 253 255 255 255 252 243 184 243 247 247 252 247 247 247 247 251 255 216 188 177 195 221 224 230 233 233 235 238 242 243 243 248 246 247 250 252 252 251 250 249 247 250 249 249 248 245 245 222 223 229 227
206 255 252 252 252 251 252 251 251 250 250 154 216 234 241 241 244 250 254 254 253 247 254 255 255 251 249 243 250 253 255 255 255 253 242 183 254 255 255 255 255 255 255 255 255 255 215 187 177 182 210 220 227 230 231 233 235 238 243 250 255 253 254 255 255 255 255 250 245 249 255 255 255 254 255 255 237 229 238 234
213 254 251 252 251 251 252 251 250 251 248 152 219 234 241 240 244 251 254 254 252 248 254 255 255 251 249 242 250 253 255 255 255 254 240 187 254 255 255 255 255 255 255 255 255 255 214 186 176 189 214 222 229 232 233 234 236 239 242 249 255 253 253 255 255 255 255 248 241 247 251 251 250 250 255 255 241 231 239 235
220 254 252 251 251 251 251 251 251 251 246 150 221 234 241 240 244 252 253 254 252 248 254 255 255 250 249 244 250 253 255 255 255 252 238 191 255 255 255 255 255 255 255 255 255 255 212 182 172 191 215 222 229 232 231 232 236 238 241 247 253 252 254 255 255 255 255 252 250 253 255 255 255 255 255 254 244 235 237 234
226 254 252 251 252 251 252 251 251 251 242 149 224 234 241 240 245 252 253 255 251 249 255 255 255 250 249 242 250 253 255 255 255 253 236 192 255 255 255 255 255 255 255 255 255 255 210 177 171 174 198 216 225 231 228 227 235 240 243 157 118 125 130 133 134 134 136 136 138 145 146 144 143 140 148 155 129 123 124 122
233 254 252 251 252 251 251 251 251 251 239 149 226 234 241 240 245 253 253 255 251 250 255 255 255 249 248 241 251 254 255 255 255 254 236 159 153 146 157 248 255 255 255 255 255 255 207 182 170 153 200 222 229 234 239 239 240 244 249 130 132 146 131 128 137 111 76 80 79 106 142 145 116 120 155 156 165 167 166 162
239 254 252 252 253 253 252 252 252 252 235 149 227 233 240 239 245 253 253 255 250 250 255 255 255 249 247 241 250 254 255 255 254 253 233 155 142 120 126 246 255 255 255 255 255 255 206 185 169 176 206 220 228 233 238 240 240 244 249 125 158 176 165 172 172 114 88 87 99 142 140 145 138 123 148 147 136 140 140 138
243 254 252 252 252 253 253 253 253 254 232 149 227 234 239 238 246 253 253 255 250 251 254 255 255 249 247 243 250 254 255 255 254 253 230 173 183 143 153 248 255 255 255 255 255 255 204 178 167 178 213 225 225 233 238 233 228 234 235 115 79 89 108 121 124 125 128 142 160 166 173 175 174 170 177 181 168 177 182 174
247 253 252 252 251 252 251 251 251 253 226 149 228 233 239 238 246 254 253 255 249 252 254 255 255 249 247 243 251 254 255 255 253 252 227 177 197 169 183 250 255 255 255 255 255 255 202 179 164 189 253 253 251 252 253 214 155 148 138 115 120 146 168 183 186 187 191 174 165 230 252 253 250 249 251 251 255 255 255 255
251 252 252 252 252 252 251 251 251 252 221 150 228 233 238 237 247 254 253 255 248 252 254 255 255 248 246 243 251 254 255 255 253 253 224 173 189 159 176 253 255 255 255 255 255 255 201 181 157 150 240 228 225 236 251 233 161 154 169 190 194 196 192 196 204 199 195 165 162 217 240 246 246 242 250 252 253 253 252 252
253 252 251 252 252 251 251 251 250 253 217 152 228 233 238 237 247 254 253 255 248 253 253 255 254 248 244 242 251 255 255 255 253 253 222 173 178 141 152 236 237 230 231 255 255 255 198 164 131 166 240 231 229 244 242 247 179 166 190 206 210 211 200 200 218 216 197 176 159 203 237 248 235 240 248 249 252 251 251 252
254 253 251 252 252 252 252 251 250 254 211 153 228 233 236 236 248 253 253 254 248 253 253 255 254 248 242 242 251 255 255 255 254 254 222 165 155 131 144 207 211 210 213 232 253 255 183 145 120 154 242 242 243 244 242 242 200 161 168 164 165 169 175 181 185 188 189 184 134 178 239 248 251 248 252 252 252 251 247 249
254 253 252 252 252 252 252 251 251 254 206 155 227 232 236 236 249 253 253 254 248 254 252 255 254 247 242 243 251 254 255 255 252 253 221 136 104 89 113 209 212 212 211 216 252 255 174 140 125 116 113 152 175 188 172 175 176 153 166 170 173 178 184 190 193 191 190 193 166 175 209 217 223 227 229 227 244 245 241 244
254 252 252 252 252 252 252 251 251 254 200 158 226 231 235 236 250 252 253 254 249 253 252 255 254 247 242 243 251 254 255 255 251 253 219 124 93 90 114 210 212 211 212 218 252 255 174 128 125 111 90 139 187 211 218 226 234 231 241 251 252 252 252 253 252 253 253 253 254 253 252 251 250 249 250 247 251 252 253 253
254 252 252 252 252 252 251 250 250 254 195 162 225 230 233 236 250 252 253 253 250 252 251 255 255 247 243 244 252 255 255 255 254 255 213 184 199 202 203 211 211 211 211 213 246 255 173 121 126 107 80 145 194 211 221 231 241 244 251 255 255 255 255 255 255 255 255 255 255 255 255 255 255 255 255 255 255 255 255 255
255 255 255 255 255 254 253 252 251 254 192 167 223 230 233 236 251 252 254 252 252 250 250 255 255 247 243 244 252 255 255 255 255 255 198 182 206 211 212 212 211 213 218 237 254 255 182 137 134 113 99 155 193 210 218 228 239 242 251 255 255 255 255 255 255 255 255 255 255 255 255 255 255 255 255 255 255 255 255 254
231 232 234 238 244 246 250 255 255 255 191 166 210 214 212 231 252 251 254 252 253 252 252 255 255 249 244 246 253 255 255 255 255 255 192 195 208 212 214 214 216 227 235 245 251 255 191 156 153 106 109 157 192 211 218 226 236 242 249 255 255 255 255 255 255 255 255 255 255 255 255 255 255 255 254 254 254 254 254 254
150 145 143 154 171 156 152 159 165 184 162 128 125 127 121 212 254 250 255 253 253 253 254 255 255 250 246 247 254 255 255 248 182 183 158 229 241 225 224 223 226 236 243 250 255 255 191 161 156 106 125 128 150 177 189 202 225 241 250 255 255 255 255 255 255 255 255 255 255 255 255 255 255 255 255 255 255 255 255 255
131 121 113 117 147 189 191 185 163 140 128 194 231 227 227 234 253 247 254 253 254 252 252 255 255 253 249 249 254 255 255 235 143 131 150 235 254 251 246 246 250 255 255 255 255 255 189 158 147 111 147 173 168 179 197 198 196 187 184 232 234 232 230 228 225 222 217 214 212 210 207 203 203 213 208 199 193 193 190 185
201 216 208 199 221 243 249 255 255 252 240 246 252 247 242 250 253 249 251 245 246 249 252 253 254 253 252 252 254 255 255 247 239 236 238 250 252 254 255 255 255 255 255 255 255 255 188 153 137 114 137 220 225 205 191 195 210 209 173 179 183 183 186 188 187 190 189 191 194 198 202 203 205 214 213 211 211 213 215 215
255 252 252 254 255 253 252 250 251 251 252 250 252 254 252 253 255 254 254 252 251 252 253 254 253 253 253 255 255 255 255 255 255 255 255 255 255 255 255 255 255 255 255 255 255 255 185 146 126 96 129 222 244 243 233 212 185 168 179 221 239 232 227 226 223 220 216 212 210 206 203 201 200 200 199 197 200 196 196 198
249 249 250 253 253 251 251 251 252 251 251 252 252 250 253 253 252 252 253 253 252 254 254 251 253 255 255 255 255 255 255 255 255 253 252 255 255 255 255 255 255 255 255 254 254 254 184 140 122 136 134 213 241 242 243 244 244 232 206 180 177 168 171 178 184 190 197 203 209 215 221 227 232 237 241 245 248 251 253 254
249 251 253 253 252 251 251 252 251 251 253 252 251 254 253 252 252 252 251 252 254 255 254 253 254 255 255 255 255 255 255 255 255 255 255 255 255 255 255 255 255 255 255 252 252 250 228 202 183 184 150 204 240 241 242 241 242 243 244 243 243 255 255 255 255 255 255 255 255 255 255 255 255 255 255 255 255 255 255 255
251 251 250 251 252 253 252 251 252 253 252 252 254 253 252 253 252 251 253 255 255 255 255 255 255 255 255 255 255 255 255 255 255 255 255 255 255 255 254 253 253 252 251 251 253 251 240 221 205 198 162 199 237 238 240 240 240 241 241 240 243 252 255 255 255 255 255 255 255 255 255 255 255 255 255 255 255 255 255 255
250 249 250 251 252 252 252 252 252 252 253 254 252 252 253 252 251 253 255 255 255 255 249 248 255 255 255 255 255 249 233 236 245 253 254 254 253 253 253 253 253 254 254 253 252 252 248 243 233 218 187 176 206 227 237 238 239 239 240 240 241 250 255 255 255 255 255 255 255 255 255 255 255 255 255 255 255 255 255 255
249 248 249 250 252 252 251 252 252 253 253 252 251 251 252 251 253 255 255 255 250 233 227 220 218 138 155 232 250 227 218 226 236 251 254 254 255 255 255 255 255 255 254 254 254 254 253 253 254 252 248 232 213 196 194 209 228 238 238 238 239 248 255 255 255 255 255 255 255 255 255 255 255 255 255 255 255 255 255 254
252 252 252 252 253 253 252 252 252 252 252 251 251 251 252 253 254 255 255 251 244 244 199 142 158 165 186 218 247 247 254 255 255 254 254 255 255 255 254 254 255 253 253 253 251 251 250 250 252 250 250 255 255 245 222 197 187 201 225 236 238 248 255 255 255 255 255 255 255 253 252 250 246 243 240 236 231 226 226 225
