P2
80 80
255
39 38 38 38 38 39 41 42 42 43 44 45 45 45 46 46 46 46 46 48 47 46 47 47 49 46 36 34 37 84 92 95 100 107 105 101 108 106 109 109 108 111 111 110 107 101 102 96 108 122 122 119 118 117 122 62 12 16 16 14 75 120 116 116 118 52 13 16 15 13 85 118 115 115 116 40 15 20 19 19
38 37 39 40 40 39 39 41 42 41 44 45 46 46 46 47 46 47 47 47 47 47 48 47 49 42 24 22 27 88 101 96 90 89 91 94 98 98 100 97 99 102 109 109 109 102 99 92 101 115 116 123 123 121 91 79 65 65 79 76 95 98 96 101 109 87 54 53 71 74 99 110 110 108 104 82 41 15 17 15
38 38 40 38 38 39 40 40 41 42 44 46 46 46 47 46 48 48 47 48 49 48 48 49 50 42 24 22 28 91 102 98 91 100 92 98 103 104 105 98 106 107 107 110 112 112 103 109 113 112 98 65 68 56 32 80 80 79 89 98 99 81 82 95 103 97 71 76 102 110 107 105 106 104 102 97 81 63 64 63
39 39 39 38 39 40 41 41 42 42 45 46 45 45 48 47 47 48 47 48 49 49 49 50 51 43 24 22 28 93 103 83 80 81 75 72 80 80 87 70 76 85 108 112 111 103 105 113 113 114 80 13 16 8 19 63 66 61 66 74 76 71 71 66 69 69 66 63 68 84 84 84 85 84 87 95 108 121 119 119
40 39 39 39 40 41 41 43 44 44 45 47 46 48 49 49 48 50 48 48 49 50 50 49 51 44 25 23 29 92 104 82 79 71 66 73 63 71 68 70 64 82 109 110 105 103 112 113 112 113 78 17 20 10 20 62 66 61 63 64 70 71 71 71 72 73 74 73 72 71 71 72 71 66 72 87 106 117 116 115
40 39 39 40 40 40 42 42 42 44 46 47 47 47 47 48 48 50 49 50 51 51 50 49 50 42 24 23 29 92 104 105 102 103 99 101 97 105 103 109 104 94 90 95 93 111 112 111 110 116 81 17 19 9 18 61 69 62 63 65 67 66 67 68 72 70 69 68 69 70 71 68 69 71 72 87 103 118 116 115
39 39 39 41 40 41 43 43 43 43 44 46 46 47 48 46 49 50 49 49 49 50 49 48 50 41 24 22 29 92 104 89 82 85 82 88 92 103 109 99 80 84 88 96 100 97 110 110 113 117 82 17 19 8 19 57 64 63 53 66 70 74 64 66 67 77 70 70 73 67 73 74 68 61 69 92 107 118 116 115
40 39 39 40 40 41 41 43 43 45 44 45 46 48 47 47 50 49 48 48 48 49 48 47 49 42 24 22 29 94 104 85 66 55 54 63 63 88 106 75 92 82 78 103 95 85 104 114 113 117 81 14 15 6 20 57 63 61 59 59 64 71 70 67 66 71 75 71 74 67 68 74 69 73 72 92 108 121 119 119
41 39 38 40 41 41 42 44 44 45 46 46 46 47 47 46 48 50 49 48 48 47 46 47 49 41 24 22 30 94 104 99 93 90 88 87 99 103 94 86 104 88 85 96 83 104 102 113 113 115 94 59 57 30 25 51 55 64 74 72 70 71 72 74 74 72 74 74 75 72 72 72 71 73 76 94 96 85 85 85
41 40 40 40 41 42 42 42 43 45 45 46 46 48 49 48 49 49 49 49 49 47 47 47 48 42 24 22 30 96 104 104 105 104 101 99 97 109 96 86 100 88 77 68 89 107 102 111 112 110 114 126 119 67 38 58 71 67 73 73 73 73 73 73 71 72 71 72 73 73 73 73 75 75 75 98 75 16 18 17
42 41 39 40 40 42 42 43 44 46 45 47 47 47 47 49 48 50 49 49 49 48 46 46 48 42 24 22 31 97 103 107 90 66 65 67 75 109 100 85 74 71 48 64 72 104 99 107 112 113 114 123 113 64 42 72 97 71 70 70 71 72 72 71 68 69 70 69 71 72 74 74 74 74 73 95 78 19 20 20
42 41 39 40 39 41 43 44 44 44 46 46 46 46 47 48 48 47 49 49 48 48 49 49 51 42 25 22 32 97 104 107 92 73 83 74 86 109 94 89 70 59 60 72 70 89 100 111 114 113 115 123 110 62 43 83 108 66 52 54 55 56 55 57 58 57 59 58 57 57 56 55 57 56 60 95 79 20 21 20
41 40 40 41 40 40 41 42 45 45 44 46 45 47 47 47 46 48 48 48 48 49 50 50 51 42 25 22 32 96 106 102 104 109 100 101 110 107 95 89 82 62 99 75 68 91 103 113 113 113 114 124 104 59 43 89 107 64 47 48 48 48 48 52 57 57 56 57 54 49 48 48 48 47 56 94 81 21 21 20
39 39 39 39 39 40 40 43 43 45 44 45 45 45 45 45 46 46 48 47 48 49 51 50 50 42 25 22 32 97 109 77 67 78 59 72 80 76 86 100 69 68 108 95 61 101 103 111 110 110 114 125 103 59 46 101 100 86 89 91 89 88 82 82 80 78 77 77 81 83 83 82 78 68 71 90 74 21 20 18
38 39 38 42 40 40 40 42 43 44 42 43 42 43 43 44 45 46 47 47 49 49 49 49 50 41 24 22 32 96 106 79 68 61 67 58 63 74 87 101 78 86 107 96 73 91 111 112 113 114 107 98 77 44 42 101 97 100 112 111 112 107 83 89 91 101 94 94 101 103 107 99 82 90 95 92 84 44 40 39
39 39 40 42 40 43 44 45 43 45 43 42 43 43 44 45 44 44 47 48 48 49 49 49 50 41 24 22 32 90 95 95 100 102 103 95 100 106 108 109 91 92 99 92 94 110 112 113 113 116 81 18 13 5 27 102 101 103 111 109 109 100 77 82 80 94 101 98 95 90 100 80 59 86 93 99 102 115 115 114
39 40 41 42 41 42 41 43 44 44 43 42 43 44 44 46 46 44 46 47 48 48 47 47 50 40 23 22 33 96 103 84 83 98 96 95 98 97 95 88 76 86 83 90 109 109 110 110 110 115 80 17 12 4 24 103 111 113 112 108 108 96 75 78 84 92 98 99 96 91 97 84 55 67 83 97 103 117 117 116
40 40 42 41 41 42 42 43 44 43 43 43 44 45 46 46 46 44 47 47 47 47 47 49 49 39 23 23 32 91 99 70 55 54 69 71 67 66 65 65 60 69 65 76 101 101 108 111 111 116 80 17 12 4 25 103 108 109 107 102 104 97 79 83 86 95 99 101 98 97 98 100 80 79 88 96 101 115 116 116
40 41 42 41 41 43 43 43 44 44 44 43 45 46 45 45 47 46 47 49 49 46 48 49 49 38 23 22 33 96 101 85 86 89 90 86 85 68 95 95 89 94 93 97 110 108 101 110 113 116 78 17 11 4 26 84 87 89 85 104 106 99 95 91 91 100 102 98 84 92 102 97 81 83 95 98 99 114 116 115
41 41 41 41 42 43 44 44 44 45 45 44 43 44 45 46 46 45 47 48 48 47 48 49 50 39 23 22 34 100 107 101 103 111 102 105 111 108 112 111 103 111 102 110 111 112 105 107 112 115 77 15 9 3 26 87 83 85 80 99 99 101 97 97 97 102 100 91 88 93 102 95 89 91 92 97 101 115 117 116
41 42 41 42 43 42 42 43 44 44 44 44 43 46 46 47 46 46 48 47 47 48 49 51 52 40 24 22 35 97 104 103 99 103 100 108 109 108 108 107 101 106 101 109 109 110 105 105 111 113 82 28 15 9 29 101 91 84 74 99 98 96 101 103 100 89 87 85 83 86 101 99 93 93 94 96 98 107 108 108
41 41 42 42 42 42 43 43 44 45 45 45 44 45 46 48 46 46 47 47 47 48 49 50 51 40 25 23 36 101 108 103 92 96 99 102 102 111 111 110 102 109 100 110 113 113 104 108 113 112 110 108 64 51 44 103 101 88 90 101 98 93 98 94 85 80 83 83 91 94 103 103 99 93 99 95 89 37 30 31
41 40 41 41 40 43 43 44 44 44 45 45 45 46 46 46 47 46 47 48 48 49 50 51 51 40 25 24 36 99 106 95 85 88 95 104 105 107 108 107 102 106 98 101 105 103 101 108 109 109 110 114 66 55 47 105 110 101 84 84 87 99 96 85 79 74 85 97 102 102 98 102 93 90 98 97 87 30 19 19
42 42 42 40 43 44 43 45 46 44 44 44 46 46 46 45 46 46 46 48 47 48 50 50 51 41 25 24 37 100 102 94 97 98 106 109 109 109 109 109 110 108 100 99 101 104 111 112 111 112 110 109 63 55 47 105 107 100 78 75 70 92 86 82 80 79 91 100 103 96 87 98 92 84 96 96 75 29 20 21
42 41 43 42 42 44 44 45 44 44 45 46 45 46 45 46 47 46 45 48 47 50 50 50 52 40 24 23 36 93 95 98 102 106 111 110 110 110 110 110 110 108 102 101 108 111 111 110 110 109 105 106 62 55 48 105 109 108 91 78 79 92 85 73 86 93 101 104 101 87 83 98 88 73 89 98 74 29 20 21
44 42 42 39 35 29 25 28 50 45 46 45 46 44 43 46 47 46 46 47 47 47 49 51 52 40 25 22 38 99 99 101 100 105 107 107 107 107 107 107 107 106 101 104 102 109 109 109 109 106 104 103 61 55 48 98 102 108 95 80 90 98 90 90 100 103 100 95 82 81 93 99 81 68 82 99 78 28 20 20
31 23 16 10 8 6 15 19 61 42 41 40 43 26 28 49 49 49 49 48 49 49 51 53 52 40 25 23 40 104 99 106 100 107 110 111 111 111 111 110 111 109 102 111 101 110 112 112 110 108 103 96 58 54 44 82 90 106 110 109 104 93 97 102 106 105 92 75 76 99 106 96 83 66 82 99 85 30 20 20
5 5 5 7 7 7 16 27 63 37 38 37 41 25 22 44 45 45 46 47 49 50 50 53 54 43 25 23 40 101 100 97 85 92 97 99 98 97 99 107 109 107 101 109 102 104 109 108 106 113 88 31 16 14 29 74 79 87 106 108 107 104 103 105 103 103 99 84 95 103 102 93 83 72 96 94 94 91 91 91
6 6 7 7 7 7 17 45 59 35 36 36 40 26 20 40 42 42 41 43 44 45 46 49 51 41 25 23 40 97 103 101 92 98 98 98 99 99 107 109 109 107 102 110 108 101 111 107 109 113 84 13 4 3 25 71 80 79 101 106 106 105 104 105 103 103 100 101 101 99 98 84 77 81 101 98 94 110 116 116
10 7 7 6 7 7 18 50 51 32 35 35 41 33 21 37 40 40 40 40 41 43 44 46 48 38 24 22 41 98 111 91 94 109 108 108 113 115 114 114 115 112 107 116 115 105 108 113 112 113 84 13 5 4 26 62 74 70 100 108 106 103 100 99 97 96 94 91 93 93 92 90 77 87 102 97 92 108 114 113
15 19 21 15 7 8 18 32 49 31 34 35 43 42 27 34 37 38 39 39 39 40 41 43 45 38 23 22 40 104 113 93 89 99 97 98 106 106 105 104 104 104 104 105 106 106 111 115 112 108 85 34 9 4 27 74 79 87 106 100 104 102 101 99 98 99 98 100 103 103 103 96 79 92 102 96 91 107 114 113
31 30 28 20 6 11 17 18 39 26 30 35 43 45 31 24 37 36 37 38 38 38 39 40 42 34 49 69 74 92 82 83 84 85 85 89 79 60 61 59 57 63 75 60 66 92 98 102 107 105 105 102 24 2 28 87 86 104 103 87 94 104 104 100 97 95 97 103 106 106 106 100 92 104 104 97 90 107 114 114
31 27 25 17 7 11 11 7 7 9 10 12 15 18 16 12 21 23 29 33 34 35 35 36 38 30 64 84 79 70 70 76 79 79 81 80 87 87 87 92 100 110 117 122 122 133 135 130 135 145 140 122 25 0 28 83 93 114 104 92 97 107 106 100 97 94 92 87 98 110 111 109 107 109 106 100 93 108 115 113
10 9 16 12 7 8 36 79 67 58 49 40 32 25 17 12 7 23 59 59 51 53 51 51 55 53 72 79 78 91 91 92 89 87 82 70 72 77 78 78 92 123 126 111 102 112 115 111 108 106 105 97 39 30 35 73 106 117 111 101 93 103 100 104 100 102 101 86 90 110 111 105 97 102 108 98 83 84 119 125
8 10 13 12 6 6 56 128 123 124 123 120 118 112 103 93 79 60 116 128 119 93 90 84 83 89 91 89 90 120 131 124 98 97 93 97 92 93 86 70 17 32 50 33 23 51 59 60 58 55 52 49 34 48 40 68 85 88 85 80 70 74 73 75 81 87 83 67 69 83 83 77 66 68 75 73 77 74 116 121
18 26 13 6 7 7 61 113 91 96 96 99 102 106 115 112 106 64 109 121 89 80 88 84 83 87 88 87 93 125 133 122 97 99 96 110 118 126 126 125 35 11 10 11 10 10 11 12 12 12 11 12 17 20 24 21 19 20 21 22 21 21 21 21 21 23 25 27 25 23 24 25 26 22 13 20 73 68 108 115
11 11 9 7 7 8 66 116 101 101 100 102 96 94 96 94 100 66 104 93 75 78 87 84 85 88 90 88 96 128 132 119 95 99 95 110 117 122 122 128 41 43 57 58 67 68 71 67 56 36 37 41 30 18 30 44 44 38 32 52 57 60 58 44 48 62 39 40 60 61 60 70 69 53 18 24 75 69 118 126
7 8 9 9 11 8 71 126 112 110 110 109 106 104 109 108 102 60 80 73 75 76 85 84 86 88 91 89 99 129 131 116 94 98 94 111 118 121 125 126 38 64 80 77 77 78 75 69 67 62 70 48 28 22 37 45 47 40 33 50 60 58 62 49 50 54 33 40 53 60 53 57 51 50 18 24 82 73 121 124
10 10 10 10 10 7 77 117 105 107 105 104 103 102 101 96 98 51 61 70 75 75 83 83 85 89 92 88 102 130 130 113 92 97 94 110 118 121 126 123 37 85 114 116 116 117 118 118 120 124 109 34 31 32 25 23 21 22 25 24 25 25 29 25 20 18 20 20 19 19 18 18 17 17 10 20 88 75 117 126
8 8 8 7 8 8 82 116 104 106 106 107 103 102 99 96 96 42 57 71 75 75 81 81 86 90 93 88 104 130 128 110 92 95 94 110 118 120 128 121 36 86 113 115 117 116 116 117 118 121 105 39 43 29 8 4 4 4 4 4 4 3 3 2 2 1 1 1 1 0 0 0 0 0 0 14 78 75 119 123
7 7 7 7 8 9 87 115 104 107 106 105 103 105 98 97 94 37 58 72 74 74 80 79 87 90 93 87 107 130 127 107 91 94 95 109 119 120 129 118 35 75 91 96 99 110 117 117 118 121 105 33 29 42 54 54 56 55 53 55 57 57 55 56 55 55 53 53 53 49 49 47 45 43 28 31 68 68 117 124
9 10 10 10 11 10 91 113 106 105 106 103 105 103 99 96 92 33 60 72 74 73 79 78 88 90 93 86 109 130 126 104 91 93 97 109 119 121 130 115 32 63 84 82 83 112 117 117 118 121 103 36 33 58 113 115 118 118 121 122 123 123 121 123 126 127 125 126 126 124 122 119 121 119 80 54 74 75 120 124
10 10 11 11 11 12 96 111 105 105 106 103 106 102 100 97 88 30 61 72 74 73 78 78 88 91 94 86 112 130 125 101 91 93 98 109 119 121 131 110 33 83 102 100 94 111 116 117 117 121 102 38 37 57 105 100 105 105 109 106 106 106 103 109 117 117 120 124 121 121 122 128 130 124 80 55 76 76 120 125
9 9 9 9 9 13 100 115 106 106 105 105 105 100 103 101 85 29 62 72 73 73 77 78 88 91 93 85 115 130 123 98 92 92 99 109 120 122 131 107 34 87 111 115 111 114 115 116 117 120 100 38 38 51 87 83 82 87 89 89 88 81 78 80 103 108 114 117 116 122 123 126 126 112 75 58 71 73 122 125
7 7 7 7 8 15 103 115 105 104 103 104 103 101 102 104 82 29 62 72 72 73 76 78 88 91 93 85 117 129 120 95 92 91 101 109 120 123 132 105 33 69 101 115 115 114 115 117 116 120 99 37 37 54 96 88 80 95 97 98 99 87 80 80 95 100 106 107 111 115 115 112 107 98 62 49 70 73 120 130
8 7 7 8 9 18 105 106 103 108 104 101 102 101 98 95 76 28 62 71 72 73 75 80 88 91 92 85 120 129 118 93 92 89 100 108 120 124 131 102 32 77 105 114 115 115 114 116 117 121 99 35 35 53 93 83 80 91 90 84 77 68 68 73 86 91 96 101 103 99 98 100 99 88 58 49 65 69 116 122
10 10 10 11 10 20 109 110 103 108 106 105 101 100 99 97 72 28 62 71 71 73 75 81 88 92 91 85 122 129 116 91 91 88 100 108 119 125 129 99 34 74 102 103 110 113 101 105 112 116 96 35 35 47 68 61 65 68 68 68 67 69 74 81 91 100 92 90 105 97 103 116 108 98 85 86 91 92 93 97
11 10 10 11 10 24 112 107 110 113 112 110 108 105 101 99 68 29 63 71 70 73 75 83 89 93 89 86 124 128 114 89 90 86 99 107 119 127 127 96 36 76 79 81 78 85 79 89 86 92 94 37 38 37 54 61 66 67 68 71 73 75 77 82 92 102 89 97 117 102 116 138 128 114 98 98 119 102 103 116
8 7 8 8 9 27 116 110 104 112 109 108 110 108 107 107 64 31 64 71 69 73 76 84 89 94 88 87 126 127 112 89 89 85 97 107 118 128 124 94 35 84 89 91 87 90 90 87 88 94 95 37 37 38 56 62 66 66 67 71 73 74 78 82 94 103 94 104 113 112 100 114 112 103 109 100 107 95 109 115
7 7 6 6 8 31 115 108 104 103 106 102 103 102 97 99 60 33 64 71 69 73 76 85 89 94 87 89 127 125 110 88 88 84 96 107 119 129 123 91 36 97 108 110 112 114 115 115 114 108 93 34 35 38 56 61 64 65 66 69 73 75 79 82 93 100 95 108 115 116 106 96 103 100 115 108 97 99 110 111
8 8 7 7 7 35 115 105 105 104 105 103 103 99 98 99 56 35 64 71 68 73 76 86 89 95 85 90 128 124 108 88 87 83 95 108 119 130 119 89 35 91 87 95 95 93 98 98 104 120 94 35 38 36 52 57 61 63 65 68 72 76 79 82 100 106 96 98 113 113 110 100 103 107 104 102 94 92 108 112
9 9 10 10 8 40 116 106 102 108 104 102 105 100 94 98 51 37 65 71 68 73 77 88 89 95 83 92 128 123 107 89 86 83 95 108 120 130 120 88 36 91 98 98 101 98 101 100 103 119 92 35 37 36 52 58 62 64 66 68 72 76 79 81 106 113 90 87 101 117 123 109 102 103 88 105 100 94 107 114
9 9 10 10 8 44 117 106 102 103 104 100 104 101 91 96 47 38 65 70 68 73 77 88 90 95 81 94 129 122 106 89 83 82 95 109 121 130 114 86 36 83 88 96 90 93 99 96 101 119 91 35 36 35 51 56 61 64 66 67 70 75 79 81 97 97 80 86 104 113 122 113 98 98 82 99 92 97 92 94
7 7 7 7 7 50 116 104 104 104 106 101 98 105 95 99 43 40 65 70 68 74 78 89 90 94 81 97 129 120 104 89 83 83 95 110 121 130 109 84 41 91 96 103 99 99 101 100 104 118 89 36 36 33 45 48 52 57 57 57 60 63 67 67 86 113 106 110 116 121 120 115 108 107 104 110 108 111 103 98
6 6 5 6 7 54 115 103 108 105 102 103 101 99 95 100 39 42 65 69 68 73 79 89 91 94 79 100 128 119 102 89 80 83 95 111 121 130 110 81 43 101 107 108 109 111 113 113 113 117 88 35 36 29 37 44 49 54 55 56 57 59 63 65 96 140 122 125 137 136 137 137 109 99 117 131 129 127 128 131
6 6 6 6 7 60 114 101 107 104 101 103 103 97 96 99 36 44 65 69 68 73 81 90 91 93 79 104 127 117 101 89 79 84 96 112 122 130 111 79 46 100 106 107 108 110 111 112 112 116 86 34 35 30 39 46 52 56 56 57 59 60 64 65 95 139 117 117 136 136 137 136 99 88 110 113 107 101 114 131
7 7 6 6 7 65 115 105 102 104 102 101 100 98 95 99 33 46 65 68 67 73 82 90 91 92 78 108 127 116 99 89 78 84 96 113 122 129 104 76 49 101 106 107 107 109 110 111 112 115 84 33 33 31 40 46 51 55 56 55 58 60 62 64 87 130 116 119 126 126 127 125 106 102 116 128 125 124 125 122
7 7 16 19 10 70 113 105 104 105 103 102 100 100 94 97 30 48 66 68 68 73 83 90 92 92 78 112 126 116 97 89 76 86 97 114 122 128 104 74 50 99 104 106 107 108 109 109 110 115 82 30 32 27 32 41 48 53 56 54 57 60 65 67 30 19 21 22 22 23 25 26 26 28 30 30 28 27 24 39
6 5 49 58 16 75 113 105 102 104 103 99 103 101 95 96 28 49 65 67 67 74 85 90 92 91 79 115 125 114 95 88 75 86 98 115 122 127 108 74 19 26 31 94 108 107 109 109 110 114 80 32 33 23 31 45 51 56 61 64 63 65 69 74 19 27 29 19 19 22 11 2 3 3 15 23 22 10 29 48
16 17 37 42 14 81 114 104 104 112 108 105 105 103 97 95 26 50 65 66 67 74 86 90 92 89 81 117 124 113 94 88 74 86 99 115 123 124 103 71 13 10 11 91 108 107 108 109 109 113 79 33 32 26 34 43 50 55 60 63 64 64 68 74 18 43 49 38 42 40 10 5 4 11 21 19 22 17 24 44
47 44 55 49 14 86 116 103 104 107 107 106 106 105 104 96 23 51 65 65 67 74 86 90 94 88 83 119 122 113 93 88 74 87 101 115 124 122 100 69 21 19 19 93 108 107 107 108 108 113 77 30 30 26 40 51 53 56 61 62 57 58 62 65 16 3 8 14 17 18 20 20 26 35 37 42 44 39 36 46
46 46 48 43 15 91 111 104 106 104 104 100 99 98 96 91 23 52 64 65 67 74 87 89 94 86 86 118 121 114 93 88 73 88 103 115 125 117 100 66 26 29 31 95 108 107 107 108 108 112 76 31 31 23 70 90 88 89 90 85 39 20 20 15 11 15 26 32 37 37 37 40 30 24 60 80 81 77 76 80
48 52 52 46 16 95 110 105 104 106 106 101 100 99 94 88 21 53 64 64 66 75 88 89 94 85 89 116 120 116 92 88 73 88 104 115 125 116 100 63 25 26 28 96 109 108 107 108 108 112 74 31 30 11 62 73 64 65 78 90 53 18 19 31 39 41 42 39 43 50 46 43 27 24 52 65 71 75 69 77
51 47 49 39 17 99 110 104 103 107 102 100 100 97 94 86 21 53 63 63 66 75 89 89 94 83 93 112 119 116 91 86 72 89 105 115 125 115 103 61 22 19 19 75 82 74 70 103 108 111 73 25 19 9 64 74 68 75 78 79 70 25 28 41 48 52 52 44 46 60 59 45 34 23 44 62 72 70 67 79
29 30 46 32 19 104 115 103 106 108 104 102 99 97 96 83 20 53 63 62 66 77 89 89 94 82 98 107 118 116 91 86 72 89 107 115 126 112 105 59 16 14 16 47 52 52 53 70 100 112 65 16 14 7 56 81 79 80 82 80 73 35 25 27 24 24 27 30 33 36 38 39 37 12 27 61 73 80 80 84
31 45 49 24 21 107 111 105 103 107 105 103 101 97 98 79 20 53 62 61 66 77 89 89 93 81 102 100 117 117 91 84 73 89 108 115 127 105 101 57 8 5 9 49 54 54 54 53 96 111 59 14 14 8 10 16 23 28 31 26 29 25 18 24 33 35 38 39 42 45 44 42 45 38 40 53 60 65 63 64
33 47 52 22 24 109 109 108 105 107 104 102 99 98 97 76 20 53 61 60 66 78 88 89 93 81 106 94 115 119 92 84 74 90 109 115 127 102 102 54 10 9 13 49 54 54 54 55 96 111 59 11 13 8 7 13 24 35 41 45 53 60 58 58 87 91 91 91 92 94 95 95 96 96 99 100 101 102 99 99
35 40 47 23 28 112 109 107 106 107 104 100 97 96 98 73 20 52 60 59 65 79 88 89 93 82 109 88 112 122 95 83 76 92 110 115 127 106 106 50 35 49 50 53 53 53 53 52 85 111 58 9 12 7 7 15 27 36 42 47 56 66 68 78 117 120 118 117 118 119 121 119 118 117 119 121 121 122 122 118
35 38 42 25 32 119 119 118 112 113 111 103 102 98 99 70 21 51 58 58 65 80 88 89 92 84 110 83 106 122 98 84 77 93 110 115 127 106 108 44 37 51 53 53 53 55 58 76 103 110 62 14 15 10 7 17 27 36 41 45 54 63 66 79 125 124 122 120 120 120 121 119 118 118 120 121 120 119 118 115
38 36 33 25 27 88 92 93 96 102 104 105 108 109 111 68 19 45 49 49 65 81 87 90 91 87 111 86 101 124 103 85 79 95 111 117 126 107 111 41 38 53 55 56 57 66 74 85 98 110 66 21 22 10 8 17 26 36 42 45 51 60 66 74 120 122 119 118 117 119 120 119 118 118 118 119 118 117 116 113
37 34 35 34 16 16 16 15 17 22 23 22 27 35 49 38 13 18 17 21 61 83 86 90 91 91 112 87 96 125 110 88 82 99 111 120 119 45 46 27 70 69 65 64 65 76 87 98 106 110 65 22 24 11 12 12 14 22 28 30 38 50 62 68 116 125 122 122 122 123 124 122 121 121 121 122 122 120 118 119
35 30 42 58 20 11 10 10 9 24 39 45 45 37 25 15 35 60 56 55 62 85 83 88 91 95 110 87 93 123 119 94 85 101 110 120 98 14 9 23 75 84 81 85 97 109 109 108 107 110 64 22 21 11 18 18 23 22 25 34 40 38 35 26 67 98 94 92 89 90 87 83 79 79 76 73 72 68 72 71
30 27 52 45 25 51 61 55 51 66 72 79 88 94 92 84 85 91 79 69 85 102 90 88 84 81 93 96 96 107 107 96 93 100 108 115 104 91 90 90 92 96 106 114 117 116 110 108 108 111 63 20 17 11 20 17 51 55 44 34 32 35 40 28 28 40 42 42 43 43 42 43 44 45 46 48 50 48 53 55
23 38 51 58 83 91 85 82 87 91 94 92 88 88 89 89 85 89 92 87 91 104 106 103 103 100 102 107 104 106 101 101 107 113 122 123 122 119 114 110 113 117 119 117 114 113 112 110 111 113 61 18 15 8 16 15 52 67 67 65 57 45 31 22 29 56 70 65 61 57 56 53 50 47 45 43 43 43 43 44
46 63 81 91 87 84 84 85 92 98 94 91 90 92 93 89 91 94 89 90 96 94 92 94 96 94 96 102 104 95 97 111 116 124 124 121 121 119 113 109 115 116 116 115 114 112 112 109 103 105 57 16 13 14 16 12 47 64 66 67 67 68 67 60 47 31 31 42 47 53 59 64 69 75 81 87 93 99 104 108
77 88 89 84 85 84 86 93 94 95 94 91 94 92 90 94 97 90 93 100 96 94 95 94 91 95 102 110 112 105 101 105 123 125 122 121 120 119 117 117 116 115 115 115 115 113 113 107 83 80 64 45 32 27 27 18 42 61 64 67 66 66 67 67 67 66 69 115 127 126 126 126 126 125 125 124 123 123 122 121
78 79 79 80 84 87 87 88 87 90 95 94 91 92 95 95 91 96 100 96 95 97 94 93 97 104 112 119 114 111 116 112 127 125 122 123 122 120 117 115 115 115 115 112 106 100 95 86 83 82 72 57 44 33 30 21 38 57 60 64 64 65 65 66 65 65 65 103 125 123 122 121 122 122 121 120 121 120 119 119
70 72 75 78 82 87 82 81 84 90 93 90 91 93 92 91 96 97 92 93 97 93 91 97 105 113 121 118 93 97 122 117 125 126 122 99 90 97 106 109 108 104 98 93 88 88 87 86 86 85 79 73 70 61 49 33 26 36 49 58 61 61 63 63 64 64 63 94 123 121 121 121 121 121 121 121 121 121 120 120
78 76 78 80 82 81 78 79 81 86 87 87 87 89 91 92 90 89 89 91 90 90 96 104 113 121 109 74 62 63 70 25 47 108 93 61 69 78 90 96 98 98 98 98 98 98 97 96 97 96 94 92 91 91 89 84 74 57 40 32 37 46 57 61 62 62 62 88 123 121 121 121 121 121 121 121 121 120 119 119
83 83 84 85 86 85 85 84 86 88 87 86 88 87 86 86 86 85 85 86 90 95 101 112 120 108 84 85 56 27 32 41 48 76 89 95 98 100 99 95 98 98 97 96 97 96 96 92 93 89 85 84 83 85 86 83 86 94 88 67 50 39 33 39 51 60 60 86 117 116 115 114 114 113 109 104 100 94 87 81
