P2
80 80
255
117 116 114 113 113 111 112 113 114 117 118 119 120 122 124 124 123 126 125 126 126 125 128 127 126 126 126 128 127 109 104 100 135 189 189 194 200 206 198 202 203 204 206 204 206 207 206 206 197 196 195 193 211 215 215 213 212 218 166 59 63 64 61 124 215 211 210 214 147 58 62 62 56 141 214 208 208 214 124 57
115 114 113 113 111 112 116 116 114 114 117 119 118 122 124 125 125 125 126 125 127 126 127 126 126 129 127 128 124 87 78 74 123 197 196 188 186 185 186 193 193 196 194 192 197 201 205 206 200 196 190 186 203 210 216 219 219 195 159 147 138 157 158 177 198 186 193 200 184 139 121 142 151 179 205 204 203 200 170 135
113 113 113 113 112 115 114 112 113 116 115 116 119 121 124 126 126 127 126 127 128 127 128 129 128 128 131 131 124 85 78 75 127 200 199 188 190 194 187 198 198 202 198 196 203 203 204 207 209 206 200 209 206 209 165 141 133 92 138 182 164 180 188 197 182 169 183 195 198 171 156 186 205 203 200 200 200 196 195 184
111 114 112 114 114 114 112 113 115 118 117 119 118 122 126 124 124 127 127 127 128 127 129 129 129 129 131 133 125 86 79 74 125 202 194 165 171 167 157 161 167 173 168 157 163 187 207 208 206 197 205 209 209 209 113 62 48 40 123 158 142 150 155 166 161 158 153 152 154 155 146 149 166 175 174 175 175 174 187 189
113 115 115 118 114 115 113 116 118 118 120 122 122 123 127 125 128 130 130 128 131 130 129 129 132 132 130 132 127 89 81 75 124 201 196 161 166 150 151 155 144 153 152 148 147 188 207 206 198 203 208 208 207 208 115 69 51 40 121 155 148 143 150 152 159 159 159 160 162 161 162 160 160 159 159 161 154 152 172 187
114 113 116 117 115 114 116 116 116 118 119 118 121 125 127 127 127 128 129 128 131 132 131 133 132 132 129 131 125 87 80 75 123 201 202 198 199 198 194 198 189 202 199 204 195 178 188 184 195 209 208 206 206 212 117 68 48 37 115 159 150 138 157 145 155 151 154 156 160 154 156 154 156 159 155 154 158 157 171 185
112 114 116 116 114 113 117 116 117 120 121 120 121 122 125 126 126 129 126 130 131 131 130 131 131 131 128 131 123 87 78 75 122 201 196 177 170 179 174 184 186 203 206 179 168 165 189 193 191 196 206 206 209 212 119 68 45 35 113 150 148 137 138 157 162 155 148 151 162 162 157 158 158 155 164 159 145 148 170 193
114 113 115 116 115 115 115 117 117 118 120 121 123 123 123 124 129 128 126 131 131 129 128 129 130 130 127 129 123 87 78 74 122 202 200 155 149 128 138 144 150 196 187 161 188 154 184 201 174 181 206 209 208 212 116 63 38 40 112 149 146 139 142 145 152 161 152 153 153 164 163 158 160 151 160 158 160 157 173 193
112 112 117 118 116 113 114 116 117 119 121 123 123 125 125 126 127 127 126 129 131 131 128 129 128 126 125 129 123 87 79 74 122 202 201 189 186 179 177 184 194 202 169 191 200 167 191 177 181 200 200 209 209 210 156 128 92 70 105 140 138 159 164 159 158 160 163 163 162 161 164 163 162 160 159 160 158 163 173 193
112 113 116 118 117 115 116 116 120 119 118 121 124 125 125 126 127 130 129 130 130 131 130 130 128 126 127 128 124 87 79 74 122 205 200 202 201 202 196 194 197 205 175 185 196 169 165 149 194 201 198 209 206 205 216 221 172 118 112 158 151 160 162 162 162 162 163 160 159 160 160 160 162 161 161 162 164 162 174 194
113 116 117 118 119 115 116 115 119 118 121 121 126 125 126 128 127 127 129 128 130 132 131 130 128 126 126 128 124 86 80 74 124 204 201 202 168 146 150 150 179 203 193 160 164 132 131 140 171 201 193 206 207 208 214 215 163 120 125 185 176 155 158 159 160 161 160 157 155 158 156 157 160 161 162 162 162 161 169 193
113 118 115 118 119 115 115 114 116 119 122 124 122 125 126 125 124 126 128 128 127 130 130 129 128 129 131 133 126 88 80 75 126 203 202 204 171 162 171 160 190 202 188 171 147 126 150 147 157 191 196 209 209 208 214 213 160 120 131 198 185 131 135 135 139 135 137 140 139 141 141 140 139 138 136 136 139 134 164 192
116 116 116 118 118 116 117 116 116 118 119 123 124 123 126 125 126 128 126 126 128 128 130 127 129 131 130 133 125 88 81 73 125 203 203 196 206 204 194 203 207 200 189 170 160 152 197 142 156 191 201 210 209 208 214 211 156 120 133 202 183 128 126 126 126 126 127 136 139 139 138 140 130 125 125 125 126 124 160 192
116 117 114 114 116 113 115 114 114 116 119 121 123 123 123 124 124 124 124 125 125 128 127 127 130 132 132 132 124 88 80 73 126 205 202 143 163 155 141 164 168 164 186 188 132 175 209 160 157 197 203 206 205 205 216 212 156 121 143 205 186 175 180 180 179 174 172 170 170 164 167 166 172 172 171 171 158 154 164 184
110 116 114 113 115 113 117 117 116 115 119 120 123 120 119 120 120 120 121 122 124 127 126 129 130 130 130 131 124 88 80 76 124 204 197 156 148 144 148 137 153 164 189 189 160 189 205 175 159 194 208 208 208 210 194 172 122 102 143 202 191 201 209 205 208 189 176 182 190 195 184 192 196 199 200 182 172 188 186 184
112 116 115 114 115 116 119 117 119 122 124 122 123 121 119 119 119 120 123 123 121 126 128 129 130 130 130 132 124 87 80 75 123 196 191 194 195 200 197 191 200 203 207 200 182 191 194 182 194 208 208 208 208 213 125 59 28 36 138 204 195 201 206 203 203 180 168 174 174 194 194 192 186 186 193 147 157 183 189 193
114 113 113 114 116 116 119 117 119 117 119 122 122 121 118 120 121 123 125 126 121 125 127 128 127 128 127 130 123 83 79 75 126 203 198 164 184 196 194 196 198 191 189 172 170 178 173 191 206 205 205 206 206 213 126 54 27 26 132 210 207 207 206 202 202 176 164 172 181 189 194 192 188 185 193 153 140 162 180 193
115 115 116 116 116 118 119 117 118 120 120 122 121 120 119 123 123 124 125 126 122 125 127 127 127 126 129 129 122 83 80 74 123 196 193 139 139 148 176 173 163 151 155 147 144 155 147 176 199 199 205 207 208 218 127 52 26 25 131 208 203 203 200 196 199 181 169 177 183 192 195 195 191 190 194 187 163 175 183 192
115 117 119 116 118 119 118 116 120 121 120 122 122 122 120 123 125 125 123 126 126 126 129 130 126 127 129 130 120 84 80 75 126 202 194 175 179 186 185 183 170 163 193 185 182 185 185 196 206 201 199 209 214 222 128 49 26 25 124 180 181 177 185 201 199 191 188 182 189 196 197 186 174 189 197 182 169 179 191 192
116 118 119 117 118 118 117 119 120 122 123 122 123 123 122 121 121 124 124 125 124 127 128 129 127 128 128 131 122 85 79 75 128 207 203 197 206 208 199 206 206 207 210 205 202 206 200 208 207 207 202 213 217 221 125 44 25 24 124 183 174 174 177 195 195 193 192 190 194 196 193 179 182 189 196 181 185 182 188 192
117 118 119 118 120 118 119 121 120 119 121 123 123 123 123 120 125 125 126 126 124 126 128 125 129 129 132 135 123 87 81 77 127 203 201 198 199 199 201 207 206 205 205 202 199 201 199 205 205 208 207 213 216 217 136 59 40 34 130 199 182 168 172 197 190 191 197 197 191 179 178 177 171 184 196 188 186 185 188 190
119 119 119 118 117 118 120 119 120 120 121 122 124 123 124 121 123 123 127 126 126 125 128 126 128 129 130 132 123 88 82 76 130 207 205 194 192 193 200 198 203 209 207 203 200 203 198 208 211 214 207 214 212 208 207 165 134 110 134 206 190 178 190 196 190 188 194 183 174 172 173 178 184 190 197 197 189 189 191 187
120 119 116 118 117 117 119 116 119 122 123 124 122 124 123 123 125 126 125 126 125 126 129 129 129 131 132 133 123 89 84 77 130 204 203 186 188 192 199 202 204 205 204 202 200 201 194 200 202 202 205 207 204 204 212 170 142 120 136 209 204 188 176 175 185 195 187 174 167 163 182 194 196 194 192 194 183 186 192 188
118 120 120 120 119 120 117 120 123 121 123 126 123 122 122 124 125 126 123 124 126 125 129 127 128 131 132 132 125 88 84 79 131 204 197 193 197 203 206 207 206 206 206 206 207 203 196 197 199 202 208 207 207 207 210 165 141 120 135 208 201 186 166 160 166 187 175 175 167 173 188 196 196 185 180 194 180 176 193 184
119 121 121 119 119 119 121 118 122 122 127 126 123 123 125 124 125 124 125 127 126 123 127 127 130 131 131 134 124 87 82 78 129 196 191 199 200 208 208 207 207 207 207 206 207 203 199 197 206 207 206 206 206 204 207 161 141 120 135 208 203 201 173 169 171 188 169 167 179 190 196 198 192 175 178 193 173 159 189 188
119 121 121 121 121 121 123 121 117 107 97 82 85 107 132 122 125 124 120 122 127 125 126 127 127 129 132 134 123 87 81 77 131 203 195 201 199 206 204 204 204 204 204 204 204 201 199 199 200 205 204 205 205 202 207 158 141 121 133 199 198 203 179 172 186 192 179 188 194 198 193 184 170 172 191 189 166 151 182 191
121 120 121 120 107 93 77 59 45 37 33 36 67 103 135 113 116 117 100 79 127 133 131 131 130 133 134 135 126 92 84 78 135 206 196 204 200 207 208 207 207 208 207 207 207 202 200 205 197 207 207 207 204 204 204 153 139 121 121 181 187 202 205 204 194 188 191 198 199 199 178 161 170 196 200 184 170 150 181 192
117 121 91 47 34 29 27 27 31 34 32 39 71 122 128 108 111 112 98 66 115 125 125 127 128 130 131 133 136 134 99 77 136 202 199 191 186 191 194 195 194 193 198 205 205 201 199 205 196 201 204 203 202 211 131 53 49 45 107 169 169 184 202 202 201 198 198 199 197 198 190 173 192 197 193 185 167 165 191 187
117 122 72 27 30 31 32 33 34 34 32 39 84 140 126 105 109 110 101 63 107 119 118 118 119 122 123 126 130 134 99 77 136 199 203 193 191 195 194 195 194 196 204 205 206 202 200 206 202 198 207 202 205 211 106 22 22 20 101 165 170 172 199 200 200 199 198 199 197 197 194 195 194 193 189 173 162 177 195 191
118 122 70 40 57 44 34 36 30 33 32 38 92 137 112 102 106 110 110 74 100 115 114 114 116 117 119 120 124 128 96 77 137 203 208 176 198 206 205 206 211 211 211 211 211 206 205 212 210 200 205 209 207 212 105 20 23 22 101 151 162 162 199 202 200 197 194 193 191 189 186 184 187 185 185 181 164 185 196 189
118 121 66 60 60 53 64 72 63 34 33 40 78 113 113 100 103 114 122 95 95 111 110 112 113 113 114 116 119 123 95 75 135 209 209 176 189 193 191 195 205 202 201 200 199 198 200 199 198 199 207 210 207 207 127 70 53 20 103 165 170 183 200 194 198 196 195 193 192 193 193 195 197 197 195 187 166 190 195 189
119 120 63 72 94 97 96 91 77 36 34 41 69 85 85 82 92 106 117 103 76 104 108 110 113 113 111 112 115 116 108 149 171 192 180 163 181 179 179 186 185 153 145 145 140 146 162 158 145 176 193 195 199 199 195 204 135 19 104 183 180 201 196 178 191 199 199 194 190 189 192 199 200 200 199 192 185 199 196 191
118 121 62 73 102 97 87 83 70 35 33 42 72 58 41 40 43 47 52 54 50 58 62 65 71 80 102 106 107 108 111 184 173 170 164 171 174 173 175 171 178 181 184 186 193 197 202 206 197 196 205 206 205 203 207 212 145 15 100 177 191 208 197 183 193 201 199 193 189 187 183 179 193 204 205 202 201 202 199 194
119 119 63 44 54 43 39 61 56 34 33 42 71 54 122 152 132 119 105 93 81 68 52 42 34 56 123 125 134 128 132 178 167 179 184 181 185 190 197 209 210 203 199 183 170 162 155 162 180 187 198 202 203 202 203 205 151 78 102 169 206 213 206 194 189 199 195 199 195 198 194 176 186 206 206 197 190 198 203 191
115 117 60 28 28 36 41 49 56 33 31 42 69 51 173 228 223 223 221 217 213 205 192 179 146 110 220 206 188 187 183 175 180 184 189 186 190 220 225 215 195 195 189 185 180 171 154 69 67 105 132 135 131 125 119 116 112 113 107 153 168 169 166 161 148 156 153 157 164 170 162 144 150 164 164 156 142 147 154 138
100 105 54 61 73 60 87 58 29 33 31 43 70 52 176 200 191 193 193 197 200 208 213 213 185 128 209 177 179 186 181 176 181 184 187 184 195 223 226 212 194 198 199 213 222 222 225 101 48 43 48 50 50 48 48 49 57 57 65 78 71 71 73 76 76 76 78 75 77 79 85 92 93 89 89 91 90 85 81 41
86 89 47 55 55 42 43 39 31 33 33 45 70 54 183 208 199 199 199 198 191 191 192 194 177 144 181 169 174 184 182 178 183 185 189 184 198 224 225 209 194 197 199 211 218 216 226 109 93 104 95 102 100 89 74 93 90 68 64 103 116 112 97 110 131 136 140 129 108 140 134 112 128 146 145 152 159 147 111 47
80 80 44 31 32 34 35 38 40 43 41 45 67 56 191 219 209 207 208 206 203 202 208 207 177 138 167 169 171 181 181 179 184 186 190 185 201 225 224 206 194 196 200 211 219 218 225 105 115 142 138 138 137 138 136 168 149 81 78 106 114 112 97 108 132 135 136 137 111 131 114 102 122 134 135 134 135 131 109 45
79 79 43 38 44 46 44 44 45 43 35 46 71 59 195 210 204 206 203 202 201 201 198 196 174 129 165 168 170 179 180 177 184 188 191 186 204 226 223 204 193 194 200 211 219 219 224 102 170 218 214 215 215 216 217 217 215 114 90 94 78 73 77 80 80 82 88 85 77 68 67 70 70 69 67 66 65 62 58 33
79 79 44 40 40 36 34 34 33 33 31 46 99 64 200 210 203 205 205 204 201 200 195 196 169 126 165 168 168 176 178 176 185 189 191 186 206 225 222 201 193 193 201 210 218 220 222 100 168 213 213 211 211 212 213 214 211 113 112 90 35 25 28 27 27 25 23 21 19 18 17 16 16 15 13 11 10 6 3 5
78 79 42 39 38 30 30 32 32 34 32 46 102 67 204 208 204 206 205 203 202 202 195 197 164 118 167 167 167 174 175 175 186 190 191 186 208 225 221 198 193 192 201 210 218 221 220 96 148 189 190 202 212 212 213 214 210 110 86 99 128 129 123 124 128 127 124 123 122 121 117 116 116 107 102 100 96 93 85 64
78 76 40 35 39 40 42 42 44 47 39 45 89 70 208 207 205 204 204 203 203 199 196 197 159 117 167 166 165 173 174 174 187 190 190 185 210 225 219 195 193 191 203 210 218 222 218 93 138 172 169 202 212 212 213 214 209 112 97 108 209 216 216 218 219 219 218 216 220 222 221 221 222 222 219 216 217 216 204 138
77 77 39 41 45 44 44 45 46 45 37 43 77 76 211 206 203 205 204 202 204 199 196 198 149 110 169 166 165 171 172 174 187 191 190 185 213 225 217 193 194 191 203 211 218 223 215 94 165 197 186 203 212 212 212 214 209 111 106 107 191 198 200 200 198 198 197 196 206 211 211 215 214 214 213 216 221 218 203 137
78 77 39 42 42 39 38 38 38 36 32 43 69 82 216 208 204 205 203 204 201 199 201 201 143 112 169 165 165 170 170 175 186 192 189 185 215 224 214 191 194 190 204 211 218 224 212 95 180 214 207 209 211 211 211 213 207 112 108 104 168 173 181 180 181 178 167 168 176 202 203 210 209 211 215 215 219 212 192 140
78 75 39 43 36 33 31 31 32 33 31 43 64 88 217 208 204 202 202 203 200 200 200 204 135 115 169 164 165 169 169 177 185 192 189 185 216 222 213 189 194 190 204 212 218 225 210 90 169 213 210 210 211 211 212 213 206 110 106 107 170 178 192 192 194 192 174 173 175 192 198 202 202 206 208 206 203 196 178 123
77 74 38 39 39 37 33 34 35 38 35 44 65 95 216 202 204 205 202 201 199 200 193 197 127 115 168 163 165 169 169 179 186 192 187 186 218 222 211 188 193 190 203 212 218 225 206 90 179 213 211 211 210 211 212 214 207 108 102 107 166 178 186 186 186 182 161 154 149 156 165 180 192 195 195 197 195 189 173 138
77 73 36 39 42 43 44 44 45 48 44 45 59 102 218 205 203 207 203 204 197 200 194 197 118 117 168 161 165 169 169 181 187 193 187 186 220 223 209 187 191 189 202 212 218 225 203 91 180 199 204 207 195 195 205 209 203 108 102 102 150 147 150 153 154 155 155 154 155 160 168 175 191 187 178 193 192 190 205 201
79 71 37 43 45 46 45 46 46 47 42 45 53 111 218 204 211 211 210 208 206 201 197 199 110 120 167 160 165 169 170 183 187 193 186 187 221 222 207 186 189 188 201 212 219 225 200 91 160 169 164 173 164 176 175 177 195 109 107 96 131 143 149 153 154 156 159 161 163 166 171 177 194 185 179 207 196 201 224 220
77 71 37 43 40 38 36 37 37 37 35 46 52 119 222 204 205 210 206 207 207 205 204 204 100 124 166 159 165 169 171 184 188 193 184 188 222 221 205 186 187 187 200 212 219 224 196 90 168 185 177 180 180 174 180 178 198 108 104 97 133 144 150 152 152 154 158 161 162 166 172 177 196 188 187 206 201 195 199 206
77 69 38 45 41 36 34 31 32 33 33 45 49 127 218 205 202 203 203 200 201 198 193 197 95 129 166 159 166 169 172 185 189 193 183 189 223 219 203 186 185 186 199 212 220 223 192 95 194 208 208 210 211 211 211 202 199 104 99 96 133 143 147 150 150 152 157 161 163 167 172 177 193 187 191 209 203 203 187 196
75 68 37 39 37 37 38 35 36 37 34 43 46 136 216 204 203 205 202 202 200 197 194 195 88 133 165 158 166 169 173 185 189 193 182 191 223 218 202 186 183 185 198 213 221 221 188 100 170 184 187 182 189 189 192 212 203 104 105 95 128 138 143 147 148 151 155 160 164 168 172 179 202 189 186 201 202 204 194 192
75 68 37 43 41 41 41 43 45 46 39 42 45 144 216 204 202 207 201 202 202 196 191 193 81 137 164 158 166 168 175 186 190 192 180 192 224 218 201 187 182 185 198 213 221 222 188 99 187 192 196 192 195 194 194 210 202 104 104 94 127 139 144 148 151 152 155 159 164 169 172 180 210 188 174 190 203 214 203 193
74 64 36 44 42 41 41 42 43 42 37 42 46 152 216 203 201 203 201 200 202 196 188 190 76 141 163 158 166 168 176 186 191 192 178 194 224 216 199 187 179 186 199 214 222 219 185 94 172 190 181 183 189 189 188 212 201 102 104 94 126 137 142 147 151 152 154 157 162 168 171 177 194 175 169 192 202 211 205 192
73 63 34 40 35 32 32 31 31 33 31 44 48 161 213 203 202 204 203 197 199 201 191 188 72 145 162 158 166 168 178 187 191 191 178 197 224 215 197 187 178 186 200 214 222 215 181 98 186 197 194 193 194 193 195 210 199 102 104 90 116 124 128 134 138 138 139 142 146 150 153 155 193 197 195 203 210 209 204 198
73 60 32 35 35 29 28 28 28 30 30 45 49 168 211 204 206 202 201 201 199 196 195 184 70 148 161 158 166 168 179 187 192 191 178 200 223 214 196 187 176 187 200 215 222 215 179 101 202 204 205 207 209 209 209 210 198 99 102 88 101 115 124 131 135 136 138 139 141 146 151 160 217 221 210 224 225 225 226 204
72 61 31 28 30 32 33 33 32 31 31 44 51 175 208 203 205 201 201 202 199 194 195 180 68 152 160 158 166 168 181 188 192 190 177 203 222 213 194 187 175 187 201 215 222 215 177 105 202 203 204 205 206 207 208 209 196 99 101 89 106 118 127 135 139 139 140 142 144 147 151 159 217 220 203 223 226 226 226 199
72 62 31 30 34 35 35 33 31 31 28 42 53 182 210 205 202 202 202 199 199 195 196 175 67 154 159 157 166 169 183 188 192 189 177 207 221 212 192 187 173 188 202 216 223 209 173 110 204 203 203 204 205 206 207 209 194 97 95 89 107 118 126 134 138 138 135 139 142 145 148 153 201 210 203 211 213 213 213 197
72 61 31 32 35 33 32 45 64 63 58 44 56 188 208 205 203 203 202 200 199 196 194 169 67 156 158 157 166 169 184 188 192 188 177 210 220 211 191 186 172 189 204 216 223 208 170 110 202 202 202 204 204 205 205 208 193 94 92 83 90 108 121 130 136 138 132 138 142 148 156 116 45 46 52 52 55 57 58 59
70 58 32 34 33 30 23 93 154 149 143 52 59 194 208 203 201 204 199 199 201 197 195 164 68 157 157 157 166 169 185 189 192 187 178 212 219 210 190 185 172 189 205 215 222 211 172 67 68 166 206 203 204 204 205 208 191 93 96 80 89 115 127 135 140 146 149 148 149 154 165 116 39 87 61 58 65 48 21 23
74 63 45 50 55 58 56 83 113 122 126 81 64 199 209 203 206 210 206 204 203 200 198 157 69 158 156 157 165 171 186 189 192 186 180 215 218 209 188 184 171 190 206 215 222 206 169 56 37 158 207 203 203 204 204 207 189 94 97 83 99 112 124 133 139 144 148 148 149 153 165 115 47 119 87 93 93 47 23 25
115 117 119 131 142 144 128 120 139 139 140 108 68 205 210 203 204 206 206 203 205 202 207 151 72 159 155 157 165 172 186 190 193 185 183 215 217 208 187 184 172 190 207 215 222 202 166 61 57 165 206 202 203 203 204 206 188 91 92 83 101 124 134 132 142 146 147 135 134 140 149 98 18 26 39 50 53 56 58 64
129 133 129 134 132 130 127 125 128 130 134 92 75 207 207 204 204 202 203 197 199 195 198 143 75 159 154 157 164 174 187 190 192 183 185 214 217 209 187 183 172 191 208 216 221 201 163 69 85 171 205 202 203 203 203 206 187 89 93 78 72 170 184 181 183 185 179 107 63 60 54 44 49 69 86 97 101 99 102 104
124 125 130 128 131 135 131 136 135 137 139 89 82 210 206 204 203 205 204 198 199 194 197 136 78 159 152 157 164 175 187 190 192 182 189 212 216 210 187 181 172 192 208 215 220 200 159 65 75 173 207 204 202 203 203 206 186 91 93 58 35 155 151 140 143 166 183 132 64 64 81 104 108 111 108 104 122 117 113 104
135 136 141 139 138 137 134 129 120 131 119 81 88 213 207 202 204 204 201 198 198 192 199 128 82 158 151 157 164 176 187 190 192 181 193 208 216 210 185 179 173 193 209 216 219 202 157 61 55 144 171 162 149 188 204 206 184 83 69 43 46 157 157 150 165 167 169 159 80 81 104 115 122 123 118 105 131 135 126 106
138 139 138 138 126 90 92 89 107 126 107 75 95 218 208 203 206 205 204 199 198 193 200 120 86 157 149 156 164 178 188 190 190 180 197 203 216 210 185 178 173 194 209 216 218 203 155 58 50 111 132 130 131 145 182 207 177 62 56 37 34 144 165 162 165 169 164 157 99 73 81 76 74 79 85 90 96 100 101 103
144 147 136 134 114 101 95 106 131 122 97 89 102 217 208 203 203 205 205 200 200 194 202 112 89 156 148 155 163 179 188 190 191 180 200 196 215 211 184 177 174 195 210 216 213 198 153 44 28 110 135 132 133 129 171 208 170 55 55 36 26 49 68 74 86 90 79 83 76 65 65 71 88 97 102 105 110 114 108 112
145 143 138 128 105 98 93 113 133 124 112 88 109 216 208 206 204 205 204 199 198 194 201 105 93 155 147 155 163 180 187 190 190 180 203 190 214 212 185 176 175 196 210 217 211 197 149 49 38 113 132 132 132 131 171 208 170 51 46 38 25 45 69 94 108 116 122 131 142 144 138 135 172 185 184 184 186 187 188 188
146 140 138 125 104 100 99 107 119 118 127 84 118 218 209 206 204 206 202 197 195 195 201 99 98 152 146 154 163 181 187 190 190 182 205 184 211 215 186 175 177 198 210 218 212 204 141 101 128 130 131 131 131 130 155 207 170 47 41 39 28 50 78 98 109 116 124 135 146 153 155 160 206 212 210 210 210 211 212 211
146 129 115 124 103 102 112 104 115 109 134 77 127 227 220 217 212 214 208 202 201 195 202 93 103 151 145 152 163 182 187 190 189 184 205 181 207 216 188 176 177 199 209 218 212 207 130 101 133 132 132 133 138 155 193 205 173 60 51 43 25 57 82 97 108 115 120 131 142 150 152 159 211 215 213 212 211 211 211 210
143 88 97 118 86 94 111 110 106 97 142 71 108 175 175 177 183 191 196 200 205 208 212 89 94 125 129 154 164 183 187 191 189 187 207 183 202 219 192 178 179 201 209 219 212 212 125 105 138 136 137 146 159 171 188 203 177 74 69 54 33 55 76 96 109 116 120 128 137 149 153 154 205 213 211 210 209 211 211 210
138 85 116 93 74 98 111 108 100 103 149 81 63 64 65 62 62 75 73 70 78 90 112 67 58 57 72 141 165 184 187 191 188 191 207 186 197 221 198 182 182 204 210 225 144 98 76 127 153 149 149 162 175 189 200 205 177 77 73 61 48 45 48 62 75 86 89 102 115 134 147 150 199 219 216 216 215 217 217 216
143 131 127 77 75 108 108 105 91 116 151 85 49 45 49 47 75 115 126 124 114 92 68 57 130 147 142 140 167 185 184 188 188 196 205 186 193 221 206 188 185 205 210 215 102 49 63 152 173 173 182 195 206 204 203 206 177 77 68 59 66 69 65 66 81 78 84 100 105 100 94 68 113 172 168 165 161 160 155 149
132 126 90 63 79 109 103 94 86 135 128 66 107 145 144 133 154 168 174 185 195 194 187 174 186 182 168 166 192 198 188 186 178 175 188 195 194 204 201 192 190 199 205 206 187 181 182 191 189 199 208 211 211 206 203 207 176 76 62 54 70 74 68 83 145 129 114 95 89 91 94 75 71 96 106 107 111 111 111 112
113 92 69 80 100 103 89 77 106 131 117 159 193 189 180 182 187 191 194 191 186 185 187 187 181 185 190 186 190 201 203 199 198 198 199 204 201 203 199 197 203 207 215 217 218 214 208 204 210 213 212 210 208 207 205 209 175 72 58 45 57 68 71 81 152 152 154 152 140 122 99 74 68 88 125 148 138 131 127 123
96 95 101 103 100 91 100 121 142 159 184 193 185 182 182 184 192 197 193 189 188 190 192 185 185 193 188 185 192 195 190 191 193 194 191 195 202 201 190 200 210 216 218 216 215 213 206 205 211 210 210 209 207 207 204 200 168 72 51 50 60 54 52 71 145 148 152 153 152 154 155 151 137 112 86 89 104 114 124 133
140 139 134 129 127 130 139 151 177 191 189 183 184 183 184 192 194 194 192 189 191 192 187 190 195 190 187 195 197 191 192 192 190 188 194 202 208 208 203 196 212 220 217 216 214 213 212 211 210 210 210 210 208 208 199 174 162 132 110 94 89 86 72 65 139 145 149 153 151 151 151 152 152 153 154 156 206 222 221 220
134 136 138 141 147 149 157 171 175 176 177 179 182 189 188 187 186 188 192 192 190 188 191 194 188 189 196 197 191 193 194 191 190 195 202 209 216 209 211 209 217 220 217 218 218 215 211 210 210 210 208 201 194 188 179 176 170 155 140 121 103 95 86 67 130 140 145 149 148 149 150 150 150 150 149 150 190 216 214 213
151 164 169 170 170 170 168 167 165 168 172 175 177 186 182 178 181 188 191 186 187 189 191 187 188 194 193 188 191 195 190 187 194 202 209 217 211 180 205 217 211 222 219 185 168 183 199 203 200 194 189 184 183 182 181 180 175 166 163 160 153 137 119 85 88 104 124 139 144 145 147 147 148 148 148 148 180 215 212 212
183 182 180 178 177 178 178 177 176 177 176 178 178 180 177 176 179 183 185 184 185 183 186 187 186 186 186 187 188 188 187 192 201 208 217 203 163 149 145 102 77 171 194 147 155 168 186 192 193 194 194 194 194 192 192 192 191 189 187 185 185 186 183 176 157 136 111 93 96 108 128 141 145 145 145 145 172 215 213 212
182 182 182 183 184 185 185 185 185 183 183 184 185 186 185 184 185 188 188 186 185 186 186 180 179 185 184 183 183 187 192 198 207 216 208 187 175 113 91 106 122 149 184 190 196 194 194 192 191 193 192 192 192 192 191 191 186 183 177 175 175 176 180 176 178 186 186 163 136 112 99 92 108 129 144 145 172 209 207 206
