P2
80 80
255
203 204 206 208 209 210 211 214 215 214 215 216 215 216 217 216 219 217 216 217 218 221 211 197 192 228 255 254 255 255 255 255 255 255 255 255 255 255 255 255 254 248 248 246 247 255 251 244 255 255 255 255 184 153 156 158 161 237 255 255 255 255 179 153 154 156 162 244 255 255 255 251 174 162 166 163 173 250 255 255
206 206 204 206 209 209 210 214 215 215 216 217 216 217 217 217 217 218 218 219 218 221 202 172 166 221 255 253 248 249 247 248 250 249 251 249 250 251 253 255 255 250 249 248 249 255 250 245 255 255 255 238 232 219 224 230 231 249 250 252 252 255 230 212 218 223 225 251 255 255 254 253 225 172 164 163 172 253 255 255
202 203 205 206 206 209 210 213 216 216 216 217 215 219 218 218 219 220 218 220 221 223 201 169 169 222 255 254 242 249 252 252 254 253 254 250 252 254 254 255 255 255 255 255 255 255 253 217 208 209 188 207 251 243 247 250 255 252 245 249 253 254 250 239 250 255 255 255 254 254 254 254 251 219 211 211 212 221 219 219
202 204 207 208 209 209 210 215 216 214 216 219 217 218 218 218 220 220 220 220 222 223 201 171 168 224 255 245 227 232 226 221 226 227 235 223 223 227 250 255 255 255 255 255 255 255 255 188 156 156 117 194 242 232 236 239 246 244 243 240 237 238 242 236 236 242 249 248 248 249 249 250 251 255 255 255 253 174 157 155
205 207 208 209 212 212 212 215 216 216 219 220 219 219 221 219 219 221 223 221 221 223 204 174 171 224 255 244 225 226 218 225 218 217 219 222 215 223 251 254 255 255 255 255 255 255 255 189 160 158 115 195 241 236 233 238 239 247 246 247 247 248 248 248 248 248 247 247 248 245 242 247 251 255 255 255 250 177 160 158
206 206 208 209 209 210 213 216 217 217 218 218 219 219 222 220 222 222 223 221 220 222 200 172 170 224 255 255 252 253 254 255 251 248 253 254 254 250 235 247 247 254 255 255 255 255 255 190 161 155 111 193 243 238 229 242 234 244 240 243 243 246 243 244 243 244 247 245 243 246 246 246 251 255 255 255 251 177 161 160
207 207 209 212 211 211 212 214 216 217 218 218 218 221 221 220 221 221 221 220 219 222 199 171 168 226 255 245 235 232 238 240 241 244 255 254 232 230 227 252 251 244 252 255 255 255 255 190 162 153 107 195 238 236 229 228 244 247 244 238 240 246 248 244 245 245 243 250 247 237 239 246 253 255 255 255 251 180 162 161
206 207 208 209 211 211 215 213 214 217 219 217 218 221 220 218 219 220 220 219 218 221 200 170 169 226 255 248 216 212 202 213 213 225 255 232 234 240 221 252 248 230 248 255 255 255 255 189 160 146 108 199 238 236 230 232 234 239 247 241 242 241 248 248 245 247 240 247 245 246 246 248 253 255 255 255 253 181 162 160
207 207 208 210 213 212 215 215 216 216 218 216 218 220 221 219 219 219 217 217 217 221 199 171 168 228 255 254 246 243 241 241 247 250 252 229 252 250 230 250 230 248 250 253 255 255 253 215 204 192 159 199 232 230 244 248 245 245 246 248 248 248 247 249 248 248 247 246 247 246 249 249 253 235 231 231 230 206 197 196
206 209 210 209 210 212 215 214 217 216 219 220 219 220 221 221 220 220 216 218 218 220 200 170 170 229 255 254 255 253 253 254 245 253 252 230 250 250 226 224 226 252 250 252 255 255 250 246 255 255 231 210 240 237 246 248 248 247 248 248 246 246 246 247 247 248 248 248 249 250 249 249 253 183 167 166 173 249 255 255
205 208 208 211 211 214 216 215 217 217 217 218 219 219 221 221 221 220 218 217 217 221 198 172 170 230 255 255 250 220 213 219 217 250 252 244 224 226 190 211 211 244 250 251 255 255 251 246 255 252 228 218 251 246 243 245 246 247 247 246 244 244 245 245 245 247 248 249 249 249 248 248 253 185 168 167 173 247 255 255
205 205 208 211 214 213 214 215 216 215 215 218 219 218 218 221 220 219 219 221 221 223 199 174 171 231 255 255 251 225 232 231 229 253 250 250 226 214 197 225 213 229 250 251 255 255 252 248 255 250 227 221 254 246 226 228 228 230 229 230 231 231 232 232 231 231 231 230 230 232 230 246 254 185 171 167 174 247 255 255
207 206 207 209 211 214 213 215 217 215 218 216 217 217 219 220 219 219 220 221 222 223 198 173 171 231 255 254 251 255 254 254 255 255 253 246 232 215 237 243 204 228 249 253 255 255 253 250 255 249 226 224 254 245 225 224 224 224 224 225 229 230 231 230 231 226 224 224 224 224 224 245 254 186 172 169 174 246 255 255
205 205 206 208 211 212 214 213 215 214 214 215 215 215 218 218 218 220 221 222 222 222 199 173 170 231 255 242 207 228 212 218 228 230 232 250 234 202 250 254 207 239 251 255 255 255 254 253 255 251 227 229 255 248 245 246 246 246 245 245 244 245 243 245 245 246 246 246 246 241 240 245 251 186 176 168 173 247 255 255
208 206 206 209 210 212 212 209 211 210 211 212 213 214 216 218 219 220 220 221 221 222 198 172 173 233 255 242 223 214 216 215 212 226 231 250 239 227 251 252 229 232 254 255 255 255 254 239 237 219 202 230 254 252 254 255 255 255 250 249 251 254 254 251 255 255 255 255 249 248 253 252 252 205 198 190 191 237 243 243
208 207 211 213 213 212 213 210 210 210 211 213 215 213 215 219 219 220 221 220 221 223 196 172 171 233 255 254 255 250 253 253 253 254 255 255 250 246 249 248 246 251 255 255 255 255 255 190 165 119 116 228 254 253 254 255 255 255 246 246 248 249 255 255 255 253 253 253 232 244 252 254 254 255 255 255 253 192 174 174
209 208 208 208 212 213 212 210 210 212 213 214 217 214 214 217 218 219 218 218 219 222 194 167 172 235 255 244 225 246 248 247 247 247 244 241 229 240 240 239 254 255 255 255 255 255 255 187 159 111 106 228 255 255 255 255 255 254 245 244 249 252 254 255 254 253 253 253 234 236 246 252 254 255 255 255 254 190 171 168
208 208 210 210 211 212 212 210 213 214 215 215 217 215 214 218 217 218 217 219 220 221 191 170 173 235 255 237 202 204 215 225 219 219 214 218 213 217 219 221 250 255 255 255 255 255 255 190 157 106 107 230 255 254 254 254 254 254 248 247 250 253 255 255 255 254 253 255 249 244 250 253 254 255 255 255 254 191 171 170
206 208 211 211 212 213 213 211 213 214 216 214 216 217 217 219 221 220 216 219 220 219 192 171 172 236 255 248 237 236 240 240 239 219 235 245 243 241 243 247 254 255 255 255 255 255 255 191 155 102 110 228 248 248 247 252 255 254 252 252 250 254 255 255 250 249 254 255 249 248 252 255 254 254 255 255 254 195 171 170
208 210 211 213 212 213 214 213 212 212 213 214 216 215 216 219 219 219 218 219 221 221 193 170 172 237 255 255 255 255 255 255 255 253 255 255 255 255 255 255 255 255 255 255 255 255 255 193 150 99 111 231 247 247 245 250 254 255 253 253 252 255 255 253 250 251 254 254 250 253 251 254 254 255 255 255 255 204 178 174
210 210 210 210 213 213 213 214 212 213 216 216 217 216 216 219 217 218 220 221 224 222 195 173 174 238 255 255 255 255 255 255 255 255 255 255 255 255 255 255 255 255 255 255 255 255 255 206 162 116 126 236 252 249 242 251 254 253 254 255 255 252 250 250 249 247 254 255 251 252 253 253 254 252 251 251 251 205 187 187
209 210 210 211 212 213 213 214 213 214 214 217 218 216 217 218 217 218 220 220 221 222 194 175 175 239 255 254 248 250 250 251 249 254 255 255 255 255 255 255 255 255 255 255 255 255 253 251 248 229 211 237 255 250 248 255 255 253 254 254 250 248 249 248 251 252 254 255 255 252 254 254 255 204 185 182 186 239 249 249
207 208 211 212 214 212 214 214 214 215 217 216 216 217 216 219 220 220 221 222 223 222 195 176 178 240 255 251 241 245 245 251 253 255 255 255 255 255 255 255 255 255 255 255 255 255 253 253 253 238 220 239 255 255 249 249 248 254 255 251 247 245 247 253 255 255 254 254 253 251 254 254 255 197 178 166 172 243 255 255
208 212 212 212 215 215 212 213 214 215 216 215 214 216 215 218 219 217 221 222 221 223 194 176 180 241 255 254 251 252 252 254 255 255 255 255 255 255 255 255 255 255 255 255 255 255 253 253 251 236 219 240 255 254 246 244 239 250 252 247 249 246 251 254 255 254 249 252 253 249 251 255 250 193 177 167 172 240 255 255
210 211 212 213 213 212 213 216 216 215 215 214 216 217 215 217 219 219 221 221 222 223 192 174 177 241 255 254 255 255 255 255 255 255 255 255 255 255 255 255 255 255 255 255 255 255 252 253 250 235 219 241 255 255 252 244 245 250 251 242 249 250 255 255 254 251 247 253 252 243 247 255 249 189 176 167 173 241 255 255
165 173 186 210 214 214 214 213 209 215 217 214 216 217 216 215 218 218 219 222 223 223 193 174 177 242 255 254 254 255 255 255 255 255 255 255 255 255 255 255 255 255 255 255 255 255 252 252 249 235 219 241 253 255 253 243 248 253 252 249 253 255 255 253 247 246 249 255 249 241 244 255 251 188 173 168 172 240 255 255
120 153 174 206 205 208 201 196 160 196 222 219 220 220 221 220 220 219 222 223 224 222 192 175 179 244 255 254 254 254 255 255 255 255 255 255 255 255 255 255 255 255 255 255 255 255 251 251 248 234 219 236 249 253 255 255 255 252 253 254 255 255 253 245 241 252 255 254 248 240 243 255 253 191 174 170 172 240 255 255
126 160 184 200 201 203 195 194 149 182 216 215 216 217 218 220 221 223 226 227 226 222 193 175 180 244 255 252 245 247 249 251 251 250 251 254 255 255 255 255 255 255 255 255 255 255 253 222 146 123 150 234 244 246 253 255 255 255 255 255 255 255 255 248 249 255 255 252 249 242 251 254 253 241 237 236 236 207 191 195
126 180 200 196 198 202 194 194 150 174 211 211 210 210 212 214 215 218 221 223 223 224 193 175 180 244 255 253 249 250 251 250 251 250 253 255 255 255 255 255 255 255 255 255 255 255 253 212 108 86 126 233 244 244 251 255 255 255 255 255 255 255 255 255 255 255 254 248 245 243 254 255 253 255 255 255 255 191 163 168
126 189 198 189 195 199 192 199 166 169 207 207 207 208 208 210 212 213 217 218 221 225 191 174 180 246 255 246 244 254 253 254 255 255 255 255 255 255 255 255 255 255 255 255 255 255 253 214 109 90 129 231 240 239 250 255 255 255 254 254 253 253 253 251 251 252 252 251 245 246 255 255 253 254 255 255 255 196 169 170
130 169 184 189 192 191 193 205 190 170 203 203 203 206 206 207 207 209 212 214 218 226 191 173 180 246 255 247 242 250 249 249 251 253 252 251 251 253 251 250 253 254 254 254 254 254 253 216 107 90 131 238 242 246 254 253 255 255 254 255 254 255 254 254 255 255 254 252 246 247 255 255 253 254 255 255 255 197 169 169
131 148 170 181 187 194 200 211 206 165 180 202 199 203 205 204 205 206 208 210 216 229 233 231 235 248 246 250 246 250 251 249 236 229 230 227 232 241 240 232 246 254 255 254 254 254 255 224 113 90 135 245 246 252 254 250 250 255 255 254 253 252 253 255 255 255 255 254 250 253 255 255 252 254 255 255 255 199 167 167
114 121 123 127 132 137 140 146 159 149 152 198 195 198 200 201 200 200 203 205 211 227 253 245 244 236 238 242 244 245 245 247 249 247 245 245 246 246 247 245 249 255 255 255 255 255 255 238 143 83 134 244 247 255 254 250 251 255 255 253 252 251 250 248 251 255 255 255 255 255 255 255 253 254 255 255 255 197 165 166
197 189 178 167 159 148 132 115 120 175 204 209 203 199 205 215 218 221 217 219 226 234 249 238 245 244 239 232 222 216 211 210 207 223 247 247 247 247 246 241 250 255 255 255 255 255 255 243 175 162 178 237 251 255 255 254 253 255 255 255 254 255 255 250 250 255 255 255 254 255 255 254 250 253 255 255 255 231 218 217
255 255 255 255 255 252 246 237 229 232 247 255 255 255 252 255 253 255 255 255 254 255 255 255 253 251 251 249 240 232 227 227 192 165 195 191 189 192 207 147 184 212 211 207 202 196 192 192 173 210 198 221 230 232 231 231 229 227 228 228 231 232 231 226 226 231 230 226 223 220 217 247 248 254 255 255 255 255 255 255
244 247 247 247 249 251 255 255 255 230 230 255 255 252 249 254 252 253 252 254 253 255 255 255 253 251 253 255 255 255 255 255 245 164 128 120 121 121 128 119 124 133 137 139 137 140 145 152 144 162 186 181 181 184 179 176 175 173 170 170 173 177 181 181 178 178 178 177 175 163 122 232 244 253 255 255 255 255 255 255
249 249 249 249 248 247 248 248 253 224 227 255 253 247 247 253 253 253 253 254 253 255 255 255 252 251 253 254 255 255 255 255 255 172 182 191 191 191 188 197 199 199 209 213 210 209 220 218 185 160 215 219 212 199 216 222 223 221 213 202 216 209 201 212 218 215 219 225 221 186 131 230 242 254 255 254 247 249 247 249
253 253 252 252 251 251 252 254 255 210 227 254 244 246 247 252 253 253 253 254 253 255 255 255 252 252 252 254 255 255 255 255 252 171 201 209 209 208 210 214 217 218 217 217 205 187 214 193 141 167 249 248 231 206 214 221 219 220 220 205 216 201 199 212 219 216 216 212 213 187 127 229 245 255 255 255 246 251 250 250
251 252 252 251 251 251 251 250 254 198 228 244 240 246 246 252 252 253 254 254 253 255 255 255 251 251 252 255 255 255 255 255 250 175 244 255 255 255 255 255 255 255 255 255 232 173 177 168 111 152 188 178 173 179 181 179 178 180 182 171 163 163 163 163 163 160 158 156 153 140 108 229 248 254 255 248 225 237 238 237
252 251 252 252 252 251 251 250 254 187 225 236 240 246 246 251 252 253 254 253 253 255 255 254 250 251 252 255 254 255 255 255 248 175 246 255 254 255 255 255 255 255 255 255 228 187 186 200 100 116 90 93 94 96 95 96 96 92 89 84 80 77 75 75 73 69 65 60 52 42 53 227 249 254 255 243 228 224 210 212
251 252 252 251 251 252 251 250 254 178 220 234 241 246 246 250 252 252 254 252 253 255 255 254 249 251 252 255 254 255 255 255 247 171 236 245 241 244 246 253 255 255 255 255 227 172 174 223 221 206 194 197 197 195 192 196 197 195 192 188 185 182 179 178 168 155 151 146 140 136 136 232 241 254 255 255 240 242 241 244
252 251 252 251 252 252 251 251 253 171 220 234 241 245 245 249 252 252 255 252 254 255 255 253 249 250 252 255 254 255 255 255 245 169 218 233 235 233 238 254 255 255 255 255 226 182 178 231 255 255 255 255 255 255 255 255 255 255 255 255 255 255 255 255 255 255 255 255 255 255 234 246 245 255 255 251 250 251 255 255
251 251 252 251 251 252 251 251 251 164 222 234 242 245 245 248 252 252 255 251 254 255 255 252 248 250 253 255 255 255 255 255 242 174 242 250 248 246 244 254 255 255 255 255 224 188 182 231 253 250 250 249 249 250 250 250 249 249 249 252 254 255 255 255 255 255 255 255 255 251 230 247 247 255 255 245 221 219 223 229
251 252 252 251 252 251 251 252 248 162 224 233 242 245 245 248 253 253 255 251 254 255 255 252 248 250 253 254 255 255 255 255 240 179 245 250 255 255 253 255 255 255 255 255 223 190 182 232 243 245 244 242 243 245 245 246 243 241 242 243 254 255 255 255 255 255 255 255 255 250 234 246 244 255 255 252 226 218 207 216
251 251 251 251 252 251 251 253 246 160 226 232 242 245 245 247 253 252 255 250 254 255 255 251 248 250 253 254 255 255 255 255 239 174 233 232 250 255 255 255 255 255 255 255 221 189 181 232 246 255 254 242 251 255 255 255 251 248 251 243 253 253 254 255 255 255 254 254 254 245 221 244 246 254 255 255 254 251 249 244
251 252 252 251 251 251 251 250 240 156 227 232 242 244 244 248 253 253 254 250 255 255 255 250 248 250 254 254 255 255 255 255 236 176 243 241 253 255 255 255 254 255 255 255 220 186 180 234 245 254 251 240 247 245 242 245 248 249 250 247 251 251 251 253 253 252 252 251 248 242 218 241 243 254 255 255 255 255 255 255
251 252 252 251 252 250 251 252 236 156 229 232 241 243 244 249 253 252 254 249 255 255 255 250 248 249 254 254 255 255 255 254 232 183 252 238 252 251 254 254 245 250 253 254 220 185 179 225 237 239 241 241 244 243 245 250 253 253 252 250 251 251 249 252 253 253 252 249 250 249 248 248 250 252 251 247 243 242 244 243
252 253 254 253 253 253 252 252 233 159 230 232 242 242 244 249 253 253 253 249 255 255 255 249 248 248 254 254 255 255 255 254 230 180 240 237 234 234 234 235 233 239 236 246 218 190 180 209 235 239 242 243 245 248 249 251 254 253 250 249 252 251 250 253 255 255 254 253 254 255 253 254 255 255 255 253 245 239 248 242
251 252 253 253 253 253 253 254 229 161 231 233 242 242 244 250 253 254 252 249 255 255 255 248 248 248 253 253 255 255 255 254 228 183 247 245 241 242 238 240 237 237 237 247 217 189 179 211 236 240 242 242 245 248 249 252 254 254 251 251 252 251 253 250 254 252 251 253 254 254 250 254 255 255 255 255 252 242 251 249
251 251 252 251 251 252 251 253 223 163 231 233 242 242 244 251 253 254 252 250 255 255 255 248 248 248 253 254 255 255 255 254 225 193 255 255 255 255 255 255 255 255 253 253 216 183 178 211 235 238 240 240 244 247 249 252 254 253 251 251 253 250 254 253 253 251 250 253 252 252 251 254 255 254 254 255 251 247 250 251
252 251 252 251 252 251 251 253 218 166 232 233 242 241 245 251 253 254 250 249 255 255 254 248 247 247 252 254 255 255 255 253 223 195 241 250 239 247 244 244 246 245 251 255 214 188 179 208 231 235 238 239 243 247 250 252 254 254 252 251 252 251 254 254 252 251 252 250 251 252 249 254 255 254 255 254 252 247 248 249
251 252 252 251 252 252 250 253 212 169 232 234 242 241 245 252 253 255 249 249 255 255 254 248 247 247 252 254 255 255 255 255 220 199 246 250 248 248 248 247 248 246 250 255 212 189 179 207 231 236 239 241 243 247 250 252 254 254 252 248 251 253 254 255 253 253 254 249 252 253 252 254 255 255 255 255 254 252 248 245
251 251 251 251 251 251 249 252 206 172 232 234 242 241 245 253 253 255 248 250 255 255 254 249 246 245 252 254 255 255 255 254 218 196 237 241 243 247 243 244 248 243 251 255 211 189 178 205 230 235 239 241 242 246 250 253 253 252 249 246 251 253 254 254 254 253 253 249 253 252 252 251 251 251 252 253 254 254 252 243
251 251 252 251 250 252 251 253 201 176 232 234 242 240 246 253 252 255 247 250 255 255 254 249 246 246 252 254 255 255 254 254 215 199 246 246 247 252 247 247 247 246 251 255 210 190 176 199 222 225 231 233 234 236 240 244 243 246 248 246 249 251 253 251 250 249 249 248 251 249 249 247 246 243 217 228 229 229 228 219
252 252 251 251 251 251 250 254 195 180 232 234 241 240 246 253 252 255 246 251 255 255 253 249 245 245 252 254 255 255 254 254 210 208 255 255 255 255 255 255 255 255 255 255 208 189 175 184 213 222 228 230 232 234 236 241 246 254 255 253 255 255 255 255 255 247 246 252 255 255 254 255 255 255 230 234 238 235 235 234
252 252 251 251 252 251 250 254 190 185 231 235 241 240 247 253 252 255 246 252 255 255 253 249 243 245 252 255 255 255 254 254 209 213 255 255 255 255 255 255 255 255 255 255 206 188 174 191 216 224 231 232 233 235 237 241 245 255 255 252 255 255 255 255 255 244 243 250 251 250 249 251 255 255 235 236 239 235 233 233
252 252 251 251 251 251 250 255 184 188 231 235 241 240 248 253 252 255 245 253 255 255 252 249 244 246 252 255 255 255 253 253 207 219 255 255 255 255 255 255 255 255 255 255 206 184 171 194 217 223 230 232 231 234 237 240 244 252 253 253 255 255 255 255 255 251 251 255 255 255 255 255 254 255 240 238 237 236 236 235
252 252 251 251 251 251 250 254 179 191 231 235 240 240 248 253 253 254 245 253 255 255 252 249 241 246 252 255 255 255 253 254 204 221 255 255 255 255 255 255 255 255 255 255 203 179 171 176 200 217 227 232 226 231 237 245 213 127 122 131 133 137 137 138 139 140 143 148 146 145 143 138 158 145 128 124 125 122 120 119
251 251 252 250 251 251 250 254 174 195 230 235 240 239 249 253 253 253 246 254 255 255 252 249 240 247 252 255 255 255 254 255 201 159 153 147 161 251 255 255 255 255 255 255 200 184 166 151 205 223 230 236 240 240 241 251 205 103 154 136 129 132 135 92 79 82 82 126 143 144 105 132 162 151 169 163 167 157 117 94
251 253 253 252 252 252 251 254 169 199 229 235 239 239 250 252 253 253 247 254 255 255 251 249 239 247 252 255 255 255 252 254 196 155 140 118 131 250 255 255 255 255 255 255 198 186 166 176 208 221 230 235 239 240 242 251 202 104 193 162 168 176 156 96 91 89 118 146 141 148 131 129 158 138 141 138 142 138 111 87
252 252 252 253 253 253 253 255 165 201 229 235 238 239 250 252 254 252 248 254 255 255 251 249 241 248 252 255 255 255 251 254 195 186 181 140 157 251 255 255 255 255 255 255 196 180 165 181 216 225 226 235 238 231 231 241 189 78 84 99 114 125 126 128 133 151 163 170 174 176 172 167 183 176 172 181 178 171 182 186
252 252 251 251 251 251 250 254 160 204 228 235 238 239 251 251 254 251 248 254 255 255 250 249 240 248 253 255 255 255 250 254 194 194 196 168 187 252 255 255 255 255 255 255 194 181 161 208 253 252 251 253 250 187 150 147 126 112 129 158 175 186 187 190 186 164 197 251 253 252 249 250 252 253 255 255 255 255 255 255
252 251 252 252 251 251 250 253 156 206 228 235 237 239 252 251 255 250 249 254 255 255 249 249 239 248 253 255 255 255 251 254 189 188 187 157 181 255 255 255 255 255 255 255 194 182 152 188 239 227 227 242 254 204 153 156 180 192 196 196 192 203 201 198 186 154 190 241 242 249 243 248 252 253 254 253 253 254 254 254
251 252 251 251 251 251 249 252 152 208 227 235 236 240 252 251 255 249 250 253 255 255 248 248 236 248 253 255 255 255 252 254 190 182 176 138 156 238 237 229 233 255 255 255 190 163 128 195 237 229 234 244 246 229 163 173 200 208 211 210 195 213 219 209 190 161 179 233 242 243 236 247 248 252 253 251 252 253 253 254
252 252 252 251 251 251 250 251 148 209 226 234 235 240 253 250 255 248 251 253 255 255 248 247 236 248 253 255 255 255 253 254 189 166 155 130 148 209 210 210 214 234 254 255 173 145 118 188 244 243 244 245 242 237 175 163 167 164 168 174 179 185 188 190 192 158 144 227 244 251 250 251 253 252 252 249 247 251 251 253
251 252 252 252 251 251 251 249 145 211 225 234 235 241 253 250 255 247 252 252 254 255 248 246 237 249 253 255 255 254 249 254 183 124 104 88 119 211 212 212 211 219 254 255 163 141 123 126 116 153 180 186 171 181 163 157 169 170 176 182 188 193 194 189 196 181 163 200 215 222 226 230 228 239 247 243 242 246 243 244
252 252 252 252 251 251 251 246 143 212 224 233 233 241 253 250 255 247 253 250 254 255 248 245 238 248 254 255 255 254 250 253 178 103 93 88 119 212 212 212 211 221 254 255 162 128 125 114 89 141 193 214 221 231 233 237 251 251 253 252 253 252 252 253 253 253 254 252 252 251 250 250 248 249 252 253 253 253 253 253
252 252 252 251 250 250 252 244 143 212 222 231 232 242 252 250 255 247 253 248 254 255 249 244 239 249 254 255 255 254 254 251 185 194 198 201 203 211 211 211 211 214 249 255 161 121 126 109 83 146 198 214 225 237 244 248 255 255 255 255 255 255 255 255 255 255 255 255 255 255 255 255 255 255 255 255 255 255 255 255
255 254 255 253 252 252 252 241 145 212 221 231 232 243 252 250 254 248 253 245 254 255 250 245 241 249 254 255 255 255 255 249 170 198 205 211 212 212 211 213 219 239 254 255 171 135 133 115 99 157 197 212 222 234 242 248 255 255 255 255 255 255 255 255 255 255 255 255 255 255 255 255 255 255 255 255 254 254 254 254
237 242 245 249 253 255 255 244 146 204 208 215 215 243 251 251 254 250 254 250 254 255 252 245 242 250 254 255 255 255 255 250 173 221 205 213 214 214 216 228 236 245 252 255 182 156 151 107 109 160 196 214 221 231 241 246 255 255 255 255 255 255 255 255 255 255 255 255 255 255 255 254 254 254 254 254 254 254 254 255
147 166 161 150 155 162 173 186 134 126 125 123 140 243 250 251 254 251 254 251 254 255 253 246 244 251 254 255 255 215 177 178 171 254 237 225 224 223 227 236 244 251 255 254 182 162 154 103 123 131 156 182 193 213 236 247 255 255 255 255 255 255 255 255 255 255 255 255 255 255 255 255 255 255 255 255 255 255 255 255
113 120 163 187 187 173 148 128 155 226 225 227 227 246 248 250 254 253 253 249 255 255 254 250 247 252 255 255 253 185 131 129 184 251 253 250 246 246 251 255 255 255 255 253 181 158 145 106 156 172 169 189 201 195 193 182 225 235 234 233 231 228 225 221 218 215 212 210 207 203 212 213 203 197 194 193 189 185 181 201
201 199 232 244 251 255 255 245 238 253 248 242 245 253 250 249 249 243 248 251 252 254 254 252 252 253 255 255 253 242 238 233 243 251 253 254 255 255 255 255 255 255 255 253 180 152 136 102 169 234 213 195 194 209 219 186 176 182 182 185 189 188 190 190 191 194 197 201 204 203 211 213 210 211 212 215 215 216 214 202
253 255 254 253 251 250 251 252 251 251 254 252 252 255 254 254 253 251 251 254 253 253 253 253 255 255 255 255 255 255 255 255 255 255 255 255 255 255 255 255 255 255 255 253 175 145 123 89 169 246 244 238 220 192 172 180 219 240 234 229 227 225 222 219 215 212 209 206 204 202 202 201 199 201 198 197 198 200 200 202
252 253 252 251 251 252 251 250 252 252 250 252 254 252 252 252 253 252 254 254 251 253 255 255 255 255 255 255 255 255 254 252 254 255 255 255 255 255 255 255 255 253 254 251 173 137 120 130 163 241 241 243 244 245 235 209 183 177 169 172 178 184 190 197 202 208 214 220 225 231 236 240 244 247 250 252 254 255 255 255
253 252 252 251 252 251 251 253 252 251 253 254 252 252 252 251 252 254 255 254 253 254 255 255 255 255 255 255 255 255 255 255 255 255 255 255 255 255 255 255 254 252 252 249 224 197 181 173 158 237 240 243 242 242 244 245 243 243 255 255 255 255 255 255 255 255 255 255 255 255 255 255 255 255 255 255 255 255 255 255
250 251 253 252 251 252 253 251 252 254 253 252 253 252 251 252 255 255 255 255 255 255 255 255 255 255 255 255 255 255 255 255 255 255 255 255 254 253 252 252 251 252 252 250 235 215 202 188 161 233 237 241 240 241 241 242 241 243 252 255 255 255 255 255 255 255 255 255 255 255 255 255 255 255 255 255 255 255 255 255
250 252 253 252 252 252 251 253 253 252 252 253 252 251 253 255 255 255 255 249 247 255 255 255 255 255 253 237 235 241 251 254 254 254 253 253 253 253 253 254 253 253 252 251 247 240 225 206 170 196 222 236 238 239 239 240 240 241 251 255 255 255 255 255 255 255 255 255 255 255 255 255 255 255 255 255 255 255 255 255
249 251 252 251 252 252 253 253 252 251 251 251 251 253 255 255 255 249 232 225 220 222 150 138 220 252 233 215 223 230 246 253 254 254 255 255 255 255 254 254 254 254 254 254 253 253 253 250 240 219 202 194 207 226 238 239 239 240 249 255 255 255 255 255 255 255 255 255 255 255 255 255 255 255 255 255 255 254 252 251
251 252 252 252 252 252 252 252 251 250 251 252 253 254 255 255 249 242 243 203 140 149 160 177 208 244 245 252 255 255 255 254 254 255 255 254 255 255 254 253 254 251 251 251 250 252 250 250 253 255 250 229 203 189 200 224 236 238 249 255 255 255 255 255 255 255 254 252 251 248 245 242 238 234 228 227 226 226 227 229
