P2
80 80
255
110 111 110 109 109 111 112 115 116 117 118 121 123 122 122 124 123 125 124 124 127 125 124 125 125 128 124 106 103 100 164 189 190 195 202 204 196 204 202 205 205 203 207 207 206 204 194 195 190 197 216 218 214 213 212 219 145 57 63 65 61 143 217 212 211 216 129 58 62 62 57 159 214 209 209 213 110 61 70 69
110 111 108 111 113 114 112 113 116 118 116 121 122 123 124 124 124 124 125 125 125 125 125 128 126 128 119 83 77 77 162 198 193 185 184 185 186 194 192 196 193 194 197 204 205 205 196 194 186 190 209 211 219 219 219 184 163 145 141 161 159 184 195 188 195 204 178 133 125 149 153 187 206 205 204 200 169 114 64 66
110 110 110 113 111 110 112 114 113 115 117 120 123 124 124 125 123 126 126 126 127 128 127 127 129 130 119 81 78 78 168 200 196 182 194 189 190 200 198 202 194 200 203 203 205 207 209 201 203 210 206 199 144 142 127 92 162 175 168 183 192 197 176 173 189 198 195 164 162 196 207 203 201 201 200 198 194 172 135 136
110 112 112 112 109 111 113 116 116 117 117 122 124 123 122 126 125 125 126 126 128 128 128 128 130 132 120 82 78 78 168 202 179 164 170 162 154 165 165 177 154 161 167 200 207 207 201 199 208 209 210 185 71 65 43 56 142 155 143 151 161 166 160 160 153 154 156 154 148 152 173 176 176 176 176 177 189 200 217 215
114 115 112 112 112 114 116 116 119 120 120 122 126 123 127 128 129 126 130 128 127 129 131 130 129 131 122 85 80 79 168 202 179 163 157 148 156 146 151 150 153 143 159 203 206 203 198 207 208 208 209 184 75 71 45 55 142 154 146 146 150 157 161 160 161 162 163 163 163 162 161 160 161 162 154 158 178 197 212 210
115 114 112 112 115 114 115 116 117 117 120 124 125 126 125 126 128 127 130 130 130 131 131 131 128 130 119 83 79 78 168 201 202 196 199 196 195 193 196 199 203 201 190 176 190 184 204 209 207 203 210 187 76 70 42 52 137 159 147 143 154 151 154 154 155 160 159 156 156 157 158 161 156 156 161 160 177 193 212 211
114 113 111 112 115 114 115 119 119 118 119 121 124 125 125 127 124 129 130 129 129 129 130 130 126 130 118 83 77 78 169 202 185 173 171 174 176 184 193 205 200 166 169 170 193 195 187 204 205 207 212 188 77 70 39 51 133 151 148 132 148 158 166 151 152 153 167 159 159 163 155 160 165 157 146 154 181 200 212 211
113 113 113 112 113 115 115 116 118 119 122 121 122 123 128 126 125 130 129 127 127 128 129 128 126 129 118 83 77 78 170 202 185 146 138 127 143 141 166 206 163 176 177 156 197 192 169 194 209 208 211 187 73 65 33 56 132 149 146 140 141 148 157 160 154 153 158 166 161 164 157 154 164 158 163 160 183 200 216 215
114 116 113 111 113 115 115 117 119 121 122 124 123 123 126 125 125 128 130 129 127 128 126 124 124 129 117 83 78 78 170 202 197 186 182 179 176 191 195 196 166 201 189 166 195 167 196 196 207 209 210 195 133 127 84 75 124 139 145 163 163 159 159 162 165 164 162 164 165 165 163 161 161 160 162 165 184 191 169 168
113 116 114 113 115 115 118 117 117 119 123 122 124 124 126 128 127 128 129 129 128 128 126 124 126 127 119 82 78 78 172 203 200 201 199 199 196 189 203 196 169 196 187 163 154 166 202 197 204 208 205 207 221 218 162 111 131 161 152 163 163 163 163 163 164 160 161 160 161 163 163 163 163 165 166 164 188 174 72 69
115 117 116 113 114 114 117 117 119 120 124 123 125 126 125 126 128 127 129 130 129 129 127 125 125 127 119 82 78 79 174 201 203 191 151 145 150 151 201 197 182 155 160 116 141 144 193 195 199 207 208 209 216 210 155 115 148 192 164 158 159 160 161 161 160 156 158 159 158 160 162 164 164 164 164 162 183 178 78 71
112 117 116 112 113 112 115 118 121 122 121 124 124 123 123 125 126 127 126 129 129 128 127 129 129 132 119 84 79 80 174 201 204 192 159 169 162 168 204 192 186 155 140 126 157 145 170 195 203 210 209 209 217 207 153 115 160 205 162 131 135 137 139 136 140 141 140 143 142 141 141 139 137 139 139 139 183 180 81 73
114 116 115 114 115 113 114 115 117 121 122 122 125 123 125 126 125 124 127 127 128 126 128 130 129 132 118 83 79 78 174 203 200 197 207 198 195 206 205 192 184 169 142 183 175 137 171 198 206 208 208 209 217 204 150 115 166 206 160 125 127 127 127 127 131 139 140 140 140 139 128 127 126 127 127 132 181 183 83 74
112 112 113 111 113 112 113 114 119 119 122 121 122 122 121 123 122 123 124 127 126 127 129 131 131 131 118 84 78 79 175 207 178 140 167 140 151 166 165 170 195 165 134 200 199 133 187 196 206 205 205 208 221 203 151 117 180 200 179 178 181 180 179 172 173 170 170 166 167 170 174 174 173 170 156 157 178 175 85 72
111 110 113 111 117 114 114 114 118 118 122 117 118 117 118 119 120 121 123 126 126 128 129 129 129 130 118 83 79 82 174 205 176 152 142 147 140 140 158 170 197 172 165 202 196 159 171 205 208 208 210 205 186 164 118 106 180 196 194 207 208 207 206 179 182 184 196 191 187 196 199 203 197 176 180 191 186 183 118 104
112 112 113 114 117 115 118 120 122 120 122 118 117 118 118 120 121 121 120 125 127 128 129 129 129 131 117 83 79 81 170 193 191 196 194 201 191 194 202 204 207 189 183 193 188 183 202 209 208 208 211 189 80 56 27 60 183 199 197 205 206 204 200 171 173 173 184 197 195 192 185 193 182 140 174 187 193 196 208 210
111 112 113 115 117 116 117 115 118 121 120 119 116 119 120 121 124 123 120 124 125 126 126 126 125 130 116 79 78 81 175 202 182 164 191 193 190 192 193 189 183 162 176 175 176 203 206 205 206 206 210 189 79 51 24 49 183 209 208 208 205 204 196 167 168 176 186 193 195 192 187 190 185 140 150 172 188 197 210 212
113 114 114 117 116 115 117 118 118 120 119 118 118 122 122 123 124 124 120 125 125 125 125 125 128 128 115 79 79 79 170 197 169 131 133 150 161 156 154 146 150 141 149 149 154 194 198 203 207 207 212 191 79 48 24 50 183 206 204 203 198 198 196 173 174 179 189 194 197 195 193 192 197 176 168 181 189 194 208 211
116 113 116 117 115 115 119 119 119 120 120 120 119 122 123 122 122 125 125 125 128 129 124 126 128 129 113 81 79 81 175 200 182 174 178 183 179 179 152 180 189 181 183 185 187 204 205 198 204 210 214 190 78 46 24 51 166 179 183 175 196 202 197 190 187 184 195 198 196 179 182 195 196 175 173 188 194 192 207 211
116 115 115 116 115 117 118 120 121 121 122 121 121 119 119 123 123 124 123 126 127 128 126 127 128 131 115 81 78 82 179 205 200 198 208 202 199 208 203 208 209 200 207 201 205 207 207 204 201 210 213 186 75 41 23 50 170 176 178 170 190 194 197 193 193 191 198 196 189 180 186 195 194 181 187 185 192 194 208 211
116 116 117 116 118 119 117 117 120 121 121 121 121 119 124 123 125 125 123 126 126 125 128 129 132 133 115 83 80 84 177 202 200 195 201 196 203 205 204 204 204 198 202 197 203 205 206 204 200 208 210 187 92 54 38 56 183 189 180 162 189 195 191 195 199 198 185 181 178 177 175 194 196 187 188 188 191 192 199 201
116 116 115 116 117 118 117 119 120 120 122 121 122 120 121 123 126 124 125 125 126 125 127 128 129 132 116 84 81 84 181 206 202 187 192 193 199 195 206 207 207 198 205 197 203 209 209 203 202 209 208 207 204 154 133 107 181 201 185 180 196 195 189 192 192 180 173 176 174 185 187 196 199 197 187 194 190 190 116 87
115 115 114 116 116 114 118 120 121 122 121 123 122 122 124 125 124 125 123 125 128 128 128 130 131 132 116 85 83 85 179 203 195 178 183 188 199 201 204 204 204 198 202 196 196 201 200 197 203 205 204 207 212 159 142 116 182 208 200 179 178 177 193 194 181 172 165 173 189 197 197 194 196 191 183 192 192 189 111 70
117 117 117 118 115 119 121 119 122 124 121 121 121 123 124 124 122 123 124 124 128 125 127 130 131 132 117 84 83 87 181 201 192 192 193 201 205 206 205 205 205 206 206 197 194 197 199 205 208 207 207 208 208 155 141 116 183 206 199 173 167 156 183 183 174 175 168 183 194 199 194 181 190 190 177 185 195 176 107 71
118 117 116 118 118 117 121 122 124 121 120 123 124 123 123 123 124 125 124 122 127 125 129 130 130 133 116 83 81 86 175 193 192 200 200 208 206 206 206 206 206 206 206 198 198 201 207 206 206 206 206 204 204 152 141 116 183 207 204 192 167 170 183 184 161 179 183 196 199 197 186 174 190 187 164 173 196 175 105 72
119 120 119 120 117 110 99 84 82 91 127 121 123 121 123 117 121 127 125 123 125 125 125 129 131 134 115 84 80 86 180 199 195 198 200 204 203 203 203 203 203 203 203 197 202 196 204 205 205 205 203 202 202 150 141 117 177 198 204 196 170 180 193 189 179 195 198 197 192 177 171 181 197 179 159 164 195 180 104 71
115 103 83 66 51 38 33 31 59 78 137 111 115 113 113 76 101 132 130 129 128 129 129 132 134 134 117 84 82 88 186 198 200 198 202 206 207 207 207 207 207 206 206 198 206 199 203 208 207 207 203 204 195 146 139 115 159 183 198 205 205 203 188 192 194 202 201 192 169 162 187 201 196 178 159 164 193 189 112 71
43 30 26 26 28 32 32 34 63 92 134 105 111 108 112 69 88 123 122 124 125 127 130 131 133 136 133 90 81 89 185 197 197 180 186 191 195 193 193 194 202 205 204 197 204 201 197 204 204 201 207 194 95 52 49 66 150 170 176 196 204 203 200 199 200 199 199 197 179 182 198 198 189 181 159 184 191 189 182 177
29 28 29 30 32 32 31 34 66 122 131 102 108 106 112 72 80 117 117 116 117 120 121 123 126 130 130 91 80 89 182 198 200 187 192 194 193 195 193 201 205 205 205 198 205 206 197 205 204 203 209 192 64 23 20 49 148 172 169 188 203 201 201 200 200 199 198 196 196 196 194 195 180 171 165 193 195 188 202 213
47 54 36 35 31 30 31 33 70 128 117 98 106 104 115 87 78 112 113 113 114 115 117 118 121 125 124 90 79 90 182 206 192 179 204 204 204 208 211 211 211 211 210 202 210 211 204 201 208 209 209 192 64 23 24 50 141 160 157 185 204 202 199 197 195 193 191 190 185 186 188 187 185 172 172 197 194 186 199 209
68 55 50 70 68 45 31 35 68 96 116 96 102 105 120 110 82 107 109 109 112 112 113 114 116 120 120 87 79 88 185 210 194 176 193 192 191 200 203 201 200 199 199 199 199 198 200 204 209 209 206 190 100 54 23 49 155 166 174 199 196 199 198 196 196 193 194 194 194 198 198 198 193 177 175 199 194 186 198 209
87 90 94 93 85 53 31 37 63 67 93 83 93 104 117 117 82 88 109 107 111 110 110 110 112 115 113 98 148 157 185 182 170 176 179 179 182 184 153 144 145 139 145 162 159 146 175 195 196 200 202 197 206 141 22 49 167 178 194 202 186 182 199 200 197 193 190 191 197 202 201 201 198 187 193 201 195 185 197 209
89 97 92 82 79 48 32 37 51 40 38 42 46 50 54 60 55 51 67 71 82 102 105 105 106 108 106 101 182 171 168 160 165 171 171 174 171 179 182 183 184 192 199 204 209 208 211 220 219 218 218 222 224 150 18 45 164 178 208 203 190 186 201 202 196 192 188 188 180 186 203 206 205 201 204 202 198 189 198 210
51 50 37 46 62 41 31 37 51 130 147 129 116 103 90 78 65 51 40 38 89 134 122 127 129 129 131 132 178 163 176 185 184 186 188 187 178 174 166 171 167 159 166 200 208 187 195 205 207 205 204 204 205 153 86 84 149 189 215 210 201 189 197 197 200 197 198 200 184 178 204 207 205 192 195 204 200 180 178 184
28 28 37 40 55 41 30 36 52 188 225 221 221 219 216 211 202 188 175 138 155 224 218 192 187 183 176 181 184 188 184 195 222 223 210 192 194 188 184 179 171 165 81 93 126 64 104 132 135 132 126 120 118 108 121 113 136 164 171 170 165 157 152 157 157 162 170 169 152 146 163 165 162 148 143 155 145 157 164 174
73 63 67 82 35 31 31 37 55 190 194 190 191 193 196 199 207 211 211 176 157 219 192 172 184 182 175 181 183 185 183 201 224 224 207 192 196 198 212 221 220 231 139 55 48 45 46 49 51 52 49 49 50 56 60 71 78 72 72 74 77 76 76 77 74 76 78 83 88 88 84 84 85 84 82 77 33 113 161 166
61 49 40 42 32 31 32 38 59 195 203 197 197 198 196 190 190 191 194 174 163 197 169 169 180 182 177 183 184 187 183 205 225 223 204 192 195 199 210 217 215 228 151 92 131 136 132 128 127 116 98 80 97 97 71 66 106 117 112 96 112 131 136 137 124 107 137 128 107 126 142 139 146 154 144 105 38 120 158 172
31 31 33 35 38 40 43 39 62 203 216 207 206 207 204 202 201 207 205 174 144 167 167 167 177 181 178 184 185 188 184 207 225 221 201 192 193 199 210 218 216 228 144 102 159 155 153 150 143 138 138 138 164 108 70 85 111 118 115 98 109 134 135 136 137 111 132 111 100 121 134 133 131 131 128 105 36 126 175 176
40 42 44 42 43 43 38 37 67 205 206 202 204 202 201 200 200 196 195 171 124 158 167 166 175 179 177 183 186 189 185 210 225 220 198 192 191 200 209 217 216 229 139 126 214 212 213 213 214 215 217 220 206 100 91 97 82 75 75 79 81 80 81 86 85 76 68 68 70 69 69 67 66 65 63 59 27 120 186 174
40 37 35 33 33 33 32 36 72 208 206 201 204 203 202 199 199 193 195 163 115 159 167 166 173 177 176 185 187 189 185 213 224 219 196 192 190 200 209 217 217 228 135 128 212 210 213 211 211 212 213 216 201 105 112 82 28 26 27 28 27 28 27 24 23 21 19 18 17 17 15 14 11 11 8 4 0 104 172 176
39 34 30 30 32 33 33 36 78 211 205 203 204 203 201 201 200 193 196 154 111 161 167 165 171 174 175 185 188 189 185 215 224 217 193 192 189 201 209 217 218 227 131 121 184 187 191 203 212 212 213 216 201 98 87 103 123 125 126 121 121 126 126 123 122 121 119 116 114 114 105 100 98 94 91 84 59 121 151 171
36 38 39 41 42 44 44 37 84 213 204 202 202 202 201 202 198 194 197 146 111 162 166 164 170 173 175 186 188 188 185 216 223 216 190 192 188 202 209 217 219 226 128 122 174 168 170 205 212 212 213 215 200 102 95 124 211 215 214 216 218 219 219 219 216 221 222 221 221 222 222 220 216 218 217 206 136 153 156 178
41 43 43 43 44 44 41 37 91 214 203 202 203 202 201 202 198 194 198 134 110 163 166 163 169 171 175 186 189 187 186 218 223 213 188 192 188 203 209 217 220 223 123 132 198 193 186 205 212 212 212 215 198 104 103 122 197 196 198 201 200 199 199 198 197 208 212 212 217 215 215 215 217 223 219 205 136 155 160 180
42 39 38 37 36 36 33 36 98 218 205 202 203 202 203 199 198 199 200 126 113 163 166 163 168 169 176 185 190 186 187 220 222 211 187 192 188 203 210 217 222 221 121 136 209 211 207 209 211 211 212 215 197 104 104 117 178 171 173 180 180 180 177 167 169 178 204 204 212 210 213 216 216 220 213 193 140 154 151 177
41 33 31 30 30 32 32 36 105 219 205 202 201 200 202 199 198 199 203 117 116 163 165 162 168 168 178 185 191 185 189 221 221 208 186 192 188 203 211 217 223 220 119 114 195 211 210 211 211 211 212 215 195 103 103 121 192 172 180 193 193 196 192 174 173 176 194 199 202 204 207 210 208 204 197 179 121 143 156 176
38 36 33 32 33 35 36 37 113 215 199 203 203 200 199 198 198 190 195 108 117 162 164 162 168 168 179 185 191 183 190 222 221 205 185 190 188 202 211 216 223 217 114 131 202 210 210 211 210 211 212 216 195 100 99 121 190 166 179 187 185 180 169 152 153 159 174 186 192 197 198 194 194 194 191 171 125 141 150 170
39 40 41 42 42 45 46 40 121 217 202 202 206 201 202 196 199 193 195 99 121 162 163 161 168 169 181 186 191 182 192 223 220 203 184 188 188 201 211 217 224 214 111 125 199 197 204 208 193 197 206 211 192 100 99 113 158 145 152 155 156 156 156 157 161 170 177 193 190 181 192 195 190 206 204 195 181 176 184 187
43 43 43 43 44 44 46 41 129 216 203 209 209 208 206 205 200 196 195 93 125 162 161 161 168 170 182 186 191 180 194 224 219 201 184 185 187 199 211 217 224 212 111 132 169 168 164 173 164 177 174 180 187 102 104 102 136 147 152 155 156 159 163 165 167 173 179 196 188 180 208 200 200 223 224 213 197 189 207 207
41 36 35 34 35 35 37 40 138 219 202 204 208 204 206 206 204 202 198 85 129 161 160 161 168 171 184 187 191 179 196 224 217 199 184 183 187 198 211 217 223 209 107 146 182 183 176 180 179 174 178 182 189 102 102 103 139 148 153 154 155 159 163 163 167 174 179 199 190 188 208 202 201 198 208 196 203 195 203 186
42 36 33 30 29 30 35 42 145 215 203 200 202 202 199 200 197 192 191 82 133 161 160 161 168 172 184 188 191 177 199 223 216 197 184 181 186 197 211 218 223 206 106 163 207 206 209 210 211 211 210 203 188 97 98 103 138 146 150 152 152 156 162 165 168 173 179 196 189 191 211 203 209 190 195 191 203 204 195 186
35 34 36 33 32 33 36 41 154 212 202 201 203 200 201 198 196 193 188 77 137 161 159 161 167 174 185 188 190 176 201 223 215 195 185 179 185 197 211 219 221 202 106 162 179 185 187 183 190 189 196 215 189 99 103 100 133 141 146 149 151 155 160 166 169 174 181 205 191 188 201 204 207 199 191 199 200 191 194 179
39 38 39 40 41 42 43 43 161 212 202 201 205 199 201 201 194 191 184 73 140 161 158 162 167 175 185 189 190 174 202 223 214 194 185 177 185 197 212 219 221 204 103 163 195 191 195 191 195 193 196 214 188 99 101 100 132 142 147 151 153 156 160 165 170 174 182 212 192 176 190 202 215 209 197 197 186 189 200 185
41 39 40 40 41 41 40 46 169 212 201 200 201 199 199 200 194 188 179 71 143 161 158 162 167 177 186 189 189 173 205 222 213 193 185 174 186 197 212 220 218 200 102 154 179 189 181 184 191 188 192 215 186 98 102 99 131 140 146 150 153 155 158 163 169 173 179 197 178 170 192 203 212 210 199 191 179 184 190 187
36 32 32 30 31 31 34 48 176 208 201 200 203 201 196 199 199 190 176 69 146 161 157 162 167 178 186 190 188 174 208 222 211 191 185 173 186 198 213 221 215 197 101 165 190 197 193 193 194 193 197 213 184 99 101 95 120 126 132 139 141 141 143 147 152 156 157 194 198 195 204 211 212 207 200 198 194 198 199 200
33 31 28 27 27 28 33 52 183 207 203 205 200 200 199 198 194 195 171 69 148 160 157 162 167 180 186 190 186 174 210 221 210 190 184 171 186 198 213 221 215 197 98 180 205 204 206 207 209 209 209 213 182 97 100 89 105 119 128 135 137 139 141 143 147 153 161 218 224 211 225 226 226 228 212 189 199 221 221 220
27 28 30 30 30 29 33 56 188 203 202 203 199 199 201 197 192 195 165 69 150 159 156 162 167 181 187 191 185 175 213 219 209 189 183 170 187 200 214 221 214 197 100 182 203 203 204 206 207 207 208 212 180 96 98 91 110 122 131 139 140 141 143 145 148 153 160 217 223 204 222 227 227 228 208 174 194 207 203 196
29 32 32 32 30 28 32 59 194 206 202 200 200 200 198 197 193 196 160 70 151 159 155 163 168 183 187 191 183 177 215 218 208 187 183 170 187 201 214 222 209 192 102 185 203 203 203 204 206 207 207 211 178 94 93 92 111 122 130 138 140 138 139 144 147 150 155 205 214 206 214 217 217 218 205 192 201 218 217 215
32 33 32 34 56 60 53 64 198 204 203 201 202 200 198 198 194 194 152 72 152 158 155 163 169 184 187 191 182 179 217 217 207 186 181 169 188 203 214 222 207 191 101 185 201 202 203 204 205 205 206 211 176 90 91 83 94 112 125 134 139 135 136 144 149 158 123 50 50 56 56 59 60 62 62 65 70 72 70 67
32 30 27 41 141 150 108 69 203 204 201 199 203 197 198 199 195 196 146 75 153 158 154 163 170 185 187 191 180 183 218 216 206 185 180 170 188 204 214 222 210 193 79 69 73 177 206 203 204 205 205 210 173 92 94 76 93 120 131 138 145 150 151 150 155 167 121 36 87 61 56 62 53 21 21 20 36 67 68 49
50 55 54 62 107 121 91 75 207 205 201 205 208 203 202 201 197 197 139 77 153 157 154 163 171 186 187 191 178 186 218 215 204 185 178 170 188 205 214 222 203 190 74 46 40 171 206 203 204 204 205 209 171 93 94 84 101 116 129 137 143 149 151 150 154 166 121 42 124 88 94 97 60 23 24 28 60 60 64 63
138 141 126 120 137 141 94 81 212 205 201 202 205 204 202 203 201 206 132 80 154 156 153 163 172 186 188 192 178 190 217 215 204 184 178 171 189 206 214 222 200 186 81 66 60 176 205 203 203 204 204 209 169 88 89 85 107 129 134 136 146 149 142 136 142 152 105 17 24 37 48 53 56 58 64 82 90 97 104 102
131 129 124 124 127 132 86 89 212 203 202 202 201 201 196 197 193 198 124 83 153 155 153 163 174 186 187 191 176 194 215 215 204 184 176 172 190 207 214 221 197 184 84 86 87 181 205 203 203 203 204 209 167 88 91 74 125 188 183 183 185 186 136 69 63 59 45 46 66 86 97 103 101 104 103 75 92 169 174 172
129 133 129 135 133 141 87 96 213 203 202 202 203 201 197 197 192 197 117 87 153 153 152 162 175 187 188 190 175 198 212 215 205 184 174 172 190 207 214 221 197 181 80 80 79 183 207 205 203 203 204 208 166 90 90 43 100 165 145 142 160 180 161 74 64 75 102 107 112 110 106 123 119 116 105 64 91 150 148 165
137 135 132 125 124 129 72 105 214 204 200 203 202 198 197 197 190 198 110 90 152 152 152 162 177 187 188 190 175 201 207 216 204 183 172 173 192 208 214 220 200 180 80 66 58 155 172 162 152 195 204 208 164 79 65 36 108 166 154 153 172 166 173 98 77 99 117 124 126 122 107 132 139 129 110 77 81 136 147 167
114 88 93 90 119 116 62 114 219 204 201 205 203 201 197 196 191 199 103 94 151 150 151 162 178 186 188 189 176 203 202 216 203 182 170 174 193 208 214 218 200 178 73 53 53 118 131 130 132 151 190 209 153 59 53 33 91 171 166 167 171 169 165 123 75 83 78 75 80 86 92 98 103 104 108 80 44 119 151 167
104 99 94 118 132 99 53 123 217 205 200 202 204 202 198 198 191 200 96 96 150 149 151 162 180 186 188 187 177 204 196 217 204 181 170 175 194 209 215 215 194 176 60 26 33 119 134 133 133 131 183 209 145 54 54 38 33 55 73 80 94 80 83 84 66 66 79 91 96 101 104 111 113 107 113 106 89 112 130 140
96 97 95 122 136 103 63 129 215 205 203 202 203 201 197 197 191 198 90 99 149 147 150 162 180 185 189 186 180 204 190 217 206 181 170 176 196 209 216 213 194 173 59 35 41 121 134 132 132 133 184 209 145 47 48 37 28 46 76 102 115 121 130 142 145 136 150 184 185 185 185 187 188 189 189 191 192 193 194 195
101 97 101 110 125 108 66 138 216 206 203 203 204 200 195 193 193 198 85 102 147 146 149 162 182 185 189 185 184 202 184 216 209 181 170 177 198 209 217 213 202 166 90 124 126 131 132 132 132 130 168 210 143 42 45 36 29 53 84 104 115 123 134 148 157 156 181 214 213 211 211 212 214 214 213 211 212 214 215 214
102 105 108 106 117 109 65 148 225 217 214 209 212 205 200 199 192 197 81 106 146 145 149 163 183 184 189 184 189 198 180 213 211 183 172 177 200 208 217 212 206 157 85 130 132 132 132 134 139 161 197 207 149 54 53 41 30 59 87 102 113 119 130 143 153 153 184 220 216 215 213 213 214 214 212 211 213 214 214 212
88 102 112 108 98 113 63 124 178 176 179 186 194 196 201 205 207 206 78 97 127 122 146 163 183 184 190 184 193 200 181 209 216 186 175 179 202 208 218 212 211 154 85 133 136 136 137 149 161 175 191 207 154 70 72 45 34 59 82 103 114 120 127 138 151 153 176 217 214 213 212 212 213 213 212 211 211 212 212 211
85 107 109 107 92 128 72 62 64 62 61 66 79 70 72 80 94 115 63 55 58 54 122 165 183 183 191 184 197 200 183 203 220 191 179 182 204 209 225 151 99 84 115 159 150 148 150 164 177 190 201 207 154 74 76 51 47 46 53 69 84 90 100 118 139 150 168 219 218 217 217 217 219 219 218 217 218 217 218 218
92 113 103 99 97 148 102 48 45 43 44 59 106 116 117 107 85 63 58 133 143 142 138 166 184 179 189 185 202 196 184 198 222 200 186 184 205 208 217 107 47 53 134 179 172 176 188 202 205 204 203 207 153 73 70 51 66 67 67 79 78 88 103 108 102 91 80 159 178 174 170 167 165 161 155 151 149 144 141 138
99 106 98 82 118 138 79 99 139 139 128 142 163 170 181 191 192 184 171 186 179 165 164 192 195 182 185 171 180 188 194 195 206 198 190 190 200 206 207 185 180 178 186 187 196 207 211 212 208 204 204 208 152 71 61 48 70 66 84 145 127 109 93 93 101 100 74 87 104 105 107 110 109 109 111 112 114 118 122 123
103 93 78 92 129 127 156 189 187 178 181 186 190 191 187 184 184 186 184 179 187 188 182 192 203 202 199 198 195 201 202 202 200 197 199 205 211 217 217 218 214 207 206 211 214 213 211 209 208 205 206 210 149 66 56 39 58 63 82 154 154 156 148 132 108 83 69 89 130 154 145 138 134 130 126 122 117 114 110 110
89 97 114 138 161 183 189 181 180 179 184 191 195 189 187 186 190 188 183 188 189 184 188 193 190 189 191 193 190 193 199 200 190 195 208 213 219 217 216 215 212 205 206 211 211 211 209 208 207 207 199 202 144 63 50 53 60 50 72 148 151 154 155 155 157 154 141 115 87 88 99 107 116 126 134 142 151 161 169 177
127 138 155 178 188 184 180 182 180 185 191 191 192 189 187 191 187 187 192 192 186 191 197 191 190 192 190 187 192 199 206 207 202 196 204 218 218 216 215 214 213 212 212 211 210 210 210 209 208 207 183 173 156 124 101 90 88 79 69 142 148 153 155 153 154 154 154 155 155 158 209 223 222 222 221 221 221 219 219 218
147 159 171 173 174 174 177 181 186 184 184 184 189 192 190 187 188 192 190 187 193 197 191 192 193 190 189 194 201 208 214 209 208 210 211 221 218 217 219 218 214 211 210 211 210 209 203 196 191 183 176 176 166 148 128 108 97 90 71 134 143 148 152 150 152 152 152 152 152 152 194 218 216 215 215 215 215 214 214 214
164 164 162 162 165 170 173 180 183 177 177 182 189 188 185 187 189 187 187 193 192 187 189 193 189 187 193 201 208 216 213 183 195 220 211 221 220 210 175 175 190 202 204 201 195 190 185 183 183 181 180 179 173 165 161 153 136 117 83 91 112 132 145 146 148 149 149 151 150 150 183 217 214 214 214 214 214 214 214 214
173 173 172 172 169 174 177 178 175 172 174 178 183 182 183 183 185 187 188 185 185 185 187 186 186 192 200 208 216 202 161 147 143 131 63 131 206 167 142 157 171 189 192 194 194 194 194 194 193 192 192 192 189 188 185 186 187 182 173 151 128 103 95 106 124 142 147 147 148 148 176 217 215 215 214 214 214 214 214 214
181 182 182 179 179 181 182 182 182 181 181 183 185 182 183 184 183 181 180 181 181 181 182 186 191 198 208 215 205 181 177 120 80 95 110 127 173 183 194 195 196 195 191 194 193 193 192 193 192 192 188 188 181 178 177 176 181 179 177 183 191 177 147 120 103 94 109 131 145 146 175 212 210 209 208 208 206 201 195 189
