P2
80 80
255
211 209 209 208 207 207 208 210 212 213 214 214 217 218 218 218 219 219 219 219 219 221 220 219 220 220 222 220 204 199 195 230 255 255 255 255 255 255 255 255 255 255 255 255 255 255 255 249 249 248 248 254 255 255 255 255 255 220 153 156 157 156 206 255 255 255 255 210 151 152 154 151 216 255 255 255 255 196 154 162
209 208 209 207 208 211 211 209 210 212 214 213 217 218 219 219 219 220 219 220 220 220 220 220 222 220 222 216 181 171 170 221 255 253 249 250 248 249 251 250 251 250 251 251 253 255 255 251 249 249 248 254 255 255 255 255 245 231 220 218 226 228 242 253 250 251 254 242 217 209 220 222 242 255 255 255 253 235 203 160
208 208 208 208 210 209 207 209 211 210 212 214 216 218 220 219 220 219 220 221 221 222 222 221 221 223 224 216 178 173 170 222 255 254 244 249 252 252 253 253 254 251 252 254 254 255 255 255 255 255 255 255 254 220 212 200 182 230 250 243 249 253 255 248 245 250 253 255 245 240 254 255 255 254 254 255 254 255 243 209
209 208 209 209 210 207 208 210 212 213 214 214 217 220 218 218 221 221 220 221 221 222 222 222 222 223 225 217 179 173 170 221 255 248 229 235 230 226 229 231 236 228 226 229 249 255 255 255 255 255 255 255 253 178 160 129 129 222 239 230 236 240 244 242 242 237 236 238 240 234 235 244 247 247 247 247 247 251 253 255
210 210 213 209 210 209 211 213 213 215 217 216 217 221 219 221 223 223 221 223 223 222 222 225 224 223 224 219 183 175 171 221 255 247 227 229 219 225 221 218 221 223 217 223 250 254 255 255 255 255 255 255 253 180 165 126 126 221 239 234 232 237 241 245 245 245 246 246 246 247 245 246 245 245 246 241 241 247 252 255
209 212 212 210 209 211 211 212 213 214 213 216 219 220 221 221 221 222 221 224 224 223 225 225 224 222 223 217 180 174 170 221 255 255 251 252 252 255 251 247 253 253 254 251 238 248 247 253 255 255 255 255 253 181 164 121 121 218 242 235 228 241 235 241 239 241 243 244 241 242 242 243 245 242 241 244 243 246 252 255
209 211 211 209 209 212 211 212 215 216 215 216 217 219 220 220 222 220 223 223 224 223 223 223 223 221 224 215 181 172 171 221 255 248 237 234 240 242 244 245 255 255 236 232 230 252 252 246 251 255 255 255 253 183 164 117 118 216 237 235 224 232 242 247 239 237 238 247 244 242 244 242 243 247 243 234 238 247 254 255
209 210 211 210 210 210 212 212 213 214 215 217 217 217 218 222 221 220 224 224 222 222 222 223 222 220 222 216 180 172 170 222 255 252 219 218 205 216 216 224 255 237 233 242 223 252 250 232 247 255 255 255 253 180 161 109 126 216 236 234 227 230 234 240 245 240 239 241 247 245 244 243 239 246 242 245 243 249 254 255
208 212 213 211 208 210 212 212 214 215 216 218 219 219 219 220 221 220 222 224 223 221 222 221 219 219 222 215 181 173 170 222 255 254 246 244 240 242 246 249 254 231 251 252 233 250 234 247 251 253 255 255 254 213 202 165 159 209 230 230 244 246 243 244 245 247 247 245 246 247 247 246 245 244 244 244 247 249 252 233
209 211 213 211 210 212 212 215 214 214 215 218 218 219 220 221 223 222 222 223 224 222 223 221 219 220 221 216 180 174 169 222 255 254 255 254 255 255 248 252 254 233 249 252 231 229 225 251 251 251 255 255 255 255 255 247 210 213 241 235 246 246 246 246 246 246 245 245 245 245 246 246 246 246 247 247 246 249 248 175
212 212 214 214 210 211 211 214 213 216 216 220 218 220 221 220 221 222 221 223 224 223 223 221 220 219 221 216 180 174 171 223 255 255 253 226 218 222 220 247 253 246 227 230 200 215 214 241 252 250 255 255 255 255 255 241 213 221 252 244 243 243 244 245 245 245 243 243 244 243 244 246 246 246 247 247 246 249 249 180
212 210 213 214 210 210 209 212 215 217 218 217 219 219 219 218 220 221 221 221 223 223 222 221 223 223 225 217 182 175 171 224 255 255 253 230 232 235 229 251 252 250 230 218 203 227 217 229 250 251 255 255 255 255 255 241 213 225 255 243 224 226 226 228 227 229 230 229 230 230 230 230 229 228 228 229 228 247 250 184
211 212 213 213 210 211 211 211 213 214 217 218 218 220 219 220 221 220 219 221 221 222 221 222 224 223 225 216 181 175 169 223 255 255 251 255 255 254 255 255 254 248 233 224 233 248 210 228 249 253 255 255 255 255 254 239 213 226 255 243 222 222 222 222 222 223 228 229 229 228 229 223 221 221 221 221 222 245 251 186
212 210 210 211 208 210 209 210 211 214 216 217 218 218 218 218 218 218 219 219 221 221 221 223 224 224 224 216 182 174 169 225 255 248 211 231 219 219 232 234 234 249 241 207 246 255 215 234 251 255 255 255 255 255 255 242 214 230 254 247 244 246 246 246 245 245 244 244 242 244 244 245 245 245 245 239 239 245 249 191
212 209 208 210 208 213 211 211 211 214 214 218 214 214 214 214 215 216 217 218 220 220 223 223 223 223 223 216 181 175 173 225 255 247 225 218 218 219 215 228 232 249 244 229 249 254 234 231 252 255 255 255 255 242 232 206 197 231 254 252 255 255 255 255 249 249 250 253 254 251 255 255 255 255 248 247 253 251 251 213
211 210 209 210 211 214 212 215 217 218 216 218 215 213 214 214 215 217 217 215 220 222 222 223 223 222 224 215 180 175 172 224 255 254 255 250 252 253 252 254 255 255 252 247 250 250 246 250 255 255 255 255 253 188 147 94 124 232 254 253 254 255 255 255 246 245 247 249 255 255 254 253 253 253 230 243 251 254 254 255
209 209 210 210 212 214 213 214 212 214 217 217 215 213 215 216 217 219 219 216 219 221 221 221 221 220 223 215 176 173 171 225 255 250 228 246 250 250 250 250 247 245 233 240 242 239 252 255 255 255 255 255 253 186 138 89 107 229 255 255 255 255 255 254 244 244 248 252 254 255 254 253 253 253 232 234 244 252 254 255
211 211 212 211 214 214 212 213 215 215 216 216 215 214 217 218 218 219 220 216 219 220 220 220 220 222 222 213 175 175 169 225 255 245 209 214 222 236 233 230 222 225 219 220 222 221 246 255 255 255 255 255 253 186 134 87 106 229 255 254 254 254 254 254 248 246 249 253 255 255 255 254 253 255 249 243 250 252 254 255
212 214 211 213 214 213 211 215 215 215 217 217 216 215 217 219 218 218 219 220 220 222 223 219 220 222 223 212 178 174 171 225 255 251 239 239 243 244 244 229 234 246 244 243 243 247 253 255 255 255 255 255 253 186 129 88 106 226 248 248 246 251 255 254 252 252 250 254 255 255 250 248 253 255 249 246 251 254 254 255
213 213 212 213 213 212 214 215 217 217 217 218 217 217 216 215 218 218 219 218 220 222 222 220 221 221 224 213 178 173 171 226 255 255 255 255 255 255 255 253 255 255 255 255 255 255 255 255 255 255 255 255 253 184 122 87 105 226 248 246 245 249 254 254 253 253 252 255 255 253 249 251 253 255 250 252 251 253 254 255
213 214 213 214 213 214 216 214 214 215 217 217 217 217 215 219 219 220 220 218 221 221 219 221 222 224 226 214 181 175 174 227 255 255 255 255 255 255 255 255 255 255 255 255 255 255 255 255 255 255 255 255 254 194 136 107 117 229 253 248 242 249 255 253 254 255 255 252 250 249 249 246 253 255 251 252 252 253 254 252
214 214 213 212 213 214 214 214 215 216 216 218 217 218 216 217 218 221 220 220 220 221 220 221 222 223 225 215 182 177 173 228 255 255 251 251 251 252 250 254 255 255 255 255 255 255 255 255 255 255 255 255 255 252 237 225 201 228 255 251 247 254 255 253 253 254 250 247 249 247 250 252 254 255 255 252 254 254 255 221
213 212 213 212 213 213 211 215 217 217 218 217 218 218 218 219 220 219 220 219 220 222 222 222 224 224 225 215 183 179 175 228 255 253 245 247 247 251 253 254 255 255 255 255 255 255 255 255 255 255 255 255 255 255 244 234 212 229 255 255 249 248 247 253 255 251 247 244 245 252 255 255 254 254 253 250 253 254 255 222
214 214 214 214 215 212 215 217 216 217 220 217 217 217 218 219 220 218 218 219 219 222 220 221 224 224 225 216 182 180 177 229 255 255 252 252 253 254 255 255 255 255 255 255 255 255 255 255 255 255 255 255 255 255 241 233 212 230 255 254 248 243 240 247 252 247 249 245 249 253 255 255 250 250 254 249 249 255 251 218
216 215 214 213 214 215 213 217 219 222 218 217 218 220 218 219 218 219 220 219 217 221 220 223 223 224 226 215 181 177 175 229 255 254 255 255 255 255 255 255 255 255 255 255 255 255 255 255 255 255 255 255 255 255 240 233 213 230 255 255 254 244 245 247 252 242 247 250 254 255 254 252 247 251 253 244 243 255 251 217
216 215 217 217 218 218 213 203 188 170 175 190 215 216 219 217 215 212 220 220 219 220 220 220 222 224 226 214 182 176 175 229 255 255 255 255 255 255 255 255 255 255 255 255 255 255 255 255 255 255 255 255 255 255 239 233 214 230 254 254 254 244 245 252 253 249 253 254 255 254 248 245 247 254 251 242 239 254 253 217
215 216 207 187 165 143 121 107 104 104 151 179 212 208 213 205 197 166 210 226 224 223 224 223 226 226 227 216 184 178 177 231 255 255 254 254 254 255 255 255 255 255 255 255 255 255 255 255 255 255 255 255 255 254 238 232 214 224 250 251 254 255 255 252 253 253 255 255 255 246 240 248 255 255 249 243 237 253 254 224
206 137 106 93 91 91 94 101 100 107 155 191 209 203 208 200 194 153 197 220 219 220 221 223 224 225 227 229 211 178 177 231 255 254 248 248 250 251 251 251 251 253 255 255 255 255 255 255 255 255 255 255 255 189 127 120 129 218 245 244 251 255 255 255 255 255 255 255 255 251 246 255 255 252 251 241 247 254 253 249
197 105 94 95 98 99 102 102 100 109 162 213 207 201 207 198 196 153 188 215 214 213 214 216 218 219 222 226 213 177 177 232 255 254 250 250 251 250 251 250 252 255 255 255 255 255 255 255 255 255 255 255 255 163 89 82 97 215 244 243 248 255 255 255 255 255 255 255 255 255 255 255 255 250 245 241 251 255 253 254
195 110 133 131 101 107 97 100 99 106 166 216 198 197 204 197 202 166 182 211 210 210 211 212 214 215 218 222 209 176 177 233 255 252 242 254 254 253 254 255 255 255 255 255 255 255 255 255 255 255 255 255 255 163 88 85 99 213 238 239 245 255 255 255 254 253 253 253 252 251 250 252 252 251 247 242 253 255 253 253
191 121 149 133 131 158 148 109 101 109 159 191 199 196 199 197 209 190 179 208 206 207 209 209 210 210 213 217 206 177 176 233 255 252 240 250 250 249 251 254 253 253 252 251 252 252 250 251 254 254 254 254 254 189 140 98 96 217 242 244 251 254 254 255 255 254 254 254 254 254 254 254 255 253 249 243 255 255 253 253
187 126 185 187 189 185 171 115 102 111 153 162 172 175 186 194 206 200 165 194 207 207 210 208 207 207 209 212 200 212 234 248 253 245 244 251 250 250 252 245 232 232 230 230 238 244 235 239 253 254 254 254 254 255 255 132 93 220 249 249 255 252 248 254 255 255 253 253 252 254 255 255 255 254 251 250 255 255 253 253
186 125 193 192 181 170 161 111 102 112 148 127 117 121 128 133 139 141 136 139 148 152 160 186 205 203 204 207 194 228 252 246 240 241 244 245 245 246 246 249 249 250 250 252 253 252 251 250 253 255 255 255 255 255 255 132 87 216 247 253 255 253 248 254 255 254 252 250 251 248 248 254 255 255 255 255 255 255 254 253
183 109 128 120 104 134 142 107 100 113 144 153 209 199 191 181 172 161 153 137 120 111 122 188 206 208 218 219 215 235 249 246 247 248 247 246 248 251 250 243 234 226 222 216 214 231 247 247 255 255 255 255 255 255 255 188 162 212 247 255 255 255 253 254 255 255 255 254 255 252 248 254 255 255 254 254 255 255 253 251
182 100 92 98 110 117 139 107 97 113 140 169 255 255 255 255 255 255 252 246 238 227 193 246 255 253 255 255 255 253 254 254 255 254 254 255 255 254 252 251 246 236 232 228 191 173 171 156 206 210 206 202 196 189 193 206 212 207 227 230 231 230 228 224 228 227 228 231 231 226 222 227 229 229 224 219 222 216 209 247
170 117 167 139 167 161 96 100 98 114 142 174 254 245 247 247 248 250 251 255 255 255 216 246 255 251 254 255 253 253 254 254 255 253 255 255 255 253 253 254 255 255 255 255 237 157 127 121 129 133 135 133 131 134 138 148 138 172 168 167 167 169 171 171 173 171 170 173 177 181 188 185 185 185 182 180 178 147 115 237
155 115 142 118 112 113 96 101 101 117 140 180 255 249 249 249 250 248 247 248 248 252 224 249 251 249 253 255 254 253 254 254 255 254 255 255 255 253 253 254 255 255 255 255 244 166 204 208 200 199 197 194 172 179 190 180 134 185 204 204 198 189 212 214 220 216 202 207 221 207 206 219 222 222 228 226 216 161 119 238
148 98 99 102 104 108 113 118 119 119 137 185 255 253 252 252 252 251 251 253 254 254 226 240 249 248 251 254 254 254 255 254 255 254 255 255 255 252 254 254 255 255 255 255 241 169 220 221 219 216 214 215 206 229 236 181 147 192 205 206 198 195 212 217 216 220 209 205 211 193 204 213 218 214 220 214 215 159 118 240
146 102 119 123 123 120 122 120 109 117 135 191 255 251 252 252 252 251 252 252 251 252 222 232 249 248 251 254 253 254 255 254 254 254 255 255 254 252 253 254 255 255 255 255 239 177 253 255 255 255 255 255 255 255 253 188 176 182 173 167 168 174 173 175 175 180 173 162 157 159 161 161 159 157 155 152 148 121 105 239
144 107 117 108 105 102 101 101 99 115 132 197 255 252 252 252 252 252 251 251 251 251 215 231 249 247 250 253 253 253 254 255 254 254 255 255 254 252 253 254 255 255 255 255 237 178 253 255 255 255 255 255 255 255 251 190 194 169 98 91 94 94 94 95 90 85 82 77 74 73 72 71 68 62 59 56 42 34 62 234
141 106 114 99 95 98 99 102 102 112 128 203 255 251 252 252 252 252 252 251 251 251 206 230 249 247 249 252 252 254 254 255 254 254 255 255 254 251 253 255 255 255 255 255 236 174 240 244 246 251 255 255 255 255 251 185 172 185 200 200 199 195 198 199 197 194 191 187 184 181 180 173 160 156 152 147 144 133 141 236
138 100 111 112 116 117 120 124 118 109 125 209 255 252 252 252 252 252 252 251 251 250 200 231 249 247 248 252 250 254 254 255 254 254 255 255 253 251 253 255 255 255 255 255 233 174 234 234 235 251 255 255 255 255 250 189 182 195 255 255 255 255 255 255 255 255 255 255 255 255 255 255 255 255 255 255 255 245 225 247
136 106 122 122 121 121 124 123 114 108 126 215 255 251 252 252 251 252 252 251 251 248 187 233 249 246 248 251 250 254 254 255 254 254 255 255 253 251 253 255 255 255 255 255 231 180 248 247 244 251 255 255 255 255 250 190 190 194 249 250 250 250 250 250 249 249 250 254 255 255 255 255 255 255 255 255 255 241 224 248
134 108 119 113 111 109 108 107 101 107 128 221 255 252 252 252 252 252 251 252 253 246 184 235 248 246 248 250 250 254 254 255 254 254 255 255 252 251 253 255 255 255 255 255 230 183 255 255 254 254 255 255 255 255 250 191 191 194 244 242 246 247 247 247 242 243 242 249 254 255 255 255 255 255 255 255 255 241 228 245
131 110 113 100 98 97 98 99 99 106 129 226 255 251 251 252 252 251 251 252 253 243 181 238 248 246 248 249 250 254 254 255 254 254 255 255 252 250 253 255 255 255 255 255 228 182 248 255 255 255 255 255 255 255 249 189 191 196 252 242 255 255 255 255 250 251 247 247 254 254 254 255 255 254 254 254 254 232 215 241
129 104 113 109 102 101 103 108 106 108 131 231 254 251 252 252 251 251 251 251 251 239 175 239 248 245 248 249 251 255 254 255 254 254 255 255 252 250 253 255 255 255 255 255 225 184 252 255 255 255 255 254 255 255 248 187 187 197 249 243 253 253 253 251 243 239 236 239 246 250 252 253 253 252 251 251 250 238 219 240
127 104 115 118 120 121 122 126 124 111 133 235 254 251 252 252 252 251 251 251 252 235 171 241 247 245 248 249 251 255 254 255 253 255 255 255 251 250 253 255 255 255 255 255 222 186 253 250 253 254 247 247 252 254 247 187 186 193 237 233 238 240 241 242 242 242 244 248 251 252 252 249 249 251 249 251 252 252 251 248
124 111 123 124 123 122 124 125 122 112 138 239 254 252 253 254 253 253 252 252 252 230 168 243 246 244 248 249 252 255 254 255 253 254 255 255 251 250 253 255 255 255 255 255 221 183 236 235 232 237 231 238 236 239 244 188 191 187 227 235 238 240 241 243 245 246 248 250 253 253 251 248 250 251 250 253 255 255 254 252
124 112 116 110 105 105 107 107 106 112 141 244 254 251 253 253 253 253 253 254 254 224 167 245 246 244 248 249 252 255 254 254 253 254 255 255 250 250 253 254 255 255 255 255 218 192 244 243 238 240 239 236 238 240 245 189 188 188 229 235 239 240 240 242 245 246 247 250 253 253 252 250 251 251 252 249 253 251 251 253
124 116 119 106 102 95 97 99 101 114 145 246 253 251 251 252 251 251 252 251 253 219 170 246 246 244 248 249 253 255 254 254 253 254 255 255 250 250 253 254 255 255 255 255 216 199 255 255 255 255 255 255 255 251 245 183 183 187 228 234 237 239 239 240 244 246 248 250 253 253 251 249 252 250 253 253 252 249 250 253
123 108 107 105 110 102 103 104 104 110 149 249 253 252 252 252 252 252 251 251 254 211 172 247 245 243 248 249 254 255 254 254 253 255 255 255 251 250 252 253 255 255 255 255 215 205 243 244 245 242 245 244 247 255 246 184 188 186 225 230 234 237 238 240 243 246 248 251 253 254 252 250 250 251 253 254 251 251 252 248
120 112 116 113 115 116 120 122 116 110 154 251 253 251 252 252 252 252 251 250 253 203 174 248 245 244 248 249 254 254 254 254 252 255 255 254 251 250 252 254 255 255 255 255 213 205 251 248 250 247 249 247 248 255 245 184 187 186 224 231 235 238 239 240 243 246 248 251 253 254 253 248 248 252 254 254 253 253 253 247
115 114 118 114 116 115 118 118 109 110 159 254 253 251 252 252 251 252 252 249 253 195 177 248 244 244 248 250 254 254 254 254 252 255 255 254 251 250 252 254 255 255 255 255 211 203 243 247 241 243 246 245 245 255 245 184 187 185 223 230 234 237 239 240 242 244 248 251 252 251 250 245 247 252 254 254 254 252 250 247
113 108 106 97 96 95 96 99 97 110 165 255 252 252 251 252 251 250 252 250 254 188 181 248 244 244 248 250 255 254 255 253 252 255 255 254 251 250 252 253 255 255 255 255 209 208 249 251 249 248 248 247 248 255 244 184 186 181 215 220 223 229 231 231 232 234 237 241 241 242 248 246 248 251 253 251 250 249 247 248
109 100 102 94 89 89 90 93 95 112 172 255 252 252 252 251 252 251 251 251 255 182 187 248 243 244 248 251 255 254 255 253 252 255 255 254 251 249 251 254 255 255 255 255 204 212 255 255 255 255 255 255 255 255 243 181 185 177 201 214 221 226 229 229 231 232 234 238 241 249 255 253 253 255 255 255 254 246 246 252
109 89 89 95 98 98 97 95 97 113 178 255 251 252 252 252 252 252 250 251 255 173 192 248 243 244 248 251 255 254 255 253 253 255 255 254 251 249 251 254 255 255 255 255 204 217 255 255 255 255 255 255 255 255 243 181 183 179 206 216 224 229 231 231 232 234 235 238 241 249 255 252 253 255 255 255 255 242 243 250
109 91 96 102 102 101 99 97 95 112 184 255 252 251 252 252 252 251 251 251 255 167 197 247 242 244 248 251 255 254 255 252 253 255 255 254 251 249 251 254 255 255 254 254 203 222 255 255 255 255 255 255 255 255 241 179 177 179 208 217 222 228 231 229 228 233 234 237 239 244 251 250 252 253 255 255 254 247 249 254
108 94 102 102 99 108 136 137 131 125 190 255 252 252 252 252 252 251 251 250 254 160 201 247 242 244 248 252 255 254 255 252 253 255 255 253 251 248 251 254 255 255 254 254 200 223 255 255 255 255 255 255 255 255 241 176 175 169 186 207 219 225 230 228 222 232 235 240 241 143 107 116 119 122 123 125 126 127 133 139
105 101 102 98 90 136 241 237 238 155 195 255 252 251 252 251 251 251 251 250 254 155 206 246 241 244 248 252 255 254 255 252 254 255 255 253 251 248 251 254 255 255 255 255 197 146 142 231 255 255 255 255 255 255 239 176 179 163 186 215 224 228 233 237 238 237 239 243 247 125 137 144 132 132 138 96 80 84 90 135
123 123 129 134 131 152 199 208 215 149 202 255 252 251 253 253 253 253 252 251 254 150 210 245 241 244 248 253 255 254 255 252 254 255 255 253 250 248 251 254 255 255 254 255 193 132 116 225 255 255 255 255 255 255 238 178 179 173 199 212 222 228 232 236 238 238 240 244 248 122 162 169 166 170 154 93 87 87 123 142
212 221 231 234 221 213 230 231 226 149 208 255 252 251 252 253 253 253 253 253 253 146 215 245 240 244 248 254 255 255 255 253 254 255 255 253 251 248 251 255 255 255 254 254 195 149 143 232 255 255 255 255 255 255 238 174 174 173 203 220 226 224 233 236 234 223 225 230 228 106 75 91 109 121 123 126 130 148 164 171
223 226 225 224 221 220 222 225 220 147 215 255 252 252 252 252 251 251 251 251 249 143 218 244 239 244 248 254 255 254 254 252 254 255 255 253 251 247 251 255 255 255 253 254 194 169 175 239 255 255 255 255 255 255 237 172 176 163 175 253 253 252 252 254 240 168 144 140 128 114 126 152 170 182 184 183 188 174 156 208
223 222 224 227 224 228 228 231 219 146 221 254 252 252 252 252 251 251 251 251 246 140 222 243 239 244 248 254 254 255 254 252 254 254 255 252 251 246 251 255 255 255 253 254 190 161 163 240 255 255 255 255 255 255 236 174 177 123 126 241 226 222 227 245 252 186 150 154 180 191 195 194 188 195 202 197 191 166 153 192
231 230 229 228 225 219 216 225 200 145 226 254 252 252 252 252 251 251 250 250 243 139 225 242 238 244 249 255 254 255 254 253 254 254 255 251 250 246 252 255 255 255 254 254 191 152 140 221 237 231 224 248 255 255 235 165 148 114 152 240 232 227 243 241 249 215 160 173 196 202 206 206 192 199 215 214 195 181 154 176
229 230 215 183 189 186 209 218 191 149 231 255 252 252 252 252 252 251 251 252 240 138 227 241 238 244 249 255 254 255 254 253 254 254 255 251 250 245 252 255 255 255 254 254 191 141 134 196 212 211 211 222 246 255 229 142 133 107 129 237 238 236 240 240 236 226 163 159 162 158 160 166 171 177 181 184 184 184 137 140
228 227 206 196 191 208 226 206 177 151 236 254 252 251 252 252 252 252 251 253 236 137 229 239 237 243 249 255 254 255 253 253 254 254 255 251 249 245 252 255 255 255 251 254 185 104 98 194 215 212 212 211 240 255 226 135 133 109 94 137 162 167 186 175 169 175 154 148 154 166 173 180 185 191 194 192 189 195 173 165
230 220 197 194 189 214 229 207 191 153 239 254 253 252 252 252 252 251 251 253 231 138 231 238 236 243 250 255 254 255 253 254 253 254 255 251 249 245 252 255 255 255 252 254 182 107 104 196 214 212 212 212 240 255 225 127 123 111 87 125 167 197 210 215 221 229 235 232 226 241 252 252 253 253 253 253 253 253 254 254
229 217 199 195 197 206 219 208 199 157 243 254 252 252 252 252 251 251 250 253 227 141 232 237 236 242 250 255 254 255 253 254 253 254 255 252 248 245 253 255 255 255 254 253 188 202 207 211 212 212 211 211 231 255 225 120 116 110 92 134 177 199 209 216 223 232 239 243 242 251 255 255 255 255 255 255 255 255 255 255
216 214 199 200 208 201 214 205 199 157 249 255 255 255 255 255 254 253 252 253 222 146 234 238 236 242 251 255 254 255 253 254 252 254 255 252 248 246 253 255 255 255 255 251 173 207 213 212 212 213 217 230 250 255 228 135 129 118 90 141 182 198 209 214 220 229 237 240 240 251 255 255 255 255 255 255 255 255 255 255
212 204 181 195 209 206 199 204 195 154 223 231 232 234 240 245 248 252 255 255 222 144 213 208 227 243 251 255 254 255 254 254 254 255 255 253 248 247 254 255 255 255 255 253 169 209 215 215 216 224 233 241 249 255 230 154 152 125 105 141 174 198 210 215 220 226 234 240 240 249 255 255 255 255 255 255 255 255 255 255
218 176 174 200 206 206 189 216 201 150 155 158 152 151 161 169 154 157 163 176 172 131 134 124 177 242 252 255 254 255 254 255 254 255 255 254 249 249 254 255 255 244 179 174 164 229 226 224 225 234 241 248 254 255 230 159 157 137 127 123 132 153 172 182 186 205 220 235 240 250 255 255 255 255 255 255 255 255 255 255
207 164 177 210 201 203 183 227 225 147 131 125 128 131 184 209 206 197 178 155 134 173 239 235 228 237 253 254 253 255 254 255 254 254 255 255 252 250 254 255 255 230 147 135 183 252 248 247 250 253 255 255 255 255 230 159 151 139 157 162 148 168 172 175 185 198 196 188 163 170 224 225 223 221 219 216 211 206 204 202
169 155 184 207 198 182 193 235 193 161 209 225 219 217 243 247 253 255 255 255 246 244 252 249 245 251 254 252 251 251 244 248 252 253 253 254 253 252 254 255 255 248 242 239 245 252 254 255 255 255 255 255 255 255 229 158 142 134 163 169 141 216 228 212 193 181 184 192 179 154 175 185 184 189 190 192 193 194 197 200
161 180 200 197 180 173 215 220 215 250 255 254 252 254 253 253 253 251 251 251 253 252 250 253 254 252 253 255 254 253 253 252 253 253 254 253 253 254 255 255 255 255 255 255 254 255 255 255 255 255 255 255 255 255 227 153 138 117 142 162 145 215 242 242 241 230 212 188 162 154 178 212 232 223 217 215 212 208 205 201
197 201 191 188 200 222 236 245 255 254 250 250 250 252 254 253 251 251 252 253 251 250 253 252 251 253 254 253 252 253 253 252 253 255 254 253 255 255 255 255 255 255 255 255 252 255 255 255 255 255 255 255 254 254 227 153 129 132 146 138 125 206 239 239 240 240 242 243 239 225 198 171 174 171 176 183 191 198 206 212
221 218 218 226 234 245 254 255 252 251 250 250 253 253 253 252 251 251 252 251 252 253 252 251 253 255 253 252 252 252 251 253 255 255 255 255 255 255 255 255 255 255 255 255 255 255 255 255 255 255 255 255 252 252 243 220 199 188 187 184 143 196 237 237 240 240 239 240 240 241 243 242 242 255 255 255 255 255 255 255
228 233 234 237 247 251 251 251 250 251 252 252 252 251 252 252 253 252 251 252 253 252 251 253 255 252 253 253 252 251 253 255 255 255 255 255 255 255 255 255 255 255 255 255 255 255 255 255 254 253 252 252 251 253 249 240 228 211 198 195 158 191 233 235 238 238 238 238 238 239 238 238 239 249 255 255 255 255 255 255
249 249 250 248 248 247 247 249 251 251 252 252 251 251 252 253 252 252 252 253 252 252 254 253 252 252 253 252 251 253 255 255 255 254 246 253 255 255 255 255 245 228 235 248 254 254 253 253 253 253 254 254 253 253 250 246 244 242 233 220 192 171 192 213 228 235 236 237 237 237 238 238 238 247 255 255 255 255 255 255
252 252 252 252 252 252 252 251 253 252 252 251 251 251 252 253 252 252 252 252 253 253 252 252 251 252 252 251 253 255 255 255 251 237 231 218 175 145 218 250 229 225 232 246 254 254 255 255 255 255 255 255 254 254 254 253 253 252 254 254 251 241 223 208 190 189 200 218 233 236 235 236 237 245 255 255 255 255 255 255
254 254 255 255 255 254 254 254 255 255 255 255 254 254 255 254 253 253 254 253 252 252 253 252 251 251 252 253 254 255 255 254 251 241 188 167 182 197 220 247 251 255 255 255 254 254 254 254 254 254 254 255 255 253 253 250 250 250 249 252 250 251 255 255 246 225 202 189 184 202 223 235 236 245 255 255 255 255 255 254
