P2
80 80
255
39 39 39 38 38 39 40 41 42 42 43 44 46 45 45 47 46 47 46 46 48 47 47 47 47 49 47 37 35 34 76 92 94 99 106 108 100 108 106 108 109 107 111 111 110 108 100 102 98 105 122 126 119 118 117 121 69 11 16 16 13 68 119 116 115 118 58 13 16 15 12 79 117 114 114 116 46 14 20 19
38 39 38 39 40 40 39 40 42 43 42 45 45 46 46 47 47 46 47 47 47 47 47 48 47 49 44 25 22 22 76 101 97 90 90 91 92 99 97 101 98 98 102 108 108 110 102 100 93 97 113 115 122 122 121 94 78 65 62 78 75 93 99 94 100 107 89 56 50 69 73 96 110 109 108 104 83 47 15 16
38 39 38 40 39 39 39 41 40 41 43 44 46 47 46 47 46 48 48 48 48 49 48 48 50 50 44 24 23 22 80 102 100 90 99 94 95 104 103 106 99 104 107 107 109 112 113 105 106 113 110 106 68 68 59 31 74 82 77 89 96 100 83 80 93 102 99 73 72 99 109 106 104 105 104 101 98 84 62 62
38 39 39 40 38 39 40 42 42 43 43 45 47 46 46 48 47 47 48 47 49 49 49 49 50 51 44 25 23 23 81 104 88 79 83 77 71 79 79 88 71 76 81 105 111 112 105 103 112 113 113 96 19 15 9 15 59 67 60 65 72 76 71 71 66 68 69 67 62 66 82 84 84 84 84 85 95 104 120 118
41 41 40 39 39 41 42 42 44 44 44 45 47 46 48 49 49 48 50 49 48 49 51 50 50 51 46 26 24 23 80 105 89 78 74 67 72 65 69 68 70 64 74 107 110 107 101 111 112 112 112 94 22 19 11 15 58 66 61 61 64 68 71 70 71 72 72 73 72 71 71 70 71 71 66 69 85 101 116 115
41 41 40 40 41 40 41 42 42 42 44 46 47 48 47 48 49 48 50 50 50 51 51 51 49 50 44 25 23 23 81 104 106 101 103 101 99 99 102 104 107 105 97 88 96 91 108 113 111 107 114 98 22 19 10 14 55 69 62 60 67 64 66 66 67 70 70 68 68 68 68 71 67 68 71 70 84 98 116 115
41 40 39 40 42 41 42 44 44 43 44 45 47 47 47 48 47 50 50 50 50 50 50 50 48 50 43 25 23 23 81 105 93 85 83 85 86 93 99 109 105 81 85 84 96 100 96 109 109 112 115 98 23 19 9 14 52 64 63 53 63 69 74 64 65 65 76 70 70 72 67 71 74 68 61 66 87 104 117 115
40 40 40 40 40 41 42 42 43 43 45 45 45 46 49 48 47 50 50 48 48 49 50 49 48 49 43 25 23 23 83 104 93 66 60 53 63 62 80 109 79 87 88 73 100 100 83 100 113 113 115 98 19 15 7 15 52 63 61 58 59 63 69 70 66 66 69 74 71 73 68 66 73 69 73 70 89 104 119 118
41 41 40 39 40 41 41 42 44 45 45 46 46 46 47 47 47 49 50 49 48 49 48 47 47 49 43 25 23 23 82 105 101 94 91 88 86 98 101 102 80 104 94 79 100 82 101 101 111 113 114 103 61 58 32 23 46 56 61 72 73 70 70 71 74 73 72 73 74 74 72 71 71 70 72 74 90 97 86 85
40 41 41 40 41 41 43 42 42 44 46 45 46 47 47 49 48 49 49 50 49 49 48 47 47 48 44 25 23 23 84 105 104 105 104 103 99 97 107 101 83 100 93 77 71 80 106 102 109 112 110 112 124 121 71 39 51 71 65 72 73 72 72 72 73 70 71 70 71 72 73 72 72 73 74 73 92 86 19 18
41 42 42 40 41 41 42 42 44 44 47 46 47 48 47 48 49 48 50 50 50 49 48 47 47 48 44 25 23 23 86 104 106 97 69 65 67 69 106 102 92 72 77 48 63 67 99 100 104 111 112 114 122 116 67 42 64 96 75 69 70 70 71 71 70 68 69 69 69 70 72 73 73 73 73 71 89 88 23 20
40 42 42 40 40 40 41 43 45 45 45 46 47 46 46 47 48 48 47 49 49 49 48 49 50 51 44 26 23 24 86 104 107 99 75 81 76 80 108 97 92 73 63 55 74 68 83 100 108 114 113 114 122 113 65 42 73 107 75 51 54 55 56 54 56 58 57 59 58 57 57 56 55 56 56 56 88 89 25 20
41 42 41 40 41 40 41 41 42 45 45 45 47 46 47 47 47 46 48 48 49 48 49 50 50 51 43 25 23 23 86 106 105 102 110 102 99 109 108 97 92 82 64 92 85 64 86 102 111 112 112 113 122 109 62 42 78 108 73 46 48 48 47 47 50 56 56 56 56 55 48 47 47 47 47 51 87 91 26 21
39 40 40 39 40 40 40 41 43 44 45 45 46 45 45 46 46 46 46 48 48 48 49 51 51 50 43 26 23 24 86 109 89 62 81 61 68 79 77 82 100 80 60 104 104 60 96 101 110 109 109 112 125 108 62 43 90 103 87 87 90 89 88 81 82 79 79 76 76 79 82 83 82 79 68 69 84 84 26 19
39 39 40 39 42 41 41 41 43 43 45 43 43 43 43 43 44 45 46 47 47 49 49 49 49 50 43 25 23 24 84 107 87 69 62 66 61 60 73 82 102 83 80 105 101 75 83 109 112 112 114 111 99 81 46 37 91 100 98 110 111 110 109 85 87 89 100 95 92 100 101 106 101 83 86 95 91 89 48 40
40 39 40 41 42 41 43 44 45 44 45 43 42 43 43 44 45 45 44 47 48 48 50 49 49 51 42 25 23 24 81 96 95 100 101 105 96 98 106 108 111 95 90 99 94 91 107 113 112 112 114 99 24 14 5 17 91 102 101 109 109 108 104 79 81 80 89 100 98 96 90 97 88 56 81 91 97 100 112 114
39 40 40 41 42 42 42 41 43 45 44 43 42 43 44 45 46 46 44 46 48 48 48 48 47 50 42 24 23 24 86 104 91 78 97 98 96 98 99 96 92 76 85 84 85 106 109 109 110 110 113 100 23 12 5 13 92 111 112 112 109 107 101 76 77 82 91 97 99 96 92 94 90 56 63 79 93 101 114 116
40 40 41 42 42 41 42 43 43 44 44 43 43 45 45 46 46 47 44 47 47 47 47 47 49 49 41 23 23 24 81 100 82 55 55 67 74 70 69 64 68 61 67 67 71 98 101 107 111 111 116 102 23 12 5 13 92 109 108 107 102 102 100 80 81 85 93 98 100 98 96 96 100 84 76 86 93 97 112 115
42 40 42 42 41 41 43 43 43 44 44 44 43 45 46 46 45 47 47 47 49 49 46 48 49 49 40 24 23 24 86 103 89 85 89 92 87 88 69 90 97 89 92 93 93 108 109 102 108 114 118 101 23 11 4 14 77 86 89 83 101 105 101 94 92 89 99 102 100 85 88 99 100 82 80 92 98 96 111 115
42 41 41 42 41 42 43 44 44 44 45 45 45 44 44 46 46 46 46 48 48 49 48 48 49 51 41 24 23 25 89 108 104 101 111 105 103 112 108 112 112 103 110 104 108 111 112 108 105 114 116 96 21 9 4 14 79 84 85 78 95 98 100 97 97 95 101 100 93 86 90 99 98 87 92 90 96 98 112 116
42 42 42 42 42 43 43 42 44 45 45 45 45 44 46 46 47 46 46 48 47 47 49 49 51 52 42 25 24 26 87 105 104 99 104 99 107 109 108 108 108 101 106 101 107 109 110 108 104 112 113 97 32 16 10 16 91 94 86 72 94 99 95 99 102 101 90 86 84 84 82 98 100 92 92 93 95 96 105 107
42 42 41 42 42 43 43 43 44 44 45 45 45 44 45 46 48 47 47 47 48 47 48 49 50 51 42 25 24 26 90 109 106 93 97 97 104 101 111 111 111 102 108 101 107 113 114 107 105 113 112 112 110 67 52 38 91 104 90 86 100 98 93 96 96 86 80 83 81 90 92 100 102 100 92 98 94 94 46 29
41 41 41 42 42 41 43 44 45 45 45 46 45 45 47 47 46 47 46 47 49 49 49 50 51 51 42 26 25 26 89 106 100 85 89 94 103 105 108 108 108 102 106 100 100 105 104 101 107 109 108 111 116 70 56 41 92 111 104 86 84 84 97 98 87 79 74 80 93 101 101 98 100 95 88 96 96 93 42 18
42 42 42 43 41 43 44 44 45 46 45 45 45 46 46 47 45 46 46 46 49 47 49 50 51 51 43 25 25 27 89 104 96 97 98 106 109 110 109 109 109 109 110 101 98 100 102 109 112 111 111 112 113 66 56 42 92 109 103 81 76 68 88 87 81 82 76 88 98 102 98 87 94 95 83 90 98 82 38 19
43 42 42 43 43 42 45 45 46 45 44 46 47 46 46 46 46 47 46 46 48 47 50 50 50 52 42 25 24 27 84 97 96 104 104 112 110 110 110 110 110 110 110 102 102 105 111 110 110 110 109 108 109 64 56 42 93 110 108 97 76 79 88 89 72 85 89 100 102 101 91 81 94 92 73 81 99 82 38 19
43 44 43 44 42 39 35 28 27 30 55 45 46 45 46 43 45 48 47 46 47 47 48 49 51 52 42 25 24 27 89 102 99 102 104 108 107 107 107 107 107 107 107 101 105 100 108 109 109 109 107 106 106 63 56 42 87 101 107 101 79 87 97 93 86 99 101 101 96 84 79 88 100 85 70 74 98 86 38 19
41 36 28 21 15 10 8 7 16 23 66 40 41 41 41 23 35 51 50 50 49 49 49 51 52 52 42 25 25 28 94 102 104 102 105 110 111 111 111 111 111 111 110 102 110 102 107 112 111 111 107 108 100 60 55 41 72 88 103 109 109 106 93 96 98 106 104 97 77 72 92 105 100 84 70 74 97 93 42 18
12 7 5 5 6 7 7 8 18 33 65 35 38 38 41 20 29 46 45 46 47 48 49 50 52 53 52 29 24 29 94 100 102 86 91 95 99 98 97 98 106 109 108 100 108 105 101 108 108 105 110 100 36 16 15 20 64 79 83 101 108 106 104 103 104 103 102 100 86 89 102 102 94 87 70 90 95 93 91 90
6 6 6 7 7 7 7 8 20 49 61 34 37 37 41 22 25 42 42 42 42 43 45 46 47 50 50 29 24 29 90 101 104 92 97 99 98 99 98 105 109 109 109 101 108 110 101 109 108 107 112 97 18 4 3 13 62 80 77 94 106 105 105 103 104 103 102 100 99 100 98 99 86 79 74 97 99 92 105 116
12 14 8 8 7 7 7 8 22 52 51 32 36 36 42 29 24 39 40 40 40 41 42 43 44 46 46 28 23 29 90 109 100 88 108 108 107 112 115 114 114 115 115 106 115 116 108 105 112 113 112 97 19 3 5 14 58 71 68 92 107 106 103 100 99 97 95 94 90 91 92 91 91 80 80 101 98 91 102 113
21 16 14 22 21 12 7 8 21 35 50 31 34 37 45 40 26 37 38 38 40 39 40 40 42 44 44 27 22 28 93 113 101 85 98 98 97 105 107 106 105 104 104 104 105 105 105 108 114 114 110 95 39 18 4 13 68 76 82 103 100 102 102 100 99 97 98 98 98 101 102 102 97 84 83 102 98 90 102 113
29 30 31 31 28 15 7 9 18 20 36 25 30 36 43 43 26 28 37 36 38 38 38 39 39 41 40 34 65 70 91 88 79 83 85 85 87 89 66 60 60 56 59 70 69 59 81 97 99 103 106 101 107 65 2 13 77 84 100 105 91 88 103 103 101 97 94 95 101 105 104 105 102 93 98 104 99 89 101 114
30 32 31 27 25 13 7 9 14 8 7 8 10 12 14 16 15 13 20 22 26 33 34 35 36 37 36 36 87 79 77 71 75 79 79 81 79 85 88 90 92 101 110 120 126 125 125 132 130 128 127 135 131 74 0 12 75 85 112 106 95 92 105 106 100 97 93 93 87 92 107 110 109 105 108 106 102 93 102 114
15 14 10 12 17 10 7 9 13 64 76 63 54 45 37 29 22 15 10 8 33 61 53 53 52 51 52 55 84 73 83 90 92 93 94 92 86 88 86 99 97 92 101 127 129 105 106 113 112 108 105 105 104 70 30 28 65 94 117 113 104 93 100 100 103 100 100 102 89 84 106 110 107 96 99 106 102 85 84 91
6 6 9 10 15 11 7 8 13 103 127 125 124 123 120 117 109 99 90 64 73 128 124 97 90 87 82 86 88 92 88 99 128 131 114 95 98 94 95 94 87 84 27 29 51 17 39 56 60 59 56 53 51 41 44 41 59 81 88 86 81 73 70 74 73 78 86 85 70 65 81 82 79 68 64 75 70 71 72 82
22 19 20 26 9 7 7 9 16 103 99 95 97 98 101 103 112 114 113 86 72 123 98 78 88 86 82 86 87 90 87 105 132 132 111 96 100 102 115 125 124 135 69 12 11 10 10 10 11 12 11 11 11 14 17 22 23 19 19 20 21 21 21 22 20 21 22 25 27 27 24 24 26 26 25 22 5 48 71 76
18 13 11 11 7 7 7 9 18 107 108 102 102 102 101 95 95 96 98 85 76 101 77 77 85 86 83 87 88 91 87 109 132 130 108 95 98 102 114 123 120 133 76 36 62 65 64 61 55 44 33 23 33 33 21 19 37 45 42 31 40 55 58 59 51 39 59 53 37 51 62 60 65 71 64 38 8 53 69 81
7 7 8 8 9 10 11 9 20 113 120 112 110 111 108 106 105 110 108 85 62 75 75 75 83 86 84 88 89 92 89 113 132 128 105 96 97 104 114 123 121 134 71 43 81 77 76 74 67 62 63 63 77 40 20 29 39 45 44 33 39 57 58 59 59 42 56 42 33 47 57 57 55 54 53 38 7 59 81 84
10 10 11 10 11 11 9 8 24 113 110 106 108 106 105 103 104 100 99 82 48 68 76 75 81 84 83 88 90 93 89 116 132 126 102 96 95 104 114 123 122 134 67 55 116 115 116 117 118 119 120 123 113 37 31 34 25 22 22 24 25 24 24 28 27 23 19 19 21 20 19 19 18 18 17 16 4 56 90 82
10 9 8 8 8 8 7 8 27 115 110 105 108 107 106 103 102 97 99 77 42 69 75 74 80 82 82 89 91 93 89 118 132 124 100 95 93 105 113 123 123 134 64 57 114 114 117 116 116 117 118 120 109 40 44 27 5 4 4 4 4 4 4 3 2 2 1 1 1 1 0 0 0 0 0 0 0 46 79 84
10 8 7 7 7 7 8 8 31 117 108 106 108 107 104 104 104 97 100 71 40 70 75 74 78 81 81 89 92 92 89 120 131 123 97 95 93 105 113 123 124 133 61 51 92 95 98 109 117 117 118 120 109 36 29 39 54 56 56 54 54 57 57 56 56 56 55 54 53 54 51 50 49 47 46 39 20 51 64 80
8 9 10 10 10 11 11 8 34 118 108 106 106 106 105 105 102 98 100 66 41 71 75 73 77 79 81 90 92 92 90 122 130 120 95 95 92 106 114 122 125 131 59 51 85 82 83 110 116 117 118 120 108 38 33 53 113 118 117 120 121 123 123 122 120 125 126 125 125 126 125 123 120 121 119 109 53 65 69 86
10 11 11 11 11 11 10 7 39 118 106 105 107 106 104 106 101 98 100 59 41 71 74 72 76 78 81 90 93 91 91 124 130 118 92 96 92 107 114 122 127 128 56 58 103 100 94 110 116 116 117 120 107 39 38 52 103 102 105 107 107 105 105 105 104 114 117 118 122 121 121 120 123 130 125 111 54 67 71 87
10 10 9 9 9 9 8 7 43 122 109 106 107 105 106 103 102 103 103 54 43 71 74 72 76 77 82 90 94 90 92 126 129 115 91 96 92 107 115 122 129 126 54 60 112 115 111 114 115 116 116 119 105 39 39 47 86 81 83 88 88 88 85 77 78 88 107 108 117 114 118 122 122 127 119 99 56 66 65 86
10 7 7 7 7 7 8 7 48 122 109 106 105 104 105 102 102 102 105 49 44 71 74 72 76 76 83 89 94 89 93 127 128 112 90 95 92 107 115 122 130 124 52 46 102 114 114 115 116 116 116 119 104 38 38 49 95 81 87 96 96 98 96 81 79 85 98 103 106 108 111 115 113 109 101 85 45 59 67 84
9 9 8 7 8 8 9 7 53 117 103 107 107 103 103 102 102 95 98 45 45 71 73 71 76 76 85 89 94 87 95 128 127 109 89 94 92 106 116 122 131 122 49 57 106 114 115 115 115 115 117 119 104 37 36 49 93 77 86 92 90 86 78 65 66 71 81 92 96 102 102 99 99 99 96 79 47 58 63 79
9 10 10 11 11 11 12 8 58 120 106 105 110 105 106 100 102 96 98 40 47 71 72 71 76 76 86 90 95 86 97 129 126 107 89 92 92 105 115 122 132 118 48 52 103 103 109 112 101 104 112 115 102 37 36 44 69 59 65 67 67 67 67 67 71 78 83 97 95 87 98 101 95 113 111 101 88 83 90 93
11 11 11 11 11 11 12 8 63 118 107 114 114 113 110 108 104 100 99 36 49 71 71 71 76 78 87 90 95 85 100 130 125 105 88 90 92 103 116 122 132 116 47 55 80 81 78 85 78 88 86 90 98 38 39 36 53 60 64 66 67 69 72 73 75 80 84 100 94 87 114 105 106 131 131 119 101 94 111 112
10 9 8 8 8 8 9 8 69 122 105 109 113 108 110 110 108 106 102 32 51 71 70 71 76 78 88 91 95 83 102 131 123 103 88 88 91 102 115 123 131 112 44 65 90 91 87 90 90 86 89 91 99 38 38 36 55 61 65 66 66 69 72 72 75 80 84 103 96 94 114 107 106 103 114 103 108 100 107 92
10 9 8 7 7 7 8 9 74 117 107 103 106 105 103 104 101 96 96 30 53 71 70 71 76 79 89 92 94 83 105 130 121 101 89 86 91 101 115 124 131 110 43 78 109 110 112 114 115 115 115 108 98 35 35 36 54 59 63 64 64 67 71 73 76 80 84 100 95 97 118 109 114 95 100 98 109 110 101 93
8 8 9 8 7 8 9 8 79 114 106 105 107 104 104 102 100 97 95 28 55 71 69 71 75 80 89 92 94 81 107 130 120 99 89 85 90 100 116 125 129 107 42 76 89 94 95 93 98 98 103 119 100 36 39 35 51 56 60 62 64 66 70 74 77 80 86 109 97 94 107 110 112 104 98 105 106 97 99 86
10 9 9 10 10 10 11 9 84 114 106 105 109 102 105 104 98 95 93 26 57 71 69 71 75 82 89 92 93 80 109 130 119 98 89 83 90 101 116 126 129 109 41 77 100 98 102 99 102 100 102 118 99 36 38 35 51 57 61 64 65 67 70 73 78 80 87 118 98 83 95 107 121 115 102 101 92 96 104 90
10 10 10 10 10 10 10 11 89 115 105 103 105 103 103 104 98 92 90 24 59 70 68 71 75 83 90 93 93 79 111 129 117 97 90 81 90 101 117 127 126 105 40 71 89 96 90 93 98 96 99 118 97 35 38 34 50 56 60 63 65 66 69 72 77 80 85 103 86 78 97 107 119 116 104 95 86 90 95 93
9 7 7 7 7 7 8 11 93 111 105 103 107 105 99 102 103 94 88 23 60 70 68 72 75 84 90 94 92 80 114 128 116 95 89 80 90 102 118 127 122 102 39 78 97 102 99 99 101 100 104 116 96 35 37 32 44 48 50 55 57 56 58 61 64 67 69 105 109 106 113 118 120 116 109 106 103 107 108 109
8 7 6 6 6 6 8 13 98 109 107 108 104 103 103 101 98 98 85 23 61 70 67 71 75 85 90 94 90 80 117 127 114 94 89 78 91 102 118 127 121 102 38 89 108 107 109 111 113 113 113 116 95 34 37 29 35 43 48 52 54 55 56 57 60 65 71 126 132 117 133 135 134 137 120 97 106 128 128 127
6 6 7 7 7 7 7 16 101 106 105 107 103 103 105 101 97 98 82 23 62 69 67 72 75 87 90 94 89 82 119 125 113 93 88 77 91 104 119 128 120 103 38 90 106 107 108 109 111 111 112 115 93 34 36 30 38 44 50 55 56 56 58 59 61 65 70 125 130 108 129 135 136 136 116 83 102 112 108 101
6 7 7 7 6 6 7 18 105 109 106 104 104 103 101 101 97 99 79 23 63 69 67 72 76 88 91 94 88 83 122 124 112 92 88 77 91 105 119 128 115 98 39 92 106 106 107 108 110 111 111 114 91 33 33 30 39 44 49 54 56 55 56 58 60 63 67 114 123 113 122 124 125 125 112 99 107 125 124 122
7 8 7 8 18 20 16 20 107 107 107 105 105 103 102 102 98 97 75 24 64 69 66 72 77 89 91 95 86 86 123 123 111 91 87 77 92 107 119 129 113 98 38 91 104 106 107 108 108 109 110 114 89 30 32 27 31 39 47 52 55 54 54 59 62 68 51 18 18 21 20 21 23 24 24 26 28 29 27 26
7 6 5 12 58 62 40 23 110 108 105 103 107 101 102 103 99 98 72 24 64 68 66 72 77 89 91 95 85 89 125 122 109 90 85 77 92 108 119 129 115 100 27 25 29 90 108 107 108 108 109 113 87 31 33 24 30 43 50 54 59 63 63 63 66 74 51 9 37 20 19 21 17 3 3 2 8 22 23 14
14 16 16 19 40 47 32 27 113 109 104 109 112 108 106 105 101 99 68 26 64 67 66 72 78 90 91 94 84 92 125 120 108 89 84 77 92 109 119 129 108 97 24 10 9 86 108 107 107 108 108 112 85 32 34 26 33 41 48 54 58 62 63 63 66 73 51 13 60 37 39 42 23 3 4 6 19 19 20 20
55 57 48 45 55 56 33 31 117 109 104 106 108 108 106 107 105 108 64 27 64 67 65 72 79 90 92 95 83 96 124 120 108 89 84 78 93 110 119 129 104 95 27 19 17 89 108 107 107 108 108 112 84 30 31 26 37 50 53 54 60 62 58 55 59 65 44 3 5 11 16 18 19 19 22 31 36 41 45 42
51 50 47 46 48 50 29 36 116 107 106 106 104 104 99 100 97 100 59 29 64 66 65 72 81 91 92 95 82 100 121 121 108 89 83 79 94 111 119 128 101 94 28 28 29 91 108 106 107 107 108 111 83 30 32 22 53 91 88 88 90 90 57 21 20 18 12 13 21 30 35 37 36 38 37 25 34 76 79 78
49 51 49 52 51 56 29 40 117 106 106 105 107 105 100 101 96 99 55 30 64 65 64 71 82 91 92 94 81 103 117 121 109 89 81 79 95 111 119 128 100 92 26 26 26 92 109 108 106 107 107 111 82 31 31 11 44 76 64 62 73 86 73 23 18 24 38 40 42 41 38 49 47 44 38 19 33 65 62 74
54 53 52 48 47 50 21 45 117 107 104 106 106 102 100 100 94 100 51 31 63 64 64 71 83 90 92 93 81 106 112 121 108 88 79 80 96 112 119 127 103 91 25 19 17 72 82 75 67 100 108 110 80 24 20 7 47 77 69 69 81 76 80 36 24 35 46 50 51 49 39 55 59 53 40 24 28 57 61 75
42 28 30 28 44 42 16 51 122 108 105 109 107 105 101 100 95 101 46 33 63 63 64 71 84 91 92 92 82 109 107 121 108 88 78 81 97 112 119 125 104 90 21 14 14 46 52 51 52 67 97 111 73 16 15 6 37 80 78 78 81 80 77 50 23 28 25 23 25 28 31 34 36 37 39 26 9 47 63 75
36 33 30 43 50 34 12 56 120 108 104 106 107 106 102 101 96 101 42 34 62 62 63 71 85 90 92 92 83 110 101 122 109 88 78 82 98 113 121 122 97 88 16 5 8 47 54 53 53 52 91 111 67 13 15 9 8 15 21 25 31 26 27 27 19 19 26 34 37 39 40 43 45 42 44 42 36 46 55 62
32 32 31 45 54 36 17 61 118 109 107 106 107 105 100 100 95 100 39 35 61 61 63 71 86 89 93 90 86 109 95 122 111 87 78 82 100 113 122 120 96 86 16 10 12 48 54 53 53 54 92 110 67 11 13 9 6 11 22 33 40 44 49 57 60 54 64 90 91 90 90 93 94 94 94 95 96 98 99 100
34 32 34 38 47 39 18 67 118 110 107 106 108 103 99 97 97 100 35 36 60 60 62 71 87 89 93 90 90 108 90 122 114 88 79 83 102 113 122 119 104 82 29 48 50 53 53 53 52 51 80 110 67 9 12 9 7 13 25 35 40 45 52 61 67 66 89 119 118 116 116 117 119 119 118 116 116 119 119 119
35 35 38 36 43 39 18 73 126 120 117 112 116 108 103 102 96 100 33 37 59 59 62 72 87 89 93 89 94 104 85 118 117 90 80 83 104 112 123 117 108 78 27 51 53 53 53 54 58 74 102 109 70 14 15 10 6 16 26 34 40 43 49 58 65 64 92 125 122 120 118 118 119 119 117 116 117 119 119 117
27 34 39 37 32 42 18 56 94 93 95 99 104 105 107 109 109 107 30 33 49 47 60 72 87 88 94 88 98 106 85 114 121 93 82 84 106 112 124 116 111 76 27 53 55 55 56 64 73 83 96 109 74 20 22 12 8 16 25 34 40 43 48 54 63 64 85 123 119 118 117 116 118 118 117 116 116 116 117 115
26 37 38 37 30 50 23 16 17 16 16 18 24 22 24 30 39 52 20 16 18 16 48 73 88 88 94 88 102 105 87 108 126 98 86 87 107 113 130 77 42 33 47 71 65 64 65 75 86 96 105 110 74 22 24 14 12 12 14 20 26 29 34 43 55 62 77 123 122 121 120 121 122 122 121 120 120 120 121 120
29 40 34 33 33 61 37 11 10 10 10 16 37 45 48 44 32 20 17 54 58 58 55 74 89 84 92 89 107 101 88 103 128 106 91 89 108 113 123 46 8 11 56 84 80 83 93 107 109 108 107 110 73 22 21 13 18 18 19 23 22 28 37 39 36 31 28 80 94 92 88 86 86 83 79 76 75 72 70 69
33 36 32 25 44 55 25 39 60 60 53 60 72 77 85 93 94 89 81 91 85 74 73 97 99 88 90 79 89 93 98 99 110 102 94 94 103 110 113 95 91 90 93 92 101 111 116 116 112 107 108 111 72 21 18 12 19 18 30 59 49 40 32 31 35 35 22 30 40 41 42 43 42 43 44 44 45 46 49 50
35 29 23 30 49 50 71 92 90 83 85 89 94 95 92 88 89 90 88 85 91 92 87 97 106 106 103 102 100 105 105 105 104 101 103 108 116 122 123 122 117 111 110 115 118 118 115 113 112 109 109 112 71 18 15 9 16 17 28 65 66 67 62 54 41 28 20 30 54 68 63 59 56 53 51 48 46 43 42 41
28 32 41 55 72 88 92 87 86 85 89 95 99 93 91 91 94 92 88 93 94 89 92 97 94 93 95 97 94 97 103 105 95 99 112 118 125 123 121 120 117 110 111 116 115 115 113 112 111 111 104 105 66 17 13 14 16 13 24 61 63 66 66 66 67 65 59 46 30 31 42 48 55 60 65 71 77 83 89 94
49 54 67 84 92 89 86 87 85 90 95 96 96 93 92 95 92 91 96 96 90 95 101 96 95 96 94 91 96 103 111 112 106 100 109 124 125 122 121 120 118 117 116 115 114 115 114 113 112 111 88 79 68 47 35 28 27 23 22 57 61 65 66 65 66 66 65 66 66 68 113 126 125 125 124 125 124 123 122 122
62 70 78 80 81 81 83 86 90 89 89 89 93 95 94 91 92 96 94 92 97 101 95 96 97 94 93 98 105 113 120 113 112 115 115 128 124 123 123 122 119 116 115 115 114 113 108 101 96 89 83 82 74 61 49 37 31 28 22 51 58 62 64 63 64 64 64 64 64 64 100 123 121 120 120 121 120 119 119 119
73 73 72 71 74 78 80 85 88 82 83 87 93 92 90 91 93 91 91 96 96 92 94 97 94 91 98 105 113 121 118 91 101 123 116 126 126 117 92 90 100 107 108 106 100 95 89 87 87 86 86 85 80 74 71 66 55 43 27 29 40 51 59 59 61 62 62 63 63 62 91 121 119 119 119 120 119 119 119 120
80 80 79 79 77 81 83 83 81 79 80 83 88 87 88 87 89 91 92 89 89 90 91 91 90 96 104 112 121 109 74 63 65 64 22 59 112 80 62 73 83 93 96 98 98 98 98 97 97 96 96 96 93 92 90 90 91 87 81 68 52 36 32 38 47 57 60 61 61 61 85 122 120 120 120 119 119 119 119 119
86 87 87 85 84 86 87 87 87 86 86 88 90 87 88 89 88 86 85 86 86 86 87 90 95 101 112 120 110 87 86 54 29 35 44 52 82 90 97 98 99 98 95 97 97 96 96 96 95 96 92 92 87 84 83 82 86 84 83 87 93 83 63 47 38 32 39 51 59 60 83 115 114 113 112 112 110 106 101 96
