P2
80 80
255
41 40 40 39 38 39 39 40 41 42 43 43 45 46 46 45 47 46 47 47 46 48 47 46 47 47 49 47 37 35 33 65 92 93 98 105 109 100 107 106 108 109 107 109 110 110 108 101 102 100 102 120 124 120 117 116 120 76 12 16 16 13 61 118 115 114 117 64 13 16 15 11 72 116 113 112 116 50 13 19
39 39 39 38 39 41 41 40 40 42 43 42 45 45 46 46 46 47 46 47 47 47 47 47 49 47 48 45 26 22 20 62 100 99 91 90 91 91 99 97 100 98 97 101 106 108 110 102 100 94 93 110 115 121 122 121 98 76 66 60 76 74 89 101 93 98 105 91 57 47 65 71 92 109 108 107 103 83 51 15
39 39 39 39 40 40 39 39 41 40 41 43 44 46 47 47 47 47 47 48 48 48 49 48 48 50 50 45 25 23 20 67 102 101 91 97 95 92 103 101 106 99 101 106 107 108 111 112 107 104 113 109 111 74 67 61 31 66 84 75 87 94 99 85 78 91 100 100 75 69 95 107 105 103 103 103 100 98 85 62
40 39 40 40 40 39 39 40 42 42 43 43 45 47 46 45 48 47 47 48 48 49 49 49 49 50 51 46 26 23 20 66 104 93 78 83 79 71 78 79 87 75 74 79 99 111 112 107 100 110 113 112 106 30 14 9 11 53 68 59 64 69 76 71 70 66 66 67 66 61 64 78 83 83 83 83 83 93 99 118
40 40 42 40 40 40 41 42 42 44 44 44 45 48 46 48 49 49 48 50 49 49 49 51 51 49 51 47 27 24 21 66 104 96 76 77 67 69 68 66 69 70 64 69 101 110 108 101 108 112 112 111 105 32 18 12 11 52 66 61 60 63 66 70 69 70 70 71 71 71 70 70 69 69 71 65 66 82 97 114
39 41 41 40 40 41 41 41 42 43 42 44 46 47 48 47 48 49 48 50 50 50 51 51 51 49 50 45 26 23 20 66 104 105 101 103 101 97 101 98 105 105 107 98 87 96 88 103 112 111 109 111 109 33 18 11 10 49 69 62 57 67 62 66 65 66 68 69 66 67 66 67 70 66 67 70 68 81 94 114
40 41 41 39 40 42 41 41 43 44 43 44 44 47 47 47 48 47 49 50 50 49 50 50 50 48 50 44 26 23 20 66 104 97 86 81 87 84 93 96 107 108 84 84 82 95 98 96 106 109 111 113 109 34 18 10 10 47 63 62 54 59 68 73 65 63 64 73 70 69 70 67 68 73 68 60 63 82 101 114
39 40 41 40 40 40 41 42 42 43 43 45 45 45 46 49 48 47 50 50 48 48 48 50 49 48 49 44 26 23 20 67 104 100 67 64 52 61 62 72 106 86 81 92 70 95 103 84 94 111 112 112 109 31 14 7 12 46 62 61 57 58 61 66 70 65 65 67 73 71 70 68 65 72 68 71 68 84 100 117
39 41 42 41 39 40 42 41 43 43 44 45 46 46 46 47 47 47 49 50 49 48 49 48 47 47 49 44 26 23 20 67 105 103 94 92 88 85 94 100 105 79 101 99 76 99 83 96 102 108 113 113 109 66 57 33 21 41 55 57 71 72 69 69 70 72 72 71 71 73 73 72 70 69 70 70 72 84 97 86
39 41 42 41 40 41 41 43 43 42 43 46 46 46 47 47 49 48 49 49 50 49 49 48 47 47 48 45 26 23 20 68 106 103 105 103 105 99 97 105 105 83 98 95 78 75 72 104 103 105 112 109 109 122 122 75 40 45 70 64 71 71 72 71 72 72 70 70 70 70 71 72 71 71 72 73 71 86 92 26
41 41 42 42 40 41 41 43 42 44 44 47 46 47 48 47 48 49 48 49 50 49 50 48 47 47 48 45 26 23 20 70 105 105 102 74 65 67 67 98 104 96 72 79 52 60 64 92 102 101 110 111 112 120 117 70 42 56 93 79 67 69 69 70 71 70 67 67 69 68 68 71 72 72 72 72 70 82 93 31
41 40 42 42 40 40 40 41 43 44 46 45 46 46 46 46 47 48 48 47 49 49 49 48 49 50 51 46 26 23 20 71 104 106 103 78 78 79 76 103 101 92 77 65 53 73 67 78 99 103 113 112 112 120 115 67 42 63 104 83 49 53 53 55 53 55 56 56 57 57 56 56 55 54 54 56 53 80 94 34
41 41 42 42 40 41 40 41 42 42 45 45 45 47 46 47 48 47 46 48 48 49 48 49 50 49 51 45 26 23 19 70 106 106 101 109 104 97 107 108 99 93 82 70 81 94 61 80 100 108 113 112 111 120 112 64 42 66 107 82 46 46 47 46 47 48 54 55 56 55 55 48 46 46 46 47 47 79 95 35
41 40 40 40 39 40 40 40 41 43 44 45 45 45 46 45 46 45 46 46 48 48 48 49 51 51 51 45 26 23 20 70 108 99 60 80 66 64 78 79 78 97 89 56 96 108 65 86 100 109 109 109 109 122 111 63 42 77 105 88 85 88 88 87 81 81 78 79 74 75 77 81 81 80 79 68 67 78 88 35
41 40 39 40 39 42 41 41 40 43 43 45 43 43 43 43 43 44 45 46 47 47 49 49 49 49 50 44 26 23 21 69 107 95 69 63 64 64 58 70 78 100 89 76 101 105 79 78 105 111 111 112 112 101 84 47 35 77 102 96 106 111 109 110 89 84 88 97 96 90 97 100 104 102 85 81 93 90 91 55
41 40 40 40 41 43 41 43 44 46 44 45 43 43 43 43 43 45 45 44 47 48 49 49 49 49 50 44 26 23 21 67 97 94 98 99 105 98 96 104 107 110 99 89 97 97 89 103 112 112 112 112 110 36 14 5 10 77 104 99 106 109 106 106 82 78 80 84 98 97 95 89 93 93 57 75 89 95 98 109
39 39 40 41 41 43 42 43 41 43 45 44 43 42 43 44 45 46 46 44 46 47 48 48 48 47 50 44 24 23 21 70 104 97 76 95 100 97 98 101 97 94 78 83 85 82 102 109 109 109 109 110 111 36 12 5 7 76 111 111 111 109 106 103 79 75 80 88 94 98 95 91 91 94 59 59 75 89 98 110
40 41 41 41 42 42 42 42 43 43 44 44 43 43 45 45 46 46 47 44 47 47 47 47 47 49 49 43 24 24 20 67 99 91 55 57 65 79 75 72 64 69 63 64 69 67 92 101 104 110 110 113 116 37 12 5 7 76 109 107 107 103 100 102 83 79 83 90 96 99 98 95 94 99 87 73 84 90 96 108
41 42 41 42 43 42 41 43 44 44 44 45 44 43 45 46 46 45 47 47 47 49 50 47 47 49 49 42 25 23 20 70 104 93 84 88 93 89 89 74 82 98 91 91 93 92 105 109 103 104 114 119 118 36 11 5 7 66 85 89 82 95 105 101 94 93 87 96 100 100 87 84 96 100 84 77 88 96 95 106
42 42 41 42 42 41 42 43 45 45 44 45 45 44 44 44 45 45 46 46 47 48 49 48 48 48 50 43 25 23 21 73 109 105 99 110 108 101 111 109 111 112 105 107 106 105 111 111 110 105 117 120 113 34 9 5 7 67 85 83 79 89 98 99 96 96 94 99 99 95 84 88 96 99 85 91 87 93 96 107
42 42 42 43 42 43 44 43 43 44 45 45 45 45 43 46 46 47 47 46 47 47 47 48 49 51 52 44 26 24 22 71 105 104 99 103 100 105 109 108 108 108 103 104 102 104 108 109 110 106 114 115 109 43 16 10 9 75 98 87 73 87 99 94 96 101 100 92 85 84 83 79 93 99 92 91 90 93 94 101
43 42 42 41 42 43 43 43 43 44 44 45 45 45 44 45 45 47 47 47 47 48 47 48 49 50 51 44 26 24 21 74 109 108 94 97 96 104 100 109 111 111 104 106 103 104 112 113 112 105 114 112 111 111 71 51 36 75 106 92 84 97 98 93 93 96 86 80 80 80 86 90 96 101 100 92 95 93 94 61
42 41 42 41 42 42 41 43 44 45 46 44 46 45 45 47 47 47 47 46 47 49 49 49 50 51 51 44 27 25 22 73 106 104 87 90 94 102 105 107 108 108 103 105 102 98 104 105 102 106 108 107 108 117 74 56 41 75 111 106 88 83 82 94 98 88 79 74 75 89 99 99 97 98 96 87 93 95 93 59
42 43 43 43 43 42 44 45 43 45 47 45 45 45 46 46 46 45 45 46 46 49 47 48 50 50 50 45 26 25 23 74 105 98 97 98 105 108 110 109 109 109 109 110 103 98 100 101 106 111 110 110 111 114 70 55 41 75 110 104 86 75 68 82 89 80 81 75 83 95 101 98 88 89 96 84 85 98 85 53
43 43 43 42 43 43 42 44 45 47 45 45 45 47 45 46 45 46 47 46 45 48 47 49 50 50 52 44 25 24 22 70 97 94 103 102 111 110 110 110 110 110 110 110 103 102 102 110 110 109 109 109 107 111 67 55 41 75 110 107 101 77 78 83 91 73 80 85 97 100 101 93 80 88 94 76 74 96 86 51
44 43 44 43 44 44 42 39 34 28 26 33 56 44 46 46 45 42 47 47 46 46 47 47 49 51 52 44 26 24 22 74 104 98 103 102 108 107 107 107 107 106 107 107 101 104 100 106 108 108 108 107 106 110 65 56 41 72 102 105 104 81 83 94 95 83 96 99 100 96 87 78 82 98 89 72 67 94 89 53
43 43 41 33 27 20 13 9 7 7 17 31 66 38 41 42 39 21 42 51 50 49 49 49 51 52 53 45 27 25 23 78 105 101 105 104 110 111 111 110 111 110 110 111 103 107 105 103 111 110 111 107 109 105 61 54 41 59 88 97 107 109 107 95 94 95 104 103 100 80 71 85 102 102 86 74 66 92 94 61
39 18 10 6 5 5 6 7 7 8 19 41 63 35 38 39 38 17 35 46 45 47 47 49 49 50 52 53 43 24 22 78 101 103 89 90 94 99 98 97 97 103 108 108 101 104 107 99 107 107 105 107 108 45 16 15 15 52 79 79 94 107 105 104 101 102 102 100 100 89 83 99 100 95 89 71 82 95 92 91
36 8 6 6 7 7 8 8 7 8 24 55 60 34 37 38 39 18 31 42 42 42 43 44 45 46 48 51 43 24 23 77 100 106 93 96 99 98 99 97 103 108 109 109 102 105 110 103 105 109 105 110 107 28 3 4 6 50 77 77 86 106 104 104 102 102 103 101 100 98 99 97 97 90 80 71 91 98 93 97
36 10 14 14 7 9 6 7 7 8 27 56 49 32 36 37 41 25 28 40 40 40 41 41 43 43 45 48 41 24 23 76 106 107 84 105 108 107 110 115 114 114 114 115 107 111 115 111 103 110 113 111 107 29 2 5 7 49 66 70 81 106 105 103 100 98 97 94 93 90 90 92 90 90 83 74 96 98 91 95
34 12 20 16 15 23 20 9 7 9 23 40 49 31 34 39 45 36 27 38 37 38 40 39 40 41 42 45 39 23 21 77 112 108 83 97 98 96 102 108 106 105 104 104 103 105 104 104 106 113 114 110 103 44 25 8 6 55 74 80 96 102 100 102 99 98 96 96 97 96 99 100 101 98 88 76 99 98 90 94
33 14 31 31 32 31 27 11 7 9 19 24 34 25 30 37 43 40 23 32 37 37 39 38 38 39 40 42 35 51 68 86 94 79 79 85 84 85 92 78 60 60 58 57 64 75 60 67 93 97 100 103 101 100 97 21 4 60 85 93 105 95 84 100 102 101 96 94 94 97 103 103 103 102 94 93 104 99 91 93
33 15 33 33 30 27 24 11 8 9 19 12 7 8 9 11 13 15 13 15 19 20 23 29 34 35 36 38 31 66 85 79 73 74 79 79 80 81 80 87 89 92 97 106 115 123 125 117 116 121 119 116 114 123 109 24 1 59 82 106 109 97 88 101 105 101 96 92 92 87 87 103 108 109 105 106 106 102 95 94
31 10 16 13 9 15 17 9 7 10 17 29 79 69 59 50 41 33 26 19 12 8 10 44 56 52 53 50 49 71 79 80 85 87 92 93 97 100 101 104 108 112 104 98 103 116 116 100 103 109 107 104 104 103 96 40 25 51 84 115 113 106 94 96 101 100 100 98 101 93 81 99 109 108 97 95 103 104 87 82
31 7 5 7 10 11 15 9 7 10 14 43 128 124 125 124 121 119 114 105 94 84 45 99 129 103 90 88 84 81 86 90 90 87 113 131 127 103 98 94 96 92 91 85 52 19 27 23 51 58 59 57 54 51 48 41 41 49 75 87 85 82 76 66 75 71 75 82 85 74 63 75 81 80 70 62 71 73 60 75
26 11 24 17 24 23 6 7 7 10 15 48 116 93 97 97 100 103 106 115 113 111 59 100 108 79 86 88 83 82 87 89 89 89 119 134 126 100 100 98 111 119 127 130 107 20 10 9 10 11 11 11 11 11 12 16 17 23 20 18 19 20 21 21 21 21 21 21 23 26 29 25 25 25 28 27 23 16 12 69
20 11 18 12 11 11 7 8 7 11 14 53 119 103 102 101 103 98 94 97 95 101 65 91 81 75 82 87 84 84 88 90 89 91 122 133 124 98 100 97 111 118 122 126 113 26 54 54 46 42 37 35 22 26 33 26 15 29 42 42 38 29 49 56 60 57 44 47 63 42 42 60 62 61 71 69 55 21 15 74
17 7 7 7 8 8 10 10 10 11 13 58 128 114 111 111 111 107 105 109 109 105 64 67 75 75 80 86 83 85 88 92 90 93 125 132 121 96 99 96 112 119 122 129 108 28 71 70 67 64 61 63 58 73 76 32 19 35 40 43 38 31 48 59 57 60 49 47 54 33 39 53 60 53 58 52 51 21 15 82
17 8 10 11 11 10 11 10 9 11 12 64 120 106 108 107 106 104 103 103 97 99 58 58 75 74 78 84 83 84 89 92 90 95 127 132 118 95 98 96 111 119 122 130 105 34 108 116 116 117 118 118 119 121 116 42 31 33 24 21 21 24 24 24 25 29 24 20 18 20 20 20 19 18 18 17 18 12 12 85
17 8 10 9 8 8 8 7 7 10 11 69 120 106 107 107 108 104 103 100 96 98 53 58 75 74 77 82 81 85 90 94 90 96 128 130 116 94 97 95 110 119 121 131 102 34 106 114 116 115 115 116 117 119 113 43 44 29 6 3 4 4 4 4 3 2 2 1 1 1 0 0 0 0 0 0 0 0 6 74
16 8 10 7 7 7 7 8 8 9 9 75 118 105 108 107 107 104 106 100 97 97 46 59 75 73 75 81 79 86 90 94 89 98 129 129 113 93 97 96 110 120 122 132 99 31 87 95 98 107 116 116 117 119 113 39 28 36 54 57 55 53 56 57 57 54 56 55 55 53 54 54 50 51 50 48 44 29 23 67
15 7 9 9 10 10 11 11 10 9 9 80 117 107 106 107 105 106 104 100 97 97 42 61 75 73 75 80 77 87 91 94 89 100 130 129 110 92 96 97 110 120 122 133 95 30 80 81 82 108 116 116 117 119 112 41 34 44 111 118 117 120 121 122 122 119 121 125 125 123 125 125 123 122 119 121 118 81 47 74
15 8 11 11 11 11 11 11 10 9 10 85 115 106 106 107 105 106 104 101 97 95 36 62 75 72 74 79 77 86 91 95 88 102 130 128 107 92 95 98 110 120 123 133 91 35 99 100 93 108 115 116 116 118 111 41 39 44 98 104 103 108 105 104 105 102 107 116 115 118 121 118 119 119 125 127 121 81 48 75
15 9 10 9 9 9 9 9 8 8 10 90 119 107 107 107 106 106 101 104 102 93 33 64 75 72 74 77 77 86 91 95 86 105 130 126 104 92 94 99 110 120 124 132 88 37 108 115 110 113 115 115 116 118 109 41 40 42 82 81 86 87 88 87 80 77 78 100 106 111 115 113 120 120 123 124 110 75 51 71
14 9 9 7 7 7 7 7 7 8 11 94 118 106 106 104 105 104 102 102 104 91 31 65 74 71 74 76 77 87 91 94 86 108 130 124 100 92 93 100 108 121 125 132 86 34 98 114 114 114 115 116 116 118 109 40 38 45 88 79 93 95 96 98 87 79 78 93 99 104 105 109 112 113 109 105 96 63 43 67
13 8 9 8 8 7 8 9 8 9 13 98 110 104 109 105 103 103 102 100 94 86 29 65 74 71 74 75 78 87 92 94 85 110 130 122 98 93 92 99 108 121 126 131 83 37 103 113 114 115 114 115 116 118 108 39 36 45 85 78 89 91 90 87 75 65 63 70 77 89 96 101 100 99 100 97 89 65 46 65
13 8 10 10 11 11 11 11 11 9 14 101 114 104 109 108 106 103 101 101 96 83 27 66 72 70 74 75 80 88 93 93 84 113 130 121 96 92 90 99 109 120 127 128 79 38 102 102 108 111 101 102 110 114 106 39 37 40 66 59 63 65 66 66 66 66 68 73 79 87 96 89 88 102 94 104 112 102 92 81
12 9 11 11 11 11 11 11 11 9 17 105 110 111 115 114 112 110 106 102 99 80 27 68 72 69 75 75 81 89 93 93 84 116 130 119 94 91 88 99 108 120 128 126 78 33 80 81 77 84 78 87 86 88 100 40 40 34 51 58 62 65 66 67 70 71 73 76 80 90 99 86 98 113 100 118 133 121 105 93
12 9 10 9 8 8 9 9 9 9 19 110 114 105 113 110 109 111 109 108 107 77 27 69 71 69 75 75 82 89 94 92 84 118 129 117 93 91 87 97 108 120 129 124 75 43 90 91 86 90 89 86 89 89 102 39 38 35 53 59 63 65 65 67 70 71 72 77 80 92 100 91 103 109 109 97 112 105 102 104
12 10 10 8 8 7 7 7 8 9 23 111 111 106 104 107 104 103 103 98 98 73 29 69 71 69 75 75 84 90 94 91 84 120 128 115 92 90 86 96 108 120 131 121 72 50 109 110 111 113 114 114 114 106 102 37 35 34 52 58 61 63 63 65 69 71 74 77 80 91 97 92 108 110 114 99 95 99 100 112
12 9 8 8 9 8 8 8 8 8 26 113 107 106 106 107 104 104 100 99 98 68 29 70 70 69 75 76 85 90 95 90 84 121 127 113 92 90 84 96 108 120 131 117 70 52 89 92 95 92 97 97 101 117 105 37 39 33 49 55 58 61 62 64 68 72 74 77 80 97 103 94 97 109 110 106 96 101 105 96
11 9 10 9 10 10 10 11 10 7 29 114 108 104 109 106 102 106 101 96 98 63 31 70 70 69 74 76 86 90 95 89 84 123 126 112 91 89 84 95 109 121 131 119 68 52 100 97 101 98 100 100 100 115 104 37 38 33 49 55 59 62 64 65 68 71 75 78 80 103 108 86 86 99 116 118 103 99 97 85
10 10 10 9 10 9 10 10 9 7 33 116 109 104 104 105 102 104 103 93 96 58 33 70 69 69 75 76 87 91 95 87 85 125 125 111 91 88 83 96 110 122 131 114 66 50 89 96 90 92 97 96 97 116 103 36 38 33 48 54 58 61 63 65 67 69 74 78 79 94 94 77 86 102 112 118 108 93 92 79
10 9 9 7 7 7 7 7 7 7 38 117 106 106 105 107 103 98 105 97 99 54 35 71 69 69 75 77 88 91 95 86 87 126 124 109 90 87 83 96 111 123 130 110 64 55 98 102 99 98 100 99 102 115 101 36 38 31 42 46 49 53 56 55 56 59 62 65 64 84 110 104 109 114 118 116 111 105 104 103
9 7 8 7 6 6 6 6 7 7 43 117 105 110 107 103 104 102 101 96 101 50 37 70 68 69 74 78 89 91 95 85 89 127 122 107 90 85 83 96 111 123 129 111 61 62 109 107 109 110 112 112 112 114 100 35 37 28 34 41 46 51 53 54 55 56 58 62 64 94 136 118 124 133 132 134 130 99 99 120
9 6 6 6 7 7 7 7 7 7 48 116 103 108 105 103 104 104 98 97 101 46 40 70 68 69 74 79 90 92 95 84 92 127 120 106 90 84 83 96 113 123 129 112 59 64 108 106 107 108 110 111 111 113 98 35 36 29 36 43 48 53 55 55 56 58 59 62 63 93 136 112 116 133 133 134 128 88 92 108
9 6 7 8 8 7 6 6 5 6 52 117 107 104 105 104 103 101 100 96 102 41 42 70 67 69 74 81 90 92 95 83 96 127 119 104 90 83 83 97 114 123 127 106 57 68 107 105 106 108 109 110 110 112 96 34 34 29 37 43 47 52 55 54 54 57 58 60 62 84 125 111 116 122 122 122 119 99 101 117
9 7 8 8 7 10 20 20 19 10 58 116 107 105 106 104 103 101 102 94 100 37 44 69 67 70 74 82 90 93 94 82 99 127 119 103 90 81 84 98 115 123 126 105 55 68 105 105 106 107 108 108 109 112 95 31 32 27 29 38 45 50 54 54 52 56 59 64 65 27 16 19 19 20 21 23 23 24 27 28
8 7 7 7 4 22 63 60 61 20 63 116 107 103 105 105 100 103 102 95 100 34 47 69 66 70 74 83 91 93 94 82 103 126 117 101 89 79 85 99 115 123 125 109 54 20 27 86 108 106 107 108 108 111 93 32 34 24 29 41 48 53 57 61 62 61 63 68 72 17 28 27 19 20 21 7 3 3 5 19
12 12 15 16 16 24 42 47 49 16 68 119 106 105 113 110 106 106 104 98 99 31 49 69 65 70 74 84 91 93 93 81 107 125 116 99 89 78 85 99 115 124 121 104 52 10 7 82 108 106 107 107 107 110 92 32 34 26 32 40 47 52 56 60 62 61 63 67 72 17 44 45 37 40 35 6 5 4 15 20
42 49 56 57 48 45 55 55 52 16 74 121 106 105 108 108 107 107 106 105 102 28 50 68 65 70 74 86 91 94 92 82 110 124 117 98 89 77 86 101 116 125 118 102 51 16 16 84 107 105 106 107 107 110 90 30 32 26 34 48 52 52 59 61 59 53 56 60 62 14 3 8 14 17 18 19 20 27 35 38
48 52 51 50 47 46 48 49 47 15 79 116 106 107 105 105 102 100 100 96 97 26 52 67 64 69 74 87 91 94 92 82 112 122 117 98 90 76 87 102 116 126 115 102 49 23 28 87 107 105 106 106 107 109 90 30 32 23 36 87 87 87 89 90 73 27 19 18 14 11 16 26 32 36 36 35 39 30 24 51
49 47 49 52 49 53 52 54 49 14 85 114 106 106 106 108 103 100 100 94 95 24 53 66 63 69 75 88 91 94 90 83 113 119 118 98 90 75 88 103 116 126 113 101 46 22 24 88 108 107 105 106 107 109 89 30 32 14 25 76 65 61 67 80 85 35 17 19 33 39 40 41 38 43 48 45 41 27 23 42
55 55 54 53 52 49 45 51 37 14 89 114 106 104 108 104 102 100 98 94 93 22 54 65 62 69 75 88 91 94 89 86 112 116 118 97 89 74 88 105 116 127 113 103 45 17 16 68 81 75 66 97 107 109 87 25 20 8 28 77 69 66 80 74 81 54 22 29 42 46 50 50 41 45 58 56 43 34 22 34
55 54 45 28 30 27 40 45 32 16 95 119 105 107 109 106 104 100 98 95 91 20 55 64 62 69 76 89 91 94 88 89 110 113 119 95 88 74 89 106 116 126 111 104 43 14 14 44 52 51 51 64 93 110 81 16 15 7 20 75 76 77 78 80 76 63 26 26 26 23 23 26 29 31 35 36 36 36 14 16
52 51 39 33 30 39 50 40 29 18 99 115 107 104 108 107 104 102 98 98 88 19 56 63 61 68 77 89 91 94 87 93 106 110 120 97 87 75 89 108 116 127 103 101 40 6 7 44 54 53 53 51 86 110 76 14 15 9 6 14 20 23 30 27 25 27 21 18 20 29 35 38 39 41 44 43 41 44 38 37
54 47 34 32 30 42 53 42 35 19 102 112 110 107 107 106 103 99 99 96 85 19 56 62 60 68 77 89 91 94 86 97 101 106 121 99 87 75 90 109 116 127 101 100 38 10 12 45 53 53 53 52 86 108 76 12 12 9 6 11 20 31 38 42 46 53 58 57 52 71 90 89 89 90 92 93 93 93 94 95
53 45 35 32 33 37 45 42 40 21 106 113 109 106 108 106 101 98 97 99 82 18 55 61 60 67 78 89 90 94 86 101 97 102 123 102 86 77 91 110 116 127 106 102 38 44 50 52 52 52 52 51 74 108 75 10 11 10 7 13 24 33 38 42 48 55 63 67 65 101 117 115 114 114 115 117 116 115 114 115
47 43 34 35 39 35 42 40 42 23 113 123 121 114 114 114 105 103 100 99 80 19 56 60 59 67 80 89 91 94 86 105 92 97 122 105 86 78 92 110 116 126 107 102 33 46 52 52 52 53 57 71 99 108 78 15 14 11 6 15 24 32 38 41 46 53 61 65 64 105 122 119 117 116 117 117 116 114 114 116
43 38 26 32 39 37 34 40 41 21 82 93 93 95 100 104 105 108 109 111 79 17 48 47 55 66 80 89 91 94 86 108 94 92 123 110 87 81 94 111 117 125 108 103 31 48 55 55 55 63 71 81 94 107 81 21 21 14 8 15 23 32 38 42 45 50 58 64 63 98 120 116 116 115 115 116 116 114 114 114
44 26 22 34 38 37 29 47 45 17 16 17 16 16 20 23 21 26 33 46 41 13 19 16 34 65 81 89 91 93 88 111 94 90 120 117 90 84 97 111 120 116 43 42 28 66 65 63 64 74 84 95 104 108 81 23 23 16 11 11 13 18 24 28 30 38 47 58 61 89 123 120 119 118 119 120 119 118 118 118
40 20 24 39 35 35 28 54 54 15 11 10 11 11 30 43 49 48 40 27 16 31 61 58 54 63 84 88 88 93 91 113 92 90 116 123 97 88 99 111 120 93 13 9 32 80 79 81 89 102 109 107 106 108 81 22 21 15 17 19 16 23 22 24 31 38 36 34 26 35 87 90 88 85 84 82 79 74 73 71
23 17 27 38 33 27 34 57 35 25 54 63 58 55 70 74 82 91 95 93 86 85 91 80 70 83 102 95 88 89 78 92 95 97 103 109 97 93 98 105 113 103 91 90 93 92 96 106 113 115 113 107 107 110 80 22 18 13 19 20 16 50 55 45 36 30 30 33 28 20 32 40 41 42 43 42 42 43 44 45
20 26 34 32 25 24 44 47 55 86 93 86 83 88 91 96 94 90 88 89 90 86 87 92 90 89 101 106 104 102 101 100 107 104 106 102 100 104 109 118 122 122 119 114 108 111 115 117 115 112 111 109 108 111 79 19 16 10 15 19 16 50 65 65 65 59 50 38 25 20 30 53 66 61 57 53 51 48 46 43
33 34 30 29 37 49 63 80 94 91 86 86 86 92 98 98 92 91 92 94 91 88 94 93 89 94 97 93 94 95 96 94 97 103 104 94 101 113 119 124 121 120 119 114 108 113 115 114 113 111 110 111 105 104 74 19 13 13 16 14 12 45 61 63 65 64 65 65 63 57 44 29 30 43 49 55 61 67 72 77
50 48 47 52 59 74 90 93 88 87 88 86 93 96 96 95 92 92 95 91 92 97 95 90 97 101 95 95 96 94 91 96 103 111 112 107 100 112 125 123 121 120 118 116 116 114 114 113 114 113 111 112 96 79 70 49 37 29 27 25 15 40 59 61 65 64 64 64 65 64 64 65 67 111 125 124 123 122 122 122
55 60 61 65 74 80 80 81 82 84 89 91 89 89 89 94 95 94 91 93 97 93 91 98 101 95 96 97 94 93 98 105 112 120 112 113 113 118 127 123 122 122 120 116 114 113 114 113 109 102 97 91 83 82 75 63 52 40 32 29 19 35 54 58 62 62 62 63 63 63 63 63 62 98 121 119 118 118 119 118
76 76 76 74 74 72 73 76 80 81 87 87 83 84 89 94 91 90 91 94 91 91 96 96 92 94 98 94 91 97 105 112 121 116 89 104 122 116 126 125 109 87 91 102 107 106 102 96 90 87 87 86 85 84 80 74 71 68 60 49 34 26 32 43 53 58 58 60 61 61 62 62 61 88 120 118 117 118 118 117
82 81 81 81 81 80 80 79 83 82 84 82 80 82 85 89 87 88 87 89 91 90 89 89 90 92 91 90 95 104 112 121 109 74 64 66 56 23 73 110 70 66 76 87 94 96 97 97 97 97 96 95 95 95 94 91 90 89 89 89 84 76 62 46 33 33 38 48 56 59 59 60 59 82 119 118 118 118 117 118
85 87 87 87 88 88 86 85 87 87 88 87 87 87 89 90 88 88 88 88 85 84 87 87 86 87 90 95 101 111 120 111 89 85 51 30 37 46 58 86 91 98 97 98 96 94 97 96 95 95 95 94 94 91 90 84 82 82 81 85 82 82 88 91 77 59 45 37 31 39 50 58 59 81 114 112 111 110 109 107
