P2
80 80
255
108 108 109 110 112 114 116 116 118 121 122 121 122 124 123 124 124 124 127 125 124 125 126 128 121 105 100 117 185 188 192 198 205 200 201 204 204 206 205 206 208 208 207 200 195 194 189 206 217 213 215 214 213 220 123 58 64 66 64 165 218 213 212 215 111 61 63 64 63 179 216 212 212 211 96 65 73 70 77 192
106 111 112 113 110 112 115 116 116 121 122 123 123 124 124 123 125 125 125 125 125 128 125 129 114 81 74 101 192 197 189 186 184 185 191 193 195 195 192 196 200 206 207 203 197 192 186 200 212 214 221 220 218 178 166 143 148 163 161 191 193 193 198 207 170 128 132 154 157 195 208 207 205 202 164 95 66 67 73 195
109 112 109 109 111 113 112 115 117 120 123 124 124 125 123 126 126 126 127 128 126 127 129 131 113 78 76 104 195 198 190 186 195 187 197 199 202 200 195 204 204 204 208 209 208 200 208 208 211 173 139 144 121 102 180 171 175 186 198 196 174 179 194 201 190 160 173 204 209 205 203 204 202 200 193 162 137 138 138 153
111 111 108 110 113 115 116 116 117 122 123 122 123 127 125 126 127 126 128 128 128 128 130 132 114 80 76 104 198 197 166 169 167 157 158 166 169 171 154 161 181 207 208 207 198 204 210 210 212 132 60 66 39 79 156 152 149 154 167 168 162 161 154 157 160 154 151 160 179 178 179 179 178 185 192 210 219 218 213 97
111 110 111 113 115 116 119 120 119 122 125 123 127 128 128 127 130 128 127 129 131 130 129 132 117 82 77 105 196 200 163 167 151 150 158 142 154 151 151 145 180 207 207 200 202 209 209 209 212 132 67 71 41 80 155 153 147 151 152 162 163 163 163 166 165 167 165 165 164 163 165 163 155 167 185 206 214 213 209 101
111 111 113 112 114 116 116 116 120 124 125 125 125 126 127 127 130 129 130 131 131 130 128 130 114 81 77 105 197 201 200 198 198 195 199 189 203 199 206 198 180 185 186 192 210 209 207 207 216 134 67 70 38 76 154 156 145 153 150 158 154 158 158 164 159 160 158 160 162 162 159 161 164 167 185 203 215 214 210 103
110 112 114 113 115 119 118 118 119 121 124 124 125 126 125 129 129 129 129 129 130 129 126 131 112 80 75 106 197 199 176 168 177 172 182 184 201 207 184 166 165 185 194 193 193 207 207 210 216 134 68 69 35 77 148 152 147 134 158 162 166 151 155 159 171 160 161 166 156 167 167 155 149 164 192 207 215 214 210 106
111 111 113 114 114 115 118 118 122 120 121 123 128 125 125 130 129 126 127 128 129 128 126 129 113 80 75 107 198 202 160 148 127 133 144 146 190 194 158 188 158 177 202 177 178 205 210 210 216 132 63 63 31 81 147 150 146 144 145 152 164 159 157 155 165 169 161 168 156 160 167 161 165 168 192 208 219 218 215 107
111 110 113 114 115 117 119 120 122 123 124 123 126 125 126 128 130 128 126 128 126 124 125 129 111 80 75 108 199 201 191 187 179 178 182 194 202 175 185 202 171 185 182 177 201 199 210 210 213 164 128 123 79 88 138 139 156 167 164 162 163 165 167 167 163 168 167 168 165 163 165 163 167 171 195 185 171 171 171 135
112 113 113 115 117 116 117 119 122 122 124 124 126 128 127 128 129 129 128 128 125 125 125 128 113 80 76 109 201 200 202 201 201 196 194 194 206 180 181 198 172 165 146 190 203 197 210 208 206 212 224 213 153 110 151 159 158 166 166 165 166 166 165 163 164 163 164 166 166 166 166 169 168 171 201 136 68 71 73 184
114 112 112 114 116 117 118 120 124 122 125 125 125 126 128 126 130 129 129 128 126 125 125 128 112 80 75 111 201 200 203 172 144 147 148 171 205 195 164 161 136 124 140 164 202 193 206 208 210 210 219 204 148 118 172 190 159 161 162 163 164 164 162 159 162 161 161 164 166 167 167 167 167 168 198 141 71 74 75 181
114 111 112 111 115 118 121 121 121 123 124 122 123 125 126 126 126 129 128 128 127 129 129 132 113 82 76 113 200 201 204 174 159 171 158 185 204 188 175 147 127 144 148 153 188 196 210 210 210 210 220 200 146 121 187 202 143 137 138 142 140 140 143 144 143 145 144 143 143 141 140 143 139 155 198 143 73 75 75 180
113 113 114 112 114 115 117 121 121 122 125 123 126 124 125 123 127 127 127 127 128 130 130 133 112 82 76 113 200 203 195 204 205 194 202 207 202 190 172 165 144 199 145 151 188 201 211 210 209 210 220 196 144 123 193 198 141 129 130 130 130 130 138 143 143 142 144 137 130 129 129 131 128 151 198 146 74 76 76 179
111 111 112 111 112 114 118 119 121 121 122 122 122 122 123 123 124 127 126 127 129 132 131 131 112 81 75 113 202 204 146 157 156 137 161 167 162 183 193 135 165 210 168 148 198 202 207 207 206 211 224 194 144 129 203 192 177 183 183 182 179 174 174 173 169 170 169 175 176 175 175 167 158 164 191 140 76 74 72 179
112 110 116 113 113 114 117 118 121 116 118 117 118 119 120 122 123 126 126 129 129 129 129 130 111 81 77 114 201 200 157 149 141 148 134 149 161 185 191 159 185 205 180 156 191 209 209 210 211 193 186 156 116 126 203 193 200 212 208 210 199 178 186 190 199 189 193 200 202 205 192 175 189 191 191 159 109 105 103 167
112 114 116 114 118 120 121 119 121 117 116 118 117 120 122 120 121 126 127 128 129 129 129 131 110 81 76 114 193 191 193 195 199 197 190 198 203 206 202 182 189 195 183 193 208 209 209 209 215 136 71 50 29 106 206 197 202 209 206 207 191 170 178 175 195 198 196 192 188 199 161 153 185 192 197 202 212 212 213 124
112 115 116 114 116 114 119 120 119 118 116 119 120 121 124 123 120 125 125 127 126 126 126 131 109 77 76 116 200 199 163 179 193 189 189 192 188 188 172 166 178 172 189 207 206 207 207 207 213 133 68 45 24 101 209 209 210 209 205 206 186 167 174 182 192 197 196 192 188 196 167 142 163 182 197 203 214 214 215 123
113 116 115 114 116 117 117 119 119 117 119 121 122 123 124 123 121 126 125 126 125 126 128 129 107 77 77 113 194 195 139 132 133 155 153 150 144 150 144 140 153 146 173 200 200 206 208 208 213 135 68 43 24 103 209 206 206 204 199 203 188 172 180 185 194 198 199 195 194 198 194 169 177 187 195 201 213 213 214 125
116 116 114 114 118 118 119 120 120 119 119 121 124 122 123 125 124 126 129 129 124 127 129 128 106 79 76 117 201 195 173 175 181 179 176 167 155 191 184 182 185 185 195 207 203 199 208 209 214 137 67 40 24 102 183 183 182 184 203 203 195 191 186 190 199 200 192 178 191 201 190 174 181 195 196 199 213 213 214 130
114 115 114 117 118 120 120 120 121 121 120 119 120 122 123 123 123 126 128 127 126 127 129 131 107 79 75 119 205 203 197 203 207 198 205 206 205 209 206 202 208 200 209 208 208 200 206 208 213 138 63 36 24 104 186 176 178 177 198 197 197 195 193 196 199 198 184 185 192 200 188 189 187 191 196 201 214 214 215 137
116 115 117 118 116 116 120 120 121 121 120 119 124 123 125 124 123 127 125 125 128 129 133 132 109 81 77 121 201 201 198 197 197 198 205 205 205 204 202 199 202 199 206 206 207 200 204 207 211 149 81 50 37 112 202 185 174 172 199 194 194 199 200 195 184 182 181 176 186 200 194 190 190 192 195 196 203 204 206 136
114 116 116 117 116 118 119 120 121 121 120 120 121 123 126 124 124 126 125 126 128 128 130 132 109 82 77 123 205 205 194 189 190 197 196 201 208 208 204 200 204 198 209 209 208 199 208 209 209 201 199 146 128 131 206 195 181 190 199 194 190 196 188 178 175 178 181 188 193 201 201 195 192 196 195 165 95 92 91 163
113 115 114 113 118 119 121 120 120 122 121 122 124 124 124 125 123 126 128 128 129 130 132 131 109 83 80 124 203 202 183 179 183 193 200 202 204 204 202 200 202 195 200 202 199 200 206 206 205 203 207 153 137 137 209 207 193 179 179 187 198 191 178 171 167 184 197 200 199 196 199 188 189 196 196 161 84 73 72 165
117 116 114 119 119 119 122 123 120 120 121 123 124 123 121 123 123 125 128 125 128 131 131 132 109 83 80 125 203 196 190 192 196 202 206 206 206 206 206 207 203 196 196 198 202 208 209 208 208 202 201 149 136 137 209 204 191 169 164 167 191 179 178 172 176 191 199 200 190 184 198 185 180 197 191 149 84 74 73 162
115 118 117 119 120 120 122 120 120 123 123 122 123 121 124 125 123 123 127 126 130 130 130 134 107 82 78 123 195 190 197 198 205 207 206 207 207 207 207 207 203 199 198 207 208 207 207 207 205 198 198 148 136 138 209 206 204 178 173 174 191 173 170 182 193 199 202 196 179 182 197 178 164 193 192 145 82 74 73 161
116 113 101 88 80 85 115 121 122 123 123 119 119 123 123 126 124 123 125 125 126 130 132 133 108 83 77 127 201 194 199 196 203 203 203 204 204 204 204 204 201 200 199 201 206 206 206 206 202 197 194 147 136 139 200 201 205 183 174 189 196 182 191 197 201 197 188 174 176 194 193 171 158 187 195 149 78 75 73 160
56 43 34 30 51 68 116 118 113 113 116 92 77 125 130 129 129 129 128 128 130 133 134 133 107 82 79 131 205 195 202 196 205 207 207 207 208 208 207 208 203 201 205 199 209 208 209 206 205 194 187 144 135 129 183 190 205 208 206 197 191 194 201 203 202 181 165 175 200 204 188 174 155 186 198 159 80 75 72 158
25 29 31 30 55 79 123 109 109 107 112 90 65 115 122 122 124 126 128 130 132 135 137 137 108 82 79 132 201 198 187 180 188 194 195 194 193 198 205 206 201 200 205 197 203 206 204 204 210 165 79 53 51 110 172 172 188 206 205 204 201 201 202 200 201 192 176 196 201 197 189 170 171 195 192 189 179 179 180 143
29 30 30 31 55 109 126 105 106 106 110 93 62 107 117 117 116 118 120 122 124 128 131 133 108 83 78 132 198 202 192 189 194 194 194 194 196 205 206 206 202 201 207 202 200 208 203 207 209 156 45 25 24 105 169 173 177 203 203 203 202 201 202 201 200 198 199 198 197 192 177 166 184 199 194 193 212 215 218 137
33 28 30 31 56 119 118 99 104 104 111 104 70 100 113 113 113 115 115 118 119 122 125 129 106 82 77 133 201 207 175 196 205 205 206 211 212 211 211 212 206 206 213 210 201 207 210 209 208 157 46 28 26 107 155 164 168 203 205 203 200 197 196 194 193 190 187 191 189 189 184 168 192 200 192 191 208 211 214 141
68 59 31 32 58 89 112 97 101 101 115 117 89 95 109 109 110 113 112 113 114 118 120 125 108 79 77 133 207 208 176 188 193 191 195 203 202 200 199 200 200 199 199 203 203 209 211 208 202 167 70 28 26 112 167 173 188 202 198 201 199 198 196 196 197 196 199 200 201 199 189 170 197 199 192 191 208 211 214 142
88 73 36 46 55 62 97 87 94 102 116 123 103 75 105 107 106 110 110 111 111 113 115 120 117 146 153 171 183 176 176 179 180 181 182 155 145 146 141 146 162 161 146 174 194 197 200 203 199 207 147 29 26 118 185 185 204 197 180 196 202 201 196 194 193 196 203 204 203 202 195 190 204 200 192 190 208 212 214 144
80 66 37 49 39 38 42 45 48 52 59 64 62 49 71 86 99 102 105 105 105 107 109 114 121 180 170 168 157 162 170 170 173 172 179 181 180 179 183 189 194 199 198 210 222 219 219 226 227 227 157 26 21 118 179 198 209 198 185 198 205 201 196 192 191 185 184 200 208 209 205 206 207 203 196 192 208 212 214 143
57 51 35 54 139 142 126 113 99 87 75 61 47 40 59 119 138 126 119 130 127 131 137 137 136 178 168 179 186 183 179 175 165 147 142 143 139 139 168 198 199 198 182 196 206 208 207 206 206 208 149 76 85 119 175 212 214 207 195 194 202 200 202 198 202 194 178 195 210 210 200 196 204 207 189 174 201 222 220 193
45 51 35 60 204 222 220 220 217 214 209 199 185 170 145 186 224 222 206 187 184 177 182 187 188 183 203 223 222 205 190 192 187 183 178 171 170 102 80 104 107 128 67 106 135 139 136 130 124 122 99 99 125 115 160 174 174 170 165 152 162 158 162 170 174 163 149 160 170 168 157 147 154 154 172 164 197 219 217 223
60 28 36 65 201 189 190 190 192 196 198 208 210 210 171 167 221 209 176 178 183 177 182 182 185 183 209 225 222 201 192 194 198 211 220 219 229 176 64 46 45 49 45 47 51 55 56 55 54 55 60 68 81 81 75 74 77 79 78 77 78 76 77 78 83 87 87 83 83 83 83 82 74 36 137 160 188 213 210 212
38 29 36 70 205 199 195 195 197 194 189 190 189 195 170 163 212 178 167 175 183 179 183 183 186 185 213 225 221 199 192 193 199 209 217 213 224 190 76 108 115 113 128 130 133 145 146 134 123 134 116 88 74 112 122 115 98 118 135 139 139 129 109 138 125 107 128 141 137 142 151 144 99 42 141 154 198 221 219 197
35 38 41 75 213 212 206 204 205 202 200 201 205 204 162 152 180 164 167 172 181 179 184 184 187 187 215 224 219 196 192 191 200 209 217 214 226 184 82 140 148 149 153 154 154 149 145 145 135 128 106 69 81 127 133 122 103 115 138 139 140 139 115 135 111 101 124 137 135 133 130 129 100 41 141 159 201 222 219 204
42 42 41 81 212 203 201 202 200 199 198 199 194 197 153 133 157 163 167 171 179 178 184 185 187 187 217 224 218 193 192 189 201 208 217 214 227 178 97 202 210 213 213 214 215 215 217 222 194 91 94 77 67 86 78 77 82 84 83 83 87 87 78 70 70 72 71 71 69 68 66 64 59 31 139 168 197 223 213 168
32 32 36 88 214 203 200 202 202 201 198 197 192 197 140 118 153 164 166 170 176 178 185 187 187 188 219 223 216 191 192 187 201 207 216 215 227 174 98 201 208 211 214 212 212 214 214 219 188 103 110 74 44 28 28 28 29 28 29 28 25 24 22 20 19 18 18 17 16 13 12 9 5 4 131 166 199 222 212 161
31 31 37 95 215 202 201 202 202 199 200 198 192 198 129 114 154 165 166 168 174 178 185 188 186 189 220 223 214 189 192 186 202 207 216 216 227 170 95 181 182 189 193 207 213 214 214 219 188 90 89 118 131 120 123 124 121 119 124 125 122 121 119 118 115 113 113 105 98 96 91 88 81 62 140 151 197 221 222 200
40 42 41 102 215 202 201 201 200 200 200 196 192 198 119 117 154 165 165 168 172 178 186 188 185 191 221 222 212 186 191 186 203 208 216 217 226 165 95 163 171 169 173 208 213 213 214 219 185 98 93 149 213 210 216 215 218 218 220 220 220 218 222 224 223 223 223 223 221 217 219 217 205 139 163 159 202 221 216 212
43 44 41 111 215 201 200 202 200 200 201 196 193 198 108 119 155 165 164 167 171 178 186 189 183 193 222 222 208 185 191 186 203 208 216 219 224 160 103 192 194 192 187 208 213 213 214 218 183 102 100 146 203 196 198 199 203 202 200 201 199 199 210 213 214 219 217 217 217 219 224 222 205 138 165 163 203 222 214 161
36 36 38 119 219 203 201 202 201 201 198 197 197 198 101 122 154 165 163 166 170 179 185 190 181 195 222 221 206 184 191 187 203 209 215 220 222 157 102 191 208 212 207 211 212 213 213 218 181 102 100 133 180 177 172 175 181 181 181 177 168 170 182 206 207 214 212 216 218 218 223 215 194 143 163 155 204 222 222 163
30 31 38 127 219 202 201 199 199 200 197 197 198 199 94 125 154 165 163 166 169 180 184 190 180 198 223 220 202 184 189 188 203 210 215 222 221 155 98 161 196 212 211 212 212 213 213 218 178 101 99 134 191 191 171 184 195 196 198 191 174 174 179 195 201 204 207 210 213 210 207 200 178 124 155 159 201 225 222 219
31 34 38 134 213 198 202 201 198 198 197 197 189 191 87 127 153 164 162 166 169 181 184 190 178 200 223 219 200 184 187 188 201 210 215 223 219 149 107 177 201 211 212 212 211 213 213 218 177 98 97 133 188 185 167 182 185 176 166 161 160 171 181 187 193 196 199 197 194 196 196 190 162 124 151 151 197 219 215 215
41 43 40 142 215 200 201 204 200 200 195 197 191 189 82 130 153 163 161 166 170 183 185 191 176 203 223 218 197 183 184 188 200 210 215 224 216 144 119 173 198 199 207 209 193 200 208 214 176 99 96 123 157 151 154 158 159 159 158 162 172 180 197 193 185 194 199 191 205 207 200 190 178 183 185 183 190 194 190 181
41 44 42 151 212 202 208 208 207 205 203 198 194 187 79 133 154 163 160 166 171 183 186 190 175 206 223 216 194 183 182 188 198 211 215 224 213 141 122 172 167 169 167 174 166 180 174 186 173 102 100 110 142 150 156 158 161 164 167 169 175 182 199 191 181 208 204 201 222 228 219 204 193 203 217 194 207 213 213 211
32 35 42 159 216 200 204 207 203 206 205 203 202 187 76 136 154 162 159 167 173 184 186 189 175 208 223 215 192 183 179 187 197 210 216 224 210 137 127 183 179 183 176 180 179 176 177 189 173 101 98 112 144 152 156 157 159 164 166 169 176 182 201 193 190 209 204 207 197 212 202 203 201 202 198 196 209 213 212 215
27 32 45 166 211 201 198 201 200 198 199 195 192 179 76 139 154 162 159 167 174 185 187 188 174 211 222 213 191 183 177 187 196 210 217 224 210 134 133 200 205 207 210 211 212 212 209 206 171 96 96 111 143 149 153 154 157 163 167 170 176 182 199 192 193 213 205 214 195 196 196 200 210 203 189 200 209 208 208 213
29 33 46 173 207 201 200 201 199 199 196 194 193 174 75 141 155 161 159 167 176 185 188 187 174 212 222 212 190 184 175 186 196 210 218 223 205 132 127 190 178 189 187 186 192 191 201 218 170 100 99 109 138 145 150 152 156 161 167 171 176 183 207 194 191 203 206 210 204 194 201 204 194 200 185 193 208 209 208 212
39 41 49 179 207 200 200 203 197 200 199 192 191 169 74 142 155 161 158 167 177 185 189 185 174 214 221 211 189 184 173 186 196 211 218 223 209 128 131 189 192 193 195 192 196 193 199 218 168 100 98 107 138 145 151 155 157 161 167 172 176 184 215 195 179 191 203 217 215 201 199 197 184 205 192 195 207 213 213 213
40 41 52 185 208 199 198 200 197 198 199 191 189 162 75 143 155 160 159 167 179 185 190 183 174 216 220 210 188 183 169 187 197 212 219 220 204 125 124 175 180 190 182 186 194 188 197 218 166 100 98 106 136 144 150 154 157 160 164 171 176 182 201 183 172 193 204 214 215 206 194 191 179 199 187 193 189 190 194 205
30 34 56 191 204 200 198 201 199 194 198 197 192 158 76 144 156 160 159 167 180 185 190 181 176 218 219 208 186 182 170 186 198 212 220 217 201 122 141 185 189 199 193 194 195 193 200 217 164 101 97 101 126 130 137 143 143 145 149 154 159 161 195 200 196 205 211 215 210 204 200 198 198 203 200 201 191 191 163 131
26 32 61 196 202 202 202 198 198 198 197 192 195 151 78 145 156 159 159 168 182 185 191 179 179 219 218 207 186 181 168 187 198 212 220 216 203 117 153 200 204 205 207 208 210 211 210 216 162 99 97 90 112 124 134 139 141 143 145 148 155 164 220 227 213 226 229 228 230 222 195 198 220 225 224 222 224 229 196 129
27 33 68 200 199 200 202 197 198 200 195 191 196 145 81 146 156 158 160 168 183 185 191 177 182 220 216 205 185 178 167 187 200 213 220 215 205 115 157 198 203 203 205 207 208 209 209 215 159 99 95 94 116 127 137 143 143 145 148 150 155 163 219 225 206 223 229 229 230 219 179 190 209 208 201 199 217 228 199 134
28 33 72 203 202 200 199 198 198 196 195 191 197 138 83 146 156 157 160 169 184 184 191 174 185 221 215 204 184 178 169 187 202 214 221 210 200 114 162 199 203 203 204 206 207 208 208 214 156 96 91 96 117 127 136 142 142 141 146 149 153 159 209 219 210 219 221 221 222 215 196 201 219 222 219 221 220 218 199 146
45 50 79 206 200 201 200 199 198 197 197 192 195 131 86 146 156 156 160 170 185 185 191 173 190 220 215 203 183 175 169 188 203 214 221 210 200 111 164 197 202 203 204 205 206 206 207 214 154 91 90 85 101 118 131 139 141 136 145 150 160 128 56 54 61 62 64 64 67 67 68 73 77 75 72 71 68 93 64 57
106 95 84 208 201 199 198 201 195 197 198 193 197 125 90 146 156 156 160 171 186 184 191 172 194 220 214 201 183 173 170 188 204 213 221 210 204 101 70 73 82 189 206 205 206 206 207 213 151 95 91 72 101 126 136 144 151 154 153 157 169 125 34 85 61 57 61 57 23 20 20 26 62 69 58 41 80 95 89 109
96 75 93 212 201 199 204 206 201 200 199 195 197 118 93 146 155 154 160 173 186 184 190 172 198 219 212 199 182 170 171 188 205 213 222 203 201 97 56 43 48 185 206 204 205 206 206 212 148 97 89 84 106 123 135 143 149 153 153 156 168 124 40 128 91 96 102 73 25 26 25 56 65 64 66 53 70 91 65 76
141 81 99 215 201 199 201 203 203 201 202 199 206 111 96 146 155 153 160 174 186 186 190 172 202 217 213 198 183 171 173 189 206 213 222 200 197 99 86 62 67 188 205 204 204 206 206 212 146 91 86 86 117 133 135 143 150 149 140 145 156 110 19 25 37 49 55 56 57 61 80 91 97 102 100 93 93 111 94 101
129 74 109 213 200 201 201 198 199 194 195 191 198 105 99 146 154 153 160 176 185 186 188 172 205 215 213 198 183 169 173 190 207 213 222 195 197 97 99 85 95 192 205 204 204 205 205 211 143 92 86 87 176 186 185 186 188 162 83 67 64 48 45 63 86 99 106 105 107 104 77 104 174 178 174 171 173 179 181 184
135 74 117 213 200 200 200 201 199 195 196 190 196 99 102 145 154 151 160 177 185 187 187 173 206 212 214 197 183 167 174 190 208 214 222 195 195 92 95 77 88 194 207 206 204 205 205 211 142 94 83 54 159 155 147 153 177 180 95 65 72 100 108 113 113 109 125 122 119 107 67 99 157 154 170 163 165 179 183 182
131 67 126 213 201 198 202 200 197 195 195 188 197 93 104 144 152 150 160 178 184 187 185 175 206 209 215 196 182 163 175 192 208 214 221 198 195 92 85 62 67 166 173 161 159 203 205 211 139 80 58 54 160 159 150 170 167 177 124 76 96 120 127 131 127 111 136 143 132 112 77 89 145 154 168 151 167 174 181 181
124 62 135 218 201 199 204 201 199 196 194 189 197 87 106 144 152 149 161 180 183 188 183 178 205 206 215 195 181 161 176 193 209 214 219 198 194 89 67 53 60 125 132 130 134 160 199 211 124 61 49 45 155 173 172 173 175 171 145 82 85 82 79 83 89 95 102 107 108 112 78 51 132 157 173 177 175 184 183 180
121 59 143 214 202 198 202 201 200 197 195 190 196 82 108 142 150 148 161 181 182 188 180 183 201 201 216 196 180 162 177 195 209 215 216 191 192 79 35 27 41 128 135 134 134 137 196 209 114 57 50 33 43 63 80 93 89 84 92 72 71 88 91 96 100 105 111 114 108 115 105 88 117 134 144 146 148 147 153 175
121 56 151 212 203 201 202 201 199 195 195 190 194 78 110 141 149 147 162 182 181 189 179 188 196 196 217 198 179 163 177 197 209 216 214 191 190 75 35 33 46 128 134 133 134 139 196 209 114 48 49 33 31 53 86 111 121 130 143 146 140 171 187 187 187 188 190 190 191 192 192 194 196 196 197 194 194 192 192 202
111 56 160 212 203 200 202 202 197 194 191 192 192 74 111 139 146 146 162 183 180 189 177 193 190 192 218 202 179 165 178 199 209 216 214 199 186 90 114 123 126 133 133 133 133 133 183 210 113 43 49 33 28 60 93 112 122 134 150 159 163 205 217 215 214 214 216 217 216 216 214 216 218 218 218 220 217 215 216 217
96 56 169 221 214 211 208 210 202 198 196 192 191 73 112 138 146 145 163 183 180 190 177 198 183 187 216 205 179 168 178 201 208 217 212 203 180 81 119 130 133 133 133 136 141 169 202 209 120 55 55 38 34 66 93 110 120 130 145 156 161 212 221 219 217 216 216 217 216 215 215 216 218 217 216 216 213 212 212 214
85 57 141 179 177 181 189 194 197 202 206 207 196 70 104 124 126 134 164 183 180 190 178 202 188 185 215 210 181 171 179 203 208 218 212 209 178 84 123 132 136 137 139 152 164 180 196 209 128 72 72 38 38 65 91 111 120 128 141 154 158 205 220 216 216 215 215 216 216 215 214 215 216 216 214 214 211 210 210 211
101 65 63 63 59 61 72 79 69 74 84 99 117 59 55 58 51 94 167 182 179 190 180 205 188 185 211 216 186 176 182 205 209 225 156 102 96 106 174 153 150 149 152 167 180 194 203 209 128 76 76 40 48 49 60 80 92 99 120 145 155 199 224 220 220 219 221 221 221 220 220 221 221 222 220 218 218 220 220 219
138 117 51 47 40 41 49 93 107 110 100 78 57 64 137 139 140 138 167 181 175 188 183 208 184 185 206 221 194 183 185 205 208 219 111 46 48 115 180 179 175 182 196 205 206 205 205 208 126 74 68 42 64 73 78 79 95 107 108 105 89 121 187 183 181 176 175 172 167 161 159 156 152 150 144 147 152 144 138 130
140 98 93 135 134 123 129 157 166 177 188 190 181 169 187 178 163 164 193 191 179 184 167 185 188 193 198 206 196 190 191 202 208 208 183 178 174 182 186 195 206 212 213 211 205 205 206 209 124 71 59 43 63 89 145 125 105 97 103 117 102 82 102 105 105 109 109 109 110 110 113 115 119 123 121 126 133 129 127 125
136 157 185 183 176 179 186 189 189 184 182 183 185 182 181 189 185 181 197 202 201 199 196 194 203 200 203 198 197 202 208 215 217 217 217 214 208 208 211 215 214 212 210 210 208 207 208 210 121 65 51 34 53 86 157 158 157 143 121 93 76 87 137 160 152 146 142 138 134 129 125 121 118 115 114 114 115 114 114 117
182 185 178 177 177 184 192 192 186 185 187 189 185 185 189 186 184 191 191 188 189 191 190 191 198 200 189 192 206 210 218 219 217 216 215 212 204 208 212 212 211 211 210 209 209 203 200 203 117 59 47 54 56 77 152 154 157 157 160 158 147 120 91 90 97 104 113 121 129 137 146 155 164 172 180 188 195 201 206 209
179 178 178 178 186 189 190 190 186 188 189 185 189 193 188 188 195 193 189 191 189 186 190 198 205 207 200 197 199 216 220 218 216 216 215 213 214 212 212 211 211 212 211 210 210 196 176 175 147 116 94 88 81 73 145 151 157 157 156 157 158 159 158 162 213 224 224 224 224 224 224 223 222 221 221 219 218 218 217 216
172 176 180 182 182 181 183 190 190 187 187 190 191 187 191 197 192 191 193 190 189 193 200 208 214 210 206 212 206 220 220 217 218 219 217 214 212 211 212 211 211 206 200 195 189 179 178 176 161 136 114 100 92 75 138 147 153 154 154 155 156 156 155 157 200 220 218 218 217 218 218 217 217 217 217 216 215 215 215 215
169 173 180 177 174 177 182 189 186 185 188 187 186 192 193 188 189 193 189 187 193 201 209 216 214 188 188 219 214 219 221 220 196 175 183 197 205 205 203 197 192 186 184 184 183 182 181 179 171 164 155 136 115 82 96 122 142 149 150 152 153 154 154 154 191 219 217 217 217 217 217 217 217 217 217 216 216 216 216 215
171 174 175 170 170 173 177 182 182 182 184 186 188 187 185 184 186 186 185 193 200 209 216 202 159 144 141 151 73 96 189 197 144 144 158 175 191 194 195 195 195 195 195 194 193 194 193 192 190 188 188 188 182 170 145 119 99 104 120 141 149 150 151 151 184 219 217 217 217 217 217 217 217 217 218 217 216 215 214 214
179 179 179 178 177 178 180 181 180 182 182 181 182 181 179 179 181 185 191 198 208 215 200 174 176 129 73 84 96 113 151 182 186 195 197 198 193 194 195 194 193 194 193 194 190 189 188 182 181 179 181 184 178 180 191 189 162 131 106 97 110 134 148 149 181 215 213 212 212 211 211 209 203 198 192 184 176 167 159 151
