P2
80 80
255
36 37 38 39 40 40 41 43 44 43 44 44 44 45 45 45 46 45 45 46 46 48 42 34 31 64 91 91 95 102 107 98 106 105 107 109 107 111 111 111 109 100 100 96 97 117 111 100 121 118 118 119 41 13 16 16 17 95 120 118 117 115 35 15 16 15 19 103 119 117 118 110 28 18 20 18 29 111 118 117
38 38 37 38 40 40 40 43 43 44 44 45 44 45 45 45 45 46 46 47 46 48 37 22 19 63 99 97 89 88 89 89 97 96 99 97 97 101 107 109 110 103 101 93 95 113 109 102 125 123 116 86 79 63 73 79 79 100 95 100 104 111 75 49 61 75 77 106 112 112 108 106 72 23 16 15 26 114 122 120
36 37 38 38 38 40 40 42 44 44 44 45 44 47 46 46 47 47 46 47 48 49 36 22 20 67 101 99 88 96 94 92 102 101 105 99 102 106 107 108 111 113 106 105 114 109 111 70 66 67 48 46 89 76 86 92 102 95 79 89 101 104 87 69 88 109 111 108 107 107 105 103 94 71 65 65 65 74 75 75
36 37 39 39 40 40 41 44 44 43 44 46 45 46 46 46 47 47 47 48 49 50 37 22 20 68 103 90 76 81 75 69 76 77 85 72 73 77 100 111 111 106 101 111 113 111 112 43 13 15 7 38 70 62 66 68 77 75 72 70 68 70 70 64 65 76 87 86 86 87 86 95 98 118 123 123 113 26 14 15
38 39 39 40 41 42 42 44 45 44 47 47 47 46 48 47 47 48 49 48 48 49 38 23 21 68 103 92 75 74 66 70 66 67 68 69 64 70 103 110 108 100 110 112 112 110 110 44 17 18 9 39 69 65 61 66 66 72 72 72 72 74 74 75 73 73 72 73 74 70 68 82 95 115 120 120 110 30 18 18
38 38 39 40 40 40 42 45 45 45 45 46 46 46 49 48 49 49 49 48 47 49 37 23 20 68 102 103 100 102 100 97 100 99 104 105 106 98 86 95 89 105 112 111 109 112 114 44 17 18 8 37 70 66 59 70 62 70 66 69 69 72 69 71 69 70 73 70 69 73 73 81 94 113 120 120 111 30 18 19
38 38 40 42 41 41 42 43 44 45 45 46 45 48 48 48 48 48 48 47 47 49 36 22 20 70 103 94 83 79 84 82 91 95 107 106 81 83 81 95 99 95 107 109 112 113 114 45 18 17 7 38 64 64 59 57 70 74 71 65 67 73 75 71 72 72 69 77 74 64 65 81 101 115 120 120 112 31 18 19
38 39 39 40 41 41 43 42 43 45 47 45 46 48 47 46 47 47 48 47 47 48 36 22 20 71 103 96 64 60 50 60 61 74 107 81 83 91 69 97 101 83 96 112 113 113 114 43 13 13 7 38 64 63 60 61 62 67 74 68 69 68 76 76 72 74 67 74 73 73 72 84 100 117 123 123 116 30 16 16
39 39 39 40 42 42 44 44 45 44 46 45 45 47 48 47 47 47 45 45 46 48 35 22 20 71 103 101 93 91 88 85 95 100 103 78 102 96 76 99 81 98 101 109 113 113 110 66 60 52 25 36 58 57 72 75 72 72 73 75 75 75 73 76 76 75 74 73 74 73 76 85 101 89 88 88 86 56 51 50
38 40 40 40 41 42 44 43 45 44 46 47 46 47 48 48 47 47 45 46 46 48 36 22 21 74 104 102 103 102 102 97 94 104 102 82 98 93 76 72 75 105 102 106 112 111 103 102 129 108 55 43 71 67 72 74 75 74 75 75 73 72 73 73 73 75 74 75 75 77 75 87 102 34 18 18 24 109 122 119
38 39 39 41 41 43 44 44 45 45 45 46 47 46 48 48 48 47 46 45 45 48 35 23 21 76 103 104 98 69 62 65 65 101 101 93 71 77 48 60 64 95 101 102 111 113 106 103 126 101 53 52 92 86 69 71 72 73 73 73 71 70 72 71 71 74 75 75 76 76 74 83 101 37 20 20 26 106 120 118
37 38 39 41 43 42 43 44 44 43 44 46 46 46 46 48 47 47 47 48 48 50 36 23 21 76 103 105 99 74 79 76 77 104 98 91 75 63 52 73 66 80 99 106 114 114 107 104 126 96 52 59 104 92 52 55 55 58 56 58 59 59 60 60 59 59 58 57 57 59 56 81 101 37 20 20 26 106 120 118
38 38 39 40 41 43 42 44 45 44 46 45 45 44 47 47 46 47 47 48 49 50 35 23 21 76 104 103 98 108 101 96 107 107 96 92 81 65 86 89 61 83 101 110 113 113 107 106 126 91 51 63 108 89 49 49 49 49 49 51 57 57 59 57 58 52 49 49 49 50 49 80 102 38 21 21 26 106 120 118
37 37 38 39 41 41 43 42 44 43 43 44 44 44 45 46 46 47 48 49 49 48 35 23 21 76 107 92 58 79 61 64 76 75 77 97 83 55 100 106 60 92 100 110 110 110 105 109 127 88 50 74 108 92 87 91 90 90 84 83 80 81 77 79 79 84 84 84 83 72 70 81 94 35 21 18 23 107 122 120
39 38 38 39 40 42 42 40 41 41 41 42 42 43 45 45 46 48 48 48 48 48 35 23 22 76 105 88 68 61 64 61 57 70 78 100 83 76 103 102 76 81 107 111 112 114 109 91 99 65 40 75 105 97 109 114 111 113 92 87 91 100 100 93 100 103 108 106 89 85 97 94 96 53 42 40 42 92 102 101
39 39 41 42 43 42 42 41 40 41 41 43 43 42 43 46 47 47 48 48 48 49 34 23 22 74 95 93 98 99 103 95 95 103 106 109 95 88 97 94 90 106 112 112 112 113 109 37 18 10 8 75 107 101 109 112 109 108 85 81 83 87 102 101 99 93 97 97 60 79 93 99 102 109 118 118 114 39 22 24
40 39 39 39 42 42 41 41 40 42 43 44 45 43 43 46 46 46 46 46 46 49 33 21 22 79 103 91 75 93 96 92 93 95 93 91 74 83 84 84 105 109 109 109 110 111 106 36 17 9 6 76 113 113 113 111 109 106 81 77 83 91 98 101 98 94 94 97 61 62 79 94 103 111 120 120 117 38 20 21
39 39 40 41 41 42 42 41 42 43 44 44 45 44 44 46 46 46 45 47 48 48 32 22 22 75 98 83 52 51 61 69 64 64 60 65 59 65 67 69 97 101 106 111 111 111 106 37 17 8 7 78 111 109 109 105 103 104 85 81 86 94 99 103 101 99 98 103 90 77 88 95 100 109 119 119 116 39 21 22
38 39 41 41 42 42 42 41 42 43 44 43 44 45 45 47 48 47 45 47 48 47 32 23 22 79 102 89 83 86 89 84 85 66 85 96 89 92 93 92 107 109 101 106 111 112 107 38 16 7 8 69 87 91 84 99 107 104 96 95 90 100 104 103 89 88 100 104 86 82 93 101 99 108 119 119 116 41 20 22
39 40 41 42 42 42 43 42 42 42 43 43 44 44 45 46 47 46 46 46 48 48 32 22 22 82 107 102 98 108 104 100 109 106 109 111 103 109 104 107 111 111 107 103 111 112 106 38 14 6 8 72 86 85 80 93 100 102 99 99 97 103 102 97 87 92 100 102 89 95 91 98 100 109 119 120 118 45 22 22
40 40 40 40 42 42 42 42 41 42 44 44 45 44 44 46 45 46 47 48 50 49 33 23 23 81 103 102 96 102 97 104 107 106 106 107 101 105 100 106 108 109 107 102 110 111 105 48 24 12 12 83 98 88 74 92 101 96 100 104 103 94 88 87 86 83 99 103 95 95 95 97 99 103 111 112 110 47 29 31
40 40 40 41 42 43 42 43 42 43 43 45 45 45 45 46 45 46 47 48 49 49 33 23 24 84 107 105 90 94 94 101 97 108 110 110 102 107 100 106 112 112 106 104 112 113 104 102 99 56 43 85 107 93 87 101 101 95 97 98 89 82 84 83 91 94 101 105 103 95 100 97 98 49 31 31 33 93 109 107
38 39 41 42 43 42 43 43 43 44 45 45 45 45 44 46 47 47 48 49 50 49 33 24 25 84 104 98 82 85 90 100 103 106 106 107 101 105 100 99 104 104 100 107 108 109 100 107 102 60 47 88 113 107 88 86 85 98 100 90 81 76 81 95 103 103 101 103 98 91 99 99 96 42 22 19 22 100 121 118
39 42 41 41 44 43 42 42 43 44 44 44 43 45 44 46 47 46 47 49 49 50 33 24 26 85 103 94 95 94 103 106 108 108 108 108 108 109 101 98 100 102 109 111 111 112 101 104 97 58 47 89 111 104 84 77 69 89 90 83 84 78 89 100 105 101 90 96 97 86 93 101 86 38 23 20 23 98 119 117
40 41 41 42 43 42 42 44 44 43 43 43 45 45 44 45 46 47 48 49 49 50 32 23 25 80 95 93 101 100 109 108 108 109 109 109 109 109 102 101 104 111 110 110 110 111 96 103 93 58 47 91 111 109 99 78 80 89 91 73 86 90 102 104 104 93 83 96 95 76 83 102 85 36 23 20 23 98 119 117
24 25 35 49 42 43 44 43 40 44 45 43 44 45 44 44 46 46 46 49 50 50 32 23 25 85 100 96 100 100 105 105 105 105 106 106 106 106 100 104 100 108 108 109 109 108 95 101 89 58 47 86 103 109 102 81 88 98 95 87 101 103 103 98 86 81 89 102 88 72 76 101 88 36 21 21 22 97 119 117
11 17 34 54 36 39 39 38 19 35 48 47 46 47 48 47 47 47 49 50 50 49 32 23 26 90 100 102 99 103 108 109 109 109 110 109 109 109 101 109 102 107 111 111 111 108 97 96 83 56 46 73 90 104 110 111 108 94 98 100 107 106 98 79 74 95 107 102 86 72 77 100 95 39 21 20 21 97 120 117
12 21 41 47 34 36 36 37 17 29 43 43 44 44 45 47 48 49 51 52 52 49 32 23 27 90 98 99 82 88 93 97 97 96 97 104 108 107 100 107 103 101 108 108 105 111 97 60 23 16 21 66 80 84 103 109 108 106 104 106 104 104 102 87 91 104 104 96 89 72 94 97 96 89 91 92 92 57 44 46
12 32 49 42 32 35 35 37 18 26 40 40 40 40 41 43 44 45 47 49 50 50 32 23 27 87 99 102 89 95 97 97 98 97 104 108 108 108 101 108 109 100 109 107 108 112 96 50 6 4 14 64 81 79 96 108 107 106 105 106 105 104 102 102 102 100 101 88 81 78 101 102 95 104 118 119 119 42 16 19
11 38 47 37 31 34 35 39 25 24 37 38 38 39 39 40 41 42 44 46 48 51 31 23 27 87 107 98 86 106 107 106 111 114 113 114 114 113 105 114 114 106 106 113 112 112 94 53 8 5 16 59 73 69 95 109 107 105 102 100 99 97 96 92 94 94 94 93 81 84 104 100 94 102 115 116 117 45 19 22
13 26 39 36 30 31 36 42 36 24 35 36 36 38 38 38 39 40 42 43 46 52 30 22 27 91 111 100 84 97 97 95 102 105 104 103 103 104 102 103 107 107 110 114 113 107 92 56 7 5 16 70 78 84 105 101 104 103 101 101 99 100 100 101 104 104 104 99 84 89 105 100 93 102 115 116 117 46 19 21
14 16 31 32 28 32 39 44 42 24 27 35 34 36 37 37 37 38 39 40 45 56 65 66 69 83 83 88 81 85 85 83 65 59 59 56 59 70 71 60 81 96 100 103 105 100 105 69 8 5 17 83 86 102 106 91 92 105 105 102 98 96 98 104 108 107 107 103 94 103 107 101 92 102 115 117 117 47 19 21
7 8 9 10 12 14 17 20 24 18 17 31 30 32 33 34 34 34 36 37 40 54 83 76 76 67 71 76 78 79 76 81 83 81 78 82 85 86 87 80 97 114 110 114 128 126 122 84 16 2 18 80 89 115 106 94 95 107 108 101 99 95 94 89 97 111 113 111 108 112 108 104 96 102 115 117 116 44 15 17
66 57 48 40 32 25 18 11 9 28 58 66 56 50 49 50 49 53 50 51 56 70 89 76 83 83 77 72 65 62 56 56 56 67 84 83 84 83 84 73 89 102 104 106 106 106 105 77 29 27 31 70 101 118 113 103 94 104 102 105 101 103 103 88 89 111 113 108 99 103 109 94 81 117 128 126 124 90 75 70
117 119 118 116 114 110 102 91 83 66 95 124 123 121 95 87 81 85 88 88 86 114 128 124 101 91 93 91 92 91 87 86 59 20 39 37 36 39 54 20 40 58 62 61 58 55 53 43 24 40 38 65 88 92 88 84 74 75 75 76 82 88 86 71 69 85 85 80 70 68 78 80 75 117 125 125 129 133 132 119
88 93 92 94 97 100 109 109 108 69 84 121 119 95 76 84 81 84 83 86 88 120 130 124 98 93 94 99 111 121 119 128 112 27 11 10 10 10 12 10 10 11 11 11 11 12 14 17 17 22 27 24 24 26 24 22 22 22 21 21 21 24 26 24 23 22 24 25 23 19 11 68 71 108 118 114 116 122 128 116
99 97 96 98 95 90 92 91 99 66 83 117 95 73 74 83 83 85 85 86 90 123 129 121 96 93 92 101 110 119 115 125 119 34 29 35 34 33 32 39 42 48 61 67 66 71 77 71 48 23 56 73 56 34 48 60 62 61 54 41 60 50 37 54 62 58 63 70 64 33 14 65 69 119 128 119 101 102 103 104
109 106 105 105 103 100 102 105 105 58 83 95 70 72 73 82 83 85 85 87 93 124 129 119 93 93 90 103 110 120 115 127 115 33 47 55 56 56 58 61 64 67 68 70 58 37 54 38 15 28 102 118 76 38 46 62 61 62 60 45 59 42 35 51 60 58 56 54 54 33 13 63 73 123 127 125 109 116 106 104
102 102 102 100 100 99 99 94 99 53 77 70 64 72 73 80 82 85 87 86 95 126 128 116 91 93 88 103 109 120 116 129 111 34 89 107 114 115 116 117 117 117 119 124 90 28 32 29 9 21 32 25 22 27 28 26 26 28 30 24 20 21 22 20 20 19 19 18 18 16 10 65 75 119 130 112 81 98 99 92
103 101 102 102 101 98 97 92 99 47 63 59 66 72 72 79 82 85 89 86 97 127 126 113 89 93 87 104 109 119 116 129 107 34 88 104 110 114 116 115 115 117 118 122 86 39 38 64 11 11 4 4 4 5 4 5 4 3 3 2 2 2 2 1 1 0 0 0 0 0 3 67 76 120 128 110 87 78 57 58
101 102 102 102 99 100 97 92 98 42 53 57 66 72 72 77 83 84 89 84 100 127 126 110 87 92 87 104 109 119 117 129 104 31 77 88 90 96 99 111 116 117 117 122 86 28 29 78 66 57 51 53 53 52 51 54 55 53 54 53 53 51 51 51 48 45 44 40 40 34 24 66 69 118 127 128 107 109 101 100
102 101 101 100 100 100 96 93 97 37 51 57 67 72 72 76 83 85 90 82 102 127 125 108 86 92 87 105 109 119 119 130 102 28 59 75 82 80 86 113 116 116 117 122 84 33 31 88 118 111 113 118 117 120 121 123 123 122 121 125 127 126 126 126 125 123 118 120 118 105 56 75 76 122 127 122 119 120 122 118
101 100 102 100 100 101 97 93 95 33 51 57 67 71 71 75 83 85 90 81 105 127 123 104 85 91 88 105 110 118 120 128 96 31 82 94 99 97 94 112 115 116 117 121 82 38 33 92 115 104 101 104 105 109 107 106 107 105 105 116 118 119 124 121 122 122 126 132 127 108 56 76 78 121 129 112 73 70 73 79
102 101 102 100 101 98 98 98 94 31 51 57 67 70 71 75 83 85 91 80 109 127 122 101 85 90 88 105 111 117 123 126 93 34 85 94 110 114 109 114 115 116 116 121 80 38 33 92 88 85 85 81 85 88 88 87 84 77 79 93 109 111 118 116 121 124 125 130 120 98 58 73 74 124 128 123 80 67 51 63
101 101 99 99 100 98 98 99 94 29 52 56 67 70 71 74 83 84 90 79 111 126 120 97 86 89 90 104 112 117 124 125 93 29 73 73 103 114 114 114 115 116 116 121 78 37 33 87 85 91 93 79 91 98 97 99 93 79 79 88 99 105 108 111 114 117 115 111 103 83 48 70 76 121 132 128 125 120 113 102
98 103 101 98 99 97 96 90 87 27 52 56 67 70 70 75 84 84 90 78 114 126 118 95 86 87 91 102 112 117 126 123 90 31 81 82 106 113 114 115 114 116 116 121 77 35 32 87 85 87 88 76 82 78 72 77 83 84 85 88 92 95 96 102 101 100 102 101 90 73 45 66 71 120 126 125 125 126 123 117
99 102 104 100 100 95 97 92 85 26 53 57 67 69 70 76 84 85 89 78 117 127 117 92 86 84 91 101 112 117 128 119 86 37 88 79 102 104 110 112 99 107 113 117 76 36 33 69 66 65 68 67 69 68 70 77 84 101 98 92 98 106 97 109 116 107 98 85 88 92 90 88 94 99 96 83 77 76 80 75
103 108 108 107 105 102 98 95 83 26 53 57 67 68 70 77 85 87 88 79 119 126 115 90 85 82 91 99 112 117 129 116 85 32 76 78 79 80 80 83 80 90 85 98 75 38 34 42 58 64 67 69 71 74 76 80 86 103 97 88 112 113 105 126 140 128 114 100 100 122 107 104 119 119 119 107 75 65 83 67
99 106 106 103 106 105 104 103 82 26 54 57 67 68 70 79 85 88 86 80 121 125 113 88 85 80 91 98 112 118 130 113 83 34 83 85 88 89 86 89 87 87 86 101 74 37 33 44 59 65 67 68 71 74 75 80 86 106 98 95 114 110 114 101 119 113 106 111 102 111 97 111 118 119 120 123 98 71 95 83
100 98 101 99 98 99 95 93 77 27 54 57 67 67 70 80 85 89 84 82 123 124 111 87 85 78 90 97 112 118 130 111 79 42 93 98 107 110 112 113 114 115 110 110 72 34 32 43 58 63 65 66 70 74 76 81 86 102 97 98 119 112 121 102 99 105 102 118 110 100 100 112 114 114 117 117 94 79 91 91
101 100 101 99 100 96 95 93 74 27 54 58 67 67 70 81 84 90 82 83 124 123 109 86 85 77 89 97 112 120 130 106 77 39 76 92 86 96 94 94 99 98 109 120 70 38 33 41 55 60 63 65 68 73 77 81 87 112 99 97 107 113 116 110 100 106 109 106 104 97 94 109 115 115 116 112 97 81 83 89
99 101 103 97 101 98 92 93 70 28 54 58 67 66 71 82 84 91 80 85 125 122 108 86 84 76 89 97 113 120 130 109 76 44 81 91 96 98 99 97 101 98 106 120 69 38 33 41 55 60 64 66 69 73 77 81 88 121 102 87 94 106 122 123 108 104 105 89 109 104 95 108 116 120 119 118 107 94 83 75
99 99 99 97 99 99 91 90 66 29 54 59 67 66 71 83 84 91 77 87 125 121 106 86 83 73 89 98 113 122 128 103 74 42 74 83 90 96 91 94 100 95 106 119 67 38 33 40 54 59 64 66 68 72 77 81 87 107 90 80 96 108 119 124 114 99 101 83 102 94 100 95 98 97 108 114 113 104 99 75
100 99 102 99 94 99 96 93 63 30 54 59 67 66 72 84 84 92 76 90 126 119 105 85 82 74 89 99 114 122 126 100 71 44 83 88 95 102 97 98 99 98 107 119 65 38 32 36 47 51 56 58 59 61 65 69 71 105 110 106 113 119 123 120 115 109 109 105 112 110 112 105 99 98 58 66 72 69 69 59
104 102 98 99 98 97 93 96 60 31 53 59 67 65 73 85 84 92 74 94 125 117 103 85 80 74 89 100 114 123 124 102 67 54 94 99 106 107 109 111 113 113 113 117 64 38 32 29 40 47 53 55 57 58 60 66 73 129 137 120 135 139 138 140 137 108 104 122 135 133 132 131 135 133 66 63 72 69 67 65
102 102 97 98 100 95 92 96 56 33 54 60 66 65 73 85 84 91 72 98 125 115 101 85 78 74 89 102 115 123 122 105 65 57 93 99 105 106 108 109 111 112 112 116 62 37 31 31 42 49 56 57 58 60 62 66 72 128 135 110 129 138 139 139 135 94 92 113 115 110 104 113 134 132 70 64 73 69 63 60
100 99 98 98 96 96 92 97 53 34 53 60 66 65 75 86 84 90 71 102 124 115 100 84 78 75 88 103 115 124 118 99 62 60 93 99 105 106 107 108 110 111 111 115 60 35 30 32 43 49 55 57 56 59 61 64 69 120 130 117 127 131 131 131 128 106 106 121 132 129 129 130 128 127 77 68 73 71 71 69
101 100 99 98 97 97 92 95 49 36 53 60 65 65 76 85 85 90 71 106 123 114 98 85 74 75 89 105 115 124 116 100 59 62 91 98 105 105 106 108 109 109 110 114 58 32 29 27 36 44 52 56 55 57 62 69 55 23 23 26 25 27 28 29 30 30 32 34 33 32 31 27 39 33 23 21 20 20 20 19
99 98 101 95 98 98 93 96 46 37 53 60 65 65 77 85 85 88 72 110 122 113 96 84 72 77 89 106 115 125 115 105 57 22 28 28 40 101 107 107 108 109 110 113 56 35 28 20 36 48 54 60 65 65 67 75 55 8 36 20 18 20 20 6 2 3 2 16 23 22 9 26 43 36 45 43 44 38 18 8
99 105 105 101 101 99 95 95 43 38 52 60 64 64 78 84 85 87 74 113 121 112 94 84 70 78 89 107 115 126 108 102 54 16 14 8 19 100 107 107 108 108 109 112 54 37 27 24 37 47 54 59 64 65 66 74 54 10 65 40 40 44 35 6 5 4 13 22 20 24 18 26 42 30 30 28 31 28 15 5
100 102 103 103 102 102 100 102 39 39 52 60 63 64 79 83 88 85 77 115 119 112 93 85 71 79 90 108 115 127 104 100 52 29 28 15 27 101 106 106 107 108 108 111 52 33 26 28 45 51 54 60 63 59 61 68 47 3 7 11 16 18 20 19 21 30 35 38 41 39 36 33 44 41 40 46 45 40 45 48
101 101 98 98 95 95 92 95 37 40 52 59 62 64 81 82 88 83 79 114 118 113 93 86 70 80 91 109 115 127 100 100 49 33 35 25 38 102 106 106 107 108 108 111 50 34 24 54 90 89 90 91 84 37 21 21 14 10 18 29 35 38 38 40 37 25 46 80 83 80 77 80 84 86 88 89 88 86 87 86
101 101 101 99 96 96 90 94 34 41 51 59 62 64 82 82 89 81 82 112 116 114 93 85 68 80 93 109 115 127 98 100 46 32 34 23 37 104 108 108 107 107 108 110 49 34 21 51 76 66 67 80 90 48 18 20 33 39 42 42 40 49 48 46 38 21 42 70 69 78 72 79 87 89 88 87 86 87 89 90
98 103 99 97 96 95 89 93 31 41 51 59 61 65 82 81 89 79 87 109 115 114 91 85 65 81 94 109 115 126 99 102 44 28 27 15 26 83 82 73 78 108 107 109 47 24 12 51 75 68 74 79 80 66 23 29 45 51 54 53 42 57 62 54 40 24 36 63 70 74 67 79 82 88 86 84 84 87 88 89
100 104 100 100 96 94 90 93 28 42 50 59 60 66 84 80 90 76 92 104 113 115 90 84 65 81 96 110 115 125 98 104 42 21 19 13 20 50 51 51 55 79 106 107 38 17 9 45 84 81 83 85 83 73 33 27 27 25 27 30 33 36 39 40 41 22 17 59 72 82 83 85 89 88 85 80 78 82 84 87
98 102 100 100 97 95 92 92 26 42 49 58 59 67 84 80 90 75 97 97 112 116 91 83 66 81 98 110 116 123 90 101 39 10 8 5 15 52 53 53 52 61 106 104 32 16 12 12 12 19 28 32 28 32 24 24 33 34 36 38 41 44 45 42 46 41 36 51 60 65 65 67 64 75 83 78 77 82 81 82
101 102 100 99 96 95 90 91 25 42 49 57 58 67 84 80 90 75 102 90 109 117 93 82 67 81 100 109 117 120 89 100 35 9 9 8 18 53 53 53 53 63 106 104 32 12 12 10 6 14 30 41 47 57 58 65 91 92 92 92 94 95 96 96 97 97 100 100 103 104 101 101 98 103 110 110 109 107 108 108
101 103 101 97 94 92 93 89 23 42 47 56 57 68 83 80 90 75 105 83 105 120 96 81 69 82 102 109 118 119 97 101 36 37 41 47 49 53 53 53 52 55 99 104 31 10 12 9 5 16 32 42 50 62 68 87 121 122 119 119 119 122 123 122 121 120 123 125 126 127 128 123 123 124 126 124 121 117 116 116
109 108 108 101 98 96 92 88 22 41 46 55 56 69 82 80 89 77 106 76 100 120 100 81 71 82 103 109 119 116 100 101 31 38 44 51 52 53 53 54 59 84 106 104 34 14 14 10 7 19 32 40 47 59 65 89 129 126 124 122 122 123 123 122 121 122 124 126 125 124 125 120 119 120 123 122 118 116 115 115
94 99 101 102 105 105 105 91 20 38 41 48 48 70 80 81 89 81 109 81 94 121 106 83 75 84 105 109 121 114 104 101 35 57 44 53 54 55 57 67 76 89 102 106 39 22 20 9 9 20 31 41 46 56 64 83 125 123 121 120 120 121 122 121 120 120 121 123 122 121 120 117 116 117 118 120 117 113 115 115
16 22 22 22 26 33 44 50 15 15 16 16 21 69 79 81 88 84 109 82 91 120 113 86 79 87 106 109 127 83 42 46 33 89 75 65 63 62 66 78 88 100 107 105 39 24 21 8 11 13 19 27 33 43 60 76 124 126 124 123 123 125 126 125 124 124 125 126 127 124 122 123 124 125 124 123 120 120 119 116
8 9 22 33 38 35 25 14 22 53 51 52 52 74 75 79 86 89 107 79 89 116 121 93 83 90 106 109 122 52 6 7 32 77 84 85 84 93 103 106 108 108 108 105 38 22 18 8 19 22 21 32 39 36 36 33 88 105 102 99 96 98 94 90 87 86 83 81 80 76 78 79 76 71 66 64 59 58 52 55
46 47 61 69 76 85 89 83 77 89 80 68 71 96 87 82 81 77 90 90 93 103 108 95 91 94 105 111 111 89 86 82 84 89 97 106 113 116 115 109 107 108 109 105 37 20 15 6 31 58 45 34 34 41 48 33 34 42 41 41 43 42 42 43 42 44 45 48 48 47 52 54 51 49 48 49 48 47 45 37
81 86 89 88 84 84 85 85 83 86 90 83 86 101 103 102 101 97 98 105 102 102 98 100 106 113 120 121 120 117 114 110 111 114 118 118 116 113 112 111 109 110 111 105 35 18 12 5 31 67 68 65 54 38 27 27 54 74 70 66 63 62 59 56 53 50 48 46 45 45 45 46 46 48 47 48 51 53 55 58
87 93 90 87 87 89 88 86 90 89 85 90 92 89 89 91 92 91 98 101 92 91 105 110 117 122 121 120 119 117 112 106 112 115 115 115 114 112 111 111 109 103 105 99 33 15 11 12 28 64 66 68 68 69 63 50 33 32 39 44 49 54 59 64 69 76 81 88 94 99 104 109 112 115 117 119 120 119 120 121
90 91 90 88 91 87 88 93 92 88 93 95 91 92 91 88 90 97 104 108 101 99 96 113 123 122 120 119 118 117 116 116 115 114 114 114 114 114 112 113 108 84 81 77 53 36 27 23 25 60 64 68 67 68 69 69 67 73 119 127 127 128 128 128 128 127 127 127 126 125 125 124 124 123 122 122 121 120 120 119
83 87 92 90 88 89 92 89 91 96 94 92 94 92 90 93 101 109 115 112 106 115 106 119 125 121 120 121 120 118 115 114 113 114 114 114 110 104 100 96 87 82 82 78 60 43 33 28 24 55 61 65 65 66 67 67 66 68 111 126 124 124 123 124 124 123 123 123 123 122 122 121 122 122 121 121 120 120 120 120
81 85 90 87 88 89 87 92 94 91 90 94 90 89 95 102 110 117 116 97 88 117 118 119 125 123 118 97 92 98 105 108 108 105 100 96 90 87 87 86 84 84 84 82 75 67 53 39 24 35 50 60 62 63 64 65 65 65 102 124 123 123 123 123 123 123 123 124 123 122 122 122 122 121 121 121 121 120 119 121
77 81 84 83 85 87 89 89 88 86 87 87 87 94 101 111 117 105 71 57 57 76 46 26 76 115 80 56 65 74 86 94 96 97 97 97 97 97 96 95 96 95 95 93 92 91 90 85 75 56 39 34 42 53 62 63 63 63 95 125 123 123 123 123 123 123 123 123 123 122 122 121 120 119 119 117 116 112 109 107
79 81 82 82 82 83 84 85 83 81 83 87 92 100 111 116 100 74 80 63 27 23 30 38 50 83 84 93 97 99 97 96 97 96 96 96 96 96 94 90 93 88 87 86 85 88 85 83 88 95 81 60 43 33 38 51 61 61 92 120 118 118 117 116 116 115 111 108 104 98 92 85 80 74 67 65 63 63 64 67
