P2
80 80
255
107 108 110 112 114 114 116 119 120 119 120 121 121 122 122 122 125 123 122 124 124 127 117 102 97 148 188 188 192 199 204 195 203 202 204 206 204 208 208 207 205 194 194 189 191 213 205 191 217 214 214 217 103 59 64 66 68 182 217 214 213 211 95 61 63 63 71 194 215 213 214 204 84 69 74 70 86 205 215 213
110 110 108 110 113 114 114 119 120 121 121 122 122 122 123 123 123 124 124 126 124 128 107 78 72 143 198 193 184 183 183 184 193 191 195 193 193 197 204 206 207 198 195 188 190 209 203 194 223 221 213 175 165 142 155 164 164 194 190 196 200 207 161 125 140 157 160 201 209 208 204 202 154 79 68 67 82 209 220 218
105 107 109 110 109 114 114 118 121 121 122 123 121 125 124 125 126 126 125 127 128 130 106 76 74 148 199 196 181 192 190 188 200 198 202 195 199 203 203 205 208 210 203 202 211 206 207 149 139 141 112 120 185 168 180 188 200 191 172 184 197 201 182 159 183 208 210 205 205 205 203 200 190 150 139 140 141 154 154 154
106 108 111 112 113 114 115 121 121 119 121 125 123 124 125 124 126 126 126 128 129 130 107 78 74 150 202 183 162 168 160 152 161 162 174 155 157 163 196 208 208 203 198 208 209 208 209 107 60 63 38 105 161 148 153 156 169 166 163 159 155 158 161 152 153 167 180 179 180 180 179 190 194 216 220 221 208 83 63 63
109 111 112 113 116 117 117 121 122 121 125 126 125 125 128 125 125 128 130 128 128 131 110 80 75 150 202 185 159 159 147 154 148 148 150 153 144 154 199 206 205 197 206 209 209 207 207 109 67 68 40 107 159 152 146 154 155 164 164 164 164 167 166 168 166 166 165 165 167 162 157 175 191 211 215 215 204 88 69 67
110 110 112 114 114 114 118 122 123 123 123 124 125 125 129 127 129 129 130 128 127 129 106 79 75 151 200 201 196 199 197 194 195 194 200 202 202 193 174 190 182 201 209 208 206 208 212 109 68 66 37 103 162 155 142 160 148 160 155 159 159 164 159 161 159 161 165 161 160 164 164 174 190 209 216 216 205 88 69 69
111 111 113 116 116 115 117 119 122 122 123 124 123 128 128 127 128 127 128 127 126 129 104 78 74 153 202 186 171 167 173 173 182 188 204 202 167 168 165 192 195 187 202 206 208 210 212 110 69 65 35 105 153 152 143 140 161 166 161 153 156 165 168 162 163 164 159 170 166 152 153 174 198 211 216 216 206 92 69 70
111 111 112 113 115 115 120 118 119 122 126 122 124 128 127 125 125 127 127 126 125 127 105 77 74 154 202 190 145 139 124 139 140 159 205 167 171 183 151 194 195 168 191 209 209 210 212 107 63 58 35 107 153 150 143 146 148 156 166 157 158 157 169 169 163 166 156 166 164 166 164 178 198 214 220 220 211 91 67 66
111 112 112 114 117 116 120 121 122 121 124 122 124 126 128 126 126 126 123 123 124 127 104 77 74 155 202 198 186 183 179 176 189 195 199 162 200 193 162 196 167 193 197 206 210 210 206 143 131 118 77 106 143 142 163 168 163 163 165 167 168 167 165 169 168 168 166 164 166 164 169 179 198 175 172 172 170 130 119 118
110 113 114 113 114 117 120 119 122 121 125 126 125 126 127 127 127 127 122 124 124 127 105 77 75 157 203 199 201 198 199 194 188 201 199 167 194 191 161 155 158 201 198 202 209 208 197 194 227 205 140 118 162 155 164 166 167 166 167 167 165 164 164 165 166 167 167 167 168 171 168 181 199 95 71 71 81 202 220 217
109 112 113 115 116 119 122 120 123 123 123 124 125 125 128 127 128 126 124 123 124 127 104 78 75 160 201 201 193 151 142 147 147 196 197 185 153 160 113 137 140 188 196 198 208 210 201 194 221 195 136 131 188 179 159 162 163 165 165 164 162 160 163 162 163 166 168 168 168 169 167 177 198 99 74 73 82 199 216 213
109 109 113 116 119 118 119 121 121 120 121 124 124 124 124 128 126 126 126 128 128 131 105 80 76 162 201 202 195 158 166 162 163 201 193 186 158 140 120 155 143 165 195 201 210 211 203 197 222 191 135 139 202 185 135 139 139 143 140 143 145 144 146 146 145 145 143 142 142 145 140 174 198 100 76 74 83 198 216 213
111 110 111 113 116 119 118 120 122 120 124 122 123 122 125 126 125 126 127 128 129 131 103 79 76 162 203 200 194 207 198 193 205 205 193 185 167 142 175 181 134 167 197 206 210 210 203 200 221 185 133 145 206 182 130 130 131 131 131 133 141 143 144 143 144 134 131 130 131 132 131 173 199 102 76 75 83 198 216 213
108 109 110 112 116 117 119 118 120 119 119 120 121 121 124 125 124 126 128 130 130 129 104 79 76 162 206 183 135 165 139 146 163 162 165 193 170 127 196 203 134 182 196 207 206 207 202 205 224 183 133 158 206 187 178 184 183 183 177 176 172 174 168 171 171 176 177 176 175 162 160 174 190 98 78 72 80 199 219 217
113 110 110 113 114 117 118 114 116 115 116 117 118 120 122 124 125 127 127 128 127 128 103 78 78 163 204 180 151 141 144 140 136 155 166 196 173 160 199 199 161 167 204 208 209 210 205 180 186 144 110 160 203 195 206 211 209 211 188 182 187 197 197 189 198 201 205 203 184 180 194 190 192 125 111 104 107 180 193 191
113 112 116 118 118 117 118 115 114 115 116 118 120 117 120 125 126 127 128 127 128 129 101 79 77 160 193 190 195 194 200 191 191 200 202 206 190 181 193 189 182 201 209 209 209 210 206 102 70 42 39 159 205 198 205 208 206 205 179 174 177 182 199 198 196 190 194 193 146 171 190 196 199 206 214 214 209 105 79 81
113 112 113 112 117 118 116 115 114 117 118 120 122 119 119 124 124 125 125 124 125 129 99 75 78 166 201 184 159 187 190 186 187 189 186 182 160 174 175 174 202 206 206 206 206 208 204 99 67 38 33 160 212 209 210 208 206 203 174 170 178 187 195 198 196 191 191 194 148 150 173 190 200 208 216 216 212 103 75 75
112 112 114 115 116 117 116 114 118 119 120 121 122 121 120 125 124 124 123 125 127 127 97 77 78 162 196 172 127 126 141 153 146 146 140 147 138 146 148 152 192 198 202 207 207 208 203 102 66 36 35 163 210 206 206 202 200 201 179 175 182 191 197 200 198 196 195 200 184 170 184 192 197 206 215 215 212 104 76 76
111 112 116 115 117 117 118 116 118 119 122 119 121 123 122 125 127 126 122 126 127 125 97 78 78 167 200 183 172 175 180 175 175 148 175 189 181 183 185 186 203 206 199 203 208 209 204 103 64 34 37 153 182 186 178 195 204 201 193 191 185 197 201 200 185 183 197 200 181 176 189 198 196 205 214 215 212 109 75 77
112 114 116 117 117 118 119 118 118 117 119 120 121 121 122 125 126 125 125 125 128 128 98 77 78 170 205 200 196 206 201 197 207 203 207 208 201 207 202 204 207 208 204 200 208 209 204 105 60 31 38 158 181 180 174 189 197 199 196 196 193 200 199 194 183 188 198 199 184 192 188 195 197 206 215 216 214 116 80 79
115 114 114 114 118 118 118 119 117 118 122 121 123 121 122 125 123 124 127 128 132 129 100 79 80 170 201 199 194 199 194 201 204 204 203 204 198 202 197 203 205 205 204 199 207 208 203 120 76 44 48 171 194 183 165 188 198 193 197 201 201 190 184 182 181 177 196 200 191 192 192 194 196 198 205 206 205 119 93 94
113 114 114 116 117 118 118 119 117 119 119 122 123 122 122 124 123 124 126 127 128 130 99 80 81 173 205 202 185 190 190 198 193 205 207 207 198 204 197 203 209 209 203 201 209 210 200 196 191 141 119 173 205 189 181 198 198 191 194 195 184 176 179 177 187 190 198 202 200 191 197 194 196 121 94 92 96 182 202 200
111 112 116 117 119 117 119 119 119 121 122 122 122 122 121 125 126 126 128 129 130 129 100 82 84 174 203 195 175 179 184 196 199 203 203 204 198 202 197 196 201 200 197 204 205 206 196 202 198 148 127 177 211 204 183 181 180 195 197 185 175 169 175 191 200 200 197 199 195 187 195 196 194 110 80 72 78 191 218 214
113 117 116 116 120 120 117 118 119 121 122 120 119 122 121 124 126 123 127 129 129 130 99 81 85 175 201 191 190 190 199 203 205 205 205 205 206 206 198 195 197 199 206 208 208 209 197 200 191 146 127 179 209 202 178 170 159 184 186 177 179 171 185 196 202 197 185 192 194 181 188 199 181 104 81 74 79 188 216 213
114 116 116 118 119 117 118 121 121 120 120 119 122 123 121 123 125 126 128 129 129 131 97 80 83 170 193 190 199 197 206 205 205 206 206 206 206 206 198 198 201 208 207 207 207 208 192 198 187 145 126 181 209 206 196 170 173 184 187 165 181 185 199 202 201 189 177 193 191 168 177 199 180 101 81 74 79 187 216 213
78 82 97 123 118 119 120 120 114 120 123 119 121 123 121 121 124 124 125 129 131 130 98 80 83 176 198 193 197 198 202 202 202 203 203 203 203 203 197 201 197 205 205 206 206 205 191 196 183 145 126 177 200 205 199 172 182 195 191 182 197 201 200 195 180 175 184 200 183 163 168 199 184 100 77 75 78 187 216 213
44 64 90 124 108 112 111 107 70 103 128 126 126 126 128 127 126 125 130 131 132 129 97 81 85 182 198 198 196 199 205 206 206 207 207 206 206 206 198 206 199 204 208 208 207 205 192 191 176 143 124 161 185 200 207 207 205 190 195 197 204 204 195 172 165 191 205 199 181 163 169 197 192 104 77 75 77 187 218 214
48 72 102 115 103 107 105 106 62 90 121 120 121 122 124 126 128 130 134 135 134 129 98 80 86 182 196 196 177 183 189 194 193 192 193 202 205 204 197 204 201 198 205 205 202 208 194 140 68 52 68 153 172 178 199 206 205 203 201 203 201 201 199 182 185 201 201 192 184 163 190 194 194 179 179 179 180 130 110 113
47 93 118 109 101 105 103 106 64 83 115 115 115 114 117 119 121 123 128 130 131 131 98 80 87 179 197 199 185 191 193 193 194 192 200 205 205 205 198 205 206 197 206 204 205 209 193 126 33 23 50 151 175 171 192 205 203 203 202 203 202 201 199 199 200 198 198 182 174 170 198 199 192 202 215 216 217 108 67 73
47 103 115 101 98 103 103 111 80 79 110 111 111 112 113 115 117 118 122 125 128 133 96 79 87 180 205 191 178 204 204 203 208 211 210 210 211 209 202 211 211 203 203 209 209 209 190 130 36 26 54 144 163 159 190 206 204 202 199 197 196 194 192 189 190 191 190 189 174 178 202 197 190 199 211 212 214 114 74 77
51 81 100 100 95 97 105 116 103 80 106 107 107 111 111 111 112 114 117 120 125 134 95 78 86 183 209 193 175 193 192 190 198 201 200 198 199 200 197 198 203 203 206 210 209 203 189 134 35 26 55 159 170 177 202 198 202 200 199 198 196 197 197 197 201 201 201 195 178 183 202 197 189 199 211 212 214 115 74 75
52 62 86 92 91 99 111 121 116 77 87 106 103 107 109 108 109 110 113 114 122 140 151 151 156 176 176 182 174 180 180 178 153 144 144 139 145 160 161 146 174 194 197 200 202 197 203 151 38 25 58 176 180 198 203 186 187 202 202 199 195 193 195 201 205 204 204 200 190 199 204 198 188 198 211 213 214 116 73 75
38 41 44 46 50 55 60 67 76 64 64 99 98 100 102 104 103 104 106 109 115 136 179 168 168 156 161 169 171 172 169 175 178 175 170 175 179 180 181 174 191 209 206 210 218 218 217 171 61 20 58 172 183 211 203 190 191 204 205 198 195 191 190 183 192 208 209 208 205 208 206 201 193 198 212 213 214 112 67 70
135 122 108 95 83 71 56 43 43 86 130 140 128 119 121 127 127 133 127 129 139 156 183 165 176 176 168 159 147 141 133 132 130 149 179 178 179 177 178 164 184 200 203 205 205 205 205 169 88 80 91 158 197 217 211 201 191 202 200 204 199 201 201 184 184 209 211 207 196 201 208 191 176 211 222 220 219 174 152 148
216 218 216 214 211 205 194 180 168 152 188 222 219 216 190 183 176 181 186 185 183 211 222 219 198 188 189 185 182 177 170 170 124 73 107 104 102 106 129 67 104 135 139 136 131 125 122 110 80 114 106 146 172 177 173 169 158 159 160 161 167 174 171 154 152 171 169 164 151 148 157 173 168 211 219 219 222 227 228 217
181 187 187 189 193 196 206 208 208 154 168 218 215 190 169 180 176 180 179 182 184 215 223 219 195 190 191 196 208 218 217 225 201 80 48 44 44 44 49 44 46 49 52 53 52 55 59 65 61 74 90 85 84 88 84 80 80 79 76 77 78 83 86 85 82 81 83 83 81 71 45 153 162 204 214 210 213 218 223 213
194 192 192 193 191 185 187 186 196 148 167 215 191 165 167 178 178 181 180 182 187 218 223 217 192 190 189 198 207 215 211 219 213 91 90 100 99 99 96 108 111 117 132 138 135 137 148 143 109 75 133 150 131 103 126 141 144 141 130 112 138 124 108 130 141 135 143 153 144 96 52 150 159 214 222 214 194 196 196 198
206 203 201 202 199 197 199 202 203 133 167 192 161 164 165 177 178 181 182 183 189 219 222 214 190 191 187 199 207 216 211 221 208 89 118 129 131 130 132 137 142 145 146 146 130 100 130 104 58 84 193 206 160 110 122 143 141 142 140 117 137 112 104 127 140 136 134 130 130 97 49 146 165 217 221 220 201 210 201 199
198 198 199 197 196 195 195 190 197 122 161 160 154 164 164 175 177 181 183 183 191 220 222 212 187 191 185 200 206 216 212 223 203 93 182 205 211 213 214 215 215 215 216 222 176 88 93 84 39 70 96 84 79 86 88 86 85 88 92 80 72 72 74 72 72 70 68 67 66 58 39 149 168 213 224 204 163 185 187 180
199 197 199 199 197 195 193 188 196 111 145 146 155 164 164 173 177 181 185 181 193 221 221 210 185 190 183 201 205 215 212 223 200 92 182 202 207 211 213 211 212 213 214 219 170 104 103 135 39 45 26 28 28 29 28 29 29 26 25 23 21 20 19 19 18 16 14 13 10 5 15 151 169 214 223 198 169 159 132 134
198 199 199 199 196 197 194 189 195 102 133 144 156 164 164 171 178 179 185 179 196 221 220 207 183 190 183 201 205 215 213 223 196 88 166 181 182 189 192 207 212 213 214 219 169 86 89 160 146 130 119 122 122 120 117 123 124 121 120 118 116 114 112 111 104 96 93 88 86 78 67 151 158 213 221 222 195 197 190 191
198 197 198 197 198 197 193 189 194 94 132 144 157 163 163 169 178 180 186 178 198 221 219 204 182 188 183 202 206 215 215 223 193 83 139 163 170 167 175 209 212 212 213 219 167 96 92 174 216 209 211 216 215 218 218 220 220 219 218 222 223 223 223 223 222 221 217 218 217 202 142 167 168 216 222 214 211 213 218 215
198 197 199 197 197 198 193 190 191 87 132 144 158 163 163 168 178 181 187 176 201 221 219 201 181 188 184 202 206 214 216 222 187 89 173 189 194 191 187 209 212 212 213 219 164 103 96 177 211 198 196 199 200 203 202 200 201 199 199 211 213 215 219 217 217 217 220 225 222 203 141 169 171 216 224 202 153 150 154 164
199 198 199 197 198 194 194 194 189 84 133 143 158 162 162 167 179 180 188 174 204 221 217 197 181 186 185 202 207 214 218 220 183 93 178 190 207 210 206 210 212 212 212 218 161 104 96 178 179 176 177 172 176 180 181 180 176 168 170 184 206 208 214 212 216 219 219 223 216 193 145 165 165 218 222 216 162 146 124 140
198 197 196 195 197 194 194 196 187 81 135 142 158 162 162 167 179 179 187 174 207 221 216 194 181 185 186 201 208 213 219 219 182 87 160 159 198 210 211 211 212 212 212 218 159 103 96 174 178 189 190 171 187 196 194 197 189 173 173 180 196 202 205 207 211 213 211 208 200 176 128 161 168 216 225 222 220 213 206 193
195 199 197 195 196 194 193 187 178 77 135 142 157 161 162 168 179 180 187 173 209 221 215 191 182 182 187 199 209 213 220 217 178 89 173 173 202 210 211 212 211 212 213 219 158 100 94 174 177 184 184 166 176 170 162 168 177 179 180 183 189 192 192 198 197 196 198 195 185 164 124 155 161 214 220 219 220 221 219 214
195 199 201 197 197 192 194 189 174 77 137 142 157 160 161 169 179 180 185 172 212 221 213 188 181 179 188 198 209 213 222 213 173 99 184 169 199 199 206 208 192 202 209 214 156 100 94 153 154 153 157 157 160 159 161 170 180 197 194 187 193 201 192 204 210 202 194 180 183 186 183 182 189 194 191 176 168 167 172 167
199 205 205 204 202 199 195 192 170 78 138 143 157 159 161 171 180 182 184 173 214 221 212 185 181 176 188 196 209 213 223 211 170 92 166 167 168 168 169 172 167 180 174 191 154 104 96 117 145 153 157 159 163 167 169 174 182 199 192 182 206 207 200 219 231 222 210 196 197 218 203 201 215 215 215 203 167 154 177 158
196 202 203 200 203 201 201 201 167 78 139 144 157 158 161 173 181 184 181 174 216 220 210 184 181 173 187 195 209 214 223 208 167 96 177 178 179 181 176 179 176 176 175 195 153 103 95 120 147 154 157 158 163 166 168 175 182 202 194 190 208 204 209 195 213 207 200 207 198 207 191 207 214 214 215 218 194 162 190 177
197 195 198 196 195 196 191 190 159 80 139 144 157 157 162 174 181 185 180 176 217 219 208 183 180 172 186 194 209 214 223 208 162 109 192 195 205 207 210 210 211 211 206 207 150 97 94 119 146 151 154 155 160 166 170 175 182 199 193 193 213 206 215 198 195 199 196 212 205 196 194 208 210 210 213 213 191 173 186 187
198 197 198 196 196 193 191 191 153 82 140 145 157 157 162 176 180 187 177 177 218 218 206 182 180 170 186 194 209 215 223 202 159 106 166 187 177 190 186 187 192 191 203 219 148 104 95 115 140 147 152 154 159 166 171 176 183 208 195 193 202 207 211 206 196 201 204 199 199 193 188 205 211 211 212 208 194 175 177 184
196 198 200 194 198 195 189 190 147 84 140 145 157 156 162 177 180 188 174 178 219 217 206 181 179 169 185 194 209 216 223 207 156 114 175 187 190 193 194 191 195 191 201 218 146 104 94 114 141 148 153 156 160 165 171 176 184 216 197 181 190 202 216 218 204 200 202 183 203 200 191 205 212 216 215 214 204 191 177 168
196 196 197 194 195 195 187 188 141 87 139 145 157 156 163 179 179 188 171 180 220 216 204 182 177 165 185 195 210 217 221 200 153 110 162 173 182 189 183 187 194 187 202 217 143 103 94 112 139 146 153 156 159 163 170 176 183 203 185 173 192 204 214 217 210 196 198 177 199 190 195 190 193 192 203 209 208 200 195 166
197 195 198 196 191 196 192 191 135 89 140 146 157 155 164 180 179 189 169 184 220 215 202 181 177 166 185 196 210 218 220 197 149 114 176 182 188 198 190 193 194 191 202 217 141 105 92 106 128 133 141 144 144 149 154 159 162 196 200 196 204 211 216 212 206 200 200 196 204 201 204 196 189 187 137 151 157 154 154 139
200 199 195 195 195 193 189 194 128 92 139 146 156 155 165 181 179 189 166 188 220 213 200 181 174 165 185 197 211 218 218 200 143 128 193 197 203 204 206 208 210 210 210 215 139 104 92 91 116 128 137 140 142 145 148 155 165 221 228 215 226 230 229 230 228 200 196 214 227 225 224 224 228 227 150 150 163 158 157 153
199 198 194 195 197 191 188 194 122 96 139 147 156 154 166 181 179 188 164 193 220 212 198 180 171 165 185 199 211 218 216 203 139 134 192 196 202 203 205 206 208 208 208 215 136 103 90 96 119 131 141 143 144 148 150 155 164 220 227 207 222 229 230 230 227 186 184 207 210 205 199 208 227 226 157 151 164 158 151 147
197 196 195 195 193 192 188 196 116 99 138 147 155 154 167 181 179 187 163 197 219 211 197 180 171 167 185 200 212 219 211 197 136 139 192 196 202 203 204 205 207 208 208 213 133 99 88 99 121 130 140 143 141 145 149 153 160 212 222 211 220 223 224 224 221 200 200 216 225 222 222 223 220 221 167 157 163 161 161 159
198 197 196 195 193 193 188 193 110 102 138 147 154 154 169 181 180 186 163 201 218 211 195 180 165 168 185 202 212 219 210 199 131 142 190 196 203 203 203 205 206 206 207 213 131 94 87 86 105 123 135 142 137 143 150 160 132 61 59 65 66 69 69 71 73 73 77 81 79 76 75 69 89 78 61 57 58 57 55 54
195 196 197 192 195 195 189 194 105 105 138 147 154 153 170 181 181 185 164 205 218 210 192 180 163 170 185 203 211 219 210 205 128 72 76 74 93 196 204 204 205 206 206 212 127 99 84 68 108 130 139 148 154 154 156 169 128 33 84 62 57 59 61 29 19 21 21 54 68 67 36 65 95 83 101 95 98 87 50 32
196 202 202 198 197 196 191 194 100 108 137 147 153 153 172 179 181 182 166 208 217 209 190 180 160 171 185 204 211 220 203 201 122 64 55 40 58 195 204 204 205 206 206 211 124 101 83 82 110 127 139 147 153 154 156 168 126 38 132 92 95 103 85 29 26 24 47 67 63 70 57 63 91 72 74 69 74 69 44 25
196 199 200 200 199 199 197 201 94 110 136 147 152 153 174 179 184 181 169 210 215 209 189 180 162 173 186 205 211 221 199 198 120 92 88 58 77 197 204 203 204 205 206 210 122 94 81 88 122 133 136 147 151 143 146 158 114 20 27 37 48 54 57 58 62 78 88 93 100 99 93 88 106 100 99 109 106 97 107 111
198 198 195 195 191 192 188 193 89 113 136 147 151 153 176 177 185 178 172 210 214 209 188 181 160 174 188 206 211 222 194 198 116 100 104 81 102 198 204 203 204 205 205 209 119 95 77 129 188 185 185 187 179 103 68 67 50 42 59 84 98 106 106 110 103 78 115 175 179 176 172 175 180 183 187 188 186 183 185 183
198 198 198 196 193 192 186 191 84 114 135 146 150 153 177 177 185 175 176 208 212 210 187 181 158 174 189 206 211 221 193 199 111 97 98 74 99 201 206 205 204 204 205 208 118 97 70 117 165 150 151 172 187 121 65 69 94 107 113 113 110 125 123 120 106 69 108 160 159 171 163 173 183 185 184 183 182 184 185 186
196 200 196 193 192 192 185 191 80 116 134 146 148 154 178 176 186 173 181 204 211 211 186 179 153 175 191 206 211 220 195 200 109 89 85 57 77 173 172 160 167 205 204 207 114 79 49 120 164 153 162 171 174 150 77 90 118 128 133 131 113 136 145 133 111 77 97 149 160 164 155 173 177 184 182 179 180 183 185 185
197 201 197 196 192 191 186 189 75 117 133 146 147 155 179 175 187 170 186 199 209 211 185 179 153 176 192 206 212 219 195 202 106 74 67 50 67 129 131 131 136 168 202 205 96 62 41 110 177 173 176 178 174 162 94 83 85 81 85 91 97 103 109 111 113 74 60 142 163 177 177 180 186 185 181 174 171 177 179 183
195 200 197 197 194 192 188 186 71 117 132 145 146 156 179 174 187 168 192 192 208 212 185 177 154 176 194 207 212 217 186 198 100 45 35 26 51 132 133 133 132 145 203 202 85 59 47 48 45 67 88 95 85 94 78 75 90 91 96 100 106 112 114 109 116 103 90 122 138 147 148 151 148 165 177 170 167 175 173 174
198 199 197 196 192 192 187 184 69 118 130 144 144 157 179 174 187 167 197 184 205 214 187 175 156 175 196 206 213 214 185 197 95 37 34 30 54 133 133 133 132 147 203 202 84 49 48 40 27 56 96 117 127 142 143 152 185 187 187 187 190 191 191 191 192 193 196 195 198 198 195 195 191 196 205 205 205 202 204 203
198 201 198 194 191 188 189 181 67 117 128 142 143 158 178 174 187 168 200 176 201 216 190 174 159 176 199 206 214 213 194 197 98 106 113 121 125 132 133 133 132 136 194 202 83 44 48 38 25 61 101 118 133 150 159 180 217 217 215 215 215 217 218 218 217 216 218 220 221 222 223 219 219 220 221 219 216 213 213 212
207 205 205 198 195 193 189 179 67 116 126 141 142 160 176 174 186 171 202 168 196 216 195 174 162 176 200 206 215 211 198 195 87 109 119 130 132 133 132 135 143 175 204 201 91 55 53 41 32 69 99 116 128 145 155 182 224 221 219 217 217 218 218 217 216 217 219 220 219 219 219 215 214 216 218 217 214 212 211 211
182 190 193 196 201 204 206 183 65 109 115 126 126 161 174 175 185 175 204 175 190 217 201 175 166 179 202 206 217 210 204 195 93 138 119 132 135 136 139 154 166 183 198 203 102 73 68 37 37 70 99 117 126 141 154 175 220 218 217 216 216 217 217 216 216 216 217 218 217 217 216 213 212 213 214 215 213 210 211 211
61 76 74 68 75 85 103 115 55 53 54 53 66 160 173 176 184 179 205 177 187 216 208 179 171 183 203 206 223 159 102 107 90 186 165 151 149 147 153 168 181 196 204 202 103 78 71 36 45 50 68 88 98 120 147 169 220 221 220 220 220 221 222 221 221 222 222 223 224 222 220 221 222 223 222 221 218 218 217 214
38 42 74 97 102 92 71 51 71 136 133 135 135 166 168 173 183 185 202 173 185 212 216 188 177 186 203 206 219 114 44 44 95 172 179 180 178 187 199 203 206 205 205 201 101 75 63 36 69 78 76 97 110 104 102 95 170 192 187 184 181 182 177 171 166 164 161 157 155 150 156 157 149 141 135 133 126 123 115 127
117 117 147 160 170 182 186 175 166 185 173 158 163 193 182 176 175 168 184 187 190 200 204 192 187 191 202 208 206 179 174 169 175 184 192 202 210 213 212 206 204 205 206 201 99 69 55 33 88 144 121 102 101 115 127 97 94 105 105 106 110 109 109 110 110 113 115 120 122 120 129 132 128 125 125 127 126 126 122 108
176 183 186 184 180 179 181 181 178 181 186 179 181 198 200 199 197 192 194 202 200 199 195 197 203 210 215 216 215 214 212 207 208 211 214 214 212 210 209 208 206 207 208 201 95 62 47 26 87 159 159 154 133 104 83 87 133 164 157 151 146 144 140 135 130 126 123 119 118 117 117 117 116 118 116 117 120 123 125 130
183 190 187 183 182 185 184 182 186 185 181 186 189 186 186 187 189 187 195 198 187 187 201 207 213 218 216 215 215 213 209 201 208 212 211 211 210 209 208 208 206 200 202 194 91 56 45 50 81 154 156 159 160 160 150 124 95 91 95 101 110 118 126 133 141 150 158 167 175 183 191 197 202 207 210 213 215 216 217 218
186 187 187 184 187 184 184 190 188 184 190 192 187 188 188 184 187 195 201 205 197 196 193 210 218 217 215 215 214 213 212 213 211 211 210 211 211 210 209 210 205 179 176 171 134 105 87 79 76 148 154 159 157 158 160 160 158 164 215 223 224 225 224 225 225 224 224 223 223 221 221 220 219 218 218 217 217 216 216 215
178 183 189 186 184 186 189 185 187 194 191 188 190 188 186 190 198 205 211 209 203 211 203 214 219 217 216 218 217 215 212 211 210 211 210 210 207 201 196 192 182 177 177 172 147 120 103 92 77 141 149 155 155 156 157 157 156 159 205 221 219 218 218 219 219 218 218 218 218 217 217 217 217 217 217 216 216 215 216 215
175 181 187 183 185 185 183 188 191 187 186 190 187 185 192 199 207 214 213 191 181 214 216 215 222 218 213 184 179 188 200 205 204 202 196 192 186 183 183 183 180 180 180 177 167 156 135 111 80 103 130 148 151 152 153 155 155 155 196 220 218 218 218 218 218 218 218 219 218 218 217 218 217 217 216 216 217 215 215 216
171 175 180 179 181 183 185 186 184 182 183 183 183 191 199 207 214 199 156 139 137 158 97 69 156 210 166 134 146 159 179 190 194 194 194 194 194 194 193 193 193 192 192 190 188 188 187 180 165 135 109 101 115 136 150 152 152 153 189 220 218 218 218 218 218 218 218 218 219 218 218 217 216 216 216 214 212 208 205 202
173 175 177 177 177 178 180 181 177 176 178 183 189 197 207 212 194 165 172 136 71 70 84 99 124 176 177 189 195 198 194 193 195 194 193 193 193 193 191 187 190 184 183 182 180 185 180 178 186 194 175 144 114 98 107 133 149 150 186 216 214 214 213 212 213 212 207 203 198 191 184 176 168 161 151 147 146 145 147 151
