P2
80 80
255
213 212 210 210 209 208 208 209 210 212 214 214 215 217 219 219 218 220 219 220 220 220 222 221 220 220 220 222 221 205 200 195 221 255 254 255 255 255 255 255 255 255 255 255 255 255 255 255 250 249 248 248 253 255 255 255 255 255 227 154 156 157 155 200 255 255 255 255 215 152 151 154 150 211 255 255 255 255 200 151
211 210 209 209 208 208 212 212 210 210 213 215 213 217 219 219 220 220 220 219 221 220 221 220 220 222 221 222 218 183 172 170 208 255 254 250 251 249 249 251 250 251 250 250 251 252 255 255 251 250 249 248 253 255 255 255 255 248 230 221 218 226 228 240 253 250 252 253 243 219 209 219 222 240 255 255 255 253 236 213
209 209 209 209 208 211 210 208 210 212 211 212 214 216 219 220 220 221 220 221 222 221 222 222 222 222 223 224 218 180 173 170 209 255 254 247 247 252 252 253 253 254 252 251 255 254 255 255 255 255 255 255 255 255 227 212 201 180 221 251 242 248 252 255 249 244 250 253 255 247 239 252 255 255 254 254 255 254 255 251
207 210 209 210 210 210 208 209 211 213 213 214 214 217 220 219 218 221 221 221 222 221 222 222 223 222 224 225 219 181 173 170 207 255 252 231 235 231 227 227 231 235 232 225 228 244 255 255 255 255 255 255 255 255 195 159 133 120 213 240 230 235 239 244 242 241 237 235 237 240 233 234 243 247 247 247 247 247 250 251
209 211 211 214 210 210 209 212 213 214 215 217 217 218 221 219 222 223 223 221 224 223 222 223 225 225 223 224 221 185 176 171 206 255 252 227 231 220 223 224 216 222 222 220 219 245 254 255 255 255 255 255 255 255 197 164 131 116 211 240 234 231 237 239 245 244 245 245 246 246 246 245 245 244 244 245 241 240 246 251
210 210 212 213 211 210 212 211 212 214 214 214 216 219 221 221 221 221 223 222 224 224 223 225 225 225 222 223 219 182 175 171 205 255 255 252 252 252 254 254 246 253 252 255 252 239 246 248 252 255 255 255 255 255 197 163 126 111 207 242 236 227 241 233 242 238 241 242 244 241 242 241 242 244 241 241 243 243 246 251
209 210 211 213 210 210 213 212 213 216 216 215 216 217 220 221 221 222 220 223 224 224 223 224 224 224 221 224 218 183 173 171 204 255 252 238 234 241 241 243 244 254 255 241 232 228 248 252 248 249 255 255 255 255 199 164 122 107 205 237 235 225 228 242 245 240 236 238 245 245 242 243 242 241 247 243 234 236 246 254
210 209 211 212 211 211 211 213 213 213 215 216 218 218 218 219 223 222 220 224 224 222 222 222 223 223 221 222 218 182 172 170 203 255 254 224 221 206 213 217 220 250 244 229 244 224 247 253 234 243 254 255 255 255 197 161 113 114 206 236 234 227 230 232 238 245 239 239 239 246 246 243 244 238 244 243 244 243 247 253
209 209 212 214 212 209 210 212 213 214 216 218 218 220 219 220 221 221 220 223 224 224 222 222 221 220 219 222 217 183 174 170 202 255 255 247 246 240 243 244 249 254 234 247 253 235 248 238 242 252 252 255 255 255 223 204 169 155 200 230 228 243 246 243 243 245 246 246 245 245 247 246 246 244 243 244 243 246 247 253
208 209 212 213 213 211 213 212 215 215 214 216 219 219 219 221 221 223 223 223 223 224 223 223 222 219 221 221 218 183 174 169 202 255 255 255 255 254 255 251 250 255 237 243 255 234 232 221 248 252 250 255 255 255 255 255 248 214 205 240 236 244 246 246 246 246 246 245 244 244 244 245 246 245 245 245 247 246 247 254
209 212 213 214 215 211 212 211 214 214 216 216 220 219 220 222 221 221 223 222 223 224 224 224 221 220 220 221 219 182 174 170 204 255 255 255 233 218 221 221 239 255 249 230 231 206 210 214 234 252 249 255 255 255 255 255 243 216 213 250 246 241 243 244 245 245 244 243 242 243 242 243 245 245 246 246 246 245 246 254
209 214 211 214 215 211 211 210 212 215 217 219 217 220 220 220 219 221 222 222 221 223 223 222 222 223 223 225 219 184 175 171 205 255 255 255 235 230 237 229 246 254 250 238 220 206 222 218 225 248 250 255 255 255 255 255 242 216 216 254 247 225 226 226 228 227 228 229 229 230 230 229 229 228 227 227 229 226 242 253
212 212 212 213 214 212 213 212 211 214 214 218 219 218 220 220 220 222 220 220 221 222 223 221 222 224 223 225 219 183 175 168 204 255 255 251 255 255 254 255 255 255 251 234 230 223 253 215 222 246 252 255 255 255 255 255 240 215 216 254 247 223 221 222 221 221 222 227 229 229 228 229 224 221 221 221 221 220 240 253
212 213 210 210 212 209 211 210 211 212 215 216 218 218 218 219 218 219 218 220 219 222 221 221 223 225 225 224 218 184 174 169 206 255 254 215 228 223 215 231 234 232 246 247 210 237 255 227 223 252 253 255 255 255 255 255 243 218 220 255 249 244 246 246 246 245 245 244 244 242 244 243 245 245 245 245 240 238 243 251
207 212 210 209 211 209 213 212 212 211 215 215 218 215 215 215 215 215 216 217 218 221 221 223 223 223 223 223 218 184 175 173 205 255 252 226 221 217 222 214 226 232 245 249 230 246 254 239 228 249 255 255 255 255 245 233 207 195 220 255 252 254 255 255 255 251 248 250 252 255 251 254 255 255 255 250 246 253 252 251
209 212 211 210 211 212 215 213 215 217 219 217 218 216 214 214 214 216 217 218 215 220 222 222 223 223 223 224 218 183 175 171 205 255 254 255 252 251 253 252 254 254 255 253 247 249 250 246 249 255 255 255 255 255 204 151 96 110 215 255 252 254 255 255 255 247 244 248 247 255 255 254 253 253 254 233 239 251 253 254
210 209 210 210 212 212 215 213 214 213 215 217 217 216 214 215 216 217 219 220 216 219 221 221 221 221 220 223 218 178 173 171 205 255 254 230 243 250 250 251 251 247 246 236 237 243 239 248 255 255 255 255 255 255 203 143 91 93 208 255 255 255 255 255 255 246 243 247 251 254 255 254 254 252 255 236 231 242 251 254
211 212 212 212 212 214 214 213 214 215 215 217 216 216 214 218 218 219 219 220 217 220 221 221 220 220 222 223 216 177 175 169 205 255 253 213 217 223 239 239 233 225 226 222 219 223 219 239 255 255 255 255 255 255 204 139 89 92 208 255 254 254 254 253 255 249 245 249 252 254 255 255 254 253 255 251 242 248 252 254
211 213 214 212 214 215 214 212 215 216 216 217 217 217 215 218 219 219 218 220 220 220 222 224 220 220 223 223 214 180 174 170 207 255 254 241 240 244 245 246 236 230 247 245 244 242 247 251 255 255 255 255 255 255 204 134 89 91 205 249 247 247 249 255 255 252 252 250 253 255 255 252 247 253 255 250 246 250 254 254
212 214 214 213 213 213 213 214 215 217 218 217 218 218 217 216 216 218 218 219 219 221 222 222 221 221 221 224 216 181 173 171 208 255 255 255 255 255 255 255 254 254 255 255 255 255 255 255 255 255 255 255 255 255 203 127 88 90 204 250 245 246 247 254 254 254 253 252 254 255 254 250 250 253 255 250 252 251 253 254
213 214 215 214 215 214 215 216 215 215 216 218 218 217 218 215 219 219 220 221 219 220 222 219 222 223 224 226 217 183 175 173 207 255 255 255 255 255 255 255 255 255 255 255 255 255 255 255 255 255 255 255 255 255 211 141 109 105 205 255 249 244 245 255 253 253 255 255 253 250 250 249 246 251 255 252 251 252 253 254
214 215 215 214 213 214 215 215 215 215 216 217 218 218 219 216 218 218 221 220 220 220 222 220 222 222 223 225 218 184 177 172 208 255 255 251 251 252 252 250 253 255 255 255 255 255 255 255 255 255 255 255 255 255 253 240 225 205 213 255 251 247 252 255 253 252 254 251 248 248 248 249 252 253 255 255 253 253 254 253
216 215 213 214 213 213 214 212 215 217 218 219 217 219 218 218 220 220 220 220 220 220 222 223 222 224 225 225 218 185 179 174 208 255 255 247 247 249 251 253 254 255 255 255 255 255 255 255 255 255 255 255 255 255 255 246 234 216 216 255 255 251 247 247 251 255 252 248 245 243 251 255 255 254 254 254 250 252 254 253
214 215 215 215 215 216 213 215 218 216 218 220 218 217 217 219 220 220 218 218 220 219 222 221 221 224 225 224 218 184 180 176 211 255 255 253 253 253 254 255 255 255 255 255 255 255 255 254 254 255 255 255 255 255 255 243 232 216 216 255 254 250 243 241 243 253 247 248 246 248 253 255 255 251 249 254 250 248 254 252
214 216 216 215 214 215 216 213 217 218 222 221 219 218 220 219 219 218 219 221 220 218 221 221 223 223 224 226 218 182 177 174 211 255 254 255 255 255 255 255 255 255 255 255 255 255 255 255 255 255 255 255 255 255 255 242 232 216 216 255 255 255 245 245 244 253 244 244 250 253 255 255 253 248 249 254 246 241 254 254
215 217 216 217 217 218 220 217 212 200 187 168 177 198 216 218 219 217 214 216 221 219 220 221 221 222 225 226 217 183 176 174 211 255 254 255 254 255 255 255 255 255 255 255 255 255 255 255 255 255 255 255 255 255 255 241 232 217 216 254 253 255 246 244 250 254 249 251 254 255 254 250 244 246 253 253 244 237 251 254
216 215 217 215 200 181 159 137 118 109 104 108 157 189 212 210 212 205 189 172 220 226 224 224 223 226 227 227 220 188 180 175 212 255 255 254 254 254 255 255 255 255 255 255 255 255 255 255 255 255 255 255 255 255 255 239 231 217 211 249 250 254 255 255 253 252 253 254 255 255 248 240 244 255 255 250 245 236 250 255
213 217 179 120 102 94 92 91 97 104 100 112 162 202 208 206 207 201 186 156 210 220 220 221 222 224 224 226 228 227 194 174 212 255 255 250 249 250 251 251 251 251 252 255 255 255 255 255 255 255 255 255 255 255 203 128 120 115 196 245 243 249 255 255 255 255 255 255 255 255 253 245 253 255 253 251 244 243 254 253
213 219 155 95 96 97 99 101 103 103 100 114 172 218 206 203 206 199 189 153 202 215 214 214 215 217 218 220 223 227 194 174 214 255 255 251 251 251 251 251 251 252 255 255 255 255 255 255 255 255 255 255 255 255 182 90 83 79 187 243 243 246 254 255 255 255 255 255 255 255 254 255 254 254 252 246 241 247 255 254
213 219 151 114 140 119 103 106 97 102 99 112 178 218 197 200 203 199 198 162 195 211 211 211 211 213 214 216 219 222 191 173 215 255 254 241 253 254 254 254 255 255 255 255 255 255 255 255 255 255 255 255 255 255 180 89 84 82 186 237 240 241 254 255 255 255 254 253 253 253 252 250 251 252 251 249 242 250 255 254
214 218 147 140 141 131 145 157 143 103 102 113 165 197 198 199 197 201 209 182 190 208 207 208 209 209 210 211 215 218 191 173 214 255 255 240 249 250 249 250 254 253 253 252 251 252 253 251 250 253 254 254 254 254 202 142 121 80 187 243 243 248 255 253 255 255 254 254 254 254 254 254 254 255 254 251 242 252 255 254
215 217 143 155 186 190 189 182 163 105 104 114 158 172 170 173 183 194 205 191 166 201 206 208 211 210 207 208 210 211 201 231 243 254 249 240 251 250 250 252 252 237 231 231 228 234 242 240 233 247 254 255 254 254 255 255 206 81 186 252 247 254 254 248 253 255 255 254 253 252 253 255 255 255 254 253 249 255 255 254
214 218 140 157 197 191 176 170 152 105 103 115 160 142 121 120 125 132 137 138 134 143 145 149 155 166 199 204 205 206 202 254 246 244 241 244 245 245 246 246 248 248 248 250 251 252 253 253 250 250 255 255 255 255 255 255 210 77 180 249 250 255 254 249 252 255 255 253 251 250 249 247 252 255 255 255 255 255 255 255
215 216 141 116 129 113 109 144 135 103 101 116 159 139 187 207 196 187 178 169 159 147 129 117 108 135 202 207 219 218 217 250 244 249 248 248 249 248 249 252 252 249 240 228 220 216 210 218 241 252 255 255 255 255 255 255 226 162 188 245 255 255 255 254 253 255 255 255 254 255 254 248 251 255 255 255 253 255 255 255
212 214 139 94 94 104 112 125 136 102 98 117 157 136 223 255 255 255 255 255 254 250 243 234 211 193 255 254 255 255 255 252 254 254 255 255 254 255 255 255 253 253 250 241 234 230 216 161 153 185 210 207 203 198 191 189 198 209 196 225 229 230 230 228 224 226 226 227 229 230 227 221 224 229 228 225 219 220 220 208
197 203 131 143 160 141 180 137 95 101 99 118 158 136 226 250 246 247 247 249 250 253 255 255 243 208 255 252 253 255 254 253 254 254 255 254 254 255 255 254 253 254 255 255 255 255 254 178 131 122 130 134 134 131 132 135 144 140 150 173 167 167 168 171 171 172 173 170 172 176 180 187 190 187 188 186 183 180 176 115
182 187 124 133 134 114 114 109 97 101 101 120 158 137 231 252 249 249 249 249 247 247 248 250 238 223 253 250 252 255 254 253 254 254 255 254 254 255 255 254 253 254 255 255 255 255 255 184 184 196 187 193 192 183 168 186 185 157 147 199 205 203 192 204 215 217 221 212 200 220 218 207 214 224 225 228 231 225 202 124
175 175 119 99 101 104 106 111 115 120 116 122 154 137 236 255 253 253 252 252 251 251 254 254 238 225 249 249 250 254 254 254 255 254 255 254 254 255 255 254 253 254 254 255 255 255 255 181 197 218 215 215 214 213 212 239 222 166 163 198 205 202 193 203 215 216 217 219 201 213 202 198 211 217 217 219 219 217 201 122
174 174 117 110 122 125 123 122 122 119 106 122 157 139 239 254 252 252 252 251 252 252 251 252 237 220 247 249 249 253 254 253 255 254 255 254 254 255 255 253 252 254 255 255 255 255 255 181 231 255 255 255 255 255 255 255 255 193 176 180 171 166 170 174 173 175 178 177 168 158 158 159 160 160 157 156 154 148 140 99
174 174 118 114 115 107 104 102 102 101 98 121 184 144 243 254 252 252 252 252 251 251 250 252 235 217 247 248 249 253 253 253 255 255 255 254 254 255 255 253 252 254 255 255 255 255 255 180 229 255 255 255 255 255 255 255 253 193 194 175 102 90 93 92 94 91 86 82 78 75 74 72 72 69 63 59 58 46 36 35
173 173 116 114 110 96 96 99 100 103 100 121 187 146 246 253 252 252 252 252 252 252 251 253 231 210 248 248 248 252 252 252 255 254 255 254 255 255 255 252 252 254 255 255 255 255 255 177 218 245 245 250 255 255 255 255 253 190 172 184 202 201 198 197 201 199 196 194 190 187 184 182 180 166 159 155 151 146 141 132
172 170 112 106 113 114 118 119 121 126 113 118 176 148 249 253 252 252 252 252 252 251 251 252 228 208 249 248 247 251 252 251 255 254 255 254 255 255 255 252 251 254 255 255 255 255 255 175 212 235 234 250 255 255 255 255 253 193 183 190 255 255 255 255 255 255 255 255 255 255 255 255 255 255 255 255 255 255 255 231
171 170 111 117 123 123 122 123 124 124 109 116 164 151 252 252 252 252 252 252 252 251 251 253 221 200 250 247 247 251 251 251 255 254 254 254 255 255 255 251 252 254 255 255 255 255 254 177 228 248 244 251 255 255 255 255 253 193 192 189 247 250 250 250 250 249 249 249 251 254 254 255 255 255 255 255 255 255 253 228
172 170 111 119 117 113 112 109 109 107 99 116 155 156 254 253 252 252 252 252 251 251 252 254 216 202 250 247 247 250 250 252 255 254 255 254 255 255 255 251 252 254 255 255 255 255 253 179 238 255 254 254 255 255 255 255 253 194 193 189 241 243 247 247 247 246 241 244 242 254 254 255 255 255 255 255 255 255 252 230
172 168 111 120 107 101 98 98 99 101 98 116 150 161 255 253 252 252 252 252 252 251 252 254 210 204 250 246 247 250 249 252 255 255 254 254 255 255 254 250 252 254 255 255 255 255 252 176 231 255 255 255 255 255 255 255 252 191 192 191 243 248 255 255 255 254 249 252 244 252 253 254 254 255 255 254 254 254 248 217
170 166 109 112 112 108 102 103 105 110 104 118 151 166 255 251 252 252 251 251 251 252 250 253 204 203 250 246 247 249 249 253 255 254 254 254 255 255 254 250 252 254 255 255 255 255 251 176 238 255 255 255 255 254 255 255 252 189 187 191 241 249 253 253 253 250 242 240 234 239 243 249 252 252 253 253 251 250 246 229
171 165 107 112 118 120 122 122 124 128 121 120 144 171 255 252 252 253 252 252 251 252 250 253 195 204 250 245 247 250 249 254 255 254 254 254 255 255 254 250 251 254 255 255 255 255 249 176 240 250 252 254 247 247 252 253 250 189 187 187 234 234 237 239 240 241 241 241 242 245 250 252 252 250 247 251 249 249 252 252
174 163 108 120 124 126 124 125 125 127 118 120 138 178 255 252 253 254 254 253 253 252 251 254 188 206 250 244 247 249 250 254 254 254 254 254 255 255 254 249 251 254 255 255 255 255 248 176 230 235 232 237 231 237 236 238 246 190 192 184 225 233 237 240 241 242 243 245 246 248 251 253 252 248 247 252 249 251 255 255
171 162 109 120 114 111 107 108 109 109 105 122 137 185 255 252 252 253 252 253 253 253 253 255 178 209 250 244 247 250 250 255 254 254 254 254 255 255 253 249 251 254 255 255 255 255 247 175 235 245 239 241 240 236 240 239 247 190 189 184 226 234 238 240 240 241 243 245 246 248 251 252 253 250 250 252 251 250 251 253
171 160 110 124 116 106 103 98 99 102 102 120 133 190 255 252 251 252 252 251 252 251 250 253 174 214 249 243 247 249 250 255 254 255 254 254 255 255 253 249 251 254 255 255 255 255 245 181 250 255 255 255 255 255 255 251 248 186 183 183 226 233 236 238 238 239 242 245 246 248 251 253 252 250 250 252 251 254 252 251
169 158 109 113 108 109 111 104 106 108 104 117 128 198 255 252 252 252 251 251 251 251 251 252 167 218 249 243 247 249 251 255 254 255 254 254 255 255 253 250 251 254 254 255 255 255 243 186 236 244 245 242 245 244 246 255 250 186 190 182 222 230 233 236 237 238 241 244 247 249 251 253 253 250 249 252 251 254 253 249
168 157 109 120 117 116 117 119 123 125 113 115 128 204 255 252 252 252 251 252 252 251 250 251 160 222 248 243 247 249 252 255 254 255 253 253 255 255 253 250 251 253 254 255 255 255 242 185 247 248 250 247 248 247 248 254 250 186 188 182 222 230 234 237 238 239 241 244 247 249 251 253 254 250 246 251 253 254 253 253
167 152 107 122 118 116 117 118 119 118 108 116 129 210 255 252 251 252 251 251 252 251 249 248 154 226 247 243 247 249 252 255 254 254 253 253 255 255 253 250 251 253 254 255 255 255 240 181 237 247 242 243 245 245 245 255 249 185 188 181 221 229 233 236 238 239 240 243 246 249 251 251 250 246 244 251 253 254 253 253
166 151 102 115 104 99 97 97 96 100 96 118 131 216 255 252 251 252 252 250 251 252 250 246 151 230 247 243 247 249 252 255 254 255 253 253 255 255 253 250 251 253 255 255 255 254 239 183 246 252 249 248 248 247 248 255 248 184 188 177 213 220 222 227 230 230 230 232 235 238 240 240 246 246 246 249 252 251 250 249
166 146 98 105 104 93 91 91 91 94 95 120 133 221 255 252 252 252 251 251 251 251 252 243 150 234 246 243 247 249 253 255 255 255 253 253 255 255 253 250 250 253 255 255 255 254 237 184 255 255 255 255 255 255 255 255 248 181 186 175 199 213 219 225 227 228 230 230 232 235 239 243 254 254 252 255 255 255 255 249
164 148 96 91 95 99 101 101 99 95 97 119 135 227 254 252 252 252 252 252 251 250 252 239 146 237 245 243 247 249 253 255 254 255 253 254 255 255 253 250 250 253 255 255 255 255 236 188 255 255 255 255 255 255 255 255 247 181 185 176 204 215 222 228 230 230 231 232 234 236 239 243 254 255 252 255 255 255 255 247
164 149 96 93 102 105 104 101 100 98 94 117 135 232 254 252 252 252 252 251 251 251 253 234 145 239 244 242 247 249 254 255 254 255 252 254 255 255 252 250 250 253 255 255 255 254 233 193 255 255 255 255 255 255 255 255 247 181 178 176 206 215 221 227 230 229 226 230 233 235 237 239 248 249 249 252 253 254 254 249
164 147 96 99 104 101 99 116 140 139 130 120 139 236 254 252 251 252 252 251 251 251 252 229 146 242 243 242 247 249 254 255 254 254 253 254 255 255 252 250 249 253 255 255 255 254 232 192 255 255 255 255 255 255 255 255 246 177 175 168 183 205 217 224 228 229 222 229 233 236 244 198 107 108 115 117 120 121 124 124
163 143 99 105 102 98 88 171 244 239 231 130 142 241 253 252 251 252 251 251 252 251 253 224 147 243 243 243 247 249 255 255 254 254 253 254 255 255 252 250 249 253 255 255 255 255 233 153 140 225 255 255 255 255 255 255 245 176 180 164 184 213 222 227 231 235 238 237 237 241 250 194 108 156 136 131 140 119 81 86
167 151 120 127 132 136 132 165 201 210 215 166 147 244 254 252 253 253 253 253 253 252 253 218 149 244 242 243 247 250 255 254 255 254 253 254 255 255 252 250 249 253 255 255 255 254 230 142 115 219 255 255 255 255 255 255 244 178 181 171 198 210 220 227 230 234 237 237 238 241 251 193 114 184 159 168 165 113 86 87
211 212 214 223 232 235 221 213 230 231 232 199 150 248 254 251 252 253 253 252 253 253 255 212 152 245 241 242 247 250 255 254 255 254 253 254 255 255 251 250 249 253 255 255 255 253 230 149 142 228 255 255 255 255 255 255 244 174 176 171 201 218 226 223 231 235 236 225 221 225 234 171 74 84 100 117 121 125 130 138
224 227 224 226 225 224 221 220 222 225 228 184 155 250 253 252 252 252 252 251 251 251 254 205 155 246 240 242 247 251 255 254 255 254 253 254 255 255 251 250 248 254 255 255 255 253 227 160 174 236 255 255 255 255 255 255 243 173 177 164 152 240 254 252 252 253 252 192 145 140 132 117 119 141 164 177 183 182 184 187
219 220 223 223 225 228 225 228 229 230 231 181 161 252 252 252 252 252 252 251 251 250 254 198 159 246 239 242 247 251 255 254 255 254 253 254 255 255 251 249 248 254 255 255 254 253 224 153 160 236 255 255 255 255 255 255 242 175 178 133 93 227 230 221 222 241 253 215 152 151 168 190 193 195 191 186 202 197 193 184
228 228 232 231 230 228 225 220 214 224 215 171 166 254 253 251 252 252 252 251 251 249 254 192 164 245 239 242 247 252 255 254 255 253 254 254 255 255 251 249 248 254 255 255 255 254 224 149 139 217 237 231 223 246 255 255 242 167 150 118 118 229 234 229 239 243 244 240 167 167 187 199 204 205 200 188 210 213 205 187
229 230 230 230 220 185 187 185 203 221 204 164 173 255 252 252 253 252 252 251 251 250 255 185 168 245 237 242 246 252 255 254 255 253 254 254 255 254 250 248 248 254 255 255 255 254 223 146 131 193 213 210 211 220 243 255 238 144 135 109 99 218 237 234 238 240 235 234 181 153 162 158 157 161 167 173 178 181 181 183
234 236 229 228 211 197 191 202 225 216 189 178 177 255 253 252 252 252 252 252 252 251 255 178 173 244 237 241 246 253 255 254 255 253 254 254 255 255 250 247 248 254 255 255 253 254 223 123 93 188 215 212 212 210 236 255 236 136 134 105 87 130 159 164 179 183 167 172 162 148 150 157 169 178 184 188 193 195 188 194
235 234 231 223 201 194 188 209 227 216 204 176 183 255 253 252 252 252 252 251 251 251 255 173 178 243 236 241 246 253 255 254 255 253 254 253 255 255 250 247 248 254 255 255 253 254 221 128 101 191 213 212 212 212 236 255 235 129 122 107 83 123 162 193 207 214 219 225 233 235 228 227 247 252 253 252 253 253 253 253
235 232 231 221 201 196 195 204 216 211 219 172 190 255 253 252 252 252 252 251 250 251 255 167 184 241 235 240 246 254 255 255 255 254 254 253 255 255 250 247 249 254 255 255 255 255 214 190 208 210 211 211 211 211 227 255 235 124 113 111 91 132 173 196 206 213 220 227 236 241 242 242 254 255 255 255 255 255 255 255
236 219 206 219 199 199 209 202 212 203 225 165 197 255 255 255 255 255 254 253 252 251 255 164 191 242 236 239 246 254 254 255 255 254 253 253 255 255 250 246 249 254 255 255 255 255 201 188 214 212 212 213 216 228 249 255 236 139 128 117 87 140 179 195 206 212 216 225 233 238 240 241 254 255 255 255 255 255 255 255
235 176 188 213 182 190 207 207 204 192 231 157 184 228 230 231 235 242 245 249 254 255 255 161 180 211 218 241 246 255 255 255 255 254 254 254 255 255 251 247 250 255 255 255 255 255 196 191 217 215 216 223 232 240 248 255 238 156 150 131 104 137 170 194 207 214 217 223 230 237 240 240 253 255 255 255 255 255 255 255
230 173 210 186 169 195 207 206 197 196 237 166 153 156 157 152 151 168 163 154 160 166 183 145 136 128 149 230 247 255 254 255 255 254 254 255 255 255 252 248 251 255 255 255 206 174 156 207 228 224 225 233 241 248 254 255 238 161 154 143 128 123 128 149 166 179 181 196 210 226 237 240 254 255 255 255 255 255 255 255
233 221 221 169 169 205 205 203 186 208 240 174 134 125 131 129 163 209 213 206 192 170 147 138 217 239 232 230 247 255 253 255 254 254 254 254 254 255 254 250 252 255 255 252 181 138 153 235 250 247 250 253 255 255 255 255 237 161 149 141 157 161 155 153 174 172 176 192 196 191 181 148 184 223 221 220 218 215 211 207
226 222 183 154 174 206 201 191 178 227 220 155 189 224 225 217 236 248 251 255 255 255 253 243 250 250 247 247 253 253 251 251 249 244 249 253 253 254 254 252 252 254 255 253 245 241 242 251 253 254 255 255 255 255 255 255 237 160 141 136 163 167 159 165 236 220 205 185 179 183 187 163 154 179 187 187 192 192 195 196
210 187 160 174 197 201 187 170 200 225 206 232 255 255 252 253 253 253 254 253 251 251 252 253 250 251 254 254 252 254 255 254 253 253 252 253 253 254 253 253 254 255 255 255 255 255 255 254 255 255 255 255 255 255 255 255 236 156 139 121 141 159 163 164 241 240 241 238 227 207 183 156 152 176 208 229 219 214 211 209
193 191 197 200 198 187 195 214 232 238 251 255 252 250 250 251 253 254 252 252 251 252 253 251 251 254 252 251 253 254 252 253 253 253 252 253 255 254 254 255 255 255 255 255 255 255 253 253 255 255 255 255 255 255 254 254 236 158 130 130 146 137 134 151 236 237 239 240 240 242 242 238 223 196 171 174 174 180 188 195
231 229 225 220 220 222 230 237 250 255 254 251 251 250 251 253 253 253 252 251 252 252 251 252 254 252 251 254 254 252 252 252 252 251 253 255 255 255 255 255 255 255 255 255 255 255 255 255 255 255 255 255 255 255 253 251 245 224 203 190 187 183 165 145 231 235 237 240 238 239 239 239 240 242 242 242 255 255 255 255
226 227 228 231 235 235 241 249 251 251 250 250 251 252 252 252 251 252 253 253 252 252 252 253 252 252 254 254 252 253 253 252 251 253 255 255 255 255 255 255 255 255 255 255 255 255 255 255 255 255 254 253 252 252 251 252 250 241 232 217 202 194 183 151 225 232 235 238 237 237 238 238 238 238 237 239 249 255 255 255
236 246 249 250 250 251 249 249 248 248 250 251 251 252 251 250 251 252 253 252 252 252 253 251 252 254 253 252 252 253 252 251 253 255 255 255 254 245 255 255 254 255 255 237 227 240 252 254 253 253 253 253 254 254 253 253 251 246 244 243 238 226 212 173 181 199 217 230 235 236 236 236 237 237 237 237 246 255 255 255
255 254 254 253 252 252 253 253 253 253 252 253 252 253 251 251 252 252 253 252 252 252 252 253 252 252 252 252 252 252 251 253 255 255 255 251 238 230 215 163 158 230 247 226 229 237 251 254 254 255 255 255 255 255 254 254 254 254 253 253 253 254 253 248 234 219 202 186 189 200 220 232 235 235 235 236 244 255 255 255
254 254 254 254 255 255 255 255 255 254 254 255 255 255 255 254 254 255 254 254 253 254 253 252 251 253 252 252 252 252 253 254 255 255 254 252 240 188 175 188 206 228 250 253 255 255 254 254 254 254 254 255 255 255 255 255 253 252 250 249 249 250 252 250 252 255 255 242 220 198 187 183 201 222 234 235 245 255 255 255
