P2
80 80
255
36 36 37 38 39 40 41 41 43 44 43 44 45 44 45 45 45 47 45 45 46 46 48 43 35 32 53 90 90 94 101 107 99 105 105 106 108 107 109 111 110 109 101 100 98 95 114 117 108 119 118 117 119 47 12 16 16 16 88 119 117 116 116 40 14 16 15 17 97 118 115 116 112 31 16 20 18 26 106 117
38 38 39 37 38 40 40 40 43 44 44 44 45 45 45 46 46 46 46 46 47 46 48 38 23 19 48 98 97 90 89 89 89 96 95 99 98 96 100 104 108 110 104 101 95 92 108 113 108 124 122 117 86 79 62 69 78 77 98 95 98 102 110 79 50 58 73 75 103 111 110 107 105 75 28 16 16 22 109 121
38 36 36 38 38 38 40 40 42 44 44 44 45 44 46 46 46 47 47 46 47 48 49 38 22 20 52 100 100 90 94 96 90 101 101 105 100 100 106 106 107 110 112 108 102 113 109 112 78 65 68 51 40 87 76 84 91 101 96 78 86 98 103 90 69 83 107 110 107 106 106 104 103 95 73 63 63 63 74 75
37 36 37 39 39 40 40 41 44 44 43 44 46 45 46 46 46 47 47 47 48 49 50 39 23 20 52 102 95 76 81 77 70 75 77 83 77 71 76 94 110 111 108 100 109 112 112 112 51 12 15 7 31 68 63 64 66 76 75 71 70 67 69 70 64 64 73 86 85 85 86 85 92 96 115 121 121 114 29 13
37 37 39 39 40 41 42 42 44 45 44 47 47 47 46 48 47 47 48 49 48 48 50 40 23 20 53 101 97 74 77 67 67 70 63 69 68 65 66 96 109 109 100 107 111 112 110 111 50 16 19 9 32 67 65 61 64 65 71 71 71 71 73 73 74 73 73 71 71 73 70 66 78 92 112 118 118 112 32 17
38 38 38 39 40 40 40 42 45 45 45 46 46 46 46 48 48 49 49 49 48 47 49 38 23 20 53 101 103 101 102 100 96 101 96 105 103 107 99 87 94 89 100 112 111 109 110 115 51 16 18 8 30 68 67 59 68 61 67 65 68 68 72 68 70 68 70 71 70 68 71 72 77 91 109 119 118 112 33 17
38 39 38 40 41 41 41 42 43 45 45 45 46 45 48 48 48 48 48 48 47 47 49 37 23 19 54 101 97 84 78 85 81 90 93 106 107 86 81 80 93 97 96 103 109 110 112 115 52 17 18 7 31 62 63 60 54 69 71 72 63 66 70 75 70 70 73 67 75 73 64 62 76 97 112 119 118 113 35 17
37 38 38 39 40 41 41 44 42 43 44 47 45 46 48 47 46 46 47 48 47 46 48 37 22 19 55 102 100 67 64 50 58 61 68 103 90 77 93 69 91 103 85 91 110 112 112 115 51 13 14 6 31 62 62 59 60 60 65 73 67 67 66 74 75 70 74 66 71 73 71 71 79 98 113 122 121 117 34 15
37 39 38 39 40 42 42 43 44 44 44 46 45 46 47 48 47 47 47 46 45 45 48 37 23 20 56 102 101 94 92 88 85 92 99 104 79 98 99 76 96 84 92 102 106 113 113 113 72 58 53 26 31 56 55 69 74 71 71 72 73 74 75 72 75 75 75 73 72 73 71 75 81 99 91 87 87 86 57 49
38 38 40 40 40 40 42 44 43 45 44 46 47 46 47 48 48 47 47 45 46 46 47 38 22 20 57 105 101 103 101 103 97 96 101 105 83 94 96 78 75 69 101 104 103 112 110 107 105 127 111 59 40 67 68 70 73 73 73 74 74 72 71 72 71 72 74 73 73 73 76 74 81 103 46 16 18 20 103 120
38 38 39 40 40 41 43 44 44 45 45 45 46 47 46 48 48 48 47 46 45 46 48 37 23 20 59 104 102 102 75 62 65 64 92 104 96 73 77 53 56 62 87 102 99 110 111 110 104 124 104 56 47 86 90 68 70 71 72 72 72 70 68 70 70 70 72 73 74 74 75 73 78 102 49 18 20 22 101 118
38 38 38 39 41 43 43 43 44 45 44 44 46 46 46 46 48 48 47 47 48 48 50 38 23 20 60 103 104 103 78 75 78 73 99 102 91 79 65 51 70 66 75 97 102 113 113 110 105 125 100 55 51 98 99 54 54 55 57 55 56 58 58 58 59 58 58 57 56 56 58 54 73 101 50 19 20 22 100 119
39 39 38 39 40 41 43 43 44 45 44 46 45 45 45 46 46 47 47 48 49 49 50 37 23 20 60 103 104 98 107 104 96 105 107 99 92 81 72 74 96 61 78 99 107 113 113 109 106 124 96 53 53 103 96 51 48 48 47 49 49 55 57 58 56 58 52 48 48 48 49 47 71 102 52 19 21 22 99 119
37 38 38 38 39 41 41 43 43 44 43 43 44 44 44 45 46 46 47 49 49 49 48 37 23 20 60 106 100 59 77 66 60 75 77 75 94 91 54 91 109 69 81 100 108 109 109 107 109 127 93 53 61 108 94 85 89 89 88 85 82 80 81 76 78 77 82 83 83 82 72 68 76 95 47 19 19 20 100 121
37 40 38 38 39 41 42 42 40 41 41 41 42 42 44 45 46 46 48 48 48 48 49 37 23 20 60 104 96 69 63 62 63 56 67 75 97 89 73 98 105 81 75 103 111 111 112 112 94 98 69 41 62 106 96 105 113 110 113 97 84 90 96 100 92 98 102 105 106 92 82 94 93 95 63 41 39 39 88 101
39 40 39 41 43 43 42 43 41 40 41 41 42 43 43 43 46 47 47 48 48 48 49 36 23 20 59 96 93 96 98 103 97 93 101 105 108 99 87 95 96 88 102 112 111 112 112 113 47 17 11 5 58 108 99 106 111 108 109 90 78 83 83 99 100 98 93 93 99 64 71 91 97 100 107 116 116 115 44 21
40 40 39 40 39 42 42 42 41 40 42 43 43 45 44 43 45 46 46 46 46 46 49 35 21 20 62 102 97 74 91 97 92 92 96 93 92 77 80 84 81 100 109 108 109 109 109 111 45 17 10 3 57 112 112 112 111 108 107 85 75 81 88 95 100 98 94 92 99 67 58 75 89 100 108 118 119 118 43 19
40 39 39 40 40 41 42 41 41 42 43 43 44 45 44 43 46 45 46 45 46 47 47 34 22 20 59 96 91 54 53 57 69 65 64 60 66 60 61 68 65 90 101 103 110 110 110 111 46 16 9 4 59 111 108 109 105 101 105 88 79 85 90 97 101 101 98 97 101 93 75 85 92 98 106 117 118 117 44 19
40 39 39 41 41 42 42 42 41 42 43 45 43 44 45 45 46 48 47 45 47 48 47 34 23 20 62 102 92 81 85 90 85 84 72 77 96 89 90 92 91 103 109 103 103 111 111 112 47 16 8 5 55 87 90 85 93 106 104 96 95 89 96 102 102 92 84 97 103 89 80 89 99 98 104 117 117 117 46 19
39 39 40 41 42 42 43 43 43 42 42 43 44 44 44 45 46 47 47 46 47 48 49 35 22 20 65 107 104 97 107 106 99 108 107 108 111 105 106 107 104 111 110 109 101 110 111 111 48 14 7 5 57 88 84 82 88 100 101 99 98 96 101 101 99 87 90 97 103 88 94 90 96 99 106 118 118 118 50 21
39 41 41 40 40 42 42 42 43 42 42 44 44 45 45 44 47 45 46 47 48 50 49 35 23 21 65 103 102 97 101 98 102 107 106 105 106 102 103 102 103 108 108 108 101 108 110 110 56 25 13 8 65 101 88 76 85 101 96 98 102 103 95 87 86 86 81 94 102 95 94 93 96 98 101 110 110 110 51 28
40 40 41 40 41 42 42 43 43 42 42 42 44 45 44 45 46 45 46 47 47 48 49 35 24 21 67 107 106 93 94 93 101 97 106 109 110 103 104 103 102 111 112 108 101 111 112 108 101 101 58 44 69 108 95 85 97 100 95 94 98 89 82 82 82 88 92 98 104 103 95 97 97 98 63 31 31 31 87 107
40 39 39 41 42 43 42 43 43 43 44 45 45 45 45 44 46 47 47 48 49 50 49 35 24 22 68 104 102 84 85 88 98 102 105 106 106 102 103 102 97 103 104 100 104 108 108 104 105 106 61 49 71 112 108 91 85 84 95 100 91 82 76 77 91 101 102 100 100 100 90 95 98 98 58 22 19 18 92 120
40 39 42 42 42 43 44 42 42 43 44 45 44 43 45 44 46 47 45 47 49 49 50 35 24 22 69 104 96 93 94 101 105 108 107 107 108 108 109 103 97 99 101 106 111 111 111 107 103 101 59 49 73 111 105 89 77 70 82 91 82 84 77 85 96 103 101 91 91 99 87 88 101 90 51 22 20 19 90 118
42 41 41 42 42 43 42 42 44 44 44 44 43 45 46 44 45 47 47 48 49 49 50 34 24 22 65 96 92 101 99 108 108 108 108 109 108 109 109 103 101 102 110 110 109 109 110 102 100 97 58 49 74 112 108 103 79 80 84 92 75 82 87 99 102 104 96 82 91 98 79 76 100 90 49 22 20 20 90 118
35 29 25 25 39 48 42 44 44 43 41 45 44 44 46 45 44 46 45 46 49 50 50 34 24 21 69 102 95 101 98 105 105 105 105 106 106 106 106 101 104 100 106 108 108 108 108 100 99 93 58 48 72 103 106 105 83 84 95 96 85 97 101 103 98 89 80 85 100 92 74 70 98 93 50 20 21 20 89 118
8 6 11 17 42 49 37 39 40 34 20 41 48 47 47 48 47 47 47 49 50 51 49 34 24 22 74 103 99 102 100 107 109 109 109 109 109 109 110 102 107 104 103 111 110 111 107 103 94 87 56 48 61 88 99 109 110 108 96 96 97 106 105 102 81 73 88 105 104 88 76 69 96 98 55 19 20 18 88 119
6 6 13 22 48 43 35 36 38 34 16 35 44 43 44 45 46 48 48 50 52 53 49 34 24 22 75 100 100 85 86 92 97 97 96 96 102 107 107 100 104 106 99 107 107 105 108 106 65 26 16 16 53 80 81 97 109 107 105 103 104 104 103 102 91 85 102 103 97 91 72 86 97 95 90 89 90 91 60 43
6 6 13 36 51 39 33 35 37 35 16 31 41 40 40 41 42 43 44 46 48 49 50 34 24 22 73 99 103 91 93 97 96 98 96 101 107 108 108 101 105 109 101 106 109 106 111 105 57 7 4 6 52 80 78 88 107 105 105 104 104 105 103 102 100 101 100 100 91 82 74 96 101 95 99 116 117 120 49 15
6 6 12 42 48 35 32 34 37 38 21 28 38 38 38 39 39 41 42 43 45 46 50 33 23 22 73 104 105 82 103 107 106 109 114 113 113 113 114 105 111 115 109 103 111 112 111 103 58 9 5 8 51 68 70 85 108 107 104 102 99 99 96 95 92 92 94 93 92 84 78 101 101 93 98 113 114 117 52 18
7 7 14 28 43 34 31 32 39 42 32 27 36 36 37 39 38 39 39 40 42 43 50 34 22 21 74 110 106 82 96 97 95 100 105 104 103 103 104 102 102 105 107 107 113 113 108 98 67 13 5 7 59 75 81 100 102 102 103 100 100 98 99 99 99 102 103 103 100 89 80 103 100 92 97 113 114 117 53 18
12 10 14 16 35 30 29 33 40 45 39 21 31 35 35 37 37 37 37 38 40 41 48 56 66 67 83 81 88 81 84 84 86 76 60 60 58 56 63 76 62 67 91 97 100 104 103 101 100 26 4 8 68 86 96 107 95 87 102 104 103 98 96 96 100 106 106 106 104 96 97 107 101 92 97 113 115 117 54 18
13 9 6 7 9 10 11 13 16 19 21 15 19 30 30 32 33 34 34 35 36 37 44 70 81 77 69 68 74 77 77 79 77 84 83 81 80 85 89 91 91 96 120 121 119 128 143 130 122 33 2 6 68 83 110 109 97 91 104 107 102 98 94 94 88 92 107 111 111 107 110 108 104 96 97 113 115 117 51 13
9 43 75 62 53 45 37 30 22 15 9 12 38 65 59 52 48 51 49 52 54 50 56 76 83 79 89 84 81 76 70 65 56 61 57 61 82 88 90 93 85 87 105 109 108 107 106 104 98 38 25 28 59 89 117 114 105 94 100 102 103 101 101 103 92 84 105 111 110 99 100 108 102 83 89 126 125 125 95 74
7 68 124 119 120 119 116 113 107 98 88 75 69 117 123 124 102 88 83 82 87 90 87 93 123 128 117 93 94 90 95 90 91 83 79 23 32 37 34 51 36 24 52 60 62 59 56 54 51 25 38 39 55 81 91 88 83 77 70 76 74 79 86 88 74 66 81 84 82 71 66 75 79 75 85 124 122 125 130 131
8 72 106 89 93 94 97 99 104 111 109 100 60 112 121 104 77 84 83 82 84 86 85 98 127 130 115 92 96 92 108 115 123 121 131 55 12 10 10 11 11 9 10 10 11 12 12 13 14 18 19 26 24 21 22 23 22 21 21 21 21 21 23 25 26 23 23 23 24 25 22 11 30 73 79 115 115 114 117 124
8 77 110 98 97 97 98 93 91 93 92 96 58 110 104 76 73 81 83 84 85 87 85 103 128 129 112 91 96 92 109 114 119 117 131 64 24 36 36 35 42 52 56 64 69 72 67 76 69 50 26 32 54 51 39 34 54 58 61 57 43 49 60 38 42 60 59 58 67 68 51 16 32 68 83 126 126 113 100 99
8 82 120 107 106 106 105 103 100 106 104 96 52 98 74 71 72 80 82 85 85 89 85 106 129 127 109 90 95 92 109 115 119 120 130 59 34 57 58 58 64 69 73 71 69 72 56 48 49 27 14 46 76 64 43 35 53 62 59 62 48 51 54 33 41 55 61 53 56 51 49 15 32 69 87 128 124 118 108 115
9 87 111 101 104 102 101 99 99 98 94 91 46 76 62 72 72 79 81 85 85 90 85 109 129 125 105 89 94 92 108 115 118 122 128 55 61 107 113 115 115 116 116 116 118 124 96 29 31 27 11 27 25 22 23 26 25 26 25 30 26 21 19 21 20 20 20 18 18 18 18 9 29 75 85 127 126 94 86 97
10 91 110 101 103 102 103 99 99 95 94 87 38 61 63 72 72 77 80 86 86 91 85 112 128 124 103 89 92 93 107 115 117 123 126 53 62 105 109 113 115 115 115 116 117 121 92 38 40 43 11 8 4 4 5 5 5 4 4 3 3 2 2 1 1 1 1 0 0 0 0 0 27 76 87 125 127 90 90 68
12 95 108 101 104 103 101 100 101 94 95 84 32 58 64 72 71 76 78 86 86 90 84 114 128 123 99 89 91 94 107 116 117 124 124 51 56 89 89 95 98 110 115 116 117 121 92 28 29 61 62 51 52 52 53 50 52 54 54 52 53 52 52 50 50 50 46 45 42 40 39 25 39 67 82 124 126 119 106 101
14 98 107 102 101 102 100 101 99 96 95 80 30 57 64 72 71 75 77 87 87 90 84 117 128 121 96 89 89 96 107 117 117 126 121 49 45 75 81 80 84 112 115 116 117 121 90 33 30 80 116 110 115 117 117 120 121 122 123 120 122 125 126 124 125 125 123 120 117 119 117 76 60 73 89 126 125 117 116 124
17 101 105 101 102 102 100 103 99 96 95 75 29 58 65 72 70 74 77 86 87 89 84 119 127 119 93 90 88 97 106 117 117 128 117 46 62 94 99 97 93 111 115 115 116 121 88 37 34 81 110 102 100 105 105 108 106 105 106 103 110 117 117 121 123 121 121 122 129 130 123 76 60 75 91 127 127 93 71 68
19 105 109 102 103 101 102 101 97 100 99 71 30 57 65 71 70 74 77 86 88 88 85 121 126 116 90 90 87 99 106 117 119 128 113 45 65 95 110 113 109 113 115 115 115 120 86 37 35 71 84 86 81 81 86 87 88 87 79 78 80 104 107 115 117 116 123 123 126 126 112 73 63 69 89 128 128 104 78 52
22 107 109 101 101 99 101 99 98 99 102 66 31 56 65 71 70 73 78 85 89 87 87 123 126 114 88 91 86 100 106 117 120 129 112 44 61 73 102 113 113 114 115 115 115 120 85 36 34 67 85 93 86 80 96 96 98 98 84 79 79 95 101 106 107 112 115 115 112 106 97 59 54 70 88 128 129 126 122 116
26 108 101 100 104 100 98 99 98 94 94 61 32 56 65 71 70 73 79 85 90 85 88 124 125 112 87 90 85 99 105 117 121 129 110 41 67 83 105 113 114 114 114 115 116 120 84 34 33 68 83 89 80 80 86 79 73 74 75 81 84 90 93 97 99 102 98 99 102 98 83 55 51 65 84 125 123 123 123 125
30 110 105 100 105 102 101 98 97 95 95 56 34 56 65 70 69 73 81 86 90 84 90 126 124 109 85 89 84 99 105 116 121 128 106 40 73 80 101 103 110 111 99 106 112 116 82 35 33 58 64 64 66 67 68 68 68 73 81 92 101 93 90 105 99 100 115 110 101 89 85 89 90 87 93 98 95 83 75 75
34 111 102 107 109 108 107 105 101 97 97 53 35 56 65 69 69 73 82 85 91 82 93 127 123 107 84 87 83 97 105 115 123 126 104 37 65 78 79 80 79 83 79 89 85 96 81 37 35 41 56 62 66 67 69 73 74 77 82 93 103 90 94 119 103 113 138 131 119 102 96 114 115 98 115 118 118 111 81 61
39 115 104 101 109 105 105 107 105 103 104 48 37 57 65 68 68 73 84 85 92 80 95 127 122 105 84 85 83 95 105 115 124 124 101 36 72 86 87 89 85 88 87 86 86 98 80 36 34 42 58 63 66 67 69 73 74 77 82 95 104 94 101 115 110 103 112 115 104 111 101 110 96 106 115 118 117 121 104 74
44 112 103 100 99 102 99 100 98 93 96 45 39 57 66 68 69 74 85 86 92 79 98 127 120 103 84 84 82 94 105 115 125 123 100 38 81 98 107 109 111 113 114 114 110 109 78 33 33 42 57 61 64 65 67 72 74 78 82 94 101 95 106 118 114 110 96 104 99 113 112 104 94 109 113 113 114 118 97 83
49 112 101 101 101 101 100 99 96 94 96 42 41 57 66 68 68 75 85 86 92 77 101 127 119 101 85 82 82 93 106 116 126 119 97 37 67 92 86 95 94 93 98 98 107 120 78 36 34 39 54 58 62 63 66 71 75 79 82 100 107 97 97 113 112 112 103 101 107 109 100 101 89 104 113 114 114 114 99 84
55 112 102 99 105 100 99 102 96 91 95 38 43 57 66 67 69 76 86 86 92 75 103 127 118 100 85 81 82 92 106 117 127 119 99 37 74 91 96 98 99 97 100 98 104 120 76 37 34 39 54 59 63 65 67 71 75 79 81 106 114 92 86 100 115 123 113 103 104 93 99 108 93 103 112 118 117 117 110 94
60 112 102 99 100 100 97 100 97 88 93 35 44 57 66 67 69 77 86 87 91 74 106 127 117 98 86 77 82 92 107 118 128 113 96 36 68 82 89 95 90 94 99 95 104 119 74 36 34 38 53 58 63 65 67 70 74 79 81 98 99 82 85 104 113 123 117 104 99 87 94 98 95 95 96 95 103 111 112 104
66 110 100 100 100 102 97 95 101 91 94 32 45 57 66 66 69 78 87 87 90 74 109 126 115 96 86 77 82 92 108 118 128 108 94 36 79 88 94 102 97 98 99 98 105 118 73 37 33 35 46 49 55 57 57 59 63 67 68 86 112 105 109 115 121 120 116 109 108 104 108 109 110 107 98 100 67 60 71 68
71 109 100 105 101 98 100 98 96 92 94 30 46 57 66 66 69 79 86 88 89 74 112 125 113 94 86 74 83 92 109 118 128 108 94 37 88 99 106 106 109 110 112 113 112 117 71 36 33 28 39 46 51 54 55 57 59 63 65 97 141 123 125 137 136 137 139 117 101 111 132 131 131 129 132 135 84 54 72 67
77 106 98 104 100 98 100 99 93 93 92 28 48 57 66 65 69 80 86 88 87 75 115 123 112 93 86 71 83 93 110 119 128 108 94 38 89 98 105 106 107 109 110 111 111 116 69 36 32 30 41 47 54 56 57 59 60 63 65 96 140 118 115 136 137 137 138 109 85 106 114 110 103 106 129 134 88 56 72 68
82 107 102 99 100 99 98 97 94 93 91 26 49 58 66 65 70 81 86 89 85 76 117 122 111 91 86 72 84 94 111 119 128 100 90 40 90 98 104 106 106 107 109 110 111 115 67 34 30 31 41 47 53 56 56 57 60 62 63 89 132 118 120 128 129 129 129 112 103 112 130 128 127 128 127 126 91 63 72 69
87 106 102 100 101 99 99 96 97 91 89 25 50 58 65 65 70 83 85 90 84 79 119 121 110 89 85 70 85 95 112 119 127 101 88 40 89 97 104 105 106 107 108 108 109 114 65 31 30 27 34 43 50 55 55 55 60 64 68 33 22 23 25 25 26 27 29 29 31 33 33 31 30 28 32 39 23 20 20 20
93 105 102 98 101 99 96 99 97 92 87 24 50 58 65 64 71 84 85 91 82 82 120 120 109 88 84 69 85 96 112 119 126 105 89 22 27 27 37 99 107 107 108 108 109 113 63 34 29 20 34 47 53 58 63 64 64 69 74 20 24 29 18 18 21 13 2 2 2 10 22 23 12 19 38 39 42 44 42 40
97 107 100 101 108 104 101 101 98 93 85 23 50 58 65 63 71 85 84 91 80 86 121 119 108 87 83 69 85 98 112 119 124 98 86 18 14 8 16 97 106 106 107 108 108 113 61 35 29 25 35 45 52 57 62 64 64 68 74 18 42 52 39 42 43 15 4 4 7 20 20 22 20 21 35 36 28 29 29 28
102 109 99 101 104 103 103 103 102 102 85 23 51 58 64 63 72 85 85 92 79 90 120 118 108 86 83 70 85 99 112 120 122 95 83 24 29 16 24 98 106 106 107 108 108 112 59 32 28 27 43 51 52 59 62 59 58 63 66 17 4 8 13 17 19 20 19 24 33 36 40 41 37 33 39 44 38 43 46 41
105 103 101 103 100 100 97 96 95 94 80 23 51 58 64 63 73 86 84 92 77 94 117 118 109 86 83 70 86 101 113 121 118 94 81 26 36 26 35 99 106 106 107 107 108 112 58 33 26 40 88 88 89 90 89 54 22 21 18 11 14 24 32 37 37 38 40 30 27 66 81 82 78 77 82 84 86 88 88 86
108 103 101 101 102 102 98 97 95 92 77 22 51 57 63 62 74 86 85 91 76 98 113 118 109 86 82 70 86 102 112 122 116 95 78 25 34 23 34 101 108 107 106 107 107 111 56 33 23 33 77 67 65 74 88 69 21 19 27 38 40 42 40 43 49 46 43 26 26 58 65 74 75 70 82 87 87 87 85 86
111 103 100 100 103 98 97 96 93 92 74 22 50 57 62 61 74 86 85 91 75 102 108 118 109 85 79 70 87 104 112 123 114 99 76 23 28 16 23 80 82 73 74 106 107 110 54 25 13 34 77 70 68 80 76 79 32 25 39 49 53 53 46 46 61 59 45 33 25 50 62 76 67 70 80 83 86 84 82 85
115 107 99 103 104 100 99 96 93 94 71 22 50 57 61 61 76 86 85 90 75 105 102 118 109 84 78 71 87 105 112 123 112 102 74 19 19 13 18 49 51 51 54 75 103 109 45 16 10 27 80 81 82 83 83 79 47 25 28 25 25 28 31 33 37 39 40 36 11 35 64 76 82 80 86 87 86 81 76 78
113 105 100 100 104 101 100 98 93 96 67 23 49 56 60 61 77 85 85 89 76 107 96 119 110 84 78 72 87 106 112 125 104 97 71 12 8 5 13 51 53 53 52 57 103 107 39 15 12 10 11 18 25 31 28 29 29 19 28 33 34 37 38 41 44 42 42 44 35 41 54 62 64 64 65 63 80 80 74 78
112 103 103 102 103 100 99 96 94 95 64 23 49 56 59 61 78 84 86 88 79 107 89 118 112 85 77 73 88 107 112 125 101 98 68 11 9 8 16 51 53 53 53 59 103 107 39 12 12 9 6 14 27 39 45 52 59 55 72 91 91 90 91 93 92 94 95 96 97 100 101 102 102 99 99 97 105 108 108 107
112 104 102 103 104 100 97 93 93 96 60 24 47 54 57 60 79 83 87 86 82 105 83 117 115 86 77 74 90 108 112 125 103 104 64 30 42 47 49 52 52 52 52 53 94 107 38 10 12 9 5 16 30 39 46 55 66 68 98 121 119 117 118 119 120 121 121 119 119 122 124 124 125 124 120 121 122 123 120 117
118 113 113 108 110 106 99 98 94 97 57 24 46 53 56 60 80 82 87 85 88 102 78 113 117 89 78 75 92 107 112 125 103 108 58 29 45 50 52 52 52 54 58 81 105 107 42 14 14 9 7 18 30 39 44 53 63 66 104 128 124 122 121 121 122 121 120 120 121 123 124 122 122 121 117 117 118 121 118 115
90 90 92 96 101 101 104 106 105 107 55 23 41 47 47 58 81 81 89 85 92 103 81 107 121 93 80 76 95 108 114 124 104 111 55 40 46 52 54 55 57 66 75 87 100 108 47 21 21 9 9 19 29 39 44 50 60 65 96 125 121 120 119 119 121 121 120 119 119 120 121 120 119 117 114 115 115 117 117 113
16 15 15 18 24 22 24 29 37 52 34 13 16 17 15 50 82 79 89 84 97 101 83 102 124 100 84 79 98 108 117 120 47 49 29 70 78 65 64 62 65 77 87 98 106 108 46 23 22 9 12 12 17 26 30 37 51 62 88 127 123 122 122 123 125 124 123 123 123 123 125 124 121 120 122 122 122 121 119 117
11 9 8 8 16 32 39 39 32 21 13 39 55 53 52 60 83 75 88 84 102 97 83 96 125 109 90 81 101 107 117 100 14 8 15 65 84 84 82 89 102 106 108 107 107 107 45 22 19 9 16 23 21 26 36 38 37 34 40 97 100 98 95 94 94 90 86 84 83 80 78 77 74 77 76 72 66 63 60 57
47 56 51 46 57 67 74 82 90 88 79 83 87 75 66 84 98 83 86 76 86 89 93 95 108 103 93 90 99 107 114 100 87 86 84 88 93 102 111 115 116 111 107 108 108 108 44 20 16 9 15 52 52 40 32 34 42 43 27 37 41 41 41 43 41 42 42 42 44 45 48 48 48 54 53 50 47 48 48 47
85 80 79 84 89 90 88 84 85 86 85 83 89 89 83 92 104 103 101 100 96 102 103 103 101 98 102 107 116 121 120 119 116 112 109 112 116 118 116 114 112 111 109 109 110 109 42 17 13 7 13 54 67 68 62 50 35 25 26 56 72 68 64 61 59 57 53 51 49 46 45 44 44 44 45 45 47 46 48 50
80 80 83 90 95 89 87 88 90 88 87 91 89 86 92 93 90 90 92 92 92 99 101 92 93 106 111 119 122 121 119 119 116 110 107 114 115 114 114 113 111 111 110 103 104 102 39 15 11 14 13 49 64 67 67 68 67 62 48 32 31 39 44 50 55 60 65 70 76 82 88 94 99 105 109 112 114 117 118 119
81 85 90 91 92 89 89 91 87 89 94 91 89 95 95 91 93 92 89 91 99 106 109 102 99 98 116 123 121 120 119 118 117 116 116 114 114 114 114 114 112 112 111 90 80 78 56 39 28 26 18 44 62 65 67 66 67 67 67 67 71 117 126 127 127 126 127 127 126 126 125 124 124 123 122 122 121 120 120 119
83 84 83 84 90 93 89 88 90 93 89 92 97 94 92 94 92 91 94 101 109 116 112 106 115 106 122 124 121 121 121 120 117 115 114 114 114 114 112 106 101 97 90 82 82 79 65 47 35 31 21 40 58 62 65 65 65 66 66 65 66 108 125 123 123 122 123 123 122 122 122 122 121 120 119 120 120 119 119 119
81 78 79 82 88 89 87 89 89 88 93 95 91 91 95 91 90 96 102 111 118 116 95 90 119 117 120 125 123 112 93 93 100 107 108 107 103 97 92 87 87 86 85 84 84 83 76 70 60 46 31 26 40 53 61 61 63 63 65 65 64 99 124 121 121 122 122 122 121 122 122 122 121 121 121 120 119 119 119 119
76 74 76 79 83 84 84 86 88 90 90 88 86 88 88 88 95 102 111 118 106 71 58 58 76 38 31 87 112 69 59 69 78 90 95 97 97 97 97 97 96 96 95 96 94 94 91 90 91 88 82 68 50 35 34 43 54 61 62 63 62 92 124 121 122 122 122 122 122 122 122 122 121 120 119 118 117 117 115 113
81 80 80 81 82 83 83 84 83 85 85 82 82 84 87 92 100 111 117 102 77 81 61 26 26 33 41 57 86 87 94 97 99 96 96 97 96 95 96 95 96 93 91 92 87 86 84 84 88 83 83 91 93 75 55 40 33 38 51 60 61 89 118 116 117 116 115 115 113 109 105 101 95 89 82 77 70 64 63 62
