P2
80 80
255
206 205 204 205 206 208 210 211 212 213 216 217 216 216 218 217 218 218 217 220 219 218 218 219 221 217 200 196 199 247 255 255 255 255 255 255 255 255 255 255 255 255 255 255 252 248 248 247 250 255 255 255 255 255 255 205 152 156 158 157 220 255 255 255 255 197 152 152 155 153 229 255 255 255 255 186 156 163 161 159
206 203 207 208 209 207 208 211 212 211 216 216 217 218 218 218 218 219 218 219 219 219 221 219 222 211 177 169 178 246 255 251 249 249 248 249 250 250 250 250 250 251 254 255 253 250 249 248 250 255 255 255 255 255 239 233 219 220 229 229 246 251 250 252 255 238 215 213 223 223 246 255 255 255 253 232 190 160 162 158
205 205 208 206 205 207 209 208 211 212 214 217 218 218 219 217 220 220 220 220 221 220 220 222 223 211 173 171 179 247 255 251 243 252 252 253 253 253 254 250 254 254 255 255 255 255 255 255 255 255 241 210 211 193 187 243 246 244 249 254 254 246 246 251 253 253 241 243 255 255 255 255 255 254 254 253 234 209 211 209
207 207 207 205 206 209 210 211 212 212 216 218 217 217 220 219 219 220 219 221 221 221 221 222 224 211 175 171 179 248 255 236 231 232 227 224 230 230 237 221 226 234 255 255 255 255 255 255 255 255 226 158 160 119 152 235 236 231 237 243 244 242 241 236 236 240 238 234 237 247 248 248 248 248 248 251 255 255 255 255
209 207 207 207 209 211 211 213 215 214 217 219 217 220 221 221 220 222 221 220 222 223 223 222 223 214 178 173 180 248 255 233 230 222 220 226 214 222 220 222 215 234 254 254 255 255 255 255 255 255 226 161 163 117 150 235 237 233 235 236 244 246 245 246 247 247 247 247 246 246 246 246 245 241 243 248 254 255 255 255
209 208 207 209 209 210 211 212 212 214 218 219 219 219 220 221 220 223 222 222 223 224 223 221 222 211 176 172 179 248 255 255 251 253 254 255 247 252 252 255 252 245 239 248 249 255 255 255 255 255 225 161 160 112 146 234 240 233 233 237 240 240 241 242 245 243 242 242 243 244 245 242 242 245 244 249 253 255 255 255
208 206 207 210 209 210 214 213 213 214 215 218 219 219 220 218 222 222 222 222 222 222 222 219 223 209 176 170 180 248 255 239 234 237 238 242 242 250 255 248 230 229 238 253 250 245 255 255 255 255 226 163 162 107 146 231 236 234 221 238 243 247 236 239 240 249 243 243 246 240 245 247 240 234 241 250 255 255 255 255
208 208 207 208 210 210 211 213 213 216 215 216 217 221 219 219 223 222 220 220 221 222 221 219 221 210 175 170 180 249 255 236 218 208 206 217 214 238 253 226 242 230 233 254 240 235 252 255 255 255 225 160 157 102 154 230 235 232 229 230 236 244 243 240 239 244 248 244 247 241 241 247 242 246 244 251 255 255 255 255
211 208 206 209 210 210 212 214 215 216 217 218 218 219 218 218 221 223 221 220 221 219 218 218 221 209 176 171 180 249 255 251 246 241 242 242 249 251 244 236 254 243 237 246 234 253 250 255 255 255 239 204 201 160 172 223 228 236 246 245 244 244 245 248 247 245 247 247 248 246 245 246 244 246 247 251 246 229 230 230
211 209 209 209 210 212 212 212 214 217 217 218 218 220 221 220 221 222 222 221 221 219 218 219 220 211 175 172 180 250 255 255 255 254 254 254 246 255 246 234 254 242 230 219 238 252 249 254 255 255 255 255 255 243 204 228 239 239 247 247 246 247 246 246 245 245 245 245 246 247 247 246 248 248 247 254 227 163 165 162
212 210 208 209 209 212 212 214 215 218 217 219 219 219 220 221 220 222 222 222 221 220 218 218 221 210 176 171 182 250 255 255 242 217 217 221 225 255 250 236 227 217 197 214 220 251 248 253 255 255 255 255 254 238 208 237 251 241 244 244 245 246 245 245 242 244 244 244 245 246 247 247 247 247 246 254 230 166 166 163
212 210 207 208 207 210 213 216 215 216 217 217 217 217 219 220 220 220 222 221 221 220 222 222 224 211 177 172 183 250 255 255 243 226 236 228 237 255 249 245 220 209 208 222 218 239 250 254 255 255 255 255 253 237 209 242 255 234 225 226 228 228 227 229 230 229 231 230 230 230 229 228 230 228 233 254 231 169 167 163
211 210 209 210 208 209 211 212 216 216 216 219 217 219 219 219 218 220 220 220 220 221 223 222 224 210 177 172 181 250 255 252 253 255 253 255 255 255 252 239 234 213 251 227 211 238 251 255 255 255 255 255 252 235 209 244 255 233 222 223 222 222 222 226 229 229 229 230 228 223 222 222 222 221 230 253 232 170 169 165
208 208 206 208 207 208 209 213 214 216 215 216 216 216 216 216 217 218 220 219 220 222 223 223 223 210 177 171 182 251 255 226 216 227 210 225 231 231 239 251 221 217 254 243 207 249 251 255 255 255 255 255 254 238 211 249 252 245 245 246 246 246 244 245 244 243 244 243 245 245 245 245 244 239 240 251 231 175 168 163
206 208 206 211 209 209 209 212 213 216 212 213 212 213 213 214 216 217 219 219 221 221 222 221 223 209 176 172 185 251 255 232 223 214 220 212 219 230 238 252 233 235 253 246 226 241 255 255 255 255 249 237 226 204 203 249 251 253 255 255 255 255 247 250 251 255 252 253 255 255 255 253 246 251 253 252 240 200 191 187
207 208 210 212 210 213 215 216 214 216 212 212 212 213 214 216 215 214 219 220 221 222 221 221 224 208 176 172 185 251 255 254 254 250 254 252 253 254 255 255 248 247 250 247 247 253 255 255 255 255 226 169 136 95 164 253 252 253 255 255 255 252 243 247 246 253 255 255 254 252 255 244 232 249 252 254 254 255 255 255
208 208 210 212 210 212 210 214 215 215 213 211 214 215 215 217 217 214 218 219 220 220 219 219 223 207 171 171 184 251 255 235 233 248 248 249 249 246 245 239 231 242 240 243 255 255 255 255 255 255 224 165 128 87 151 255 255 255 255 255 255 251 242 246 250 254 255 254 254 253 254 246 230 238 248 253 254 255 255 255
209 209 212 211 210 212 213 213 215 214 213 213 216 216 217 218 218 215 219 219 219 218 219 221 222 205 171 172 182 251 255 222 208 209 225 228 224 222 220 219 216 221 218 229 255 255 255 255 255 255 224 164 123 86 152 255 254 254 254 253 254 252 245 248 250 254 255 255 254 254 254 254 244 246 251 253 254 255 255 255
208 211 212 210 209 213 213 214 215 215 214 213 216 218 216 217 218 218 219 221 222 218 220 221 221 204 174 171 185 252 255 244 238 239 241 242 238 221 244 244 244 241 246 249 255 255 255 255 255 255 223 163 118 87 153 248 246 247 247 254 255 253 252 251 252 255 255 254 248 251 255 253 246 248 253 255 254 255 255 255
210 210 210 210 212 213 215 215 215 216 215 215 214 214 217 217 217 217 219 220 220 219 220 221 223 206 173 171 186 252 255 255 255 255 255 255 255 253 255 255 255 255 255 255 255 255 255 255 255 255 224 161 112 87 154 249 245 247 245 253 254 255 253 253 253 255 255 251 250 251 255 252 250 252 252 254 254 255 255 255
211 212 211 212 213 212 212 214 216 215 215 215 214 218 217 219 218 217 220 219 218 221 221 224 225 207 177 173 189 252 255 255 255 255 255 255 255 255 255 255 255 255 255 255 255 255 255 255 255 255 231 175 128 107 161 254 249 247 242 254 254 253 254 255 255 250 250 249 248 248 255 254 251 252 253 254 253 250 250 251
210 210 211 212 212 212 213 214 215 216 216 216 215 215 217 220 218 218 219 219 219 220 221 222 224 207 178 174 188 253 255 253 249 251 251 250 250 255 255 255 255 255 255 255 255 255 255 255 255 255 254 251 233 222 205 251 253 249 249 255 254 252 254 253 248 247 249 248 251 253 255 255 254 252 254 254 247 192 179 180
210 209 211 210 209 213 214 216 216 215 216 216 217 218 219 218 219 217 219 221 221 222 223 223 224 207 179 177 190 253 255 249 243 245 247 252 253 255 255 255 255 255 255 255 255 255 255 255 255 255 254 255 240 232 212 251 255 253 247 248 249 255 253 249 246 243 249 254 255 255 253 255 251 251 254 255 246 188 165 165
211 212 212 210 214 215 214 216 218 215 215 215 217 218 218 216 217 217 218 221 218 221 223 223 224 207 178 177 192 254 255 253 252 252 253 255 255 255 255 255 255 255 255 255 255 255 255 255 255 255 254 254 238 231 212 251 254 253 244 243 239 252 249 247 247 246 252 254 255 253 248 254 251 248 253 254 240 186 166 167
212 210 213 213 214 217 216 217 215 215 217 218 217 218 216 217 219 217 217 220 219 222 222 222 225 206 177 174 191 254 255 254 255 255 255 255 255 255 255 255 255 255 255 255 255 255 255 255 255 255 254 253 237 231 213 251 255 255 249 244 243 252 248 241 250 252 255 255 254 249 248 254 249 241 250 255 239 185 166 166
217 215 214 204 191 172 168 182 205 213 219 215 215 212 213 217 219 218 217 218 219 219 222 223 225 206 178 173 192 254 255 254 255 255 255 255 255 255 255 255 255 255 255 255 255 255 255 255 255 255 253 253 237 230 214 250 253 255 250 243 249 254 251 250 254 255 255 252 245 245 251 254 246 239 247 255 242 181 166 166
177 150 128 109 101 98 137 163 203 206 211 205 203 173 180 224 223 223 222 221 222 222 224 226 226 206 177 175 194 254 255 254 254 254 255 255 255 255 255 255 255 255 255 255 255 255 255 255 255 255 252 252 235 230 212 244 249 254 255 255 254 251 253 254 255 255 251 242 242 253 255 252 247 237 247 255 246 185 168 167
86 85 88 96 98 98 142 175 206 200 207 200 200 166 164 217 217 217 219 220 222 223 224 227 229 211 177 176 194 254 255 250 247 248 250 250 250 250 251 254 255 255 255 255 255 255 255 255 255 255 244 167 124 119 172 242 243 248 254 255 255 255 255 255 255 255 254 246 251 255 254 251 246 242 253 253 252 241 237 236
91 94 96 97 97 100 144 202 206 197 204 199 199 169 158 210 212 212 212 214 215 217 219 222 225 208 178 175 195 255 255 252 250 250 251 250 251 251 254 255 255 255 255 255 255 255 255 255 255 255 243 135 88 81 158 240 244 244 253 255 255 255 255 255 255 255 254 255 255 254 253 247 243 245 255 255 253 255 255 255
113 99 99 93 96 99 145 209 198 192 202 196 201 183 159 204 209 209 209 210 211 213 214 217 221 205 177 173 196 255 255 242 249 254 253 254 255 255 255 255 255 255 255 255 255 255 255 255 255 255 244 134 91 85 158 236 241 239 252 255 255 255 254 253 253 253 252 250 251 252 251 250 243 248 255 254 252 254 255 255
129 141 152 128 96 102 145 181 196 190 198 191 205 202 171 198 205 205 207 208 208 208 210 213 216 204 176 174 195 255 255 243 245 250 249 249 253 253 252 252 251 252 252 250 251 254 254 254 254 254 247 171 105 84 158 243 243 246 255 253 255 255 255 254 254 255 254 254 254 255 254 252 244 250 255 254 252 254 255 255
186 185 177 143 96 117 141 149 177 177 188 193 205 210 180 171 206 204 204 206 205 206 207 209 212 198 210 233 239 253 246 246 248 250 250 252 246 231 231 229 229 237 244 234 238 253 254 255 254 254 255 255 139 82 160 251 246 253 254 249 251 255 255 254 253 252 253 255 255 255 255 253 250 254 255 254 252 255 255 255
186 172 165 134 97 119 123 115 119 126 129 134 140 145 138 127 152 163 189 201 202 202 202 203 207 192 226 252 246 238 238 242 243 244 245 247 250 249 249 250 251 249 250 251 250 253 255 255 255 255 255 255 139 76 157 248 248 255 254 249 251 255 255 253 251 250 250 248 251 255 255 255 255 255 255 255 253 254 255 255
108 107 141 121 97 114 161 208 197 189 178 169 159 148 132 119 111 155 205 206 201 213 216 220 224 217 235 247 245 246 245 246 247 245 239 227 220 218 217 210 222 248 251 246 246 255 255 255 255 255 255 255 187 168 185 241 253 255 255 254 253 255 255 255 254 255 254 249 250 255 255 255 253 255 255 255 251 249 254 255
100 108 125 123 94 113 184 255 255 255 255 255 255 251 245 236 224 220 255 255 254 253 255 254 254 255 255 255 253 254 254 255 253 252 251 245 235 230 229 206 161 189 208 176 157 206 211 207 203 196 189 191 191 224 197 223 229 230 230 229 226 227 227 227 230 231 229 223 224 229 229 225 221 220 216 219 249 246 254 255
141 175 121 93 97 116 189 254 245 247 247 248 249 251 255 255 255 229 250 255 252 251 255 253 253 254 254 254 253 255 255 255 252 253 254 255 255 255 255 251 172 134 128 128 125 133 138 139 137 135 136 139 148 150 173 169 167 168 170 172 171 172 170 169 171 175 178 183 181 181 181 178 177 175 139 132 246 241 253 255
111 111 101 95 100 118 195 255 249 249 249 249 248 247 248 248 251 231 248 253 248 249 254 253 254 254 254 254 254 255 255 255 252 253 254 255 255 255 255 255 179 190 203 206 213 210 212 213 211 190 194 200 187 138 186 205 205 198 194 215 215 220 215 201 206 218 201 201 217 218 217 225 224 212 151 136 244 240 254 255
99 102 108 113 119 122 200 255 252 252 252 252 251 250 253 254 254 224 242 247 248 248 254 253 254 254 254 254 254 255 255 254 252 253 254 255 255 255 255 255 177 208 223 223 223 223 221 217 217 207 227 209 176 156 199 211 210 201 197 213 217 216 221 209 206 210 192 202 212 217 211 216 210 211 150 135 246 244 254 255
119 118 118 119 114 118 207 255 251 252 252 251 251 251 251 250 252 212 232 245 248 248 253 253 254 254 255 254 254 255 255 254 251 253 254 255 255 255 255 255 178 236 255 255 255 255 255 255 255 255 246 179 175 181 175 172 168 169 175 174 175 173 179 172 162 158 159 160 160 158 156 154 151 147 116 122 248 246 254 255
104 101 100 99 101 119 213 255 251 252 252 252 251 251 251 251 251 199 228 245 247 247 252 252 254 254 255 254 254 255 255 254 251 252 254 255 255 255 255 254 177 238 255 255 255 255 255 255 255 255 243 186 191 170 102 90 92 93 93 94 95 91 86 83 78 76 74 73 73 69 64 58 55 44 31 84 248 245 254 255
93 94 97 98 105 122 218 255 251 252 252 252 251 252 250 251 248 188 230 245 247 247 251 251 254 254 255 254 254 255 255 253 250 252 254 255 255 255 255 253 174 230 243 243 245 252 255 255 255 255 244 177 172 191 198 198 199 198 194 196 199 197 194 191 188 185 182 180 176 161 156 151 146 142 131 155 241 238 254 255
110 114 116 119 125 125 223 254 252 251 252 251 252 251 251 251 246 182 232 245 247 246 251 250 254 254 255 253 254 255 255 252 250 252 254 255 255 255 255 252 173 219 237 233 235 252 255 255 255 255 242 184 179 209 255 255 255 255 255 255 255 255 255 255 255 255 255 255 255 255 255 255 255 255 245 231 245 243 255 255
119 118 120 121 121 126 228 254 251 251 252 251 252 251 251 251 242 174 235 246 247 246 250 250 254 254 255 253 254 255 255 252 250 252 254 254 255 255 255 249 175 238 249 246 244 252 255 255 255 255 242 186 186 206 251 249 250 250 250 250 249 249 248 250 254 255 255 255 255 255 255 255 255 255 240 230 247 246 255 255
109 108 107 105 108 128 233 254 251 252 251 252 252 251 252 253 238 173 236 245 246 246 249 249 254 254 255 253 255 255 255 251 250 252 255 254 255 255 255 248 178 242 255 255 254 254 255 255 255 255 241 187 187 205 245 243 242 245 246 247 246 241 243 241 249 255 255 255 255 255 255 255 255 254 240 233 243 242 255 255
96 95 95 96 106 132 238 254 252 252 251 252 251 251 251 253 232 172 237 245 246 246 248 250 254 254 255 253 255 255 255 250 250 252 255 254 255 255 255 247 177 227 248 255 255 255 255 255 255 255 240 186 186 209 255 250 242 255 255 255 255 249 251 246 247 253 254 254 255 255 255 254 254 254 230 221 243 244 255 255
102 97 99 102 112 135 241 253 251 252 251 251 251 251 250 251 225 169 238 245 245 246 248 250 254 254 254 252 255 255 255 250 250 252 255 254 255 255 255 245 174 236 252 255 255 255 254 254 255 255 239 184 182 210 255 245 244 253 252 249 244 238 240 243 248 251 252 253 253 251 251 252 251 249 229 221 240 240 253 254
114 117 117 120 123 138 245 254 251 252 252 252 251 251 251 252 218 169 239 245 245 246 248 251 254 254 254 252 255 255 255 249 250 253 254 254 255 255 255 242 177 233 251 250 253 254 246 248 252 254 238 184 182 204 240 234 239 241 242 242 242 244 248 252 253 252 250 249 252 249 251 253 253 252 248 249 249 250 251 251
119 117 119 120 124 144 248 253 253 253 253 253 253 252 252 253 212 172 240 245 244 246 248 252 254 255 254 252 255 255 255 249 249 252 254 254 255 255 255 240 181 236 234 234 232 236 231 238 236 241 236 186 186 195 231 236 240 242 242 245 246 248 250 253 253 252 248 250 252 250 252 255 255 254 253 253 255 252 253 255
103 99 100 102 113 149 251 253 251 253 252 252 253 253 253 255 204 175 241 245 243 246 248 253 254 255 253 252 255 255 254 249 249 252 253 254 255 255 254 238 180 244 241 243 238 240 238 237 239 243 236 186 183 197 232 237 240 241 242 245 246 247 250 253 253 253 250 251 251 252 250 253 252 251 253 253 254 249 254 255
97 94 90 91 112 154 253 253 251 251 252 251 251 252 250 254 198 180 241 245 243 246 248 253 254 255 253 252 255 255 254 249 249 252 253 255 255 255 255 236 184 255 255 255 255 255 255 255 254 252 235 181 180 196 232 236 238 239 240 243 246 248 251 253 253 252 250 252 251 253 254 253 251 249 253 252 251 250 254 254
102 102 95 97 112 159 254 252 252 252 252 251 252 251 251 254 190 184 242 245 242 246 249 254 254 255 252 252 255 255 254 249 249 252 253 255 255 255 254 235 187 250 240 245 243 242 246 245 248 255 235 184 184 194 228 232 236 238 239 242 246 248 251 253 254 253 250 251 251 252 254 252 250 252 250 251 251 248 254 255
109 112 114 116 119 165 255 252 251 252 251 251 252 251 250 254 183 188 242 244 242 246 249 254 254 255 252 252 255 255 254 250 248 251 253 255 255 255 255 233 188 250 249 248 249 246 249 246 248 255 234 184 183 194 228 233 237 239 240 242 246 249 251 253 254 253 249 248 253 253 254 253 253 254 248 251 252 252 254 255
112 113 114 114 118 171 255 252 251 251 251 251 252 251 248 254 176 192 242 244 242 246 249 254 254 255 251 252 255 255 254 250 247 251 253 255 255 255 254 231 187 242 241 247 242 243 246 243 246 255 233 184 183 193 227 231 236 239 240 242 244 248 251 252 252 250 246 247 252 253 254 254 253 252 248 252 251 251 250 250
97 95 95 95 113 178 255 252 251 252 252 250 250 252 250 254 169 197 242 244 242 247 250 254 254 255 251 252 255 255 253 250 248 251 253 255 255 255 253 228 192 248 247 251 248 248 248 246 249 255 231 184 182 188 218 221 226 231 232 232 234 238 241 242 243 248 246 247 250 252 252 250 249 248 247 250 248 249 247 245
88 87 87 89 113 185 255 251 252 252 251 251 251 251 250 254 165 201 242 243 242 247 250 255 254 255 250 253 255 255 253 250 246 251 253 255 255 255 254 225 192 255 255 255 255 255 255 255 255 255 230 182 181 179 206 217 224 228 229 231 233 234 238 242 249 255 253 253 255 255 255 255 247 244 251 255 254 254 255 255
90 92 92 91 115 192 255 251 252 252 251 251 252 250 250 254 159 206 241 242 242 246 251 255 254 255 250 253 255 255 253 250 246 251 254 255 255 255 254 224 198 255 255 255 255 255 255 255 255 255 229 182 180 184 210 219 226 231 231 232 234 236 238 241 249 255 253 253 255 255 255 255 245 241 249 251 250 249 252 255
97 98 95 94 115 198 255 252 251 252 252 251 251 251 250 253 154 210 241 242 242 247 252 254 254 255 250 254 255 255 252 250 246 250 254 255 255 255 253 221 203 255 255 255 255 255 255 255 255 255 228 179 175 185 212 219 225 230 231 229 232 235 237 240 245 251 250 252 254 255 255 255 250 249 253 255 254 255 254 252
97 97 122 133 126 204 255 252 251 252 252 251 251 251 250 251 150 214 241 242 242 247 252 254 254 254 250 254 255 255 252 250 245 251 254 255 255 255 254 219 203 255 255 255 255 255 255 255 255 255 227 175 173 171 191 212 222 228 231 224 230 235 240 242 149 111 119 123 126 127 128 129 130 134 141 140 139 138 133 159
92 92 206 233 144 210 255 252 251 252 252 251 252 251 250 249 147 217 241 242 241 247 253 254 254 254 250 254 255 255 252 249 245 251 254 255 255 255 255 219 149 145 148 239 255 255 255 255 255 255 224 178 176 159 193 218 226 231 236 239 239 239 244 249 127 133 145 132 130 138 102 76 81 81 121 143 143 107 139 170
130 132 185 199 140 217 255 251 252 253 253 252 252 252 251 247 144 220 240 241 241 247 253 254 255 253 251 254 255 255 251 249 244 251 254 255 255 254 254 215 144 125 119 236 255 255 255 255 255 255 223 180 174 176 202 216 225 230 235 238 239 240 244 249 123 158 171 165 170 163 102 87 86 110 142 137 144 127 125 162
218 213 230 218 142 222 255 251 252 253 252 253 253 253 254 245 142 223 240 240 241 247 253 254 255 253 251 254 255 255 251 249 245 251 255 255 255 254 254 213 169 150 146 240 255 255 255 255 255 255 222 176 171 176 208 223 225 228 235 237 228 225 231 231 110 73 88 108 122 123 126 129 145 162 169 176 179 176 172 186
218 219 222 209 143 228 254 252 252 252 252 251 251 251 251 240 141 225 239 239 241 247 254 253 255 253 251 254 255 255 251 249 245 251 255 255 255 253 254 210 179 174 178 245 255 255 255 255 255 255 221 176 173 163 228 254 252 252 253 251 190 148 143 132 114 123 149 169 183 185 185 190 174 158 220 253 252 250 249 250
222 227 228 212 145 234 254 252 252 252 252 251 251 251 251 236 141 226 239 238 241 247 254 254 255 252 252 254 255 255 250 249 244 251 255 255 255 253 254 205 173 163 167 246 255 255 255 255 255 255 220 177 172 109 201 236 224 224 241 253 211 153 153 175 192 195 196 190 195 203 198 193 166 156 206 239 243 246 241 247
222 215 222 199 146 238 254 251 251 252 251 251 251 250 251 232 141 228 238 237 241 248 254 254 255 251 253 254 255 255 250 248 243 252 255 255 255 253 254 206 171 147 143 228 237 230 226 252 255 255 218 165 143 114 212 236 229 236 243 245 236 165 169 193 204 208 208 196 199 216 215 196 179 155 192 235 245 238 236 248
187 189 220 186 149 242 254 251 252 252 252 252 251 250 252 227 142 229 238 237 241 248 255 253 255 251 253 253 255 255 249 247 243 252 255 255 255 253 254 206 154 133 137 202 211 210 212 226 250 255 209 145 130 107 200 241 240 240 242 238 237 179 158 164 160 162 167 173 178 183 185 186 184 134 161 235 244 250 249 250
192 217 224 165 152 246 254 252 252 252 252 252 252 250 253 222 143 229 237 236 240 249 255 253 255 251 253 253 255 255 249 247 243 252 255 255 255 251 254 204 117 89 102 202 213 212 212 212 247 255 203 139 130 106 114 145 168 179 184 167 177 165 149 160 169 173 179 185 190 193 191 189 195 170 171 205 214 221 224 227
196 220 227 161 156 248 254 252 252 252 252 252 251 251 253 218 145 229 236 235 240 249 254 253 255 251 254 252 254 255 249 246 244 252 255 255 255 251 254 202 113 93 106 203 213 212 212 214 247 255 202 128 126 104 102 133 176 204 213 219 228 235 231 232 249 252 253 252 253 253 253 253 253 254 254 252 252 251 250 250
200 210 218 165 164 250 253 252 252 252 252 251 251 250 254 212 149 228 235 234 240 250 254 254 255 251 253 251 254 255 249 246 244 252 255 255 255 254 255 198 191 205 205 211 211 211 211 211 238 255 201 122 124 95 95 140 185 205 214 221 232 240 244 245 255 255 255 255 255 255 255 255 255 255 255 255 255 255 255 255
201 207 210 167 167 255 255 255 255 255 255 253 252 251 254 208 155 229 235 235 239 250 254 254 254 252 253 250 254 255 250 246 245 252 255 255 255 255 255 182 193 211 212 212 211 213 217 233 253 255 207 136 134 111 102 149 187 203 213 219 228 238 241 244 255 255 255 255 255 255 255 255 255 255 255 255 255 255 255 254
206 204 194 166 162 229 231 232 236 242 245 249 253 255 255 207 152 212 212 213 240 251 254 254 254 253 254 253 254 255 251 247 246 253 255 255 255 255 255 176 195 213 214 215 216 225 234 243 250 255 212 155 154 108 109 148 182 204 214 219 226 235 241 243 254 255 255 255 255 255 255 255 255 255 255 255 255 255 255 254
204 198 196 182 149 153 152 146 150 167 162 152 158 164 180 168 130 130 126 142 235 253 253 254 254 253 254 254 255 255 253 248 248 254 255 255 246 179 178 158 231 229 225 224 225 235 242 249 254 255 212 160 159 115 127 127 138 164 181 187 203 222 238 244 255 255 255 255 255 255 255 255 255 255 255 255 255 255 255 255
202 188 206 232 155 132 121 119 123 165 201 199 192 172 149 131 184 236 232 229 236 253 251 253 254 254 254 253 255 255 254 251 249 254 255 255 233 145 133 165 246 252 247 247 250 254 255 255 255 255 211 158 151 119 157 154 169 171 179 191 199 197 188 163 205 229 227 226 224 221 218 214 209 207 205 202 199 195 205 207
189 180 226 212 161 204 221 214 208 235 245 252 255 255 254 243 244 252 248 243 251 254 251 251 249 244 248 252 252 254 254 252 252 254 255 255 248 241 238 242 251 253 254 255 255 255 255 255 255 255 209 155 140 118 164 143 217 227 209 190 186 194 204 175 167 182 182 185 189 189 190 192 192 196 199 203 206 206 213 216
170 202 225 223 249 255 253 252 254 254 254 253 251 251 252 253 250 251 254 253 252 254 254 254 253 252 252 253 253 254 253 253 255 255 255 255 255 255 255 255 255 255 255 255 255 255 255 255 255 255 206 149 134 103 144 141 218 243 243 238 224 200 173 158 178 218 235 227 222 220 217 213 210 206 203 200 197 196 196 196
217 236 248 255 253 249 249 250 253 253 252 251 251 252 252 250 251 253 251 251 254 253 252 252 253 252 253 254 254 252 254 255 255 255 255 255 255 255 254 252 255 255 255 255 255 255 255 255 253 254 207 146 128 136 147 128 209 240 240 241 242 244 242 229 202 175 175 169 173 180 187 194 201 207 213 220 226 232 237 242
247 255 254 250 250 249 251 253 253 253 252 251 252 252 251 252 253 251 252 254 253 252 252 252 251 252 255 255 255 254 255 255 255 255 255 255 255 255 255 255 255 255 255 255 255 255 255 254 251 251 237 212 190 185 187 150 199 238 239 241 240 241 241 242 243 243 243 255 255 255 255 255 255 255 255 255 255 255 255 255
250 250 249 249 251 251 252 252 251 252 253 252 252 252 253 252 251 253 254 252 252 253 252 251 253 255 255 255 255 255 255 255 255 255 255 255 255 255 255 255 255 255 255 254 253 252 252 251 252 252 246 232 216 201 196 162 195 235 236 239 239 239 239 240 240 239 241 251 255 255 255 255 255 255 255 255 255 255 255 255
245 246 248 249 251 252 250 250 251 252 253 252 252 253 252 252 253 254 251 252 253 252 251 253 255 255 255 255 247 250 255 255 255 255 254 237 231 240 251 254 254 253 253 253 253 253 254 253 253 252 249 245 242 233 219 191 172 198 220 234 237 237 238 238 239 239 239 248 255 255 255 255 255 255 255 255 255 255 255 255
250 248 250 251 252 251 249 250 251 252 252 252 252 252 252 253 252 252 251 252 252 251 253 255 255 255 250 235 229 219 200 129 187 246 241 221 226 234 249 254 254 255 255 255 255 255 255 254 254 254 253 253 253 254 253 250 237 219 202 189 196 213 231 237 237 237 238 246 255 255 255 255 255 255 255 255 255 255 255 255
253 253 253 254 254 254 253 253 254 254 253 253 253 253 252 252 252 251 251 252 252 253 254 255 255 253 248 243 193 153 172 182 205 237 248 253 255 255 255 253 254 254 254 255 254 255 255 253 254 252 250 250 250 251 251 250 252 255 254 236 211 192 186 202 224 235 236 246 255 255 255 255 255 255 254 252 250 246 242 239
