P2
80 80
255
31 12 7 8 9 8 8 8 8 8 8 8 8 7 8 8 8 8 8 8 8 8 8 8 7 8 9 9 7 8 9 9 8 8 8 9 8 9 8 8 9 9 8 8 8 9 9 8 9 8 8 8 8 8 8 8 8 8 7 8 8 8 8 7 8 8 8 7 7 7 6 7 7 7 7 6 6 7 5 8
6 7 7 7 7 7 7 7 7 7 7 7 7 7 7 7 7 7 7 7 7 8 8 7 7 7 8 10 7 8 8 7 7 8 8 8 8 8 8 7 8 8 7 7 7 8 8 8 7 7 7 7 7 7 7 7 7 7 7 7 7 7 7 7 7 7 7 7 6 6 6 6 6 5 6 5 6 5 4 7
8 7 7 7 7 7 6 7 7 6 7 6 6 7 7 7 7 7 6 7 7 7 7 7 7 6 8 9 7 6 7 7 7 7 7 6 6 7 7 6 6 6 6 7 6 6 7 6 5 6 6 6 6 6 6 6 6 8 8 7 6 6 5 6 6 6 5 5 5 5 5 4 4 5 5 5 4 3 3 7
7 7 7 6 6 6 7 6 6 5 6 6 5 5 6 6 6 6 5 6 6 6 6 7 6 6 7 8 6 6 5 6 6 6 6 5 6 6 6 5 6 6 5 5 5 6 6 5 4 5 6 6 5 5 4 4 5 5 6 6 5 4 4 4 4 6 4 3 4 4 4 4 4 3 3 2 3 3 2 6
7 7 7 7 7 7 6 7 7 7 5 6 6 6 7 6 6 6 5 6 6 6 6 6 6 6 6 7 6 6 5 6 6 7 6 6 6 7 6 6 6 6 6 6 6 6 5 6 5 5 6 5 5 5 5 4 5 5 5 6 5 5 5 5 3 4 4 4 4 4 4 4 4 4 4 3 4 3 3 6
7 6 6 6 6 6 6 6 7 7 6 5 6 7 7 6 6 6 6 6 7 6 6 6 6 6 6 6 6 6 7 6 6 6 6 6 6 7 6 5 6 6 6 6 5 5 5 4 5 5 6 4 4 5 4 5 5 4 4 5 5 5 5 4 4 4 4 4 4 5 3 3 4 4 3 3 3 2 2 7
7 7 6 6 7 6 6 7 7 7 7 6 7 7 7 7 7 6 6 7 7 7 6 7 7 7 7 7 7 6 7 7 7 7 7 7 8 7 7 7 7 7 7 8 7 7 7 6 7 7 7 7 7 7 7 7 6 6 7 6 6 6 7 7 7 6 6 5 6 6 5 5 5 6 6 6 5 5 5 7
7 7 7 6 7 7 6 7 7 7 7 7 7 6 7 7 7 7 7 8 7 6 7 7 7 7 7 7 7 7 7 8 7 8 8 7 8 7 8 8 7 8 7 7 7 8 7 7 7 7 7 7 7 7 6 7 7 7 7 7 7 6 7 6 7 7 6 6 6 6 5 6 5 6 6 6 5 6 4 7
8 7 7 7 7 7 7 7 7 7 7 7 7 7 7 7 7 7 7 7 7 7 7 7 7 7 8 7 7 8 8 8 7 7 8 8 8 8 8 8 7 8 7 8 8 8 7 7 7 7 7 7 7 7 7 6 7 7 7 6 6 7 7 7 7 7 6 7 6 7 6 6 5 5 5 6 6 6 5 8
7 7 7 7 7 6 6 7 6 7 7 7 6 7 6 7 7 6 6 7 7 7 7 7 7 6 7 6 6 7 6 7 6 7 7 6 7 6 7 6 6 6 6 6 6 7 6 6 6 7 6 6 6 6 5 6 5 5 6 6 6 7 7 5 5 5 5 6 5 5 6 6 4 5 4 4 5 4 4 7
7 7 7 7 7 7 6 7 7 6 7 6 6 6 6 7 7 7 6 7 7 6 7 7 6 6 6 6 6 6 6 6 5 5 6 5 5 6 6 6 6 6 5 5 5 5 6 5 4 5 6 6 5 6 6 6 5 5 4 5 5 5 5 4 4 4 4 4 4 4 5 6 4 4 5 3 2 3 3 6
7 6 6 6 7 7 7 7 6 7 6 7 6 7 6 6 6 6 6 6 6 6 6 6 6 7 6 6 6 6 6 7 6 6 6 6 6 7 6 5 6 5 5 5 6 5 4 5 5 6 6 6 5 6 5 5 5 5 5 5 4 4 4 4 5 5 3 4 3 4 4 4 4 4 4 3 3 2 3 6
7 7 7 7 7 6 6 7 7 7 6 7 7 7 7 5 6 7 7 7 6 7 6 6 6 6 7 6 7 7 7 7 6 7 7 6 7 7 6 6 7 6 6 6 5 6 6 6 6 5 6 6 6 6 5 5 6 6 5 5 5 6 6 5 5 6 5 5 5 6 5 5 4 4 4 3 4 4 3 7
8 7 7 7 7 6 7 7 7 7 7 7 7 8 8 7 7 8 8 7 8 8 7 7 7 8 8 8 8 8 8 8 8 8 8 8 8 8 8 8 8 8 7 8 8 8 8 8 8 8 8 7 8 8 7 7 8 7 7 7 8 8 7 7 8 7 7 7 7 7 6 6 6 6 6 6 6 6 6 8
8 7 7 7 7 7 7 7 7 7 8 8 7 8 8 8 8 8 8 8 8 8 8 8 7 8 8 8 8 8 8 8 8 8 8 8 8 8 8 8 8 8 8 8 8 8 8 8 8 8 8 8 8 8 7 7 7 7 7 7 7 8 8 7 7 7 7 7 7 7 7 7 6 6 7 7 6 6 6 9
8 7 8 7 8 8 7 7 7 7 7 7 8 8 7 8 7 7 7 7 8 7 7 7 7 8 7 7 8 8 7 8 8 8 8 8 8 8 8 8 8 8 8 8 8 8 7 8 7 7 8 7 7 8 7 7 7 7 7 7 7 7 7 7 7 7 7 7 6 7 6 6 7 6 6 6 6 6 6 8
7 7 7 7 7 7 7 6 6 6 7 6 6 7 7 7 7 6 7 6 7 6 6 6 7 6 6 6 7 7 6 6 6 7 6 6 6 7 6 6 6 7 6 6 5 6 6 6 5 6 6 6 6 6 6 5 5 5 5 6 6 4 5 5 6 6 4 5 4 4 5 5 5 5 4 4 5 5 3 6
7 7 7 7 7 6 6 7 6 6 7 7 6 7 7 6 7 6 7 7 7 7 6 6 7 6 6 7 6 6 5 7 6 6 6 6 6 6 6 6 6 6 6 6 6 5 5 5 6 6 5 5 6 6 5 6 5 6 6 5 5 5 6 5 5 5 5 5 5 4 5 5 5 5 4 3 4 2 2 6
8 7 7 7 7 7 7 7 7 7 7 7 7 6 7 6 6 6 6 7 7 7 6 7 6 6 6 6 6 6 6 6 6 7 6 6 5 6 6 5 6 6 5 6 6 6 6 5 5 6 6 6 7 6 5 4 4 5 6 5 5 4 5 4 5 5 4 4 5 6 4 4 5 4 3 3 3 3 3 7
7 7 7 7 7 7 7 7 7 6 7 7 7 7 7 7 7 7 7 7 6 7 7 7 7 7 7 7 6 7 7 7 7 7 7 7 6 7 6 7 7 7 7 6 6 7 7 6 6 6 7 6 6 7 6 6 6 6 6 6 6 6 6 5 6 6 5 5 6 6 5 5 5 5 4 4 5 4 3 7
8 7 8 7 7 8 8 8 8 8 7 8 8 8 8 8 8 8 8 8 8 8 8 8 8 8 8 8 8 9 8 9 9 8 8 9 9 9 8 8 9 8 8 8 8 9 8 8 8 8 8 8 7 8 7 8 8 8 8 7 8 8 8 8 8 7 7 7 7 7 7 7 6 6 7 6 6 6 6 9
8 7 8 8 7 7 7 8 8 8 8 8 7 8 8 8 8 8 8 8 8 8 8 8 8 8 8 8 9 9 9 9 9 9 9 9 8 9 9 9 9 8 8 8 9 8 9 8 8 9 8 8 8 8 8 8 8 8 8 8 8 7 7 8 8 7 7 7 8 7 7 7 7 7 7 7 6 7 6 9
7 7 7 7 8 8 7 8 7 8 7 7 7 8 8 8 7 8 8 8 8 8 8 7 8 8 7 8 8 8 8 8 8 8 8 8 9 8 8 8 8 9 8 8 8 7 8 7 8 8 8 8 8 8 8 7 7 7 7 7 7 7 7 7 7 7 7 6 6 7 6 5 6 6 6 5 4 4 5 8
7 7 6 7 7 7 6 7 7 7 6 6 7 7 7 7 7 6 6 7 6 6 7 7 6 7 6 6 6 6 7 7 6 6 5 6 7 5 6 5 5 5 5 6 6 5 5 6 6 6 6 5 6 6 5 5 4 4 6 5 5 5 5 6 5 4 4 4 4 5 4 5 4 4 3 3 2 2 2 7
7 7 7 7 6 7 7 7 7 7 7 7 6 7 7 7 7 7 7 7 7 7 7 7 7 7 7 7 7 7 6 7 6 6 5 6 6 6 6 5 5 6 6 6 6 6 7 7 7 6 6 6 5 6 6 6 6 6 6 6 6 6 6 6 5 5 6 6 6 6 6 6 5 5 4 4 4 3 2 6
8 7 7 7 6 7 7 7 6 6 7 6 7 7 7 7 6 7 7 7 7 7 7 6 6 7 6 7 7 7 7 7 7 7 6 7 6 7 6 6 6 7 7 6 6 6 6 6 6 5 5 5 5 5 5 6 5 6 7 6 5 6 6 4 6 5 5 5 5 6 5 6 6 5 4 4 4 3 3 7
8 7 8 8 7 7 8 7 7 7 8 7 7 7 8 7 7 7 8 7 7 7 8 8 7 8 7 8 8 8 8 8 8 8 8 8 8 8 8 7 8 8 8 8 7 8 7 6 7 7 8 8 8 6 6 7 7 7 7 7 6 7 7 7 7 7 6 7 7 6 6 6 6 6 5 5 4 4 5 8
9 8 8 8 8 8 8 8 8 7 8 8 8 8 8 8 8 8 8 8 8 8 9 8 8 9 8 8 9 9 8 9 8 9 9 9 9 9 9 9 9 9 9 9 9 9 9 8 8 9 8 9 8 9 8 8 8 8 8 8 8 8 8 8 8 8 7 8 7 7 8 7 7 7 7 6 6 5 6 9
9 8 7 8 8 8 8 8 8 7 8 8 8 8 8 8 8 8 8 8 8 9 9 8 8 9 8 8 8 9 8 9 9 9 9 9 9 9 9 9 9 9 9 9 9 9 9 9 8 8 8 9 8 9 8 8 7 7 7 8 7 8 8 8 8 8 8 8 7 7 7 7 6 6 7 7 5 4 6 9
8 7 7 8 8 7 7 8 7 7 7 7 7 7 8 7 7 8 8 8 8 8 8 8 7 8 7 8 8 8 8 8 8 8 7 8 8 8 7 8 8 8 7 8 8 8 8 8 7 8 7 7 7 8 8 7 7 7 7 7 7 7 7 7 6 6 7 7 6 6 7 6 6 6 7 5 5 4 3 7
7 7 7 7 7 7 7 8 6 7 7 7 6 7 7 7 7 7 7 6 7 7 6 7 7 7 7 7 7 7 6 7 7 7 7 7 7 7 7 6 7 7 7 7 6 7 6 6 6 7 6 6 7 7 7 7 6 6 7 6 6 6 6 5 6 6 5 6 6 6 6 5 5 5 4 3 4 4 4 7
8 7 7 7 7 7 7 7 7 7 7 7 7 7 7 7 7 7 7 7 7 7 7 7 6 6 7 7 7 7 6 7 7 7 8 5 7 7 7 6 6 6 7 7 6 6 6 7 6 6 7 6 6 7 4 7 7 7 7 7 6 6 6 6 6 6 6 6 6 6 6 6 6 5 5 5 4 3 3 7
8 7 7 7 7 7 7 7 7 7 7 7 6 6 7 7 7 7 7 7 7 7 6 6 7 7 6 7 7 7 7 7 7 7 10 43 20 7 7 6 7 6 6 6 6 6 6 6 6 6 7 6 6 13 55 15 5 6 6 6 6 6 6 5 6 5 5 6 5 6 6 5 5 5 5 5 4 3 3 7
9 8 7 7 8 8 8 8 7 8 8 8 8 8 8 8 8 9 8 8 8 8 8 8 8 8 8 9 8 8 8 8 8 8 14 133 48 6 9 8 8 9 8 8 8 9 9 9 8 8 8 8 7 18 103 23 7 8 8 8 8 8 7 7 8 7 7 7 7 7 7 7 7 6 7 7 6 6 5 8
9 8 8 8 8 8 8 8 8 8 8 8 8 8 8 8 8 9 8 8 9 9 8 9 9 9 9 9 9 9 9 9 9 9 12 20 14 10 9 9 9 9 9 9 9 9 9 9 9 9 9 9 9 9 8 11 8 8 8 8 8 8 8 8 8 8 8 8 8 8 8 8 7 7 7 6 7 6 7 9
8 8 8 8 8 8 8 8 8 8 8 8 8 8 8 8 8 9 8 8 9 9 9 9 8 9 9 9 9 9 9 9 9 9 9 8 9 9 9 9 9 9 9 9 9 9 9 9 9 9 8 9 9 9 9 8 8 8 8 8 9 8 8 8 8 8 8 8 8 8 8 8 7 7 7 6 6 6 7 9
8 7 7 7 7 7 7 7 7 7 7 7 7 7 7 7 7 7 7 7 7 7 7 7 7 7 7 7 7 7 7 7 7 7 7 8 8 8 8 7 8 8 7 7 7 7 7 7 7 7 7 7 7 7 7 7 7 7 7 6 7 6 6 6 6 7 6 5 5 5 6 5 5 5 5 5 5 4 4 7
7 6 6 6 6 6 6 6 7 6 6 6 6 6 7 6 6 7 7 6 6 7 7 7 7 6 6 6 6 7 6 6 6 7 7 7 7 6 6 6 6 7 5 6 6 6 6 5 5 5 6 6 6 5 6 6 5 5 6 6 6 5 5 5 5 5 4 5 4 4 5 5 4 4 4 4 3 4 3 7
7 6 7 7 7 6 7 7 6 6 7 7 7 7 7 6 6 7 6 7 7 7 6 6 6 7 7 7 6 7 7 7 6 6 7 7 7 7 7 6 7 7 7 7 6 7 7 6 6 5 6 6 6 7 6 7 6 6 6 6 6 5 6 4 6 5 6 5 4 6 5 5 5 5 4 5 3 3 3 7
7 7 7 7 7 7 7 7 7 7 6 7 7 7 7 7 7 7 7 7 7 7 6 6 7 7 7 7 7 7 7 7 7 7 6 7 6 7 6 6 7 7 7 7 7 7 7 5 6 7 7 6 6 6 6 6 6 6 7 6 5 6 6 5 6 6 6 6 5 6 5 6 5 5 5 5 4 4 3 7
8 8 8 8 8 8 8 8 8 8 8 8 8 9 8 8 8 8 8 8 8 8 8 9 9 9 9 9 8 9 8 9 9 9 9 9 9 9 9 9 9 9 9 9 9 9 9 8 9 9 9 8 8 9 9 9 8 8 8 8 8 8 8 7 8 8 8 7 8 8 8 7 7 7 7 7 7 6 6 9
8 8 8 8 8 8 7 8 8 8 8 8 8 9 8 8 8 8 8 8 8 9 9 9 9 9 9 9 9 9 9 9 9 9 9 9 9 9 9 9 9 9 9 9 9 9 9 9 9 9 9 9 9 9 8 8 8 8 8 8 8 8 8 8 8 8 8 7 8 8 8 7 7 7 7 6 7 7 7 9
9 8 8 8 7 8 8 8 8 7 8 8 8 8 8 8 8 8 8 8 8 8 8 8 8 8 8 8 8 8 8 8 9 9 8 9 9 9 9 9 9 9 9 9 8 9 9 9 8 8 9 8 8 9 8 9 8 8 8 8 8 8 8 8 7 7 7 7 8 7 8 7 7 7 7 6 7 7 6 9
7 6 6 7 7 7 7 7 6 7 7 7 7 7 7 7 7 7 6 7 6 7 7 7 6 7 7 6 6 6 6 7 7 6 6 7 6 7 7 7 7 6 6 7 6 7 6 7 6 7 7 6 7 6 5 6 5 6 7 6 5 5 5 5 6 5 5 6 5 5 5 4 5 5 4 4 5 4 3 6
6 6 7 6 7 7 6 7 7 6 6 7 7 6 7 7 7 7 6 6 7 6 6 7 7 7 6 6 6 7 6 7 7 6 6 7 6 6 7 6 6 6 6 5 6 6 6 7 5 5 5 5 5 6 5 6 6 7 6 5 5 5 6 6 6 5 4 4 4 5 5 5 5 4 3 4 4 4 3 6
8 7 6 7 6 6 7 6 7 7 6 7 7 6 7 7 6 7 6 6 7 6 6 6 6 7 7 7 6 7 7 7 7 7 6 6 7 6 6 6 7 6 6 6 6 6 6 7 6 5 5 5 5 6 6 6 6 5 5 5 5 5 5 6 6 6 4 4 5 5 4 5 4 4 4 4 4 3 3 6
8 7 7 7 7 7 7 7 7 7 7 8 7 7 7 7 7 7 7 8 7 7 7 8 7 7 7 7 7 7 7 7 7 7 7 7 7 7 7 7 7 7 7 8 7 8 8 7 7 8 7 7 7 7 7 6 6 6 7 7 7 6 6 7 7 6 6 6 6 6 6 5 5 4 6 5 5 5 5 8
9 8 8 8 8 8 8 8 8 8 8 8 8 8 8 8 8 8 8 8 8 8 8 8 8 8 8 8 8 8 8 8 8 8 8 9 9 9 9 9 9 9 9 9 9 9 9 9 8 9 8 9 9 9 9 9 8 9 9 8 8 8 8 8 8 8 8 8 7 7 8 7 7 7 7 6 7 7 7 9
8 8 8 8 8 8 8 8 7 8 8 8 8 8 8 8 8 8 8 8 8 8 8 8 8 8 8 8 8 8 8 8 8 8 8 8 9 9 9 9 9 9 9 9 9 9 9 8 9 9 9 8 8 9 8 9 8 8 8 8 8 8 8 8 8 8 8 8 8 7 8 8 7 7 7 7 6 7 7 9
8 8 8 7 6 7 8 7 7 7 8 7 8 8 8 7 8 8 8 8 7 8 8 8 8 8 8 8 8 8 8 8 8 8 8 8 9 9 9 8 9 8 8 9 8 8 8 8 8 8 8 8 8 8 8 8 8 7 8 7 8 7 7 7 7 7 7 7 6 7 7 7 7 6 6 5 6 6 5 8
7 7 6 6 6 6 6 6 7 6 7 6 6 6 6 7 6 6 7 6 7 7 7 7 6 7 7 6 7 6 6 6 6 7 7 6 7 7 6 7 7 6 6 7 6 6 6 6 7 7 7 7 7 9 12 15 8 6 6 5 5 6 5 6 5 4 5 5 5 5 5 5 5 5 4 3 4 3 2 6
7 7 7 7 6 7 7 7 7 7 7 7 7 7 7 7 7 7 6 7 7 6 7 7 7 7 7 6 7 7 7 7 7 7 8 8 7 8 8 8 8 7 8 7 7 7 8 7 7 7 6 7 7 6 51 102 7 6 7 6 6 6 6 6 6 6 5 4 5 6 6 6 5 5 4 4 4 4 3 6
7 7 7 7 7 7 7 7 7 7 6 6 7 7 7 7 7 6 6 7 7 7 7 6 6 7 7 7 6 7 6 6 6 7 6 31 120 18 6 6 7 7 6 6 6 6 5 5 6 6 6 6 6 7 17 24 8 6 7 6 6 6 5 6 6 6 6 5 4 5 4 5 5 4 5 4 4 4 2 6
8 7 7 7 8 7 7 7 7 7 7 7 7 7 7 7 7 8 7 8 7 7 7 7 7 8 8 8 7 8 7 7 7 8 8 19 55 15 7 7 7 7 7 7 7 7 7 7 7 7 7 6 7 8 7 7 8 7 7 7 7 7 7 6 6 7 6 6 6 6 6 5 5 5 5 5 4 5 4 7
8 8 8 8 8 8 7 8 7 7 7 7 8 8 8 8 8 8 8 8 8 7 8 8 8 8 8 8 8 8 8 8 8 9 9 9 6 9 9 8 8 8 8 9 8 8 8 9 8 8 8 8 8 8 8 7 7 7 8 7 7 7 8 7 7 7 7 7 8 7 7 7 6 7 6 5 7 6 6 9
8 8 8 8 8 8 8 7 7 7 8 8 8 8 8 8 8 8 8 8 8 8 8 8 8 8 8 8 8 8 8 8 8 8 8 9 9 8 8 8 8 8 8 9 8 8 9 8 8 8 8 8 8 8 8 8 8 8 8 7 7 7 8 7 8 7 7 7 7 7 7 7 7 7 7 6 7 7 6 8
8 7 7 7 7 7 7 7 7 7 7 7 6 7 7 7 7 7 7 7 7 7 7 7 7 7 7 7 7 7 7 7 7 8 7 8 8 7 7 7 7 7 7 8 7 7 8 7 7 7 7 7 7 7 7 7 7 7 7 7 7 6 5 6 7 6 6 6 6 6 6 6 6 6 5 5 5 4 4 7
7 6 6 6 7 7 6 7 7 6 6 7 7 6 7 6 6 6 6 6 6 6 6 7 7 6 6 6 6 7 6 6 6 6 6 6 6 6 7 6 6 6 5 6 6 5 6 6 5 5 6 5 6 5 5 4 5 5 5 5 5 6 5 5 5 5 5 5 5 4 4 4 3 3 3 2 3 3 2 6
7 7 7 7 7 7 7 7 7 6 7 7 7 7 7 7 6 6 6 7 7 7 6 7 7 6 6 6 6 6 6 6 7 6 6 6 6 7 7 6 6 6 5 6 6 6 6 6 7 6 6 6 6 6 6 5 5 6 6 6 5 5 6 5 6 6 6 6 6 5 4 5 4 4 3 3 4 4 3 6
8 7 6 7 6 6 7 7 7 7 7 7 7 6 7 7 7 7 7 7 6 7 7 7 6 7 6 6 6 7 7 6 7 6 6 6 7 7 6 5 6 6 6 6 6 6 5 6 4 6 6 5 6 6 6 6 6 6 6 5 6 5 6 5 5 5 5 5 6 6 5 5 4 5 4 4 3 3 2 6
8 8 7 7 7 7 7 7 7 7 7 7 7 7 8 8 8 7 8 8 8 7 7 8 8 7 7 7 8 8 8 8 8 8 7 7 7 8 7 7 7 7 7 7 7 8 7 7 7 7 7 7 7 7 8 7 8 8 7 7 6 6 7 7 7 7 7 6 7 7 7 6 6 5 6 6 5 6 5 8
8 8 8 8 8 8 7 7 7 7 7 7 7 8 8 8 8 8 8 8 8 8 8 8 8 8 8 8 8 8 8 8 8 8 8 8 8 8 8 8 8 8 8 8 8 8 8 7 8 8 8 7 7 8 8 8 7 8 8 8 8 7 8 7 8 8 7 7 7 7 7 7 7 7 6 7 7 6 5 8
8 8 8 8 8 8 7 8 8 7 7 7 7 8 8 8 8 8 8 8 8 8 8 8 8 8 8 8 8 8 8 8 8 8 8 8 8 8 8 8 8 8 8 8 8 8 8 8 8 8 8 7 8 8 8 8 7 7 8 8 7 7 8 7 7 8 7 7 7 7 7 7 7 7 6 6 6 6 6 8
8 7 7 8 7 7 7 7 7 6 7 6 7 7 7 7 7 7 7 7 7 7 7 7 7 7 7 7 6 7 6 7 7 7 7 7 6 6 6 6 7 7 7 6 7 7 7 7 7 7 6 6 7 7 6 7 6 6 6 6 6 7 6 6 5 6 5 5 6 6 5 6 4 5 5 5 5 5 5 8
7 6 6 6 7 7 7 7 6 6 6 7 6 7 7 6 6 6 6 7 6 6 6 7 6 7 7 6 6 6 6 6 7 6 6 5 5 6 6 5 6 6 6 6 5 6 5 6 6 6 5 5 4 6 5 5 5 5 5 5 6 6 5 5 5 5 4 4 5 5 5 6 5 3 4 4 3 3 5 7
7 7 6 7 7 7 6 7 7 7 6 7 6 6 6 6 7 7 6 7 7 6 6 6 6 6 6 5 7 6 6 6 6 6 5 6 6 7 5 5 7 6 6 6 6 6 5 5 5 6 5 4 5 6 5 5 5 5 6 6 5 5 5 5 5 5 5 5 4 5 5 5 5 4 5 4 4 4 3 7
7 6 6 6 7 7 7 7 7 6 7 7 6 7 7 7 6 6 6 7 6 6 7 6 6 7 6 5 6 7 7 6 6 6 5 7 7 7 6 6 6 7 6 6 6 6 6 7 6 6 6 6 6 6 5 5 6 6 6 6 5 6 6 4 5 6 6 6 6 5 5 5 4 5 5 4 3 5 4 7
8 7 7 8 7 7 7 7 7 7 7 7 7 7 7 7 8 8 8 8 8 7 8 8 8 8 8 8 8 8 8 8 8 8 8 7 8 8 8 8 7 7 7 8 8 8 8 8 8 7 8 8 8 7 7 7 7 7 8 8 7 7 7 7 7 7 7 7 7 6 7 6 6 6 6 6 7 6 6 9
8 7 7 7 7 8 7 7 7 7 8 7 8 7 8 7 8 8 7 8 8 8 8 8 8 8 8 8 8 8 8 8 8 8 8 8 8 8 8 8 8 8 8 7 8 8 8 8 7 7 7 7 8 8 7 7 7 8 8 8 8 7 7 7 7 7 7 7 7 7 6 6 7 6 6 7 6 5 5 8
8 7 7 7 7 7 7 7 7 7 7 7 6 7 7 7 7 7 7 8 7 7 8 8 8 8 8 8 7 8 8 8 8 7 8 7 8 7 8 7 7 7 7 7 7 7 8 7 7 7 7 7 7 7 7 7 8 7 7 7 7 7 7 7 7 7 7 7 7 7 6 7 6 5 5 5 6 5 5 8
8 7 7 7 6 7 7 7 7 7 6 6 6 7 7 7 7 7 7 7 7 7 5 6 7 7 7 6 7 7 7 7 7 6 7 6 6 7 7 6 6 6 6 6 6 6 6 6 6 6 6 6 5 6 5 6 6 6 6 6 6 6 5 5 5 6 6 6 5 4 4 4 3 5 5 5 4 5 4 7
7 7 7 7 6 7 6 7 7 6 7 7 7 6 6 6 7 6 6 6 7 7 7 7 6 6 6 6 7 6 6 7 7 6 6 6 5 6 6 7 7 6 4 5 6 6 5 5 5 5 6 5 6 6 5 5 5 5 5 5 5 5 5 5 5 5 4 4 4 4 5 4 4 5 4 3 3 4 3 6
7 6 6 7 6 6 6 6 6 5 6 6 7 6 7 6 6 6 5 7 6 7 6 6 7 6 6 6 7 6 6 6 6 7 6 7 6 6 6 5 5 6 5 6 6 6 5 6 5 5 5 6 5 5 5 5 4 5 5 5 5 5 6 5 5 5 5 3 4 5 4 4 4 4 3 3 3 3 2 6
8 7 6 7 7 7 7 7 7 6 6 7 6 7 7 7 6 7 6 7 7 7 7 7 7 7 7 7 7 7 6 7 6 6 6 7 7 6 6 6 6 6 6 7 6 7 5 6 7 6 6 6 6 5 6 6 6 6 6 6 6 6 5 6 7 6 5 5 5 5 4 6 5 4 6 5 5 4 4 7
8 7 7 7 7 7 7 8 7 7 7 7 7 7 7 7 7 7 8 7 8 8 8 7 7 8 7 7 8 8 8 7 8 8 7 7 7 8 7 7 8 7 7 7 7 7 7 7 7 7 6 7 6 7 7 7 7 6 7 7 7 7 7 6 7 7 6 6 7 6 7 7 6 6 6 5 6 6 6 8
8 7 7 7 7 7 7 7 7 8 7 7 7 7 7 7 7 7 7 8 8 7 7 7 8 8 8 7 8 8 8 8 8 7 7 8 8 8 7 7 7 7 7 7 7 7 7 7 7 7 7 7 7 7 7 6 6 7 7 7 7 7 7 7 7 7 7 7 6 6 6 6 6 6 6 5 6 6 4 8
8 7 6 7 7 7 6 7 7 8 7 7 7 8 7 8 7 7 7 7 7 7 7 8 7 7 7 7 7 7 7 7 7 7 7 7 7 7 7 6 6 7 7 7 7 7 6 7 7 7 6 6 6 7 7 6 6 7 7 7 7 6 7 7 7 6 7 6 6 6 6 6 6 6 5 4 6 5 4 7
6 5 6 6 7 6 6 7 7 6 6 6 7 7 6 7 7 6 6 7 7 6 7 7 6 6 6 6 6 6 5 5 6 7 6 6 6 6 6 5 5 5 6 4 5 5 5 5 5 6 5 5 4 5 4 5 4 4 5 6 4 4 5 4 5 5 4 5 4 4 4 5 4 4 3 3 4 4 3 8
7 6 6 6 6 7 6 7 7 6 7 7 6 7 7 6 6 6 7 5 6 6 6 6 7 6 6 5 6 6 5 6 6 6 5 5 6 6 6 6 5 5 5 5 4 4 4 4 5 5 5 4 5 5 5 5 4 4 5 6 5 3 4 4 5 5 5 4 4 4 5 4 5 5 4 4 5 7 8 8
8 6 6 5 6 6 5 6 7 7 6 5 5 6 7 7 7 6 6 7 6 6 5 6 7 7 6 6 6 6 5 6 6 6 5 4 5 6 6 6 5 6 4 5 5 4 5 4 4 3 3 5 5 5 5 5 5 4 5 5 3 4 5 4 4 4 3 5 5 4 4 5 6 6 7 8 9 9 8 31
