P2
80 80
255
31 11 7 8 7 7 7 7 7 8 7 7 8 7 6 7 7 7 7 7 7 6 7 7 7 8 7 5 6 7 7 7 7 7 7 7 7 7 7 6 5 6 7 7 6 7 7 5 5 6 6 6 6 7 7 6 6 6 7 6 6 6 6 6 5 5 6 6 5 6 5 4 5 4 4 5 5 4 4 7
5 6 6 7 7 6 6 7 6 6 6 6 7 6 5 6 6 6 6 5 6 6 6 6 6 7 6 6 5 6 6 6 5 5 5 6 6 6 5 4 5 5 5 5 5 5 3 4 4 5 5 5 5 5 5 5 4 4 4 5 4 4 4 4 5 3 4 5 4 3 3 2 3 3 2 3 3 3 1 6
7 6 7 7 7 7 7 7 7 6 7 6 6 7 7 7 6 6 7 7 6 7 6 7 6 9 8 6 6 6 6 7 7 6 6 6 6 6 6 6 7 6 6 7 5 6 6 6 6 7 6 6 7 6 5 6 6 6 5 6 5 5 5 5 5 5 5 5 5 5 5 4 4 5 4 4 4 3 3 8
8 7 8 7 8 7 6 7 7 6 7 7 7 7 7 7 7 7 8 7 7 7 7 8 7 9 8 7 7 7 7 8 7 7 8 7 8 7 8 7 8 7 8 7 8 7 8 8 7 7 7 8 8 7 6 7 7 7 7 7 7 7 7 7 6 6 6 7 7 7 7 6 6 6 6 6 6 5 4 9
8 7 7 7 7 7 7 7 7 6 7 7 6 6 7 7 7 7 7 7 7 7 7 7 7 8 7 7 7 7 7 8 8 8 8 7 8 8 8 8 8 8 8 8 8 7 7 8 8 7 7 7 8 8 7 7 7 7 7 6 7 7 7 6 7 7 7 6 7 7 7 7 6 6 5 5 6 6 6 8
7 7 7 7 6 7 7 6 7 7 7 6 6 7 7 7 7 7 7 7 7 7 7 7 7 7 7 6 7 7 7 7 7 7 8 7 8 8 7 7 7 7 7 7 7 7 7 7 7 7 7 7 6 7 7 7 7 7 7 6 6 7 6 6 6 6 6 5 6 6 5 6 6 5 5 4 4 4 5 7
6 6 7 6 6 6 6 6 7 7 6 6 6 7 7 6 7 7 6 7 7 7 6 6 6 7 6 6 6 6 5 6 6 6 6 7 7 7 6 6 7 6 6 6 6 5 6 5 5 6 5 5 4 6 5 6 6 6 5 5 5 5 6 6 5 5 5 5 4 4 4 3 3 3 4 4 4 3 3 6
7 7 6 6 6 6 7 7 7 6 5 5 6 6 6 7 6 6 6 7 6 7 6 6 6 5 6 6 7 7 6 6 6 5 6 6 6 6 5 6 6 6 6 7 6 6 6 5 6 6 6 5 5 6 6 6 5 5 5 5 5 5 4 6 5 5 5 5 4 4 3 3 3 3 2 2 2 3 3 7
7 7 6 6 6 7 6 6 6 6 6 5 5 6 6 6 6 6 6 7 6 6 6 6 6 6 7 5 6 6 6 6 6 5 5 6 6 6 5 5 6 5 4 6 7 6 5 4 5 5 6 6 6 5 5 6 5 5 6 5 4 4 4 5 5 5 4 5 4 4 3 4 5 4 4 4 4 2 2 6
7 7 7 7 7 7 6 7 7 7 7 7 6 6 6 6 7 7 7 6 7 7 7 7 7 7 7 7 7 7 7 7 7 7 7 7 7 7 7 7 7 7 7 7 7 7 6 7 7 7 7 7 7 7 6 6 7 7 7 6 6 6 7 6 6 6 6 6 5 5 5 6 5 6 5 5 5 5 4 7
8 7 7 7 7 7 7 7 7 7 7 6 7 7 7 7 7 7 7 8 8 8 8 7 7 8 7 8 8 8 8 8 8 8 8 8 8 8 8 8 8 8 7 8 7 8 8 8 8 8 7 8 8 7 7 6 6 7 7 7 7 7 7 7 7 7 7 6 6 6 7 7 6 6 6 7 7 6 6 8
8 7 7 7 7 7 7 7 8 6 7 7 6 7 7 8 7 7 7 7 8 8 8 8 8 8 8 8 8 8 8 8 8 8 8 8 8 8 8 8 8 8 8 8 8 8 8 8 8 8 8 7 8 8 7 7 8 7 7 8 7 7 6 7 7 7 6 7 7 7 7 7 6 6 7 7 7 7 6 8
7 7 6 7 7 7 7 7 7 7 6 7 7 7 7 7 7 7 7 7 7 7 6 7 6 7 7 7 6 7 6 7 7 7 6 7 7 8 7 7 6 7 7 7 7 8 7 7 6 6 7 7 7 6 6 7 6 7 6 6 6 6 6 6 6 7 6 6 6 6 6 6 5 5 6 6 6 5 4 8
7 6 7 6 6 6 7 7 6 7 6 6 7 7 6 6 6 6 7 7 6 7 6 6 6 6 6 6 6 6 5 7 5 6 6 6 6 6 7 6 6 6 5 6 5 6 5 6 5 5 6 6 5 4 5 5 5 6 5 5 5 5 4 4 4 5 5 5 4 4 5 4 4 5 3 3 4 2 2 6
7 6 7 6 7 6 7 7 6 7 7 6 5 7 7 7 7 7 7 6 7 7 7 7 6 7 6 6 6 7 6 6 6 6 6 7 6 6 6 6 6 6 5 6 6 6 6 6 5 5 6 5 5 6 6 6 5 6 5 5 6 5 5 4 5 5 5 6 5 5 5 5 5 5 4 3 4 3 3 7
7 7 7 6 7 6 7 6 6 7 6 6 7 7 7 7 6 6 6 6 7 6 7 7 7 6 6 6 7 6 7 6 7 7 6 6 6 7 6 6 6 6 6 6 6 6 6 6 5 5 6 5 5 6 6 6 5 5 5 4 5 6 6 5 6 5 4 5 5 5 5 5 5 4 4 3 3 3 2 6
8 7 7 7 7 7 7 7 8 7 7 7 7 8 7 7 7 7 8 7 7 7 8 8 7 8 7 8 8 8 7 8 8 8 7 8 7 8 7 7 8 8 8 8 8 8 8 7 7 8 8 7 7 7 8 7 6 7 7 7 7 7 7 7 7 7 6 7 7 7 7 6 6 7 7 6 5 5 5 8
8 8 7 7 7 7 7 8 7 7 8 8 7 8 7 7 8 8 8 8 8 8 8 8 8 8 8 8 8 8 8 8 8 8 8 8 8 8 8 8 8 8 8 9 8 9 8 8 8 8 8 8 8 8 8 8 7 8 7 8 8 7 7 7 7 7 7 7 7 7 7 7 7 7 7 7 6 6 6 9
7 7 8 7 7 7 8 8 7 8 8 8 7 8 8 8 8 8 8 7 8 8 7 8 8 8 8 8 8 8 8 8 8 8 8 8 7 8 8 8 9 8 8 9 9 8 8 8 8 8 8 8 8 8 8 8 8 7 7 8 8 7 7 7 7 7 7 8 7 7 7 7 7 7 7 5 6 5 6 8
7 6 6 7 7 7 6 7 7 6 6 7 6 7 7 7 7 7 7 7 7 7 7 7 7 7 7 7 6 7 7 7 7 7 6 7 6 6 7 7 6 6 7 7 6 6 7 7 6 6 7 6 6 6 6 6 5 5 6 6 6 6 6 6 6 6 6 5 6 6 5 5 5 5 4 4 4 2 2 6
7 7 6 7 7 7 7 7 6 6 7 6 6 7 6 7 7 6 6 6 6 5 6 6 7 7 7 7 6 6 6 6 6 7 7 7 7 6 5 5 6 6 4 6 5 5 6 6 6 6 5 6 5 5 6 6 5 5 6 6 5 5 6 5 4 5 5 5 5 5 4 3 4 4 5 3 2 2 3 7
7 7 7 7 6 7 7 7 7 7 7 6 6 6 7 7 6 7 7 7 7 6 6 7 6 7 6 7 6 6 6 6 6 6 5 6 6 6 6 5 6 6 6 6 6 6 6 6 6 6 6 6 5 6 6 6 5 6 5 5 5 5 6 5 5 5 4 4 4 5 6 5 4 4 5 4 3 1 2 7
7 7 7 7 7 7 7 7 7 7 7 7 7 7 7 7 7 7 7 7 7 7 7 6 7 7 6 6 6 6 6 7 7 7 6 7 7 7 7 5 6 6 6 6 6 6 7 6 5 6 6 6 6 6 6 6 5 5 5 6 5 5 5 5 4 5 5 5 5 4 5 5 5 4 3 4 4 2 2 6
8 8 8 7 7 8 8 8 7 7 7 8 8 8 8 7 8 8 8 8 8 8 8 8 8 8 8 8 8 8 8 8 8 8 8 8 8 8 8 8 8 8 9 8 9 8 8 8 8 8 8 8 7 8 7 7 8 7 7 8 7 7 7 7 7 7 7 7 6 6 7 7 7 7 6 6 6 4 3 7
8 8 8 8 7 7 7 7 8 8 8 7 8 8 8 8 8 8 8 8 8 8 8 8 8 8 8 8 8 8 8 8 9 9 9 9 9 8 8 8 8 9 9 9 9 8 8 8 8 7 8 8 8 8 8 8 8 8 8 8 8 7 8 7 8 7 7 7 7 7 7 7 6 6 6 6 6 5 3 8
8 7 7 8 7 6 7 8 7 8 8 7 8 8 8 8 8 8 8 8 8 8 8 8 8 8 8 8 8 8 8 8 9 9 9 9 9 8 8 8 8 8 9 8 8 9 8 9 8 8 8 8 8 9 8 7 7 8 8 8 8 7 8 7 7 8 7 7 7 7 7 6 7 7 6 7 6 6 3 8
7 7 6 6 7 7 6 7 7 7 7 6 7 7 7 7 6 7 6 7 7 6 7 7 6 7 7 6 7 7 7 7 8 7 7 6 7 6 7 6 7 7 6 6 6 6 7 6 7 6 7 7 5 7 7 6 6 6 6 6 6 4 5 5 5 6 5 6 6 6 5 4 4 5 3 5 5 5 2 7
7 6 7 6 6 7 7 6 6 6 6 7 7 7 6 7 7 7 7 6 7 7 7 6 7 7 6 7 7 6 7 8 8 4 7 7 6 6 7 6 6 6 6 6 6 6 5 6 6 7 6 8 39 23 7 6 6 6 6 6 6 6 5 6 6 6 5 5 5 5 5 5 5 4 4 4 4 4 3 6
7 7 7 7 7 7 6 7 7 6 7 7 7 7 7 7 7 6 6 6 7 7 7 7 7 7 6 7 7 7 6 7 16 82 21 6 6 6 6 6 6 6 6 7 6 6 6 6 5 7 7 8 114 48 4 6 7 6 6 5 4 5 6 6 6 5 4 5 5 5 4 5 4 3 4 5 3 2 3 6
7 7 7 7 7 7 7 7 7 7 7 7 7 7 7 7 7 7 6 7 8 8 7 8 7 7 7 7 7 7 8 7 17 110 29 7 8 8 8 8 8 7 7 8 8 8 7 7 8 7 7 9 12 11 7 7 7 7 6 7 7 5 6 7 6 6 5 5 4 6 6 6 5 5 4 5 5 4 3 8
8 8 8 8 8 8 8 8 8 7 8 8 8 8 8 8 8 8 8 8 8 8 8 8 9 9 9 8 9 9 8 9 11 10 12 10 9 9 10 10 9 9 9 9 9 9 9 9 9 8 9 9 8 9 9 8 8 8 8 8 8 8 8 8 7 8 8 8 7 8 8 8 7 7 7 8 7 7 5 9
8 8 8 8 8 8 8 8 8 8 8 8 8 8 8 8 8 8 8 8 8 8 8 8 8 8 9 9 9 9 9 9 9 9 9 9 9 9 9 9 9 9 9 9 9 9 9 9 9 9 8 8 9 9 8 8 8 8 9 9 8 8 8 8 7 8 7 7 8 8 8 8 7 8 7 7 7 6 6 9
8 8 7 8 7 8 8 8 8 8 8 8 8 8 8 8 8 8 7 8 8 8 8 8 8 8 8 8 8 8 8 8 9 9 8 8 9 8 9 9 8 8 8 9 9 8 9 8 8 8 8 7 8 8 8 8 8 7 8 8 7 7 7 8 7 7 7 7 7 7 7 7 7 7 7 6 6 7 6 8
7 6 6 7 7 7 7 7 7 7 7 7 7 7 7 7 7 7 6 6 7 7 7 6 7 7 6 7 7 7 7 7 7 7 7 7 7 7 7 7 6 6 6 7 6 6 7 7 6 6 6 5 6 7 7 6 6 6 6 6 6 6 5 5 5 6 6 6 5 5 5 5 4 4 4 4 3 4 3 7
7 6 5 6 6 6 7 7 7 7 7 6 6 7 6 7 7 7 6 6 6 7 6 6 7 7 6 6 6 6 6 6 7 7 6 7 7 7 6 6 7 6 6 6 7 7 7 7 6 5 7 6 6 6 6 6 6 6 5 6 6 5 6 6 6 5 5 5 5 5 5 4 5 4 2 4 4 3 3 7
8 6 6 7 7 6 7 7 7 7 7 7 7 7 7 6 7 7 7 7 7 6 7 6 7 7 7 6 6 6 6 6 6 7 6 6 7 7 7 6 7 6 6 7 6 7 6 6 7 6 6 6 5 6 6 6 6 6 6 6 6 6 5 4 5 6 5 6 5 5 5 4 5 5 3 3 4 4 4 7
8 7 7 8 8 8 7 8 7 7 7 7 8 8 7 7 7 7 7 7 8 7 8 7 8 7 8 7 7 8 8 8 8 8 8 8 8 8 8 8 8 8 8 8 7 8 7 8 7 8 8 7 7 7 7 7 8 8 8 7 7 7 7 6 7 7 7 7 7 6 6 6 6 6 6 6 5 7 6 7
8 8 7 8 8 8 8 8 8 7 8 8 8 8 8 8 8 8 8 8 8 8 8 8 8 8 8 8 8 8 9 9 9 9 9 9 9 9 9 9 9 9 9 9 9 9 9 9 8 9 9 9 9 9 8 8 9 9 9 8 8 8 8 8 8 8 7 8 7 8 8 7 7 7 7 7 7 7 7 8
8 8 8 8 8 8 8 8 8 8 8 8 8 8 8 8 8 8 8 8 8 8 8 8 8 8 8 8 9 8 8 9 9 9 9 9 9 9 9 9 9 9 9 9 9 9 9 9 9 9 9 8 9 9 8 8 8 8 9 8 8 9 8 8 8 8 8 8 8 8 8 8 7 8 7 7 7 7 7 9
8 7 7 7 8 7 8 8 7 8 8 8 8 7 7 8 8 8 7 8 7 7 8 8 8 7 7 8 7 8 7 7 7 7 8 8 8 7 8 7 7 8 8 8 8 8 8 7 8 8 7 8 8 7 7 7 7 7 7 8 7 7 7 6 7 7 7 7 6 7 7 6 6 6 5 6 6 6 5 8
7 7 7 6 7 6 7 7 6 7 7 7 7 6 6 7 7 7 6 6 6 6 6 7 6 7 6 7 6 7 6 6 6 6 7 7 6 7 7 6 6 6 6 6 6 6 6 6 6 5 6 6 6 5 5 6 6 6 6 7 5 5 5 4 5 6 5 5 5 5 5 6 5 4 5 5 4 3 2 6
8 7 7 7 6 7 6 6 7 6 7 6 7 7 7 7 7 6 7 7 7 6 7 6 6 6 7 6 6 6 7 7 7 7 6 6 7 7 7 7 7 7 6 6 7 7 6 6 6 5 7 6 6 6 5 6 6 6 6 7 6 6 6 6 4 5 5 6 5 5 5 6 4 5 5 4 4 4 3 7
7 7 7 7 7 7 6 7 7 7 7 7 6 7 7 7 7 6 6 7 7 7 6 6 6 6 7 6 6 6 7 6 6 6 6 6 7 7 7 7 7 6 6 7 7 6 6 5 6 6 6 6 6 7 6 7 5 5 6 6 7 6 6 6 6 5 4 5 4 5 4 4 4 5 5 4 4 3 3 7
8 7 7 8 7 7 8 8 8 8 8 7 7 8 8 8 8 7 8 8 8 8 8 8 7 8 8 8 8 8 8 8 8 8 9 8 9 9 9 9 8 8 8 8 8 8 8 8 8 8 9 8 8 8 8 8 7 8 8 8 7 8 7 7 7 7 7 7 6 7 7 7 7 7 6 6 6 7 5 8
8 8 8 8 7 8 8 8 8 8 8 8 8 8 8 8 8 8 8 8 8 8 8 8 9 9 9 8 9 8 8 9 9 9 9 9 9 9 9 8 9 9 9 9 9 9 9 9 9 9 9 9 9 9 9 8 8 8 8 8 9 8 8 8 8 8 8 8 8 7 7 8 8 7 7 7 7 7 7 9
8 8 8 8 8 8 8 8 8 8 8 8 8 8 8 8 8 8 8 8 8 8 9 8 9 8 9 9 9 9 9 9 9 9 9 9 9 9 9 9 9 9 9 9 9 9 9 9 9 9 9 9 10 8 7 9 8 9 9 8 8 8 8 8 8 8 8 8 8 8 7 7 7 7 7 7 7 7 7 9
7 7 7 7 7 7 7 7 7 7 7 7 7 7 7 7 7 7 7 7 7 6 7 7 7 7 6 7 6 7 7 8 7 8 4 8 8 8 8 8 7 8 8 8 8 8 8 8 8 8 8 8 9 36 33 7 7 7 6 7 7 6 7 6 6 6 6 6 6 6 6 6 5 5 5 5 5 5 4 7
7 7 7 7 6 6 6 7 7 6 6 7 6 7 7 7 7 7 7 7 6 6 7 6 6 6 6 6 6 7 6 7 7 12 68 21 7 8 8 7 7 6 6 7 7 7 7 6 7 6 7 7 5 87 74 4 6 5 6 6 5 5 5 5 5 6 5 4 5 5 5 4 4 4 4 3 4 4 2 6
7 6 6 7 6 6 6 7 6 6 6 6 6 7 7 7 6 6 7 6 6 7 6 6 7 7 6 7 6 7 6 7 6 15 112 34 5 7 6 6 6 5 6 6 6 6 6 6 5 6 6 6 8 10 10 7 7 5 6 6 6 6 5 4 4 5 5 5 4 3 5 4 3 3 4 4 4 4 4 7
7 7 7 7 6 7 6 7 7 6 7 7 6 7 7 7 7 7 7 6 6 7 7 7 7 7 7 7 7 7 7 8 8 9 7 9 7 7 7 6 6 6 7 7 7 7 6 7 7 7 7 6 6 7 6 7 7 7 7 6 6 6 6 5 6 6 5 6 5 5 5 6 5 4 4 4 4 4 2 7
8 7 8 8 8 8 8 8 7 8 8 7 8 8 8 8 8 8 8 8 8 8 8 8 8 8 8 8 8 8 8 9 9 9 9 9 9 9 9 9 9 8 9 9 8 9 8 9 9 9 8 8 9 8 8 8 8 8 8 8 8 7 8 7 7 7 7 7 7 7 6 7 6 7 7 6 6 6 6 8
8 7 8 8 8 8 8 7 8 8 8 8 8 8 8 8 8 8 8 8 8 8 8 8 8 8 8 8 8 8 8 8 9 9 9 9 9 8 9 9 9 9 9 8 8 9 9 9 9 9 9 9 8 8 8 8 8 8 8 8 8 8 8 8 8 8 7 8 7 7 7 7 7 7 6 6 7 7 5 8
8 7 8 7 8 8 8 8 7 8 8 8 8 8 8 8 8 8 8 8 7 8 8 8 8 8 8 8 8 8 8 9 9 8 9 9 8 9 8 8 9 9 8 8 9 8 9 8 8 9 8 8 8 8 8 8 8 8 8 7 8 8 7 7 8 7 7 7 7 7 7 7 7 6 6 6 6 6 5 8
8 7 6 6 7 7 6 7 7 7 7 6 7 7 7 7 7 7 7 7 6 7 7 6 6 7 7 6 6 7 7 7 7 7 7 7 6 6 6 7 7 7 7 7 7 6 6 7 6 6 7 6 7 5 6 6 6 6 7 6 5 5 6 5 6 6 6 5 5 5 5 5 5 4 4 4 4 4 4 6
7 6 6 7 6 6 6 7 6 7 6 5 7 7 7 7 6 7 6 7 6 7 6 7 7 7 7 6 6 7 6 7 6 6 7 6 7 6 6 6 6 6 6 6 6 6 6 6 6 6 5 5 5 6 5 5 6 5 6 5 6 6 5 4 4 6 6 5 5 5 5 4 4 4 5 5 4 4 3 7
7 6 7 7 7 7 6 7 5 6 6 5 6 6 6 6 6 6 6 7 7 6 7 7 6 7 6 6 7 6 6 6 6 6 6 6 6 6 6 5 6 6 5 5 6 6 6 5 6 6 6 5 5 5 5 5 5 5 5 6 5 6 6 5 5 6 4 4 5 5 5 5 4 4 5 4 3 2 2 7
7 7 7 7 7 7 6 7 7 7 7 7 6 7 7 7 7 7 7 7 7 7 8 7 7 6 7 7 7 7 6 7 7 7 7 6 7 7 7 6 7 7 7 7 7 7 7 6 6 6 6 5 6 6 7 6 6 6 6 6 6 5 6 6 6 6 5 6 5 6 6 6 5 5 5 4 5 4 3 7
7 7 7 7 8 7 7 8 8 8 7 8 8 8 8 7 8 8 8 8 8 8 8 8 8 8 8 8 8 8 8 8 9 8 9 9 8 9 8 8 8 8 8 8 8 8 9 8 8 8 8 8 8 8 8 8 8 8 8 7 8 7 7 7 7 7 7 7 7 7 7 7 6 7 7 6 6 6 6 9
8 8 8 8 8 7 8 8 8 7 8 8 7 8 8 8 8 8 8 8 8 8 8 8 8 8 8 7 8 8 8 9 8 8 9 9 8 8 8 8 8 8 8 9 8 8 8 8 9 8 8 8 8 8 8 8 8 7 7 8 7 7 7 7 8 8 7 7 7 8 7 7 7 7 6 6 7 6 5 8
8 7 7 7 7 7 7 8 7 7 8 7 8 7 8 8 7 7 8 8 8 8 7 8 8 8 8 8 7 7 8 8 8 8 8 8 8 8 8 8 8 8 8 8 8 8 8 8 7 7 7 7 7 8 8 7 7 7 7 7 7 7 7 7 7 7 7 6 7 7 6 6 6 6 5 5 6 6 5 8
7 7 6 6 6 6 7 7 6 7 6 7 7 7 6 7 7 6 7 7 6 7 6 7 6 7 6 7 6 6 7 6 6 7 6 6 6 7 6 6 6 6 6 6 6 6 6 6 5 6 5 5 6 5 6 6 7 6 5 5 5 5 5 6 6 5 5 4 4 6 6 5 5 5 4 4 4 4 3 6
7 7 6 6 6 7 7 7 7 7 7 6 6 6 7 7 6 6 6 7 7 6 6 6 6 7 6 6 6 6 6 6 7 7 6 6 6 7 6 4 5 6 6 7 6 6 5 5 6 5 6 6 5 5 6 6 6 6 6 6 5 5 6 6 6 6 6 5 4 5 5 6 5 4 4 5 5 4 3 6
7 6 6 7 7 7 6 7 7 7 6 6 6 7 7 6 6 7 7 6 7 7 7 6 7 7 7 6 6 7 6 6 6 7 6 6 6 6 6 5 6 6 5 5 6 6 6 6 6 5 6 5 6 6 5 5 5 6 5 6 6 5 6 6 6 6 5 6 5 5 5 5 5 3 3 4 4 4 3 6
7 7 7 7 7 7 6 7 7 7 7 7 7 7 7 7 7 7 7 7 7 7 7 7 7 8 8 7 7 7 7 7 7 7 7 7 7 7 7 6 7 7 7 7 7 7 8 7 7 7 6 7 7 7 7 7 6 7 7 6 6 6 7 6 7 7 7 5 5 6 6 6 5 5 5 5 6 6 4 8
8 7 7 7 8 7 8 7 7 7 7 7 6 7 8 8 7 7 7 8 8 8 8 8 8 8 8 8 8 8 8 8 8 8 8 8 9 8 8 7 8 8 8 8 8 8 8 8 8 8 8 7 8 8 7 8 8 7 8 8 7 7 8 7 7 8 7 7 7 7 7 7 7 7 7 6 7 7 6 9
8 7 8 8 7 8 8 7 7 8 7 7 7 7 7 8 8 7 7 8 8 7 8 8 8 8 8 8 8 8 8 8 8 8 8 8 8 9 8 8 8 8 8 8 8 8 8 8 7 8 7 7 7 7 7 7 8 7 8 7 7 7 7 7 8 7 7 7 7 7 7 7 7 7 7 6 7 7 6 9
8 7 7 6 7 7 7 6 6 7 7 7 6 6 6 7 6 6 7 7 7 6 6 7 7 7 7 7 7 7 7 7 7 7 7 6 7 7 6 6 6 7 6 6 7 7 7 6 6 7 6 7 6 7 6 6 5 6 6 7 6 6 6 5 6 6 5 6 7 6 6 5 6 4 5 5 5 5 4 7
7 6 6 6 6 6 6 6 7 6 6 6 6 6 7 7 6 6 7 7 7 7 6 6 7 7 7 7 6 6 5 7 6 7 7 6 7 6 5 6 6 5 6 6 6 6 6 5 5 5 5 6 6 6 6 5 5 6 5 6 5 5 5 5 6 5 4 5 5 5 5 4 5 3 4 4 4 4 3 6
7 6 6 6 7 7 6 7 7 6 6 6 6 6 6 7 6 6 6 6 5 6 7 6 7 6 6 6 5 6 6 5 6 7 6 6 6 7 7 6 6 5 5 6 6 6 6 5 5 5 5 6 6 6 6 5 5 5 6 5 6 6 6 5 5 6 5 4 4 5 5 5 5 4 4 3 3 3 3 7
7 6 7 6 6 6 6 7 7 6 6 6 7 7 7 6 6 6 5 7 7 6 6 7 6 6 6 6 7 5 6 6 6 5 6 6 6 6 6 5 6 6 5 6 6 5 5 6 5 6 6 6 6 5 6 5 5 6 6 5 6 4 5 6 6 5 5 5 4 4 4 5 5 5 4 4 3 3 2 6
8 7 8 7 7 7 7 8 7 7 7 7 7 7 7 7 7 6 7 7 8 7 7 8 7 8 7 7 8 7 7 8 8 8 7 7 8 7 7 8 7 8 7 8 7 7 7 8 7 7 7 7 6 6 7 6 6 7 7 7 7 6 6 6 6 7 5 6 6 6 6 6 6 7 6 6 6 5 5 9
8 7 7 7 7 7 7 7 7 6 7 7 7 7 8 8 7 7 8 8 8 7 8 8 7 8 8 7 8 8 7 8 8 8 8 8 8 8 8 8 8 8 8 7 8 7 8 8 7 7 7 7 7 8 7 7 7 7 7 7 6 6 7 7 7 7 7 7 7 7 6 6 6 7 6 6 5 7 6 8
8 7 7 7 7 8 7 7 7 7 7 8 8 7 8 7 7 7 7 7 7 8 7 7 8 7 7 8 7 8 8 8 8 8 8 7 8 8 8 7 7 8 8 8 7 8 8 7 7 7 7 7 7 6 7 6 7 7 7 7 7 6 7 6 6 6 7 7 7 7 6 7 6 6 5 6 6 6 5 8
8 7 7 7 7 7 7 7 7 7 7 7 7 7 7 7 6 6 7 6 7 7 7 7 7 7 7 7 6 7 7 7 7 7 7 7 7 7 7 6 7 7 6 6 7 6 6 6 6 7 7 6 6 6 7 6 6 6 7 5 5 6 5 5 4 4 5 6 6 4 5 6 5 5 5 4 4 5 4 7
7 7 7 7 6 7 7 7 6 5 7 7 6 7 7 6 6 7 7 7 7 7 7 7 7 7 7 7 7 7 6 7 6 6 6 5 6 7 6 6 7 6 5 6 6 6 5 6 6 6 6 6 6 5 6 6 6 6 6 5 4 4 5 5 5 4 4 4 4 5 5 5 5 4 3 4 5 4 2 7
8 7 7 7 6 6 6 7 6 6 7 6 7 7 7 7 7 6 7 7 6 7 7 6 6 7 7 7 6 6 6 7 6 6 6 6 6 5 6 7 6 5 6 6 6 6 6 6 6 5 6 5 5 5 5 5 5 7 6 5 5 5 5 5 5 4 4 4 4 5 5 5 4 4 5 5 4 3 3 7
8 7 7 7 7 6 6 7 7 7 7 7 7 7 7 7 7 7 6 7 7 7 7 7 6 7 7 6 6 6 7 7 7 7 6 6 6 6 6 7 7 7 5 6 6 6 6 6 5 5 7 6 5 6 5 5 5 6 5 5 6 6 5 5 5 6 6 6 5 5 5 5 5 4 5 5 4 4 3 7
8 7 7 7 7 7 7 7 8 7 7 8 7 7 8 7 7 7 7 7 7 7 7 8 7 7 8 7 7 7 7 8 7 8 8 7 8 8 8 7 7 7 7 7 7 7 7 8 7 8 7 6 7 7 7 7 7 7 7 7 7 7 6 6 7 7 7 7 6 6 6 7 6 6 6 6 5 6 5 7
8 8 7 7 7 7 6 7 7 7 8 7 7 7 8 7 7 7 8 7 7 7 7 8 7 7 7 7 7 8 8 8 8 8 8 8 7 8 7 7 7 7 7 7 7 7 7 6 7 7 7 7 7 7 7 7 7 7 7 7 7 6 6 7 8 7 6 6 6 7 6 6 6 6 6 6 6 6 4 5
9 8 8 7 7 7 7 7 7 8 7 7 7 7 8 7 8 8 8 7 7 7 7 7 7 7 7 7 7 7 7 8 8 8 8 7 7 7 7 7 7 7 8 7 7 8 7 6 7 7 7 7 7 7 6 7 7 7 7 7 6 7 7 7 7 7 6 6 6 7 6 6 6 6 7 8 6 5 5 30
