P2
80 80
255
33 13 7 8 8 8 8 8 8 8 7 7 7 7 7 7 7 8 7 7 7 7 8 7 7 8 8 10 8 7 7 6 7 7 8 7 8 7 7 6 8 7 7 7 7 8 7 7 7 7 7 7 8 7 7 7 7 7 7 6 7 7 7 6 7 7 6 6 6 7 6 7 5 6 5 4 4 5 4 8
8 8 8 7 7 7 7 8 7 7 7 6 7 7 6 6 7 7 7 7 7 7 7 7 7 8 8 11 9 7 7 7 7 8 7 7 7 8 8 8 8 8 7 7 7 8 8 7 7 7 8 7 7 7 7 7 7 6 7 7 7 7 7 6 7 7 7 6 6 6 7 7 6 6 6 6 5 5 4 8
10 9 8 7 7 8 8 8 8 7 8 7 7 7 7 7 7 8 7 8 8 7 7 8 7 7 8 8 8 8 8 7 7 8 8 8 8 8 8 8 8 8 8 8 7 8 8 8 8 8 7 8 8 8 7 8 8 7 8 7 8 7 7 7 8 7 7 7 7 7 7 7 7 6 6 6 6 6 6 8
10 9 7 7 7 7 7 7 7 7 7 6 6 6 7 7 7 7 7 7 7 7 7 6 6 7 7 7 6 7 7 7 7 7 7 7 7 7 7 7 7 7 7 7 7 7 7 7 6 6 7 7 7 7 6 7 7 7 7 6 6 6 6 6 6 6 6 6 6 6 6 6 6 5 4 5 6 5 4 7
8 8 7 7 6 6 6 7 7 6 6 6 6 5 6 6 6 6 6 6 6 6 5 6 6 6 6 6 6 6 6 6 7 5 6 7 6 7 6 6 6 6 6 7 5 4 5 6 6 6 6 5 5 5 5 5 5 5 5 5 4 6 6 4 4 5 4 5 5 5 5 5 4 4 3 4 3 4 2 6
7 6 8 7 7 6 6 7 7 5 6 6 6 6 5 6 6 7 6 6 6 6 7 6 5 6 6 6 5 6 6 6 6 6 6 6 6 6 6 6 6 6 6 7 5 5 4 5 5 6 6 4 5 6 6 5 4 5 5 6 5 6 5 4 4 5 5 5 5 5 4 4 4 4 3 4 4 4 3 6
7 6 8 7 6 6 6 6 6 6 5 6 6 6 6 6 6 6 6 7 6 6 6 6 6 6 6 5 6 6 5 6 6 6 6 6 6 6 5 6 6 5 5 6 6 5 5 5 5 6 5 4 5 6 6 6 6 4 4 5 6 5 4 5 5 5 5 5 5 4 4 4 4 3 4 4 3 3 3 7
8 7 9 7 7 7 7 7 7 7 6 7 7 7 7 7 7 7 7 7 7 7 6 7 7 7 7 6 7 8 7 7 8 7 7 7 8 7 7 7 7 7 7 7 7 7 7 8 8 7 6 6 7 7 7 7 6 7 7 7 7 7 6 6 6 6 6 6 6 6 6 6 6 6 5 6 5 5 5 7
8 7 7 7 7 7 7 7 7 6 7 8 7 7 7 7 7 8 7 7 7 7 7 7 8 8 8 8 8 8 8 8 8 8 8 8 8 8 8 8 8 8 8 8 8 8 8 8 8 8 8 8 7 7 7 7 7 7 8 8 7 7 8 7 7 7 7 7 7 7 7 7 6 6 6 6 6 7 7 8
8 7 7 7 8 7 7 8 7 7 7 7 7 7 8 7 7 8 8 8 8 7 8 8 8 8 8 8 8 8 8 8 8 8 8 8 8 8 8 8 8 8 8 8 8 8 8 8 8 8 8 8 8 8 7 7 7 8 8 8 7 7 7 6 7 7 7 6 6 7 7 7 7 7 7 6 7 6 5 9
7 6 7 7 7 7 6 7 7 6 7 7 7 7 7 7 7 7 6 7 7 6 7 7 7 7 7 6 7 7 7 7 7 7 7 7 7 7 7 7 7 7 7 7 6 6 6 7 7 6 6 7 6 7 6 6 5 7 7 6 6 6 7 7 6 6 5 6 5 5 5 4 5 6 6 4 4 5 3 7
6 7 6 6 7 7 6 6 7 7 7 7 6 5 7 7 6 6 6 6 6 6 7 6 6 7 6 6 6 6 6 6 6 7 6 6 7 6 6 6 6 6 6 6 6 6 5 6 5 6 7 5 6 7 6 6 6 6 6 6 5 5 5 4 6 6 4 5 5 5 5 4 4 3 3 2 3 4 2 6
7 7 6 7 7 7 7 7 5 6 7 7 6 6 7 7 7 7 7 5 7 7 7 6 7 6 7 6 6 7 6 5 6 7 6 6 7 7 6 5 6 6 6 6 6 7 7 5 6 6 6 6 6 6 5 7 6 6 6 6 6 5 5 5 5 5 5 5 5 4 4 5 5 4 3 4 4 3 3 7
7 7 7 7 7 7 7 7 6 7 7 7 6 6 7 7 7 7 7 7 7 7 6 6 7 7 7 7 6 7 6 6 7 7 7 7 7 6 7 6 7 6 5 6 5 6 6 6 6 6 6 6 6 6 5 7 6 6 6 7 6 6 5 5 5 4 5 5 5 5 4 5 5 5 4 4 5 3 3 7
8 7 7 7 8 7 7 7 7 7 7 8 7 8 8 8 8 8 7 8 8 8 8 8 7 8 8 8 8 8 8 8 8 8 8 8 8 8 8 8 8 8 8 8 8 8 7 8 8 8 8 8 8 7 8 8 8 7 8 7 7 8 8 7 7 7 7 7 7 7 6 7 6 7 6 6 7 7 6 8
8 7 7 8 8 7 7 8 7 7 7 7 8 8 8 8 8 8 8 8 8 8 8 8 7 8 8 8 8 8 8 8 8 9 8 8 8 8 8 8 8 8 8 8 9 8 8 9 8 8 9 8 8 8 8 8 8 8 8 7 8 8 7 8 7 8 7 7 7 7 6 7 7 6 6 7 6 7 5 8
7 7 7 8 7 8 7 8 8 7 7 7 8 8 8 8 8 8 8 8 8 8 8 8 8 8 8 8 8 8 8 8 8 8 8 8 8 8 8 8 9 9 8 8 8 8 8 8 8 8 8 8 8 8 8 7 7 7 8 8 8 8 7 7 7 7 7 7 7 6 7 6 7 7 7 6 6 7 5 8
7 7 7 7 7 7 7 7 7 7 7 7 7 7 7 8 7 7 7 7 7 7 7 7 6 7 7 7 6 7 6 7 6 7 7 7 7 7 7 7 7 7 7 7 7 6 6 7 7 6 6 6 6 6 6 6 6 6 5 6 6 6 6 5 7 6 5 6 5 5 5 4 5 5 4 4 4 5 3 6
8 7 7 7 7 7 7 7 7 7 7 7 7 6 7 7 7 7 7 7 6 7 6 7 6 7 7 7 6 6 6 7 6 6 6 6 5 7 7 6 6 6 6 7 6 6 6 5 6 6 6 5 6 6 5 5 6 7 6 6 5 5 5 5 5 5 5 6 5 5 5 4 4 4 4 5 5 3 3 6
7 6 7 7 7 7 6 7 7 7 7 6 7 7 7 6 7 7 7 7 7 6 7 7 7 7 7 7 6 7 7 7 7 7 7 7 6 7 7 6 6 6 6 7 6 6 6 6 6 6 6 6 5 6 5 6 6 6 6 6 5 5 5 5 5 4 4 5 4 5 5 5 4 3 3 4 5 3 2 6
8 7 6 6 7 7 7 7 7 7 7 7 7 7 7 7 7 7 7 7 7 7 7 7 6 7 7 7 7 7 6 6 7 7 7 7 7 7 7 6 7 6 6 7 6 5 6 6 7 7 7 6 6 5 6 6 6 6 6 5 6 6 6 6 5 5 5 5 5 5 5 5 5 4 4 3 4 5 3 7
8 8 8 7 7 8 7 7 8 8 8 8 7 8 8 8 8 8 7 8 8 8 8 8 8 8 8 8 8 8 8 8 8 9 8 8 9 8 9 8 8 8 8 8 9 8 9 8 8 8 8 8 8 8 8 8 8 7 7 8 7 8 7 7 8 8 7 7 7 7 7 7 7 7 7 6 7 6 6 9
8 7 8 8 7 8 7 8 7 7 8 8 7 8 8 8 8 8 8 8 8 8 8 7 8 8 8 8 8 8 8 9 8 8 9 9 9 9 9 8 9 9 9 9 8 9 9 9 9 8 8 8 9 8 8 8 8 8 8 8 8 8 7 7 7 8 7 7 7 7 7 7 6 7 7 7 7 7 6 9
8 8 8 8 7 7 8 8 7 8 8 8 7 8 8 8 8 8 8 8 7 7 7 8 7 7 8 8 8 8 8 8 9 8 8 8 8 8 8 8 8 8 8 8 8 8 8 8 8 8 8 8 9 7 7 8 7 7 7 7 7 7 7 7 7 7 7 7 7 6 6 6 7 7 6 6 6 6 6 8
7 6 7 7 7 6 6 7 7 7 6 7 7 7 7 7 7 7 6 6 7 6 6 7 7 6 6 6 6 7 7 7 7 9 7 8 8 7 7 7 7 7 6 7 6 6 6 7 6 6 6 6 5 54 59 6 6 6 6 6 6 5 6 6 5 5 5 5 5 4 5 5 5 5 4 4 4 3 3 6
7 7 7 7 7 6 6 7 7 7 7 7 7 7 7 7 7 7 7 7 7 7 7 6 7 7 7 7 7 7 6 7 6 22 115 21 6 7 7 6 6 7 6 6 7 6 6 6 6 6 6 6 5 69 64 5 6 7 6 6 5 6 6 5 5 6 5 5 5 6 5 6 5 4 4 5 5 5 3 6
7 6 6 6 7 7 7 7 7 7 7 7 6 7 7 7 7 6 7 7 7 7 7 7 6 7 6 6 6 7 7 7 7 14 70 18 7 7 7 7 7 6 7 7 7 7 7 6 6 6 6 7 8 6 6 8 6 6 6 6 5 6 6 6 5 5 4 5 5 6 5 5 3 3 4 4 5 5 2 6
8 7 7 7 7 7 8 7 8 7 7 7 7 7 7 7 7 8 8 7 7 7 7 7 8 8 7 7 7 8 7 8 8 8 5 9 8 8 8 7 8 7 7 7 7 7 7 7 7 7 7 7 7 7 8 8 7 7 7 7 7 7 6 6 7 7 6 6 6 7 6 6 6 5 6 6 6 6 5 8
9 8 8 8 8 8 8 8 8 8 8 8 8 8 8 8 8 8 8 8 8 8 8 8 8 9 8 8 8 9 9 9 9 9 9 9 9 9 9 8 9 9 9 9 9 9 9 9 9 9 9 8 9 9 9 8 8 9 8 8 8 8 8 8 8 8 8 8 7 8 7 8 7 7 8 7 7 7 7 9
9 8 8 8 8 8 8 8 8 8 8 8 8 8 8 8 8 8 8 8 8 8 8 8 8 8 9 8 9 8 9 9 8 9 9 9 9 9 9 9 9 9 9 9 9 9 9 9 9 8 8 9 8 8 8 8 8 8 8 8 8 8 8 8 8 8 8 8 8 8 8 8 7 8 7 8 8 7 7 9
8 8 8 8 8 8 8 8 7 7 8 7 7 8 8 8 8 7 8 8 8 8 8 8 7 8 8 8 8 8 7 8 8 9 8 8 8 8 8 8 8 8 8 8 8 8 8 8 7 7 7 8 7 8 8 8 8 8 8 8 8 8 8 7 7 7 7 8 7 6 7 7 7 7 6 6 7 7 6 8
8 6 7 7 6 7 7 7 7 7 7 7 7 7 6 7 7 7 7 7 7 7 7 7 7 6 7 7 6 7 6 6 7 7 6 6 7 6 6 6 6 7 7 7 7 7 6 6 6 6 6 6 6 6 5 6 6 7 6 6 6 7 6 6 6 5 5 6 5 6 6 4 4 5 4 5 4 4 3 7
8 7 7 7 6 7 7 7 7 7 7 7 7 7 7 7 7 7 7 7 7 7 7 7 7 6 7 6 6 6 7 6 7 5 7 7 7 7 7 6 6 7 6 7 7 7 6 7 6 6 6 5 6 6 6 6 6 6 7 6 6 6 6 6 7 6 5 6 5 5 4 5 5 5 4 4 4 4 3 7
7 7 7 7 7 7 7 7 7 7 6 6 6 7 7 7 7 7 7 7 7 7 7 6 6 7 7 7 6 6 6 7 6 7 7 7 7 6 7 7 7 7 6 6 6 7 6 6 6 6 7 6 5 6 6 6 6 6 7 7 6 6 6 5 6 6 5 5 5 6 5 5 5 5 4 5 5 4 4 7
8 8 8 8 8 8 8 8 8 8 7 7 7 8 7 8 8 8 8 7 7 8 7 8 8 8 8 7 8 8 8 8 8 8 8 8 8 8 8 8 8 8 8 8 8 8 8 9 8 8 8 8 8 8 8 8 8 8 8 8 7 7 8 7 7 8 7 7 7 7 7 7 7 7 7 6 5 6 6 9
9 8 8 8 8 8 8 8 8 8 8 9 8 8 9 8 8 8 9 8 8 8 8 8 8 8 8 8 9 9 9 8 9 9 9 9 9 9 9 9 9 9 9 9 9 9 10 9 9 9 9 9 8 9 9 8 8 9 9 8 9 8 9 8 8 8 8 8 8 8 8 8 8 8 7 7 7 7 8 9
9 8 8 8 8 8 8 8 8 8 8 8 9 8 8 8 8 8 8 8 8 8 8 8 8 8 8 8 9 9 9 9 9 9 9 9 9 9 9 9 9 9 9 9 9 9 9 9 8 9 9 9 8 9 9 9 9 9 8 8 9 9 8 8 9 8 8 8 8 8 8 8 8 8 7 8 7 8 7 8
8 7 8 7 7 7 7 7 7 7 7 7 8 8 8 8 7 7 7 7 8 8 7 8 8 8 8 7 8 7 7 7 7 8 8 8 8 7 7 7 8 8 7 7 8 8 7 7 7 7 7 8 8 7 7 7 7 7 7 7 7 7 7 7 7 6 6 6 6 7 7 6 6 6 6 5 5 6 6 8
7 6 7 7 6 6 6 6 6 7 7 7 6 7 7 7 7 7 7 7 7 7 6 6 7 7 7 6 6 7 7 7 7 6 6 6 6 6 7 7 7 7 6 7 6 7 6 7 7 7 6 7 6 6 6 6 6 5 6 6 6 6 5 6 5 5 5 4 5 6 5 5 5 5 5 4 5 4 2 7
7 7 7 7 7 7 7 7 6 7 7 6 7 7 6 7 7 7 7 7 6 6 6 7 7 7 7 6 7 7 6 7 7 7 6 7 7 7 7 7 7 7 7 7 7 7 7 6 6 7 7 6 7 7 5 6 6 6 6 6 6 6 5 5 6 6 5 5 5 6 6 6 4 4 3 3 4 3 3 7
7 7 7 7 7 7 7 7 7 7 7 7 7 7 7 7 7 7 7 7 7 7 7 7 7 7 7 7 6 7 7 7 7 7 7 7 7 7 7 7 7 7 7 7 6 6 7 7 7 6 6 6 7 7 7 7 6 5 6 7 6 6 6 6 6 6 6 6 5 5 5 5 4 4 4 4 4 4 3 7
8 8 8 8 8 8 8 8 8 8 8 8 8 8 8 8 8 8 8 8 8 9 8 8 8 8 8 8 8 8 8 8 8 9 9 9 9 9 9 9 9 9 8 9 9 9 8 8 9 9 9 8 9 9 8 8 8 8 8 8 8 8 8 8 8 7 7 7 8 7 8 7 7 8 7 6 7 7 6 8
9 8 8 8 8 8 8 8 8 8 8 8 8 8 8 9 8 8 8 9 9 8 8 9 8 8 9 9 9 8 9 9 9 9 9 10 10 9 9 9 9 9 9 9 9 9 9 9 9 9 9 9 9 9 8 8 9 8 8 9 9 8 8 8 8 7 8 8 8 7 8 8 8 8 8 7 7 7 7 9
9 8 8 8 8 8 8 8 8 8 8 8 8 8 8 9 8 8 8 9 9 8 9 9 8 8 9 8 8 9 9 9 9 9 10 9 11 11 10 10 10 10 10 10 10 10 11 11 10 10 10 10 11 12 25 26 9 8 9 8 8 8 8 8 8 8 7 8 8 7 7 8 7 8 7 7 7 7 7 9
7 7 7 7 7 7 7 8 7 7 7 7 7 7 7 7 7 7 7 7 6 6 6 7 7 7 7 7 7 7 7 7 7 6 52 100 8 9 8 7 7 7 8 8 8 8 8 7 7 8 7 7 8 6 87 101 5 7 7 6 6 6 6 6 6 5 6 5 6 6 5 6 5 6 6 4 5 4 3 7
7 7 7 7 7 7 7 7 7 7 7 7 7 7 7 7 7 7 7 7 6 7 7 6 6 7 7 7 7 7 7 7 7 6 35 62 8 7 6 7 7 6 6 6 6 6 6 6 6 6 6 6 7 8 19 20 8 7 7 6 5 5 6 6 5 6 5 5 6 6 4 5 4 5 4 4 3 3 2 7
7 7 7 7 7 7 6 7 7 7 6 6 7 7 7 7 7 7 7 7 7 7 7 6 7 7 7 7 6 7 7 7 7 7 6 4 8 7 6 7 7 7 6 6 6 6 6 6 6 6 6 6 7 7 7 6 7 7 6 7 5 5 6 6 6 6 6 6 6 6 5 5 4 4 5 5 4 3 3 6
8 7 7 7 7 7 7 7 7 7 6 7 7 7 7 7 7 7 7 7 7 7 7 7 7 7 7 7 7 7 7 7 7 7 8 8 7 7 7 7 7 7 7 8 7 7 8 7 7 7 7 7 6 7 7 7 7 7 7 7 7 7 6 6 7 6 6 6 7 6 6 6 6 5 6 5 4 5 5 7
8 7 8 8 8 8 8 8 8 7 8 8 8 8 8 8 8 8 8 8 8 8 8 8 8 8 8 8 8 8 8 9 9 9 9 9 9 9 9 9 9 9 9 9 9 9 9 8 9 9 9 8 8 8 8 8 8 8 8 8 8 8 8 8 8 8 7 7 8 7 8 7 7 7 7 7 7 7 6 8
8 8 8 8 8 8 8 8 8 8 8 8 8 8 8 8 8 8 8 8 8 9 8 8 8 9 9 8 8 8 9 9 9 9 9 9 9 9 9 9 9 9 9 9 9 9 9 9 9 8 9 8 8 8 9 8 8 9 8 8 8 8 8 7 8 8 8 8 7 7 7 7 7 7 7 6 7 7 7 9
8 7 7 8 8 8 7 8 7 8 8 8 8 8 8 8 8 8 8 8 8 8 8 8 8 8 8 8 8 8 8 8 9 8 9 8 9 9 9 8 9 9 9 9 9 8 8 8 8 8 8 8 8 8 8 8 8 8 8 7 8 8 7 7 7 8 7 7 7 7 6 6 7 7 6 6 6 6 7 8
7 6 7 6 7 7 7 7 6 7 7 7 6 7 6 7 7 7 7 7 7 7 7 6 7 7 6 7 7 7 7 7 7 7 7 7 7 7 7 6 7 7 7 7 7 6 5 6 6 5 5 6 6 6 5 6 7 6 6 6 6 6 6 5 6 6 6 6 6 6 6 4 5 6 5 5 4 3 4 7
8 6 6 7 7 7 7 7 7 7 7 7 6 7 6 7 7 6 7 7 6 7 7 7 7 6 6 6 7 6 6 7 7 7 6 7 7 7 7 7 6 7 6 6 6 6 6 6 6 6 5 5 6 6 5 6 5 6 6 5 5 5 5 6 5 5 6 6 6 5 4 5 4 3 4 5 5 3 3 6
7 6 6 7 7 6 6 7 7 6 7 6 7 7 7 7 7 7 7 7 6 6 7 7 7 6 7 6 6 7 6 6 7 7 6 6 6 6 6 7 6 7 6 6 6 6 6 7 6 7 6 5 5 5 5 6 6 6 6 6 6 5 6 5 5 6 5 4 5 5 4 5 5 4 4 4 4 4 3 8
7 7 7 7 7 7 7 7 7 7 7 7 7 7 7 7 7 7 7 7 8 7 7 7 7 7 7 7 7 8 8 7 6 8 7 7 7 7 7 7 8 7 7 7 7 6 7 7 7 7 6 7 7 7 7 6 6 7 7 7 6 5 6 6 6 6 6 5 5 6 6 6 5 5 5 5 5 6 5 8
8 8 8 8 8 8 8 8 8 7 8 7 8 8 8 8 8 8 8 8 8 8 8 8 8 8 8 8 8 8 9 9 9 9 9 9 9 9 8 9 9 9 9 9 9 9 9 9 9 8 8 8 8 8 8 9 8 9 8 8 8 7 8 8 8 8 7 7 7 8 7 7 7 7 7 7 7 6 6 9
8 8 8 8 8 8 7 8 7 8 8 8 8 8 8 8 8 8 8 8 8 8 8 8 8 8 8 8 8 8 8 9 9 9 9 9 9 9 8 9 8 9 9 9 9 8 8 9 9 9 8 8 8 8 7 9 8 8 8 8 8 7 8 8 8 7 7 8 7 7 7 7 7 7 7 7 7 7 6 9
8 7 7 7 7 7 7 7 7 6 7 7 7 7 7 7 7 8 7 7 7 7 7 8 8 7 7 8 7 8 8 8 8 8 8 8 8 8 8 7 7 7 7 8 7 8 7 7 7 8 7 7 7 7 7 7 8 7 7 7 7 7 6 6 6 7 6 6 6 7 7 6 5 5 5 5 5 6 5 8
7 6 6 6 6 6 6 7 7 6 7 6 5 6 6 7 6 6 6 6 6 6 5 6 7 6 6 6 6 6 6 6 6 5 6 6 6 6 6 5 6 6 5 5 5 5 5 6 5 5 5 5 5 5 4 6 4 5 5 5 4 4 4 4 5 6 4 5 5 5 5 4 4 4 3 3 4 3 2 6
6 7 7 6 6 6 7 7 6 6 6 6 6 6 6 7 7 6 5 7 6 6 6 6 6 6 7 6 6 6 6 6 7 5 6 6 5 6 6 6 6 6 6 6 6 7 5 5 5 6 6 5 5 5 5 5 6 5 5 5 4 6 6 6 5 4 5 5 4 5 4 5 4 4 5 4 3 4 3 6
6 7 6 6 7 7 7 7 6 7 7 6 6 6 7 6 7 6 6 7 7 6 7 6 6 6 7 6 5 6 6 6 7 5 5 5 6 6 6 6 6 6 6 7 6 7 6 5 6 6 6 6 6 5 6 5 5 6 6 5 5 5 6 5 5 5 5 5 5 5 5 4 3 4 4 4 4 3 3 7
8 7 7 7 7 7 7 7 7 7 7 7 7 7 7 8 8 8 7 8 8 7 7 7 8 8 8 7 7 7 8 8 8 8 8 7 8 8 7 7 7 8 7 7 7 8 8 7 8 7 8 8 7 7 7 7 7 7 7 7 7 6 7 7 7 7 6 7 7 6 7 6 6 6 6 6 6 6 6 8
8 8 8 8 8 8 7 7 7 7 8 7 7 7 8 8 8 7 8 7 8 8 8 7 8 8 8 8 8 8 8 8 8 8 8 8 8 9 8 8 8 8 8 8 8 8 8 8 8 8 8 7 7 8 8 8 7 7 7 8 8 7 7 7 7 7 7 7 7 7 7 7 7 6 6 7 7 6 7 8
8 7 8 8 7 7 7 8 7 8 8 7 7 7 8 7 7 7 7 7 7 8 7 8 8 8 8 8 8 8 8 8 8 8 8 8 8 8 8 8 8 8 8 8 8 8 8 8 8 8 7 7 7 8 8 7 7 8 7 8 7 7 8 8 7 7 8 7 7 7 7 7 7 6 7 6 7 7 7 9
8 6 6 7 7 7 7 7 7 7 7 7 7 7 7 7 7 7 7 7 7 7 7 7 7 7 7 7 7 7 6 7 7 7 8 6 6 7 7 7 7 7 7 6 6 7 6 6 6 6 7 6 6 6 7 6 7 6 7 6 7 7 7 6 6 7 6 6 5 6 7 6 6 6 6 5 6 5 5 8
7 6 6 7 7 7 7 6 6 6 7 7 7 6 6 7 7 7 7 7 7 7 6 6 7 7 7 7 6 7 6 7 6 6 6 6 6 6 6 6 7 6 6 7 6 6 7 6 6 6 6 6 5 6 6 6 5 6 6 6 6 5 5 4 5 6 5 5 4 5 5 5 5 4 4 5 4 3 3 7
7 6 6 7 7 7 7 7 6 7 7 7 7 7 7 7 7 7 7 7 6 7 6 7 6 6 6 6 6 6 6 7 7 7 6 7 7 6 6 7 6 6 7 7 6 6 6 7 6 7 6 6 6 7 6 6 5 5 6 6 6 5 5 6 6 6 5 5 6 5 5 5 4 5 4 4 4 5 4 7
7 6 6 7 6 7 6 7 7 7 7 7 7 6 7 7 7 6 6 6 6 6 7 6 6 6 7 7 5 6 6 7 6 7 6 6 7 7 6 6 5 6 6 6 5 6 6 6 6 6 6 6 5 5 5 6 6 5 6 5 4 4 4 5 5 5 5 5 5 5 5 5 4 4 4 3 4 5 4 8
8 7 7 7 7 7 7 7 7 7 7 7 7 7 7 7 7 7 7 7 7 7 7 7 6 8 7 7 7 8 7 7 8 8 7 7 8 8 8 8 8 8 7 8 7 8 7 7 7 7 7 7 7 7 7 7 7 7 7 6 7 7 6 6 6 6 6 6 6 6 6 6 6 6 6 6 5 6 5 8
8 7 7 7 7 7 8 7 7 7 8 7 7 7 7 8 7 8 8 7 7 7 7 7 7 8 8 7 7 7 7 8 8 8 8 7 8 8 8 8 8 7 8 8 7 7 7 7 7 8 7 7 7 7 7 7 7 7 7 6 6 6 7 7 7 7 7 7 6 6 7 7 7 6 6 6 5 6 6 7
8 8 7 7 7 6 7 7 6 7 7 8 8 7 7 8 7 8 7 8 7 7 7 7 7 7 7 8 7 7 8 8 8 8 8 7 8 7 8 7 7 8 7 8 8 7 8 8 7 7 7 7 7 7 7 7 7 7 7 7 7 7 7 7 7 7 6 7 7 7 7 7 6 7 7 6 7 6 5 8
8 7 7 7 7 7 7 7 6 6 7 7 7 7 6 7 7 6 6 6 7 7 7 7 7 6 6 6 6 7 7 7 7 7 6 7 7 6 7 7 7 6 6 6 6 7 6 6 6 6 6 6 6 6 7 7 6 5 5 6 5 6 6 5 5 6 6 5 6 6 5 6 5 5 6 4 5 5 3 7
8 7 7 7 7 6 6 6 6 6 6 7 6 7 7 7 7 7 7 7 7 7 7 7 7 7 7 6 7 6 6 6 7 7 6 5 6 7 7 6 6 6 5 5 6 6 6 5 6 6 6 6 6 5 6 5 5 6 5 5 4 4 6 5 5 6 5 5 5 6 4 5 5 5 5 3 4 3 2 6
7 6 7 6 7 6 6 7 6 6 6 7 6 7 6 6 6 7 7 7 6 6 7 6 6 6 6 6 6 6 6 6 6 6 6 6 6 6 5 5 6 6 6 6 6 6 5 5 5 5 5 5 5 5 6 5 5 4 5 5 5 6 6 4 4 5 4 4 4 4 4 3 3 4 3 3 4 3 3 6
7 7 7 7 6 7 6 7 7 7 7 7 7 7 7 6 6 7 7 7 6 7 7 6 6 7 6 7 6 7 6 6 7 6 5 6 7 7 5 6 6 6 6 6 6 6 6 6 5 5 6 5 6 6 6 5 6 5 5 5 5 6 6 6 5 6 5 6 5 4 4 5 4 4 5 4 4 4 4 7
9 8 7 7 7 8 7 7 7 7 7 7 7 8 7 8 7 7 7 8 7 7 8 7 7 7 7 7 7 8 7 7 8 7 8 8 8 8 8 8 7 7 7 8 8 7 7 7 7 6 7 6 7 7 5 6 7 7 7 7 7 7 7 7 7 7 6 6 7 6 6 7 6 7 6 5 6 6 4 8
10 8 7 7 7 7 7 7 7 7 7 7 8 8 7 8 7 7 7 7 7 7 8 7 7 7 7 7 6 7 7 7 8 7 7 7 8 7 7 7 7 7 7 7 7 7 7 7 7 7 7 7 7 7 6 6 7 7 7 7 7 7 7 7 7 7 6 7 7 7 7 7 6 7 6 6 6 7 5 8
9 8 7 7 7 7 7 7 7 7 7 7 7 8 6 7 7 7 7 7 7 6 7 7 7 7 7 6 7 6 6 7 7 7 7 7 7 7 7 6 7 7 7 7 7 7 6 7 6 7 6 6 7 7 7 7 6 6 7 7 6 6 6 6 7 6 5 7 6 6 6 6 6 6 6 6 5 5 5 8
8 7 7 7 5 5 7 6 6 5 6 6 6 7 6 7 7 6 7 6 6 7 6 7 7 6 6 6 6 6 5 6 6 6 6 5 5 6 6 5 5 6 5 6 5 5 5 5 4 5 5 5 6 6 5 5 4 3 4 4 4 3 4 4 5 5 5 5 5 4 3 4 2 3 3 3 3 2 1 4
8 7 6 5 6 6 5 6 7 6 7 7 7 6 6 7 7 7 7 7 7 6 7 7 6 6 6 6 5 6 5 6 6 6 6 6 6 6 6 6 6 6 5 6 6 5 6 5 4 5 6 4 4 5 5 4 4 4 5 6 5 5 5 5 5 5 4 5 5 4 4 5 4 3 3 3 3 4 4 29
