P2
80 80
255
31 12 8 8 8 7 7 8 8 8 8 8 7 7 7 7 7 7 7 7 6 7 8 7 7 8 8 8 8 8 8 7 8 8 8 8 8 8 7 8 8 7 7 8 8 7 7 7 7 7 7 8 7 7 7 8 9 8 7 6 7 6 7 7 7 7 7 6 6 7 6 6 5 5 5 5 5 5 4 8
5 6 7 7 7 6 6 6 6 6 6 7 6 6 6 6 6 6 6 5 6 6 6 5 5 7 7 7 7 6 6 5 6 6 5 6 6 6 5 4 5 5 5 6 6 5 5 5 6 6 5 4 3 4 4 4 4 4 3 4 5 4 3 3 4 4 4 4 3 3 3 3 2 3 3 2 3 2 1 6
7 7 6 7 7 6 7 6 5 5 6 6 5 7 6 7 6 6 6 6 7 6 6 7 6 6 8 6 6 6 5 5 6 5 5 5 6 6 6 5 6 6 5 5 5 6 6 6 5 6 5 5 4 5 5 5 4 4 5 5 5 5 4 4 5 5 4 5 3 3 3 3 3 4 4 3 4 2 1 6
7 7 7 7 7 7 7 7 6 5 6 6 5 7 6 6 6 6 6 7 6 7 6 7 6 7 8 7 6 6 6 6 6 7 6 6 7 6 6 5 6 6 5 5 6 6 6 6 5 6 6 6 5 6 5 5 5 5 4 5 5 4 4 4 4 5 5 4 4 4 4 3 4 4 3 3 3 3 2 6
8 7 7 7 7 7 7 6 7 6 6 6 7 6 7 7 6 7 7 7 7 7 6 7 7 7 8 7 7 7 7 7 7 8 7 7 7 8 7 7 7 7 7 7 7 7 7 7 6 7 7 7 6 7 6 6 6 6 6 6 6 6 5 6 5 7 6 5 6 6 5 5 5 6 6 5 6 5 4 8
8 7 7 7 7 7 7 6 7 7 7 6 6 7 7 7 7 6 7 7 7 7 7 7 7 7 7 7 7 7 7 7 7 8 7 7 8 8 8 7 8 8 8 8 7 8 7 7 7 7 8 7 7 7 7 7 7 6 7 7 7 7 7 6 7 7 7 7 7 7 7 7 6 6 6 6 6 6 6 8
8 7 7 7 7 7 7 7 7 7 7 6 6 7 7 7 7 7 7 7 7 7 7 7 7 8 7 7 8 8 7 7 7 7 7 8 8 8 8 8 8 7 8 8 8 7 8 7 8 8 8 7 7 7 7 7 7 7 7 8 7 7 7 7 7 7 7 7 6 7 7 6 6 6 6 6 6 6 5 8
7 7 7 7 7 7 7 6 7 7 7 7 6 6 7 7 7 7 7 7 7 6 6 7 7 7 7 6 5 7 7 7 7 7 7 6 7 6 6 7 6 6 7 7 7 7 6 7 7 6 6 6 6 6 6 7 6 6 6 7 6 5 5 5 6 6 5 4 6 6 4 5 5 5 5 4 4 4 3 7
8 7 7 7 7 6 7 7 7 7 6 6 6 5 6 6 7 7 7 6 6 7 7 7 6 7 7 6 6 7 6 6 7 6 6 7 6 6 7 6 5 6 6 7 6 6 5 6 4 5 6 6 5 5 5 6 5 5 5 5 5 6 6 6 4 5 5 5 6 4 4 5 4 5 3 4 3 3 3 6
7 7 7 7 7 7 7 7 7 7 7 6 7 7 7 6 7 7 7 7 7 7 6 7 7 6 6 6 7 6 6 6 6 7 7 6 6 7 7 6 6 6 6 6 6 6 5 5 5 6 6 5 6 6 6 6 5 6 6 5 5 5 5 5 5 5 5 5 6 5 4 5 4 5 4 4 3 4 3 7
7 7 7 7 6 7 7 6 7 6 6 7 6 6 7 7 7 6 6 7 7 6 7 7 7 6 6 6 6 7 6 7 6 6 7 6 6 7 6 6 6 6 5 6 6 6 6 5 5 5 6 6 6 5 5 5 5 5 4 3 4 6 6 6 6 5 5 5 5 5 5 5 4 4 4 4 4 4 3 7
8 7 7 7 7 7 7 7 7 7 7 7 7 7 7 7 7 7 7 8 7 7 8 8 7 8 8 7 7 8 8 8 7 7 8 7 8 8 8 8 8 8 8 8 8 8 8 7 7 8 7 7 7 7 7 7 7 7 7 7 7 7 7 7 7 7 7 7 6 7 7 7 7 7 7 7 6 6 6 8
7 7 7 7 7 7 7 7 6 7 7 7 7 7 8 8 8 7 7 8 8 8 7 8 7 7 8 7 8 8 8 8 8 8 8 8 8 8 8 8 8 8 7 8 8 8 8 8 8 8 8 7 8 7 7 7 8 8 7 7 7 7 7 7 7 7 7 7 7 7 7 7 7 7 6 7 7 6 6 9
7 7 7 7 7 7 7 7 7 8 7 7 7 8 8 8 7 8 8 8 8 8 8 7 7 8 8 7 8 8 8 8 8 8 8 8 8 7 8 8 8 8 8 8 8 8 8 7 7 8 8 7 8 7 7 7 8 7 7 8 7 7 7 6 7 7 7 7 7 7 7 7 7 6 5 7 7 6 6 8
7 7 6 7 7 7 7 7 7 7 7 7 7 7 7 7 7 7 7 7 7 7 7 7 7 7 6 7 6 6 7 7 7 7 7 7 7 7 7 7 7 7 7 7 6 7 6 5 6 6 6 6 6 6 6 5 5 6 6 6 5 6 6 5 6 6 5 5 5 6 6 5 5 4 6 4 5 4 4 7
7 7 7 7 6 6 7 7 7 6 7 6 7 7 7 7 7 6 6 7 7 6 7 6 6 7 7 6 6 6 7 6 6 6 7 6 6 7 7 6 5 6 6 5 5 6 5 7 7 6 5 5 6 6 6 5 5 6 5 5 5 6 6 5 7 5 5 5 4 5 5 6 5 4 4 4 3 3 4 7
7 7 7 7 7 6 7 6 7 6 7 7 6 6 7 7 6 6 7 6 6 7 7 6 6 7 6 6 5 6 6 6 6 7 6 6 6 6 5 4 5 6 5 5 5 6 5 6 6 5 6 6 6 6 6 5 4 5 6 6 5 5 5 4 6 5 4 4 5 3 4 5 4 4 3 4 3 3 2 7
8 6 7 7 7 7 6 7 7 6 7 7 7 7 7 7 7 7 8 7 7 7 7 7 7 7 7 8 6 7 7 7 7 7 7 7 7 7 7 6 7 7 7 7 6 6 7 7 7 7 6 6 7 6 6 5 6 6 7 7 6 5 6 6 7 6 6 7 5 6 6 5 6 6 5 4 4 4 4 7
8 7 8 7 8 8 8 8 8 8 7 8 7 8 8 8 8 8 8 8 8 8 8 8 8 8 8 8 8 8 8 8 8 8 9 8 8 8 8 9 8 8 8 8 8 8 8 8 8 8 8 7 8 8 8 8 8 8 7 7 8 8 8 7 8 7 7 8 7 7 7 8 7 7 7 6 7 6 6 8
8 7 7 8 7 8 8 8 8 7 7 7 8 8 8 8 8 8 8 8 8 8 8 8 7 8 8 8 8 8 8 8 8 8 8 8 8 8 8 8 8 8 8 8 8 8 8 8 8 8 8 8 8 8 8 8 8 8 8 8 7 8 7 7 8 7 6 7 7 7 7 7 6 7 7 7 7 6 6 8
8 7 7 8 7 7 8 8 7 8 8 8 7 8 8 7 8 8 8 8 7 8 8 8 8 8 8 8 8 8 8 8 8 8 8 8 8 8 8 8 8 8 8 8 8 8 8 8 8 8 8 8 8 8 8 7 6 7 7 7 7 7 7 7 7 7 7 7 7 6 7 7 6 7 7 6 6 6 5 8
7 6 7 7 6 6 6 7 7 7 7 7 7 7 7 6 7 7 7 7 6 7 7 7 7 7 6 6 7 7 7 7 7 6 6 7 7 7 6 5 6 7 6 7 7 6 6 6 6 7 6 5 5 5 6 6 5 6 6 6 6 6 6 5 6 5 5 5 6 6 5 5 4 4 4 4 4 3 2 6
7 6 7 7 7 7 7 7 7 7 7 7 7 7 7 7 7 7 7 7 7 7 6 6 7 7 7 7 7 7 6 7 6 6 6 7 7 7 7 5 5 6 7 6 5 7 6 6 6 6 6 6 6 5 5 6 6 6 6 6 6 6 6 6 5 5 5 5 4 5 5 5 5 5 4 4 3 2 2 6
8 7 7 7 7 7 7 7 6 6 7 7 7 7 7 7 7 7 7 7 7 7 7 7 7 7 7 7 7 7 7 7 7 7 7 6 6 7 7 5 6 7 6 7 6 6 5 6 6 6 6 6 6 6 6 6 5 6 6 7 6 6 6 6 6 6 5 6 5 5 5 6 5 5 5 4 4 3 3 7
8 7 7 7 7 8 7 8 7 7 8 7 7 8 8 8 7 8 7 8 7 7 7 8 7 8 7 8 8 7 7 7 8 7 7 8 8 8 8 8 8 7 7 8 8 7 7 7 7 6 7 7 7 7 7 7 7 7 7 7 7 7 7 7 6 6 7 7 6 6 6 5 6 6 5 5 5 4 3 7
9 8 8 8 8 8 8 8 8 8 8 8 8 8 8 9 8 8 8 8 9 8 8 8 8 8 8 9 8 9 8 9 9 9 9 9 9 9 9 9 9 9 9 9 8 9 9 8 9 8 9 8 8 8 8 8 8 8 8 8 8 8 8 8 7 8 7 7 7 8 8 7 8 7 6 7 7 6 4 7
9 8 8 8 8 8 8 8 8 8 8 8 8 8 8 8 8 8 8 8 9 9 9 8 8 7 8 8 8 9 8 8 8 9 9 9 9 9 9 9 9 9 9 9 8 9 8 8 9 9 9 9 9 8 8 8 8 8 8 8 8 8 8 8 8 8 7 8 7 7 7 7 7 7 6 6 6 6 5 7
8 7 8 8 8 8 8 7 8 7 7 7 7 7 8 8 8 8 8 8 8 8 8 7 7 8 8 8 8 8 8 8 7 8 9 8 8 8 8 8 8 8 8 8 8 8 8 7 8 7 6 7 8 8 7 8 7 7 7 7 7 7 7 7 7 7 7 6 6 6 7 6 6 6 6 5 5 4 4 7
7 7 7 7 7 7 7 7 7 7 7 7 7 7 7 7 7 7 6 7 7 7 7 7 6 7 6 6 6 6 6 7 7 7 7 7 7 7 6 6 6 6 6 7 6 6 6 6 6 6 5 7 7 7 6 6 6 6 6 5 5 5 5 4 6 6 4 5 5 5 5 5 4 4 5 4 5 3 3 7
8 7 7 7 6 7 7 7 7 6 6 7 7 7 7 7 7 7 7 7 7 6 6 6 6 6 7 7 7 7 7 7 7 7 5 7 7 7 7 7 7 6 5 6 6 7 6 6 6 6 7 7 8 8 10 7 6 6 6 5 6 6 5 5 5 6 5 5 5 5 5 6 6 5 5 4 4 4 2 6
8 7 7 7 7 7 7 7 7 7 6 6 6 6 7 7 7 7 7 7 7 7 7 7 6 7 7 7 7 7 7 6 7 12 45 17 7 7 7 6 7 6 6 7 6 7 7 6 6 7 6 6 7 102 46 4 6 7 7 6 6 6 6 5 5 6 6 6 5 5 4 5 4 4 4 4 4 3 3 7
8 7 8 8 8 8 8 8 8 8 8 8 8 8 8 8 8 8 8 8 8 8 8 8 8 8 8 8 8 8 8 8 8 19 137 39 7 8 8 9 9 8 8 8 9 9 9 8 8 8 8 8 9 48 28 8 8 8 8 7 8 8 7 7 8 7 7 7 7 7 7 7 6 6 7 7 6 5 6 8
8 8 8 8 8 8 8 8 8 8 8 8 8 8 8 9 8 8 9 8 8 8 9 9 9 9 9 9 8 9 9 9 9 12 19 15 10 9 9 10 10 9 8 9 9 9 9 9 9 9 9 9 9 7 9 9 8 8 9 8 8 8 8 8 8 8 8 8 8 7 8 7 7 8 8 8 8 7 6 9
8 8 8 8 8 8 8 8 8 8 8 8 8 9 8 9 8 8 8 8 9 9 9 8 9 9 9 8 9 9 9 9 9 9 9 9 9 9 9 9 9 9 8 9 9 9 9 9 9 9 9 9 9 8 9 9 8 8 9 9 8 8 8 8 8 8 8 8 8 7 8 8 8 7 7 8 7 7 6 9
8 7 7 7 7 7 7 7 7 7 7 8 7 7 7 7 7 7 7 7 8 7 7 8 7 7 8 7 7 8 7 8 7 7 7 7 8 8 8 8 8 7 7 8 7 8 7 7 7 7 7 7 7 7 6 7 6 6 7 7 7 7 7 6 6 6 7 7 6 6 6 6 6 5 6 5 6 5 4 7
8 7 7 7 7 6 7 7 7 7 7 7 6 7 7 7 6 7 7 7 7 7 7 7 7 7 7 6 6 7 6 7 7 6 7 6 6 7 7 7 7 7 6 6 6 7 6 5 7 6 6 6 5 6 6 6 6 5 6 5 6 6 6 5 5 6 4 4 5 5 5 6 4 4 5 4 4 5 4 7
8 7 7 7 6 6 7 7 7 6 6 6 7 7 6 6 7 7 6 7 6 6 7 7 6 6 7 7 7 7 6 7 6 7 6 7 7 6 7 7 7 6 6 6 6 6 5 5 6 7 6 5 6 6 5 6 6 7 7 5 5 6 6 5 5 5 4 4 5 4 4 6 5 5 5 3 3 4 4 7
7 7 7 7 7 7 7 7 7 6 7 7 6 8 7 7 7 7 7 7 7 7 7 7 7 7 7 7 7 7 7 7 7 7 7 7 7 7 7 6 7 7 7 7 7 7 7 6 6 7 7 6 6 7 7 6 6 7 7 7 6 6 7 6 6 6 5 6 5 6 5 6 6 6 5 5 5 4 3 7
8 7 7 8 8 8 8 8 8 8 8 8 8 8 8 8 8 8 8 8 8 8 8 8 8 9 9 9 8 9 9 9 9 9 9 9 9 9 9 9 9 9 9 9 9 9 9 9 9 9 9 8 9 8 8 8 8 8 8 8 8 8 8 8 8 7 8 8 7 8 7 7 7 7 7 7 7 7 6 8
9 8 8 8 8 8 8 8 8 8 8 8 8 8 8 8 8 8 8 8 8 8 9 8 8 8 9 9 9 9 8 9 9 9 9 9 9 9 9 9 9 9 9 9 9 9 9 9 9 9 9 9 9 9 9 8 8 8 9 8 8 8 8 8 8 8 8 8 8 8 8 8 7 8 8 7 7 7 7 9
8 8 8 8 8 8 8 8 8 8 8 8 8 8 8 8 8 8 8 8 8 8 8 8 8 8 8 9 9 8 8 9 9 9 9 9 9 9 9 9 9 9 9 9 9 9 9 8 9 9 9 8 9 9 9 9 8 8 8 9 8 8 8 8 8 8 8 7 8 7 8 8 7 8 7 7 7 7 7 8
8 7 7 7 7 7 7 7 7 7 7 7 6 7 7 7 7 7 7 6 7 7 7 7 7 7 7 7 7 7 7 7 7 7 7 7 7 7 7 7 7 7 7 7 6 7 7 6 7 7 7 6 6 6 5 7 7 7 7 7 7 6 7 5 6 5 4 5 5 5 5 6 5 6 4 4 4 4 4 7
8 7 7 7 7 7 6 7 7 7 6 7 7 7 7 6 7 7 7 7 7 7 7 7 6 6 7 6 6 7 6 7 6 7 6 6 7 7 7 7 7 7 7 6 6 7 7 6 6 7 7 7 6 7 6 6 6 7 6 6 6 5 7 6 6 5 5 6 5 6 5 6 4 5 5 4 4 4 4 7
7 6 7 6 6 7 7 7 7 7 6 7 7 6 6 7 7 7 6 6 6 6 6 7 7 7 6 7 6 7 7 6 6 6 5 6 6 7 6 7 6 6 6 6 6 6 6 6 6 6 6 6 6 6 6 6 4 6 6 5 5 5 5 5 4 4 5 5 4 5 5 6 5 5 3 4 4 3 3 6
8 7 8 7 7 7 7 8 7 7 7 7 8 7 7 7 7 7 7 7 7 7 7 7 8 7 7 7 7 7 7 7 7 8 7 7 7 7 7 7 7 7 7 7 7 7 7 7 7 6 7 6 7 6 7 7 6 6 7 6 6 6 7 4 5 5 5 6 6 6 5 6 5 5 5 6 5 5 5 7
8 8 8 8 8 8 8 8 8 8 8 8 8 8 8 8 8 8 9 8 8 8 9 9 9 8 8 8 8 8 9 9 9 9 9 9 9 9 9 9 9 9 9 9 9 9 9 9 9 9 9 9 9 9 9 8 8 8 8 9 8 8 8 8 8 8 8 8 8 7 7 7 8 8 7 8 7 7 7 9
9 8 8 8 8 8 8 8 8 8 8 8 8 8 8 8 8 8 8 8 8 8 9 9 8 9 9 9 8 8 8 9 9 9 9 9 9 9 9 9 9 9 9 9 9 9 9 9 9 9 9 9 9 9 9 9 8 9 9 8 7 8 8 8 8 8 8 7 7 8 7 8 7 7 8 7 7 7 7 8
8 8 7 8 8 8 8 8 8 8 7 8 8 8 8 8 8 8 8 8 8 8 8 8 8 8 8 9 8 9 8 8 8 9 8 9 8 9 9 8 8 9 8 9 8 8 9 9 9 9 8 8 8 9 7 8 8 8 8 8 7 7 7 8 8 7 8 7 7 7 7 7 7 7 6 5 7 7 6 8
8 7 7 7 7 7 7 7 7 7 6 6 7 7 7 7 6 7 7 6 7 7 7 7 7 7 7 7 6 7 7 7 7 7 8 6 7 7 7 6 7 7 7 7 6 6 7 7 6 6 7 7 8 10 18 12 7 6 6 7 7 5 5 5 5 6 5 5 6 4 4 4 5 4 4 4 4 3 3 7
8 7 7 7 7 7 6 7 7 7 6 6 7 7 7 6 6 6 7 6 7 7 7 7 7 7 7 7 7 7 7 7 8 7 12 21 10 8 8 8 8 7 7 8 7 8 8 7 7 7 7 7 7 10 118 45 5 7 7 6 6 7 5 4 4 5 5 6 5 4 5 4 4 4 3 4 3 3 4 7
8 7 7 7 6 7 6 7 7 7 6 7 6 7 7 7 6 7 7 7 6 7 7 7 7 7 7 7 7 7 6 6 7 6 32 133 19 7 7 6 7 7 7 7 6 6 6 6 6 7 7 7 7 9 27 15 8 7 6 6 7 6 7 6 5 6 6 4 5 5 6 6 5 4 4 3 4 4 4 7
8 7 8 7 7 8 7 8 7 7 8 7 7 7 8 7 7 7 7 8 8 8 7 7 8 8 8 8 7 7 7 8 8 8 14 30 12 7 8 8 8 8 7 8 7 7 7 7 7 7 8 7 7 8 7 8 7 7 7 7 7 7 7 7 7 7 5 5 7 7 7 6 6 6 6 5 5 5 4 7
9 8 8 8 8 8 8 8 8 8 8 8 8 8 8 8 8 8 8 8 8 8 8 8 8 9 8 8 9 8 8 9 9 9 9 8 9 9 9 8 9 9 9 9 9 9 8 9 9 8 9 9 9 9 9 8 8 8 8 8 8 8 8 8 8 8 8 8 7 8 7 7 7 7 7 7 7 6 6 8
8 7 8 8 8 8 8 8 7 8 8 8 8 8 8 8 8 8 8 8 7 8 8 8 8 8 8 8 8 8 9 8 8 9 9 9 9 9 9 9 9 8 9 9 9 9 8 9 9 8 8 8 8 8 8 8 8 8 8 8 8 8 8 8 8 8 8 8 8 7 7 7 6 7 6 7 7 7 7 9
8 7 7 8 7 7 7 8 7 7 7 7 7 7 7 8 7 8 8 7 8 7 7 7 7 7 7 8 7 7 8 8 7 7 8 7 7 8 8 8 8 8 8 8 7 7 7 7 7 8 7 7 7 7 7 7 7 7 8 6 7 7 7 7 7 7 6 6 7 6 6 6 6 7 5 5 6 5 5 8
7 7 7 7 7 7 7 7 7 7 6 6 7 7 7 7 7 7 7 7 7 7 7 6 6 7 7 7 7 7 7 7 6 6 7 6 5 7 6 6 7 6 6 6 5 6 6 6 6 6 7 7 7 6 6 7 6 6 6 6 6 6 6 6 7 6 5 5 6 6 6 5 5 6 5 6 5 4 3 7
7 7 7 7 7 7 7 7 7 6 6 6 6 7 7 7 7 7 7 7 7 7 7 7 7 7 7 7 6 7 6 6 6 7 7 7 6 6 6 6 7 6 7 6 6 7 6 6 6 6 6 6 7 6 5 6 5 6 5 5 6 6 6 5 5 6 5 4 4 5 4 5 5 5 4 4 5 5 4 6
7 7 5 6 7 7 6 7 7 7 7 6 7 7 7 7 7 7 7 6 6 7 7 7 7 7 6 7 7 7 7 6 7 7 7 6 7 7 6 6 6 6 7 6 6 6 7 7 7 5 6 5 6 7 6 7 6 6 6 6 7 7 5 5 6 6 5 4 5 5 5 6 5 5 4 3 5 4 5 7
8 7 8 8 8 8 7 7 8 7 7 7 7 8 8 8 8 7 7 7 7 8 8 8 8 8 7 8 8 8 8 8 8 7 7 8 8 8 8 7 7 8 8 8 8 8 8 7 7 7 8 7 7 7 7 8 7 8 7 7 7 7 7 7 7 7 7 6 5 7 6 7 6 6 6 5 6 5 6 8
8 8 8 7 7 8 8 8 8 8 8 8 8 8 8 7 7 7 7 8 8 8 8 8 8 8 8 8 7 8 8 8 8 8 8 8 8 9 8 8 8 8 8 9 8 8 8 8 7 7 7 7 8 8 8 8 7 8 8 8 8 8 8 7 7 8 7 7 7 7 7 7 7 7 7 6 6 6 7 8
8 8 8 7 7 7 7 7 7 8 8 8 8 8 7 8 8 8 8 8 7 8 8 8 8 8 8 8 7 8 8 8 8 9 8 8 8 8 8 8 8 8 8 9 8 8 8 8 8 8 8 7 8 8 8 8 8 8 8 8 7 8 7 7 8 7 7 7 8 7 7 7 7 7 6 6 6 6 7 9
7 7 7 7 7 7 7 7 7 7 7 6 7 6 6 7 7 7 7 7 7 7 7 7 7 7 7 7 7 7 7 7 7 7 7 7 7 7 7 7 7 7 7 7 7 7 7 7 7 7 7 7 7 7 7 6 7 6 7 7 7 7 7 6 6 6 6 6 6 6 6 6 6 6 5 5 5 5 5 8
7 7 7 7 7 7 6 7 6 6 7 6 6 7 7 7 7 7 6 6 7 7 6 7 6 7 7 7 7 7 6 6 6 7 6 6 6 6 7 6 6 6 6 6 6 6 6 6 6 6 6 6 6 6 5 5 6 6 6 6 5 5 6 5 5 5 5 6 5 6 5 5 4 4 5 4 4 4 4 6
8 7 7 7 7 7 7 7 7 7 7 7 6 7 7 6 6 7 7 7 6 7 7 7 7 6 7 7 6 6 6 7 7 7 6 7 7 7 7 6 7 7 7 6 6 6 6 6 6 6 6 5 6 7 6 6 6 6 7 6 5 6 6 5 6 6 5 5 5 6 6 6 6 5 6 4 5 4 4 7
7 7 6 6 7 7 7 7 7 7 7 7 7 6 7 6 7 7 7 7 7 7 7 7 7 7 7 7 6 7 6 6 7 7 7 7 7 7 7 6 7 7 7 6 7 7 6 6 6 6 6 5 6 6 7 6 6 6 6 6 6 6 6 6 7 6 5 5 5 6 6 6 6 5 4 4 5 4 5 7
8 7 8 8 7 8 7 7 8 7 7 7 7 7 8 7 7 8 8 8 8 7 7 8 8 8 8 8 8 8 8 8 8 8 8 8 8 8 8 7 8 8 8 8 8 7 7 8 8 8 7 7 7 7 8 7 8 7 8 7 7 7 7 7 7 8 7 7 7 7 7 6 6 6 7 6 7 7 7 8
8 7 7 7 8 8 7 8 7 8 8 7 7 8 8 8 8 8 8 8 8 8 8 8 8 8 8 8 8 8 8 8 8 8 8 8 9 8 8 8 8 8 8 8 8 8 8 8 8 8 8 8 8 8 7 8 8 8 8 8 8 8 8 8 7 7 7 7 7 7 7 7 7 7 7 7 6 7 6 9
8 7 7 7 7 7 7 7 8 7 7 7 7 8 7 7 7 8 7 8 7 7 7 7 8 8 8 8 8 8 8 8 7 8 8 8 8 8 8 8 8 8 8 8 7 8 8 7 7 7 8 7 7 8 7 7 7 7 7 7 7 7 8 7 7 7 8 7 7 7 6 6 6 5 6 7 6 6 6 8
7 7 6 7 6 7 7 6 7 7 6 6 6 6 7 6 6 7 7 6 6 6 7 7 7 7 6 7 6 6 7 6 6 7 7 6 6 7 6 6 7 7 6 6 7 7 7 6 5 5 6 6 5 6 5 5 6 6 6 6 7 6 6 6 6 6 6 5 6 5 5 6 5 4 4 4 3 3 3 7
8 7 7 6 6 7 7 7 7 7 6 7 7 7 7 7 7 7 7 6 6 7 7 6 6 7 7 7 7 6 6 7 6 6 6 6 6 7 7 6 6 6 6 6 7 6 7 6 5 6 6 5 5 6 5 6 5 6 6 5 6 6 6 5 4 5 6 6 5 5 4 6 5 4 5 3 3 3 2 7
8 6 7 7 6 6 6 7 7 6 7 7 7 7 7 7 7 6 6 7 6 5 6 6 6 7 6 5 7 6 6 7 7 6 6 6 5 7 6 5 6 5 5 6 6 5 5 5 6 5 4 5 5 5 6 6 4 5 6 4 5 5 4 4 5 5 5 4 3 4 4 4 4 5 4 4 4 4 2 7
7 6 7 7 7 7 7 7 7 6 7 7 7 6 7 7 7 7 7 7 7 7 6 7 7 7 7 7 7 7 7 7 7 6 6 7 7 5 7 7 7 6 6 6 6 6 6 7 7 6 6 6 5 7 6 6 6 7 6 6 6 6 6 6 6 6 6 5 5 5 5 6 5 5 6 5 6 5 3 7
8 6 7 7 7 7 8 8 8 7 7 7 7 7 7 7 8 7 7 8 7 8 8 8 8 7 8 8 8 8 8 8 8 8 8 8 8 8 8 8 8 7 8 7 7 8 8 8 8 7 7 7 7 7 7 7 7 7 7 7 7 7 7 7 7 7 7 7 7 6 6 6 6 6 5 6 6 6 6 8
8 7 7 7 8 7 7 7 7 7 8 7 6 7 7 7 7 7 7 7 7 8 8 7 7 7 8 8 8 8 8 8 8 8 8 8 8 8 8 8 7 7 7 8 7 7 7 7 7 6 6 7 7 7 7 7 7 7 7 7 7 7 7 7 6 7 7 7 6 6 7 7 6 6 6 6 6 6 5 8
8 7 7 7 7 7 7 8 7 7 7 7 7 7 7 7 7 7 7 7 8 8 8 7 7 7 7 7 8 7 7 8 8 7 7 8 8 8 7 7 7 6 6 7 7 7 6 7 7 7 7 6 7 6 7 7 6 7 7 6 7 6 7 6 7 6 6 6 6 6 6 7 6 5 6 6 6 6 4 7
7 6 6 6 6 7 7 7 6 6 7 6 7 6 7 7 6 6 7 7 7 7 7 6 6 7 7 7 7 7 6 6 6 7 6 6 6 7 6 6 6 6 5 6 6 6 6 6 6 6 6 5 5 6 6 5 4 5 6 5 6 6 5 5 6 6 6 5 6 5 6 5 5 5 5 5 4 3 3 6
7 6 7 6 6 6 6 7 6 6 6 7 6 6 6 7 7 7 7 7 7 7 7 7 7 7 7 6 6 7 6 7 7 7 6 6 6 7 7 6 6 6 5 6 6 6 6 6 5 5 5 5 5 5 5 5 5 6 6 6 4 5 6 5 4 6 5 5 6 6 5 5 5 4 5 4 3 3 3 7
8 7 7 6 7 7 6 7 7 6 7 7 7 7 6 6 7 7 7 7 7 7 7 7 6 7 7 7 6 7 6 7 6 6 6 6 6 7 6 5 6 7 6 5 5 6 6 5 5 6 6 4 6 6 6 6 6 5 4 5 5 4 4 5 6 6 5 5 5 4 5 6 5 4 5 5 5 5 4 6
9 7 7 8 7 7 7 7 7 7 7 7 7 7 8 7 7 7 7 7 7 7 7 7 7 7 6 7 7 7 7 7 7 7 7 7 7 7 7 6 7 7 6 6 6 6 6 6 6 6 7 6 7 6 7 7 6 7 6 6 6 6 6 6 6 7 6 6 5 5 6 6 5 5 6 5 5 5 4 5
8 7 7 7 7 7 7 7 7 7 7 8 7 7 7 8 7 7 8 7 7 8 7 8 8 7 7 7 8 8 7 7 8 7 7 8 8 7 8 7 7 8 7 7 8 8 7 7 7 7 7 7 7 7 7 8 7 7 7 7 7 7 7 6 7 7 7 7 7 7 6 7 7 7 7 6 6 5 6 31
