P2
80 80
255
31 12 7 7 8 7 7 7 7 8 8 7 7 8 7 7 7 7 8 7 8 7 7 7 7 8 8 7 7 8 7 7 7 7 6 7 7 7 7 6 6 7 7 7 7 7 7 7 7 7 7 6 7 7 7 7 7 6 6 6 6 5 5 6 5 5 6 6 4 6 5 5 4 6 5 5 4 4 3 8
5 6 7 7 6 6 7 7 5 6 6 7 6 7 6 6 7 6 6 7 6 6 6 5 6 7 6 7 6 6 6 6 7 6 5 5 6 6 5 5 5 6 6 5 6 6 6 6 6 6 6 6 7 6 5 6 5 5 5 6 4 4 5 5 5 4 4 5 4 2 3 3 3 3 3 4 4 3 3 6
7 7 7 7 7 6 6 7 6 6 7 7 7 6 6 6 6 6 6 6 6 7 7 6 6 7 6 6 5 6 5 5 6 5 5 6 6 6 7 5 5 5 5 5 5 6 6 6 5 6 5 6 6 6 5 5 5 6 5 5 5 5 4 4 4 4 5 5 3 4 3 4 5 5 3 3 3 3 2 6
8 7 7 7 7 7 7 7 7 7 6 6 7 7 7 7 7 7 7 7 7 7 7 7 7 8 7 6 6 7 7 7 7 7 7 7 7 8 7 7 7 7 7 6 6 6 6 7 7 7 7 7 7 7 7 7 7 6 6 7 7 6 6 6 6 6 6 6 5 6 6 6 6 5 6 6 6 5 5 7
8 7 7 7 7 7 7 7 6 7 7 7 7 7 7 7 6 7 7 7 7 7 7 7 7 7 7 8 7 7 7 7 8 7 8 7 8 8 8 7 8 7 7 8 7 8 7 7 7 8 7 7 7 7 6 7 7 7 6 7 7 7 6 6 7 7 6 6 6 6 7 6 6 6 6 5 6 6 6 8
8 7 7 7 7 7 7 7 6 7 7 7 6 7 7 7 7 7 7 8 7 7 7 7 7 7 7 8 7 7 7 8 8 7 8 8 8 7 7 7 8 8 7 7 8 8 8 7 7 7 8 7 7 7 7 7 7 8 7 7 6 7 7 7 7 7 6 7 7 6 6 6 6 6 6 5 6 5 5 8
7 6 7 6 7 6 6 6 6 7 7 6 7 7 7 6 7 6 6 7 7 6 6 7 6 6 6 6 7 7 6 7 6 6 7 6 6 7 6 7 7 7 6 7 7 6 5 6 6 6 7 6 6 7 6 6 5 6 6 7 6 5 5 5 6 6 5 5 5 5 5 6 5 4 4 5 4 5 3 6
7 5 7 6 6 7 7 6 6 6 6 6 7 7 7 7 6 6 6 6 6 6 6 6 5 6 6 5 6 6 5 6 6 6 6 6 6 6 6 5 6 6 5 6 5 6 5 5 5 5 6 5 5 6 5 5 5 5 5 6 6 5 4 5 5 6 6 4 4 3 4 4 4 3 4 3 3 3 3 7
7 6 7 7 6 6 6 6 6 5 6 6 7 7 6 7 6 6 6 6 7 6 6 6 6 6 6 6 6 7 5 6 6 6 5 6 6 6 6 5 6 6 5 5 6 6 6 6 5 6 6 5 4 5 5 5 5 5 5 5 6 5 5 5 6 4 4 3 5 5 4 4 3 2 3 4 3 3 2 6
7 6 6 7 7 7 7 6 7 6 7 6 6 6 6 7 6 6 6 7 7 7 6 6 6 6 6 5 6 6 7 6 7 7 5 6 6 6 7 6 6 6 6 6 6 6 6 6 5 5 6 6 5 6 5 5 5 6 6 6 6 5 5 4 6 5 5 5 5 4 5 5 3 4 3 3 3 3 2 6
8 6 7 7 6 7 7 7 7 7 7 7 6 7 7 7 7 7 7 7 7 8 7 7 7 7 7 7 7 8 8 8 7 8 8 7 8 7 8 8 8 7 7 8 8 8 8 8 7 7 7 7 7 7 7 7 7 8 7 7 7 7 6 7 7 7 7 7 6 6 6 6 6 6 5 6 6 6 5 8
8 7 7 7 7 7 7 7 7 7 8 7 8 8 8 7 7 8 8 8 8 8 8 8 7 8 8 7 8 8 8 8 7 8 8 8 8 8 8 8 8 7 8 8 8 8 8 8 8 8 8 7 8 7 8 8 7 8 8 7 8 7 8 7 7 7 7 7 7 6 7 7 7 7 7 7 7 6 6 8
7 7 7 7 7 8 7 7 7 7 8 7 7 8 7 7 8 8 8 7 7 7 8 8 8 8 7 8 8 8 8 8 8 8 7 7 8 8 8 8 8 8 8 8 8 8 8 8 8 8 8 7 7 8 7 7 7 7 7 7 7 6 6 7 7 7 7 7 6 7 7 7 7 6 6 7 6 6 6 8
7 6 7 7 7 7 6 7 7 7 7 6 7 7 7 7 6 6 7 7 6 6 7 6 7 7 7 6 6 7 6 7 6 6 6 7 6 6 7 6 6 6 5 7 6 6 6 6 6 6 6 6 6 6 5 6 5 6 5 6 5 6 5 5 5 5 4 4 5 4 4 4 5 5 3 4 4 5 3 6
8 6 6 6 7 7 7 7 7 6 6 6 6 7 7 7 6 7 6 6 7 6 7 7 6 7 6 7 6 7 7 7 6 6 7 6 6 6 6 6 6 6 6 6 6 6 5 5 5 5 6 6 6 6 5 5 6 5 5 6 6 5 4 4 4 4 4 4 5 4 5 5 4 4 3 3 3 4 4 7
7 7 7 7 6 6 6 6 6 7 7 6 6 6 6 7 6 7 7 7 7 6 6 6 7 7 6 6 6 6 6 5 6 6 6 6 6 6 7 6 6 6 6 6 5 5 6 6 5 6 6 5 5 6 5 5 5 5 5 5 5 6 4 4 4 5 4 4 5 4 5 6 5 4 3 3 3 3 3 7
7 6 7 7 6 7 7 6 7 7 7 7 7 6 7 7 7 7 7 7 7 7 7 7 7 6 7 7 7 7 7 7 7 7 7 7 6 7 7 6 6 7 7 7 7 6 7 7 6 7 7 6 6 6 6 6 7 6 5 6 6 6 6 6 6 6 5 5 5 5 5 6 5 5 5 4 5 5 4 8
8 7 8 7 7 7 7 8 7 7 8 7 8 8 8 7 8 8 8 8 8 8 8 8 8 8 8 8 8 8 8 8 8 8 8 9 8 8 8 8 8 8 9 8 8 8 8 8 8 8 8 8 8 8 8 7 8 7 7 8 7 7 8 7 7 7 7 7 7 7 7 7 6 7 7 7 5 6 7 9
8 7 8 8 7 8 8 8 7 8 8 8 8 8 8 8 8 8 8 8 8 8 8 8 8 8 8 8 8 9 8 8 8 8 8 8 8 8 9 8 8 9 8 9 8 8 8 8 8 8 8 8 8 8 8 8 7 8 8 8 8 7 8 7 7 7 7 8 7 8 7 7 7 7 7 6 5 5 6 8
8 7 7 8 7 8 7 8 8 8 7 7 8 8 8 7 8 8 8 8 8 8 8 8 8 8 8 8 8 8 8 8 8 8 8 8 8 8 8 8 8 8 8 8 8 8 8 8 7 7 7 8 7 8 7 7 7 7 7 7 7 7 7 6 7 7 7 7 7 7 6 7 6 6 5 6 5 5 5 8
7 6 6 7 7 7 7 7 7 7 7 6 7 7 6 7 7 7 6 7 6 7 7 7 7 7 7 6 6 6 6 7 7 6 7 7 6 6 7 6 7 6 6 7 6 6 6 6 6 6 5 5 5 7 6 5 5 5 6 6 5 6 6 5 5 5 4 5 5 4 4 4 5 4 4 5 4 3 2 7
7 7 7 7 7 6 6 7 7 7 6 6 7 6 7 7 6 6 7 7 7 7 6 6 7 6 6 6 5 6 7 6 6 6 6 6 6 6 7 6 6 6 6 6 5 5 5 6 6 5 6 6 5 5 4 6 6 6 6 6 6 5 6 5 5 6 4 4 5 4 4 5 4 4 4 3 3 3 2 6
7 7 7 7 7 7 6 7 7 6 7 7 7 7 7 7 7 6 7 7 7 7 7 6 6 6 7 6 7 7 6 7 6 7 6 6 7 7 6 6 6 6 6 7 6 6 6 6 6 6 6 5 5 6 5 6 5 4 5 6 6 5 6 5 6 6 5 5 4 5 4 5 4 4 5 4 3 2 2 6
8 7 7 7 7 7 7 7 7 7 7 7 7 7 8 7 8 8 8 7 7 7 7 7 7 7 8 7 7 8 8 8 8 8 7 7 8 8 8 7 7 8 7 7 7 7 7 8 7 8 8 7 7 7 7 7 6 6 7 6 7 7 7 6 6 6 7 7 6 6 6 6 5 6 6 5 5 5 4 8
8 8 8 8 8 8 8 7 8 8 8 8 8 8 8 8 8 8 8 8 8 8 8 8 8 8 8 8 8 8 8 8 9 9 9 9 9 9 9 9 9 9 9 9 9 8 8 9 9 8 9 9 8 8 8 8 8 8 8 7 8 8 8 7 8 7 8 8 7 7 7 7 6 7 6 6 6 5 5 8
8 8 8 8 8 8 8 8 8 8 8 8 8 8 8 8 8 8 8 9 8 8 8 8 8 8 9 9 8 9 8 8 9 9 9 9 9 9 9 9 9 9 9 9 9 9 9 9 9 8 9 9 8 9 8 8 8 8 8 8 8 8 8 8 7 8 7 7 7 7 8 7 7 7 7 7 6 6 6 8
8 7 7 7 7 7 8 7 7 8 7 8 7 7 8 7 8 7 7 8 8 7 8 7 8 7 7 8 7 8 8 7 8 8 8 8 8 8 8 7 8 8 8 8 7 8 8 8 8 7 8 8 8 7 8 7 8 7 7 7 7 7 7 6 6 6 7 7 7 7 7 6 6 6 6 5 5 5 4 8
7 6 6 7 7 7 7 7 7 7 7 7 6 6 7 7 7 7 6 6 7 6 7 7 7 7 7 7 7 6 7 7 7 6 7 7 7 7 6 5 6 6 6 6 6 6 6 6 6 7 7 7 4 8 6 6 7 6 6 5 6 6 5 5 6 6 5 5 5 6 5 5 5 4 4 4 3 4 3 6
8 6 7 7 6 7 7 7 7 6 7 7 6 7 7 7 7 7 6 7 6 7 6 7 7 7 7 6 7 7 7 8 11 13 9 7 7 7 7 6 6 6 7 6 6 5 5 6 6 6 7 14 86 24 6 7 7 7 6 6 5 5 5 6 5 6 5 5 5 6 4 5 5 5 5 5 4 4 3 6
7 6 6 7 6 7 6 7 6 6 7 6 6 6 6 7 7 7 6 7 7 7 7 7 6 7 7 7 7 7 7 5 37 132 14 7 7 7 6 6 6 7 7 7 6 7 6 6 6 6 6 14 83 23 6 6 6 6 6 6 6 5 5 6 6 5 4 4 5 4 4 5 4 4 4 4 4 3 2 6
8 8 8 7 8 8 8 8 7 7 8 8 8 8 8 8 8 8 8 8 8 8 8 8 8 8 8 8 8 8 8 8 21 51 15 9 9 9 10 9 9 8 9 9 9 9 8 8 8 8 8 9 5 9 8 7 7 8 8 8 8 8 8 7 7 8 7 7 7 7 7 7 6 6 6 7 6 5 5 8
8 8 8 8 8 8 8 8 8 8 8 8 8 8 8 8 8 8 8 8 8 8 8 8 8 9 9 9 9 9 8 9 9 8 10 9 9 9 9 9 9 9 9 9 8 9 9 9 9 9 8 9 9 9 9 8 8 8 8 8 8 8 8 8 8 9 8 7 8 8 8 8 7 7 7 7 6 6 7 9
9 8 8 8 8 8 8 8 8 8 8 8 8 8 8 9 8 8 8 8 8 8 8 8 8 8 9 9 9 9 9 9 9 9 9 9 9 9 9 9 9 9 9 9 9 9 9 8 9 9 9 8 8 9 9 8 8 8 8 8 7 8 8 8 8 8 8 8 7 8 8 8 8 7 7 7 7 7 7 9
7 7 7 8 7 7 7 7 7 7 7 7 7 7 7 8 7 7 7 7 7 7 7 7 7 7 8 7 8 8 7 8 7 7 7 7 7 8 7 7 8 7 7 7 7 6 7 6 7 7 7 7 7 7 7 7 7 7 7 7 7 7 7 6 6 7 6 6 6 6 7 6 6 5 5 5 6 5 4 8
7 6 7 7 6 6 7 7 7 6 7 7 7 7 7 7 7 7 7 6 7 6 6 7 6 6 6 6 7 7 6 6 6 6 6 7 7 7 6 6 6 6 6 7 6 6 6 6 6 5 7 6 6 5 6 6 6 6 6 5 6 6 5 5 6 6 5 5 5 6 5 5 5 5 4 4 4 4 4 7
7 7 7 7 7 7 7 7 6 7 6 7 7 7 7 7 7 7 7 7 7 6 7 6 6 6 6 7 7 7 7 6 7 7 6 6 6 7 7 6 6 6 6 7 6 6 7 7 6 6 7 6 5 6 5 7 5 6 6 6 6 5 5 5 6 6 5 4 5 4 5 5 4 4 3 3 4 4 2 7
7 6 7 7 6 7 7 7 7 6 6 7 7 7 7 7 7 7 6 7 7 7 7 7 7 7 7 6 7 7 7 7 7 7 7 7 6 7 7 7 7 7 7 7 6 7 6 6 5 6 7 6 7 6 6 6 6 6 6 6 6 6 6 6 5 6 5 5 5 6 5 5 5 4 5 5 4 4 3 6
9 8 8 8 8 8 8 8 8 8 8 8 8 8 8 8 8 8 8 8 8 8 8 8 9 8 9 9 8 9 8 9 9 9 9 9 9 9 9 9 9 9 9 9 9 9 8 8 8 9 9 8 9 9 8 8 8 8 8 8 8 8 8 8 8 8 8 8 8 8 8 8 8 7 7 8 7 7 7 9
8 8 8 8 8 8 8 8 8 8 8 8 8 8 8 8 8 8 8 8 8 8 8 8 8 8 9 9 8 8 8 9 9 9 9 9 9 9 9 9 9 9 9 9 9 9 9 9 9 9 9 9 9 9 8 8 8 8 9 8 8 8 8 8 8 8 8 8 8 8 8 7 7 7 7 7 7 8 7 9
8 7 8 8 8 8 8 8 8 8 8 8 8 8 8 8 8 8 8 8 8 8 8 8 8 8 9 8 8 8 8 8 9 8 9 9 9 9 9 9 9 9 9 9 9 9 9 9 9 9 9 9 9 9 9 8 8 8 9 8 8 8 8 8 8 8 8 8 8 8 7 8 7 8 7 7 7 6 6 8
8 6 7 7 7 7 7 7 7 7 7 7 7 7 7 7 7 6 7 6 7 7 6 7 7 7 6 7 7 7 7 7 7 7 7 6 7 7 7 7 7 7 6 7 6 7 7 7 7 6 6 6 6 6 7 6 7 7 7 6 6 6 6 6 6 6 6 6 6 6 5 5 5 5 5 4 4 5 5 7
8 7 7 7 6 7 6 7 6 7 7 7 7 7 7 7 7 6 7 6 6 7 6 7 7 7 7 6 6 7 6 6 7 7 7 6 7 7 7 7 7 6 7 7 7 7 7 6 7 7 7 5 6 7 6 6 6 6 6 6 6 6 7 6 6 5 4 5 6 6 6 6 5 5 5 4 3 4 3 7
8 7 7 6 6 6 7 7 7 6 7 7 6 6 7 7 7 7 7 7 7 6 6 6 6 7 7 7 6 6 6 7 6 7 6 6 7 7 7 6 6 6 7 6 5 6 5 6 6 7 7 5 6 7 6 6 5 6 6 6 5 6 5 5 5 5 5 4 4 5 4 4 4 4 4 4 4 3 3 7
8 7 7 7 7 7 7 8 7 7 7 7 7 7 7 8 8 7 7 7 7 7 7 7 7 8 7 6 7 7 7 7 8 8 7 8 8 8 8 7 8 7 7 7 7 7 7 7 7 8 7 7 7 7 7 7 6 7 7 7 6 6 6 6 6 6 5 6 6 5 6 6 6 5 4 5 5 4 4 8
8 8 8 7 7 8 8 8 8 8 8 8 8 8 9 8 8 8 8 8 8 8 8 9 9 8 9 9 8 8 8 9 9 9 8 9 9 9 9 9 9 9 9 9 9 9 9 9 9 9 9 9 9 9 9 9 9 8 9 8 8 8 8 7 8 8 8 7 7 7 7 8 8 7 7 7 7 7 7 9
8 8 8 8 8 8 8 8 8 8 8 8 8 8 8 8 8 8 8 8 8 8 9 8 9 8 9 9 8 8 8 8 9 9 9 9 9 9 9 9 9 9 9 9 9 9 9 9 9 9 9 8 9 9 8 8 8 9 8 8 8 8 8 8 8 8 8 8 7 8 7 8 7 7 7 7 7 6 7 9
8 7 7 8 8 7 7 8 8 8 8 8 7 8 8 8 8 8 8 8 8 8 8 8 8 8 8 8 8 8 8 8 9 9 9 9 9 9 8 8 8 9 8 9 8 8 9 9 9 8 9 9 11 7 8 8 8 8 8 8 7 7 7 7 7 6 7 7 7 7 7 7 6 7 6 6 6 6 6 8
7 7 7 7 7 7 6 6 6 5 7 7 6 6 6 6 6 7 7 7 7 7 6 6 7 6 6 7 6 6 7 7 7 8 5 8 8 8 8 8 8 8 7 7 7 7 8 8 8 8 8 8 7 90 56 4 6 6 6 6 6 5 6 6 6 5 4 5 5 4 5 6 5 5 4 3 3 3 3 7
7 6 7 7 6 7 6 7 7 5 6 6 7 7 7 6 6 7 7 7 6 7 5 6 6 7 7 7 6 6 6 6 6 19 113 25 7 8 8 7 7 6 6 7 7 6 6 5 6 6 6 6 7 59 38 6 7 6 6 6 6 6 6 6 5 5 4 5 6 5 5 5 5 4 4 3 4 3 2 7
7 6 7 6 6 7 7 7 6 6 7 6 6 7 7 4 6 6 7 7 6 7 6 6 6 7 6 7 6 7 6 7 7 15 73 22 6 7 6 6 6 6 5 6 6 6 6 5 6 6 6 6 8 5 6 7 7 6 6 6 6 5 6 5 5 5 5 5 5 5 4 5 5 4 3 3 3 3 2 7
8 6 7 7 7 6 7 7 7 7 7 7 7 7 7 7 7 7 7 7 7 7 7 7 8 8 7 7 7 8 8 8 8 9 5 8 8 8 8 7 8 7 7 8 7 8 8 8 8 7 7 7 8 8 8 8 7 7 7 6 6 7 7 7 7 7 7 7 6 6 6 7 6 6 4 6 5 5 5 7
8 7 8 8 8 7 8 8 8 8 8 8 8 8 8 8 8 8 8 8 8 8 7 8 8 8 8 8 8 8 8 8 8 9 9 9 9 9 8 9 8 8 9 9 9 9 9 8 9 9 9 9 8 9 8 8 8 8 7 8 8 8 7 7 7 7 7 7 7 7 6 6 7 7 7 7 7 6 6 8
8 7 8 8 7 8 7 8 8 7 8 8 8 8 8 7 8 7 8 8 8 8 8 8 8 8 8 8 8 8 8 9 9 8 9 9 9 9 8 9 8 8 9 9 9 9 8 8 8 9 9 8 8 8 8 8 8 8 8 7 8 8 8 8 8 8 7 7 7 7 7 7 7 7 6 7 6 6 6 8
8 8 7 8 7 7 7 8 7 7 7 7 7 7 7 7 7 8 7 7 7 7 7 7 7 7 7 8 7 8 8 7 7 8 8 7 7 8 8 7 7 8 7 8 7 7 7 7 8 8 7 7 7 7 6 6 7 7 7 7 7 6 7 7 7 7 6 6 6 6 6 6 5 5 5 5 5 5 4 8
7 7 6 7 6 7 7 7 7 6 6 5 7 7 7 7 6 7 7 6 6 6 7 7 7 6 6 7 6 7 6 6 6 7 6 7 6 6 6 7 6 6 6 6 6 5 5 5 6 6 6 6 6 5 4 5 6 5 5 4 4 5 5 4 5 5 5 4 4 4 5 5 5 5 4 3 3 4 2 7
7 6 7 7 6 7 6 6 6 6 5 6 7 6 6 6 7 7 6 6 7 6 6 6 6 6 7 6 6 6 6 7 6 6 5 6 6 6 6 6 6 6 6 5 5 5 6 6 5 6 6 6 5 5 6 5 4 6 4 5 5 5 6 4 4 4 4 5 5 4 5 3 3 3 4 4 3 3 2 7
7 6 7 7 7 7 7 6 6 6 6 6 6 6 6 6 6 7 6 7 6 6 6 7 6 7 7 6 7 7 5 6 7 5 5 6 6 6 6 5 5 6 6 6 6 5 4 5 6 5 5 5 6 5 4 5 5 5 4 3 4 5 5 5 5 4 4 5 4 4 4 3 3 3 3 3 3 2 2 6
7 7 7 7 7 7 7 8 7 8 7 7 7 7 7 7 8 8 7 8 7 8 7 8 7 8 8 7 8 8 8 8 8 8 8 8 8 8 8 7 8 8 8 8 8 8 8 7 7 7 7 7 7 7 7 8 7 7 7 7 7 7 7 7 6 7 7 6 5 7 7 6 6 7 6 6 6 5 6 8
8 7 7 8 8 8 8 8 8 7 7 8 8 8 8 8 8 8 8 8 8 8 8 8 8 8 9 8 8 8 8 8 8 9 9 9 8 8 9 8 8 8 8 9 8 8 8 8 8 8 8 8 8 8 8 8 8 8 8 8 8 8 8 7 7 8 8 7 7 7 7 7 7 7 7 6 6 6 6 8
8 7 7 8 7 8 8 7 8 7 8 7 7 8 8 8 8 8 8 8 8 8 8 8 8 8 8 8 7 8 8 8 8 8 9 8 8 8 8 8 8 8 8 8 8 8 8 8 7 7 7 8 7 8 8 7 8 8 8 7 7 7 7 7 7 7 7 7 7 7 7 6 6 7 7 5 6 6 6 7
7 6 7 7 7 7 7 7 7 6 6 6 5 6 7 7 7 7 7 7 6 7 7 7 7 7 7 6 5 6 6 7 7 6 7 7 7 7 7 6 7 6 5 6 7 7 6 7 7 7 6 5 5 5 6 6 7 7 7 6 5 5 6 6 7 7 5 6 4 5 5 5 5 4 5 4 4 4 4 6
7 6 6 5 7 7 7 7 6 6 6 6 7 7 7 7 6 7 7 6 6 6 7 6 6 6 6 7 6 6 6 7 6 7 6 5 6 6 6 6 6 6 5 6 6 5 6 6 6 5 4 5 5 5 6 5 5 6 5 5 5 6 5 5 5 5 5 5 5 4 4 5 5 4 3 3 4 4 3 7
7 6 7 7 6 6 6 6 6 7 7 7 6 7 7 7 6 6 6 7 6 6 7 6 6 6 6 6 6 7 6 6 6 7 6 6 7 6 7 6 6 6 6 6 6 6 5 6 6 6 6 5 6 6 5 5 5 5 5 5 6 5 5 6 5 5 5 5 4 5 4 4 4 4 5 5 4 3 3 6
7 7 6 7 6 7 7 7 6 6 6 6 6 7 7 7 6 6 7 7 6 7 6 6 7 6 7 7 7 6 6 7 7 6 6 7 7 6 6 6 7 6 6 6 6 6 6 5 6 6 7 6 6 6 6 6 5 5 6 5 5 6 6 5 5 5 5 5 5 4 5 5 5 4 4 3 4 4 4 7
7 7 7 7 7 7 8 7 7 7 7 7 7 7 7 7 7 7 7 8 7 8 8 8 8 8 8 8 7 8 8 8 8 8 8 8 8 8 8 7 8 8 8 8 8 8 8 7 7 8 7 7 7 8 7 7 7 7 7 7 7 7 7 7 8 7 7 7 7 7 6 6 6 7 6 6 7 6 6 9
8 7 7 7 7 8 8 8 8 7 7 7 7 7 7 8 8 8 8 7 8 8 8 7 7 8 8 8 8 8 8 8 8 8 8 8 8 8 8 8 8 8 8 8 8 8 8 8 8 8 7 7 8 8 8 8 7 7 8 8 7 7 7 7 7 7 7 7 7 7 7 7 7 7 7 7 7 7 6 8
8 7 7 7 7 8 8 7 7 7 7 7 7 7 7 7 7 8 6 8 7 7 8 7 7 8 8 8 8 8 8 8 8 8 8 8 8 8 7 8 7 7 8 8 7 7 7 7 7 7 7 7 7 7 8 7 7 7 7 7 7 7 7 7 7 7 7 7 7 7 7 6 6 7 7 6 7 6 5 8
7 7 7 7 6 6 6 6 7 6 6 7 6 6 7 6 6 6 6 6 7 7 6 7 7 6 6 6 6 7 6 7 7 6 6 6 6 6 7 6 6 6 5 6 5 6 5 5 6 6 6 5 4 6 6 5 6 5 5 6 5 5 6 4 5 5 6 6 4 5 5 5 5 5 5 4 4 3 2 6
7 6 7 7 7 6 7 7 7 6 7 6 6 6 7 7 7 6 6 6 7 7 6 7 7 7 7 7 6 6 6 6 6 7 7 6 6 6 6 5 7 6 6 6 6 6 6 6 5 5 6 5 5 6 4 5 6 5 5 7 6 6 6 5 5 5 5 5 4 5 5 6 5 4 4 4 3 4 3 7
7 6 7 6 6 7 7 7 6 6 6 7 7 6 6 6 6 6 6 7 6 7 7 7 7 6 7 7 6 7 6 7 7 6 6 6 6 6 6 6 6 6 5 6 6 6 7 7 5 5 6 5 5 5 5 6 5 6 5 6 6 4 5 5 6 5 5 4 3 4 4 4 4 4 4 3 3 3 4 7
7 6 7 6 6 6 7 7 6 6 6 7 7 7 7 7 7 6 6 6 7 7 7 7 6 7 6 7 7 6 6 7 7 6 6 6 6 7 7 6 7 6 6 6 7 6 6 7 6 6 5 6 5 5 5 6 6 6 5 5 5 6 5 5 5 6 5 5 5 5 5 6 4 4 4 4 5 4 3 7
7 7 7 7 7 8 7 7 7 7 7 7 7 7 7 7 7 7 7 8 7 8 8 7 7 7 7 7 8 8 8 8 8 8 8 8 8 8 8 8 8 8 8 7 7 7 7 8 7 7 7 7 7 8 7 7 7 7 7 7 6 7 7 7 7 7 7 6 6 6 6 6 5 6 6 5 6 6 5 8
8 7 6 7 7 8 8 7 7 6 7 7 7 7 8 7 7 7 7 7 7 7 7 7 8 8 7 7 8 8 8 8 8 8 8 7 8 8 8 8 7 8 7 8 7 7 7 7 7 7 7 7 7 7 7 7 7 7 7 7 7 7 7 7 7 7 7 7 7 7 6 7 7 6 5 6 6 6 5 7
8 7 7 7 7 7 7 7 7 7 7 7 7 7 7 7 7 7 7 7 7 7 7 7 7 7 7 7 7 7 8 7 8 7 7 7 7 7 8 7 7 6 7 7 7 7 7 7 7 6 6 6 6 6 7 6 6 7 6 6 6 6 6 6 7 6 6 6 7 7 6 6 6 5 5 5 5 6 5 8
7 6 6 6 7 6 7 6 7 6 7 7 6 6 7 7 6 6 7 6 6 7 7 6 5 7 7 7 6 6 6 6 7 6 6 6 5 6 7 5 6 6 4 6 6 6 5 5 5 5 6 5 6 5 5 5 5 5 5 5 4 4 5 5 6 5 5 5 5 6 4 5 5 4 3 4 4 4 3 6
7 6 6 7 7 6 7 7 6 6 6 6 6 7 6 6 6 7 7 6 6 6 7 6 6 7 6 6 6 5 6 6 6 6 6 5 6 7 6 5 6 6 6 6 5 5 4 5 5 5 5 4 4 5 5 4 4 5 5 4 4 4 4 4 6 5 4 4 4 3 4 4 4 3 4 4 3 3 2 6
8 7 7 7 7 5 6 7 6 7 6 6 7 7 7 6 6 7 7 6 6 6 7 6 6 6 6 6 6 6 7 7 7 6 5 5 6 5 6 6 6 6 5 6 5 6 6 5 5 5 5 5 5 5 4 4 4 6 4 5 5 4 5 4 5 4 5 5 4 4 3 5 4 4 3 3 3 4 3 7
8 7 7 7 7 6 6 7 7 7 7 7 7 7 7 7 7 7 7 7 7 7 6 7 7 6 7 7 7 7 7 7 7 7 7 6 7 7 7 7 7 7 6 6 6 7 6 6 7 6 6 6 6 6 6 6 7 6 6 7 6 6 6 5 6 6 6 6 5 6 6 7 6 5 4 5 4 5 4 7
8 7 7 7 7 7 7 7 7 7 7 8 7 7 7 7 8 7 8 7 7 7 7 8 7 7 7 7 7 7 7 8 8 8 7 7 8 8 7 7 7 7 7 7 7 7 7 7 7 8 7 7 7 7 8 7 7 7 7 7 7 7 6 7 7 7 7 7 7 6 6 6 6 6 5 6 5 5 5 6
8 8 8 7 7 7 7 7 7 7 8 8 7 8 8 7 8 7 7 8 7 7 7 7 7 7 6 7 7 6 7 8 7 8 7 7 8 7 7 7 7 7 7 7 7 7 7 7 7 7 7 6 7 7 7 7 7 7 7 8 7 7 7 7 7 7 6 6 7 6 6 6 6 6 6 7 6 6 5 31
