P2
80 80
255
33 15 9 11 9 9 8 9 8 8 8 7 8 8 8 8 8 8 8 8 8 8 8 8 8 9 8 8 8 9 8 8 9 8 9 8 8 8 8 9 9 8 8 9 9 8 9 8 9 8 8 8 9 9 8 8 8 8 8 8 8 9 8 9 8 8 8 8 7 8 8 8 7 6 8 7 7 8 7 9
7 8 9 10 8 7 7 8 7 7 7 7 7 7 7 7 7 7 7 7 7 7 7 7 7 8 7 7 8 8 7 7 8 8 8 7 8 8 8 7 8 8 7 8 8 7 8 7 7 7 8 7 8 7 7 7 8 7 7 7 7 7 7 7 7 7 7 7 6 7 7 7 6 6 7 6 6 6 7 9
7 7 7 8 7 7 6 7 6 6 7 7 7 7 7 7 7 7 7 6 6 7 6 7 7 7 6 7 6 7 6 7 7 6 6 6 6 7 7 6 7 6 6 7 6 6 7 6 6 6 6 6 7 6 5 6 6 5 5 5 6 6 5 5 6 5 5 6 5 4 3 5 5 5 4 3 3 4 3 7
6 7 7 7 7 8 7 7 6 6 7 6 6 7 6 7 6 6 6 7 7 7 6 7 6 6 6 6 6 7 7 6 6 7 6 6 6 6 6 6 7 5 5 6 6 6 6 5 6 6 6 6 6 6 5 6 5 6 6 4 5 5 5 5 5 5 4 3 4 5 5 5 4 3 4 3 5 5 3 6
6 6 6 6 7 8 7 7 7 6 6 7 6 6 7 7 6 6 6 6 7 7 6 7 6 6 6 6 6 5 6 7 6 7 6 6 6 6 6 6 6 6 6 6 6 6 6 6 6 6 6 5 5 6 5 6 5 7 6 5 5 5 5 5 4 5 4 4 4 3 3 5 5 4 4 3 3 4 4 7
7 7 6 7 8 8 7 7 7 6 7 7 7 7 7 7 7 7 7 7 7 7 7 7 7 6 7 7 7 7 7 7 7 7 7 7 7 7 7 6 7 7 7 7 7 7 7 7 6 6 6 6 6 6 6 7 6 6 6 7 6 6 7 6 5 5 5 5 6 5 5 5 5 5 5 5 4 4 4 8
8 7 7 7 7 7 7 7 7 7 7 7 7 7 7 8 7 7 7 7 8 8 8 8 8 7 8 8 8 8 8 8 8 8 8 8 8 8 8 8 7 8 8 8 8 8 8 8 8 8 8 8 8 8 8 8 7 7 8 8 8 7 7 8 7 7 7 7 7 7 7 6 6 7 6 6 7 7 6 9
7 7 7 7 7 7 7 7 7 7 7 7 7 8 7 8 7 8 7 7 7 8 8 7 8 8 8 7 7 8 7 8 8 9 8 7 8 8 8 8 8 8 8 8 8 8 8 8 8 8 7 8 8 8 8 8 7 8 7 7 7 7 7 7 7 7 6 7 7 7 7 6 7 6 5 6 6 6 7 9
7 7 6 8 7 7 7 7 7 7 7 7 8 7 7 7 7 8 7 7 7 7 8 7 7 8 8 7 8 7 7 8 8 7 8 7 8 7 8 7 8 7 7 8 8 8 7 7 7 7 7 8 7 7 7 7 7 8 7 7 7 7 7 7 7 7 7 6 6 6 6 6 6 6 6 5 6 5 6 8
7 7 7 7 7 7 7 7 7 7 7 7 7 7 6 7 7 7 6 6 6 6 6 7 6 7 7 6 6 7 6 6 6 7 7 6 6 6 6 6 7 7 6 6 6 6 5 5 6 7 6 6 6 6 5 7 6 6 6 6 6 5 5 5 5 5 4 4 4 5 3 4 4 4 4 5 5 3 2 6
7 7 7 7 7 7 7 7 6 7 7 7 7 7 7 7 7 6 6 7 7 6 7 7 7 6 6 6 7 7 6 7 6 6 6 6 7 7 6 5 7 6 5 5 4 6 6 6 5 6 6 6 5 5 4 6 5 6 6 6 6 5 4 5 5 5 5 5 4 5 4 4 4 4 4 3 4 4 3 6
7 7 6 7 7 7 7 7 7 7 7 7 7 7 6 7 7 6 6 7 7 7 7 7 7 7 6 6 7 7 7 7 7 6 6 7 6 6 7 6 7 6 6 7 7 6 6 6 5 6 6 5 7 5 6 6 6 6 7 6 6 5 5 5 6 6 5 5 4 5 5 5 5 4 5 3 4 4 4 7
7 7 7 7 7 7 7 7 7 7 8 8 7 7 7 7 8 7 7 7 7 7 7 8 7 8 7 7 7 8 7 7 7 7 7 7 8 7 7 7 8 7 7 7 7 7 7 7 7 7 7 7 7 7 7 7 7 7 6 7 7 6 7 6 6 7 7 7 5 5 5 5 5 5 5 5 6 6 5 8
8 8 7 7 7 7 7 8 7 7 8 7 8 8 8 8 8 8 8 8 8 8 8 8 8 8 8 8 8 8 8 8 8 8 8 8 8 8 8 8 8 8 7 8 8 8 8 8 8 8 8 8 8 8 8 8 8 8 7 8 7 7 7 7 7 7 7 7 7 7 7 7 7 6 6 6 7 7 7 9
8 7 8 8 7 8 8 8 7 7 8 8 8 8 8 8 8 8 8 8 8 8 8 8 8 8 8 8 8 8 8 8 8 8 8 8 9 8 8 8 8 8 8 8 8 8 8 8 8 8 8 8 8 8 8 7 8 8 8 8 7 7 8 7 7 7 7 7 7 7 7 7 7 6 6 7 7 7 6 9
8 7 7 7 7 7 7 7 7 7 7 7 8 8 7 7 7 7 7 7 8 7 7 7 7 8 8 7 8 7 7 7 8 8 7 8 8 7 7 8 8 8 8 6 7 8 7 7 7 7 7 7 7 7 7 7 7 7 7 6 7 6 7 6 7 6 7 7 6 6 6 5 6 6 6 6 6 5 5 8
7 7 6 7 7 7 6 7 7 7 7 7 7 7 7 6 6 7 7 7 7 6 7 7 7 7 7 7 7 7 6 7 6 7 6 7 7 7 6 5 6 7 7 7 6 7 6 6 5 6 6 5 5 6 5 6 6 6 6 6 6 5 4 4 6 6 5 5 6 5 5 5 5 4 4 4 5 3 4 8
7 7 7 7 7 7 6 8 7 7 7 6 7 7 7 7 7 7 7 7 7 7 7 6 6 7 7 7 7 6 6 7 6 7 7 7 6 7 7 7 7 6 6 7 6 6 6 7 6 7 6 6 6 6 6 7 7 7 7 6 7 6 5 5 6 6 7 6 6 6 5 4 6 5 4 3 5 3 3 6
7 6 7 7 7 7 7 7 7 7 7 7 7 7 7 7 7 7 6 6 7 7 7 6 6 7 7 6 6 7 6 7 6 7 7 6 7 6 6 7 7 6 6 6 6 6 7 6 6 6 5 5 5 6 6 7 6 5 6 6 6 5 6 5 5 5 5 6 5 5 5 5 5 4 3 4 4 4 3 7
7 7 8 8 7 7 7 7 8 8 7 8 8 8 7 8 8 8 7 8 8 8 8 8 8 8 8 7 7 8 8 8 8 8 8 8 8 8 8 8 8 8 8 8 8 8 8 7 7 8 7 8 8 8 7 8 18 28 9 7 7 8 7 7 8 7 6 7 7 7 7 7 6 6 6 7 6 6 6 8
8 8 8 8 8 8 8 8 8 8 8 8 8 8 8 8 8 8 8 8 8 8 8 8 8 8 8 8 8 8 8 8 8 8 9 9 6 9 9 9 8 8 8 9 8 8 8 8 8 8 8 8 8 8 8 4 78 116 7 8 8 8 7 8 8 7 7 7 7 8 7 8 7 7 7 7 7 7 7 8
8 8 8 7 7 8 8 8 8 7 8 8 8 8 8 8 8 8 8 8 8 8 8 8 8 8 8 8 8 8 8 8 8 9 7 41 89 10 9 9 9 8 8 9 9 9 9 9 9 9 9 8 8 8 8 9 27 25 10 8 8 8 8 8 8 8 8 8 7 7 7 7 7 8 8 7 7 7 7 9
7 7 7 7 7 7 7 7 8 7 7 7 7 7 7 7 7 7 7 7 8 7 7 7 7 7 7 7 7 7 7 7 8 7 6 35 96 10 8 8 8 8 8 7 7 7 8 8 8 7 8 6 5 7 7 7 7 6 8 7 7 6 6 6 6 7 6 6 5 5 5 5 5 5 5 5 5 4 5 8
7 6 6 7 7 6 7 7 7 7 6 6 7 7 7 7 7 7 6 7 7 7 7 7 6 7 7 7 7 7 7 7 7 7 7 7 7 9 8 7 6 7 7 7 6 6 6 6 6 6 6 6 6 7 7 6 6 6 7 6 6 5 6 6 6 6 6 5 5 6 4 5 5 5 4 4 5 4 5 8
7 7 7 7 7 7 7 7 7 7 7 7 7 7 7 7 7 7 7 7 7 6 7 7 7 7 7 7 7 6 6 7 7 6 7 7 7 7 7 7 7 7 5 6 7 6 7 6 7 7 6 6 6 6 6 6 7 6 6 6 6 6 6 7 6 5 6 5 5 5 5 5 4 5 3 4 4 4 4 7
7 7 6 7 7 7 7 7 7 7 7 7 7 7 7 7 7 7 6 7 7 7 7 7 7 7 7 7 7 7 7 7 7 7 6 7 7 7 7 6 7 7 7 7 7 7 7 7 7 7 7 6 6 6 6 6 6 7 6 6 5 6 6 7 6 5 5 6 6 6 6 4 5 6 5 4 4 4 4 7
8 8 7 8 8 7 7 8 8 8 8 7 7 8 8 8 8 8 8 8 8 8 7 8 8 7 8 8 8 8 8 8 8 9 9 9 9 9 9 8 9 8 8 8 8 8 8 8 8 8 8 8 8 8 8 8 7 8 8 8 7 8 8 8 8 8 8 7 7 7 7 7 7 7 7 7 7 7 6 9
9 8 7 8 8 8 8 8 8 8 8 8 7 8 8 8 8 8 8 8 8 8 8 8 8 8 8 8 8 8 8 9 8 9 9 9 9 9 9 9 9 9 9 9 8 8 8 9 8 8 8 8 8 8 8 9 8 8 8 8 8 8 8 7 8 8 8 7 7 7 8 8 7 8 7 7 7 7 6 9
8 8 7 8 8 8 8 8 8 8 8 8 8 8 8 8 8 8 8 8 8 8 8 8 8 8 8 8 8 8 8 9 9 9 9 9 8 9 9 8 8 8 8 9 8 8 8 9 9 8 8 8 8 8 8 8 8 9 8 8 8 8 8 8 8 8 8 7 8 8 7 8 7 7 7 6 7 7 7 9
7 7 6 7 7 7 7 7 7 7 7 7 7 7 6 7 7 7 7 7 7 7 7 6 7 6 7 7 7 7 7 7 7 7 6 6 6 7 7 7 7 7 7 7 7 6 7 6 7 7 7 7 7 7 6 6 6 6 6 7 6 6 5 5 5 6 5 5 5 5 6 5 5 5 5 4 5 4 4 7
8 7 6 7 7 7 7 7 7 6 7 7 7 7 7 7 7 7 7 7 7 7 7 7 7 7 7 6 7 7 7 7 7 7 7 7 5 7 7 7 7 7 6 6 6 6 6 6 6 7 7 7 6 6 7 6 5 6 6 6 6 5 5 5 6 6 6 6 5 5 5 5 5 5 5 4 4 4 4 7
8 5 6 7 7 7 7 7 7 7 6 7 7 7 7 7 7 7 7 7 7 7 7 7 7 5 7 7 6 7 7 6 6 6 6 7 6 7 7 6 6 7 7 7 6 7 7 6 6 6 6 6 6 5 6 6 6 6 6 6 6 6 6 5 5 5 6 5 5 6 6 5 5 5 4 5 4 4 4 7
8 7 7 7 7 7 7 7 7 8 7 7 7 7 7 7 8 7 7 7 8 7 7 7 7 7 7 7 6 7 7 7 7 7 7 8 7 7 8 7 7 7 7 7 8 7 8 7 7 6 7 6 7 7 7 7 6 7 7 7 6 7 6 6 6 6 6 6 6 6 5 6 5 5 5 5 6 5 4 7
9 8 8 8 8 8 8 8 8 8 8 8 8 9 8 8 8 8 8 8 8 8 8 8 8 8 8 8 9 8 8 9 9 8 9 9 9 9 9 9 9 9 9 9 9 9 9 9 9 9 9 9 9 8 8 9 9 9 9 9 9 9 8 8 8 8 8 8 7 8 8 8 8 7 7 7 8 7 7 9
9 8 8 8 8 8 8 8 8 8 8 8 8 9 8 8 8 8 8 8 8 8 9 9 8 8 8 8 8 8 8 9 9 8 9 9 9 9 9 9 9 9 9 9 9 9 9 9 9 9 9 9 9 9 9 9 9 9 8 8 8 8 8 8 8 8 8 9 8 8 8 8 8 8 7 7 8 7 7 9
8 8 8 8 7 8 8 8 8 8 8 8 8 8 8 7 8 8 8 8 8 7 8 8 8 8 8 8 8 8 8 8 9 9 8 8 9 9 9 8 9 9 8 8 8 9 8 9 8 9 8 8 8 9 8 8 8 8 8 8 7 7 8 8 8 7 7 8 8 8 8 8 7 7 6 6 7 6 6 8
8 7 7 7 6 7 7 7 7 6 7 7 7 7 7 7 7 7 6 7 7 6 7 7 7 7 7 7 6 7 7 7 7 7 7 7 7 7 7 7 7 7 6 6 6 7 6 6 7 7 6 6 6 6 6 7 6 7 6 6 6 6 5 5 5 5 6 6 5 6 6 6 5 5 4 5 6 5 4 7
7 7 7 7 7 7 7 7 6 6 7 7 6 7 8 7 7 7 6 7 7 7 7 7 7 6 7 7 7 7 7 6 7 7 7 7 7 7 7 7 7 7 5 7 7 7 6 7 6 6 6 6 6 6 5 6 6 6 7 6 7 6 6 5 5 6 5 6 4 5 5 6 4 5 5 4 4 3 3 7
7 7 7 7 7 6 7 7 6 6 6 7 6 7 6 7 7 7 6 7 7 7 7 6 7 7 7 7 6 6 7 7 7 7 7 7 6 7 7 7 7 7 6 7 6 7 6 6 7 6 7 6 5 6 6 6 6 6 6 6 6 6 6 6 6 5 5 6 5 6 4 5 4 5 3 4 4 3 2 6
8 7 8 8 7 8 7 7 7 7 8 8 8 7 7 7 8 8 8 7 7 8 8 7 8 8 7 7 7 8 8 8 8 8 8 8 8 8 9 8 8 8 8 8 8 8 8 8 8 8 7 8 8 7 8 8 8 7 5 8 7 7 7 8 7 6 6 7 7 7 6 7 6 7 6 6 6 6 6 8
9 8 8 8 8 8 8 8 8 8 8 8 9 8 8 8 8 8 8 8 8 8 8 9 8 8 8 8 8 9 9 9 8 9 9 10 12 12 12 11 11 10 9 9 9 10 10 10 11 10 10 9 9 9 9 10 11 28 52 13 9 8 9 8 8 8 8 8 8 8 8 7 7 8 7 7 7 7 7 9
9 8 8 8 8 8 8 8 8 8 8 8 8 8 8 8 8 8 8 8 8 8 8 9 8 8 8 8 8 9 8 8 9 9 9 7 84 109 9 11 10 10 9 9 9 9 9 9 10 9 9 9 9 9 9 9 9 57 142 16 8 8 8 7 8 8 8 8 8 7 7 7 7 7 7 7 7 7 6 9
8 7 7 7 7 7 8 8 7 7 7 7 7 7 8 8 8 7 7 7 8 8 7 8 7 8 8 8 7 8 8 8 8 8 8 8 44 51 8 8 8 8 8 8 8 8 8 7 8 7 8 7 8 8 7 8 10 14 17 10 8 7 7 7 7 6 6 6 7 6 5 7 6 6 5 5 4 4 4 7
7 7 7 7 7 7 7 7 7 7 7 7 7 7 7 7 7 7 6 6 7 7 6 7 7 7 7 7 7 7 6 7 7 7 7 8 6 5 7 7 7 7 7 7 6 6 6 6 6 7 6 6 6 6 5 6 5 7 6 7 6 6 6 6 5 5 5 6 6 6 5 5 6 6 5 5 5 3 3 7
8 7 6 7 7 6 7 7 7 7 7 7 7 7 7 6 6 7 7 6 6 7 6 6 7 7 7 7 7 7 7 7 7 7 7 7 7 7 7 6 7 7 7 7 5 6 7 7 7 7 6 6 6 7 6 6 6 6 6 5 5 7 5 5 6 6 6 5 4 5 5 5 5 5 4 4 5 4 3 7
8 7 6 6 6 6 7 7 7 6 6 6 7 7 6 6 7 7 7 7 7 6 6 7 7 7 7 7 6 7 6 7 6 7 6 6 6 7 6 7 7 7 7 7 6 7 7 6 6 7 6 6 6 6 6 6 6 6 6 6 6 6 7 6 6 6 5 5 6 6 6 5 5 5 5 4 5 4 3 8
9 8 7 8 8 8 8 8 8 8 8 7 8 8 8 8 8 8 8 8 8 8 8 8 8 8 8 8 8 8 8 8 8 9 8 9 8 8 8 8 9 8 9 8 8 8 8 8 8 8 8 8 8 8 8 8 8 9 8 8 7 7 8 8 8 7 7 7 8 7 7 7 7 7 7 6 6 7 6 8
9 8 8 8 8 8 7 8 8 8 8 8 8 8 8 8 8 8 8 8 8 8 8 8 8 8 8 9 8 8 8 8 9 8 9 9 8 9 9 9 9 9 8 9 9 9 9 9 9 9 9 8 9 9 8 8 8 9 8 8 8 8 8 7 8 7 7 8 7 7 7 7 7 7 7 6 7 7 7 8
8 8 8 7 8 7 7 8 8 7 8 8 8 8 8 8 8 8 8 8 8 8 8 8 8 8 8 8 8 8 9 8 8 9 9 8 9 9 9 9 9 9 9 9 9 9 9 9 8 9 9 9 8 9 8 8 9 8 8 8 8 8 8 8 8 8 7 7 8 7 7 8 8 7 7 7 7 6 6 8
7 7 7 7 6 7 7 7 6 6 6 7 7 7 6 7 7 7 7 7 7 7 7 7 7 7 7 7 7 7 7 7 7 7 6 7 7 7 7 7 7 7 7 7 7 7 7 7 6 6 7 6 6 7 6 6 6 7 6 6 6 6 6 6 6 6 5 5 5 6 6 6 6 5 5 4 4 5 4 7
7 7 7 6 7 6 6 6 6 6 7 6 6 7 7 7 7 7 6 7 6 7 6 7 7 7 7 6 6 6 6 6 6 6 6 6 6 7 7 6 6 6 6 6 6 6 6 6 5 6 6 4 6 5 4 5 5 5 6 6 5 6 5 4 4 5 5 5 5 5 5 6 5 5 4 3 2 2 3 6
7 6 7 7 7 7 7 7 6 6 6 7 6 7 6 7 7 7 7 7 7 7 6 6 6 7 6 6 5 5 6 6 7 7 6 7 6 7 7 6 6 5 6 7 7 6 6 6 6 6 5 6 6 5 6 6 6 6 6 6 6 5 5 5 6 5 4 5 5 5 5 4 5 5 4 4 3 3 3 6
8 7 7 7 7 7 7 7 7 7 7 7 7 7 7 7 7 6 7 7 6 7 6 6 7 7 6 6 6 7 7 7 7 6 6 7 7 7 6 5 6 7 7 6 6 6 6 6 6 6 6 6 6 6 6 6 6 6 6 7 6 5 5 5 5 5 6 5 5 5 5 5 5 5 5 4 4 4 3 7
8 7 7 7 8 7 8 8 7 7 8 7 7 8 8 8 8 8 8 8 7 8 8 8 8 8 8 8 8 8 8 8 9 9 9 9 9 9 9 8 9 9 8 9 9 8 8 9 9 8 8 8 8 8 8 8 8 8 8 8 8 8 8 8 7 7 8 8 7 8 8 7 7 7 7 6 7 7 6 9
8 8 8 8 7 8 8 8 8 8 8 7 8 8 8 8 8 8 8 8 8 8 8 8 8 8 8 8 7 9 8 8 9 9 9 8 8 8 8 9 8 9 9 9 8 8 8 9 9 9 9 9 9 8 8 8 8 8 8 8 8 8 8 8 8 7 7 8 8 7 8 8 7 7 7 7 7 7 6 9
8 7 8 7 7 7 8 8 7 7 7 7 8 8 7 7 8 7 8 8 8 8 8 8 8 8 8 8 8 8 8 8 9 9 9 8 8 8 8 9 9 8 8 8 8 8 9 8 9 9 9 9 8 8 8 8 8 8 8 8 8 8 8 8 8 7 7 7 8 7 7 7 7 7 7 6 6 7 7 8
7 7 7 7 7 6 7 7 7 7 6 7 7 7 6 7 7 6 5 6 7 7 6 7 7 7 7 6 6 6 5 7 7 7 7 7 6 7 6 7 6 6 6 6 6 7 7 6 5 6 6 6 6 6 6 6 5 6 5 5 6 6 5 5 5 5 5 4 4 4 5 5 5 5 3 4 4 5 4 7
6 6 6 6 6 7 6 6 6 6 6 6 6 6 6 7 7 7 6 6 6 6 7 6 7 7 6 6 7 7 6 7 6 5 6 5 6 7 6 6 7 6 5 6 5 6 6 6 6 6 6 5 6 6 6 6 5 5 6 6 6 6 5 5 5 4 4 5 3 4 5 4 3 4 4 4 4 3 3 6
7 6 7 7 7 7 7 7 7 6 7 6 6 6 7 6 6 6 6 7 6 6 7 7 6 6 6 7 7 7 6 6 6 6 7 6 6 7 7 6 7 7 6 6 5 5 5 6 6 5 6 6 6 5 5 6 5 6 5 6 5 5 5 5 6 4 5 6 4 4 4 5 3 4 4 4 3 2 4 6
8 7 7 7 7 7 7 7 7 7 7 7 6 6 6 6 7 7 7 7 6 7 7 7 7 7 7 7 7 7 6 7 7 7 7 7 7 7 7 7 7 7 6 7 6 7 6 6 6 6 6 6 6 7 6 7 6 6 6 6 6 6 7 7 6 6 5 5 5 5 5 6 4 4 5 5 5 3 4 6
10 7 8 8 7 8 7 7 8 7 8 7 7 7 7 7 8 7 8 8 8 8 8 8 7 8 8 7 7 8 8 8 8 9 8 9 8 8 8 8 8 8 8 8 8 8 8 7 8 8 8 8 8 8 7 8 7 8 8 8 7 8 7 7 8 7 7 7 7 7 7 7 7 6 6 6 7 7 6 8
10 7 8 8 8 8 8 8 7 8 8 7 8 8 7 8 7 7 8 8 8 8 8 7 8 8 8 8 8 8 8 8 8 8 8 8 8 8 8 8 8 8 8 8 8 8 8 8 8 8 8 8 8 8 8 7 7 8 8 7 7 8 8 7 8 7 8 8 7 7 7 7 7 7 7 7 6 6 5 9
9 7 7 7 7 7 7 7 7 7 7 7 8 7 7 7 8 7 7 8 8 7 7 8 7 8 8 8 7 7 8 7 8 8 7 8 8 7 8 7 8 8 7 7 7 7 7 7 7 8 7 7 7 7 7 7 7 7 7 7 7 7 7 7 7 7 7 6 6 6 6 6 6 6 6 6 4 5 5 7
8 6 6 7 6 7 7 7 6 6 7 6 6 7 6 6 6 6 7 7 6 7 6 7 7 7 7 6 6 5 6 6 6 6 6 6 6 6 6 6 7 7 6 6 5 6 6 6 6 6 6 5 6 5 5 5 5 5 6 6 7 5 5 4 5 6 5 5 4 4 5 5 4 4 4 3 4 2 2 6
8 7 6 7 7 7 7 6 7 7 6 7 7 7 7 7 6 6 6 6 5 6 7 6 6 7 6 7 6 7 7 6 7 6 6 5 5 6 6 6 7 6 6 6 6 6 6 6 6 6 6 5 5 6 5 6 6 5 5 5 5 5 6 5 6 6 5 5 5 5 4 4 5 4 4 4 5 5 3 7
8 7 7 6 7 7 7 7 7 7 6 6 6 6 6 6 6 6 6 6 6 6 6 6 6 6 7 6 6 6 7 6 6 6 6 6 6 6 6 5 6 6 6 6 5 5 6 5 6 5 5 4 4 5 5 4 4 5 6 4 4 4 5 5 5 5 4 6 4 4 3 4 5 4 4 3 4 4 4 7
9 7 7 7 7 7 7 7 6 7 7 7 6 6 6 7 7 7 7 7 7 7 7 7 6 7 7 6 7 7 7 7 7 8 7 7 7 7 7 7 7 7 7 7 7 6 7 7 7 7 7 6 7 6 6 5 5 6 7 6 6 6 6 6 6 6 5 7 6 6 6 6 6 6 6 5 4 5 5 7
9 8 7 7 7 7 8 7 8 7 7 7 8 8 7 7 7 7 7 8 8 7 8 8 7 8 7 7 8 7 7 8 7 8 8 8 8 8 8 8 8 8 8 8 8 7 8 7 7 7 8 7 7 8 7 7 7 7 7 8 7 7 7 7 7 7 6 7 7 7 7 7 6 6 6 6 6 6 6 8
9 7 7 7 7 7 7 7 7 7 7 7 7 8 7 7 7 8 7 8 7 8 7 8 7 7 7 7 7 8 7 7 7 8 8 7 8 8 7 7 8 8 7 7 7 8 7 7 7 7 7 7 6 7 7 7 6 7 7 7 7 7 7 7 7 7 7 7 6 6 7 7 6 6 6 5 6 5 5 8
9 8 8 8 7 7 7 7 7 7 7 7 7 7 7 7 6 7 7 7 7 7 7 7 7 7 7 7 7 6 6 7 7 6 7 7 7 7 6 7 7 6 6 7 7 7 7 7 7 7 7 6 6 6 6 5 5 6 6 6 6 6 6 6 6 6 5 5 5 6 6 6 5 5 5 5 5 5 4 8
9 7 6 7 7 7 6 7 6 5 6 7 7 7 7 6 6 6 6 7 7 7 6 6 7 7 7 7 6 6 6 7 7 6 6 6 6 7 6 6 6 6 5 6 6 6 5 6 6 5 6 6 5 6 5 5 4 6 6 5 4 5 5 5 4 4 4 5 4 4 4 4 4 5 4 3 4 3 1 7
8 7 6 6 6 6 5 6 6 6 7 7 7 6 6 7 7 7 6 6 7 6 6 6 7 7 6 6 6 7 6 6 6 6 6 6 6 5 6 6 5 5 4 5 5 5 6 5 4 5 5 5 4 5 6 5 6 5 5 4 5 5 6 4 4 4 5 4 5 4 5 5 4 5 4 3 3 3 3 7
8 6 7 7 6 6 6 7 6 6 7 7 7 7 6 6 7 7 6 6 6 7 7 6 7 7 6 6 6 7 6 6 6 7 6 5 6 7 6 5 6 6 6 6 6 6 6 6 6 6 5 6 5 6 6 6 5 6 6 5 5 4 5 5 4 4 5 6 6 5 5 5 4 4 4 3 4 4 3 6
8 8 8 7 7 7 7 7 7 7 7 7 7 7 7 6 6 7 7 7 7 8 7 7 8 7 7 7 7 7 7 8 7 7 7 7 8 7 7 7 7 6 7 8 7 7 7 7 7 7 7 7 7 7 7 6 6 6 7 6 6 6 6 6 6 7 6 6 5 6 7 6 5 5 6 5 6 6 5 7
8 9 9 8 7 7 7 7 7 7 6 7 7 7 7 7 7 8 7 8 7 8 7 8 8 7 7 7 7 7 7 8 8 8 8 7 7 7 7 7 7 7 7 8 7 7 7 7 8 7 8 7 7 6 7 6 7 7 7 6 6 6 7 6 7 7 6 7 6 6 6 7 6 6 7 6 7 6 5 8
9 8 8 8 7 7 7 7 7 7 7 7 7 6 7 7 7 7 7 7 7 7 7 7 7 7 7 6 7 7 7 7 7 8 7 7 8 7 7 7 7 7 7 7 7 7 7 7 7 7 7 7 7 7 7 7 6 7 7 7 7 7 7 6 7 7 7 6 7 7 7 7 6 6 5 5 6 5 5 8
8 7 8 7 7 6 6 7 7 7 7 7 6 6 7 7 7 7 7 7 7 7 7 6 7 7 7 6 6 7 6 7 7 7 6 6 7 6 6 6 7 7 6 6 6 6 6 6 6 6 6 6 6 5 6 7 6 6 5 6 6 5 5 4 5 5 6 6 5 5 5 6 5 5 4 4 5 4 3 7
8 7 6 6 5 5 6 6 6 7 7 7 6 7 7 7 6 7 7 7 7 7 7 7 7 7 7 6 6 6 6 6 6 6 6 5 6 7 6 6 6 5 5 6 6 6 5 5 5 6 6 6 5 5 5 5 5 5 5 5 5 4 4 4 5 5 5 5 4 5 4 4 5 4 3 4 4 4 3 7
8 8 6 6 6 6 6 6 6 7 7 6 6 7 7 7 7 7 7 7 7 6 6 7 7 6 7 6 6 6 5 7 6 5 6 6 6 6 6 7 6 6 5 6 6 6 6 5 5 5 5 4 5 5 5 5 4 4 4 5 5 4 4 5 4 4 5 5 4 4 5 6 4 3 2 4 3 3 1 3
7 7 7 7 7 6 6 6 6 7 7 6 7 7 6 7 7 7 7 6 7 6 7 7 7 7 7 6 5 5 7 7 7 6 6 6 6 7 7 6 5 5 5 6 6 5 6 5 6 6 6 5 6 7 6 5 4 6 7 5 5 4 6 5 5 4 4 4 4 4 4 5 6 4 3 4 4 4 3 29
