P2
80 80
255
31 12 7 8 8 7 7 7 7 7 7 7 7 6 6 7 7 6 7 7 7 7 7 6 6 8 8 7 7 6 6 6 7 7 6 7 7 7 7 7 7 6 7 6 6 6 6 6 6 6 5 5 6 7 5 6 5 6 6 6 5 4 5 6 6 6 6 6 5 5 6 5 4 5 4 4 4 4 4 7
5 6 7 7 7 7 6 7 7 6 6 6 6 6 6 6 7 7 7 6 6 7 6 7 7 8 9 6 7 6 6 6 7 6 5 6 7 7 6 6 7 6 5 6 5 6 6 6 6 6 6 4 6 7 5 6 5 5 6 5 6 4 5 6 5 5 6 5 4 3 4 4 4 5 5 4 3 2 3 6
8 7 7 7 7 8 7 7 7 7 7 7 7 7 7 7 7 7 7 7 8 8 7 7 7 9 11 8 8 7 8 8 7 8 7 8 8 8 8 8 7 7 7 7 7 8 7 7 8 8 7 8 7 8 7 7 7 7 7 7 8 7 7 7 7 7 6 7 6 6 6 6 7 7 7 6 6 6 6 9
8 7 7 8 7 7 7 8 7 7 7 7 7 7 7 8 7 8 7 7 8 7 8 7 7 8 8 8 8 7 7 8 8 8 7 8 8 8 8 8 8 7 8 8 8 7 8 7 7 7 7 7 7 8 7 7 7 7 7 7 7 7 7 7 6 7 6 7 7 7 7 7 6 6 6 6 6 6 5 8
8 7 7 7 6 7 7 7 7 7 6 7 6 6 7 7 6 7 6 6 7 7 6 7 6 7 7 7 7 8 7 7 7 7 7 7 7 7 7 7 7 7 7 7 7 7 7 7 7 7 7 6 7 7 6 6 6 7 7 7 7 6 6 5 6 7 7 6 6 6 7 6 5 5 5 4 5 6 5 7
7 7 6 7 6 6 6 6 6 6 6 5 5 6 6 6 7 6 6 6 6 7 6 6 5 5 6 6 6 5 5 6 5 6 7 6 6 6 5 5 5 5 5 6 5 5 5 5 6 6 5 5 5 4 5 5 5 4 4 5 4 3 4 4 5 4 3 4 4 4 5 3 3 3 4 3 3 4 3 7
9 6 5 6 6 6 6 6 7 6 6 6 6 7 7 7 7 6 6 6 6 6 6 5 5 6 6 6 6 6 6 6 5 6 5 5 6 6 5 5 6 6 5 6 6 6 5 6 5 5 5 5 4 5 4 5 5 4 5 5 5 5 5 6 5 4 4 4 5 4 4 3 3 3 3 3 4 3 2 7
9 6 6 7 6 6 5 6 7 5 6 6 5 6 6 7 6 5 6 6 6 6 6 6 6 7 7 5 5 6 6 6 6 6 5 6 7 6 5 6 7 6 5 5 6 6 6 6 6 6 5 6 4 4 5 6 4 5 5 5 6 5 4 5 5 5 5 5 4 5 4 4 4 4 3 3 3 3 2 7
9 7 6 7 7 6 6 7 7 6 7 7 6 7 7 7 7 7 7 7 7 7 7 7 7 7 7 7 7 7 7 7 7 8 7 7 7 7 7 7 7 7 6 7 7 7 7 7 7 7 7 7 6 7 6 7 7 7 7 7 7 7 6 7 6 6 6 6 5 4 6 6 6 5 5 6 5 6 5 7
8 7 7 7 7 7 7 7 7 7 8 7 7 7 7 7 7 7 7 7 8 7 7 8 8 7 7 7 7 8 8 7 8 8 8 8 8 8 8 8 8 8 8 8 8 8 8 8 7 8 8 7 8 7 7 8 7 7 8 8 7 7 7 7 7 7 7 7 7 7 7 6 6 6 5 6 6 6 6 8
8 7 7 7 6 7 7 7 6 7 7 7 7 7 7 7 8 8 8 8 7 8 8 7 7 8 8 7 8 8 7 8 8 8 8 8 8 8 8 8 8 8 8 8 7 8 8 8 7 8 8 8 8 8 8 7 7 7 7 8 7 8 7 7 7 7 7 7 7 7 7 7 6 7 6 5 6 7 6 8
7 7 7 7 6 6 6 6 7 7 7 6 6 7 7 7 7 7 7 7 6 6 7 7 6 7 7 7 6 6 6 7 7 7 7 7 7 7 7 7 7 6 6 7 6 6 6 6 6 7 6 6 6 6 6 6 6 6 7 7 6 5 5 5 5 6 4 5 5 6 6 5 6 5 5 4 5 6 5 8
7 6 7 6 6 6 6 7 6 6 6 6 6 6 7 7 7 6 7 6 6 6 6 6 6 6 6 6 7 6 6 6 6 6 6 6 6 7 6 6 6 5 5 5 5 5 5 5 5 5 6 5 6 6 5 5 4 5 6 6 5 4 5 5 4 5 4 3 3 4 5 4 4 4 3 3 4 3 2 6
6 6 6 7 6 6 5 7 7 6 6 6 6 6 6 6 6 6 6 6 6 6 6 6 6 6 5 6 6 6 6 6 5 6 6 6 7 6 6 5 5 5 5 5 5 5 5 6 6 5 4 4 5 6 5 5 5 6 5 5 4 4 4 4 5 5 4 5 4 5 3 3 3 3 3 3 3 3 3 7
7 7 6 7 7 6 6 7 6 6 7 7 6 7 7 6 6 7 6 6 7 6 6 6 6 7 6 7 6 6 6 6 7 7 7 6 5 6 6 5 5 5 6 5 4 5 5 6 5 5 6 5 5 5 5 5 5 6 5 5 4 4 5 4 5 5 4 5 5 4 4 5 4 4 2 3 3 3 2 7
8 6 7 7 8 7 7 7 7 7 8 7 7 8 7 7 7 8 7 7 8 8 8 7 7 7 7 7 7 7 7 7 8 8 8 8 8 7 8 8 8 8 8 8 7 7 8 7 8 7 7 7 8 7 7 7 7 7 7 7 7 6 6 7 7 7 6 7 6 7 6 7 6 6 6 5 5 7 6 7
8 7 8 8 7 7 7 8 8 8 8 8 7 8 8 8 7 8 7 8 8 8 8 8 7 8 8 8 8 8 8 8 8 8 8 8 8 8 8 8 8 8 9 9 8 8 8 8 8 8 8 8 8 7 8 8 7 8 8 7 7 8 7 7 8 7 7 7 7 6 7 7 6 7 6 6 5 4 5 9
7 7 7 7 7 7 7 8 8 7 8 8 8 8 8 8 7 8 8 8 8 8 8 8 8 8 8 8 8 8 8 8 8 8 8 8 8 8 8 8 8 8 8 8 8 8 8 8 8 9 8 8 8 8 7 8 7 8 8 8 8 8 7 7 7 7 7 7 7 7 7 7 7 6 7 6 6 5 6 9
7 7 6 7 7 7 7 6 6 6 7 7 7 7 7 7 7 7 6 6 6 7 7 7 7 7 6 7 7 6 7 7 7 6 7 6 6 7 7 7 6 6 6 7 7 6 6 5 5 6 5 6 5 5 5 6 5 6 5 6 5 6 7 6 5 6 5 4 5 6 5 4 4 4 5 4 3 3 3 6
7 6 6 7 7 7 7 6 6 7 6 7 7 7 7 7 7 7 7 6 6 6 6 7 7 6 7 7 7 7 7 6 7 6 6 6 6 6 7 7 6 6 7 7 6 6 5 5 5 6 6 5 5 6 6 6 5 6 6 5 5 5 6 4 4 5 5 5 6 4 3 3 3 5 5 4 3 2 1 6
7 7 6 6 7 7 7 7 7 7 7 7 7 7 7 6 7 7 7 6 7 6 7 7 7 7 7 7 7 7 6 6 6 6 6 6 6 7 6 6 6 6 5 7 6 5 5 6 7 7 6 5 5 6 6 6 6 6 6 6 6 5 5 4 5 6 5 5 6 5 4 4 3 4 4 4 3 3 2 6
7 7 7 6 7 7 7 7 8 7 7 6 7 7 7 7 7 7 7 7 7 7 7 7 7 7 7 6 7 7 7 7 7 7 7 7 7 7 7 7 7 6 6 7 6 6 6 7 7 7 6 5 6 6 6 6 6 6 6 6 6 5 5 5 6 6 6 5 4 4 5 5 3 4 5 4 3 3 2 6
8 7 7 8 8 7 8 8 7 8 8 8 7 8 8 8 8 8 8 8 8 8 8 7 8 8 8 8 8 8 8 8 8 8 8 8 8 8 8 8 8 8 8 8 8 8 8 8 8 8 8 8 8 8 8 7 7 7 8 8 7 7 7 7 8 8 7 6 7 6 6 7 6 7 7 6 6 5 4 7
8 7 8 8 8 8 8 8 8 8 8 8 8 8 8 7 8 8 8 8 8 8 8 8 8 8 8 8 8 8 8 8 8 9 8 9 9 9 9 9 8 8 9 8 9 9 8 8 8 8 8 8 8 9 8 7 7 8 8 8 7 8 7 7 8 7 7 7 7 7 7 7 7 7 7 7 7 5 4 8
8 7 7 7 8 7 7 8 8 7 8 8 8 8 7 8 8 8 8 8 7 8 8 8 8 8 8 8 8 8 8 8 8 8 8 8 9 8 9 9 8 8 8 8 8 8 8 8 8 9 8 8 9 8 8 8 7 8 8 7 8 7 6 7 7 7 7 7 6 7 7 7 6 7 6 7 6 5 4 8
7 7 6 6 7 7 6 7 7 7 6 6 7 6 7 7 7 6 7 6 7 7 7 7 7 7 7 6 7 7 7 7 7 7 7 7 7 7 7 7 6 6 7 7 6 6 7 7 6 6 7 8 4 7 7 6 5 6 6 5 5 5 6 5 5 5 5 6 5 5 4 5 4 4 4 4 3 3 3 6
6 6 7 6 7 7 7 7 6 6 6 6 6 6 7 6 6 7 7 7 7 6 7 6 6 7 7 7 7 7 7 7 10 10 8 7 7 6 6 6 6 6 6 6 5 7 6 5 6 6 6 10 68 25 6 6 6 6 5 4 6 5 6 5 5 5 5 5 4 5 5 4 4 5 5 5 3 3 2 6
7 6 6 7 6 7 6 6 7 6 6 7 6 7 7 7 7 7 6 7 7 6 7 7 6 6 6 7 7 7 7 7 20 122 25 6 7 7 7 7 6 6 6 7 6 6 6 5 6 7 6 13 105 29 5 6 6 6 6 6 6 6 6 6 5 6 5 5 5 5 5 5 5 5 5 3 5 4 3 7
8 7 7 8 7 8 7 7 7 6 7 7 7 7 7 7 7 8 7 8 7 7 8 7 7 7 7 7 7 8 8 8 14 59 20 8 8 8 8 8 8 8 8 8 7 7 7 7 7 8 7 9 5 8 8 7 7 7 7 7 6 7 7 6 6 7 5 6 6 6 5 6 6 6 5 5 5 4 5 7
8 8 8 8 8 8 8 8 8 8 8 8 8 8 8 8 8 8 8 8 9 8 8 8 8 8 8 8 9 9 9 9 10 7 10 10 9 9 9 9 9 9 9 9 9 9 9 9 9 9 8 9 8 9 8 9 8 8 8 8 8 8 8 8 8 8 8 7 7 8 7 8 7 7 8 7 8 6 6 9
8 8 8 8 8 8 8 8 8 8 8 8 8 8 9 8 9 8 8 9 8 8 8 9 9 8 9 8 9 9 8 9 9 9 9 9 9 9 9 9 9 9 9 9 9 9 9 9 9 9 9 9 9 9 8 8 8 8 9 8 8 8 8 8 8 8 8 8 7 8 8 8 7 8 7 7 7 7 6 9
8 7 8 7 8 8 7 7 8 7 8 7 7 8 8 8 8 8 8 8 7 8 7 8 8 8 8 8 8 8 8 8 8 8 8 8 8 8 8 8 9 8 8 8 8 8 8 8 8 8 8 7 8 7 8 7 7 8 8 8 8 7 7 7 7 7 7 7 7 7 6 7 7 7 6 6 5 6 6 8
7 7 7 7 7 7 7 7 7 7 7 7 6 6 7 7 7 7 7 7 6 7 7 7 6 7 7 6 7 7 7 7 7 7 6 6 7 7 7 7 7 6 5 6 7 6 6 6 7 6 7 6 6 7 6 6 6 7 6 6 6 6 6 6 6 6 5 6 6 6 5 6 5 5 4 4 4 4 3 6
7 7 7 7 6 6 7 7 7 6 7 7 6 7 7 7 6 7 6 7 7 7 7 7 7 7 7 7 7 7 6 7 7 7 7 7 7 7 7 7 7 7 6 7 6 6 7 7 6 6 6 6 6 6 6 6 6 6 5 6 6 5 6 6 6 6 6 7 6 6 6 6 4 5 4 4 4 4 5 7
8 7 7 7 7 6 6 7 7 7 7 6 7 7 7 7 7 7 7 7 7 7 7 7 6 7 7 7 7 7 6 6 6 7 6 7 6 7 7 6 6 6 6 6 6 6 7 6 6 6 6 6 6 6 6 6 6 6 6 6 6 5 6 6 6 6 5 6 6 6 5 5 5 4 4 3 3 4 3 7
8 8 8 8 7 8 8 8 8 7 7 7 8 7 8 7 8 7 8 7 8 8 8 8 8 8 8 8 8 8 8 8 8 8 8 8 8 8 8 8 8 8 8 8 7 8 8 8 8 7 7 7 7 8 7 7 7 8 8 7 7 6 7 7 7 6 6 6 7 7 7 7 6 6 6 6 5 5 6 9
9 8 8 8 8 8 8 8 8 8 8 8 8 8 8 8 8 8 8 8 8 8 8 8 8 9 8 9 8 8 8 9 9 9 9 9 9 9 9 9 9 9 9 9 9 9 9 9 9 9 9 8 9 9 9 8 8 9 8 8 8 8 8 8 8 8 8 8 8 8 8 8 8 8 8 7 7 7 7 9
9 8 8 8 8 8 8 8 8 8 8 8 8 8 8 8 8 8 8 8 8 8 8 8 8 8 8 8 9 9 8 9 9 9 9 9 9 9 9 9 9 9 9 9 9 9 9 9 9 9 9 9 9 9 9 8 9 8 8 8 8 8 8 8 8 8 7 8 8 8 8 8 7 8 7 7 7 7 7 8
8 7 7 7 7 7 7 7 7 7 7 8 7 8 7 8 7 8 7 8 7 7 7 7 7 7 7 7 8 7 7 7 8 7 7 7 7 8 7 7 7 8 8 7 8 8 8 8 8 7 8 7 7 8 7 7 8 7 7 7 7 6 6 6 7 7 6 7 6 6 6 6 5 6 6 6 5 5 4 8
7 7 7 6 6 7 6 7 7 7 6 7 7 7 7 6 7 7 7 7 6 7 7 7 7 7 7 6 6 7 6 7 6 5 7 7 6 6 6 6 6 7 6 6 5 7 7 6 6 7 7 6 6 6 5 5 5 6 6 6 6 6 5 6 6 5 5 5 5 6 6 5 4 4 4 4 4 3 3 6
6 6 6 7 6 6 7 7 7 6 6 6 6 7 7 7 7 7 6 6 7 7 6 7 7 7 7 6 7 7 6 7 6 6 7 7 7 6 6 6 7 6 6 7 5 6 7 6 6 6 7 6 6 6 6 6 6 6 5 6 6 5 6 6 6 5 4 5 5 4 5 5 4 4 4 3 3 4 3 7
7 7 7 7 6 7 7 7 7 7 6 7 7 7 7 7 7 7 7 7 7 7 7 7 7 7 7 7 6 7 7 7 7 7 7 7 7 7 7 7 7 6 6 6 7 7 7 7 7 6 7 6 6 6 6 7 6 6 6 7 6 5 6 6 6 6 5 5 6 5 5 5 5 5 5 4 4 3 4 7
8 8 8 8 8 8 8 8 8 8 8 8 8 8 8 8 9 8 8 8 8 8 8 8 8 8 8 8 8 8 8 8 9 9 9 8 9 9 9 9 9 9 9 8 9 9 9 9 8 9 9 9 8 9 8 8 8 9 8 8 8 8 8 8 7 8 7 7 7 8 8 7 7 7 6 6 6 6 6 8
8 8 8 8 8 8 8 8 8 8 8 8 8 9 9 8 8 8 9 8 8 8 8 8 8 8 9 9 8 8 9 8 9 9 9 9 9 9 9 9 9 9 9 9 9 9 9 9 9 9 9 9 9 9 9 8 8 9 8 8 8 8 8 8 8 8 7 8 8 8 8 8 7 7 7 7 7 6 7 9
8 8 8 8 8 8 8 8 8 8 8 8 8 8 8 8 8 8 8 9 8 8 8 9 9 8 9 9 9 9 9 9 9 9 8 9 9 9 9 9 9 9 9 9 9 9 9 9 9 10 10 9 11 6 7 9 8 8 9 8 8 8 8 8 8 8 7 7 8 7 7 8 7 7 7 6 7 7 6 8
8 6 7 7 7 7 7 7 7 7 7 7 6 7 7 7 7 7 7 7 7 8 7 7 7 6 7 7 7 7 7 7 8 10 14 10 9 8 8 8 8 8 8 8 8 8 8 8 8 8 8 8 9 74 40 6 7 7 6 6 7 5 7 5 6 6 6 6 6 5 5 5 5 6 5 6 5 4 3 7
7 6 7 7 7 7 7 7 7 6 6 6 7 6 7 7 7 7 7 7 7 6 6 6 6 5 6 7 6 7 7 7 6 31 132 18 7 7 7 7 7 7 6 7 6 6 6 6 6 6 6 7 8 84 45 5 7 6 5 5 6 5 5 6 6 6 5 4 4 5 5 5 3 4 5 4 3 2 2 7
7 7 7 7 7 7 7 7 7 7 7 7 6 7 7 7 6 7 7 7 7 6 7 6 7 6 7 7 7 7 7 7 7 15 42 12 7 7 6 6 6 6 6 7 6 6 6 6 6 6 6 7 8 5 6 7 7 7 6 5 5 6 4 4 5 6 6 4 4 5 5 4 4 4 5 3 3 3 2 6
7 7 7 7 7 7 6 7 7 6 6 7 7 7 7 7 7 7 7 7 7 7 7 7 7 7 7 7 7 7 7 7 7 8 6 8 7 7 7 7 7 7 7 7 7 6 6 7 7 6 6 7 7 7 7 6 7 7 6 6 7 6 6 5 6 6 6 6 5 5 6 6 5 5 5 5 5 5 4 7
8 8 8 7 8 8 8 8 8 8 8 8 8 8 8 8 8 8 8 8 8 8 8 8 8 9 8 8 8 8 8 9 9 9 9 9 9 9 9 9 8 9 9 9 9 9 9 9 9 8 9 8 8 9 8 9 8 8 8 8 8 8 8 8 8 7 7 7 7 7 7 7 7 7 7 7 6 7 6 8
8 8 7 8 8 8 7 8 8 8 8 8 8 8 8 8 8 8 8 8 8 8 8 8 9 8 8 8 8 9 9 9 9 9 9 9 9 9 9 9 9 9 9 9 9 9 9 9 9 9 8 8 9 8 8 8 9 8 8 8 8 8 8 8 7 7 7 7 7 7 7 7 7 7 5 7 7 6 7 9
8 7 7 7 7 8 8 7 8 7 8 8 8 7 8 8 8 8 8 8 8 8 7 8 8 8 8 8 8 8 9 8 8 8 8 8 9 8 9 9 8 9 8 8 8 8 8 9 9 8 8 8 8 8 7 7 8 8 8 7 8 8 7 7 7 8 7 6 7 7 7 6 7 7 6 6 6 6 7 9
7 7 7 7 7 7 7 7 7 7 7 7 7 7 7 7 7 7 7 7 6 7 6 6 7 7 7 7 6 7 7 7 7 7 7 6 7 7 7 6 7 7 6 6 7 7 7 6 6 6 6 6 6 7 6 7 7 5 6 6 6 6 6 6 5 5 5 5 5 6 5 5 5 5 5 4 5 5 4 8
7 7 7 7 7 7 6 6 7 6 7 6 7 7 7 6 7 7 7 7 6 6 6 6 6 6 7 6 6 7 6 6 6 7 6 7 6 6 7 6 6 6 6 7 5 6 7 6 6 6 6 5 6 6 6 6 6 6 7 7 6 7 6 5 5 5 6 5 5 5 5 5 5 4 4 3 3 4 4 6
6 7 7 6 7 7 7 7 7 6 7 7 7 7 7 6 6 7 7 6 7 6 7 7 6 6 6 6 7 7 6 7 7 7 7 6 6 6 6 5 5 5 6 6 5 5 6 6 7 6 6 6 5 6 5 6 6 6 6 5 6 6 5 5 4 5 5 4 5 5 5 5 5 5 4 3 3 3 2 6
7 7 7 7 7 7 7 7 7 7 7 7 7 7 7 7 7 7 7 7 8 7 7 7 8 7 7 7 7 7 7 8 7 7 7 7 7 7 7 7 7 7 7 6 7 7 7 6 7 7 7 7 7 7 6 6 6 6 6 5 6 6 7 6 6 5 6 6 6 6 6 5 6 5 5 4 5 5 4 7
8 7 8 8 7 8 7 7 8 7 8 8 8 8 8 8 7 8 8 8 8 8 8 8 8 8 9 8 8 9 8 8 8 9 9 9 8 8 9 9 9 8 8 8 9 9 9 8 8 8 8 8 8 8 7 8 8 8 8 8 7 8 8 7 8 8 8 7 7 7 7 7 6 6 6 6 7 7 6 8
8 8 7 8 8 8 8 8 8 8 8 7 7 8 8 8 8 8 8 8 8 8 8 8 8 8 9 8 8 9 9 8 9 9 9 9 9 8 9 8 8 8 8 8 9 9 9 9 9 8 8 8 8 8 8 8 8 8 8 8 8 8 7 8 7 7 7 7 7 7 7 7 6 7 7 7 7 6 6 8
8 7 7 7 7 7 7 7 7 7 7 6 6 8 8 7 7 8 8 7 7 8 7 8 8 8 8 7 8 8 8 8 8 8 8 8 7 8 8 7 7 8 7 8 8 8 7 8 7 7 7 7 7 7 7 8 7 7 7 7 7 6 7 6 7 7 6 7 6 7 7 7 6 7 6 6 6 5 6 8
7 7 6 6 7 7 6 7 6 7 6 7 6 6 7 7 6 7 7 6 6 7 6 6 6 7 6 7 5 6 6 6 6 6 6 6 6 7 6 6 6 6 6 6 6 6 6 6 6 5 5 5 5 6 6 6 6 6 5 5 5 5 6 5 5 5 4 5 5 5 5 5 5 5 4 4 5 3 3 6
7 6 6 7 6 6 6 7 7 7 7 6 6 7 6 7 7 6 7 6 6 6 6 7 6 7 7 6 6 7 6 7 5 6 6 6 6 7 7 6 6 7 5 6 5 6 6 6 5 6 6 5 5 6 6 6 5 5 5 5 5 5 5 5 5 5 5 5 4 4 5 4 4 4 4 4 4 4 3 6
7 7 7 7 6 6 6 7 7 6 6 6 6 6 7 6 7 6 7 7 7 7 6 7 7 7 7 6 6 7 6 6 7 6 6 5 7 6 6 5 6 6 5 6 5 5 5 6 5 5 6 5 5 5 6 6 5 6 5 5 5 5 5 5 6 6 5 5 4 5 5 4 4 2 3 5 4 4 3 7
8 7 7 7 7 7 7 7 7 7 7 7 6 7 7 7 8 8 7 7 7 7 8 7 8 7 7 7 7 7 8 7 8 7 7 7 7 8 8 8 7 7 7 7 7 7 7 7 7 7 7 6 7 7 7 7 7 7 6 6 6 6 7 7 7 6 6 6 5 7 6 6 6 6 5 6 6 5 5 8
8 8 7 8 8 7 7 7 8 7 7 7 7 7 8 7 7 8 7 8 8 8 8 8 8 7 8 8 8 8 8 8 9 8 8 8 8 8 8 8 8 9 9 8 8 9 8 8 8 8 7 7 7 8 8 7 8 8 8 8 7 8 8 8 8 7 7 7 7 7 7 7 7 7 7 6 7 7 6 9
8 8 7 8 8 8 8 8 8 7 8 7 7 7 8 7 7 8 7 8 8 7 7 7 8 7 8 8 8 8 8 8 8 8 8 8 8 8 8 8 8 8 8 8 8 8 8 8 7 8 7 8 8 7 7 7 7 8 8 8 7 7 8 8 7 8 7 7 7 7 6 6 7 7 6 6 6 7 7 9
8 7 7 7 6 7 6 7 7 7 7 6 7 7 7 7 7 7 6 7 7 7 7 7 7 7 7 7 7 7 7 7 7 7 7 6 7 7 7 7 7 7 7 7 6 6 7 6 7 7 7 7 6 6 7 6 6 6 6 6 6 5 6 6 6 6 6 5 4 5 5 5 5 5 5 5 5 6 4 8
7 6 6 6 6 6 6 7 6 6 6 6 7 7 6 6 5 7 6 7 6 7 6 7 6 6 7 7 6 7 6 6 6 7 6 6 6 6 6 6 6 6 6 5 5 6 6 5 5 6 5 4 5 5 5 5 5 5 5 5 6 5 5 5 5 5 5 4 4 4 5 5 5 4 4 3 3 3 3 7
7 6 6 6 7 6 6 7 7 5 6 6 7 7 7 6 6 6 6 7 6 6 6 7 6 7 6 6 5 6 6 6 6 6 7 6 6 7 7 6 6 6 5 7 7 6 5 5 6 6 5 6 6 6 4 5 5 4 5 5 4 5 4 5 5 5 5 5 5 5 5 4 4 3 4 4 3 4 3 6
7 5 7 7 7 6 6 7 7 6 7 7 7 7 7 7 7 6 7 7 7 6 6 7 7 7 6 7 6 6 6 6 6 7 7 6 7 7 7 6 6 7 6 7 6 6 5 6 6 6 6 7 6 6 6 5 5 5 6 6 6 5 5 5 6 5 5 5 6 6 6 5 5 4 4 4 3 3 3 7
8 7 7 7 7 7 8 8 7 7 7 7 7 7 7 7 7 8 8 8 7 7 8 7 8 8 8 8 7 7 8 8 8 8 8 7 8 8 8 8 8 8 7 8 8 8 7 8 7 8 7 7 7 7 7 7 7 7 7 7 7 7 7 7 7 7 7 7 6 7 7 6 6 7 6 5 5 6 6 8
8 7 8 7 7 7 7 7 8 7 7 7 8 7 7 7 7 7 8 7 8 7 7 7 7 7 8 8 8 8 8 8 8 8 8 8 8 8 8 8 7 8 8 8 7 7 7 8 8 7 7 7 7 6 7 7 8 8 7 7 7 7 7 7 7 7 6 6 6 7 6 7 6 7 6 6 6 6 5 8
8 6 8 8 7 7 7 7 7 7 7 7 8 7 8 7 7 7 7 7 7 8 8 7 7 7 8 7 7 7 7 8 7 7 8 8 8 8 8 7 8 7 8 8 7 7 8 8 7 6 7 7 7 7 7 7 7 7 7 7 7 7 7 7 6 7 6 7 7 7 6 7 6 6 7 6 6 6 5 8
8 7 6 7 7 7 7 6 6 6 7 7 7 7 7 7 6 7 7 7 7 7 7 7 7 7 7 7 7 7 7 6 6 7 6 6 7 7 7 6 7 7 6 7 6 6 6 6 5 6 6 6 6 6 6 5 5 7 6 5 6 6 5 5 5 6 7 6 5 6 5 5 5 5 5 4 4 4 4 7
8 7 6 7 7 7 6 7 7 6 6 7 6 6 7 7 6 6 6 6 5 7 7 6 6 7 6 7 7 7 7 7 7 6 7 6 6 7 6 5 6 4 5 6 5 5 6 5 4 4 5 5 5 4 6 5 5 5 6 6 6 6 6 6 5 6 5 5 5 4 5 5 5 5 3 4 4 3 4 7
8 7 6 7 7 6 6 7 6 7 7 7 7 7 7 7 6 6 7 7 6 7 7 7 6 7 6 6 7 7 6 7 6 6 6 6 6 7 6 6 7 6 6 7 6 6 6 5 5 6 6 4 5 5 6 6 5 6 5 6 6 5 6 5 6 5 4 4 4 4 5 5 4 3 3 3 3 3 3 7
7 6 7 7 7 6 6 7 6 6 7 6 6 7 7 6 6 7 7 7 7 7 7 7 6 7 7 6 7 6 6 7 7 7 6 6 7 7 7 7 7 6 6 7 6 6 6 6 7 7 6 5 5 6 6 5 5 5 6 6 5 6 6 5 6 5 5 5 6 5 5 5 5 5 4 4 4 4 3 7
8 8 8 8 7 7 7 8 7 8 8 8 7 8 8 7 8 8 7 7 7 7 8 8 8 7 7 7 7 7 8 8 7 8 7 8 8 7 7 8 7 8 8 8 7 8 7 7 8 7 7 7 8 7 7 7 7 7 7 7 7 7 7 6 7 6 7 7 6 7 7 7 6 6 7 6 6 6 5 8
9 9 8 7 7 7 7 7 7 7 8 7 8 8 8 8 7 7 7 8 7 7 7 7 7 6 7 7 7 8 8 8 8 8 7 8 8 8 7 7 8 7 7 8 7 8 7 7 8 8 8 7 7 7 7 8 7 7 7 8 7 8 7 7 7 7 7 7 6 6 7 7 6 7 6 6 6 6 5 8
9 8 8 7 8 7 7 7 7 7 7 7 8 8 8 7 8 7 7 7 7 7 7 7 7 6 7 7 7 7 8 7 7 8 7 7 7 8 7 7 8 7 7 7 7 7 7 7 7 7 7 7 7 7 7 7 6 7 7 7 7 7 7 7 7 7 6 7 7 6 6 6 6 6 6 6 6 5 5 6
8 8 7 6 6 6 5 6 6 6 6 7 7 6 7 7 7 7 7 7 7 7 7 7 7 7 6 6 7 6 7 7 6 7 6 6 6 7 7 7 7 7 6 6 7 6 6 6 5 5 5 5 6 6 5 5 6 6 5 6 5 4 5 4 5 6 4 4 5 5 5 5 6 5 4 6 5 3 3 29
