P2
80 80
255
31 12 8 8 8 8 8 8 8 8 8 8 7 7 8 8 7 7 7 8 8 8 7 8 8 9 9 8 8 8 8 9 9 9 8 8 9 9 8 8 9 8 8 9 8 8 8 7 8 8 8 8 8 8 8 9 9 8 7 8 7 7 7 8 8 8 8 7 7 8 7 7 6 6 7 6 6 6 5 8
5 6 6 6 7 7 6 7 7 6 6 7 6 6 7 7 6 6 6 6 7 7 6 6 6 8 7 6 6 7 6 6 6 6 6 6 6 7 7 5 6 6 6 6 5 6 5 5 5 5 5 5 6 6 6 6 6 5 6 6 4 5 5 4 5 5 4 4 4 5 5 5 4 3 4 4 4 4 3 6
7 7 7 7 7 6 7 6 6 6 6 6 6 7 7 7 7 6 6 6 6 7 7 6 6 7 8 6 6 7 6 6 6 6 5 6 7 6 7 5 6 6 6 6 5 6 5 5 6 6 5 5 5 6 5 6 6 5 6 6 6 5 4 4 5 5 4 5 5 4 5 5 4 4 4 3 3 3 3 7
7 7 6 7 7 6 7 6 6 6 6 7 6 7 7 6 7 6 5 6 6 7 6 7 6 7 8 5 5 6 6 6 6 5 5 6 6 7 6 4 6 5 5 6 5 5 6 5 5 5 5 6 5 6 5 5 7 5 5 5 5 5 3 4 4 5 5 4 3 3 3 5 5 4 3 3 4 4 3 6
7 7 7 6 7 6 6 6 7 6 5 6 6 7 7 6 6 7 6 6 6 7 7 7 6 6 7 7 6 7 6 7 7 7 6 6 7 7 6 6 6 6 6 6 5 6 6 6 6 6 6 6 5 6 6 6 6 5 6 6 6 6 6 5 4 6 5 5 5 5 5 4 4 4 3 3 3 5 3 6
8 7 7 7 7 7 7 7 7 7 6 6 6 6 7 7 7 7 7 7 7 7 7 7 7 6 7 7 7 7 7 8 7 7 7 7 8 7 7 7 8 7 7 7 7 7 7 7 7 7 7 7 7 7 7 7 7 7 7 7 6 7 7 6 7 7 6 6 7 7 6 6 5 5 5 5 6 6 5 8
8 7 7 7 6 7 6 7 7 7 7 7 7 7 7 7 7 7 7 7 7 7 7 7 7 7 7 7 7 7 7 7 7 8 8 7 8 8 8 8 8 8 7 7 8 7 7 7 7 7 7 7 6 7 7 7 7 7 7 6 7 6 7 7 7 6 7 6 6 7 6 6 6 6 5 5 6 6 5 8
7 7 7 7 7 7 6 6 7 6 6 6 7 6 7 7 7 7 7 7 7 7 7 7 7 7 7 6 7 7 7 7 8 7 7 7 7 7 7 7 8 7 7 7 7 7 7 7 7 7 7 7 7 7 7 7 6 6 7 6 6 5 6 7 6 6 6 6 7 6 5 5 6 5 5 6 4 5 4 8
7 7 7 7 7 7 7 7 6 6 5 6 6 5 7 7 7 6 6 6 6 7 7 6 7 7 6 6 6 7 6 6 6 6 7 7 6 7 6 6 6 6 4 6 6 6 5 5 6 6 6 6 5 6 6 6 5 5 5 4 4 5 5 5 5 5 4 5 5 4 4 6 4 4 4 4 3 4 3 5
7 7 7 7 6 7 7 7 7 7 7 7 6 7 7 7 6 6 6 7 6 6 6 7 7 6 6 6 6 6 6 7 6 6 6 6 6 7 6 6 6 5 4 7 6 6 5 5 5 6 6 5 4 5 4 5 5 5 5 5 5 4 5 4 5 5 5 5 3 4 4 4 4 5 4 3 3 3 2 6
7 7 7 6 6 7 7 7 6 6 6 6 6 6 7 7 6 7 6 7 7 6 6 7 7 6 6 6 6 6 6 6 6 6 5 6 6 7 6 6 6 6 5 6 6 5 5 6 6 6 5 5 6 6 5 5 5 5 5 6 5 6 5 5 6 4 5 4 4 4 5 4 4 4 4 3 4 3 3 6
7 7 6 7 6 7 7 7 7 6 7 7 6 6 7 7 7 7 7 7 7 6 7 7 7 7 7 7 7 6 7 7 7 7 6 7 7 7 7 7 7 6 6 7 7 7 7 7 6 7 7 7 7 7 7 6 6 6 7 7 6 7 6 6 7 6 6 5 5 6 6 5 5 5 5 5 6 5 4 7
8 7 7 8 7 7 7 8 7 7 7 7 7 7 7 7 7 8 8 8 8 8 8 8 7 8 8 8 7 8 8 8 8 8 7 8 8 8 8 8 8 8 8 9 8 8 8 8 8 8 8 7 8 8 8 7 7 7 8 8 7 7 7 7 7 8 7 8 7 7 7 8 7 7 7 6 6 7 7 9
7 7 8 8 7 7 7 7 7 7 7 7 7 7 8 8 8 8 8 8 8 8 8 8 7 8 8 8 8 8 8 8 8 8 8 8 8 8 8 8 8 8 7 8 8 8 8 8 8 8 8 8 8 7 8 7 8 7 7 7 7 7 7 7 7 7 7 8 6 7 7 7 7 7 6 6 7 6 5 9
7 7 7 7 7 7 7 7 6 7 8 7 7 7 8 7 7 7 7 7 7 7 7 7 7 7 7 7 8 7 7 7 7 7 7 7 7 7 7 7 6 7 7 7 7 6 6 7 7 7 7 6 7 7 7 6 6 7 7 7 6 6 7 7 5 5 6 7 6 5 6 6 6 7 5 5 6 5 5 8
7 6 6 7 7 6 6 6 6 6 7 7 6 7 5 5 6 6 7 6 7 6 7 7 6 6 7 6 6 6 6 6 7 7 6 6 5 6 6 6 6 5 5 5 5 5 5 6 6 6 6 5 6 6 5 6 5 5 5 5 4 5 5 5 5 5 4 5 4 3 4 4 5 5 5 4 2 2 2 6
7 6 6 7 7 6 7 7 7 6 7 7 6 7 7 6 7 6 7 7 6 7 7 6 6 7 6 7 7 6 7 7 7 6 5 7 7 6 7 6 6 6 6 6 5 6 6 6 6 6 7 6 5 5 6 6 6 6 6 6 5 5 5 5 5 6 5 5 5 4 5 5 4 5 4 4 3 4 3 7
7 6 7 7 6 6 6 7 7 6 7 7 7 7 7 7 7 7 6 7 7 7 7 6 7 6 6 6 6 6 6 7 6 6 6 7 6 7 6 6 7 6 6 6 6 6 5 6 6 6 6 5 5 5 5 6 5 6 6 5 4 5 5 5 5 6 5 4 4 4 5 5 5 5 4 3 4 4 3 6
8 7 7 7 7 7 7 8 7 7 8 7 7 7 8 7 8 8 7 7 7 8 8 8 7 8 7 8 7 7 8 8 7 8 8 7 7 8 8 7 8 8 7 8 8 8 8 7 8 8 7 6 7 7 6 7 7 7 7 7 7 7 7 7 7 6 6 6 7 7 6 6 7 7 6 5 5 5 5 8
8 7 8 8 8 8 7 8 7 8 7 7 8 8 8 8 8 8 8 8 8 8 8 8 8 8 8 8 8 9 8 9 9 8 8 8 8 8 8 8 8 8 8 9 8 9 9 8 8 8 8 8 8 8 8 8 8 8 8 8 7 7 8 7 7 7 7 7 8 7 7 7 7 7 7 7 6 5 6 8
8 8 8 8 7 8 8 8 8 7 8 8 8 8 8 8 8 8 8 9 8 8 8 8 8 8 9 9 8 9 9 8 8 8 9 8 8 9 9 9 8 8 8 9 9 8 8 9 8 8 8 8 8 8 8 8 8 8 8 8 8 8 8 8 8 7 7 7 7 7 7 7 7 7 7 7 5 6 6 8
7 6 7 7 7 7 7 7 7 7 7 7 7 8 7 7 7 7 7 7 7 7 7 7 7 7 7 6 7 8 7 7 7 7 8 7 8 7 7 6 7 6 6 6 7 7 7 7 7 7 6 6 7 6 7 7 7 7 6 7 5 6 6 6 6 6 5 6 6 6 6 6 6 5 5 5 4 4 2 7
7 6 6 7 7 7 7 7 7 6 6 6 7 6 7 7 7 6 6 6 6 6 7 6 6 6 6 6 6 7 6 6 6 6 6 6 7 6 6 4 5 6 5 5 4 5 6 6 5 5 5 5 5 5 5 5 6 5 5 5 4 5 5 5 5 5 4 4 4 4 4 4 4 4 5 3 2 2 2 6
7 6 6 6 6 7 6 7 7 7 6 6 6 6 6 7 6 6 6 7 6 7 6 7 6 6 7 6 6 6 6 7 7 6 6 6 6 7 6 6 6 6 6 5 5 6 6 5 6 6 6 6 6 5 6 5 5 5 6 6 6 6 6 6 6 6 5 6 5 5 5 5 4 4 4 3 3 2 2 6
7 6 6 6 6 6 7 7 7 7 7 7 7 7 7 7 6 7 6 6 7 6 6 7 7 6 7 6 7 7 6 7 7 7 7 7 7 7 7 7 7 6 6 7 6 6 7 6 6 5 6 6 6 6 6 5 6 7 7 5 5 6 6 5 6 5 5 6 5 6 5 4 4 5 4 3 3 3 2 7
8 7 7 8 7 7 7 8 7 7 8 8 8 8 8 8 8 8 8 7 8 8 8 8 8 8 8 8 8 8 8 8 9 8 9 8 8 9 8 8 8 8 8 8 8 8 9 9 8 8 8 8 8 8 7 7 7 8 7 8 8 8 8 7 7 7 7 7 7 7 7 7 6 6 6 6 5 4 4 8
8 8 8 8 8 8 8 8 8 8 8 8 8 8 8 8 8 8 8 8 8 9 9 8 8 8 9 8 8 9 8 8 9 9 9 9 9 9 9 9 9 9 9 8 9 9 8 8 8 9 9 9 9 8 8 8 8 8 8 8 8 8 8 8 8 7 7 8 8 8 8 7 7 7 7 7 6 5 4 8
8 7 7 8 8 7 8 8 8 8 8 8 8 8 8 8 8 8 8 8 8 8 8 8 8 8 8 8 8 8 8 8 8 9 9 9 9 9 9 8 9 8 8 8 9 8 8 8 8 9 8 8 8 8 8 7 8 8 8 8 8 8 8 8 7 7 7 7 7 8 8 7 7 7 6 6 6 6 5 7
7 6 7 6 7 7 7 7 7 6 7 7 6 6 7 7 7 7 7 7 7 7 7 7 7 7 7 7 7 7 6 7 7 7 7 7 7 7 7 7 7 7 7 8 6 6 7 7 6 6 7 6 6 7 7 7 6 7 7 6 5 5 6 6 6 6 5 6 6 5 5 5 5 5 5 4 4 3 2 7
8 7 7 7 6 7 6 7 6 7 7 7 6 7 7 7 7 7 7 7 7 6 7 7 6 7 7 7 7 6 6 7 7 7 6 8 7 7 7 7 7 7 5 7 5 6 7 6 7 6 6 6 7 6 6 6 6 6 6 6 7 6 6 6 6 6 5 5 5 4 5 5 5 4 4 4 4 3 1 6
7 6 6 6 6 6 7 7 6 6 6 6 6 7 6 7 6 7 7 7 7 7 7 7 6 7 7 7 6 6 6 6 6 9 5 6 8 7 6 7 7 6 6 6 6 5 6 6 6 6 6 6 7 25 21 7 7 6 6 5 5 4 6 5 6 6 6 6 5 4 5 5 5 4 3 3 3 3 1 6
7 6 7 7 7 7 7 7 7 7 7 7 7 7 6 7 7 7 7 7 7 7 7 7 7 7 8 7 7 7 7 7 7 8 96 51 5 8 6 7 7 7 7 7 7 7 7 7 7 7 7 7 4 105 73 4 6 7 7 6 6 7 7 6 6 7 6 6 6 7 6 5 5 5 4 4 4 4 3 7
9 8 8 8 7 8 8 8 8 8 8 8 8 8 8 8 8 8 8 8 8 8 8 8 8 9 9 9 9 9 9 9 9 11 78 44 8 9 9 9 9 9 8 9 9 9 9 9 8 8 8 8 9 18 19 10 8 8 8 8 8 8 8 8 8 8 8 8 7 7 7 7 8 7 7 7 7 6 5 8
8 8 7 8 8 8 8 8 8 8 8 8 8 8 8 8 8 8 8 8 8 8 8 8 8 8 9 9 8 9 9 9 9 10 8 10 10 9 9 9 9 9 9 9 9 9 9 9 8 8 9 9 9 8 8 8 8 8 8 8 8 8 8 8 8 8 8 8 7 7 7 7 7 7 6 7 7 6 5 9
8 7 8 8 7 8 8 8 7 8 8 8 8 8 8 8 7 8 7 7 8 8 8 8 8 8 8 8 8 8 8 9 8 8 8 9 9 8 9 8 8 8 9 9 8 9 8 8 8 8 8 8 8 8 8 8 8 8 8 7 8 8 7 7 7 7 7 7 7 7 7 7 7 7 7 5 6 5 5 8
7 7 7 6 7 7 7 7 7 7 7 7 7 7 7 6 6 7 7 6 6 7 6 6 6 6 6 7 7 7 5 6 7 7 7 7 7 7 7 7 6 7 6 7 7 7 6 6 6 6 6 6 5 6 7 6 5 7 7 6 6 6 5 5 5 4 5 5 5 5 5 5 4 4 3 4 4 3 3 7
7 6 6 7 7 6 7 7 6 6 7 7 6 7 7 7 6 7 6 7 6 6 7 6 7 6 6 6 7 6 6 7 6 7 6 7 6 6 6 6 7 7 7 7 6 6 6 6 5 5 6 7 6 6 6 6 5 6 6 5 5 5 6 6 5 5 6 4 4 5 5 5 5 4 4 4 5 3 3 6
7 6 6 7 7 7 7 7 7 6 7 5 6 7 6 7 7 6 6 6 7 7 6 6 6 6 7 6 7 6 6 6 6 7 6 6 6 7 6 5 7 6 6 7 6 6 5 6 6 6 6 6 6 6 6 5 5 6 6 6 5 5 6 5 4 5 3 4 4 5 3 3 4 3 2 3 3 3 2 7
7 7 7 7 7 7 7 7 7 8 7 7 7 7 8 7 7 7 7 8 7 8 7 7 7 8 8 7 8 7 8 8 8 8 7 7 8 8 7 7 7 7 8 8 7 8 7 7 8 8 7 7 8 7 7 7 7 7 7 7 6 7 6 6 6 7 6 6 6 6 5 5 5 5 5 5 5 5 4 8
8 8 8 8 8 8 8 8 8 8 8 8 8 8 8 8 8 8 9 8 8 8 9 9 9 9 9 9 9 9 9 9 9 9 9 9 9 9 9 9 9 9 9 9 9 9 9 9 9 9 9 9 9 9 8 8 8 8 8 9 8 8 8 8 8 8 8 8 8 8 8 8 7 7 7 7 7 7 7 9
8 8 8 8 8 8 7 8 8 8 8 8 8 8 8 8 8 8 8 9 8 9 8 9 8 8 9 9 9 9 9 9 9 9 9 9 9 9 9 9 9 9 9 9 9 9 9 9 9 9 9 9 9 9 9 9 8 8 8 8 9 8 8 8 8 8 8 8 8 8 8 7 7 7 7 7 6 6 7 9
8 8 8 7 7 8 8 8 8 8 7 7 7 8 7 7 7 8 8 8 8 8 7 8 8 8 7 7 7 7 8 8 8 8 8 8 8 8 8 8 8 8 8 8 8 8 8 7 7 8 8 8 7 8 7 7 6 7 8 7 7 8 7 6 7 7 7 6 7 7 7 7 7 6 7 7 5 6 6 8
8 7 7 6 7 7 7 7 7 7 7 6 7 6 7 7 7 7 7 7 7 7 6 6 7 7 7 6 6 6 6 7 6 6 7 7 7 7 6 6 7 6 6 7 6 6 6 5 5 6 7 6 6 7 6 6 6 6 6 6 6 6 6 5 5 4 4 5 5 5 5 5 5 5 5 5 3 4 3 7
8 6 6 6 7 6 7 7 6 7 7 7 6 6 7 7 7 6 6 7 7 7 7 7 7 7 6 6 7 7 6 7 6 6 6 6 6 7 6 6 7 6 6 7 5 6 7 7 6 6 7 6 6 6 5 6 5 6 6 5 6 6 5 6 5 5 4 4 4 5 5 5 4 3 4 4 3 3 3 6
7 7 7 6 6 7 7 7 7 7 6 7 6 7 6 7 7 7 7 6 6 7 7 7 6 6 6 6 6 7 6 6 7 6 6 7 6 7 7 6 5 6 6 6 6 5 6 6 6 6 6 6 6 6 6 6 5 6 6 5 5 5 5 5 6 6 4 4 4 5 3 4 5 4 4 4 4 4 3 6
8 8 8 7 7 7 7 7 8 8 8 8 8 7 8 8 8 8 8 8 7 8 8 7 8 8 8 8 8 8 8 8 7 8 8 9 8 8 8 8 8 8 8 8 8 8 8 8 8 8 8 7 8 8 8 8 7 7 8 8 7 8 7 7 7 7 7 7 6 7 6 7 7 7 6 5 6 6 5 8
8 8 8 8 8 8 8 8 7 8 8 8 8 8 8 8 8 8 8 8 8 8 8 8 8 9 8 8 8 7 8 9 9 9 9 9 9 9 9 9 9 9 9 9 9 9 9 9 9 9 8 9 9 9 9 8 8 8 8 8 8 7 8 8 8 8 8 7 8 8 7 8 7 7 8 6 6 7 7 9
9 8 8 8 8 8 8 8 8 8 8 9 8 8 8 8 8 8 8 8 8 8 8 8 9 8 9 9 8 8 8 8 8 9 9 9 9 9 9 9 9 9 9 9 9 9 9 9 9 9 9 9 9 9 9 9 8 8 8 8 7 7 8 8 8 8 7 8 8 8 7 7 7 7 7 6 6 7 7 8
7 7 7 8 7 7 7 7 7 7 7 7 7 8 7 7 8 8 8 7 7 8 8 7 7 7 7 7 8 8 7 7 7 8 7 8 8 8 8 8 8 7 8 7 7 7 7 7 8 8 7 7 7 8 6 5 8 7 7 7 6 6 6 5 6 7 6 6 6 6 6 5 4 6 6 6 5 5 5 7
7 6 7 6 6 7 7 7 6 6 7 6 6 7 6 6 7 7 7 6 7 7 7 6 7 7 7 7 7 6 6 7 7 7 7 5 6 7 7 6 7 6 7 7 7 7 7 7 7 8 7 7 8 8 31 43 7 7 6 6 6 5 5 5 5 5 5 6 5 5 5 5 4 4 4 5 4 4 2 7
7 6 7 6 6 7 6 6 6 6 7 6 7 6 7 7 7 7 6 7 7 7 7 6 6 7 7 7 6 7 6 7 7 7 8 47 32 7 8 8 8 7 6 7 7 7 7 7 7 7 7 5 7 4 64 93 5 7 7 5 6 5 6 5 5 6 5 6 6 5 5 5 4 4 3 3 3 3 3 7
7 7 7 6 7 7 7 7 8 6 7 7 7 6 7 7 7 7 7 7 7 7 7 7 7 7 6 7 7 6 6 7 7 8 6 99 73 4 7 7 6 7 7 7 6 6 7 6 7 7 6 6 6 8 8 8 8 7 7 6 6 7 6 5 5 4 5 6 7 6 5 5 4 5 4 3 4 3 3 6
8 7 8 8 7 8 8 8 8 8 8 8 8 7 8 8 8 8 8 8 8 8 8 8 8 8 8 8 8 8 8 8 8 8 10 12 11 9 8 8 8 8 9 8 8 8 8 8 8 8 8 8 8 9 8 8 8 8 8 8 7 7 7 7 7 7 7 7 7 7 6 7 6 7 6 5 7 6 5 8
8 7 8 8 8 8 8 8 8 8 8 7 8 8 8 7 8 8 8 8 8 8 8 8 8 8 8 8 8 8 8 8 9 9 9 9 8 9 8 8 9 9 9 8 8 9 8 9 9 8 8 8 8 8 8 8 8 8 8 8 8 8 8 8 8 7 8 8 8 8 6 7 7 7 7 6 7 7 6 9
8 8 7 8 7 7 8 7 7 8 8 7 8 8 7 8 7 8 8 8 8 8 8 8 8 8 8 8 8 8 8 8 8 9 8 9 8 9 8 9 9 8 8 8 8 8 8 8 8 8 8 8 8 8 8 7 7 8 8 8 8 8 8 7 7 7 8 7 8 7 7 7 7 7 7 7 7 6 7 9
7 7 7 7 7 7 7 7 6 7 6 6 7 6 6 7 7 7 7 6 7 7 6 7 7 7 6 7 6 7 7 7 7 7 6 7 7 7 7 7 7 7 7 6 7 6 7 6 6 6 7 6 6 6 6 5 5 6 5 6 6 6 6 6 6 6 5 6 6 6 5 4 4 5 5 5 5 4 3 7
7 7 7 7 7 7 6 7 7 6 7 6 6 7 6 6 6 6 6 6 7 7 7 6 6 6 6 7 5 6 7 7 7 6 7 6 7 7 6 7 6 5 6 6 6 5 6 7 6 5 5 5 6 6 6 5 6 6 5 5 5 5 6 5 6 5 5 4 5 6 6 5 4 4 5 3 4 4 3 7
7 6 7 6 7 7 6 6 7 7 7 6 6 6 7 6 6 7 6 6 6 7 7 7 7 7 7 6 6 6 6 6 6 6 6 6 7 7 6 6 6 6 6 6 6 5 6 6 6 5 5 6 6 6 6 5 5 5 6 6 5 6 6 5 5 6 4 4 4 5 5 5 3 4 4 3 4 4 3 7
7 6 6 7 7 7 7 7 6 7 7 7 7 7 7 7 7 7 7 6 7 7 7 7 7 7 7 7 7 7 7 7 7 6 7 6 6 7 6 5 6 6 6 7 6 6 7 6 6 6 7 6 6 6 6 6 5 6 7 6 6 5 5 5 6 5 6 5 5 6 3 5 5 5 5 5 4 4 3 7
8 7 7 7 8 8 7 8 7 7 7 7 8 8 8 7 7 7 8 8 8 8 8 8 8 8 8 8 7 8 8 8 8 8 8 8 8 8 8 8 8 8 8 8 8 8 8 8 7 7 8 8 8 8 8 8 8 8 7 7 8 8 8 8 7 7 7 7 7 7 7 8 7 6 7 6 7 6 6 8
8 7 7 8 7 7 8 7 7 8 7 8 8 7 8 7 7 8 7 8 8 8 7 8 8 8 8 8 8 8 8 8 8 8 8 8 8 8 8 8 8 8 8 8 8 8 8 8 7 7 7 7 7 7 8 8 8 8 8 8 7 8 7 7 7 7 7 8 7 8 7 6 6 7 6 7 7 7 6 8
7 7 7 7 7 7 7 8 7 8 8 7 7 8 8 7 7 7 8 8 8 7 7 7 8 8 8 8 7 8 8 8 8 8 8 8 8 8 8 7 8 8 8 7 7 8 7 7 7 7 8 7 7 7 7 7 7 7 7 7 6 7 7 6 7 7 7 7 6 6 7 6 7 6 6 6 6 6 5 9
7 7 7 7 7 7 7 7 6 6 6 6 6 7 7 7 7 7 7 7 7 7 7 7 7 7 7 7 6 7 6 6 7 6 5 6 7 7 7 6 7 6 6 6 6 6 6 6 5 6 6 6 7 6 5 6 6 5 6 5 5 5 6 6 5 5 6 6 5 5 4 5 5 4 3 4 5 3 3 7
7 7 6 6 7 6 6 7 6 6 6 7 6 7 7 6 6 7 7 6 6 7 7 7 6 7 7 6 6 7 6 6 6 6 6 6 7 5 6 6 7 7 6 6 5 6 6 6 6 6 6 6 5 6 6 6 6 6 6 6 4 6 6 5 6 5 5 4 5 5 5 5 5 4 4 5 4 5 3 7
8 7 6 6 6 7 7 7 6 7 6 6 6 7 7 7 6 7 7 7 6 6 6 6 6 6 6 7 6 6 6 6 6 7 6 6 6 6 7 6 7 6 6 6 6 6 6 6 6 6 5 6 6 5 5 5 6 6 5 5 6 5 5 5 6 6 6 5 5 6 5 5 4 4 4 4 4 4 4 7
8 7 7 7 7 7 7 7 7 7 7 7 7 7 7 7 7 7 7 7 7 7 7 6 7 7 7 6 7 7 7 7 7 8 7 7 7 7 7 7 7 7 7 7 7 7 6 6 7 6 7 6 6 7 6 7 6 7 7 7 6 6 6 6 7 6 6 6 6 5 6 6 6 5 5 5 5 5 4 7
8 7 7 7 7 7 7 7 7 8 7 7 7 8 8 7 8 8 8 8 7 8 8 8 8 8 8 8 8 8 8 8 8 8 8 8 8 8 8 8 8 8 8 8 8 7 8 8 8 8 8 8 8 8 8 7 8 8 8 8 7 7 7 8 7 7 7 7 7 7 7 7 7 7 7 6 6 7 6 8
8 7 7 7 7 7 7 8 7 7 7 7 7 7 8 7 7 7 8 8 8 8 8 8 8 7 8 8 8 8 8 8 8 8 8 8 8 8 8 8 8 8 8 8 8 7 8 8 8 8 7 7 7 7 7 7 8 7 8 8 8 8 7 7 7 7 7 7 6 6 7 7 7 6 7 7 7 6 6 9
7 7 7 6 6 7 7 6 7 7 7 6 6 6 7 7 7 7 6 7 7 7 7 8 7 7 7 7 7 7 7 7 7 7 7 7 7 7 7 7 7 7 7 7 7 7 6 7 7 6 7 6 6 7 6 6 7 7 7 7 6 6 6 6 6 6 6 6 6 7 6 5 4 5 6 5 4 4 4 7
7 6 6 7 7 7 7 6 6 6 6 6 6 5 6 7 6 6 5 7 7 7 6 5 6 6 6 6 7 6 6 6 5 5 6 6 7 7 5 5 6 6 5 5 6 5 5 5 6 5 5 4 6 5 5 6 5 5 6 5 4 6 5 4 6 6 5 5 5 5 5 5 5 4 4 4 3 2 3 6
8 6 7 7 7 7 7 7 7 6 7 7 7 7 7 7 7 6 7 7 7 6 7 7 7 6 6 7 7 7 6 7 6 6 6 6 6 7 7 5 6 6 6 6 6 6 6 5 6 5 6 6 6 7 6 6 6 7 6 6 6 6 5 5 6 5 5 5 4 4 3 5 4 4 5 3 3 4 3 8
6 6 7 7 7 7 7 7 7 6 7 6 6 7 7 7 7 6 6 7 7 7 7 7 7 7 7 6 6 6 5 7 7 6 6 6 6 7 7 7 7 6 5 5 5 6 6 6 6 6 6 5 5 6 6 6 6 6 6 5 6 5 6 5 4 5 5 4 5 4 4 5 5 5 5 4 5 5 3 6
8 7 7 7 8 8 7 7 7 7 7 7 7 7 7 7 7 7 6 7 7 7 7 8 7 7 7 7 7 8 7 7 8 8 7 7 8 7 7 7 7 8 7 8 7 7 7 7 7 7 7 6 6 7 8 7 6 7 7 7 7 7 7 6 5 6 6 6 6 6 7 6 6 6 6 6 6 6 5 8
8 7 7 7 7 8 7 8 7 6 7 7 7 7 7 7 7 7 7 7 8 8 7 7 8 8 7 7 8 8 8 8 8 8 8 7 8 8 8 7 8 7 7 7 7 7 7 7 8 7 7 7 7 7 7 7 7 7 7 7 7 6 7 7 7 7 7 7 6 6 6 6 6 6 6 6 6 6 5 8
8 7 6 8 7 7 8 8 8 7 7 8 8 7 8 7 7 8 8 7 8 8 8 8 7 8 8 7 8 8 8 8 8 8 8 8 8 7 7 7 7 7 7 7 8 7 8 6 7 7 7 6 7 7 7 7 7 7 7 6 6 6 7 6 7 7 7 7 7 7 7 7 6 6 6 7 7 6 5 8
8 7 7 7 7 7 7 7 6 7 7 7 6 7 7 6 7 7 7 7 7 7 7 7 7 7 7 6 7 7 7 7 7 7 7 6 6 7 6 6 7 6 7 7 6 5 6 6 6 6 6 6 6 7 7 6 6 6 5 6 6 7 6 6 6 5 6 6 7 5 6 5 5 4 4 4 4 4 3 7
8 6 6 6 7 6 5 7 6 6 7 7 7 7 6 7 6 6 7 7 7 6 6 7 7 6 6 6 6 6 7 7 6 6 6 6 7 7 7 6 6 6 5 6 6 6 5 6 6 5 6 5 5 6 6 6 5 6 4 6 5 5 6 5 5 6 6 4 4 4 5 5 5 4 4 3 3 3 3 7
8 7 6 6 7 6 6 7 7 6 6 6 6 7 6 7 6 7 7 7 7 6 7 6 7 7 7 7 6 6 6 7 6 6 6 6 7 6 6 6 6 5 5 6 5 5 5 5 6 6 6 5 5 5 6 6 6 5 5 5 4 4 5 4 5 6 4 5 6 5 5 5 6 5 4 4 4 4 3 6
8 7 7 7 8 7 5 6 7 7 7 7 6 6 6 6 7 7 7 6 7 7 6 6 7 6 7 6 6 6 6 6 6 6 6 6 6 6 6 6 6 6 5 5 5 6 6 5 4 5 5 5 6 6 5 6 6 4 4 4 5 5 6 6 6 5 5 5 6 4 4 4 4 3 4 5 4 4 3 4
9 8 7 7 8 8 6 6 7 7 7 7 7 7 7 8 7 7 7 7 7 7 7 8 8 7 7 7 7 7 7 8 7 7 7 7 7 7 7 7 7 7 7 7 7 7 7 6 7 7 7 7 7 7 6 7 7 7 7 6 7 6 7 7 7 6 6 6 7 7 6 6 6 6 6 5 6 5 5 31
