P2
80 80
255
31 13 8 8 8 8 8 8 8 8 7 8 7 7 7 8 8 8 8 8 8 8 8 8 8 9 9 8 8 8 8 9 8 8 9 8 9 9 8 8 9 9 9 9 9 8 8 8 8 8 8 8 8 8 8 8 9 9 8 7 7 7 8 8 8 8 8 7 7 7 6 7 6 6 7 6 7 7 6 8
5 7 7 7 7 7 7 7 7 7 6 7 7 7 6 7 7 7 7 7 7 7 7 7 7 8 9 7 7 7 7 7 7 7 7 7 7 7 7 6 7 7 7 7 7 7 7 6 6 7 6 6 7 7 7 6 8 8 6 6 7 6 6 5 7 6 6 6 6 5 6 6 4 4 6 5 5 4 4 7
7 7 6 7 7 6 6 7 7 6 6 6 6 6 6 6 7 7 7 7 7 7 6 6 6 6 7 6 5 6 6 5 6 5 6 6 6 6 6 5 7 6 6 6 5 6 7 6 5 6 5 4 5 6 5 6 6 6 6 5 4 4 4 3 4 4 4 5 5 5 4 4 4 4 3 4 4 3 2 6
7 6 7 7 7 6 7 6 6 6 6 5 6 6 7 6 6 7 6 7 6 6 7 7 6 6 8 6 5 6 6 6 6 6 6 6 5 6 6 5 6 6 6 6 5 4 6 6 6 5 6 5 6 6 6 5 5 5 5 5 5 5 5 4 4 5 6 4 4 5 5 4 5 5 4 3 3 3 3 6
7 7 7 7 7 7 6 7 6 7 6 6 6 7 7 7 6 7 7 7 7 6 7 6 6 7 7 6 5 7 6 6 6 6 6 6 6 6 6 6 5 6 6 6 6 6 6 6 6 6 7 5 5 6 5 5 5 5 6 5 4 5 5 4 5 6 5 5 4 4 5 5 5 4 3 3 4 4 4 6
7 7 7 7 7 7 7 7 6 6 7 6 7 7 7 7 6 7 7 7 7 7 7 6 6 7 7 7 7 7 7 7 7 7 7 6 7 8 7 7 7 7 7 7 7 7 7 7 7 7 7 6 6 7 7 7 7 7 6 7 6 6 6 5 6 7 6 6 6 6 6 6 6 5 6 6 5 5 4 7
8 7 7 7 7 7 7 7 7 7 6 7 7 7 7 7 7 7 7 7 7 7 7 7 7 7 7 7 7 8 7 7 7 8 7 7 8 8 8 8 7 7 8 8 8 7 7 7 7 7 7 7 7 7 7 7 7 7 6 7 6 7 7 7 7 7 7 7 7 6 6 6 6 6 6 5 6 5 5 7
7 7 7 7 6 7 7 7 7 7 7 7 7 7 7 7 7 7 7 7 7 7 7 7 7 7 7 7 7 8 7 8 7 8 8 8 8 8 8 8 8 8 8 8 7 8 7 7 7 7 7 7 7 7 7 7 7 7 6 7 7 7 7 6 7 7 7 7 7 6 6 6 6 6 5 6 7 6 6 8
7 7 6 6 7 7 7 7 6 6 7 7 7 7 7 7 7 7 7 6 6 6 7 7 7 7 7 7 6 7 7 7 7 7 7 7 7 7 7 6 6 7 7 6 6 7 7 7 7 7 6 7 6 6 6 6 5 6 6 6 6 6 6 6 4 5 5 5 6 5 4 5 4 4 4 4 4 5 4 7
7 6 7 7 7 7 6 7 6 6 7 6 6 7 7 7 7 7 7 7 7 6 7 7 6 5 6 6 6 7 6 6 7 6 7 7 6 6 6 5 6 6 6 6 6 6 6 5 5 5 5 5 5 6 6 6 6 6 6 5 5 5 5 4 5 4 4 5 5 4 4 3 3 4 2 2 3 3 2 6
7 7 7 7 6 7 6 7 6 5 6 6 6 7 6 6 6 7 6 6 6 6 7 6 6 7 6 6 7 5 5 6 6 6 6 6 7 6 5 5 5 6 6 5 5 6 6 5 4 4 5 5 5 5 5 5 4 5 6 5 5 5 5 6 6 5 4 3 4 5 4 5 4 3 3 3 3 3 2 6
7 7 6 7 6 7 7 7 7 7 7 7 7 7 6 7 7 7 6 6 7 5 6 6 7 7 7 6 7 7 7 6 6 6 6 6 7 6 7 6 6 6 6 6 6 6 7 6 5 5 6 5 6 5 6 5 5 6 6 6 6 5 5 4 5 6 6 5 4 5 4 5 5 4 4 3 4 3 2 6
8 7 7 7 8 7 7 7 7 7 7 7 7 7 7 7 8 7 7 7 7 7 7 8 8 7 7 8 8 8 7 7 8 8 8 8 8 8 8 8 8 7 7 8 8 8 8 7 8 7 7 7 7 7 7 7 7 7 7 7 7 7 7 6 7 7 7 7 7 6 6 7 6 6 6 6 6 6 5 8
8 7 7 7 7 8 7 7 7 7 8 7 7 7 7 8 8 8 8 8 8 8 8 8 8 8 8 8 8 8 8 8 7 8 8 8 8 8 8 8 8 8 8 8 8 8 8 8 8 8 8 8 8 7 7 7 8 7 8 7 7 7 7 7 8 7 6 7 7 7 6 7 7 7 7 7 7 6 5 7
8 7 7 7 7 8 8 7 7 8 7 7 7 8 8 8 8 8 8 7 7 8 7 8 8 8 8 8 8 8 8 8 8 8 8 8 8 8 8 8 8 8 8 8 8 8 8 8 8 8 8 8 8 8 8 7 8 8 8 7 8 7 8 8 8 7 7 7 7 7 7 7 7 7 7 6 7 6 6 8
7 7 6 7 7 7 7 6 6 7 7 7 7 7 7 7 7 6 7 7 7 7 7 7 7 7 6 6 6 6 6 6 6 6 7 7 7 7 7 6 7 7 6 6 6 6 5 7 6 6 6 6 5 6 5 6 6 6 6 6 6 6 6 6 6 6 6 5 5 6 5 3 4 4 4 4 4 4 4 6
7 7 7 7 7 6 7 7 7 6 7 7 6 6 7 7 6 7 7 6 6 6 7 6 6 6 6 6 6 7 6 6 6 7 5 5 6 6 6 6 6 6 6 5 6 6 6 6 6 6 6 6 5 6 5 6 5 6 5 5 5 6 5 5 5 6 5 5 4 4 3 3 3 4 3 3 4 3 2 7
7 7 6 7 7 7 6 7 7 6 6 6 7 7 7 7 7 7 7 7 6 7 7 6 6 7 7 7 6 7 7 7 6 6 6 5 6 6 6 6 6 7 5 5 6 7 6 6 6 6 6 6 5 7 5 6 6 6 6 6 6 6 6 5 5 6 5 6 6 6 5 4 5 5 6 4 4 4 3 7
8 7 7 7 7 7 7 7 7 7 8 7 7 7 7 7 7 7 7 7 7 8 7 7 7 7 7 7 7 7 7 7 6 7 7 6 6 7 7 6 7 7 6 7 6 6 7 5 6 6 6 6 6 7 6 7 5 7 6 6 6 6 5 6 6 6 6 6 7 7 6 6 6 6 6 4 5 5 5 7
8 7 8 8 7 8 8 8 8 8 8 7 8 8 8 8 8 8 8 8 8 8 8 8 8 8 8 8 8 8 8 8 8 8 8 8 8 8 9 8 8 9 8 8 8 9 8 8 8 8 8 8 8 8 8 8 7 8 8 8 8 8 7 7 8 7 7 7 7 7 7 7 7 6 6 6 6 6 5 8
8 7 7 8 8 8 8 8 7 8 8 8 8 8 8 8 8 8 8 8 8 8 8 8 8 8 8 8 8 8 8 8 8 8 8 9 8 8 9 8 8 8 8 8 8 8 8 8 8 8 8 8 8 8 8 8 7 8 7 7 7 8 7 7 8 8 7 7 7 7 6 7 7 7 7 6 5 5 5 8
8 7 7 8 8 7 7 8 7 7 8 7 8 8 8 8 8 8 7 8 8 8 8 8 8 8 8 8 8 8 9 8 8 8 8 8 8 9 8 8 8 8 7 8 8 7 8 8 8 8 8 8 8 8 8 8 7 7 7 8 7 7 7 7 7 7 7 7 6 7 6 7 6 6 6 6 5 5 5 8
7 6 7 7 7 7 7 6 6 7 7 7 7 7 7 7 7 7 6 7 7 7 7 6 7 7 7 6 7 7 7 7 6 7 7 7 7 7 6 6 7 7 6 6 6 6 6 5 6 7 6 6 6 6 6 7 6 5 6 5 4 5 6 5 6 6 4 4 4 5 5 5 4 5 6 4 3 3 3 7
7 6 6 7 7 7 7 7 6 7 7 7 7 7 7 7 7 7 6 6 7 7 7 6 6 7 6 6 6 7 6 7 6 7 6 7 7 7 6 6 6 7 6 5 6 7 6 6 6 6 6 6 6 6 5 6 5 6 6 5 5 5 6 5 5 6 5 4 4 5 5 5 5 5 4 3 3 2 3 7
7 6 7 7 6 7 7 7 7 7 7 6 7 7 6 7 6 6 6 6 7 6 6 6 7 6 6 6 6 7 7 7 6 6 6 7 7 6 6 6 7 6 5 6 6 6 5 6 6 6 6 6 6 6 6 4 5 6 6 5 6 5 5 6 5 5 4 4 5 4 5 5 5 5 3 3 3 2 3 7
8 8 7 8 7 7 7 7 7 8 7 7 7 7 7 8 7 7 7 8 7 7 8 7 8 7 7 8 7 7 8 8 8 8 8 8 8 8 7 7 8 8 7 7 8 8 8 8 7 7 8 7 8 7 7 7 7 7 7 7 7 7 7 7 7 6 7 5 6 6 6 6 6 6 5 5 4 4 4 8
8 8 8 8 8 8 8 8 8 8 8 8 8 8 8 8 8 8 8 8 9 9 9 9 8 8 9 9 8 9 9 9 9 9 9 9 9 9 9 9 9 9 9 9 9 9 9 9 9 9 9 9 9 8 8 8 8 8 8 8 8 8 8 8 8 8 8 7 7 7 7 8 6 7 7 6 6 6 5 8
8 8 8 8 7 8 8 8 8 8 8 8 8 8 8 8 8 8 8 8 8 9 9 9 8 8 8 8 9 8 9 9 8 9 9 9 9 9 9 9 9 9 9 9 8 9 9 8 9 9 8 9 9 8 8 8 8 8 8 8 8 8 8 8 8 8 8 7 7 7 7 7 7 7 7 6 7 5 4 8
8 7 7 8 7 8 8 8 7 7 8 7 8 8 8 8 8 8 7 8 8 8 8 8 7 7 8 8 7 8 8 8 7 8 8 8 8 8 8 7 8 8 7 8 8 8 8 8 7 8 7 8 8 7 7 8 7 7 7 7 6 7 7 7 7 7 7 7 7 6 6 6 7 6 6 6 5 4 4 8
8 7 7 7 6 7 7 7 7 6 7 7 7 7 7 7 7 7 7 7 7 7 7 7 7 6 6 7 6 6 6 5 6 7 7 7 7 7 7 6 7 7 7 6 6 7 6 7 7 6 6 7 6 6 6 7 6 6 7 6 5 5 5 6 6 6 5 5 5 4 5 5 5 5 3 3 4 3 2 6
7 7 7 6 7 7 6 7 7 6 7 7 7 7 7 7 6 6 7 7 7 7 7 7 7 7 7 5 6 7 6 6 6 8 6 6 7 7 7 6 7 6 6 6 6 7 6 6 6 7 7 7 8 5 6 8 6 6 5 6 6 6 6 5 5 6 6 5 5 5 5 5 4 5 4 4 4 3 2 6
7 7 7 7 6 7 6 7 7 7 7 7 7 7 6 7 6 7 6 7 7 6 6 7 6 6 7 6 7 7 7 7 8 8 28 22 7 7 6 6 6 7 7 6 6 6 7 5 6 6 6 6 5 64 52 5 7 6 6 7 6 6 5 5 5 5 6 5 5 6 5 5 4 4 4 5 4 2 2 6
8 8 7 8 7 8 7 8 8 8 7 7 7 7 7 7 8 8 7 8 8 8 8 8 8 8 8 8 8 8 8 8 8 6 109 84 5 8 8 8 8 8 8 8 8 8 8 8 8 8 8 8 6 67 59 8 7 7 7 7 7 7 7 7 7 7 7 7 7 7 7 7 5 6 6 5 5 4 5 8
9 8 8 8 8 8 8 8 8 8 8 8 8 8 8 9 8 8 8 8 8 9 8 8 9 9 9 9 9 9 9 9 9 10 24 20 10 9 9 9 9 9 8 9 9 10 10 9 9 9 9 9 9 7 8 10 8 8 8 9 8 8 8 8 8 8 8 8 8 8 8 8 8 7 7 7 7 6 6 9
9 8 8 8 8 8 8 8 8 8 8 8 8 8 8 8 8 8 8 8 9 8 8 8 9 9 9 9 9 9 9 9 9 9 8 9 9 9 9 9 9 9 9 9 9 9 8 9 9 9 9 9 9 9 8 9 9 8 8 9 8 8 8 8 8 8 7 7 8 8 7 7 7 7 7 7 7 5 6 8
8 7 7 7 7 7 7 7 8 7 7 7 7 7 8 7 7 7 8 7 7 7 8 8 7 7 7 7 7 7 7 7 8 7 7 8 7 8 8 8 7 8 7 8 7 8 7 8 7 7 6 7 7 8 7 7 7 7 7 7 6 7 7 5 6 7 5 6 6 6 5 5 6 6 6 5 5 3 4 7
7 6 7 7 7 7 6 7 7 7 7 7 6 7 7 6 7 7 7 7 7 7 7 7 6 7 6 6 6 6 7 7 7 7 7 6 7 7 6 7 7 7 6 7 6 6 7 7 5 6 6 5 6 6 6 6 6 6 6 6 6 5 6 5 6 6 6 5 4 4 4 5 5 4 4 4 4 4 3 7
7 7 7 7 7 7 7 7 7 6 7 7 7 7 7 7 7 7 7 6 7 8 7 6 7 7 7 6 6 7 7 7 6 7 6 7 7 7 7 6 6 7 6 6 7 7 6 6 7 7 7 6 6 7 5 6 7 6 6 5 6 6 6 5 6 6 5 5 5 5 5 5 5 4 4 5 5 4 3 6
7 7 7 7 7 7 7 7 7 7 7 7 7 7 7 7 7 7 7 6 6 7 7 6 7 7 7 7 7 6 7 7 7 7 6 6 6 7 7 6 7 7 7 7 7 7 7 5 6 7 7 6 5 7 6 6 6 6 6 4 5 7 7 6 7 6 6 6 5 5 6 5 6 4 5 5 5 4 3 7
8 8 8 8 8 8 8 8 8 8 7 7 8 8 8 8 8 8 8 8 8 8 8 8 8 8 8 8 9 8 9 9 9 9 9 9 9 9 9 8 8 8 8 9 9 8 9 8 9 9 8 8 8 8 8 7 8 8 8 8 8 8 8 8 8 7 7 8 7 7 7 7 7 7 6 7 7 6 5 8
8 8 8 8 8 8 8 8 8 8 7 8 8 8 8 8 8 8 9 8 8 8 8 8 8 9 9 9 9 9 8 9 9 9 9 9 9 9 9 9 9 9 9 8 9 9 9 9 9 9 9 9 9 9 9 9 8 8 9 9 8 8 8 8 8 8 8 7 7 8 7 8 7 7 7 6 7 6 6 9
8 8 7 8 8 8 8 8 8 8 8 8 8 8 8 8 8 8 8 8 8 9 8 8 9 8 8 8 8 8 8 8 9 9 9 9 9 9 9 9 9 9 9 9 9 9 9 9 9 9 9 9 9 9 8 8 8 8 9 8 8 8 8 8 8 7 8 7 8 8 7 7 7 7 7 7 7 7 6 9
7 7 7 7 7 7 7 6 6 7 7 6 6 7 7 7 7 7 7 7 7 7 7 7 7 6 7 6 6 7 7 6 7 7 7 7 7 7 7 7 7 7 7 7 6 6 7 6 6 7 6 6 6 6 5 6 5 6 7 6 5 6 6 5 6 6 5 5 6 5 5 5 5 5 5 4 4 4 3 7
7 7 6 6 7 6 7 7 6 6 7 7 6 6 7 7 7 7 6 7 7 7 6 6 6 6 6 6 6 6 6 6 7 7 6 7 6 7 7 6 6 6 7 6 5 6 6 6 6 7 6 6 5 5 5 5 5 6 7 6 5 5 5 5 5 6 5 4 5 5 4 5 6 5 3 3 3 4 3 6
6 6 6 6 6 6 6 6 6 6 5 6 6 6 7 7 6 7 6 6 6 6 6 6 6 6 6 6 6 7 6 6 6 6 6 6 5 7 6 6 6 6 6 7 5 6 6 6 6 6 6 6 6 5 5 6 5 6 6 6 6 5 4 5 6 5 3 4 4 4 4 4 4 4 3 4 3 4 3 6
7 6 7 7 6 6 7 7 7 6 7 6 7 7 7 7 7 7 7 7 6 7 7 7 7 7 7 6 7 7 7 7 6 6 7 6 7 7 7 7 7 7 7 7 6 7 6 6 7 7 6 6 7 7 7 6 6 6 7 6 6 5 6 5 6 6 6 5 5 5 4 4 5 4 4 5 5 4 3 7
8 8 8 8 8 8 8 8 8 8 8 7 8 8 8 8 8 8 8 8 8 8 9 9 9 8 8 8 8 8 8 9 9 8 9 9 9 9 9 9 9 9 9 9 9 8 9 9 9 9 9 9 9 8 9 8 8 8 9 8 7 7 8 8 8 8 8 8 8 8 7 7 7 7 7 7 7 7 7 9
8 8 8 8 8 8 8 8 8 8 8 8 8 8 8 8 8 8 8 8 8 8 8 8 8 8 8 9 8 8 8 8 8 9 9 9 9 9 9 9 9 9 9 9 9 9 9 9 9 9 9 9 9 9 8 8 8 9 8 8 8 8 8 8 8 7 8 8 8 8 7 7 7 8 7 7 7 7 7 9
8 7 8 7 7 8 8 8 7 8 8 7 8 8 7 8 8 8 8 8 8 8 8 8 8 8 8 8 8 8 7 8 7 8 9 8 8 9 8 8 9 8 8 8 8 8 9 8 8 8 8 8 8 8 8 8 8 8 8 7 8 8 7 7 7 7 7 7 7 7 6 7 6 7 7 6 5 6 6 8
7 6 7 6 6 7 7 7 7 7 7 7 6 6 6 6 7 6 7 7 6 6 6 7 7 7 6 7 7 6 7 7 7 7 7 6 7 6 7 6 6 7 7 7 7 7 7 6 6 6 7 7 8 9 12 10 7 7 6 6 6 6 5 5 6 5 4 4 4 5 4 4 4 4 4 3 4 4 3 6
7 7 7 7 6 7 7 7 6 7 7 7 6 7 7 7 6 7 6 7 7 7 7 6 7 7 7 7 7 7 7 7 6 7 8 7 8 8 8 8 8 7 7 8 8 7 7 8 7 7 7 7 8 6 101 63 4 6 6 6 6 6 6 6 5 5 5 5 5 5 5 5 5 4 4 4 4 4 4 7
7 7 6 6 6 7 6 6 7 6 7 7 7 6 6 7 6 6 6 6 7 6 6 6 6 7 6 7 6 6 5 6 6 7 8 104 52 5 7 7 6 6 7 7 6 6 6 6 6 4 4 5 6 8 31 20 6 6 6 5 6 5 6 4 4 5 5 4 5 4 4 5 4 4 3 3 4 3 2 6
8 7 7 7 7 7 6 7 7 7 7 7 7 7 7 8 7 7 7 7 6 7 7 6 7 8 7 7 7 7 7 7 8 8 10 55 34 7 7 8 8 7 7 8 7 7 7 7 7 7 7 7 7 8 7 7 8 8 7 7 6 6 6 6 5 6 7 6 5 6 6 6 5 5 5 5 6 5 4 8
8 8 8 8 8 8 8 8 7 8 8 8 8 8 8 8 8 8 8 8 7 8 8 8 8 8 8 8 8 9 8 8 8 8 9 7 8 9 9 8 8 9 8 8 8 8 8 8 8 8 8 9 8 8 8 8 8 8 8 8 8 8 7 8 8 8 7 8 7 7 7 7 7 7 7 7 7 7 6 9
8 8 8 8 7 8 8 8 7 7 8 8 8 8 8 8 8 8 8 8 8 8 8 8 8 8 8 8 8 8 8 8 8 9 9 8 9 8 9 8 8 8 8 8 8 8 8 8 8 8 8 8 8 8 8 7 8 8 8 7 7 7 7 7 7 8 7 7 7 7 7 6 6 7 6 5 6 7 7 9
8 7 7 7 7 7 7 8 7 7 7 7 7 8 7 7 7 7 7 7 8 7 7 8 7 8 7 7 8 7 8 8 8 8 8 7 8 7 8 7 7 7 7 7 7 7 8 7 8 7 8 8 8 8 7 7 7 7 7 7 6 7 7 6 7 7 6 7 6 7 7 7 6 6 6 6 6 6 5 8
7 7 7 7 7 7 6 7 7 7 6 7 6 7 7 6 6 7 6 6 7 7 7 6 7 7 6 7 6 6 7 7 6 6 6 6 5 6 6 6 7 6 6 7 6 6 6 6 5 6 5 5 6 5 5 6 5 5 6 5 5 5 5 4 6 5 5 5 6 6 6 6 5 4 5 5 5 5 3 7
7 6 7 7 7 7 6 7 7 7 7 7 6 6 7 7 7 6 7 6 6 7 7 7 6 6 7 7 6 7 6 6 6 7 6 6 7 7 6 7 7 6 7 6 6 6 6 6 6 5 6 5 6 6 5 5 5 6 6 5 6 5 5 6 6 6 6 5 5 5 5 5 4 5 5 4 4 4 4 7
7 6 6 6 7 6 7 7 6 6 6 6 5 6 6 6 7 7 6 6 7 6 6 7 6 5 6 5 6 6 6 6 6 6 6 6 6 7 6 5 6 6 5 6 5 5 5 5 5 6 6 6 5 5 5 6 5 4 5 6 5 3 5 5 6 5 4 5 3 4 4 4 4 4 4 4 3 3 3 6
7 7 7 8 7 7 7 8 7 7 7 7 7 7 7 7 7 7 7 7 8 7 7 8 8 7 8 7 7 7 8 8 8 8 8 7 7 7 7 7 7 7 7 8 7 8 7 8 8 8 7 7 7 7 7 7 7 7 7 6 7 7 6 6 7 7 6 7 6 6 6 7 6 7 6 6 5 6 5 7
8 7 7 7 8 7 7 8 7 7 7 7 7 8 8 8 8 8 7 8 8 8 8 8 8 8 8 8 8 8 7 8 8 8 8 8 8 8 8 8 8 8 8 8 7 8 7 8 7 7 7 8 8 7 8 8 8 7 8 8 7 8 7 7 7 7 7 7 7 7 7 7 6 7 7 7 6 6 6 9
8 7 7 7 7 8 8 8 8 8 8 7 7 8 8 7 7 8 8 8 8 8 8 8 8 8 8 8 8 8 8 8 8 8 8 8 8 8 8 8 8 8 8 8 8 8 8 7 8 7 8 8 8 8 7 8 8 8 8 7 8 7 7 7 8 7 7 7 7 7 8 8 7 7 6 7 7 6 5 8
7 7 6 7 7 7 7 7 7 7 7 7 6 7 7 7 7 7 7 6 7 7 7 7 7 7 7 6 6 7 7 7 7 8 7 7 7 7 7 6 7 7 7 6 6 7 6 7 6 6 6 6 6 7 6 6 6 7 7 6 6 5 5 5 5 6 5 6 5 6 5 5 5 4 4 5 5 5 4 6
7 6 7 7 7 7 6 6 7 6 7 7 7 6 7 7 6 6 6 6 6 7 7 6 6 6 6 6 5 6 6 6 6 7 6 6 6 7 6 5 7 6 6 6 5 5 6 6 5 5 6 6 5 5 5 5 5 6 6 6 5 4 5 4 4 5 6 5 5 5 5 5 4 4 5 3 4 4 3 7
7 6 6 7 7 7 6 6 7 7 6 6 7 6 7 7 6 7 6 6 7 7 6 6 6 6 7 6 6 6 6 6 6 6 6 5 5 7 6 6 6 6 6 6 5 5 6 6 6 6 5 6 5 6 5 5 5 6 6 5 5 6 6 5 6 4 4 5 4 6 5 4 4 4 4 4 5 5 3 7
7 6 6 7 7 7 6 7 7 7 7 6 6 6 6 7 6 7 7 7 7 6 7 7 7 6 6 6 7 7 6 7 7 7 7 6 6 6 6 7 6 6 6 6 5 6 6 5 6 6 6 5 5 5 5 5 6 5 5 5 4 5 5 5 5 5 5 6 5 5 5 5 5 5 5 3 3 3 4 7
7 7 8 7 8 7 7 8 7 7 7 7 7 8 7 7 7 8 8 7 7 8 8 8 8 8 8 8 8 8 8 8 8 8 8 8 8 8 8 8 8 8 8 8 8 7 7 8 8 7 7 8 8 7 7 7 7 8 7 8 8 7 7 7 7 7 7 7 6 7 7 6 6 6 7 6 7 6 6 8
8 7 7 7 8 8 8 8 8 7 7 7 7 8 7 7 7 7 7 8 8 8 8 8 8 8 8 8 8 8 8 8 8 8 8 8 8 8 8 8 8 7 8 8 8 8 8 8 8 7 8 7 8 7 7 7 7 8 7 8 7 8 7 7 7 7 7 7 6 7 7 6 7 6 6 7 6 6 6 8
8 7 7 7 7 7 7 7 7 7 8 7 7 7 7 7 7 7 7 7 7 8 7 8 8 8 8 7 7 8 8 7 8 8 8 7 8 8 8 7 7 7 8 8 8 7 7 7 7 6 7 7 7 7 7 7 8 7 7 7 7 7 7 7 7 7 7 7 7 7 7 7 6 6 6 6 6 6 5 8
8 7 6 7 6 7 6 7 6 6 6 7 5 6 7 6 6 7 7 6 7 7 7 7 7 7 7 6 7 7 6 7 7 6 7 7 7 6 7 6 7 6 6 6 7 6 5 6 6 6 6 7 6 6 6 6 6 6 7 6 5 5 6 6 6 6 6 6 6 6 5 6 5 3 3 4 3 3 3 7
7 6 7 7 6 6 6 7 7 6 6 7 6 6 6 6 7 7 6 7 7 6 6 7 6 6 7 7 7 7 7 7 6 5 6 6 6 6 6 6 5 6 5 5 6 5 5 6 6 5 6 6 6 5 5 5 5 6 6 5 5 6 5 5 5 5 5 5 5 5 4 4 3 3 4 3 3 4 2 6
7 7 6 7 5 6 6 7 6 5 7 7 7 6 6 7 7 6 6 6 7 7 6 6 6 6 6 6 6 7 7 6 6 6 6 7 7 7 7 6 6 6 6 5 5 5 6 6 5 6 6 5 6 6 5 5 6 6 5 5 5 6 6 4 4 5 5 5 6 4 4 5 4 4 5 3 3 4 3 6
7 7 6 7 7 7 6 6 6 6 6 6 7 6 7 7 7 7 7 7 7 7 7 7 7 7 7 7 6 6 6 7 7 7 7 6 7 6 7 6 6 6 6 6 6 7 6 7 6 5 6 6 6 6 6 6 5 6 6 5 5 5 5 5 5 6 6 6 6 4 4 5 4 4 4 5 5 5 3 6
8 7 7 7 7 7 8 7 7 6 7 7 7 7 8 8 7 7 7 8 7 7 8 8 8 8 8 8 7 8 8 8 8 8 8 8 8 7 8 7 7 8 7 8 8 7 7 7 8 8 8 7 7 7 7 7 6 7 7 7 7 7 7 7 7 6 6 7 6 6 6 6 6 6 6 6 7 5 5 8
8 7 7 7 7 7 6 8 8 6 7 7 7 7 7 8 8 7 7 8 7 8 8 8 8 8 8 8 8 8 8 8 8 8 7 8 8 7 7 7 7 7 7 8 7 8 8 7 7 8 7 7 7 7 7 7 7 7 7 7 7 6 7 7 7 6 6 6 7 7 7 7 6 5 6 5 6 6 5 8
8 7 6 7 7 7 7 7 7 7 8 7 7 6 7 7 7 7 7 8 8 8 7 7 7 7 7 7 7 8 7 7 8 8 7 7 7 7 7 7 7 7 7 7 7 7 7 7 6 7 5 6 7 7 6 6 6 7 6 7 7 7 7 6 7 7 6 6 6 6 6 6 5 5 5 6 6 4 4 8
7 6 6 6 6 6 6 7 6 7 6 6 6 6 7 7 6 6 6 6 7 7 7 7 7 7 7 7 5 7 7 7 7 6 6 6 6 6 5 6 6 6 5 5 6 6 5 5 5 5 5 5 5 6 5 4 4 6 4 5 5 5 5 5 5 6 4 5 4 5 5 4 4 4 3 3 4 3 3 7
6 6 6 6 6 6 5 6 6 6 6 6 6 7 7 6 7 6 6 7 7 7 7 7 7 6 7 6 6 7 7 6 6 6 6 6 6 7 6 5 6 6 5 6 5 6 5 5 5 5 5 4 5 5 5 6 5 5 4 5 5 4 4 5 6 6 5 6 5 4 5 6 5 5 4 3 3 3 3 6
8 7 7 6 6 7 7 6 7 6 6 7 6 7 6 6 6 6 7 6 6 7 7 7 7 6 7 6 6 7 7 6 6 6 5 6 6 6 6 4 6 5 6 6 5 6 5 5 5 6 6 5 5 5 5 5 5 4 5 5 5 5 4 5 5 5 5 6 5 4 4 5 5 5 5 5 3 4 5 6
9 8 8 7 8 8 6 7 7 7 6 7 7 7 7 8 7 7 7 7 7 6 7 7 8 7 7 7 7 7 7 7 7 7 6 7 7 8 7 7 7 7 7 7 7 6 6 6 6 6 6 7 7 6 6 6 7 7 7 7 5 6 7 5 6 6 5 6 6 7 7 5 6 7 6 6 6 8 8 32
