P2
80 80
255
31 12 8 8 8 8 7 7 7 6 7 7 7 7 7 8 8 8 7 8 8 8 8 7 8 7 8 8 8 8 8 7 8 8 8 7 8 8 8 7 8 8 8 8 8 8 8 7 8 7 8 7 8 8 7 7 7 7 7 8 7 6 7 6 6 7 7 5 6 7 6 6 5 5 5 5 6 4 5 8
5 7 8 7 7 7 7 7 7 7 7 7 7 7 7 7 7 7 7 7 8 7 7 7 8 8 7 7 8 10 8 8 8 8 8 8 8 8 7 8 8 8 7 8 8 8 8 8 7 7 8 7 8 8 7 7 7 7 7 7 7 6 7 6 7 7 7 6 7 6 5 6 5 6 6 5 6 5 5 7
8 7 7 7 7 7 7 7 7 7 7 6 7 7 7 7 7 8 7 7 8 7 8 7 7 7 8 7 9 12 8 8 8 8 8 7 8 8 7 7 8 7 7 8 7 8 8 7 7 7 7 8 7 7 7 8 7 7 7 8 8 7 7 7 7 7 7 7 7 6 5 6 6 6 6 5 5 4 4 8
8 7 7 7 7 7 7 7 7 6 7 7 7 7 6 7 6 7 7 7 7 7 7 7 7 7 7 7 7 10 7 7 7 7 7 7 7 7 6 6 7 7 7 7 6 7 7 7 6 7 6 7 6 6 7 6 6 7 7 8 8 6 5 6 6 5 5 6 6 6 5 6 6 4 5 5 5 5 4 7
7 6 7 6 6 7 7 6 6 6 6 6 6 6 6 6 6 7 7 5 6 7 6 6 6 7 6 5 6 7 6 6 5 6 6 5 6 5 6 5 6 5 5 6 5 5 5 6 5 6 5 5 5 5 5 5 5 6 5 5 5 6 5 4 4 4 4 4 4 3 5 4 4 3 3 3 3 2 3 7
7 6 6 6 6 7 7 6 6 6 6 6 6 6 6 6 6 6 6 6 7 6 6 7 5 6 6 6 6 6 5 6 6 6 6 6 6 6 6 6 6 6 5 6 5 5 4 4 5 6 6 4 5 5 6 5 5 5 5 4 5 5 4 4 6 5 4 3 4 3 4 5 4 3 3 4 3 3 3 7
7 7 7 7 6 6 7 7 6 7 6 6 7 7 6 6 6 7 6 7 7 6 6 6 7 7 6 5 6 6 6 6 6 6 7 6 5 6 7 6 6 5 6 6 5 5 6 5 6 6 6 5 5 6 6 6 5 5 5 5 4 4 4 5 5 5 4 4 5 4 4 4 4 4 3 2 2 3 2 7
7 7 7 6 6 6 6 7 7 7 7 6 7 7 7 7 7 7 7 7 7 6 7 7 7 7 7 6 6 7 7 7 7 7 7 7 7 7 7 7 7 7 7 7 7 7 7 7 7 7 7 6 7 7 7 7 6 7 7 7 6 5 6 6 5 7 6 6 6 6 5 5 6 6 5 4 5 5 4 7
8 7 6 7 7 7 6 7 7 7 7 6 7 7 7 7 7 7 7 7 7 7 7 7 7 7 7 7 7 8 8 8 7 8 7 7 8 8 7 8 8 8 8 8 7 7 8 7 7 7 7 7 7 7 7 7 7 7 7 6 7 7 7 6 7 7 7 7 6 6 6 7 5 5 3 5 6 6 4 7
8 7 7 7 7 7 7 7 7 7 7 7 7 7 7 7 7 7 6 7 7 7 8 7 7 7 7 7 7 8 8 8 7 8 8 8 8 8 8 8 8 8 8 8 7 8 8 7 7 8 7 7 7 7 7 7 7 7 7 7 7 7 7 6 7 7 7 7 7 7 7 6 5 6 5 6 5 6 5 8
7 6 7 7 6 7 7 7 7 6 7 7 7 7 7 7 7 6 6 7 7 7 7 6 7 6 7 7 6 7 7 7 7 7 7 7 7 7 7 6 7 7 6 6 7 6 7 6 5 6 7 7 6 6 6 5 5 6 7 6 6 6 6 5 5 5 5 5 5 6 6 5 5 5 5 4 4 4 3 7
7 7 7 6 6 7 6 7 7 6 6 7 7 7 7 6 6 6 6 7 7 6 6 7 6 7 7 7 5 6 6 7 6 7 6 5 6 6 5 5 6 6 5 6 6 6 6 5 5 4 5 6 6 6 6 5 4 4 5 5 5 5 5 4 5 4 4 4 4 4 4 4 4 4 4 3 3 3 2 6
8 7 7 7 7 7 7 7 7 7 7 7 7 7 7 7 7 7 6 7 7 7 6 6 7 6 7 7 6 7 7 6 6 7 6 6 6 7 6 6 7 6 5 6 6 6 5 5 5 6 6 5 6 6 5 5 6 6 6 5 5 5 4 5 4 5 6 5 5 5 4 5 4 4 3 3 4 4 3 6
7 7 7 7 6 7 7 7 6 6 7 7 6 7 7 7 7 7 7 6 7 6 7 7 6 6 6 6 6 6 6 7 6 7 7 7 7 6 6 6 7 6 6 6 6 6 6 6 5 5 6 6 6 6 6 6 6 6 6 6 6 5 4 6 5 6 6 6 6 6 5 5 5 5 5 4 5 4 3 7
7 7 7 7 7 7 7 7 7 7 8 7 7 7 7 8 7 8 8 7 7 7 8 8 7 8 7 7 8 8 8 8 8 8 8 8 8 8 8 8 8 8 8 8 8 8 8 8 7 7 8 7 8 7 7 7 7 8 7 7 7 7 8 7 8 7 7 7 7 7 6 7 5 5 6 7 7 7 6 8
8 7 7 7 7 7 7 8 7 7 7 7 7 8 7 8 8 7 7 8 8 8 8 8 7 8 8 8 8 8 8 8 8 8 8 8 8 8 8 8 8 8 8 8 8 8 8 8 8 8 8 8 8 7 8 8 7 7 7 7 7 7 8 7 7 8 7 7 7 7 6 7 7 7 7 6 6 7 7 8
7 7 7 7 7 7 7 8 7 7 7 7 7 7 7 8 7 8 7 7 7 7 8 8 7 8 8 8 7 8 8 8 8 8 8 8 8 8 8 8 8 8 8 8 8 8 8 8 7 8 8 7 7 7 7 8 7 7 8 8 7 7 7 7 7 7 7 7 7 7 7 7 7 7 7 6 7 6 6 9
7 5 6 7 7 6 6 7 6 7 7 7 7 7 7 7 6 6 6 7 7 7 6 6 7 6 6 6 7 7 7 6 6 7 6 7 6 6 7 6 6 6 6 7 6 6 5 5 6 6 6 6 5 5 6 6 5 6 6 6 6 5 6 5 6 5 5 5 6 5 5 4 5 5 5 4 4 4 4 7
7 6 6 7 7 7 7 6 6 7 7 7 7 6 6 7 6 7 7 6 7 6 6 7 6 6 6 7 7 6 6 6 6 6 6 6 5 6 6 6 5 6 5 6 6 6 6 5 5 5 5 4 6 5 5 5 4 6 5 5 5 4 5 4 4 4 5 5 4 4 5 3 4 4 3 4 3 2 2 6
7 6 7 7 6 7 7 7 7 7 7 6 6 7 7 7 7 6 6 6 7 6 6 6 6 6 7 6 6 6 6 7 6 6 7 7 6 6 6 5 6 6 6 6 5 6 6 5 6 6 6 5 5 7 6 6 5 5 5 5 5 6 6 5 5 5 5 5 5 4 4 4 4 4 3 4 3 3 2 7
7 6 5 7 6 7 7 7 7 7 7 7 7 7 7 7 7 7 7 6 6 7 7 7 7 7 7 6 6 7 7 7 7 7 7 7 7 7 7 6 7 7 6 6 6 6 7 7 6 7 6 6 5 7 6 5 5 6 7 6 7 7 6 5 5 5 4 5 6 5 5 6 5 5 4 5 5 5 3 6
8 8 7 8 8 8 7 8 8 8 8 8 7 8 8 8 8 8 8 8 8 8 8 8 9 8 8 8 9 9 8 8 9 9 9 9 9 8 9 9 9 8 8 9 8 8 9 8 8 8 8 8 8 8 8 8 8 8 8 8 8 8 8 7 7 8 7 7 7 7 7 7 7 7 7 7 6 6 6 8
8 8 8 8 8 7 7 8 8 8 8 8 8 8 8 8 8 8 8 9 8 8 9 8 9 9 8 8 9 9 9 9 9 9 9 9 9 9 9 9 8 9 9 9 8 8 8 8 8 8 8 8 8 8 8 8 8 8 8 8 8 8 8 7 8 8 7 7 6 7 7 6 7 7 6 6 7 5 5 8
8 7 7 7 7 7 7 8 7 7 7 8 8 8 8 8 8 8 8 8 8 8 8 8 8 8 8 8 8 8 8 8 8 8 8 8 8 9 8 8 8 8 8 8 8 8 8 8 8 8 8 8 8 8 8 8 7 7 8 7 7 7 7 7 7 7 6 7 7 7 7 6 6 7 6 6 6 4 5 8
7 7 7 7 7 6 7 7 7 6 7 7 7 7 7 7 7 6 7 7 7 7 7 6 7 7 7 7 6 6 5 7 7 7 6 6 7 7 7 6 6 7 7 7 6 6 6 6 6 6 6 6 6 6 5 6 6 6 6 5 6 5 5 6 6 6 5 5 6 6 5 5 6 5 4 4 3 4 3 7
7 6 7 7 7 6 7 7 6 7 7 7 7 7 7 7 6 6 7 7 7 7 7 6 6 5 7 7 7 7 6 6 7 6 6 7 7 6 5 6 6 7 7 6 6 6 6 6 5 5 6 6 6 6 5 6 5 6 5 5 5 6 5 5 5 6 4 5 5 6 5 5 4 4 4 4 4 4 2 7
7 7 7 7 7 6 7 7 7 6 7 6 6 6 7 7 6 7 6 7 7 7 6 6 6 5 6 7 6 7 6 7 7 6 6 6 6 7 7 6 6 6 6 6 5 6 6 5 6 7 6 7 7 6 6 6 5 6 6 6 5 5 5 5 5 6 5 5 6 5 6 5 4 5 4 4 5 4 3 7
8 7 7 7 7 7 7 7 8 7 7 7 8 7 8 7 7 8 8 7 7 8 8 8 8 8 8 8 8 8 8 8 8 8 8 8 8 8 8 8 7 7 7 8 7 7 8 7 7 8 7 8 8 7 8 7 7 7 7 7 7 7 7 7 7 7 7 5 6 6 7 6 5 6 6 5 6 5 3 7
9 8 8 8 8 8 7 8 8 8 8 8 8 8 9 8 8 8 8 8 8 8 9 9 9 9 9 9 9 9 8 9 8 9 9 9 9 9 9 9 9 9 9 9 9 9 9 9 9 9 8 8 9 9 8 8 8 8 8 8 8 7 7 8 8 8 8 7 8 7 7 7 7 7 7 7 6 6 4 7
9 8 8 8 8 8 8 8 8 8 8 8 8 8 8 8 8 8 9 8 9 8 9 8 8 8 9 9 9 8 9 9 9 9 9 9 9 9 9 9 9 9 9 9 9 9 9 9 9 9 9 9 8 9 8 8 8 8 8 7 8 8 8 8 8 8 7 7 7 8 7 7 7 7 7 7 7 7 5 7
8 7 7 7 8 8 7 8 7 7 8 7 8 8 8 7 8 8 8 8 8 8 8 7 8 8 8 8 8 7 7 7 8 8 8 8 8 9 8 8 8 8 8 7 7 8 8 7 8 8 7 8 8 8 7 7 7 8 7 7 7 7 7 6 7 7 7 7 6 6 6 7 7 6 5 6 5 4 3 7
8 7 7 7 6 7 7 7 7 7 7 7 7 7 7 7 7 7 7 7 7 7 7 6 7 7 7 6 7 7 6 6 6 7 7 6 7 7 7 6 7 7 7 6 5 6 6 6 6 6 6 6 6 6 6 6 6 7 6 6 5 5 5 6 6 6 7 6 5 6 5 6 5 5 4 3 4 1 1 6
7 7 7 7 7 6 7 7 7 6 6 7 7 7 7 7 7 7 6 6 7 7 7 7 7 6 7 7 7 6 6 7 7 7 7 8 8 3 7 7 7 6 6 7 6 7 6 6 6 6 6 6 6 7 7 6 3 7 7 7 5 6 6 6 6 6 6 6 5 5 6 6 5 5 4 4 5 4 3 6
7 7 7 7 6 6 7 7 6 6 7 7 7 7 7 7 7 6 6 6 6 7 7 6 6 6 7 7 6 7 7 7 7 7 7 7 15 76 22 6 6 7 7 7 4 6 6 6 6 5 6 6 7 6 6 22 56 10 6 7 6 6 7 6 6 5 5 5 5 5 6 6 6 4 4 3 4 5 3 6
8 8 8 8 7 7 8 8 8 7 8 8 8 8 8 8 8 8 8 8 8 8 7 8 8 8 8 8 8 8 8 8 8 8 8 7 22 120 29 7 9 8 9 8 8 8 9 9 9 8 8 8 8 8 7 34 94 11 8 8 8 7 7 7 8 7 7 7 7 7 7 7 7 6 6 6 7 6 6 9
9 8 9 8 8 8 8 8 8 8 8 8 9 9 8 8 8 9 9 8 9 9 9 9 9 9 9 8 9 9 9 9 9 9 9 9 11 10 11 9 9 9 9 9 9 9 9 9 9 9 9 9 8 9 9 9 8 10 9 8 8 8 8 8 8 8 8 8 8 8 8 8 7 7 7 6 7 7 5 9
8 8 8 8 8 8 8 8 8 8 8 8 8 8 8 9 9 8 8 8 9 8 9 8 9 8 9 9 9 9 8 9 9 9 9 9 9 9 9 9 9 9 9 9 9 9 9 9 8 9 9 9 8 9 9 9 9 9 8 8 8 8 8 8 8 8 8 7 8 8 8 8 7 8 7 7 7 6 6 8
7 7 7 7 7 7 8 7 7 7 6 7 7 7 7 7 7 7 6 7 7 7 7 7 8 7 8 6 7 8 7 7 8 8 7 8 8 8 8 7 7 7 7 7 7 7 7 7 7 7 7 7 7 7 7 6 7 6 7 6 7 6 6 6 7 6 6 6 5 5 6 6 6 6 5 4 5 4 4 7
8 6 6 7 7 6 7 7 6 6 6 6 6 6 7 7 7 7 7 7 6 7 6 7 7 7 7 7 6 7 7 6 6 7 6 7 7 7 7 7 7 6 6 7 6 7 7 6 7 6 6 4 6 7 6 6 6 6 7 6 6 6 5 6 6 6 6 6 5 5 5 5 6 5 5 4 4 3 3 7
7 7 7 7 6 7 7 7 6 6 7 7 6 6 7 7 7 7 7 7 6 6 7 7 7 7 7 6 7 7 7 7 6 7 7 7 6 7 6 6 6 6 6 6 6 6 6 6 6 6 6 5 6 6 6 5 5 6 6 6 5 6 6 4 6 6 6 5 5 6 5 5 3 4 3 3 3 2 3 7
7 7 7 7 7 7 7 7 7 7 7 7 6 7 7 7 7 6 7 7 7 7 7 7 7 7 7 7 7 7 7 7 6 7 7 7 7 6 7 7 7 7 7 7 7 7 7 6 6 6 6 7 7 6 6 7 7 6 7 6 6 6 5 5 6 6 6 6 6 6 6 4 5 4 3 4 5 4 3 6
8 8 8 8 8 8 8 8 8 8 8 8 8 8 8 8 8 8 8 8 8 8 9 8 8 8 9 9 8 9 9 9 9 9 9 9 9 9 9 9 9 9 9 9 9 9 9 9 9 9 9 9 8 9 8 8 8 8 8 8 8 8 8 8 8 8 8 8 8 7 8 7 7 7 7 7 6 7 6 8
9 8 8 8 8 8 8 8 8 8 8 8 8 8 8 9 8 8 8 8 8 9 8 8 8 9 9 8 9 9 8 9 9 9 9 9 9 9 9 9 9 9 9 9 9 9 9 9 9 9 9 9 8 9 8 9 8 9 8 8 9 8 8 8 8 8 8 7 8 7 8 8 7 8 7 6 7 7 7 8
9 8 8 8 8 8 8 8 8 8 8 8 8 8 8 8 8 8 8 8 8 8 8 8 8 8 8 8 8 8 8 8 9 8 8 9 9 9 9 8 9 9 8 8 9 8 9 9 8 9 9 9 8 9 9 9 8 8 8 8 8 8 8 8 8 8 7 7 7 8 8 8 7 7 7 7 7 7 6 9
7 7 7 7 7 7 7 7 7 7 6 7 6 7 7 7 7 7 7 7 7 7 7 7 7 6 7 7 7 7 6 7 7 6 5 6 7 7 7 6 6 7 7 7 7 7 7 7 6 6 6 7 7 6 7 6 6 7 6 6 6 6 6 6 6 6 5 4 5 5 5 6 5 5 4 4 3 5 5 7
7 6 7 6 6 7 7 7 7 6 6 7 7 7 6 6 6 7 7 7 6 6 7 7 7 7 7 7 7 6 6 7 7 6 6 6 6 7 6 6 6 7 6 6 7 6 7 7 6 6 5 5 6 6 6 6 6 5 5 5 5 5 5 5 6 6 5 4 5 5 5 5 5 5 3 4 4 4 3 7
6 6 7 7 7 7 6 6 6 6 6 6 7 7 7 7 6 6 7 7 7 7 7 6 7 7 6 6 6 6 6 6 6 7 6 6 5 6 6 6 7 6 5 7 6 7 6 6 7 6 6 5 5 6 6 6 5 6 4 5 4 4 5 6 6 6 5 5 5 6 5 5 5 4 4 4 4 3 2 7
7 7 7 7 7 7 7 7 7 7 7 7 7 7 7 7 8 7 7 7 7 7 7 7 7 7 7 8 7 7 7 7 7 7 6 7 7 7 8 7 7 7 7 8 7 7 7 7 8 7 7 7 7 7 7 6 7 7 7 6 6 6 7 6 6 6 6 6 6 6 6 6 5 5 5 4 5 5 4 7
9 8 8 8 8 8 8 8 7 7 7 8 8 8 8 8 8 8 8 8 8 8 8 8 8 9 9 8 8 8 8 8 8 8 9 9 9 9 9 9 9 9 9 9 9 9 9 9 9 9 9 9 8 9 8 9 9 8 8 8 8 8 8 8 8 8 8 8 8 8 8 8 8 7 7 7 8 7 7 9
8 8 8 8 7 7 7 8 7 8 8 8 8 8 8 8 8 8 8 8 8 8 8 8 9 8 8 9 9 8 8 8 8 8 9 9 9 9 9 9 9 9 9 9 9 9 9 9 8 9 9 8 9 9 8 9 8 9 8 8 8 8 8 8 8 8 8 8 7 7 8 8 7 7 7 6 7 7 6 9
8 7 8 8 8 7 7 8 7 7 8 8 8 8 8 8 8 7 7 8 8 8 8 8 8 8 8 8 8 9 8 8 8 8 8 8 8 8 8 9 8 8 8 8 8 8 8 8 8 8 8 7 8 8 8 8 8 8 8 7 8 8 8 7 7 7 7 6 7 7 7 7 7 7 7 6 6 6 6 8
7 6 7 7 7 7 7 7 7 7 7 7 6 7 7 7 7 6 6 7 7 6 7 7 7 7 7 6 6 7 6 7 6 7 7 7 7 7 7 7 7 6 6 6 7 7 7 6 7 7 7 6 7 8 8 11 19 10 7 6 7 6 5 6 5 6 5 5 6 6 5 5 4 5 5 4 4 4 3 7
7 7 7 7 6 7 6 7 6 7 7 7 6 7 7 6 7 7 7 6 6 6 6 6 7 7 7 7 7 7 6 7 7 7 6 6 8 14 12 8 8 8 7 7 7 8 8 8 8 8 7 7 7 7 7 17 116 26 5 7 6 5 6 5 4 5 6 6 6 6 5 5 4 5 5 5 4 4 3 7
7 7 6 6 7 6 6 7 6 7 7 6 6 7 7 7 7 7 7 7 7 6 7 6 7 7 7 6 7 7 7 6 7 7 7 7 5 105 79 4 7 7 7 6 6 6 6 6 6 5 6 6 7 6 7 10 22 10 7 6 6 6 5 5 6 6 5 5 6 5 5 5 5 5 4 4 4 5 3 7
8 7 8 7 7 7 7 8 7 7 7 7 7 7 7 8 8 7 7 8 7 7 7 8 7 7 7 8 7 7 8 7 7 8 8 7 9 29 25 8 8 8 8 8 7 7 8 8 8 7 7 7 8 8 8 8 6 7 7 7 6 7 6 7 7 6 6 7 7 6 7 7 6 5 5 5 5 6 5 7
8 7 8 7 7 8 8 7 7 7 7 7 8 8 8 8 8 8 8 8 8 8 8 8 8 8 8 8 8 8 8 8 8 8 8 8 9 7 7 9 9 9 8 9 9 9 8 8 8 8 8 9 8 9 8 8 8 8 8 8 8 8 8 8 8 7 7 8 8 7 7 7 7 7 6 6 7 6 5 9
8 7 8 8 8 8 8 8 8 8 8 8 8 8 8 8 8 8 8 8 8 8 8 8 8 8 8 8 8 8 8 8 8 8 8 8 8 9 8 8 9 9 9 8 8 9 9 9 8 8 8 8 8 8 8 8 8 8 8 7 8 7 8 8 8 8 7 7 7 7 7 7 7 7 7 7 7 7 7 8
8 7 7 7 7 8 7 7 7 7 7 7 7 7 7 7 7 7 7 7 7 7 7 7 7 7 7 8 7 7 7 7 7 7 7 7 7 8 7 7 7 6 7 7 6 7 7 6 7 7 7 7 7 7 7 6 7 7 7 7 6 6 6 5 6 7 6 6 5 5 6 6 5 6 4 4 4 4 5 8
7 7 7 7 7 6 7 7 7 7 7 7 7 7 7 7 7 6 6 7 6 7 6 7 6 7 7 6 6 6 6 7 7 7 6 6 6 7 7 5 6 6 5 6 6 6 6 6 6 6 6 5 6 6 6 5 6 6 5 6 5 5 5 5 5 6 5 5 5 4 5 5 4 5 3 3 4 3 3 6
7 7 7 6 6 7 7 7 7 6 7 6 6 7 7 6 6 7 7 7 7 7 7 7 6 7 7 7 6 6 7 7 7 7 6 7 7 7 6 6 6 7 6 6 6 6 7 5 6 6 5 6 6 6 5 5 5 6 6 6 6 5 6 6 6 6 6 6 4 5 6 6 4 5 5 5 4 4 3 7
7 6 7 7 7 7 6 7 6 7 6 6 6 6 7 7 6 6 6 7 6 7 7 7 7 7 7 6 7 7 7 7 6 7 6 6 6 6 6 6 6 6 6 6 5 5 6 6 6 6 6 6 6 7 6 5 6 6 6 5 5 5 6 6 6 6 6 6 5 5 5 5 5 5 6 5 4 4 3 7
8 7 7 7 7 8 7 7 7 7 7 7 7 7 7 8 7 8 8 7 7 8 8 8 8 8 8 8 8 8 8 7 8 8 8 7 7 8 7 7 8 8 7 8 7 7 8 7 7 8 8 7 7 8 8 7 7 7 7 7 7 7 8 7 7 7 7 7 7 7 7 7 7 7 6 7 6 5 5 8
8 8 8 8 8 8 7 8 8 7 8 7 8 7 7 8 8 8 8 8 8 8 8 8 8 8 8 8 8 8 8 8 8 8 8 8 8 8 8 8 8 8 8 8 8 8 8 8 8 8 8 8 8 8 8 8 8 7 8 8 7 7 7 8 7 7 7 7 6 7 7 7 7 7 6 6 7 6 6 8
8 7 8 8 8 8 7 8 8 7 8 8 7 8 8 7 7 8 8 8 8 8 8 8 8 8 8 8 8 8 8 8 8 8 8 8 8 8 8 8 8 8 8 8 8 8 8 8 8 8 7 7 8 8 8 8 7 8 8 8 7 8 8 7 7 7 7 7 7 7 7 6 7 6 7 6 7 5 6 9
7 6 6 7 7 6 7 7 7 7 7 6 7 7 7 7 7 7 7 7 7 7 7 6 6 6 6 6 6 7 7 6 6 7 6 5 6 7 6 6 6 6 6 6 6 7 6 6 6 6 7 5 6 6 6 6 5 6 6 6 6 6 6 5 6 7 6 6 5 6 5 5 6 5 4 4 5 4 5 7
7 6 6 7 6 7 6 7 7 6 6 6 6 5 6 6 6 6 6 7 7 7 6 6 6 7 6 5 6 6 6 6 5 6 6 5 4 6 6 5 6 5 6 6 6 5 5 5 5 5 6 4 4 6 6 5 4 5 5 6 5 3 3 4 5 5 4 5 5 5 4 4 5 4 4 4 3 3 3 6
6 6 6 6 7 7 7 7 6 6 7 7 6 6 6 7 6 7 6 6 6 7 6 6 5 7 7 6 6 6 6 7 6 6 5 6 6 6 6 6 6 6 6 5 6 6 6 5 6 6 5 5 5 7 5 5 6 6 5 6 5 6 5 6 5 6 6 6 5 4 5 5 5 5 5 4 3 3 2 7
7 6 7 7 7 7 7 7 7 6 6 6 7 7 7 7 7 7 7 7 7 7 7 6 6 7 6 6 6 7 6 7 7 7 7 7 6 6 6 7 7 6 6 7 6 6 6 6 6 6 6 6 6 7 5 6 6 5 6 5 5 5 6 5 5 6 6 7 6 6 6 6 5 3 4 5 5 4 3 6
8 7 7 7 7 7 7 7 7 7 8 8 7 7 7 8 7 7 8 8 8 8 8 8 8 8 8 8 8 8 8 8 8 8 8 7 8 8 7 7 8 7 8 7 8 8 8 8 7 8 8 7 7 7 7 7 7 7 8 7 7 7 7 7 7 7 7 7 7 7 7 7 6 7 7 7 7 6 5 8
8 7 8 7 7 8 8 8 7 8 8 8 7 7 8 7 8 8 8 8 8 8 8 8 8 8 8 8 8 8 8 8 8 8 8 8 8 8 7 7 8 8 8 8 8 8 8 8 8 7 8 7 8 7 8 7 7 8 8 7 7 7 7 8 7 7 7 7 7 7 6 6 7 6 6 6 7 6 6 8
8 7 7 7 7 7 8 8 7 6 7 7 6 7 7 7 7 7 8 8 8 7 8 8 8 8 7 7 8 8 7 8 8 8 8 8 7 7 8 7 7 7 7 8 8 7 7 7 7 7 7 7 7 7 8 7 8 7 8 7 7 7 8 7 7 7 7 6 6 6 6 6 6 6 6 6 7 6 6 8
7 7 7 6 5 6 6 6 6 6 7 6 6 6 6 6 7 6 5 6 7 7 7 7 7 7 7 6 6 6 6 7 7 7 6 6 6 6 6 6 7 7 7 6 5 6 6 7 6 6 6 6 6 5 6 6 6 5 6 6 5 6 5 5 5 5 6 5 5 5 4 5 3 4 4 4 4 4 4 6
7 5 6 6 6 6 6 7 6 6 7 6 6 6 6 6 6 5 5 6 6 6 6 7 6 6 7 6 6 7 6 6 6 6 6 6 6 6 7 6 6 6 5 6 5 6 6 6 5 6 6 5 5 6 6 5 5 6 6 6 6 5 6 5 5 5 4 4 5 6 6 6 3 3 4 4 3 3 3 6
7 6 7 7 7 7 7 7 6 6 7 7 6 7 7 7 6 6 7 7 6 7 7 7 6 7 6 6 6 6 6 5 6 6 6 7 6 7 6 6 6 6 6 6 6 5 4 6 5 5 6 6 6 5 5 6 5 5 6 6 6 6 6 5 6 6 5 5 4 4 5 4 4 4 5 5 4 4 3 7
8 7 7 7 7 7 7 7 7 6 6 6 7 7 7 6 7 7 7 7 7 7 8 7 7 7 7 6 6 8 6 7 7 7 7 7 7 7 6 6 6 7 5 7 7 6 7 6 6 6 6 6 6 7 7 6 6 6 7 6 6 5 6 6 6 6 5 6 5 6 6 6 5 5 5 5 5 5 4 7
8 8 7 7 7 7 7 8 8 8 8 7 7 7 7 8 8 8 8 8 8 8 8 8 8 8 8 8 7 8 8 8 8 8 8 8 7 7 7 7 8 7 7 8 8 8 7 7 7 7 7 6 7 7 7 7 7 7 7 7 7 7 7 7 7 7 7 7 6 6 7 7 6 6 6 6 6 6 5 7
8 7 7 7 7 7 8 8 8 8 8 8 7 7 7 7 8 7 7 8 8 8 8 8 8 8 8 7 8 8 8 8 8 8 8 7 7 7 7 7 8 7 7 8 7 7 7 8 7 7 8 7 7 7 7 7 7 7 7 8 7 7 7 6 7 7 7 7 7 7 7 7 6 6 6 6 5 6 6 8
8 7 7 7 7 7 7 8 7 7 7 7 7 7 7 6 8 7 7 7 8 7 8 7 7 7 7 8 7 8 7 8 7 7 8 7 7 7 7 7 7 7 7 7 6 6 7 7 7 7 7 7 7 7 7 7 7 6 7 7 6 6 7 7 7 7 7 7 6 6 6 6 6 6 5 6 5 6 7 10
7 6 7 7 6 7 6 7 6 6 6 5 7 7 7 7 7 7 7 7 6 7 6 7 7 6 7 6 6 7 6 7 6 6 6 6 6 7 6 6 6 6 5 5 5 5 5 5 5 5 6 6 5 5 6 6 5 5 5 5 5 5 6 5 5 6 5 5 5 6 5 5 4 5 6 5 6 8 9 8
8 6 6 6 7 7 6 7 7 6 6 7 6 6 7 7 6 6 7 7 6 6 6 6 7 7 6 5 6 7 6 6 7 6 6 7 6 6 6 6 5 6 5 6 6 5 5 4 5 4 4 5 5 5 6 5 4 5 5 5 4 4 5 5 5 4 5 5 5 6 5 6 7 7 8 9 10 9 8 31
