P2
80 80
255
31 12 8 8 8 8 8 7 8 7 7 7 7 8 8 8 7 7 7 8 8 8 8 8 8 7 8 8 9 8 8 8 8 9 9 8 8 9 8 9 9 8 8 8 8 9 8 8 9 8 8 8 8 8 8 8 8 8 7 8 8 8 9 7 8 7 7 7 7 7 7 7 7 6 6 6 7 6 4 8
5 7 8 7 7 7 7 7 6 7 6 7 6 6 6 7 7 7 7 7 7 8 7 7 7 8 7 8 10 8 7 8 8 8 8 8 8 8 8 7 8 8 7 8 7 8 8 8 7 7 7 7 7 7 7 6 7 7 7 7 7 7 7 7 7 7 7 6 6 6 6 6 6 5 6 5 5 5 4 7
7 7 7 7 7 7 7 7 7 7 7 6 6 7 7 7 8 8 6 7 7 8 8 7 7 8 8 8 11 8 7 8 8 8 7 8 8 8 7 7 8 7 8 7 7 7 7 7 7 7 7 7 7 7 7 6 7 6 8 9 7 6 6 7 7 7 7 7 7 6 6 6 6 6 5 5 5 4 4 8
7 6 6 7 6 6 7 7 7 6 6 5 6 6 7 7 7 7 6 6 6 6 7 7 6 7 6 6 8 7 6 6 7 7 6 6 6 6 6 5 6 6 6 7 6 6 6 5 6 5 5 6 5 6 6 6 5 5 6 7 6 4 5 5 4 6 5 5 4 4 4 4 5 4 4 4 3 3 3 6
7 7 6 7 6 6 7 7 7 6 6 7 6 7 7 7 7 6 6 7 7 7 6 7 7 6 6 6 7 7 6 6 6 7 6 5 5 6 6 5 6 5 5 6 5 5 5 5 5 6 6 5 4 4 5 6 5 5 4 5 5 5 5 5 4 5 5 4 4 3 4 4 5 4 4 4 3 3 3 7
6 6 6 6 6 7 7 5 6 6 7 6 5 6 7 5 6 6 6 6 6 7 6 7 6 5 6 6 7 6 6 6 6 6 6 5 6 6 6 5 5 6 5 6 6 6 6 6 6 6 5 4 5 5 5 6 4 4 4 5 5 5 4 4 5 4 5 5 5 4 4 4 5 4 3 3 2 3 2 7
7 6 6 6 7 7 7 6 7 7 6 5 6 6 6 6 7 7 6 6 5 7 7 7 6 7 6 6 6 6 6 6 6 6 6 5 6 6 6 6 5 6 5 6 6 6 6 6 6 7 6 5 5 6 6 6 5 5 5 6 6 5 5 5 5 5 4 4 4 4 4 4 4 4 3 4 4 3 2 6
8 7 7 7 7 7 7 7 7 7 7 7 7 7 7 7 7 7 7 7 7 7 7 7 7 7 7 7 7 7 8 7 7 8 8 8 8 8 8 8 7 8 7 8 7 8 7 7 7 7 7 7 7 7 7 7 7 6 7 7 7 6 7 7 7 7 6 7 6 7 6 6 6 6 6 6 6 6 5 8
8 7 7 7 7 7 7 7 7 7 7 7 7 7 7 8 7 7 7 7 7 7 7 8 7 7 7 7 7 8 7 8 8 8 8 8 7 8 8 8 8 8 7 8 8 8 8 8 7 8 7 7 7 7 7 7 7 6 7 7 7 7 7 8 7 7 7 7 7 7 7 7 6 7 5 6 6 7 6 8
8 7 7 7 7 7 7 7 7 7 6 7 7 7 7 7 7 7 7 7 7 7 7 7 7 7 7 6 7 7 7 7 7 7 7 7 7 7 7 7 7 8 8 7 7 7 7 7 7 7 7 7 7 6 6 7 6 7 7 7 7 6 6 6 7 6 6 6 6 6 7 6 5 5 5 5 5 5 5 8
7 6 6 7 6 7 6 7 7 6 6 6 6 6 6 7 7 6 6 6 6 7 6 6 6 6 7 6 6 6 6 6 6 5 5 5 6 6 6 5 6 6 6 6 5 5 6 6 6 5 5 6 5 4 4 5 4 5 5 5 5 5 5 5 5 4 4 5 3 4 5 4 4 4 3 3 3 3 2 6
7 6 6 6 7 6 6 7 7 7 7 6 6 7 7 6 6 6 6 6 6 6 6 6 6 7 7 6 7 6 6 6 5 6 6 5 6 6 6 6 6 5 6 6 6 6 5 6 5 5 5 5 6 5 6 5 4 6 6 6 5 6 5 4 5 6 5 4 3 5 4 3 4 3 3 3 3 3 2 6
7 6 6 7 7 7 6 6 6 7 7 7 6 7 6 6 6 6 6 6 7 6 6 6 6 6 6 6 6 5 5 6 6 7 6 6 7 6 5 6 5 5 5 5 5 5 5 6 6 5 6 5 5 5 5 4 5 6 5 6 5 5 4 4 5 5 4 5 4 4 5 4 4 4 3 3 3 3 3 6
7 6 7 7 7 7 7 7 7 7 7 7 7 8 8 7 7 8 7 8 7 7 7 7 7 7 7 6 7 8 7 7 7 7 8 8 7 7 8 7 6 7 7 7 7 7 7 7 7 6 7 6 6 7 6 7 6 6 6 7 7 6 6 7 7 6 5 6 6 6 6 6 5 5 5 5 5 5 5 8
8 7 7 7 8 7 7 8 6 7 8 8 8 8 8 8 8 8 8 8 7 8 8 8 8 8 8 8 8 8 8 8 8 8 8 8 8 8 8 8 8 8 8 8 8 8 8 8 8 8 8 8 8 8 8 8 7 7 7 8 8 8 8 7 7 7 7 7 7 7 7 7 6 6 6 6 7 6 6 9
7 8 7 7 7 7 7 8 7 8 8 8 8 8 7 8 8 8 7 8 8 8 8 8 8 7 8 8 8 8 8 8 8 8 8 8 8 8 8 8 8 8 8 8 8 8 8 8 8 8 8 8 8 8 8 8 7 8 7 8 7 8 7 6 8 8 7 7 7 7 7 7 7 7 6 6 6 7 6 8
7 7 7 7 6 7 6 7 7 7 7 7 7 7 8 7 7 8 7 8 7 7 7 7 7 7 7 7 8 7 7 7 8 7 8 8 7 8 7 8 7 7 8 7 7 7 7 7 7 7 7 7 7 7 7 6 6 7 7 6 7 6 6 6 6 7 7 6 6 6 6 6 6 6 5 5 5 6 5 8
7 6 7 7 6 6 5 7 7 7 7 5 6 7 7 7 6 7 7 6 7 7 6 6 6 7 6 6 6 7 6 6 6 6 5 6 5 6 6 6 6 6 6 6 6 6 6 6 6 6 6 6 6 5 4 6 5 6 6 5 5 3 5 5 5 6 5 6 5 5 5 4 4 4 4 4 5 3 2 6
7 7 7 7 7 7 7 7 7 7 7 6 7 7 7 7 7 7 7 6 7 6 7 7 6 7 6 7 7 6 6 6 7 7 6 6 6 7 6 6 6 6 5 7 7 6 6 6 6 6 6 6 6 6 6 6 4 5 6 4 4 5 6 5 6 5 4 5 5 6 6 5 4 5 4 4 4 3 2 7
7 6 7 7 6 7 7 7 7 6 7 7 7 7 7 7 7 6 7 7 6 6 6 7 6 6 6 6 6 6 6 6 7 6 7 6 6 6 6 6 5 4 7 6 5 6 6 6 6 5 6 5 5 6 6 6 5 5 6 5 6 6 5 4 4 4 5 5 5 4 4 5 4 4 2 3 4 3 2 6
8 7 7 7 7 8 8 7 7 7 8 8 8 8 7 8 8 7 8 8 8 8 8 8 8 8 8 8 8 8 8 8 8 8 8 8 8 8 8 8 7 7 8 8 8 8 7 7 7 8 8 7 7 8 8 7 8 7 7 7 7 7 7 6 6 7 7 7 7 6 6 7 7 6 6 6 6 6 4 8
8 8 8 8 8 7 7 8 7 8 8 8 8 8 8 8 8 8 8 8 8 8 8 8 8 8 8 8 9 9 9 9 9 9 8 9 9 8 9 9 9 8 9 9 9 9 8 9 8 8 8 8 8 8 8 8 8 8 8 8 8 8 8 7 7 8 8 7 7 7 7 7 7 7 7 6 6 6 7 8
8 8 8 8 7 8 7 8 8 7 8 8 8 8 8 8 8 8 8 9 8 9 9 8 9 8 8 8 9 9 9 9 9 9 9 9 9 9 9 8 9 9 9 9 9 9 9 8 8 8 9 8 8 8 8 8 8 8 8 8 8 8 7 7 7 8 8 7 7 7 7 7 6 7 6 7 5 5 6 8
7 7 7 7 7 7 7 7 7 7 7 7 7 7 7 7 7 7 7 7 7 7 7 7 7 7 7 7 7 7 7 7 7 7 7 7 7 7 8 7 7 8 7 7 7 6 7 6 6 6 7 7 6 7 6 6 6 6 6 5 6 6 5 6 6 5 5 6 5 6 6 6 5 6 5 5 4 2 3 7
7 7 7 7 7 7 6 6 7 6 7 7 6 6 7 7 7 7 6 7 7 7 7 7 6 6 7 6 5 7 6 7 7 6 5 5 6 6 6 6 6 7 6 7 7 5 5 6 6 4 5 6 6 6 6 6 5 5 5 5 5 5 6 5 4 5 4 4 5 4 4 5 5 5 3 4 2 2 2 6
8 7 7 8 7 6 6 7 7 7 7 7 7 7 7 7 7 6 6 6 7 7 7 6 6 7 7 7 7 7 6 7 6 7 6 6 6 7 6 6 6 6 6 6 7 6 6 6 6 6 6 5 4 5 6 6 5 6 5 6 5 5 7 5 4 4 5 5 5 5 5 5 4 5 4 4 3 3 3 6
7 7 7 7 7 7 7 7 7 7 7 7 7 7 7 7 7 7 7 7 7 7 7 7 7 7 7 7 6 7 7 7 7 7 7 7 7 6 7 6 6 7 6 6 7 6 6 6 6 7 7 7 7 6 6 6 5 6 6 5 5 6 6 6 6 5 6 6 6 6 5 5 5 4 4 5 3 3 4 8
8 8 8 7 7 8 8 8 8 7 7 8 8 8 8 8 8 8 8 9 8 8 9 9 8 8 8 8 8 8 8 9 8 9 8 9 9 8 8 9 8 8 9 9 8 8 8 8 8 8 8 8 8 8 8 8 8 8 8 8 7 8 8 7 8 8 7 6 7 7 7 7 6 6 7 5 6 4 4 8
8 8 8 8 7 7 8 8 8 7 8 8 8 8 8 8 8 8 8 8 8 8 9 9 9 9 8 8 9 9 9 9 9 9 9 9 8 8 9 9 9 9 9 9 9 9 8 9 9 9 8 8 9 8 8 8 8 8 8 8 7 8 8 8 8 8 7 7 7 7 7 7 7 6 7 6 6 5 5 8
8 7 7 8 7 7 8 8 8 8 8 8 8 8 8 8 8 8 8 8 8 8 8 8 8 8 8 8 8 8 8 8 8 8 8 8 9 9 9 9 9 9 8 9 9 9 9 8 8 8 8 8 8 8 8 8 7 8 8 8 8 8 8 7 7 8 7 7 7 7 7 7 6 7 6 7 7 4 4 8
7 7 7 7 7 6 6 7 7 6 6 6 7 7 7 7 7 7 6 6 7 6 6 7 7 7 7 6 7 7 6 6 7 7 7 7 7 7 7 7 7 7 6 6 6 6 7 6 7 7 6 6 6 7 7 6 6 6 7 6 6 6 6 6 5 6 5 5 5 5 5 5 4 4 4 3 3 3 2 6
7 6 7 7 7 7 7 7 7 6 7 6 6 6 7 7 7 7 7 7 7 7 6 7 7 7 7 7 7 7 6 7 6 7 7 7 7 7 7 6 7 6 6 7 6 6 7 7 7 6 6 6 6 7 7 6 6 6 6 6 4 5 5 5 5 5 5 5 6 6 6 5 3 4 4 4 4 4 2 7
7 7 7 7 6 7 6 7 6 7 7 7 6 7 7 6 6 6 6 7 7 7 7 7 6 6 6 6 7 6 6 7 6 7 7 9 8 8 8 7 6 6 6 7 6 7 6 6 6 5 6 6 6 7 8 10 8 6 6 6 6 6 5 4 5 6 6 5 5 5 6 6 4 3 3 4 5 2 2 7
8 7 7 7 7 7 7 7 6 7 6 7 7 7 7 7 7 7 7 7 7 7 7 7 7 7 7 8 7 7 7 7 7 7 6 26 124 24 6 8 7 7 7 7 7 6 6 6 7 7 7 7 7 5 46 100 9 7 7 7 7 6 6 6 6 6 6 6 6 6 6 5 4 4 4 5 5 4 4 8
9 8 8 8 8 8 8 8 8 7 8 8 8 8 8 8 9 8 8 9 9 8 9 9 9 9 9 8 9 9 9 9 9 9 9 21 62 17 9 9 9 9 9 9 9 9 9 9 9 9 9 9 9 8 22 42 11 8 9 8 8 7 7 8 8 8 8 8 8 8 8 7 7 7 6 6 7 5 6 9
8 8 8 8 8 8 8 8 8 8 8 8 8 8 8 8 8 8 9 9 9 8 9 8 9 8 9 9 9 9 9 9 9 9 9 10 7 10 9 9 9 9 9 9 9 9 9 9 9 9 8 9 9 9 8 7 9 9 8 8 8 8 8 8 8 8 8 8 8 8 8 8 8 7 7 6 7 6 6 9
8 7 8 8 8 7 8 8 7 8 8 8 7 8 8 8 8 8 8 8 8 8 8 8 8 8 8 8 8 8 8 8 8 9 8 8 8 8 9 9 8 8 8 8 8 8 9 8 8 8 8 8 8 8 7 8 8 8 8 7 7 7 7 7 7 7 7 7 7 6 6 7 6 7 6 5 5 5 5 8
7 6 7 7 7 6 6 7 7 6 6 7 7 7 7 6 6 6 7 6 6 7 6 6 7 6 6 6 6 7 7 7 7 7 6 7 7 6 7 6 7 7 6 7 6 6 6 6 5 6 6 6 6 7 5 6 7 7 6 6 6 6 5 5 5 5 5 5 5 4 5 6 4 5 4 3 3 2 2 7
8 7 7 7 6 7 6 7 7 7 7 7 7 7 7 7 6 6 7 7 7 7 6 7 7 7 7 6 7 7 7 7 7 7 6 7 7 7 7 5 6 7 7 6 6 6 7 6 6 6 6 5 6 6 5 6 6 6 6 6 6 5 5 5 5 6 5 6 5 4 5 6 4 4 4 5 4 3 3 6
7 7 6 7 6 7 7 7 6 7 6 7 6 7 7 7 6 7 7 7 7 6 6 6 6 7 7 6 6 6 6 7 6 7 6 6 7 7 6 6 7 7 7 6 6 7 6 5 7 6 6 6 6 6 6 5 6 6 6 6 5 6 6 5 6 6 5 5 4 5 5 5 4 5 5 4 4 3 3 8
8 7 7 7 7 7 7 8 7 8 7 7 8 7 8 7 7 8 8 7 8 7 7 8 8 8 8 8 8 8 7 8 8 8 8 8 8 8 8 7 8 8 7 7 8 8 7 7 8 8 7 7 8 7 8 7 7 7 7 8 7 7 7 7 7 6 6 6 6 7 7 6 6 7 6 5 6 5 5 8
8 8 8 8 8 8 8 8 8 8 8 8 8 8 8 8 8 8 8 9 9 9 9 9 9 9 9 9 9 9 9 9 9 9 9 9 9 9 9 9 9 9 9 9 9 9 9 9 9 9 9 9 9 9 8 8 8 8 8 8 8 8 7 8 8 8 8 7 8 8 7 7 7 7 7 7 7 7 7 8
8 8 8 8 8 8 8 8 7 8 8 8 8 8 8 8 8 8 8 8 8 9 8 8 8 9 9 9 9 9 8 8 9 9 9 9 9 9 9 9 9 9 9 9 9 9 9 9 9 8 9 9 9 9 9 8 8 8 8 8 8 8 8 8 8 8 8 7 8 7 7 8 7 7 7 7 6 7 7 9
8 7 7 8 7 7 8 7 6 7 7 7 8 8 8 7 7 7 7 7 8 7 7 7 7 7 7 8 7 7 7 7 7 7 8 7 8 8 8 7 8 8 7 7 8 7 8 8 7 8 8 8 7 7 7 7 7 7 7 7 7 7 7 6 6 6 6 7 6 6 6 6 6 6 5 5 6 6 5 8
7 6 7 7 6 7 6 6 7 6 5 7 7 7 7 6 6 7 6 7 6 6 6 6 6 7 7 7 7 6 7 7 6 6 6 6 5 6 7 6 6 7 6 6 6 6 6 5 5 6 5 5 6 5 5 6 6 5 5 6 6 4 4 4 5 5 4 5 4 5 4 5 4 4 4 4 3 3 3 7
7 6 7 7 6 6 7 7 7 6 6 6 6 7 7 7 7 7 6 6 6 6 7 6 6 7 7 7 7 7 7 7 6 6 6 6 6 5 6 6 6 7 6 7 6 7 6 6 5 6 6 5 5 6 6 5 6 6 6 5 5 5 5 5 6 6 4 4 5 5 4 6 5 4 4 4 4 4 3 6
6 6 6 7 6 6 7 7 6 6 6 6 7 7 7 7 7 7 7 7 6 6 6 7 7 6 7 6 6 6 6 7 6 5 6 6 6 6 6 5 6 6 5 6 6 6 6 5 6 6 6 6 6 6 5 5 5 5 5 6 5 5 4 5 6 5 6 5 4 5 4 5 5 5 5 4 4 4 2 7
8 7 8 8 7 8 8 8 8 7 7 8 8 8 8 8 7 8 8 7 8 8 8 8 8 8 8 7 7 7 7 8 8 8 8 8 8 9 8 8 8 9 8 8 8 8 8 8 8 8 8 8 8 8 7 8 8 8 8 8 7 7 8 8 7 7 7 7 7 7 7 7 6 6 6 5 6 6 6 8
9 7 7 8 8 8 8 8 8 7 8 8 8 8 8 9 8 8 8 8 8 8 8 8 8 8 9 8 8 8 8 8 8 8 9 8 9 9 9 9 9 9 9 9 9 9 9 9 9 9 8 8 9 9 8 8 8 8 8 8 8 8 8 8 8 7 8 7 8 7 7 7 7 7 7 7 7 7 6 9
8 8 8 7 7 8 8 8 8 8 8 8 8 8 8 8 8 8 8 8 8 8 8 8 8 8 9 8 8 8 8 8 8 8 8 8 9 9 9 9 9 8 9 9 9 9 9 9 8 8 9 9 8 8 8 8 8 7 8 8 7 8 8 8 7 8 7 7 7 7 6 7 7 7 6 6 7 7 6 9
7 6 6 7 6 7 6 7 7 7 7 7 7 7 7 7 7 7 7 7 7 6 7 7 7 7 7 7 7 7 7 7 7 7 7 7 7 7 8 7 7 7 7 7 6 6 7 7 6 6 7 6 6 8 8 4 7 6 6 6 6 7 6 6 6 6 5 5 5 5 4 5 5 6 4 4 4 4 5 8
6 7 7 7 6 7 7 7 6 6 6 7 6 6 7 6 6 6 6 6 7 7 7 6 6 7 6 6 6 7 7 7 6 7 7 7 4 5 7 7 7 7 7 6 7 7 7 7 7 7 7 7 7 8 15 75 19 6 6 5 5 6 5 5 4 6 6 5 5 5 4 3 4 3 3 4 3 4 4 7
7 7 7 7 7 7 7 7 7 7 6 6 6 6 7 6 6 6 6 7 7 7 6 5 7 7 6 6 6 6 7 7 7 7 7 7 51 35 7 8 8 7 7 7 7 7 7 7 6 6 6 6 6 6 15 78 19 6 7 6 6 5 5 5 4 4 5 5 5 4 4 5 5 5 4 3 4 4 2 6
7 6 7 6 7 6 6 6 6 7 6 6 6 7 6 7 7 7 7 6 6 7 6 6 6 7 6 5 6 7 7 7 7 7 7 6 95 69 4 6 6 6 7 7 6 6 7 7 7 5 6 6 7 6 7 4 7 7 6 6 5 5 5 5 6 5 6 4 4 5 5 4 4 4 2 3 4 3 3 7
8 8 8 8 7 8 7 8 7 7 7 7 8 8 8 8 8 8 8 8 8 7 8 8 8 8 8 8 8 8 8 8 8 8 8 9 10 9 8 8 8 8 8 8 8 8 8 8 8 8 8 8 8 8 8 8 7 8 8 7 7 8 8 7 7 7 6 7 7 7 6 6 6 6 6 6 6 7 5 8
8 8 8 8 8 8 8 8 8 7 7 8 8 8 8 8 8 8 8 8 8 8 8 8 8 8 8 8 8 8 9 8 8 8 8 8 8 8 8 9 9 8 8 8 9 8 9 8 8 8 8 8 8 8 8 8 7 8 8 7 8 8 8 8 8 7 7 7 7 7 7 6 7 7 6 6 7 6 5 9
8 8 8 8 8 8 7 7 7 8 7 7 7 8 8 7 8 8 8 8 8 7 8 8 7 8 8 8 8 8 8 8 8 8 8 8 8 8 8 8 8 8 8 8 8 8 8 8 8 8 8 8 8 8 7 8 8 8 8 8 8 8 7 7 8 6 7 7 7 7 7 6 6 7 6 5 6 6 5 8
8 7 7 7 7 7 7 7 7 7 6 6 6 7 7 7 6 6 7 7 7 7 7 7 7 7 6 7 6 6 7 7 6 7 7 6 6 7 7 6 7 7 7 7 6 7 6 6 6 7 6 7 6 7 7 7 6 6 6 6 5 5 5 5 6 6 5 5 4 5 6 5 5 6 5 4 4 3 4 7
8 7 6 6 6 6 6 6 7 5 6 7 6 7 7 7 6 6 7 7 6 6 6 7 7 6 7 7 6 7 6 6 6 6 5 6 6 6 6 5 6 6 6 6 6 6 6 6 5 5 5 5 5 5 6 5 5 6 5 6 5 4 5 4 5 5 5 5 4 5 5 4 6 4 4 4 4 4 4 6
7 6 6 6 6 7 7 7 7 6 6 6 6 6 7 6 6 6 6 6 6 6 6 6 6 6 6 7 6 7 7 6 6 6 6 6 6 6 6 6 6 6 5 5 5 6 6 6 6 6 6 5 5 5 5 4 5 5 5 5 6 5 5 5 6 5 4 5 5 5 4 5 5 4 5 3 3 4 3 5
7 7 6 6 6 7 7 7 7 7 7 6 6 7 7 7 7 7 7 7 7 6 7 7 6 6 6 7 7 7 7 7 7 7 6 7 7 7 7 7 7 6 6 6 7 7 6 7 7 6 6 6 6 6 6 5 6 6 6 7 6 6 6 5 6 6 6 5 6 6 6 6 5 5 5 4 4 5 3 7
8 8 7 7 7 8 7 8 7 8 8 8 8 7 8 8 8 8 8 8 8 8 8 8 8 8 8 8 8 9 8 8 8 8 8 7 8 8 8 8 8 8 8 7 8 8 8 8 8 8 8 8 8 8 8 8 8 8 8 8 8 8 8 7 7 7 8 7 7 6 7 7 7 7 6 6 6 7 6 9
8 7 7 7 8 7 8 8 7 7 8 7 7 8 8 8 8 8 8 8 8 8 8 8 8 8 8 7 8 8 8 8 8 8 8 8 8 8 8 8 8 8 8 7 8 8 7 7 8 8 7 8 7 8 8 7 7 7 8 8 7 7 8 7 7 7 7 7 7 7 7 7 6 7 7 7 6 7 6 8
8 7 8 8 7 7 8 8 8 7 7 6 7 7 8 7 7 8 7 7 8 8 8 8 8 8 7 8 8 7 7 8 7 8 7 7 7 7 8 7 7 7 7 7 8 8 8 7 7 7 7 7 7 7 7 7 7 7 7 7 7 7 7 7 7 7 7 7 7 7 6 6 6 6 6 5 6 6 6 8
8 6 6 6 6 6 7 7 7 6 6 6 6 7 7 7 7 7 6 6 6 6 6 7 7 7 6 7 6 7 6 6 6 7 6 6 6 6 6 6 6 6 6 5 6 6 5 6 6 5 4 4 5 5 4 5 5 5 5 4 4 5 5 6 6 5 4 4 4 5 4 4 4 3 4 3 3 2 2 6
7 7 6 7 7 7 7 7 7 6 6 7 7 7 7 6 7 6 5 6 7 7 7 7 6 6 6 6 6 7 7 6 6 6 6 6 6 6 7 5 6 6 6 6 6 5 5 6 6 5 5 4 5 6 5 6 5 5 6 5 5 5 5 5 4 5 5 4 4 5 5 5 6 5 4 4 4 4 3 6
7 6 6 6 7 7 7 7 6 7 7 7 7 7 7 7 6 6 7 7 6 7 6 7 6 6 7 6 6 7 6 7 6 6 5 6 7 6 6 5 5 6 6 6 6 5 6 6 5 6 6 5 6 6 6 5 6 6 6 5 5 4 5 6 5 5 5 5 5 6 6 5 5 5 4 4 4 4 4 7
7 6 7 7 7 7 7 7 7 7 6 7 6 6 7 7 7 7 7 8 7 7 7 8 7 8 7 7 8 8 7 7 7 8 7 6 7 7 7 7 6 7 6 7 7 6 7 7 7 7 7 7 7 7 6 6 7 6 7 6 6 5 7 6 6 6 6 6 6 6 6 6 6 5 4 4 5 4 4 7
7 7 8 7 8 7 8 7 7 7 7 7 7 8 8 7 7 8 7 8 7 8 8 8 8 8 8 8 8 8 8 8 8 8 8 8 8 8 8 8 8 8 8 8 8 8 8 8 8 7 8 8 8 7 7 7 7 8 7 7 8 7 7 7 7 7 7 7 7 7 7 7 7 6 7 6 6 5 5 8
8 6 7 7 7 8 8 8 7 7 7 7 7 7 7 7 7 7 8 7 8 8 8 8 8 8 8 8 7 7 8 8 8 7 8 7 8 8 8 7 7 8 8 8 8 8 8 7 7 7 8 7 7 7 7 7 7 7 7 7 7 7 7 7 7 7 7 7 7 7 7 6 6 6 7 6 6 6 6 8
8 7 7 7 6 7 7 7 7 7 6 6 6 6 7 7 7 7 7 7 7 7 6 7 7 7 7 7 7 7 7 7 7 6 7 7 6 7 7 6 6 7 6 7 8 7 7 7 6 6 6 6 6 5 6 6 6 7 6 6 6 6 5 5 6 6 5 5 5 5 5 5 4 4 4 5 5 5 4 8
8 6 7 6 5 6 6 7 6 7 6 6 6 6 6 7 6 6 6 6 6 7 6 6 7 6 6 6 6 7 7 6 6 6 6 6 6 7 7 6 6 5 5 5 6 6 6 6 6 5 5 6 5 5 5 5 5 5 5 5 5 5 5 5 4 5 5 4 4 5 4 5 4 4 3 3 4 4 4 6
8 7 7 7 7 7 6 6 6 6 7 6 6 6 6 6 6 7 6 6 6 6 6 6 7 6 6 6 6 6 6 6 6 6 5 5 6 6 6 6 6 6 5 7 6 6 6 6 6 6 6 6 6 6 5 6 6 6 5 6 6 5 6 6 5 5 5 4 4 5 5 4 6 4 3 4 5 4 2 6
7 6 6 6 7 7 7 7 6 5 6 7 6 6 6 7 7 7 7 7 7 6 6 7 7 7 7 5 6 7 6 6 5 7 6 6 6 7 6 5 6 6 6 6 5 6 6 6 5 5 6 5 5 4 6 5 4 5 6 6 6 5 6 5 6 5 6 5 5 4 5 4 5 4 3 3 3 4 3 6
8 7 7 7 7 7 8 8 6 7 7 7 7 7 6 7 7 7 7 7 8 8 8 8 8 8 7 7 7 8 7 7 8 8 7 7 7 8 7 7 7 7 7 7 7 7 7 7 7 6 6 6 6 7 7 6 6 7 7 7 7 6 7 7 7 6 7 6 6 6 6 6 6 5 6 5 6 7 5 8
8 7 7 7 7 7 7 7 7 7 7 7 7 7 7 8 7 7 7 8 8 8 8 7 8 8 7 7 8 7 7 8 8 8 7 7 8 7 7 6 8 7 7 7 7 8 7 8 7 7 7 7 7 7 7 6 7 7 7 7 7 7 7 7 7 7 7 7 6 6 6 7 6 6 6 6 6 5 5 8
8 7 7 7 7 7 8 7 7 7 8 7 7 7 7 8 7 7 8 8 8 8 8 8 8 8 8 7 7 8 8 8 7 8 8 8 7 7 7 7 7 7 7 8 8 7 7 8 7 7 7 7 7 7 7 7 7 7 7 7 7 7 7 6 7 7 7 7 7 7 6 6 6 6 6 5 5 5 5 7
7 7 7 7 7 7 6 7 7 7 7 7 6 7 6 6 7 7 7 7 7 7 7 7 7 7 7 7 7 7 7 7 6 6 7 6 7 7 6 5 6 6 5 6 6 6 5 5 6 6 6 5 5 6 6 6 5 6 5 6 6 5 6 5 5 6 6 6 5 5 4 5 6 5 5 5 4 5 6 9
7 6 7 6 6 6 6 7 6 6 7 6 7 7 6 6 6 6 6 7 6 7 6 6 7 7 7 6 6 6 6 6 6 5 5 6 6 6 6 5 6 6 6 6 5 5 5 4 4 6 5 5 5 6 5 5 4 5 5 5 5 5 5 4 5 4 5 5 5 5 5 5 4 5 5 6 8 9 9 8
7 6 6 6 7 7 6 6 6 7 7 7 6 6 7 7 6 7 6 7 6 7 6 6 7 7 7 7 6 6 6 6 6 6 6 6 6 6 5 5 6 6 6 6 6 6 6 5 4 5 6 5 5 5 4 4 5 6 6 5 5 5 6 3 5 6 5 5 6 6 6 7 7 8 9 10 10 10 8 31
