P2
80 80
255
31 12 7 8 8 8 7 7 7 7 7 7 7 7 7 8 7 7 7 7 8 7 7 7 8 8 7 7 7 7 7 6 7 7 7 7 7 6 7 7 8 7 7 7 6 6 7 6 5 6 6 7 7 6 7 7 7 7 7 7 7 7 6 5 7 7 7 7 5 5 6 6 6 6 6 4 5 5 4 8
5 6 7 7 7 7 6 6 6 6 6 6 6 7 7 7 6 6 6 7 6 6 7 7 6 7 7 6 7 7 7 6 6 6 6 6 7 6 6 6 6 6 6 6 6 6 6 6 6 6 5 5 5 6 5 6 6 5 5 5 6 5 6 5 6 5 6 5 4 5 5 4 5 4 3 4 3 4 3 6
7 7 7 7 7 7 6 6 6 7 7 7 7 6 7 7 7 7 6 6 6 6 6 7 6 7 7 5 6 7 6 7 7 6 6 6 6 6 6 5 4 5 5 6 5 6 5 5 5 6 6 5 5 5 5 6 5 5 5 6 5 5 6 6 5 5 5 5 4 5 4 4 4 3 3 4 3 3 3 6
7 7 7 7 6 7 7 7 7 6 7 7 6 7 7 7 7 7 6 7 6 6 6 7 6 8 7 6 6 6 6 6 7 7 6 6 6 6 7 6 6 6 6 6 6 6 6 5 6 6 6 6 6 6 6 5 6 6 6 6 6 5 5 5 5 6 6 4 4 6 4 6 5 4 5 3 3 3 4 7
7 7 7 7 7 7 7 7 7 7 6 7 7 7 7 7 8 7 8 7 7 7 7 7 7 8 7 7 7 7 7 7 7 7 7 7 8 8 7 8 7 8 7 8 8 7 7 7 7 7 7 8 7 8 7 7 6 6 7 7 6 7 6 6 7 7 6 6 6 6 6 6 6 6 6 6 7 6 5 8
7 7 7 7 7 7 7 7 7 7 6 7 6 7 7 7 7 7 7 7 7 7 7 7 7 7 7 7 7 8 7 8 7 7 8 8 8 8 8 7 8 7 7 8 8 7 7 7 7 7 8 7 7 7 7 7 6 7 7 7 7 7 7 7 6 7 7 7 7 6 6 6 6 6 6 6 6 6 5 8
8 7 7 7 7 7 7 7 7 7 7 6 7 7 7 7 7 7 8 7 7 7 7 7 7 7 7 7 7 7 7 7 7 7 7 7 8 7 7 7 7 7 7 8 7 7 7 7 7 7 7 7 7 7 7 7 7 6 7 7 7 6 6 7 6 7 7 6 6 6 5 5 5 4 4 5 5 4 4 7
7 6 6 7 6 7 6 7 7 7 7 6 7 7 7 6 6 7 6 7 6 7 6 7 6 6 6 7 7 6 6 6 6 7 7 6 6 6 6 6 7 6 5 6 6 7 6 5 6 6 6 6 6 5 6 6 5 5 5 6 6 5 5 6 6 6 5 5 5 4 4 4 4 4 3 3 3 3 3 6
7 6 5 7 6 7 6 6 6 6 6 7 6 6 7 7 6 7 6 6 7 6 6 6 6 6 7 5 5 7 6 6 6 6 6 6 6 6 6 6 6 6 5 7 6 6 6 5 5 5 6 6 5 6 6 6 5 5 5 6 6 6 6 5 5 5 5 5 4 4 4 5 4 4 4 3 3 3 3 6
7 6 5 6 7 6 7 6 5 6 6 6 6 6 6 7 6 6 6 6 7 6 6 6 6 6 6 5 5 6 6 6 6 6 6 6 6 6 6 5 6 6 6 5 5 5 5 5 5 5 5 5 4 6 5 4 4 5 5 5 5 4 5 5 4 5 5 5 5 5 4 4 3 3 3 3 1 3 2 6
7 6 7 7 7 7 7 6 6 6 6 6 6 7 7 7 6 7 7 7 7 7 7 7 7 7 6 6 6 7 7 8 7 7 7 7 7 7 7 7 6 6 7 7 6 6 7 7 6 7 7 6 6 7 6 6 7 6 5 6 6 6 7 6 6 6 6 5 6 6 5 5 4 5 5 5 4 4 4 7
7 7 7 7 7 7 7 7 7 7 8 7 7 7 7 7 8 7 8 8 8 7 8 8 7 8 8 8 7 8 8 8 7 8 7 8 8 8 8 8 7 8 8 8 8 8 8 8 7 8 8 7 8 8 7 7 7 7 7 7 8 7 7 6 7 6 7 7 7 6 6 7 7 7 6 6 7 6 6 8
8 7 7 7 7 7 7 7 7 8 7 7 7 7 7 8 8 8 8 8 7 7 7 8 8 8 7 8 8 8 8 7 8 8 8 8 8 8 8 8 8 8 8 8 8 8 8 8 8 8 8 7 7 7 7 7 8 8 7 7 7 7 7 7 7 7 7 7 6 6 7 6 7 6 6 6 6 6 6 8
8 7 7 7 7 7 7 7 7 7 7 6 7 7 7 7 7 7 7 7 7 7 7 7 7 7 7 7 7 7 7 6 7 7 7 7 7 7 7 7 7 7 6 8 7 7 6 7 7 6 7 7 6 7 7 6 7 7 7 7 6 6 6 5 6 6 5 7 5 5 6 6 5 5 5 6 6 5 5 8
7 7 6 6 6 6 6 6 5 6 7 6 4 6 7 7 6 7 7 7 6 6 6 7 6 6 6 7 6 6 6 6 6 6 6 6 6 7 6 6 6 5 5 7 7 6 5 5 5 5 5 4 5 5 6 5 5 6 5 6 5 4 4 3 5 5 4 4 4 4 4 5 4 4 4 4 4 3 2 7
6 6 6 7 7 7 7 6 6 6 6 7 6 6 7 7 7 6 7 6 7 7 7 6 6 6 6 6 6 7 7 6 6 6 5 6 6 6 7 6 6 6 5 6 6 6 5 7 6 6 5 4 4 5 5 5 5 5 6 6 5 4 5 5 5 6 5 3 4 5 5 5 5 3 4 5 3 3 3 7
7 6 6 6 6 7 7 7 7 6 6 6 7 7 7 6 7 6 7 6 7 6 6 7 7 6 6 6 6 6 6 7 6 7 5 5 6 6 6 5 6 6 7 6 6 6 5 5 5 6 6 5 5 6 6 5 5 6 6 5 5 5 4 5 6 6 5 3 4 5 4 4 4 3 3 3 4 3 3 6
8 7 7 7 6 7 7 7 7 7 7 8 7 7 7 7 7 7 7 7 7 7 8 7 8 8 7 7 7 8 7 8 8 8 8 8 8 8 8 8 8 7 8 8 8 8 8 7 7 8 7 7 8 8 7 7 6 7 7 7 7 7 7 6 6 6 7 7 7 6 6 6 6 6 6 4 4 5 5 8
8 7 7 8 7 7 7 8 7 7 8 8 8 7 8 8 7 8 8 8 8 8 8 8 8 8 8 8 7 8 8 8 8 8 8 8 8 8 9 8 8 8 8 9 8 8 8 8 8 8 7 8 8 8 8 8 8 8 7 8 8 7 7 7 7 7 7 7 6 7 7 7 7 7 6 5 5 5 6 8
8 7 8 7 8 7 7 7 7 7 8 7 8 8 8 8 8 8 8 8 8 8 7 8 8 8 8 8 9 8 8 8 8 8 8 9 8 8 9 8 8 8 8 8 8 8 8 8 8 8 9 8 8 8 8 8 8 8 8 7 8 8 7 7 8 7 7 7 7 7 7 7 6 7 6 6 6 5 6 7
8 6 6 7 7 7 7 7 6 6 7 7 7 7 7 7 7 7 7 7 7 7 7 7 7 7 7 7 7 7 7 7 7 7 7 6 7 6 6 6 7 7 6 7 7 6 7 6 7 7 7 6 6 7 7 6 5 6 6 6 7 6 5 5 6 6 7 5 5 5 5 6 5 5 5 4 4 3 4 7
7 7 7 7 6 7 7 7 6 6 6 7 7 6 7 7 7 7 7 7 6 6 6 7 7 7 7 6 6 6 6 6 6 6 6 6 6 7 6 5 6 5 4 6 6 5 5 5 6 6 6 6 6 6 6 6 5 5 4 6 6 5 4 5 5 5 5 3 5 5 6 6 5 4 4 3 2 2 3 7
7 6 7 7 7 7 6 7 7 7 7 6 6 6 7 6 7 7 7 7 6 7 6 6 6 7 7 6 6 7 6 7 7 7 6 7 7 6 6 6 7 6 7 6 6 6 6 6 5 5 7 6 5 5 5 5 5 6 5 5 5 5 6 5 4 5 5 5 4 4 5 4 4 4 4 4 2 2 2 6
7 7 6 7 7 7 6 7 6 6 6 7 6 7 7 7 7 7 6 7 7 7 7 7 6 7 6 6 6 7 6 7 7 6 6 6 6 6 6 7 7 7 6 6 6 6 6 6 5 6 6 7 6 6 5 5 5 6 6 6 6 6 6 6 5 5 5 5 5 5 5 5 5 5 4 3 3 2 2 6
8 8 8 7 8 8 8 8 8 8 8 8 8 8 8 8 8 8 8 8 7 8 8 8 8 8 8 7 8 8 8 8 9 8 8 8 9 9 8 8 9 8 8 9 8 8 8 8 8 8 8 8 8 8 8 7 8 8 7 7 7 8 7 7 7 7 7 7 7 6 7 6 6 7 6 6 6 4 3 8
8 8 8 8 7 8 8 7 8 8 8 7 8 8 8 8 8 8 8 8 8 8 9 8 8 8 8 8 8 9 8 8 9 9 9 9 9 9 9 8 9 8 9 8 8 8 8 8 8 8 9 8 8 8 8 8 8 8 8 8 8 7 8 8 7 8 7 7 7 7 7 7 7 7 6 7 7 4 4 8
8 8 8 8 8 8 8 8 7 7 8 8 8 8 8 8 8 8 8 8 8 8 8 8 8 8 8 8 8 8 8 8 8 9 8 9 8 9 9 9 9 8 9 8 8 8 8 8 8 8 8 8 8 8 8 7 8 8 8 7 8 8 8 8 7 8 7 7 7 7 7 8 7 7 7 6 6 5 3 8
7 6 7 6 6 7 7 7 7 7 7 6 6 6 7 7 7 6 7 6 7 7 6 6 7 7 7 7 6 7 7 7 7 7 7 7 7 7 7 7 7 7 6 5 5 6 6 6 6 7 7 7 6 7 7 6 6 5 6 6 5 6 5 5 5 6 5 5 5 5 5 6 4 4 4 4 4 3 3 7
7 6 7 7 7 7 7 7 7 7 7 6 6 6 7 6 7 7 6 7 7 7 7 7 6 7 7 6 6 6 6 7 7 6 7 7 6 6 6 6 6 6 6 6 6 7 5 5 6 6 6 7 6 7 8 6 7 6 6 5 5 6 5 4 5 5 5 5 5 4 4 5 4 3 4 5 4 3 3 7
7 6 7 7 7 7 6 7 7 7 6 6 7 7 6 6 6 7 7 7 7 6 6 6 6 7 7 6 6 6 6 7 8 22 16 7 6 7 7 6 6 6 5 6 6 6 6 6 6 6 7 4 67 75 5 6 6 6 4 4 6 6 5 4 5 6 6 5 6 4 3 5 4 3 3 4 4 3 3 7
8 7 7 7 7 7 7 8 7 7 8 7 7 7 7 7 7 7 7 8 7 7 7 7 7 8 8 7 8 8 7 7 5 116 77 4 8 8 8 7 7 7 7 7 7 8 7 7 7 7 8 6 47 51 7 6 6 7 7 7 7 6 6 7 7 6 6 6 7 6 6 7 6 5 5 4 5 4 3 7
9 8 8 8 8 8 8 8 8 8 8 8 8 8 8 8 8 8 8 8 8 8 8 9 8 9 9 9 9 9 9 9 10 31 26 10 10 9 10 10 10 9 10 10 9 10 9 9 9 9 8 9 7 7 10 9 8 8 8 8 8 8 8 8 8 8 8 7 8 8 7 7 7 7 7 7 6 5 6 8
8 8 8 8 8 8 8 8 8 8 8 8 8 8 8 8 8 8 7 8 8 8 8 8 9 8 9 8 8 9 9 9 9 8 9 9 9 9 9 9 9 9 9 9 9 9 9 9 9 9 9 8 9 9 9 9 8 8 8 8 8 8 8 8 8 8 8 7 7 8 8 7 8 7 7 7 7 7 6 9
8 8 8 8 8 8 8 8 8 8 8 8 8 8 8 8 8 8 8 8 8 8 8 8 9 8 8 8 8 9 8 8 8 9 9 8 8 9 9 8 8 8 8 8 8 9 8 8 8 8 8 8 8 7 8 8 8 8 8 8 7 7 7 8 8 7 7 7 7 7 8 8 7 6 6 6 7 6 4 8
7 6 7 7 7 7 7 7 7 6 7 7 6 7 7 7 7 7 6 7 7 6 6 7 7 6 6 6 7 7 7 7 6 7 7 7 7 7 7 7 7 7 6 6 6 6 6 6 6 6 7 6 6 5 5 6 5 6 6 6 6 5 5 5 6 6 5 5 6 5 4 4 4 4 4 4 4 2 3 7
7 6 7 7 7 6 7 7 7 6 6 7 7 7 7 7 7 7 7 6 6 7 7 6 7 7 6 6 6 6 6 6 6 7 6 6 7 7 7 7 6 6 6 6 5 7 7 7 7 6 5 6 6 7 6 6 5 6 6 5 5 5 5 4 5 5 5 5 5 6 6 4 3 3 3 3 4 4 4 7
7 7 7 7 7 6 7 7 6 6 7 7 7 6 7 7 7 7 6 7 7 7 7 7 7 7 7 6 7 7 6 7 6 7 7 6 7 6 6 7 7 7 7 7 6 6 6 6 6 6 6 5 6 7 6 6 5 6 5 6 6 5 6 5 5 5 5 5 6 5 5 5 5 5 4 4 4 3 4 7
8 7 7 7 7 7 8 8 7 7 7 7 8 8 8 8 7 7 7 7 8 7 7 8 8 7 8 8 8 8 8 8 8 8 8 8 8 8 8 8 8 8 8 8 8 8 7 7 7 7 8 7 7 8 7 8 8 7 7 7 7 7 7 6 7 7 7 7 7 7 7 6 6 6 5 6 5 5 5 8
8 8 7 8 8 8 8 8 8 8 8 8 8 8 8 8 8 8 8 8 8 9 8 9 8 9 9 9 9 9 9 9 9 9 9 9 9 9 9 9 9 9 9 9 9 9 9 9 9 9 9 9 9 9 8 9 8 8 8 8 8 8 8 8 8 8 8 8 8 8 7 7 7 7 7 7 6 7 7 9
8 8 8 8 8 8 8 8 8 8 8 8 8 8 8 8 8 9 8 8 8 8 8 8 8 8 9 8 8 8 9 9 9 9 9 9 9 9 9 9 9 9 9 9 9 9 9 9 9 9 9 9 9 9 9 8 8 8 9 8 8 8 8 8 8 8 8 8 7 7 7 8 7 7 7 7 8 7 7 9
8 8 7 7 7 7 8 8 7 7 7 8 7 7 7 7 8 8 7 7 8 7 7 7 7 8 7 8 7 7 7 7 7 8 8 8 8 8 8 7 8 8 7 7 7 8 8 7 7 8 8 7 7 7 7 7 7 8 7 7 7 7 7 6 7 6 7 7 6 6 6 6 6 6 6 6 5 5 5 7
7 7 7 6 6 7 7 7 7 6 7 7 6 6 7 7 7 6 7 6 6 7 7 6 6 6 6 7 6 7 6 6 7 6 6 6 6 7 7 7 7 6 6 6 6 6 5 5 5 5 6 6 6 6 5 5 5 6 6 5 5 5 6 5 4 5 4 5 4 4 5 4 4 5 5 4 3 3 2 6
7 7 7 7 7 6 7 6 6 6 7 7 6 7 7 7 6 6 6 6 6 7 7 7 7 7 7 6 6 7 6 7 6 6 6 6 7 7 7 7 7 7 6 6 5 6 6 6 5 6 6 6 7 7 6 5 5 5 6 5 5 5 5 5 5 5 4 4 5 5 4 4 4 4 3 3 4 3 2 6
6 6 7 7 7 7 7 6 6 6 6 7 7 6 7 7 7 6 6 6 6 7 6 6 6 7 6 6 6 7 6 6 7 6 5 7 7 7 7 6 6 6 6 6 6 5 5 6 6 7 6 6 6 6 5 5 4 5 5 5 4 5 4 5 5 4 4 5 5 5 4 4 4 4 3 4 3 3 2 6
8 7 8 7 7 8 8 8 8 7 8 8 8 8 8 8 8 8 8 8 8 8 8 8 8 8 7 8 8 7 8 8 9 8 8 8 8 9 8 8 8 8 8 8 8 8 8 8 9 8 8 8 8 8 8 8 7 8 8 7 8 7 7 6 7 7 7 7 7 7 6 7 6 6 6 7 6 6 5 8
8 8 8 8 8 8 8 8 8 8 8 8 8 8 8 8 8 8 8 8 8 8 8 8 9 8 8 8 8 9 9 9 9 9 9 9 9 9 9 9 9 9 9 9 9 9 9 9 9 9 9 9 9 9 9 9 8 9 8 8 8 8 8 8 8 8 8 8 8 8 7 8 7 7 7 7 7 7 7 9
8 8 8 8 8 8 8 8 8 8 8 8 8 8 8 8 8 8 8 8 9 8 8 9 9 9 8 8 8 8 8 9 9 9 9 9 9 9 9 9 9 9 9 9 9 9 9 9 9 9 9 9 9 9 8 8 8 9 9 8 8 7 8 8 8 8 7 7 7 8 7 7 7 7 7 7 7 7 7 9
7 7 7 7 7 7 7 7 7 7 7 7 7 7 7 6 6 7 7 7 7 7 7 7 7 7 7 7 8 7 7 7 8 8 7 8 8 7 7 7 8 7 7 8 8 6 8 7 6 8 8 8 9 11 12 9 7 7 7 6 6 6 6 6 7 7 6 6 7 6 5 6 6 4 5 4 4 4 4 7
7 7 7 7 7 6 6 7 6 6 6 6 7 7 7 6 6 6 7 7 7 6 6 6 6 6 6 6 7 6 6 6 7 8 11 9 8 8 8 8 7 7 7 7 7 7 7 7 6 7 7 7 5 64 106 5 7 6 6 6 7 6 5 5 5 4 5 6 6 5 5 4 4 4 4 4 4 4 4 7
7 6 7 7 6 7 7 7 7 7 7 7 7 6 7 6 6 7 7 7 7 7 6 7 6 6 7 7 7 7 7 7 7 5 110 70 4 8 7 7 7 6 6 6 6 6 7 7 7 6 6 6 7 25 34 8 7 6 6 5 6 6 5 5 5 6 6 6 5 5 5 5 5 3 4 4 3 4 3 7
8 7 7 6 6 7 6 6 7 7 7 7 7 7 7 7 6 7 7 7 7 7 7 7 7 7 7 6 7 7 6 7 7 8 40 31 7 7 7 6 7 7 7 7 7 6 6 7 6 6 7 7 8 6 5 7 7 6 7 6 6 7 7 6 6 6 6 6 5 6 5 5 4 4 5 5 5 4 2 6
8 7 8 7 7 7 8 8 8 8 8 8 8 8 8 8 8 8 8 8 8 8 8 8 8 8 8 8 8 8 8 8 8 9 7 8 9 9 9 8 8 9 8 8 8 9 8 8 8 8 9 9 8 9 8 8 8 8 8 7 7 8 8 8 7 7 7 7 7 7 7 7 6 6 6 6 6 6 5 9
8 8 8 8 8 8 8 8 8 8 8 8 8 8 8 8 8 8 8 8 8 8 8 8 8 9 8 8 8 8 8 9 8 9 9 9 9 9 8 8 9 9 9 9 9 9 8 8 9 8 8 9 9 9 8 8 8 8 8 8 8 7 7 7 7 8 7 7 7 7 7 6 7 7 6 7 7 7 6 9
8 8 7 7 8 7 7 8 8 7 8 8 8 8 8 8 8 8 8 8 8 8 8 8 8 8 8 8 8 8 8 9 8 8 8 8 8 9 9 8 9 9 8 9 8 9 8 8 8 8 7 8 8 8 8 8 8 8 8 7 7 8 7 8 7 7 7 7 7 7 7 6 7 7 7 7 6 7 6 8
7 7 7 7 6 7 7 7 7 7 6 6 7 7 7 7 6 7 7 6 6 6 7 6 7 7 7 7 6 7 7 6 6 7 6 6 7 7 7 7 6 6 6 6 7 6 5 7 6 6 6 6 7 7 6 6 6 6 6 5 6 6 6 6 6 6 6 6 5 4 5 4 5 4 4 3 5 5 3 7
7 7 7 6 7 6 7 6 5 7 6 6 6 7 7 6 6 6 6 7 7 7 6 6 7 6 7 6 7 7 7 6 6 6 6 6 6 6 7 6 6 5 5 6 6 6 6 6 6 6 6 5 6 6 5 6 6 6 5 5 5 6 6 5 6 6 6 5 5 4 4 4 5 4 4 3 3 4 2 6
7 6 6 6 7 7 7 6 6 6 7 7 6 7 6 6 6 7 6 6 7 7 7 7 6 6 6 6 6 6 6 7 7 7 6 7 6 7 7 6 6 6 6 6 6 6 6 5 5 5 5 5 5 5 5 6 6 6 6 5 5 5 5 5 6 5 4 4 5 5 5 4 4 4 4 4 4 3 3 6
8 7 7 7 7 7 6 7 7 6 7 7 6 7 7 7 7 7 7 7 7 7 7 7 7 7 7 7 7 7 6 7 7 7 7 7 7 7 7 6 7 7 7 7 7 7 6 6 6 7 6 5 7 6 7 7 6 7 6 6 7 6 5 6 7 6 5 5 4 5 5 6 4 5 6 5 6 4 4 7
8 8 7 7 7 7 8 8 8 7 8 7 7 8 8 8 8 7 8 8 7 8 8 8 8 8 8 8 8 8 8 8 8 8 8 9 8 8 8 8 8 8 8 8 8 8 8 8 8 8 8 8 8 8 8 8 7 8 8 8 8 7 8 7 8 7 8 6 6 7 7 8 7 7 6 7 6 7 6 8
8 7 8 7 7 7 8 8 7 7 7 7 8 8 8 8 7 8 8 8 8 8 8 8 8 8 8 8 8 8 8 8 8 8 8 9 8 8 8 8 8 8 8 8 8 8 8 8 8 8 7 8 8 8 8 7 7 8 8 7 8 7 7 7 7 7 7 7 7 7 7 7 7 7 7 6 7 6 6 8
8 7 8 7 7 7 7 8 7 7 7 7 7 7 7 8 7 8 8 8 7 8 7 8 8 8 8 7 7 7 8 8 8 8 8 8 8 8 8 7 7 7 7 7 8 7 7 6 7 7 7 7 7 7 7 7 7 8 7 7 7 7 7 7 7 6 6 6 6 7 6 6 6 6 6 6 6 5 5 8
6 5 6 7 7 7 6 7 6 6 6 6 6 7 6 6 7 6 7 7 6 6 6 6 7 7 7 6 6 6 6 6 6 6 6 6 5 6 6 5 7 6 6 6 6 6 6 6 6 6 6 6 6 6 5 5 5 7 6 6 5 5 6 6 6 5 5 5 4 5 5 4 4 4 3 3 4 4 3 7
7 6 7 7 6 7 7 7 7 6 7 7 6 7 7 5 7 7 7 7 6 6 6 6 6 7 6 6 6 6 6 6 6 6 7 6 6 7 7 6 7 6 5 6 5 6 6 5 5 6 6 6 6 5 5 5 5 5 5 6 5 4 5 5 4 6 5 5 4 5 5 4 5 4 4 3 3 3 3 6
7 6 6 6 7 7 6 7 7 6 7 7 6 7 7 6 6 6 6 6 6 5 7 6 7 6 6 6 6 6 5 6 6 6 6 6 6 6 6 6 6 7 6 5 5 5 6 5 6 5 6 4 5 5 5 5 5 5 5 5 5 6 6 5 5 6 5 5 4 5 5 4 4 4 5 3 3 4 3 6
8 7 7 7 7 7 7 7 7 7 7 6 7 7 7 7 6 7 7 7 6 7 7 7 7 7 7 7 7 7 6 7 7 7 7 6 7 7 7 7 8 7 7 6 7 6 7 7 7 6 7 6 5 6 7 6 7 7 6 5 6 6 6 6 7 7 6 6 5 6 5 5 5 5 4 5 6 5 5 7
8 7 7 7 7 7 7 8 8 8 7 7 7 8 7 7 7 8 8 7 7 7 8 8 8 8 8 8 8 8 8 8 8 8 8 8 8 8 8 8 7 8 7 8 8 8 8 8 7 8 7 7 7 7 7 7 8 7 7 8 7 8 8 7 8 7 7 7 6 7 7 7 7 7 7 7 7 7 6 9
8 7 7 7 7 7 8 7 7 7 7 7 7 8 7 7 7 8 7 8 8 8 8 8 8 8 8 8 8 8 8 8 8 8 8 8 8 8 8 8 7 8 7 8 8 7 8 8 8 7 8 7 7 7 7 7 7 8 8 8 8 8 7 7 7 7 7 7 7 7 7 7 7 7 7 7 7 6 7 8
8 7 7 7 7 7 7 7 7 7 7 7 7 6 7 7 7 7 7 8 7 8 7 7 7 8 7 7 7 7 8 7 7 8 7 7 7 7 8 7 7 7 6 7 7 7 7 7 6 6 7 7 7 7 6 6 6 7 7 6 7 7 6 6 6 6 7 6 6 6 7 6 6 6 6 6 6 4 4 7
7 6 6 6 7 7 6 7 6 6 7 6 6 6 6 6 6 6 6 7 7 7 7 7 7 6 6 6 5 6 6 7 6 6 6 6 5 6 6 5 5 5 5 6 5 6 6 5 6 5 6 6 5 6 5 4 4 5 6 5 6 6 3 4 5 5 5 5 4 4 5 5 5 4 3 4 4 3 2 6
8 7 6 7 6 7 7 7 7 6 7 7 5 6 6 6 6 6 6 6 7 7 7 7 6 7 7 6 7 6 5 6 6 6 6 6 6 7 6 5 5 6 6 7 6 6 6 6 5 6 6 5 6 6 6 5 4 5 5 5 5 5 4 5 5 5 5 5 4 4 4 5 4 3 3 4 4 3 3 7
8 7 7 7 6 6 5 6 7 5 6 7 7 6 7 7 7 7 7 7 7 7 7 6 6 6 6 5 6 6 6 7 7 7 6 6 6 6 7 6 6 6 6 7 6 6 6 6 6 6 6 6 6 5 6 6 6 7 6 5 5 5 5 4 5 5 5 5 4 4 4 4 5 5 5 4 5 5 3 6
8 7 7 7 7 7 6 7 7 6 7 7 7 7 7 7 7 7 7 7 7 8 7 7 8 7 7 7 7 7 8 7 8 8 7 7 8 8 7 7 7 8 8 7 7 7 7 7 6 7 7 7 6 7 7 7 7 7 7 6 6 6 7 7 7 7 6 6 6 5 5 6 6 6 6 5 5 6 5 8
8 7 7 7 7 7 7 8 7 6 7 8 7 8 7 8 8 7 7 7 7 7 7 7 7 8 8 8 8 8 8 7 8 8 8 8 8 8 8 7 8 8 8 7 7 8 7 7 7 7 7 7 6 7 7 7 7 8 7 8 7 7 7 7 7 7 7 6 6 6 6 7 6 6 6 6 7 6 5 8
8 7 7 7 7 7 8 8 8 8 7 7 7 7 8 7 7 7 8 7 7 8 8 7 7 8 8 8 8 8 8 8 8 8 7 8 8 8 8 7 7 7 7 7 7 8 8 8 7 7 7 7 7 6 7 7 7 7 7 7 7 7 7 7 7 6 6 6 6 7 6 7 6 6 6 5 6 6 5 7
8 7 7 7 7 7 7 7 7 7 7 6 7 7 7 7 7 7 7 7 7 7 7 7 6 7 7 7 7 7 7 7 7 7 7 6 7 7 7 6 7 6 6 6 6 6 7 7 7 7 5 5 6 5 5 5 6 5 6 6 6 5 5 6 6 6 5 6 6 6 6 6 4 5 5 5 5 5 4 7
7 6 6 7 6 7 7 7 6 7 6 6 7 7 7 7 7 6 7 7 6 7 6 7 6 7 7 7 6 7 5 7 6 6 6 6 6 7 6 6 6 6 5 7 6 6 6 6 5 5 6 6 6 5 5 5 5 5 5 5 6 5 5 4 5 4 4 3 5 5 5 5 4 4 4 4 5 4 3 7
7 7 7 7 6 6 6 7 6 6 6 7 7 6 6 7 6 6 7 7 6 7 6 7 6 6 6 6 6 7 6 7 6 7 7 7 7 6 6 5 6 6 4 6 6 6 5 5 5 4 5 5 6 5 4 5 6 5 4 5 4 5 6 5 6 6 5 5 5 5 5 5 4 3 3 3 4 3 2 6
8 7 7 7 7 6 7 7 7 7 7 7 7 7 7 7 7 7 6 7 7 7 7 7 6 7 7 6 6 7 7 7 6 7 6 6 7 7 6 5 6 6 5 5 6 6 6 6 7 6 6 5 6 5 5 5 4 6 5 5 5 5 5 5 6 6 5 5 6 4 5 4 5 4 4 4 3 3 3 7
9 7 7 8 7 7 7 7 7 7 7 7 7 7 8 7 8 7 7 7 7 7 7 8 7 7 7 7 7 7 8 8 7 7 7 7 7 8 8 7 7 7 7 7 7 7 7 7 7 7 7 7 7 7 7 7 7 7 7 6 6 7 7 7 6 7 6 7 7 6 7 7 6 5 6 6 6 3 5 6
9 7 7 8 7 8 7 8 7 7 7 8 7 7 8 8 7 8 7 8 7 7 7 8 7 8 7 8 7 7 7 7 8 8 7 7 8 7 8 8 7 7 7 7 7 7 8 7 7 7 6 7 7 8 7 7 7 7 7 7 7 7 7 7 7 7 6 7 7 7 7 7 6 6 7 6 7 6 6 31
