P2
80 80
255
31 12 7 8 7 7 7 7 7 7 7 7 7 7 7 7 6 7 7 7 7 6 7 7 8 8 7 7 7 6 6 6 6 7 6 6 7 7 6 6 7 7 7 6 5 6 6 6 6 5 6 6 6 6 6 6 5 5 5 5 5 4 5 5 5 5 5 5 5 5 6 5 4 5 4 4 4 5 3 7
5 6 6 7 7 6 6 7 7 6 7 6 6 6 6 7 6 6 7 6 7 6 6 6 6 7 7 5 6 6 6 5 6 6 5 5 6 6 6 5 6 6 5 5 4 6 6 5 4 5 5 4 5 6 5 5 4 3 5 5 4 5 4 4 5 4 4 5 3 3 3 3 3 4 3 3 2 3 3 7
7 7 7 7 7 8 7 7 6 7 7 7 6 7 7 7 7 7 7 8 7 7 7 7 7 10 10 7 7 7 7 7 7 7 7 8 7 7 7 6 6 7 7 7 7 7 7 7 7 7 7 7 7 7 6 6 7 6 6 7 7 7 6 6 7 7 7 7 6 6 5 5 5 6 5 5 5 5 4 8
8 7 7 8 7 7 7 7 7 7 7 7 7 7 7 7 7 6 7 7 8 7 7 7 7 8 8 7 7 7 7 8 8 7 7 8 8 8 7 8 7 8 8 8 8 7 7 7 8 7 7 7 7 7 6 7 7 7 7 7 7 7 7 7 6 7 7 6 7 7 6 7 6 5 5 5 6 4 5 8
8 7 7 8 7 7 7 7 7 7 7 7 7 7 7 7 7 7 6 7 7 7 7 7 7 7 7 7 7 8 7 8 8 8 7 8 8 8 8 8 8 8 8 8 8 7 8 8 8 8 7 7 7 7 7 8 7 7 7 7 7 7 7 6 6 7 7 7 7 6 7 7 7 7 6 5 5 5 6 8
7 7 7 7 7 7 6 6 6 6 7 7 5 6 6 7 7 6 7 7 6 7 7 7 6 6 7 6 7 6 6 7 6 6 6 6 6 7 6 5 6 7 7 7 6 7 7 6 6 6 6 6 7 6 5 5 5 6 5 6 6 6 5 5 6 6 5 5 5 5 6 5 5 6 5 4 4 3 3 7
7 6 7 6 7 7 6 6 7 6 7 7 6 6 6 7 7 6 7 7 6 5 6 5 5 6 7 6 6 6 6 6 6 6 6 6 6 6 5 5 6 6 5 5 6 6 5 5 5 5 5 4 4 5 6 6 6 5 5 6 5 5 5 5 5 5 5 4 4 4 5 3 4 5 5 4 4 3 2 6
8 7 7 6 7 7 7 7 6 6 7 7 5 5 6 6 6 6 6 7 6 6 6 7 6 6 7 6 6 5 5 5 6 6 6 6 6 6 6 6 7 6 5 6 5 5 5 6 6 5 5 5 6 6 6 6 5 5 4 6 6 5 5 5 6 6 5 5 4 6 4 3 4 5 3 3 2 2 2 6
8 7 6 7 6 6 6 7 6 6 6 6 7 6 7 7 7 6 7 7 7 7 6 7 6 6 6 6 6 6 6 6 6 6 5 6 6 6 6 6 6 6 6 7 6 5 5 5 6 6 6 6 5 6 5 5 5 6 5 6 6 6 5 6 5 6 5 5 6 5 5 6 5 5 4 4 3 2 2 6
8 7 8 7 7 7 7 7 7 7 7 7 7 7 7 7 7 6 7 7 8 8 7 7 7 7 8 7 8 8 7 8 8 8 7 7 8 8 8 8 8 7 8 8 8 8 7 7 7 8 8 8 7 7 7 7 7 7 7 7 7 7 7 7 7 7 6 7 6 6 6 7 6 6 7 6 6 6 6 9
8 7 7 8 7 7 7 7 7 7 7 7 8 7 7 7 8 7 7 8 8 8 7 7 8 8 8 8 8 8 8 8 8 8 8 8 8 8 8 7 8 7 8 8 8 8 7 8 8 8 8 7 7 8 7 7 7 8 7 7 7 7 7 7 7 7 7 6 7 7 7 7 6 6 7 6 6 6 6 8
8 7 6 7 7 7 6 7 7 7 7 8 7 8 7 8 8 8 7 8 8 8 7 8 7 8 8 8 8 7 8 8 8 8 8 8 8 7 7 7 7 7 8 8 8 8 8 8 8 8 8 8 7 7 7 7 7 7 7 7 7 7 7 7 6 7 7 6 6 6 6 6 6 6 6 6 7 6 5 8
7 7 6 6 6 7 6 7 6 7 6 6 6 7 7 6 7 7 7 7 6 7 7 7 5 6 7 7 7 6 6 6 6 7 6 7 7 6 6 6 7 6 5 6 7 6 6 6 6 6 6 6 6 6 6 5 6 6 5 5 6 6 5 5 5 5 4 5 5 4 4 4 5 5 3 4 4 4 2 7
7 7 6 7 6 7 7 7 6 7 7 7 6 7 7 6 7 7 7 7 7 7 7 7 6 6 7 6 6 6 6 6 5 5 6 6 6 6 6 6 6 7 6 7 6 6 6 6 6 5 5 5 6 5 6 5 5 6 5 5 5 6 5 4 5 6 5 5 5 6 6 5 5 4 4 4 3 3 2 7
7 6 6 7 7 7 7 7 7 7 6 6 6 7 7 6 6 7 6 7 7 6 6 6 6 6 6 6 6 6 6 7 6 7 6 6 6 6 6 5 6 6 6 6 6 6 6 6 6 5 5 5 5 6 6 6 6 6 5 5 5 5 5 5 5 4 5 5 3 4 5 5 3 4 4 4 1 3 2 6
8 7 7 7 7 7 7 7 7 7 7 7 7 7 7 6 7 7 7 7 7 7 7 6 7 7 7 6 6 7 6 7 7 7 7 6 7 7 7 7 7 6 6 7 7 7 7 7 7 7 6 5 6 6 6 6 6 6 6 6 6 6 6 6 6 6 5 6 6 5 5 6 6 5 5 4 5 4 4 7
8 7 7 8 7 7 7 8 8 7 7 7 8 8 7 8 8 8 8 7 8 8 8 7 8 8 8 8 8 8 8 8 8 8 8 8 8 8 8 8 8 8 8 8 8 8 8 8 8 8 8 8 8 8 8 7 7 8 8 8 7 7 7 8 8 8 7 7 7 7 7 7 7 7 7 6 6 7 6 8
8 7 7 7 8 7 7 8 7 8 7 8 8 8 8 8 8 8 8 8 8 8 8 8 8 8 8 8 8 8 8 8 8 8 8 8 8 9 9 8 9 8 9 8 8 8 8 8 8 8 8 8 8 8 8 8 8 8 8 8 8 8 7 7 7 7 7 7 8 7 6 7 7 7 6 6 6 5 6 8
8 7 7 7 7 7 7 7 7 8 8 7 7 8 8 7 7 7 8 8 7 8 7 8 8 8 8 8 7 7 7 8 8 7 8 8 7 7 8 8 8 8 8 7 7 8 8 7 7 8 7 8 7 7 7 7 7 7 7 7 7 7 7 6 7 7 6 7 6 6 7 7 6 6 6 5 5 4 4 7
8 7 7 6 7 7 6 7 7 7 7 7 7 7 7 7 7 7 7 7 7 6 6 6 7 7 7 6 6 6 7 6 7 6 6 6 6 7 7 6 6 6 6 6 6 6 6 6 5 6 6 6 5 6 6 6 6 6 6 5 5 6 6 6 6 6 6 5 5 4 5 5 5 4 4 4 4 2 1 7
7 7 6 7 6 7 7 7 7 7 7 7 7 7 7 7 7 6 6 7 7 6 7 7 7 7 7 7 6 7 6 6 7 7 7 6 7 7 6 5 6 6 6 7 6 6 6 6 6 6 6 5 5 5 6 6 5 6 6 5 6 5 5 5 5 5 5 5 5 6 5 4 4 3 4 4 3 2 2 7
7 6 6 7 6 7 6 7 7 7 6 7 6 6 6 7 7 6 7 7 6 7 7 7 7 6 6 7 6 6 6 6 6 6 7 7 6 6 6 6 6 6 5 5 6 6 6 5 6 5 6 6 4 5 4 5 5 5 5 6 5 4 4 5 6 5 5 4 4 4 5 4 5 5 4 3 3 2 2 6
7 7 7 7 7 7 7 8 7 7 7 8 7 7 7 7 7 7 7 8 7 8 8 7 8 7 7 7 7 8 8 8 7 7 7 7 8 8 8 7 7 7 7 8 7 8 7 7 7 7 7 7 7 7 7 6 7 6 6 7 6 6 6 7 5 7 6 6 6 5 6 5 5 6 5 5 4 3 2 7
8 7 7 8 8 8 8 8 7 7 8 8 8 8 8 8 8 8 8 8 8 8 9 8 8 8 8 8 8 8 8 8 8 9 8 8 8 9 9 9 9 9 9 9 9 9 8 8 8 8 8 8 8 8 8 8 8 8 8 8 7 7 7 8 8 8 7 7 7 7 7 7 7 7 6 7 7 5 5 8
9 8 8 8 7 8 8 8 8 8 8 7 8 8 8 8 8 7 8 8 8 8 8 8 8 8 8 8 8 8 8 8 8 9 9 9 9 9 9 8 9 9 8 9 9 8 8 8 8 8 9 8 8 8 8 8 8 8 8 8 8 7 7 7 7 7 8 7 7 7 8 7 6 7 6 7 7 6 4 7
8 7 7 7 6 7 7 7 7 7 7 7 7 7 7 7 7 7 7 7 7 7 7 7 7 7 7 7 7 7 7 7 7 8 8 7 8 7 7 7 7 7 7 7 8 8 7 8 7 7 7 7 7 7 7 7 6 7 7 7 6 6 6 6 5 6 6 5 5 7 7 6 6 6 5 5 5 5 4 7
8 7 7 6 7 7 7 7 7 6 7 7 7 6 7 7 7 7 6 6 6 7 7 6 7 6 7 7 7 7 7 7 8 6 7 7 6 6 6 5 6 7 6 6 6 7 6 6 6 6 6 8 9 10 7 5 5 6 6 5 5 5 6 5 5 6 5 4 5 5 5 6 4 3 4 5 5 4 3 6
7 7 7 7 6 6 7 7 7 6 6 7 6 6 6 7 7 6 6 6 6 6 6 6 6 7 7 6 6 6 7 7 11 30 14 6 6 6 6 6 6 5 7 6 5 6 6 5 6 6 6 6 103 52 4 6 6 6 5 5 6 5 5 5 4 4 5 4 4 3 4 5 3 3 3 3 4 3 2 6
7 6 7 7 7 7 7 7 7 6 7 7 6 7 6 6 7 6 7 7 7 7 7 7 7 7 7 6 6 7 7 7 13 132 41 5 7 7 7 6 7 6 6 7 7 6 5 6 5 5 7 8 44 24 7 6 6 6 6 6 5 4 5 5 6 5 5 5 5 6 4 5 5 4 4 4 4 3 2 7
8 7 8 8 7 8 8 8 8 8 8 8 8 8 8 8 8 8 8 8 8 8 8 8 8 8 8 8 9 8 8 9 12 27 18 10 9 9 10 9 9 9 9 9 9 9 9 8 8 8 8 9 6 8 9 8 8 8 8 8 8 7 7 7 8 8 8 7 7 7 7 7 7 7 6 7 7 6 5 8
8 8 8 8 8 7 8 8 8 7 8 8 8 8 8 8 8 9 8 8 8 8 8 8 8 9 9 8 9 9 9 9 9 8 9 10 9 9 9 9 9 9 9 9 9 9 9 9 9 9 9 9 9 9 8 8 8 8 9 8 8 8 8 7 8 8 8 8 8 8 8 8 7 8 7 7 8 7 5 8
8 7 8 8 8 8 8 8 8 8 8 8 8 8 8 8 8 9 8 8 8 9 8 8 8 8 8 9 8 9 9 9 9 9 10 9 9 9 9 9 9 9 9 9 9 9 9 9 9 9 8 8 8 9 9 8 8 9 8 8 8 8 8 8 8 8 8 8 7 8 7 8 7 8 7 7 7 7 7 9
7 7 7 7 6 6 7 7 7 7 6 6 7 7 7 7 7 7 6 7 7 7 7 7 7 7 6 6 6 7 7 7 7 7 7 7 7 7 7 7 7 7 6 6 7 7 7 7 6 6 7 7 6 6 7 6 6 6 6 7 6 6 5 6 6 6 6 6 6 6 6 6 4 5 5 4 5 5 4 7
7 7 7 7 7 7 7 7 6 6 6 6 6 6 7 7 6 7 7 6 6 6 6 6 7 7 6 6 7 6 6 6 7 7 6 7 6 7 7 6 6 6 5 6 6 6 6 7 6 6 6 6 5 5 5 5 5 6 6 6 6 6 6 5 6 6 5 5 6 5 6 6 5 6 5 5 4 5 5 7
8 7 7 7 7 7 7 7 7 6 6 7 7 7 7 7 7 7 6 7 6 7 6 7 7 7 6 6 6 7 6 6 6 7 6 6 7 7 7 6 6 6 6 7 6 6 6 7 6 6 6 7 7 6 5 5 6 6 6 6 6 6 6 5 6 6 5 5 6 5 5 5 5 5 4 4 4 3 3 7
7 6 7 7 7 7 7 8 7 7 7 7 7 7 7 7 7 7 6 7 6 7 7 7 7 7 7 6 6 8 7 6 7 8 6 7 7 7 8 7 7 7 7 7 7 7 6 7 7 6 6 6 7 7 5 5 6 7 6 5 5 5 6 5 5 5 4 5 6 6 6 6 6 5 5 5 5 4 4 8
8 8 8 8 8 8 8 8 8 8 8 8 8 8 8 8 8 8 8 8 8 8 9 8 8 8 8 9 8 8 8 9 8 9 9 9 9 9 9 9 9 9 9 9 9 9 9 9 8 9 9 8 9 9 9 8 9 8 9 8 8 8 8 8 8 8 8 7 8 8 8 7 7 8 7 7 7 6 7 9
9 8 8 8 8 8 8 8 8 8 7 7 8 8 8 8 9 8 8 8 9 9 8 9 8 8 8 8 8 8 9 9 9 9 9 9 9 9 9 9 9 9 9 9 9 9 9 9 9 9 9 9 9 9 9 8 9 8 9 8 8 8 8 8 8 8 8 8 8 8 8 8 8 8 7 7 7 7 7 9
8 8 8 8 8 8 8 8 8 8 8 8 8 8 8 8 8 8 8 8 8 8 8 8 8 8 8 8 8 8 8 8 9 9 8 8 9 9 9 8 9 9 9 9 9 9 9 8 9 9 8 8 8 8 8 8 8 8 8 8 8 8 8 8 8 8 8 8 7 8 7 8 7 7 6 7 7 7 7 9
8 6 7 7 6 7 6 7 7 7 7 7 7 7 6 7 6 7 7 7 6 7 7 6 7 6 6 6 7 7 6 6 6 7 6 7 7 7 7 6 6 6 6 6 7 7 7 6 6 6 6 6 7 5 6 5 5 5 5 6 7 6 5 5 5 6 6 5 5 6 5 5 4 4 4 5 4 4 3 7
8 7 7 6 6 6 6 6 7 7 6 7 6 7 7 6 6 6 7 7 7 7 7 7 6 7 7 6 6 6 6 6 6 6 6 7 7 7 7 6 7 7 7 6 6 7 6 6 6 6 7 5 6 6 6 6 6 6 6 6 6 5 5 5 6 5 4 5 6 5 5 5 4 5 4 3 4 3 2 6
8 7 7 7 7 7 7 7 7 7 7 7 6 7 7 7 6 7 7 7 7 7 7 7 6 7 6 6 6 6 6 6 7 7 6 6 6 7 7 7 7 6 6 6 7 7 7 6 5 6 7 6 7 6 6 6 6 7 7 6 5 6 6 6 6 5 4 5 6 6 5 4 3 3 4 4 4 4 2 6
8 7 7 7 7 7 6 7 7 7 7 7 7 7 7 7 7 7 7 6 6 7 7 7 7 7 7 7 6 6 7 8 8 7 7 7 7 7 7 7 8 7 6 8 7 8 8 6 7 7 7 7 7 8 7 6 6 6 7 7 7 7 6 6 6 7 5 5 5 6 5 6 6 6 6 5 5 5 4 7
9 8 8 8 8 8 8 8 8 8 8 8 8 8 8 8 8 8 8 8 8 8 8 8 9 9 9 8 8 8 8 9 9 9 9 9 9 9 9 9 9 9 9 9 9 9 9 9 9 9 9 9 9 9 9 9 8 9 9 8 8 9 8 8 8 8 8 8 7 8 7 8 7 7 7 7 7 7 7 9
9 8 8 8 8 8 8 8 8 8 8 8 8 8 8 8 8 8 8 8 8 8 8 8 9 8 9 9 9 9 9 9 9 9 9 9 9 9 9 9 9 9 9 9 9 9 9 9 9 9 9 9 10 8 8 9 8 8 8 8 8 8 8 7 8 8 8 7 8 8 7 7 7 7 7 7 7 7 6 9
8 7 7 7 8 8 8 8 7 8 7 7 8 8 8 8 8 8 8 8 8 7 8 8 8 7 8 8 8 9 8 8 8 9 7 9 9 8 8 8 9 9 9 9 9 8 9 9 9 9 9 9 11 11 10 9 8 8 8 8 7 7 7 7 8 7 6 7 7 7 7 7 7 6 6 6 6 5 5 8
7 6 7 6 7 6 7 7 6 6 5 6 6 6 6 7 6 6 6 7 7 6 6 6 6 6 7 7 6 6 6 7 7 11 31 13 8 8 7 7 8 7 7 8 7 7 8 7 7 7 6 7 5 90 73 3 7 6 6 6 5 5 4 5 6 6 4 5 4 5 4 4 4 4 3 4 3 2 3 6
7 6 6 7 7 7 7 7 6 6 6 7 6 6 6 7 7 7 7 6 6 7 6 7 7 6 7 7 7 7 6 7 6 18 140 36 5 7 6 7 6 6 6 7 6 6 6 6 6 7 6 7 8 38 31 7 7 6 6 6 5 5 6 6 5 5 5 6 4 4 4 4 5 5 4 3 4 4 2 6
7 6 7 7 7 7 6 6 7 6 6 6 6 6 7 7 7 7 6 7 6 6 5 6 6 6 6 6 6 7 6 7 7 10 21 12 7 7 6 6 6 6 5 6 6 5 6 6 6 5 6 6 7 5 6 7 6 6 6 5 6 5 5 5 5 5 5 5 5 5 4 4 4 3 3 2 3 3 2 6
8 7 7 7 7 7 7 7 7 8 7 6 7 7 8 7 8 7 7 7 7 7 7 7 8 8 8 7 7 7 7 8 8 8 7 8 8 8 8 8 8 8 8 8 8 8 7 7 8 7 8 7 8 8 8 8 7 7 7 7 7 7 6 6 7 7 6 6 7 6 6 6 6 5 5 5 6 6 4 7
8 8 8 7 8 8 7 8 7 7 8 8 8 8 8 7 8 8 8 8 8 8 8 8 8 8 8 8 8 8 9 9 9 9 9 9 9 9 9 9 9 9 9 9 9 9 9 9 9 8 8 8 9 8 8 8 8 8 8 8 8 8 8 8 8 7 7 8 7 7 7 7 6 7 6 7 7 6 6 9
8 7 8 7 8 8 8 8 8 7 8 8 7 8 8 8 8 8 8 8 8 8 8 8 8 9 8 8 8 8 9 9 9 9 9 9 9 9 9 9 9 9 8 9 9 9 9 9 9 9 8 8 8 9 8 8 8 8 8 8 7 8 8 8 8 8 7 7 7 7 7 7 7 7 6 6 7 6 6 8
7 6 7 7 7 7 7 7 7 6 7 7 7 7 7 7 7 6 7 7 7 7 7 7 7 7 7 7 7 7 7 7 8 7 7 8 7 7 7 7 7 7 7 7 7 7 7 8 7 6 7 6 7 7 7 7 6 5 6 6 7 7 6 6 5 6 6 6 5 6 5 6 4 4 5 5 5 4 4 7
7 6 7 6 6 5 6 7 6 6 6 6 7 7 6 7 6 6 7 7 5 6 6 6 7 7 6 6 7 6 6 6 6 6 5 5 5 7 6 5 6 6 7 6 5 6 6 6 6 5 5 5 6 5 6 5 5 5 5 5 5 5 6 5 4 4 5 4 3 4 4 4 3 3 2 2 3 3 3 6
7 7 7 7 7 6 6 7 6 7 6 6 7 6 7 7 6 7 7 7 6 6 6 7 7 7 6 6 6 5 6 7 6 6 6 6 6 6 5 5 6 6 5 6 6 5 6 6 6 6 6 5 6 5 5 5 5 5 6 5 5 4 5 4 4 4 4 4 4 4 4 4 5 4 3 2 3 2 2 6
7 6 6 6 7 7 7 7 7 7 6 6 6 7 7 6 7 6 6 6 7 7 6 5 6 7 7 6 7 7 6 6 7 6 6 7 7 6 6 6 6 6 6 6 5 4 5 6 6 5 6 6 5 6 5 5 4 6 6 5 5 4 5 4 5 5 5 6 6 5 4 5 4 4 4 2 3 3 2 6
8 8 8 8 7 8 7 8 7 7 7 7 7 8 7 8 8 7 7 8 8 8 8 7 7 8 8 8 8 8 8 8 8 8 8 8 8 8 8 8 8 8 8 8 8 8 8 7 8 8 7 7 7 7 7 8 7 8 7 6 7 7 7 7 8 7 7 6 7 7 7 6 6 6 5 5 6 6 6 8
8 7 8 8 8 8 7 8 7 8 7 8 7 7 8 8 8 8 8 7 8 8 8 8 8 8 8 8 8 8 8 9 8 8 9 8 8 9 8 8 8 8 8 8 8 8 8 8 8 8 8 7 8 8 8 8 8 8 8 8 7 8 7 7 7 8 7 7 7 8 7 6 6 7 7 6 6 7 6 9
8 7 8 7 8 8 7 8 8 7 8 8 7 8 8 8 8 7 8 8 8 8 8 8 8 8 8 8 8 8 8 9 8 8 9 8 8 8 8 8 8 8 9 8 8 9 8 8 8 8 8 8 8 8 8 8 7 8 8 8 8 8 7 7 7 7 7 6 6 7 8 7 7 7 6 6 6 6 6 8
7 7 7 6 6 7 6 7 7 7 7 7 7 7 7 7 7 7 7 7 6 7 7 6 7 7 7 7 7 6 7 6 7 7 7 7 7 7 7 5 6 7 6 6 7 7 6 6 7 7 6 6 6 6 6 6 6 5 5 6 5 6 6 5 5 5 5 5 5 5 5 6 4 5 5 4 3 4 4 7
6 6 6 7 7 6 6 7 6 7 6 7 6 6 6 6 6 7 7 7 6 6 6 6 6 6 6 6 6 6 6 6 5 6 6 6 7 6 6 6 6 6 6 6 6 6 6 6 5 5 6 4 6 6 6 5 5 5 5 5 4 5 5 4 4 5 5 5 5 5 5 5 3 4 5 4 4 3 3 6
7 6 7 7 6 6 6 6 6 7 6 6 6 6 6 6 6 6 7 7 6 5 6 6 7 5 6 6 6 7 5 5 6 6 6 5 6 6 6 6 6 6 6 6 6 6 6 6 5 6 6 6 5 5 6 5 5 5 5 5 5 5 6 6 5 5 5 5 6 4 5 5 4 4 3 4 3 2 2 6
7 6 6 7 6 6 6 7 6 6 7 6 5 6 6 6 7 7 7 7 7 7 7 7 7 6 6 7 7 7 6 6 6 6 7 6 6 6 6 5 7 7 6 6 6 6 5 6 6 6 6 6 6 6 5 6 5 5 5 6 5 6 6 6 6 6 4 4 5 4 4 4 5 4 3 4 4 4 2 6
8 7 7 7 7 7 7 7 7 7 7 7 6 7 7 7 7 7 7 7 7 7 8 7 8 8 7 8 8 8 8 8 8 8 7 8 8 8 7 7 8 8 8 8 7 8 8 7 7 7 7 7 8 7 7 7 7 8 8 7 7 7 7 7 7 8 7 7 7 7 7 7 6 6 6 6 6 6 6 8
8 7 7 7 8 8 7 7 7 7 7 8 7 7 7 7 8 7 7 8 7 7 8 7 8 7 8 8 7 8 8 8 8 8 8 8 8 8 8 8 8 8 8 8 7 8 8 8 7 7 7 7 7 8 7 7 8 7 8 7 7 6 7 7 7 7 7 7 6 7 6 7 7 7 6 7 6 6 6 9
8 7 8 7 7 7 7 7 7 7 7 7 7 7 7 7 7 7 7 7 8 7 7 7 7 7 7 8 8 7 7 8 8 8 8 8 8 8 8 7 8 8 7 8 7 8 7 8 7 8 6 6 7 7 7 7 7 7 7 6 7 7 7 6 7 6 6 7 7 6 7 7 7 6 6 5 7 6 5 8
7 6 5 6 7 6 7 7 6 6 7 6 6 6 6 6 7 6 6 7 7 7 6 6 6 6 6 6 6 7 7 6 7 7 5 6 6 7 6 6 6 6 7 6 7 6 6 6 6 6 6 6 5 6 5 5 6 5 6 7 6 6 5 4 5 4 4 5 6 6 4 5 4 3 4 3 4 3 4 7
7 6 6 6 6 6 6 6 7 6 7 6 6 6 6 7 6 6 6 6 7 6 7 7 6 6 6 6 6 6 6 6 6 7 6 6 6 6 6 6 6 6 6 7 6 6 5 4 4 5 6 5 5 5 5 5 5 4 5 6 5 4 4 5 4 5 4 5 4 5 4 3 4 3 4 4 3 2 2 6
7 6 7 6 6 7 7 6 6 6 6 6 6 7 6 7 7 6 6 7 6 6 6 6 6 6 6 6 6 6 6 6 5 6 6 6 6 7 7 5 6 6 6 6 7 6 5 6 6 5 6 7 5 5 5 5 5 6 6 6 6 4 4 5 5 5 5 6 5 5 5 5 4 4 3 3 3 3 2 6
7 7 7 6 7 7 8 7 7 7 6 6 6 7 6 7 7 7 7 7 7 7 7 7 6 7 7 7 6 6 7 7 7 7 7 6 7 7 6 6 7 5 6 7 7 7 7 6 7 6 7 6 6 5 6 6 5 6 7 7 5 4 5 5 5 5 5 5 5 6 5 6 5 5 5 5 5 5 4 7
8 8 7 7 7 7 8 7 8 7 6 7 7 7 7 7 8 7 7 8 7 8 7 7 7 7 8 7 7 8 7 8 8 8 8 7 8 8 8 8 7 7 8 8 8 7 8 7 8 7 8 7 7 7 7 7 7 8 7 7 7 7 7 6 6 7 7 6 7 7 7 7 6 6 7 6 7 6 5 8
8 7 7 6 7 7 7 7 7 7 7 7 7 7 7 7 7 7 7 7 7 8 7 7 7 7 8 7 7 8 8 8 8 8 8 8 8 8 8 7 7 7 8 8 7 7 8 7 7 7 7 7 7 7 7 7 7 7 7 7 6 7 7 7 6 7 7 7 7 7 7 7 7 7 6 5 6 6 6 8
7 7 7 7 6 7 6 7 7 7 7 7 7 7 7 7 7 7 7 7 7 7 7 7 7 7 7 7 7 7 7 7 7 8 7 7 7 7 7 7 7 7 7 7 6 7 6 7 7 6 6 6 6 6 6 7 6 6 7 6 6 6 6 6 6 6 6 5 6 6 6 6 5 4 4 5 5 5 4 7
7 7 6 7 6 7 6 6 6 6 6 7 6 5 6 7 7 6 6 6 6 7 7 6 6 7 7 6 6 6 6 6 6 6 5 6 6 6 6 6 5 5 5 5 6 6 5 5 5 6 5 4 5 5 5 6 4 4 5 5 6 4 4 5 5 5 5 5 4 4 5 4 4 3 3 3 3 3 3 6
8 7 7 7 6 6 7 6 5 6 6 6 6 6 6 7 7 6 5 6 6 7 7 6 6 6 7 6 6 6 6 6 6 6 6 6 6 6 6 5 6 6 5 5 6 6 5 4 5 6 5 5 5 5 5 5 5 4 4 4 5 4 5 4 5 5 5 5 4 4 5 4 5 5 4 3 3 3 3 6
8 6 7 7 6 6 7 7 7 7 6 7 6 7 7 6 6 7 6 6 6 6 6 7 7 7 6 6 6 5 6 6 6 7 6 6 6 6 6 6 6 7 6 6 6 6 6 5 6 6 6 6 5 5 5 5 5 5 6 5 5 6 5 5 4 5 5 5 5 4 4 5 5 4 3 4 4 3 3 7
8 6 7 7 7 7 7 7 7 7 7 7 7 7 7 8 6 7 7 7 7 7 7 7 7 7 7 6 7 7 7 7 8 7 6 7 7 6 6 7 7 7 7 7 7 7 6 7 7 6 7 7 7 6 6 5 6 6 6 6 6 5 6 5 5 6 7 6 5 6 6 5 5 5 5 4 3 4 5 7
9 7 7 7 7 7 7 7 7 7 8 8 7 8 8 7 7 8 7 7 7 6 8 8 7 7 7 7 7 7 8 8 8 8 7 7 7 8 8 7 7 7 7 8 7 7 7 8 7 7 8 7 7 7 7 7 8 6 7 7 7 7 7 6 7 7 7 6 7 7 6 6 6 6 6 6 5 6 6 9
9 9 7 7 7 7 7 7 7 7 7 7 7 8 8 7 7 7 7 7 7 7 7 6 7 6 7 7 7 7 7 8 8 8 7 7 7 7 7 7 8 7 6 7 7 7 7 7 7 7 7 7 7 8 7 7 7 6 7 7 7 6 7 7 6 7 6 7 7 7 6 6 5 5 5 6 5 5 4 6
8 8 7 7 7 7 7 6 7 7 7 7 7 6 6 7 7 7 7 7 7 7 6 7 6 7 7 5 7 7 6 7 7 7 6 6 7 7 7 7 7 7 6 5 6 6 6 6 5 6 6 6 6 6 7 6 6 6 6 6 6 6 5 5 5 6 6 5 6 6 6 6 6 6 5 6 5 4 3 30
