P2
80 80
255
32 13 9 10 10 9 8 8 8 8 8 7 8 8 8 8 6 7 7 8 8 8 8 8 8 8 8 8 8 8 8 8 8 8 8 8 8 8 8 8 8 8 8 8 8 8 8 8 8 8 8 8 8 8 7 8 8 8 8 8 8 8 8 8 8 8 8 7 7 7 7 7 7 7 7 6 6 7 7 8
5 6 6 7 8 7 7 6 6 5 6 6 6 7 6 6 6 6 6 5 6 6 7 6 6 6 7 6 6 6 5 6 6 6 5 6 6 6 6 4 6 7 6 6 6 6 6 6 6 5 5 5 5 6 5 5 6 5 5 5 5 5 5 4 4 4 4 4 4 3 3 4 4 4 4 4 3 2 3 6
7 6 6 6 6 7 8 7 7 6 7 6 6 6 6 6 5 6 6 6 7 6 6 6 5 5 7 6 6 6 6 6 6 6 6 6 6 6 6 5 6 5 6 6 6 6 5 5 6 6 5 5 6 6 6 5 4 5 5 5 5 4 5 4 4 4 3 4 4 3 3 2 3 3 4 4 4 4 1 6
7 7 6 6 6 8 8 6 7 6 6 6 6 6 6 6 6 6 5 5 6 6 7 7 6 6 6 6 6 6 6 6 6 6 6 5 6 7 6 5 5 5 5 5 5 6 6 5 5 6 5 6 4 5 5 6 5 5 5 5 5 5 6 5 4 4 5 5 4 4 4 3 4 3 4 3 3 3 2 6
7 6 7 7 6 7 7 7 7 6 6 7 7 7 6 7 7 7 6 7 7 7 7 7 7 7 6 7 7 7 7 7 7 6 7 7 6 7 7 6 7 6 6 6 6 6 5 6 6 6 6 6 6 6 6 7 6 5 6 6 6 6 7 5 6 6 7 6 5 5 6 5 4 4 4 4 4 4 3 6
7 7 6 7 7 6 7 7 7 7 7 7 7 8 7 7 7 7 7 8 8 7 7 7 7 8 7 7 7 8 7 8 7 8 8 8 8 8 8 8 8 8 8 8 8 8 8 8 7 7 8 7 7 8 8 7 7 7 7 7 6 7 7 7 7 7 7 7 6 7 6 6 6 6 6 5 6 6 5 8
7 7 7 7 7 6 7 7 7 7 8 7 7 7 7 7 8 8 8 8 7 7 7 7 8 8 8 8 7 8 7 8 8 8 8 8 8 8 8 8 8 8 8 8 8 8 8 8 8 8 8 8 7 8 8 8 8 8 8 8 7 7 7 7 7 7 8 7 6 7 7 6 7 7 6 6 6 6 6 9
7 6 6 6 7 7 7 6 6 7 7 7 6 7 7 7 7 7 7 7 7 6 7 7 7 7 7 7 7 7 7 7 7 7 7 7 7 7 7 7 7 7 7 7 7 8 7 7 7 7 7 7 7 7 7 7 7 6 7 6 6 5 6 6 7 7 6 6 6 6 6 6 6 6 6 6 5 6 6 8
7 6 5 6 6 6 5 6 6 6 6 5 6 6 7 7 6 6 7 6 6 6 6 6 6 6 6 6 6 7 6 6 6 6 6 6 7 5 5 6 6 6 4 6 6 6 5 5 5 5 5 6 6 5 5 5 4 3 4 4 5 4 6 6 5 5 4 5 4 4 4 5 4 3 2 2 3 3 3 6
7 7 6 7 7 7 6 6 7 6 7 7 7 7 6 6 6 7 6 7 7 6 7 6 7 6 6 6 6 7 6 7 6 6 6 6 7 6 6 6 7 7 5 5 7 6 6 5 5 6 5 6 6 6 5 6 5 6 6 6 6 5 6 6 5 5 5 6 5 5 5 4 3 3 4 4 4 3 3 6
7 6 6 7 6 7 5 7 7 6 6 6 7 7 7 6 7 7 7 7 7 7 7 7 6 6 6 6 6 6 7 7 6 6 6 6 6 6 6 6 6 7 5 5 5 6 6 6 6 6 6 7 6 6 5 5 5 6 6 6 4 5 5 5 5 4 4 4 4 5 5 4 4 4 4 4 3 3 2 6
7 7 6 7 7 7 6 7 7 7 7 6 7 7 8 7 8 7 7 7 8 7 7 8 8 7 7 7 7 7 7 7 7 7 7 7 7 7 8 7 7 7 7 7 7 7 7 7 7 7 6 7 8 6 6 6 6 7 7 7 6 6 6 6 6 6 6 6 7 6 6 6 6 7 6 5 5 5 4 7
7 7 7 7 7 7 7 8 7 8 7 8 8 7 8 7 8 8 8 7 8 8 8 8 8 8 8 8 8 8 8 8 8 8 8 8 8 8 8 8 8 7 7 8 8 8 8 8 8 8 8 7 8 8 8 7 8 8 7 8 8 6 7 7 7 7 7 7 7 7 6 6 6 6 6 6 6 6 6 8
8 7 8 7 8 8 7 7 7 8 8 7 8 8 8 8 8 8 8 8 8 8 8 8 8 8 8 8 8 8 8 8 8 8 7 8 8 8 8 8 8 8 8 8 8 8 8 8 8 8 8 8 8 8 8 8 8 8 8 8 7 7 7 7 7 7 6 7 7 7 7 7 7 6 6 6 7 5 6 9
7 7 6 7 7 7 7 7 7 7 7 7 7 8 8 8 7 7 7 7 7 7 7 7 7 7 8 7 7 7 7 7 7 7 7 7 7 7 7 7 7 7 7 7 6 6 7 7 7 7 7 7 7 7 7 7 7 8 7 7 7 7 7 6 7 6 6 6 6 6 6 5 5 5 5 5 5 4 4 7
7 6 6 7 6 6 7 7 7 6 7 6 7 7 7 6 6 7 6 6 6 7 7 7 6 6 6 6 7 6 6 6 6 6 6 6 6 6 7 6 6 7 6 5 6 6 6 6 5 5 6 6 6 7 7 6 7 8 5 7 6 5 5 5 5 5 4 4 4 5 5 4 4 3 4 3 3 4 3 6
7 6 6 7 7 7 7 7 7 7 7 7 7 7 7 7 7 7 7 7 7 7 7 7 7 7 6 7 6 7 7 7 7 7 7 7 7 7 7 7 6 7 7 6 6 6 7 7 6 5 6 6 5 6 6 6 6 24 109 17 6 6 6 6 6 6 5 5 4 5 5 4 5 4 3 4 3 3 2 7
7 6 6 7 7 6 6 7 7 6 7 7 7 7 7 7 7 7 7 7 7 7 6 7 7 7 7 7 6 7 6 7 7 7 7 8 5 6 7 6 6 6 6 6 5 6 5 6 7 7 6 5 6 6 6 7 6 27 80 14 7 6 6 5 5 6 6 6 5 5 5 4 6 6 4 4 4 4 3 6
8 7 7 7 8 7 7 8 7 8 8 7 8 7 8 7 7 7 7 7 8 8 7 7 8 7 8 8 8 7 8 8 8 8 8 8 75 38 7 8 8 8 7 8 8 8 8 9 9 10 9 8 8 7 7 8 8 11 6 8 8 7 8 8 7 7 7 7 7 6 7 7 7 7 7 6 6 6 6 8
8 7 8 8 8 8 8 8 8 8 8 8 8 8 8 8 8 8 8 8 8 8 8 8 8 8 8 8 8 8 8 8 9 8 8 7 101 63 7 9 9 9 10 9 9 9 9 9 9 9 9 8 9 8 8 8 8 8 8 8 8 8 8 8 8 8 8 8 8 8 7 7 6 7 7 7 7 7 6 9
7 7 7 8 7 7 8 8 8 8 8 8 8 8 8 7 8 8 8 8 8 8 8 8 8 8 8 8 8 8 8 8 9 8 8 9 12 15 10 9 9 9 8 9 9 8 8 8 8 8 8 8 8 8 8 7 8 8 8 8 8 7 8 7 8 7 7 8 7 7 7 8 7 7 7 7 6 7 7 8
7 7 7 7 7 7 7 7 7 7 7 6 6 7 7 7 7 7 7 7 7 7 7 7 7 6 7 7 7 7 7 6 7 7 7 7 7 8 8 7 7 6 6 6 6 6 6 6 7 7 7 7 7 7 7 6 6 6 6 6 5 5 7 6 6 6 6 6 6 6 6 6 5 5 5 5 5 4 3 7
7 7 6 7 7 7 7 7 7 6 7 6 6 7 7 7 7 7 7 7 7 7 7 7 6 7 7 7 7 7 7 7 7 7 7 7 7 7 7 7 6 7 6 6 6 7 5 6 6 7 6 6 6 6 6 7 6 5 6 6 5 5 6 6 7 6 6 6 5 5 5 5 5 5 4 4 4 3 3 6
7 6 6 6 6 7 7 6 7 7 7 7 6 7 7 7 7 6 6 7 6 6 7 7 6 7 7 7 6 6 7 7 7 7 6 6 7 6 6 6 6 6 6 6 6 6 5 6 7 6 6 5 5 6 6 6 5 5 6 5 5 4 5 6 5 5 5 6 5 5 4 5 4 4 4 4 4 4 4 7
7 6 7 6 6 7 7 7 7 7 7 7 7 7 7 7 7 7 6 7 6 6 7 7 7 7 7 7 7 7 6 7 7 7 6 6 7 7 7 6 6 6 6 6 6 6 6 6 6 6 7 6 6 6 6 7 7 7 7 6 6 5 6 5 6 6 5 5 5 4 6 5 6 5 4 3 4 4 4 7
8 8 7 8 8 7 8 8 7 8 8 7 8 7 8 8 8 8 7 8 8 7 8 8 8 8 8 8 8 8 8 8 8 8 8 8 9 9 8 9 9 8 8 8 8 8 8 8 8 8 8 8 8 8 8 8 8 8 7 8 8 8 8 7 7 7 7 7 8 7 7 7 7 7 6 6 7 7 7 9
9 8 8 8 8 8 8 8 8 8 8 8 8 8 8 8 7 8 8 8 8 8 8 8 8 8 8 8 8 8 8 8 8 8 9 9 9 9 9 8 9 9 9 8 8 9 8 8 9 9 8 8 9 8 8 8 8 8 8 8 8 8 8 8 7 8 8 8 8 8 8 8 7 8 7 6 7 7 7 9
8 7 8 8 8 7 8 8 7 7 7 8 7 8 8 7 8 8 8 8 8 8 8 8 7 8 8 7 7 8 7 8 8 8 8 8 8 8 8 8 8 8 8 9 8 8 8 8 8 8 8 8 8 8 7 8 8 8 8 8 8 8 7 8 8 8 7 7 6 7 7 7 7 6 7 6 6 5 6 9
7 7 7 7 7 7 6 7 7 7 7 7 6 6 7 7 7 7 6 7 7 7 7 7 7 7 7 6 7 6 6 7 6 6 7 7 7 7 7 6 7 7 7 7 7 7 6 6 7 6 6 6 6 7 7 7 7 7 7 6 5 5 5 6 6 6 6 5 5 5 5 4 4 4 5 4 4 3 3 7
7 7 7 6 7 7 7 7 7 6 7 7 7 7 7 7 6 7 7 7 7 7 7 7 7 6 7 6 6 7 7 6 6 7 7 7 7 6 7 6 7 7 6 7 6 6 6 7 6 6 7 6 6 7 6 6 6 6 6 6 6 6 5 5 6 6 6 5 5 4 5 6 5 5 4 5 5 5 4 7
7 7 7 7 6 7 7 7 7 6 6 7 7 6 6 6 6 7 6 7 7 7 7 7 6 6 7 6 6 7 6 6 7 6 6 6 6 6 6 5 6 6 6 6 6 7 5 5 6 6 6 5 6 6 6 6 5 6 5 6 6 6 6 6 5 5 4 5 5 5 5 6 4 4 4 4 3 5 3 7
8 6 8 7 7 7 7 7 7 7 7 7 7 8 7 7 7 7 7 7 7 7 7 7 7 7 7 6 7 7 7 8 7 7 7 7 7 7 7 7 8 8 7 7 7 7 6 6 7 8 7 7 8 7 7 6 6 7 7 7 7 6 6 6 6 6 6 5 6 6 6 6 6 5 5 5 4 4 4 7
8 8 8 8 8 8 8 8 8 8 8 7 8 8 8 8 8 8 8 8 8 8 8 8 8 8 8 8 8 8 8 8 9 8 8 9 9 9 8 8 9 8 8 9 9 9 8 9 9 9 9 9 9 8 9 8 8 9 9 8 8 8 8 8 8 8 8 8 8 8 7 7 7 7 7 7 7 7 6 9
9 8 8 8 8 8 8 8 8 8 8 8 8 8 8 8 8 9 8 8 8 8 8 8 8 8 8 8 8 8 8 8 8 9 8 9 9 9 9 9 9 9 8 9 9 9 9 9 9 9 9 9 9 9 9 8 8 9 9 9 8 9 8 8 8 8 8 8 8 8 8 8 7 7 6 7 7 7 7 9
8 8 7 8 7 7 7 7 8 7 8 7 8 8 8 8 8 7 8 8 8 8 7 8 8 8 8 7 7 8 7 8 7 8 8 8 8 8 9 8 8 8 8 8 8 8 8 8 8 8 8 8 8 8 7 7 8 8 8 8 8 7 7 7 7 7 7 7 7 7 7 7 6 6 6 6 6 6 6 8
6 7 7 7 7 7 7 7 7 6 7 6 6 7 7 6 7 7 7 7 7 7 7 7 7 7 7 6 6 7 7 7 7 7 7 6 6 7 7 7 6 6 7 7 6 5 6 6 6 6 7 6 6 7 6 6 6 6 7 6 7 6 5 6 5 5 5 5 5 5 5 5 5 5 5 4 2 3 3 7
7 6 7 7 6 6 7 7 7 7 7 7 7 7 7 7 7 7 7 7 7 7 7 7 6 6 7 7 7 6 6 7 7 6 7 6 6 7 7 7 7 7 7 7 6 7 6 6 7 6 6 6 5 6 6 7 6 6 6 6 7 6 6 6 6 5 4 5 6 5 5 5 3 5 5 4 4 5 4 7
7 6 6 6 6 7 7 7 6 7 6 6 7 7 7 7 7 7 7 6 7 7 6 6 7 6 6 6 6 6 6 6 6 6 7 7 8 6 6 7 6 6 6 6 6 7 6 5 6 6 6 5 6 6 6 6 6 7 9 14 13 8 6 5 4 5 5 5 6 5 4 4 4 4 3 3 4 3 2 6
8 8 7 7 8 7 8 7 8 7 8 7 7 8 8 8 7 8 8 8 8 8 7 7 8 8 8 8 7 8 8 8 8 8 8 8 9 27 23 10 10 9 8 8 8 8 8 8 8 8 8 8 8 8 7 8 8 8 11 125 88 4 7 7 7 7 7 6 7 7 6 6 6 6 6 5 6 5 6 8
9 8 8 8 8 7 8 8 8 8 8 8 8 8 8 8 8 8 8 8 8 8 9 8 9 8 8 8 8 8 9 9 9 8 9 9 8 124 85 6 10 8 9 9 9 9 9 9 9 9 9 9 9 9 9 9 9 10 16 46 35 8 8 8 7 7 8 8 7 8 7 8 7 7 7 7 7 6 6 9
9 8 8 8 7 8 8 8 8 8 8 8 8 8 8 8 8 8 8 8 9 7 8 8 8 8 8 8 8 9 8 8 8 9 9 9 11 30 22 9 9 9 9 9 9 9 9 9 9 9 9 9 9 9 8 9 8 9 10 7 8 9 8 8 7 7 8 7 7 8 8 7 7 8 7 7 7 6 7 9
8 7 7 8 7 7 8 7 7 7 6 7 7 7 7 7 7 7 8 7 7 8 7 7 8 7 7 7 7 7 7 7 7 8 7 8 9 7 8 8 8 7 8 8 8 8 7 7 8 7 8 7 7 8 7 7 7 7 7 7 7 7 7 6 6 6 6 5 7 6 6 6 6 6 6 5 5 5 4 7
7 7 7 7 7 7 6 7 6 6 6 6 7 7 7 7 7 6 7 7 7 7 6 6 7 7 6 6 7 7 6 7 6 7 6 6 7 7 7 7 7 7 7 7 6 6 7 6 6 6 6 6 5 7 6 6 6 5 6 6 7 6 5 6 5 4 4 5 5 6 4 5 5 3 4 4 3 4 2 6
7 7 6 6 6 7 7 7 7 7 7 6 7 6 7 7 7 6 6 7 6 6 6 7 7 7 7 6 7 7 7 6 6 7 7 6 6 7 6 6 6 7 7 7 6 7 6 6 6 6 6 6 6 6 6 6 5 6 7 5 5 6 4 5 6 6 5 6 4 5 4 4 5 4 4 5 5 4 3 7
7 7 6 6 7 7 6 6 7 7 7 7 7 6 6 6 6 6 6 6 6 6 6 7 6 7 7 7 7 7 7 7 7 7 6 7 7 7 7 5 6 7 7 7 5 6 6 6 6 6 6 6 6 6 6 5 6 6 7 6 5 5 6 6 5 6 5 4 4 4 4 4 4 4 5 4 4 4 2 6
9 8 8 7 8 7 7 8 8 8 8 8 8 7 8 8 8 8 8 8 8 8 8 8 8 8 8 8 8 8 8 8 8 8 8 8 8 8 8 8 9 9 8 9 8 9 8 8 8 8 8 8 8 8 8 8 8 8 8 8 8 7 8 8 8 8 7 7 7 7 7 7 7 7 6 6 6 6 6 8
8 8 8 7 8 8 8 8 8 8 8 8 8 8 8 8 8 8 8 8 8 8 8 8 8 8 9 8 8 8 8 8 8 9 9 9 8 8 9 9 9 9 9 9 9 9 9 9 9 9 9 8 9 9 8 9 8 8 8 8 8 7 8 8 8 8 7 7 8 8 7 7 7 8 8 7 7 7 7 8
8 8 8 8 8 8 8 8 8 8 8 8 7 8 8 8 8 8 8 8 8 8 8 8 8 8 8 8 8 8 8 8 8 9 8 9 8 9 9 8 9 9 9 9 9 9 9 9 9 9 8 9 9 8 8 8 8 8 8 8 8 8 8 8 8 8 8 8 7 7 8 8 8 7 7 6 7 6 7 9
7 7 7 7 7 7 6 7 6 6 6 6 7 7 6 7 7 7 7 6 7 7 7 6 7 7 7 7 7 6 7 7 7 7 7 7 7 7 7 7 7 7 7 7 7 6 7 7 6 7 6 6 6 6 7 6 6 7 7 7 7 6 6 5 6 6 5 5 6 5 5 6 5 4 4 4 4 5 5 7
6 5 6 7 7 7 7 7 7 6 7 6 6 7 7 6 6 6 7 6 7 7 7 6 7 7 7 7 6 6 6 6 7 7 7 6 7 6 7 7 6 6 7 7 6 6 5 6 6 5 6 5 5 5 6 5 6 5 6 6 5 5 5 5 5 5 5 4 4 5 4 4 5 4 4 3 4 4 3 6
7 6 6 6 6 7 6 7 7 6 7 6 6 7 7 6 6 7 7 7 6 6 6 6 6 6 7 7 6 7 6 7 7 6 6 6 7 7 6 6 6 7 6 6 6 6 6 6 5 5 6 6 6 6 5 5 6 5 5 6 6 5 5 5 6 6 4 4 5 5 3 4 5 5 4 4 4 3 3 7
7 7 7 7 6 7 7 6 7 7 6 6 7 7 7 7 6 7 7 7 7 7 7 7 7 7 7 7 7 6 7 7 7 8 7 6 6 7 7 7 7 6 7 7 6 6 7 7 6 6 7 7 6 6 6 6 6 6 6 6 7 7 6 5 6 6 5 5 5 5 5 4 4 3 3 4 5 4 4 7
8 7 7 7 7 8 8 8 8 7 7 8 8 7 7 8 7 7 7 8 7 8 8 8 8 8 8 8 8 9 8 8 8 9 9 9 8 9 8 8 8 9 9 9 9 8 9 9 9 9 8 8 8 9 9 8 8 8 8 8 8 8 8 7 8 8 7 7 7 7 7 7 6 6 6 6 6 7 6 8
8 7 7 7 7 7 7 8 7 8 8 7 8 7 8 7 7 8 8 8 8 8 8 8 8 8 8 8 8 8 8 9 8 9 9 8 8 9 9 8 8 9 9 9 9 9 8 9 9 9 8 9 9 8 9 8 8 9 9 9 8 8 8 8 8 8 8 7 8 7 7 8 7 7 7 7 6 7 6 9
8 7 7 7 7 7 7 7 7 7 7 7 8 7 8 7 7 8 8 8 8 8 7 8 8 8 8 8 7 8 8 8 8 9 8 8 8 8 8 8 8 8 8 8 8 8 7 8 8 8 8 8 8 8 8 7 7 8 8 8 8 8 7 7 7 7 7 7 7 7 7 7 7 7 7 6 6 6 5 8
7 6 6 6 6 6 6 7 6 6 6 6 6 6 7 6 6 6 6 7 6 7 6 6 6 7 6 6 7 6 6 6 6 7 5 5 6 6 6 5 6 6 6 5 5 4 6 5 5 5 6 5 5 6 5 5 5 6 6 5 4 5 5 5 5 5 3 4 4 5 5 3 3 3 3 2 3 3 3 6
7 6 6 5 5 7 6 6 7 6 6 7 6 6 6 5 6 6 6 6 6 6 6 6 6 6 6 6 6 6 6 6 6 7 5 6 7 6 6 5 5 5 6 6 6 6 6 6 5 6 5 5 6 5 6 6 5 4 4 4 4 4 4 4 5 4 4 4 3 4 5 3 3 4 3 3 2 2 1 6
8 8 7 7 7 7 6 7 6 6 7 6 6 7 6 6 7 7 7 6 7 7 6 7 7 6 6 6 6 7 6 6 6 6 6 6 6 7 6 5 6 7 6 6 7 6 6 6 7 6 5 5 5 6 5 6 6 5 5 5 5 5 5 4 5 5 4 4 4 4 5 4 4 4 4 3 4 3 2 7
10 9 7 7 7 7 7 7 7 7 7 7 6 7 7 6 7 7 7 7 7 7 7 7 7 8 7 7 7 7 6 8 7 7 7 8 7 7 8 6 7 7 6 7 8 7 7 7 7 6 7 7 6 7 5 6 7 7 6 7 5 5 6 7 6 6 6 6 5 5 6 6 5 5 4 5 5 5 4 7
12 10 8 7 7 7 8 8 8 8 7 8 8 8 8 7 7 7 7 8 8 8 8 8 8 8 8 8 8 7 8 8 8 8 8 8 8 8 8 8 8 8 8 8 8 9 8 8 8 8 8 8 8 8 8 8 8 8 8 8 7 8 7 8 8 8 7 7 7 8 7 7 7 7 7 6 7 6 7 7
11 9 7 7 7 7 7 8 8 8 7 7 7 8 7 7 8 7 7 7 7 7 8 8 8 8 8 7 7 8 8 8 8 8 8 8 8 8 8 8 8 8 8 8 8 8 8 8 8 8 8 8 8 8 7 7 8 8 8 7 7 7 7 7 7 7 7 7 7 7 7 7 7 7 7 7 6 6 6 8
10 8 7 7 7 7 7 7 7 7 7 7 7 7 7 7 7 7 7 7 7 7 8 7 8 8 7 8 7 7 8 7 7 8 8 7 7 8 8 7 8 7 7 7 7 8 7 7 7 7 7 7 7 7 7 7 7 7 8 7 7 7 7 7 7 7 7 7 7 7 6 6 7 6 5 6 5 5 5 8
9 7 6 6 6 7 7 7 7 6 7 6 6 7 7 6 6 7 6 7 7 7 6 7 7 6 6 7 6 6 6 6 6 7 7 6 5 5 6 5 6 7 5 6 6 6 5 5 5 6 5 6 5 5 5 5 6 6 6 5 6 5 6 6 5 6 4 4 4 5 4 5 4 4 4 4 3 2 3 6
8 8 6 6 6 6 6 7 6 5 5 6 6 6 6 6 6 6 6 6 6 6 7 6 5 6 6 6 6 6 6 6 6 6 6 6 6 6 5 6 6 6 5 5 5 6 6 5 5 5 5 5 5 5 5 5 6 5 5 5 4 5 5 4 5 5 5 4 4 5 3 3 4 4 4 3 3 3 2 7
8 8 6 6 6 6 6 7 6 6 6 6 6 6 6 5 6 6 7 6 6 6 6 6 6 6 6 5 5 6 6 6 6 6 6 6 7 6 6 6 6 6 6 6 6 6 6 5 5 5 6 5 5 5 4 6 6 5 5 5 5 5 5 4 5 6 4 5 5 6 4 4 5 4 4 4 4 3 2 7
9 8 7 7 7 7 6 7 7 7 7 7 7 7 7 6 7 7 7 7 7 7 7 7 7 7 7 6 7 7 7 7 7 7 7 7 7 7 7 6 7 7 7 7 7 6 6 6 7 7 7 5 6 6 6 7 7 6 6 6 7 6 7 7 6 6 6 6 5 5 5 6 5 5 5 5 5 5 5 8
9 9 7 7 7 7 7 7 7 7 7 7 7 8 7 7 7 7 7 7 7 7 8 8 7 8 7 7 7 7 7 7 7 8 8 7 8 8 8 8 8 8 7 7 7 7 7 7 8 7 7 7 7 7 7 7 7 7 7 7 7 7 7 7 7 7 7 7 7 6 6 5 6 6 7 6 6 5 6 9
9 8 8 8 7 7 7 7 7 6 7 7 7 8 8 8 7 7 7 7 7 7 7 7 8 8 8 7 7 7 7 8 8 8 7 7 8 7 8 8 7 7 7 7 8 7 7 7 7 7 7 7 7 8 6 7 7 7 7 7 7 6 7 7 7 7 6 6 6 6 6 6 6 6 6 7 6 6 6 8
9 8 8 8 7 8 7 6 7 6 6 7 7 7 7 7 7 6 6 7 7 7 7 7 7 7 7 7 6 7 7 7 7 7 7 6 7 7 7 6 7 6 6 6 6 7 7 6 6 5 6 7 6 6 6 7 7 6 6 6 6 6 6 6 6 5 6 6 6 6 6 6 5 4 4 5 5 4 4 7
9 8 7 7 7 6 6 6 6 6 7 6 6 6 6 6 6 6 6 7 6 7 7 7 7 7 7 6 6 6 6 6 5 5 6 5 6 7 7 6 6 6 6 6 5 6 6 6 6 6 6 5 5 5 6 6 5 6 6 5 5 4 4 5 5 5 5 5 4 4 4 4 4 3 3 2 3 2 1 6
8 7 7 6 5 6 6 6 6 5 6 6 6 6 6 6 6 6 6 6 7 6 5 7 5 6 6 6 7 6 6 6 6 5 5 6 5 7 7 5 5 6 5 6 6 5 5 6 6 6 6 6 6 5 5 5 4 5 5 5 5 5 5 5 4 5 4 4 4 3 4 3 3 3 3 3 3 2 1 6
8 7 6 6 6 6 7 7 7 6 7 6 7 6 6 6 7 6 6 6 7 6 6 7 7 7 6 7 6 6 6 6 7 7 6 6 6 6 7 6 7 6 5 5 5 6 6 6 6 5 5 6 6 6 5 6 5 5 5 4 5 4 5 5 4 5 5 4 5 6 5 4 4 4 4 4 3 4 3 6
8 8 7 8 7 7 6 6 6 6 7 6 7 7 7 7 7 6 6 7 7 7 7 7 7 8 7 7 7 6 6 7 7 8 7 7 7 7 7 6 7 7 7 7 7 7 7 7 7 6 6 7 6 7 6 6 6 7 6 6 7 6 6 6 6 6 6 6 6 7 5 6 6 6 5 5 4 5 4 7
9 8 9 9 7 7 7 7 6 6 7 7 7 7 7 7 7 7 7 7 7 7 7 7 7 7 7 7 6 7 7 7 7 8 7 7 6 7 7 7 7 6 7 7 7 7 7 7 7 7 7 7 7 7 7 7 6 7 6 7 6 6 6 7 7 7 7 7 6 7 6 6 5 6 5 5 6 6 5 8
9 8 9 8 8 7 7 7 6 6 7 7 7 7 6 7 7 7 7 8 8 7 7 7 7 7 7 7 7 7 7 7 7 7 7 7 7 7 6 7 7 7 7 7 7 7 7 6 7 7 7 7 7 6 7 7 6 7 7 6 6 6 6 7 7 7 7 7 6 6 6 7 6 5 6 6 5 6 5 8
8 7 8 8 7 6 7 7 6 7 7 6 6 6 7 7 7 6 7 7 7 6 6 6 6 7 6 6 7 6 5 7 6 6 6 6 6 6 6 7 7 5 5 6 5 5 5 5 5 4 5 5 5 6 5 5 5 5 4 5 5 4 5 4 5 4 4 5 5 5 5 4 4 5 4 4 4 3 3 7
7 7 7 7 6 5 6 7 6 7 7 6 6 7 7 7 7 6 6 7 7 7 7 7 6 6 6 6 7 7 6 6 6 6 6 6 6 6 5 5 6 7 5 6 6 6 5 6 4 4 5 5 5 6 5 5 5 6 4 5 5 4 5 4 4 5 5 4 4 4 4 4 3 3 4 3 2 3 2 6
8 8 8 7 6 6 5 6 6 6 6 6 6 6 6 7 7 6 6 6 6 7 6 6 6 6 6 7 6 6 6 6 6 6 6 5 7 6 5 5 6 6 5 6 5 6 6 5 5 6 6 5 5 5 5 5 5 4 4 6 6 4 3 4 4 5 5 5 4 3 4 3 3 4 4 3 3 3 1 6
8 7 6 7 7 7 6 6 6 6 7 7 6 6 7 7 7 6 6 6 6 6 7 6 7 6 7 7 6 5 6 6 5 7 6 7 6 7 6 6 6 6 5 6 6 5 6 5 5 6 6 6 6 6 5 5 5 5 5 6 6 4 4 5 5 5 5 5 6 6 4 4 4 4 4 4 3 3 1 4
7 7 8 8 7 7 6 6 7 7 7 7 7 7 7 7 7 7 7 7 7 7 7 7 7 7 7 6 7 7 6 7 7 7 7 7 7 7 7 7 7 6 7 7 7 7 7 7 7 7 5 7 7 7 6 6 7 6 7 7 6 6 7 6 6 6 6 6 6 6 6 6 6 6 6 5 5 5 5 30
