P2
80 80
255
31 12 7 8 8 8 8 8 8 7 8 7 7 7 7 8 7 8 8 7 8 8 8 7 8 8 9 9 7 7 8 8 9 9 9 9 9 9 9 9 9 8 8 8 8 8 9 8 8 8 8 8 8 8 7 8 7 7 7 7 8 8 8 8 8 8 7 8 6 7 6 6 6 6 5 7 7 6 4 8
6 7 7 7 7 6 7 7 7 6 6 7 7 7 7 7 7 7 7 7 7 8 7 7 7 8 9 9 7 7 8 8 8 8 8 7 7 8 8 7 8 7 7 8 7 7 7 7 7 7 7 7 7 6 6 7 8 8 7 6 7 6 7 6 7 7 7 7 6 6 6 6 6 6 5 5 6 5 4 7
7 7 6 6 7 6 6 6 6 6 6 6 6 6 7 6 6 7 6 7 6 6 6 6 6 7 8 7 6 6 5 5 6 5 4 5 6 6 7 6 5 5 5 6 6 6 5 4 5 5 5 5 5 5 4 5 6 7 5 5 4 4 5 4 4 4 5 4 5 5 4 5 5 5 4 3 3 3 2 6
6 7 6 6 7 6 6 7 6 6 6 5 5 6 5 6 6 6 5 6 5 5 6 6 5 6 8 7 6 6 6 6 6 6 5 6 6 6 6 5 6 6 5 5 5 5 5 4 5 5 6 6 5 5 5 4 5 5 4 6 6 5 4 4 3 4 5 4 3 4 4 4 4 4 2 3 2 4 2 6
6 6 7 6 6 6 6 7 6 6 6 7 6 6 6 6 6 5 6 6 6 6 6 6 6 6 7 6 6 6 6 5 6 6 5 5 6 6 6 5 6 6 5 6 6 5 5 6 4 6 5 5 4 5 4 5 5 4 5 4 4 5 4 3 3 3 4 4 4 4 5 4 4 4 3 3 3 3 2 6
7 7 6 6 6 6 6 5 6 7 6 7 6 7 7 7 7 7 6 6 7 7 7 6 5 6 7 6 6 6 6 7 7 7 6 6 6 6 6 6 7 6 6 7 6 6 6 6 6 5 6 5 5 6 5 6 5 5 6 6 5 5 5 5 5 5 5 4 6 5 4 4 4 4 4 5 4 4 3 7
8 6 6 7 7 6 7 6 6 7 7 7 6 7 8 7 7 7 7 6 7 7 7 7 7 7 6 7 8 7 7 7 7 7 8 7 8 7 8 7 7 7 7 7 7 8 7 7 7 7 6 7 7 7 7 7 7 7 7 6 6 6 6 7 7 7 6 6 7 6 6 6 6 6 6 6 6 5 4 8
7 7 7 7 6 6 7 7 7 7 7 7 7 7 7 7 7 7 7 7 7 7 7 7 7 6 7 7 7 7 7 8 7 7 8 7 8 8 7 7 7 7 8 7 7 7 7 7 7 7 7 7 7 7 6 7 6 7 7 7 6 6 6 7 7 7 6 6 7 6 6 6 5 5 5 6 5 5 6 8
8 7 6 7 6 7 6 7 6 5 6 7 7 6 7 7 7 7 7 7 7 7 7 7 7 7 7 7 7 7 7 7 7 7 7 8 8 7 7 7 7 7 6 7 7 8 8 7 6 6 7 7 7 6 6 7 7 7 7 6 7 6 6 5 7 6 6 6 6 6 6 7 5 5 3 5 5 4 4 7
7 6 7 6 7 6 7 7 6 6 6 7 6 7 6 7 6 6 6 6 7 7 6 6 6 6 6 5 5 6 6 6 7 5 6 6 5 5 6 5 6 6 5 6 5 6 6 5 5 5 5 5 5 5 4 5 4 5 6 5 5 4 3 3 5 4 5 5 5 4 4 4 3 3 2 2 4 2 2 6
7 6 7 6 6 6 6 7 6 6 7 6 6 6 6 7 7 6 6 6 7 6 6 6 6 6 6 6 6 6 5 6 6 6 5 6 6 6 6 6 5 6 6 6 6 5 4 4 5 5 5 5 5 5 5 5 5 5 5 5 5 4 4 5 5 4 4 4 4 3 4 5 3 3 4 3 4 3 2 6
7 6 6 7 6 6 6 7 7 7 6 6 6 6 6 7 7 6 6 6 6 6 7 7 6 6 7 6 6 6 6 6 5 6 6 6 7 7 5 5 5 5 6 5 6 6 6 6 4 5 5 5 5 5 5 5 5 5 5 6 5 5 5 5 5 5 4 6 4 3 4 4 4 4 5 3 5 4 3 7
7 6 6 6 7 7 7 7 7 7 7 7 7 7 7 6 6 7 6 7 7 7 7 7 6 7 7 6 7 7 7 6 6 7 7 6 7 7 7 6 7 6 6 7 6 7 6 6 6 5 7 6 6 6 6 5 6 5 6 6 5 6 6 6 6 6 6 6 6 5 5 5 6 5 5 5 5 5 4 7
8 6 8 7 7 7 7 8 8 7 8 8 8 8 8 7 8 8 8 8 8 8 8 8 8 7 7 8 8 8 7 8 8 8 8 8 8 8 8 8 8 8 7 8 8 8 8 8 7 8 8 8 8 8 7 8 8 7 7 7 8 8 8 7 7 7 7 8 7 7 7 7 7 6 6 6 7 6 6 8
8 6 7 7 7 7 7 7 7 7 7 7 7 7 8 8 8 8 8 8 7 8 8 8 7 8 8 8 8 8 8 8 8 8 8 8 8 8 8 8 8 8 8 8 8 8 8 8 8 8 8 8 8 8 7 7 7 7 7 7 8 7 8 7 8 7 6 7 7 6 7 7 6 7 6 6 7 7 5 8
8 7 7 7 7 7 7 6 7 7 7 7 7 7 7 7 7 7 7 7 7 7 7 8 7 7 7 7 8 7 7 7 8 7 7 7 7 8 8 8 7 7 7 7 7 7 6 7 7 7 7 7 6 6 7 6 6 7 7 6 7 7 7 7 7 7 6 7 5 6 7 7 5 5 6 6 4 6 5 7
7 7 7 7 7 7 7 7 7 7 6 6 7 7 6 7 7 6 7 7 6 7 7 6 6 6 6 7 7 7 6 6 6 6 5 6 6 6 5 6 6 6 6 6 5 6 6 5 5 5 6 6 6 6 5 5 5 6 6 6 6 6 5 5 5 5 5 5 5 5 5 5 4 4 4 3 3 3 4 7
7 7 6 7 6 7 6 7 6 6 7 7 7 7 6 6 6 7 7 6 7 7 7 6 7 7 7 6 6 7 7 7 6 7 6 7 7 6 6 5 6 7 5 5 6 7 7 6 6 6 6 6 6 5 6 5 4 6 6 6 5 5 5 4 4 6 6 6 5 5 5 5 5 5 4 3 3 3 4 7
7 7 7 7 7 7 7 6 7 7 7 6 6 7 7 7 7 7 7 7 7 6 7 7 6 6 7 6 6 6 7 6 7 6 6 6 6 6 6 6 5 6 5 6 6 6 7 6 6 6 6 6 6 5 6 6 5 5 5 4 5 5 5 5 5 5 5 5 5 5 5 5 4 4 4 4 4 3 2 6
8 7 7 8 7 7 7 7 8 7 7 7 8 8 8 8 8 7 8 8 7 7 8 7 8 8 8 8 8 8 8 8 8 8 8 8 8 8 8 8 8 7 8 8 7 8 8 8 8 8 8 8 8 7 7 7 7 6 7 7 7 7 7 6 7 7 6 7 7 6 7 6 5 6 6 5 5 5 4 7
8 7 7 8 8 8 8 8 8 8 8 8 8 8 8 8 8 8 8 8 8 8 8 8 8 8 9 9 8 8 8 9 9 8 8 9 9 8 8 8 8 8 8 9 8 8 8 8 8 8 8 8 8 8 8 8 7 8 8 8 8 7 8 7 7 7 7 7 7 7 7 7 6 6 7 6 5 6 6 8
8 8 8 8 8 8 8 8 8 8 8 8 8 8 8 8 8 8 8 8 8 8 8 8 8 8 9 9 8 9 9 8 9 9 9 8 9 9 9 9 9 8 8 9 9 9 8 9 8 8 9 8 8 8 8 8 8 8 8 8 7 7 8 7 8 8 7 7 7 7 7 7 7 7 7 7 5 6 6 9
7 7 7 8 7 7 7 7 7 7 7 7 7 7 7 7 7 7 7 7 7 7 7 7 7 7 8 7 7 8 8 8 7 7 7 8 8 7 8 7 7 7 6 7 6 7 7 7 7 7 7 7 7 7 6 7 5 7 6 6 7 6 6 6 6 6 5 5 5 5 5 4 5 5 5 4 5 4 3 7
7 7 7 7 7 7 6 7 7 7 7 7 6 7 7 7 7 7 7 7 6 7 7 7 7 7 7 7 7 7 7 7 7 6 6 6 6 7 7 6 6 6 6 6 7 6 7 6 6 7 6 6 5 6 6 7 5 6 6 6 6 6 6 6 6 6 6 5 4 5 5 5 5 5 4 3 4 4 4 7
7 6 7 7 7 7 7 7 7 7 7 7 7 7 7 7 7 7 7 7 7 6 7 7 7 6 7 7 6 7 6 7 6 6 6 6 7 7 7 6 6 6 6 6 6 5 6 6 6 7 6 6 6 6 6 6 6 6 6 6 6 6 6 5 6 6 6 5 5 5 5 4 5 5 3 3 2 2 3 7
7 7 7 7 7 6 7 7 6 7 6 6 7 7 7 7 6 7 7 6 6 6 7 6 7 6 7 7 6 6 6 7 7 6 6 6 7 7 7 6 6 6 6 6 6 6 6 6 6 6 6 5 5 5 6 6 5 6 5 6 5 5 6 5 5 5 4 5 4 5 6 6 5 4 4 3 3 2 3 6
8 8 8 7 8 7 7 8 8 7 7 7 8 7 8 8 8 8 8 8 8 8 9 8 8 8 8 8 8 9 9 9 9 8 9 9 9 9 9 8 9 8 9 8 9 9 9 8 8 8 9 9 8 8 8 7 8 8 8 7 7 7 8 8 7 7 7 8 7 7 7 7 6 6 6 7 7 5 4 8
8 8 8 8 8 8 8 8 8 8 8 8 8 8 8 8 8 8 8 8 9 9 8 9 8 8 9 8 8 9 9 9 9 9 9 9 9 9 8 9 9 9 9 9 9 9 9 8 8 9 9 9 9 8 8 8 8 8 8 8 8 8 8 8 8 8 8 8 7 7 8 8 7 7 7 6 6 4 4 8
8 7 8 8 8 8 8 8 8 8 8 8 8 8 8 8 8 8 8 8 9 8 8 8 8 9 9 9 8 8 8 9 8 9 9 9 8 9 9 9 9 9 9 9 9 9 9 9 8 9 8 9 8 8 8 8 8 8 8 8 7 8 8 8 8 8 8 7 7 8 7 7 7 7 7 7 6 4 5 8
8 7 6 7 7 6 7 7 7 7 6 7 7 7 7 7 7 7 7 7 7 7 7 6 7 7 7 7 6 7 7 7 7 7 6 7 7 7 7 7 6 7 7 7 6 7 6 6 6 7 7 7 6 7 6 7 6 7 7 6 6 6 6 5 6 6 5 5 6 6 5 4 5 5 5 5 4 2 2 7
7 6 7 7 7 7 7 7 6 6 7 6 7 7 7 7 7 7 7 7 7 6 6 7 7 7 7 7 6 7 5 6 7 7 6 7 7 7 7 7 6 6 6 7 6 6 6 6 6 6 7 6 7 7 6 6 6 7 6 6 7 6 6 4 6 6 5 6 6 5 6 5 4 5 5 5 3 2 3 7
7 6 7 7 7 7 7 7 7 6 7 6 6 7 7 7 7 7 6 7 7 7 7 6 6 5 7 6 6 6 6 7 7 8 8 3 8 6 6 6 6 6 5 6 6 6 6 6 5 6 6 5 7 8 12 8 6 6 6 6 5 6 5 5 4 5 6 6 4 6 5 5 4 4 5 4 4 2 1 6
7 7 7 8 8 7 7 7 7 7 7 6 6 7 7 7 7 7 7 7 7 7 7 7 7 8 7 7 7 7 7 7 8 7 34 105 14 7 7 7 7 7 7 7 7 7 7 7 6 7 7 7 5 42 112 11 7 7 7 6 6 7 6 6 6 6 6 6 6 7 6 6 5 5 5 4 5 4 3 7
9 8 8 8 8 8 8 8 8 8 8 8 8 8 8 8 8 8 8 8 8 9 9 8 9 9 9 9 9 9 9 9 9 8 34 89 15 9 9 9 9 9 9 9 9 9 10 9 9 9 9 8 8 19 41 13 8 8 8 9 8 8 8 8 8 8 7 8 7 8 8 7 7 6 6 7 7 6 7 9
9 8 8 8 8 8 8 8 8 8 8 8 8 8 8 8 8 8 8 8 9 9 8 8 9 8 9 8 9 9 9 9 9 9 10 8 10 10 9 9 9 9 9 9 9 9 9 9 9 9 9 9 9 9 7 9 8 8 8 8 8 8 8 8 8 8 8 8 8 8 8 7 7 7 6 6 7 5 6 8
8 8 8 8 8 8 8 8 8 8 8 8 8 8 8 7 8 8 8 8 8 7 8 8 8 8 8 8 8 9 8 8 9 9 8 8 9 9 9 9 9 9 8 9 8 8 8 8 8 8 8 8 8 9 8 8 7 8 8 7 8 8 7 8 7 7 7 7 6 7 7 7 7 7 6 6 6 5 6 8
7 7 7 7 7 7 7 7 6 6 7 7 6 7 7 6 7 7 7 7 6 7 7 7 6 7 7 7 7 7 6 7 7 7 7 7 7 7 7 7 7 7 7 7 7 7 6 7 6 6 7 6 6 7 6 7 6 6 7 6 6 6 6 5 6 6 5 5 5 5 6 6 5 5 4 4 5 5 3 7
7 7 7 7 7 6 6 7 7 7 6 6 6 7 7 7 6 7 6 6 7 7 7 7 7 6 6 7 7 6 7 7 6 7 7 7 7 7 7 7 7 7 5 7 7 6 5 6 6 6 6 6 6 7 6 6 6 6 6 6 6 5 6 5 6 6 5 6 5 6 7 6 5 5 5 4 4 4 3 7
7 6 7 7 6 7 7 7 7 7 7 7 6 7 7 7 7 7 6 6 7 7 7 7 7 7 7 7 7 6 7 7 7 7 7 7 7 7 7 6 5 6 6 7 7 7 6 6 6 6 6 5 6 6 5 6 6 6 7 6 6 5 5 6 6 6 6 5 5 6 6 6 6 6 4 4 3 4 3 7
8 7 7 7 7 7 7 7 7 7 7 7 7 7 8 8 8 8 7 7 8 8 8 8 8 8 8 7 8 8 7 7 8 8 8 8 8 8 8 8 7 7 8 7 8 8 8 7 8 8 7 7 7 7 7 6 7 7 8 8 7 8 7 7 7 7 6 6 6 6 6 7 6 6 5 5 5 5 5 8
9 8 7 8 8 8 8 8 8 8 8 8 8 8 8 9 8 8 9 8 8 9 9 9 8 9 9 9 9 8 9 9 9 9 9 9 9 9 9 9 9 9 9 9 9 9 9 9 9 9 9 9 9 9 9 8 8 8 8 8 8 8 8 8 8 8 8 7 8 8 8 7 7 7 7 7 7 7 7 9
8 8 8 8 8 8 8 8 8 8 7 8 8 8 8 8 8 8 8 9 8 9 9 9 9 9 9 9 8 9 9 9 9 9 9 9 9 9 9 9 9 9 9 9 9 9 9 9 9 9 9 9 9 9 8 9 8 8 8 8 8 8 8 8 8 8 8 7 8 8 7 7 8 7 7 7 8 8 6 9
8 7 8 7 7 7 7 8 8 7 7 8 7 7 8 8 7 7 8 8 8 7 7 8 8 7 8 7 7 8 7 8 8 8 7 8 8 8 8 8 8 8 8 8 8 8 8 7 7 7 8 7 8 8 7 7 7 8 7 7 7 7 7 7 7 7 7 7 7 6 6 7 6 7 6 5 5 6 5 8
7 7 6 6 7 7 7 7 7 7 7 7 7 7 7 7 7 6 6 7 7 7 7 7 7 6 7 7 6 7 6 7 7 6 6 6 7 7 7 6 7 7 7 7 6 5 6 6 6 7 6 6 6 6 5 6 6 6 6 5 5 6 6 6 7 5 4 5 5 5 4 5 5 6 4 3 4 4 3 7
7 6 6 6 5 7 6 7 7 6 6 7 6 7 7 7 6 7 7 7 7 7 7 6 6 6 6 7 6 7 7 7 7 6 7 7 6 6 6 6 7 6 7 7 6 6 6 6 5 5 6 6 6 5 6 6 6 7 6 4 5 5 5 5 6 5 4 5 5 4 4 4 4 4 4 3 4 4 4 7
7 6 6 7 7 7 7 7 7 6 6 6 7 7 6 7 7 7 7 7 6 6 7 6 6 6 7 7 7 7 6 7 6 7 7 6 6 7 7 6 7 7 6 7 6 6 7 6 6 6 6 5 6 7 6 5 6 6 6 5 5 6 5 6 6 5 5 6 6 5 4 4 4 4 5 3 3 3 3 6
8 8 7 7 8 8 8 8 7 8 8 8 7 7 7 8 8 8 8 8 8 8 8 8 7 8 8 7 7 8 7 8 8 8 8 8 8 8 8 8 8 8 8 9 8 8 8 8 8 8 8 8 8 8 8 8 7 7 8 8 7 7 7 8 7 7 7 7 7 7 7 6 6 6 6 6 5 6 6 8
8 8 8 8 8 8 8 8 8 8 8 8 8 8 8 8 8 8 8 9 8 8 8 8 8 9 9 9 8 8 8 8 8 8 9 9 9 9 9 9 9 9 8 9 9 9 9 9 9 9 9 9 9 9 9 9 8 8 8 8 7 8 8 8 8 7 8 7 8 8 8 8 8 7 7 6 7 7 7 9
8 7 8 8 8 8 8 8 7 7 8 8 8 8 8 8 8 8 8 8 8 8 8 8 8 8 8 9 8 8 8 8 8 9 8 9 9 9 9 9 9 9 9 9 9 9 9 9 9 9 9 9 9 9 9 9 8 8 8 8 8 8 8 8 8 8 7 7 8 7 8 7 8 7 6 7 6 6 6 8
7 6 7 7 6 7 7 7 7 7 7 6 7 7 6 7 7 7 7 7 7 7 7 7 8 7 7 7 7 7 7 7 7 7 7 8 8 8 7 7 8 7 7 8 7 7 7 7 6 7 7 7 8 8 6 5 8 7 7 6 6 6 7 6 5 6 6 6 6 6 6 6 6 5 5 5 4 5 3 7
8 6 7 6 6 7 7 7 7 6 6 6 7 7 7 7 6 6 6 7 7 7 7 7 7 6 7 6 7 7 6 6 7 7 7 6 5 8 7 6 7 7 7 7 7 8 8 7 7 7 7 7 8 8 36 49 6 7 6 6 6 6 6 6 4 5 5 5 5 5 5 5 4 4 4 3 3 4 3 7
7 6 7 7 7 7 6 7 7 6 6 7 6 7 7 7 7 7 6 7 7 7 7 6 7 7 7 7 7 7 7 7 7 7 7 26 36 8 8 8 8 7 7 7 7 7 7 7 6 7 6 7 6 5 60 83 5 7 6 6 6 6 6 6 6 5 5 6 4 4 4 4 5 5 5 5 4 4 4 7
7 7 7 7 7 7 7 7 7 7 7 7 7 7 7 7 7 7 7 7 7 7 7 6 7 7 7 7 7 6 6 7 7 7 4 67 114 7 7 7 7 6 6 7 6 6 6 7 6 6 6 6 6 8 7 6 8 6 6 6 6 6 6 5 5 5 5 6 5 5 6 6 6 5 5 4 4 5 3 7
8 8 8 8 7 7 8 8 8 7 8 8 8 8 8 8 7 8 8 8 8 8 8 8 8 8 8 8 8 8 8 8 8 9 9 14 15 10 9 8 8 8 8 8 8 8 8 8 8 8 8 8 8 9 8 8 8 8 8 8 7 8 7 7 7 7 7 7 7 6 7 7 5 7 7 6 6 6 5 9
8 8 8 8 8 8 8 8 8 7 7 7 8 8 8 8 8 8 8 8 8 8 8 8 8 8 8 8 8 8 8 9 8 8 9 8 8 9 8 8 9 8 8 8 8 8 8 9 9 8 8 8 9 8 8 7 8 8 8 8 7 8 8 8 7 8 8 7 7 7 7 6 6 7 7 6 7 7 6 9
8 7 8 7 8 8 7 7 7 8 7 8 7 8 8 7 8 8 8 8 8 8 8 8 8 8 8 8 8 8 8 8 8 8 8 8 8 8 8 8 8 8 8 8 8 8 8 8 8 8 8 8 8 8 8 8 7 8 8 8 7 8 8 7 7 7 7 7 8 7 7 6 7 7 7 6 6 6 6 8
7 7 7 7 7 7 7 7 7 7 7 7 6 7 7 7 7 7 7 7 7 7 7 7 7 7 7 6 6 7 7 7 7 6 7 7 7 7 7 7 6 7 7 7 6 7 7 6 6 6 6 6 6 6 6 6 6 6 6 6 6 6 6 5 6 5 5 6 6 5 5 6 5 5 5 4 5 5 4 7
7 6 6 7 7 7 6 7 7 6 7 6 7 6 7 7 6 7 6 7 7 7 6 7 7 7 7 7 7 7 6 7 7 6 7 6 6 7 7 6 6 6 6 6 5 6 6 6 6 6 6 5 6 6 6 6 6 7 7 5 5 5 6 6 5 5 6 5 5 6 5 6 4 5 4 4 4 4 3 7
7 7 6 7 7 7 7 7 7 6 7 6 6 6 7 7 6 6 7 7 6 6 6 7 7 7 7 6 7 7 6 7 7 7 7 6 6 6 7 6 6 6 6 6 6 6 6 6 6 6 7 6 6 6 5 6 6 6 6 6 6 5 6 5 6 5 5 5 6 5 5 6 5 4 3 4 4 4 3 7
7 7 7 7 7 7 7 7 7 7 7 7 7 7 7 7 7 7 7 7 7 7 7 7 7 6 7 7 7 7 7 7 7 7 7 7 6 7 6 6 6 7 7 7 7 6 5 6 6 6 7 7 6 6 6 6 7 7 6 6 6 6 7 6 6 6 6 6 6 6 5 5 5 5 4 5 4 4 3 7
8 8 8 8 8 8 8 7 7 7 8 7 7 8 8 7 8 8 8 8 8 8 7 8 8 8 8 8 8 8 8 8 8 8 8 8 8 8 8 8 8 8 8 8 8 8 8 8 8 8 8 7 8 7 7 8 8 7 8 8 8 8 8 7 7 7 7 7 7 7 7 6 7 7 7 6 6 7 6 8
8 8 8 8 8 7 8 8 7 7 8 7 8 8 7 7 8 8 8 8 8 8 8 8 8 8 8 8 8 8 8 8 8 8 8 8 8 9 8 8 8 8 8 8 8 8 8 8 7 8 8 8 7 8 8 8 8 8 8 8 8 8 8 7 8 7 7 7 7 7 7 7 8 7 7 6 7 7 6 9
8 7 8 7 7 7 7 7 6 7 7 7 7 7 8 7 8 8 7 7 8 8 8 8 8 8 7 7 8 8 8 8 8 8 8 7 8 8 7 8 8 8 8 8 8 8 7 7 7 7 7 7 7 8 7 7 7 8 7 7 7 7 8 6 7 6 6 7 6 7 6 6 6 6 6 5 5 6 5 8
8 7 6 6 6 7 7 7 6 6 6 7 6 7 7 6 7 7 7 7 7 7 7 7 7 7 7 7 6 6 7 7 7 7 7 6 6 7 7 6 7 7 7 7 6 7 7 5 6 6 6 6 5 6 6 6 6 7 6 6 6 6 6 6 6 5 5 6 6 5 5 5 4 3 5 3 4 3 4 7
7 6 6 6 6 7 6 7 7 7 6 5 6 7 7 6 7 6 6 7 7 6 6 6 6 7 7 7 7 6 6 6 6 7 7 6 6 7 7 6 6 7 6 6 6 6 6 5 6 6 6 5 6 6 5 6 6 6 6 5 5 6 5 5 6 6 6 5 5 5 4 5 5 4 4 3 4 4 5 7
6 6 6 7 6 6 6 7 6 7 7 6 6 6 5 6 7 5 5 6 7 6 7 6 6 6 6 6 7 7 6 6 6 7 6 6 5 7 5 5 6 6 6 6 6 5 5 5 5 6 5 6 5 5 5 4 5 5 6 6 4 4 4 4 6 5 4 5 3 5 4 4 4 4 3 3 3 3 2 6
7 6 7 7 7 7 7 8 7 7 7 8 7 7 7 7 7 8 7 7 7 7 7 7 7 7 7 7 8 8 7 7 7 8 8 7 7 7 7 8 7 8 7 7 7 7 6 7 7 6 7 7 7 6 6 6 6 6 7 7 6 6 6 7 7 6 5 6 6 6 6 5 6 6 5 5 5 5 5 8
8 7 7 7 7 7 8 8 7 7 7 7 7 8 8 8 8 8 8 8 8 8 8 8 8 8 8 8 8 8 8 8 8 8 8 8 8 8 8 8 8 8 8 8 8 8 8 8 8 8 8 8 8 8 7 8 8 8 8 8 7 8 7 7 7 7 7 7 7 7 7 7 7 7 6 7 6 7 7 8
8 7 7 7 8 7 7 8 8 7 8 7 7 7 8 7 7 8 8 8 8 8 8 8 8 8 8 8 8 8 8 8 8 8 8 8 8 8 8 8 8 8 8 7 8 8 8 8 8 8 7 8 7 8 8 7 8 8 7 8 8 8 8 7 7 7 7 7 7 7 7 7 7 7 7 6 6 6 5 8
7 7 7 7 7 6 7 7 7 7 7 7 7 6 7 6 7 7 7 7 8 7 7 7 7 7 8 6 7 8 7 7 7 8 7 7 8 7 7 7 7 7 6 7 7 7 7 7 6 7 7 6 6 7 7 6 6 7 6 6 6 6 7 7 7 7 6 6 6 6 6 5 5 6 6 4 5 5 4 8
7 6 7 7 6 7 7 7 7 7 6 6 6 6 7 7 6 6 6 7 7 7 7 6 6 7 7 5 7 7 7 7 7 7 6 6 6 7 7 5 5 6 6 6 5 6 5 5 5 5 6 5 6 4 5 6 6 6 5 6 6 6 6 6 5 5 5 6 5 5 4 5 4 4 5 5 5 3 2 8
7 7 7 6 7 7 6 7 7 6 7 7 6 6 6 7 7 6 6 6 7 7 7 7 6 7 6 6 6 5 6 7 7 6 6 6 7 7 7 6 6 6 6 7 6 6 5 6 5 5 6 6 6 6 6 6 6 6 6 6 5 5 5 5 5 5 6 6 6 4 4 6 6 4 4 5 5 4 4 7
7 6 5 6 7 7 6 6 6 6 7 7 7 7 6 6 7 6 5 6 7 7 6 7 7 6 6 6 6 7 7 6 7 6 6 5 6 6 7 5 6 6 6 6 6 6 6 7 6 5 6 5 7 5 6 5 5 5 6 5 5 5 6 5 4 5 4 5 6 5 4 5 5 4 4 4 4 4 4 6
8 7 6 7 7 7 7 7 7 7 7 7 7 7 7 7 7 7 7 7 7 7 7 7 7 7 8 7 8 7 7 8 8 8 7 7 7 7 7 7 7 6 7 6 7 8 7 7 7 6 6 6 7 7 6 6 6 6 7 7 6 6 7 6 6 5 6 6 6 6 6 6 6 5 6 5 5 6 4 7
8 7 7 7 7 7 7 8 8 7 6 7 8 7 7 8 7 7 7 8 8 8 8 8 8 8 8 8 7 8 8 8 8 8 8 7 7 8 7 7 8 8 7 7 7 8 8 8 7 7 7 7 7 7 7 7 7 6 7 7 7 7 7 7 7 7 7 6 7 6 7 7 6 6 6 5 6 6 6 8
8 7 7 8 7 7 8 8 7 8 7 7 8 7 8 7 7 7 7 8 7 8 8 8 8 8 8 8 7 7 7 8 8 8 8 8 7 7 8 7 7 7 7 8 7 7 7 7 7 7 7 7 7 7 7 7 7 7 7 8 8 7 7 7 7 7 7 7 7 7 7 6 6 6 6 7 6 6 5 8
7 7 7 7 7 7 7 7 6 7 7 7 7 7 7 7 6 6 6 7 6 7 7 7 7 7 6 6 6 7 7 7 7 7 7 7 6 7 7 6 6 6 6 7 6 6 6 6 6 6 6 6 6 6 6 7 6 6 6 6 6 5 6 5 7 6 6 5 5 6 5 6 5 4 4 5 4 4 3 7
8 7 7 7 7 7 6 6 6 7 7 6 6 7 7 6 6 6 6 7 7 6 7 7 7 6 7 6 6 7 6 6 6 6 6 6 6 7 6 6 6 6 5 6 6 6 6 5 5 6 6 6 6 6 6 6 6 6 6 6 5 5 6 6 6 6 6 5 5 4 4 6 4 4 3 4 3 4 3 6
8 7 7 7 6 6 6 7 7 6 7 7 7 7 7 7 7 7 7 7 7 7 7 7 7 6 7 7 6 6 6 6 6 7 6 6 7 7 6 6 6 6 6 7 6 6 5 6 6 6 6 6 6 6 6 5 4 5 5 6 6 6 6 5 5 6 6 6 5 5 5 4 5 6 5 6 5 5 6 7
8 7 7 7 7 7 6 7 7 6 7 7 7 7 7 7 7 7 6 7 7 7 7 7 7 7 6 6 6 6 6 7 7 7 7 7 6 6 7 7 6 6 6 6 6 6 6 6 6 6 6 5 6 7 6 6 5 5 5 5 5 6 6 6 5 6 6 3 4 5 5 5 6 6 6 7 8 8 8 32
