P2
80 80
255
33 14 9 10 10 8 8 8 8 8 8 8 8 7 8 8 7 7 7 8 8 8 8 8 8 9 8 8 9 8 9 8 8 8 9 8 8 8 8 8 9 8 8 9 8 8 8 8 8 8 8 8 9 8 9 8 8 9 8 8 8 7 7 8 8 8 7 8 7 8 8 8 7 7 7 8 7 7 7 9
5 7 7 9 8 7 7 7 7 7 7 7 7 6 7 6 6 7 7 7 6 7 7 6 6 7 7 7 7 7 7 7 7 7 7 7 7 7 7 6 7 7 7 7 7 6 7 7 6 6 7 6 7 7 7 7 7 7 7 6 7 6 6 6 7 6 6 6 6 6 5 6 6 5 5 5 4 4 4 7
7 7 6 7 7 8 7 7 6 6 7 6 5 6 6 6 6 6 6 6 5 6 7 7 7 6 6 6 6 6 7 7 6 6 6 6 6 6 6 6 6 6 5 6 6 6 6 5 5 6 5 6 6 6 5 6 5 5 5 4 6 5 4 4 4 5 5 5 3 3 3 3 4 4 3 3 3 2 2 7
7 6 7 6 7 8 7 7 7 6 6 6 6 6 6 7 7 7 6 6 6 6 6 7 7 6 5 6 6 6 6 6 5 5 6 5 6 7 6 6 6 6 6 6 5 5 6 5 5 5 6 6 6 6 6 5 5 5 5 6 5 5 4 4 4 5 5 3 3 4 3 4 3 3 3 2 4 3 1 6
7 6 7 7 7 8 7 7 6 6 5 7 6 6 7 7 7 7 5 5 6 7 6 7 5 5 5 5 5 6 5 6 6 6 6 6 6 6 6 5 6 7 6 6 5 6 6 7 6 6 6 6 5 5 4 5 5 5 6 5 4 6 5 4 3 4 5 4 3 4 4 4 4 3 4 3 3 2 2 6
7 7 7 7 7 7 7 7 7 6 7 7 6 7 7 7 7 7 7 6 7 7 8 7 6 7 8 7 7 7 7 8 7 8 8 7 8 7 7 7 7 8 7 8 8 7 7 8 7 7 8 7 7 8 7 7 7 7 7 7 6 7 6 6 7 6 6 7 6 6 6 7 6 6 5 5 5 5 5 8
8 6 6 7 7 7 7 7 7 7 7 7 7 7 7 8 7 7 8 8 8 8 8 8 7 8 8 7 8 8 8 8 7 8 8 8 8 8 8 8 8 8 8 8 8 8 8 8 8 8 8 8 8 7 8 8 7 8 8 7 7 7 7 7 7 7 7 6 6 7 7 7 6 6 5 5 5 6 6 9
7 7 7 7 7 7 7 7 7 8 7 8 7 7 8 7 8 8 8 7 7 8 8 7 8 8 8 8 8 8 8 8 8 8 8 8 8 8 8 8 8 8 8 8 8 8 8 8 8 8 8 8 8 8 8 8 8 8 8 7 7 7 7 7 8 8 7 7 7 7 7 7 7 6 7 6 6 6 6 9
7 6 6 6 7 7 7 7 7 7 6 6 6 7 7 7 7 6 6 7 7 7 7 7 7 7 7 7 7 6 7 7 7 7 7 7 7 7 7 6 7 7 6 7 7 7 7 7 6 6 6 6 6 6 6 7 6 6 6 7 6 6 5 6 6 6 6 6 6 6 6 6 5 5 4 4 5 4 4 7
6 6 7 7 6 6 6 7 7 6 7 6 6 7 6 7 6 6 7 7 7 7 6 7 7 7 7 6 7 7 6 6 7 7 6 6 6 6 6 6 6 6 6 6 7 7 5 6 6 6 6 6 5 5 5 6 6 5 5 6 5 5 5 6 6 5 5 4 6 4 4 4 4 3 2 3 4 3 3 6
7 7 6 6 6 7 6 7 6 6 7 7 7 7 6 7 7 7 6 7 7 6 6 6 6 6 6 6 7 7 6 6 6 7 6 6 6 6 6 6 6 6 5 5 5 5 6 6 5 6 6 5 6 7 5 5 5 5 6 6 6 6 5 6 5 5 4 4 4 4 5 3 4 4 3 4 4 2 1 6
7 7 7 7 7 7 7 7 7 7 7 7 7 7 7 7 7 7 7 7 7 7 7 7 7 7 7 7 7 6 7 7 7 7 6 7 7 7 6 7 7 6 7 7 7 7 7 6 6 7 7 6 6 6 7 6 6 6 6 6 6 6 6 5 5 5 6 6 5 5 5 4 5 5 5 4 5 4 3 6
8 7 7 8 7 7 7 7 8 8 8 8 7 8 8 8 8 8 8 8 7 8 8 8 8 8 8 8 8 8 8 8 8 8 8 8 8 8 8 8 8 8 8 8 8 8 8 8 8 8 8 8 8 8 7 8 8 8 7 7 7 6 7 7 7 7 6 7 7 6 7 6 6 6 6 6 7 6 6 8
7 7 7 7 7 7 7 7 7 7 7 8 7 8 8 8 7 8 8 8 8 8 8 8 8 8 8 8 8 8 8 8 8 8 8 8 8 8 8 8 8 8 7 8 8 8 8 8 8 8 8 8 8 8 8 8 8 7 7 8 7 7 7 7 7 7 7 7 7 7 6 6 6 7 6 7 6 6 5 8
8 7 7 7 7 7 7 7 8 7 7 8 7 8 8 8 8 8 8 8 8 8 8 8 8 8 8 8 8 8 8 8 8 8 8 8 8 8 8 8 8 8 8 8 8 8 8 8 8 8 8 8 7 7 8 8 8 8 7 7 7 7 7 7 7 6 6 6 7 7 7 6 5 6 6 6 7 6 5 8
7 7 7 7 7 7 7 7 7 7 7 7 7 7 7 8 7 7 7 7 7 6 7 7 7 7 7 6 7 6 7 6 7 7 6 6 7 7 7 6 7 7 7 6 6 6 6 6 6 6 7 6 6 6 6 7 7 7 6 6 7 6 5 6 6 5 5 5 5 4 4 5 5 5 3 3 4 4 4 7
7 7 7 7 7 7 7 7 7 7 7 7 7 6 7 7 7 7 7 7 7 7 6 7 6 6 6 7 7 7 7 6 7 6 6 6 7 7 7 6 7 7 7 7 6 6 6 7 5 6 6 6 6 6 6 7 7 6 6 6 6 6 6 5 6 6 5 5 4 4 4 5 4 4 4 4 4 3 2 7
7 6 6 7 7 7 6 7 7 7 6 6 7 7 7 7 7 7 6 7 7 7 7 7 7 6 7 6 7 7 7 7 7 7 7 6 7 7 7 7 7 5 5 6 7 6 7 6 7 6 6 6 6 6 6 7 7 16 21 7 6 6 5 5 5 6 5 5 4 4 5 5 5 4 5 4 4 3 3 8
7 7 7 7 7 7 7 7 7 7 7 7 7 7 7 7 7 7 7 7 7 7 8 7 7 7 7 7 7 7 7 7 8 7 7 8 5 7 8 7 7 6 6 7 7 7 6 6 6 7 6 6 7 7 7 7 3 83 100 5 7 7 6 6 6 7 6 6 5 6 7 6 6 6 5 5 6 5 4 7
8 8 8 8 8 7 8 8 8 8 8 8 8 8 8 8 8 8 8 8 8 8 8 8 8 8 8 8 8 8 8 8 8 8 9 11 42 19 9 8 8 8 9 9 8 8 8 8 8 9 9 8 8 8 8 9 9 31 25 10 8 8 8 8 8 8 8 8 7 8 7 7 7 7 7 7 7 7 7 9
8 8 8 8 7 8 8 8 8 8 8 8 8 8 8 8 8 8 8 8 8 8 8 8 8 8 8 8 8 8 8 8 8 8 8 11 135 54 6 9 9 9 9 9 9 9 9 10 10 11 9 8 8 8 8 8 9 8 8 9 8 8 7 8 8 8 7 8 7 7 7 7 7 7 7 7 7 7 7 9
7 7 7 8 7 7 7 7 7 7 7 7 7 8 7 8 8 7 7 8 8 7 7 7 8 7 8 7 8 8 7 8 8 8 8 10 27 21 10 9 8 8 9 8 8 8 8 8 8 8 8 8 8 7 7 8 8 8 8 8 6 6 7 7 7 7 7 7 6 7 7 7 6 6 6 6 6 6 5 8
6 6 7 7 7 6 7 7 6 6 7 6 6 7 7 7 7 7 7 6 6 7 7 6 7 7 6 7 7 7 7 7 7 7 6 7 6 7 7 6 7 6 6 6 5 6 5 5 6 6 5 5 4 6 6 5 5 6 6 5 6 6 6 5 5 5 4 5 5 5 5 4 4 4 2 3 4 3 4 7
7 6 7 7 7 7 7 7 7 7 7 7 7 7 7 7 7 7 7 6 6 7 7 7 7 7 6 7 7 7 7 7 7 7 6 6 7 7 6 6 6 6 6 7 6 6 6 6 6 6 6 6 5 6 6 5 5 6 6 6 6 6 6 5 6 6 5 6 5 5 4 5 5 4 4 4 4 4 4 7
7 6 7 6 6 6 6 7 7 6 7 7 6 7 7 7 7 7 6 7 7 6 7 7 7 6 6 7 7 6 7 7 7 6 6 6 7 6 7 6 7 7 6 7 6 6 7 6 6 6 6 6 5 5 6 6 6 6 6 5 5 5 5 5 6 6 6 5 5 6 5 5 5 5 5 4 4 3 3 7
8 7 7 8 7 7 7 7 7 7 7 7 7 7 7 7 7 7 7 7 7 7 7 7 7 7 7 7 7 7 7 7 7 7 8 8 8 8 8 7 8 8 7 8 7 7 7 7 7 7 8 7 7 7 6 7 7 7 7 7 7 7 7 7 6 7 7 7 6 7 7 7 6 6 5 5 5 6 6 8
9 8 8 8 8 8 8 8 8 8 8 8 8 8 8 8 8 8 8 8 8 8 8 8 8 8 8 8 8 8 8 8 8 9 9 9 9 9 9 9 9 8 9 8 8 9 8 9 9 9 8 9 8 8 8 9 8 8 8 8 7 8 8 8 8 8 8 7 8 7 7 7 7 7 7 6 7 7 7 9
9 8 8 8 8 8 8 8 8 7 8 8 8 8 8 8 8 8 8 8 8 8 8 8 8 8 8 8 8 8 9 8 9 9 9 9 9 9 9 9 9 8 9 8 9 8 8 8 8 9 8 9 8 9 8 9 9 8 8 8 8 8 8 8 8 8 8 7 7 7 7 7 7 7 7 6 7 7 7 9
8 7 8 7 7 8 7 7 7 8 7 8 7 7 7 7 7 7 7 8 7 7 7 7 8 7 7 8 7 8 7 8 7 7 8 8 7 8 8 7 8 8 8 7 7 7 7 7 8 7 7 7 7 7 7 7 7 7 8 7 7 6 7 7 7 7 6 6 6 7 6 6 6 6 6 5 6 5 5 8
7 7 7 7 7 7 7 7 7 7 6 7 7 7 7 7 7 7 7 7 7 7 7 7 6 6 7 7 6 6 6 6 6 7 7 7 7 7 7 6 7 7 7 7 6 7 6 6 7 7 7 6 6 7 6 6 6 7 6 6 6 6 6 6 6 6 5 4 6 6 5 6 4 4 5 4 5 4 5 6
7 7 7 7 7 7 7 7 7 7 7 7 7 6 7 7 7 7 7 7 7 7 7 8 6 7 7 6 7 7 6 7 7 7 7 7 7 7 7 6 7 6 7 6 7 7 6 6 6 6 7 7 7 6 6 6 6 6 6 6 6 6 6 5 6 6 6 6 6 6 6 6 5 4 4 4 4 5 5 7
7 6 7 7 7 7 7 7 7 7 7 6 7 7 6 7 7 7 7 7 7 7 7 7 6 6 7 7 7 6 6 6 6 6 7 7 7 7 7 7 7 7 7 6 6 7 7 6 6 6 6 5 6 6 6 6 7 6 6 6 6 6 5 6 6 6 6 6 5 6 5 4 5 4 3 3 3 5 4 7
8 8 8 8 7 8 7 8 8 8 8 7 7 8 8 8 8 8 8 8 8 8 8 8 8 8 8 7 7 8 8 8 8 8 8 8 8 9 9 9 8 8 8 8 8 8 8 8 9 9 9 8 8 8 8 8 8 9 8 8 8 8 8 8 7 8 8 7 7 7 7 7 7 7 6 7 7 6 6 9
9 8 8 8 8 8 8 8 8 8 8 8 8 8 8 8 8 8 8 8 8 8 8 8 8 9 8 8 8 8 8 9 9 9 9 9 9 9 9 9 9 9 9 9 9 9 9 9 9 9 9 9 9 9 8 9 9 9 8 8 9 8 8 8 8 8 8 8 8 8 8 8 8 7 7 8 7 7 7 9
9 8 8 8 8 8 8 8 8 7 8 8 8 8 8 8 8 8 8 8 8 8 8 9 9 8 8 8 8 8 8 8 9 9 8 9 9 9 9 9 9 9 9 9 9 9 9 9 9 9 9 9 9 9 8 8 9 9 8 8 9 8 8 8 8 8 8 8 8 8 7 8 8 7 7 7 7 7 7 9
8 7 7 7 7 7 7 7 7 7 7 7 7 7 7 7 7 7 7 7 6 6 7 7 8 7 7 7 7 7 7 7 7 7 7 7 7 7 7 7 7 7 7 7 7 7 7 7 8 7 6 6 6 7 7 7 7 7 7 6 7 6 6 6 6 6 5 5 6 6 5 6 6 6 5 5 5 5 5 8
8 6 6 7 7 6 7 7 7 7 7 7 6 6 7 7 7 7 7 6 6 6 6 7 6 6 7 7 7 7 6 6 6 6 6 6 7 7 7 7 7 6 6 6 6 6 6 6 7 6 5 6 6 7 6 6 7 7 7 6 6 6 5 5 4 5 5 5 5 5 4 4 5 4 3 3 4 4 3 7
7 7 7 7 7 6 7 7 7 7 6 7 7 7 7 7 7 7 7 7 7 7 7 7 7 7 7 6 6 6 7 7 7 6 6 7 7 7 7 7 7 7 6 6 6 6 7 7 6 6 6 6 7 6 6 6 6 6 7 7 6 6 6 6 6 6 5 5 5 5 5 5 5 5 4 4 4 3 3 7
6 6 7 7 6 7 7 7 7 7 7 7 7 7 6 7 7 7 7 7 7 7 6 7 7 7 7 6 6 7 6 7 7 7 7 7 7 6 7 7 7 6 7 7 6 7 7 6 6 7 7 6 7 6 6 7 7 8 8 6 8 7 6 6 6 6 5 5 5 6 6 5 4 4 4 3 4 3 3 7
9 8 8 8 8 8 8 8 8 8 8 8 8 8 8 8 8 8 8 8 8 9 8 8 8 8 8 8 8 8 8 8 9 8 8 9 13 30 17 12 11 9 10 9 9 9 10 9 10 10 9 9 9 9 8 9 9 10 53 118 14 8 8 8 8 8 8 8 7 8 7 8 7 7 7 6 6 6 6 9
9 8 8 8 8 7 8 8 8 8 8 8 8 8 8 8 8 8 9 8 9 9 8 9 9 9 9 9 9 8 8 9 9 9 9 8 24 150 41 7 10 9 9 9 9 9 9 9 9 9 9 9 9 9 9 9 9 12 43 87 13 8 8 8 8 8 8 8 7 8 7 7 7 7 6 7 7 6 7 9
9 8 8 8 8 8 8 8 8 8 8 8 8 8 8 8 8 8 9 8 8 8 8 8 8 8 8 8 7 8 8 8 8 9 9 9 15 34 16 9 8 8 8 9 9 9 8 9 9 8 9 8 8 9 8 8 8 9 9 6 9 8 8 8 7 8 8 6 7 7 7 7 7 7 6 7 7 6 6 9
8 7 6 7 6 7 7 6 7 7 6 7 7 7 7 7 6 5 7 7 7 6 7 6 7 7 7 6 7 7 6 7 6 7 7 7 8 6 8 7 7 6 7 7 7 7 6 6 7 7 6 6 6 7 7 6 7 7 7 7 7 7 6 6 6 5 4 5 6 6 5 5 5 4 4 4 5 5 4 7
8 7 7 7 7 7 7 7 7 7 7 7 7 6 7 7 7 7 7 7 7 7 6 6 7 7 7 7 6 7 6 7 6 7 7 7 7 7 7 7 7 7 7 6 6 6 6 7 7 7 6 6 6 7 6 6 6 6 7 6 6 7 5 6 6 5 5 5 5 5 5 5 6 5 3 4 4 4 3 6
8 7 7 7 7 7 6 6 7 7 6 7 6 6 7 7 6 7 7 7 6 6 7 7 7 7 7 7 7 6 6 7 7 7 6 6 6 6 6 6 6 7 7 6 5 7 6 6 6 6 7 5 7 6 6 6 5 5 7 6 6 6 5 5 5 6 5 5 6 5 5 5 5 5 4 4 4 5 3 7
9 7 7 7 7 7 7 6 7 7 8 7 7 7 7 7 7 7 7 7 7 7 7 7 8 7 7 7 7 7 7 7 7 7 7 7 8 7 7 8 7 7 7 7 7 8 7 7 6 7 7 7 7 7 7 7 7 7 7 6 6 6 6 6 6 6 6 6 6 6 7 6 6 6 5 5 6 5 4 7
9 8 8 8 8 8 8 8 8 8 8 8 8 8 8 8 8 8 8 8 8 8 8 9 8 8 8 8 8 8 8 9 9 8 9 9 9 9 9 9 9 9 9 9 9 9 9 9 9 9 9 9 9 9 8 8 8 9 8 8 8 8 8 8 7 8 8 8 8 8 7 8 7 7 7 7 7 7 7 8
8 8 8 8 8 8 8 8 8 8 8 8 8 8 8 8 8 8 8 8 8 8 8 8 8 8 9 8 8 8 8 8 8 8 9 9 9 9 9 9 9 9 9 9 9 8 9 9 9 9 9 9 9 9 8 8 8 9 9 8 8 7 8 8 8 7 8 7 7 8 8 8 8 7 7 6 7 7 7 9
7 7 8 8 8 7 8 8 7 7 7 7 7 8 7 8 8 7 8 7 7 8 8 7 8 8 8 8 7 7 7 7 7 8 8 8 8 8 8 8 8 8 8 8 8 7 8 8 7 8 7 7 8 8 7 7 8 8 7 8 7 7 7 7 7 7 6 6 7 6 6 7 7 6 6 6 6 6 5 8
7 5 7 7 6 6 7 7 7 7 7 6 6 7 6 6 7 6 7 6 6 7 7 7 7 6 7 7 6 6 6 6 7 7 7 7 6 7 7 6 6 6 6 7 6 6 5 6 6 7 6 6 6 6 6 5 6 6 6 5 6 4 6 5 5 5 5 5 4 3 3 5 5 4 4 3 4 4 3 7
7 6 7 7 6 7 6 7 7 7 7 7 7 6 7 6 7 7 7 6 7 6 7 7 7 6 6 7 7 7 6 6 7 7 7 6 7 6 7 7 6 7 6 7 7 7 7 6 5 6 6 6 7 6 5 6 6 7 6 5 6 5 6 5 6 7 6 6 6 6 4 4 5 5 5 4 4 3 3 6
7 6 7 7 7 7 6 7 6 6 6 6 7 7 6 7 7 7 7 6 7 6 7 7 7 7 7 7 6 6 6 6 6 6 7 6 6 7 6 5 7 7 6 6 7 6 6 6 6 6 6 6 6 6 5 4 6 5 5 6 6 5 6 6 6 6 5 6 5 5 4 4 4 4 3 4 3 3 3 7
8 6 7 7 7 8 7 7 7 7 7 8 8 7 7 7 7 7 8 7 7 7 7 7 8 7 7 7 7 7 7 8 8 7 8 8 8 8 7 7 8 8 8 8 8 8 7 8 7 8 7 7 8 8 8 7 7 7 7 7 7 7 7 6 7 7 6 7 6 6 6 6 6 7 6 6 6 6 4 8
8 7 7 8 8 7 7 8 7 8 8 8 8 8 8 8 8 8 8 8 8 8 8 8 8 8 8 8 8 9 8 8 9 9 9 9 8 9 9 9 9 9 9 9 9 9 9 9 9 9 8 9 8 8 9 8 8 8 8 8 8 8 7 8 7 8 8 7 8 8 8 7 7 7 7 7 6 7 7 9
8 7 7 7 7 8 8 8 8 8 7 8 8 7 8 8 7 8 8 8 8 8 8 8 8 8 8 8 8 8 8 8 9 9 9 9 9 8 9 8 8 9 8 9 9 9 9 9 9 8 8 9 9 8 8 8 8 8 9 8 8 8 8 7 8 7 8 7 7 7 8 8 7 7 7 7 7 7 7 9
7 7 7 7 7 7 7 7 7 7 7 7 7 7 7 8 7 7 7 7 7 7 7 7 8 7 7 6 7 7 8 7 8 7 7 8 8 7 8 7 7 7 7 8 7 7 7 7 7 7 8 7 8 7 6 7 6 7 7 6 7 7 7 6 7 6 5 6 6 6 6 5 5 5 6 5 6 6 5 8
7 6 6 6 7 7 7 7 7 7 7 6 6 7 6 7 6 6 7 7 7 7 6 6 7 6 6 6 6 6 6 6 6 6 6 6 6 6 6 7 6 6 6 6 5 6 6 6 6 6 6 5 6 6 5 6 5 5 4 5 5 4 5 4 5 5 4 5 5 6 5 4 4 5 5 4 4 3 3 7
8 6 6 6 7 7 6 7 6 6 7 7 7 6 6 7 6 7 7 7 6 6 6 7 7 7 7 7 6 7 6 6 7 6 6 6 6 7 6 6 6 6 6 6 6 6 7 7 6 7 6 6 6 6 6 6 6 6 6 6 6 5 5 5 6 6 5 5 6 5 5 4 4 5 5 4 4 3 3 7
8 7 6 7 7 7 7 7 6 6 7 7 6 7 6 6 7 6 6 6 7 7 7 7 7 7 7 6 7 6 6 7 5 7 7 6 6 6 6 6 7 6 6 6 7 6 5 6 6 6 6 6 5 6 6 5 6 6 6 6 6 5 5 5 5 5 4 5 5 5 4 4 4 4 4 3 4 4 3 7
11 8 8 7 7 7 7 7 7 7 7 7 8 7 7 7 7 7 8 7 7 8 7 8 8 7 7 8 7 7 8 8 8 8 8 8 8 8 8 8 8 7 8 8 8 8 8 7 7 7 8 8 7 8 7 7 8 7 7 7 7 7 7 7 7 7 7 7 6 7 7 7 7 6 6 6 7 5 6 7
11 8 7 7 7 8 7 8 7 8 7 7 7 7 7 7 7 7 8 8 8 8 7 8 8 8 8 8 7 7 8 8 8 9 8 8 8 8 8 8 8 8 8 8 8 8 8 8 8 8 8 8 8 8 7 7 8 7 8 7 7 7 8 7 8 7 7 7 8 8 7 7 6 7 6 6 6 7 7 9
10 7 7 7 8 8 7 8 7 7 7 8 8 8 7 7 8 8 8 8 8 8 8 8 8 8 8 8 8 8 8 8 8 8 8 8 8 8 8 8 8 8 8 8 8 8 8 8 8 8 8 8 7 8 8 7 7 7 7 7 7 7 7 8 8 7 7 7 7 7 7 7 7 6 6 7 6 7 6 9
9 7 7 7 7 7 6 7 7 6 7 7 7 7 7 6 7 7 7 7 7 7 7 7 7 7 6 7 7 6 7 6 6 7 7 7 7 6 7 6 7 7 6 5 5 7 5 5 5 6 6 5 5 6 5 5 6 5 5 6 5 5 7 6 6 6 6 6 5 6 5 5 5 4 4 5 5 5 4 8
9 7 7 7 7 7 6 7 7 6 7 6 7 7 6 7 7 7 6 6 7 7 6 7 6 6 6 7 6 7 6 6 6 6 6 6 6 6 6 5 6 6 6 6 6 6 6 5 6 6 6 5 6 5 6 6 6 5 5 6 5 5 6 5 6 5 5 5 6 6 4 5 4 3 4 4 3 4 4 7
8 7 6 7 6 6 7 7 6 5 7 7 6 7 7 7 6 7 6 7 7 6 7 7 6 6 6 6 6 7 7 6 7 6 7 6 7 6 7 5 6 6 5 6 6 6 5 5 6 5 6 5 6 6 5 6 5 6 5 5 6 6 5 5 5 6 4 5 5 6 5 4 4 5 3 4 4 4 5 7
9 7 6 7 6 6 7 7 7 6 7 7 7 7 7 7 6 6 6 7 7 7 7 7 7 6 7 6 6 7 7 7 6 7 7 6 7 7 6 6 6 6 6 6 6 6 6 6 7 6 6 6 5 5 6 6 5 5 5 5 5 4 5 5 5 5 5 5 4 5 5 5 4 4 4 3 4 4 4 7
9 8 8 7 7 7 8 7 7 7 7 8 7 8 7 7 8 8 7 8 7 8 8 7 7 8 7 7 7 7 8 8 7 8 7 7 8 8 7 8 8 8 8 7 8 8 8 8 8 8 7 7 7 7 8 7 7 7 7 7 7 7 7 7 7 7 7 7 7 7 7 6 6 6 6 6 6 6 6 8
9 8 7 7 7 7 8 7 7 7 8 8 8 8 7 8 7 7 7 8 8 8 8 8 8 8 8 7 7 7 8 8 8 8 8 8 8 8 8 8 7 8 8 8 8 8 8 7 7 7 7 7 8 8 7 7 7 7 7 7 7 7 7 7 7 7 7 8 7 7 7 7 6 6 6 7 6 7 7 8
9 9 8 8 7 7 7 7 7 7 8 7 7 7 7 7 7 7 7 7 7 8 7 7 8 8 7 7 7 8 8 8 7 8 8 8 7 7 7 7 7 7 7 7 7 7 7 8 7 7 7 7 7 7 6 7 7 7 6 7 7 7 6 6 7 7 6 6 6 7 7 7 6 5 6 7 6 6 5 9
9 8 7 7 7 7 7 7 7 6 6 6 6 6 6 7 7 6 7 6 7 7 7 7 7 6 7 7 7 6 6 6 6 6 6 6 7 6 6 5 6 5 6 5 5 6 6 5 6 6 6 5 6 6 6 6 5 5 5 5 6 6 6 5 5 6 5 5 5 5 4 4 5 4 4 3 4 3 2 7
8 8 7 7 6 7 6 7 7 6 6 6 7 7 6 7 7 6 6 7 7 7 7 7 7 7 7 7 6 6 5 6 7 6 6 5 6 7 6 6 6 6 6 7 6 6 5 5 5 6 6 6 5 5 5 5 5 6 6 6 5 5 5 5 5 5 5 5 5 4 4 3 4 4 4 3 3 3 3 6
8 7 7 7 6 6 7 7 7 6 6 7 7 6 6 6 6 6 6 7 7 7 6 6 7 7 6 6 5 6 7 6 7 7 6 6 6 7 6 6 6 6 6 6 6 6 6 6 6 6 6 5 6 6 6 6 5 5 5 6 5 5 5 4 5 5 5 4 4 5 4 5 5 4 4 4 4 4 3 7
8 7 7 7 7 7 6 7 7 6 7 7 7 6 7 7 6 7 7 7 7 7 6 6 7 7 6 6 7 6 7 7 7 7 6 7 6 6 6 6 7 7 6 7 7 7 6 7 7 6 6 6 6 6 6 6 5 6 6 5 6 5 6 5 4 5 6 5 5 5 5 5 5 5 5 5 5 4 3 7
8 8 9 8 7 7 7 7 7 7 7 7 7 7 7 7 7 7 7 7 7 7 7 7 7 7 7 7 7 7 7 8 7 8 7 7 7 7 8 7 7 7 7 7 7 7 7 8 7 7 7 7 7 6 7 7 7 6 7 6 7 6 7 7 6 6 6 7 7 6 7 6 6 5 5 5 6 5 5 8
9 9 9 8 7 7 7 7 7 7 7 7 7 7 7 7 8 8 8 7 7 7 7 8 7 8 7 8 7 7 7 8 8 8 8 7 7 7 7 7 7 7 7 7 7 7 7 8 7 7 7 7 7 7 7 7 7 7 7 6 7 6 7 7 7 7 6 7 7 6 7 7 6 6 6 6 6 6 5 8
9 8 8 8 7 7 7 7 7 7 7 7 7 7 8 7 7 7 7 7 7 8 7 6 7 6 6 7 6 7 7 7 7 7 7 7 7 7 7 7 7 7 7 6 6 7 7 7 6 7 7 6 6 7 7 7 7 6 7 6 6 6 7 6 6 6 6 7 6 5 6 6 5 6 5 5 5 4 4 7
7 7 7 5 6 7 7 7 6 6 6 7 6 7 7 7 7 7 7 7 7 6 6 6 7 7 7 6 7 7 7 7 7 6 6 6 7 6 5 6 7 6 6 5 6 6 6 6 6 6 6 5 5 6 6 6 6 6 5 5 6 5 5 3 5 6 4 4 4 4 4 5 4 3 3 4 3 3 2 6
8 7 6 6 7 6 5 7 7 6 6 7 6 6 7 7 7 6 5 7 6 6 7 7 6 6 6 6 6 5 5 6 5 6 6 6 6 6 6 5 6 5 5 5 6 6 6 5 5 5 5 5 4 5 4 5 5 5 5 4 4 4 3 5 4 5 5 4 4 5 4 4 4 4 3 2 2 2 2 5
7 7 7 7 6 5 6 6 6 7 7 7 7 6 7 6 7 6 7 7 7 7 7 7 6 6 6 7 6 6 5 5 6 6 6 6 6 6 6 6 6 5 5 6 6 6 6 6 5 4 6 5 5 4 4 5 4 5 5 4 3 4 4 4 5 5 5 5 4 4 4 4 4 3 4 5 4 3 2 4
7 7 7 7 7 6 6 7 7 6 7 6 7 7 7 7 7 7 7 8 7 7 7 6 7 7 7 7 6 7 6 6 7 7 7 6 7 7 7 7 7 7 6 7 7 6 7 7 6 6 7 7 6 6 5 6 6 7 6 6 6 6 7 6 6 7 5 5 6 6 4 6 6 5 5 5 4 4 3 29
