P2
80 80
255
33 14 8 8 8 8 9 8 8 8 8 7 8 7 7 8 8 8 8 8 8 8 8 8 8 8 8 10 11 8 8 8 8 8 8 8 8 8 8 8 8 7 8 8 8 8 8 8 8 8 8 8 8 8 8 8 8 8 8 7 8 7 8 8 8 8 7 6 7 7 7 7 7 5 6 7 6 5 5 8
8 9 8 7 7 7 8 7 7 7 7 7 7 7 6 7 7 7 7 8 7 7 7 7 7 7 7 7 8 8 7 8 7 7 7 8 8 8 8 7 7 8 8 7 8 8 8 8 7 8 8 7 8 8 8 8 7 8 7 7 7 7 7 7 7 7 7 6 6 7 6 6 7 6 6 7 6 5 5 8
10 10 8 7 7 7 8 7 6 7 7 7 7 7 7 7 7 7 7 7 7 7 7 7 7 7 8 7 7 7 7 8 7 8 7 8 8 8 7 7 7 8 7 8 8 8 8 8 7 8 7 7 8 8 8 7 7 7 7 7 7 7 7 7 7 7 6 7 6 7 6 5 6 6 6 5 5 5 4 8
8 8 7 7 6 7 7 7 7 6 6 5 5 7 7 7 7 6 6 6 6 6 7 6 6 7 6 6 6 7 6 7 6 6 6 5 7 7 6 5 7 7 6 6 6 6 7 6 5 6 6 6 5 6 5 5 5 6 6 5 5 6 5 5 5 6 5 6 5 5 5 5 3 4 4 3 4 3 2 6
7 7 8 8 6 7 7 7 7 6 6 6 6 7 6 6 7 7 6 7 6 6 6 6 6 7 6 6 6 6 6 6 5 6 6 6 6 6 5 5 5 5 6 6 6 6 7 6 5 6 6 4 4 5 5 5 5 5 6 5 4 5 5 5 4 4 4 5 4 4 5 4 3 4 3 3 3 4 3 6
7 6 7 8 7 6 7 6 6 6 7 7 6 6 6 7 6 6 6 6 6 7 6 6 7 6 6 6 6 6 6 7 6 6 6 6 6 6 5 6 6 6 5 6 6 6 5 5 6 6 6 4 6 6 5 6 5 5 5 6 5 5 5 4 4 4 5 5 5 5 5 4 4 3 3 3 4 3 3 7
7 6 8 8 7 7 7 6 6 7 7 7 7 7 7 6 6 6 6 6 6 6 7 7 7 7 6 6 6 7 6 6 6 7 6 7 7 7 7 7 6 6 6 6 6 6 6 7 7 6 6 6 6 5 6 5 5 6 7 6 6 5 5 6 5 5 5 5 4 4 5 5 4 4 4 4 5 5 4 7
8 7 8 8 7 7 7 7 7 7 7 7 7 7 7 7 7 7 7 7 8 7 8 8 8 8 8 7 8 8 7 8 8 8 8 8 8 8 8 8 8 8 8 8 8 8 8 8 8 8 8 7 8 7 7 8 7 8 7 7 7 7 7 7 7 7 7 7 7 7 7 7 7 7 7 7 6 7 6 9
8 7 7 7 8 7 7 7 7 7 7 7 7 7 7 8 8 8 8 8 8 7 8 8 7 8 8 8 8 8 8 8 8 8 8 8 8 8 8 8 8 8 8 8 8 8 8 7 8 7 8 8 8 8 7 8 7 7 7 8 7 7 7 8 8 7 7 7 7 7 7 7 6 7 6 6 6 7 6 9
8 7 7 7 7 7 7 7 7 7 7 6 7 7 7 8 7 7 7 8 8 7 7 8 8 8 7 7 7 8 8 8 8 8 8 8 8 8 8 8 8 8 8 8 8 8 7 7 7 8 8 8 7 7 7 7 7 7 7 7 6 7 7 7 7 7 7 7 7 7 6 6 6 6 5 5 6 6 5 8
7 6 7 6 6 6 6 7 7 7 7 7 7 7 7 7 7 7 7 7 7 7 6 6 7 7 7 6 7 7 6 7 6 6 7 7 7 6 7 7 6 7 7 6 6 6 5 7 6 7 6 5 6 6 5 5 5 6 6 6 6 5 5 6 6 5 5 5 4 5 4 5 4 3 4 3 4 3 2 7
7 6 7 7 6 6 7 7 6 6 7 7 7 7 6 7 6 6 7 6 6 7 6 6 6 7 7 7 6 6 5 6 7 6 6 6 5 6 7 6 6 5 6 6 6 6 5 5 6 6 5 5 5 5 4 5 5 5 5 5 6 5 6 5 5 5 5 5 4 5 5 5 5 6 4 4 4 3 3 6
6 6 6 6 7 6 6 7 6 6 6 7 7 7 7 7 7 6 7 6 6 6 6 6 7 6 7 6 5 7 6 7 6 6 7 6 6 6 5 5 6 4 5 6 5 6 5 5 6 6 5 4 5 5 5 4 5 6 6 6 5 4 5 5 4 4 4 4 4 3 4 4 4 3 4 4 3 3 2 6
6 6 7 7 7 7 7 7 7 7 6 7 7 7 7 7 7 7 7 7 7 7 7 7 7 7 7 7 7 7 7 7 7 7 7 7 7 7 7 7 8 7 6 7 7 7 7 7 7 7 7 7 7 7 6 7 6 7 6 7 6 6 6 6 5 6 6 5 6 6 6 5 5 6 5 5 5 5 5 8
8 8 8 8 7 7 8 8 7 7 8 8 8 8 8 8 8 8 8 8 8 8 8 8 8 8 8 8 8 8 8 8 8 8 8 8 8 9 9 8 8 8 9 8 9 8 8 9 8 8 9 8 8 8 8 8 8 8 7 7 8 8 8 7 8 7 8 7 7 7 6 6 7 7 7 8 7 7 6 8
8 8 8 7 8 7 7 7 8 8 7 8 8 8 8 8 8 8 8 8 8 8 8 8 8 8 8 8 8 8 8 8 8 8 8 8 8 8 8 8 8 9 8 8 8 8 9 8 8 8 8 8 8 8 8 8 8 8 7 7 8 8 8 8 8 8 7 7 7 7 6 6 7 7 7 6 7 7 6 8
7 7 7 7 7 7 7 7 7 7 7 7 7 7 7 7 8 8 7 8 7 7 7 7 7 7 8 8 7 7 7 8 7 8 7 7 7 8 7 7 7 7 7 8 7 7 8 7 7 7 8 7 8 7 7 7 7 7 8 7 7 6 7 7 6 7 6 6 5 6 6 6 6 6 6 5 5 6 6 8
7 6 7 7 7 6 6 7 7 6 7 7 7 6 6 7 7 7 6 6 7 6 6 7 7 6 7 7 6 7 7 6 7 7 6 6 7 7 6 6 6 6 6 6 5 6 6 7 6 6 6 5 5 5 6 6 5 6 5 6 6 6 6 5 6 5 5 5 4 4 4 4 5 4 4 4 3 5 3 7
7 7 7 7 7 7 7 7 7 7 7 7 7 7 7 7 7 7 6 7 7 7 7 7 7 7 7 7 7 7 7 7 6 7 7 6 6 7 7 6 6 5 6 6 6 6 5 5 5 5 5 6 6 6 6 6 6 6 5 5 6 6 6 5 6 5 5 5 4 5 5 5 5 5 4 4 4 4 3 7
7 7 7 7 7 7 7 7 7 7 7 7 7 7 7 7 7 7 6 7 6 6 6 7 7 7 7 6 6 6 7 7 6 7 7 6 7 7 7 7 5 7 6 7 5 6 6 5 6 7 7 6 5 6 6 6 6 5 5 6 6 6 6 5 6 5 5 5 6 4 4 5 4 4 4 5 5 5 3 6
8 7 7 7 7 7 7 8 8 7 8 7 7 7 7 7 8 8 8 8 7 8 7 8 8 7 8 8 7 8 8 7 8 8 8 8 8 8 7 8 8 8 7 8 7 7 8 7 8 8 8 8 7 8 7 7 8 7 7 7 7 7 7 7 7 7 6 6 6 6 6 6 5 6 6 5 5 6 5 8
8 8 8 8 7 8 8 8 8 8 8 8 7 8 8 8 8 8 8 8 8 8 8 8 8 8 8 8 8 8 8 8 8 9 9 8 8 9 9 9 8 8 9 9 9 8 8 9 8 8 8 9 9 9 8 8 8 8 8 8 8 7 7 8 7 7 7 7 7 7 7 7 7 8 7 7 6 6 7 9
8 8 8 8 8 8 8 8 8 8 8 8 8 8 8 8 8 8 8 8 8 8 8 7 8 8 8 8 8 8 8 8 8 9 8 8 9 8 9 8 8 9 9 9 9 8 9 8 8 8 8 9 8 9 15 14 9 8 8 8 8 7 8 7 8 8 7 7 7 7 7 7 7 7 7 8 7 7 7 8
8 6 7 7 7 7 7 7 7 7 7 7 7 7 7 7 7 7 7 7 6 7 7 7 7 7 7 7 7 8 7 7 8 9 23 13 8 7 7 7 7 7 6 7 7 7 7 7 7 7 7 7 7 9 124 49 5 7 7 7 6 6 6 7 6 5 6 6 5 6 6 6 5 6 5 6 6 5 5 8
8 6 7 7 6 7 7 7 7 7 7 7 7 7 7 7 7 7 7 7 6 7 7 7 7 7 7 6 7 6 6 7 7 5 114 67 3 7 7 7 6 7 6 7 7 6 7 7 6 6 6 6 7 10 44 18 7 6 7 5 6 6 6 6 6 6 6 5 5 5 6 6 5 5 4 4 4 4 3 7
7 7 7 7 7 6 7 8 6 7 7 7 7 7 6 7 7 7 7 6 7 7 7 7 7 7 7 6 7 7 6 6 7 8 27 24 7 8 6 7 7 6 6 7 7 7 7 7 7 6 6 6 7 7 4 7 7 7 6 6 6 5 5 5 5 6 6 6 4 5 5 5 5 5 3 3 4 4 4 7
7 7 7 7 7 7 7 7 6 7 8 7 6 7 7 7 6 7 7 7 7 7 7 7 7 6 6 7 7 7 7 8 7 8 6 6 7 7 7 7 7 6 7 7 6 7 6 6 7 7 7 6 6 7 6 6 7 7 7 6 6 6 7 6 6 5 6 6 5 6 6 6 5 4 5 5 5 5 4 7
8 8 8 7 7 8 8 8 7 8 8 8 7 8 8 8 8 8 8 8 8 8 8 8 8 8 8 8 8 8 8 9 9 8 9 8 9 9 8 8 8 8 8 8 8 8 8 8 8 8 8 8 8 8 8 8 8 8 8 8 8 8 8 8 8 7 7 7 7 8 7 8 7 7 7 6 7 6 6 8
8 8 8 8 8 8 7 8 8 8 8 8 8 8 8 8 8 8 8 8 7 8 8 8 8 8 8 8 8 8 8 9 9 9 9 9 9 9 9 9 9 8 9 9 9 9 9 9 9 9 8 8 8 8 9 8 8 8 9 8 8 8 8 8 9 8 8 8 8 8 8 8 7 7 8 8 7 7 6 9
8 8 8 8 8 8 8 8 8 8 8 8 8 8 8 8 8 8 8 8 8 8 8 8 8 8 8 8 9 9 9 9 9 9 9 9 9 9 9 9 9 9 9 9 9 9 9 8 8 8 8 8 8 8 8 8 8 8 8 8 8 8 8 8 8 8 8 7 7 7 8 8 7 8 7 7 7 7 6 9
8 7 7 7 7 7 7 7 7 7 7 7 7 7 7 7 7 7 7 7 7 7 7 7 7 7 7 7 7 7 7 7 7 7 6 7 7 7 7 7 7 7 7 7 6 7 7 6 7 7 7 7 7 7 6 6 7 7 6 6 6 6 7 6 6 7 7 7 6 6 5 5 5 5 5 4 5 4 4 7
8 7 7 7 7 6 7 7 7 7 7 7 7 6 7 7 7 7 7 7 7 6 7 7 7 7 6 7 7 7 6 7 6 6 6 7 7 7 7 7 7 6 6 6 7 6 6 6 7 7 6 6 6 7 7 6 6 6 6 6 6 6 6 6 6 6 6 6 5 6 5 6 5 5 5 3 4 4 4 8
7 7 7 6 6 6 7 7 7 7 7 7 6 7 7 7 7 7 6 7 7 7 7 7 7 7 6 7 7 6 7 7 7 6 6 6 7 7 7 7 7 6 6 7 7 7 6 6 6 7 7 6 6 7 6 6 6 6 7 6 6 5 6 5 6 5 6 6 5 5 6 6 5 5 4 4 5 4 3 7
8 7 7 7 7 7 7 7 7 7 7 7 7 7 7 7 8 7 7 7 7 7 7 7 6 7 7 7 7 7 7 7 7 8 7 7 7 8 8 7 7 7 7 8 8 7 7 7 7 7 7 7 8 7 6 7 7 7 7 7 7 6 7 6 7 6 7 7 5 6 6 6 6 6 5 4 5 4 5 7
9 8 8 8 8 8 8 8 8 8 8 8 9 9 8 9 8 8 9 8 9 8 9 9 8 8 8 8 9 9 8 9 9 9 9 9 9 9 9 9 9 9 9 9 9 9 9 9 9 9 9 9 9 9 9 9 9 8 8 8 9 8 8 8 8 8 8 8 8 8 8 8 8 7 7 7 7 6 7 9
9 8 8 8 8 8 8 8 8 8 8 9 8 8 8 8 8 8 8 8 8 8 8 9 9 8 8 8 9 9 9 9 8 9 9 9 9 9 9 9 9 9 9 9 9 9 9 9 9 9 9 9 9 9 9 9 8 9 9 8 9 9 8 8 8 8 8 8 8 8 8 8 8 7 7 7 7 7 7 9
9 8 8 8 8 8 8 8 8 8 8 8 8 8 8 8 8 8 8 8 8 8 8 8 8 8 8 8 8 9 8 8 8 9 9 9 9 9 9 8 9 9 9 9 8 9 8 8 8 9 9 8 8 8 8 8 9 9 8 8 8 8 8 8 8 8 8 8 8 7 8 7 7 7 7 7 8 7 7 8
8 7 7 7 6 7 7 7 7 7 7 7 7 7 7 7 7 7 7 7 7 7 7 7 7 7 7 7 7 7 7 7 7 7 6 7 7 7 7 6 6 7 7 7 6 7 7 6 6 6 6 7 7 7 6 6 6 6 6 6 6 6 5 6 7 6 6 6 6 5 6 5 3 5 4 5 4 4 4 7
8 7 7 7 7 7 7 7 6 7 7 7 6 7 7 7 7 7 8 7 6 6 7 7 7 7 7 7 7 7 7 7 6 7 6 7 7 7 7 7 7 6 6 7 6 7 7 7 6 6 7 7 7 7 7 6 6 6 6 7 7 6 6 5 6 6 6 6 6 6 5 6 5 5 4 4 5 4 4 6
7 7 7 7 7 7 7 7 6 7 7 7 7 7 6 6 6 6 7 6 7 7 6 7 7 7 7 6 6 6 6 7 7 7 7 7 7 7 7 7 7 6 6 6 7 6 6 6 6 6 7 6 7 7 7 6 6 6 6 6 6 6 5 5 5 6 6 6 6 4 4 5 5 5 3 4 4 3 3 6
8 7 8 7 7 7 7 7 7 7 8 7 7 7 7 7 8 8 8 8 8 7 7 7 8 7 8 7 7 8 7 7 7 8 8 8 8 8 8 7 8 7 8 8 8 8 8 8 7 7 8 7 8 8 8 8 8 7 7 7 7 7 7 6 6 7 7 6 6 6 7 6 6 6 5 5 6 6 5 8
9 8 8 8 8 8 8 8 8 8 8 8 8 9 8 8 8 9 8 8 8 9 9 9 9 8 8 9 8 9 9 9 8 9 9 9 9 9 9 9 9 9 9 9 9 9 9 9 9 9 9 9 9 9 8 7 8 9 9 8 9 9 8 8 8 8 8 8 8 8 7 8 8 8 7 8 7 7 6 9
9 8 8 8 8 8 8 8 8 8 8 8 8 9 8 8 9 9 8 8 8 9 8 8 9 9 9 8 8 8 9 9 9 9 10 10 11 11 11 10 10 10 10 10 10 10 11 10 10 10 10 10 10 11 12 26 23 9 8 9 9 8 8 9 8 8 8 8 8 8 8 8 7 7 7 7 7 7 7 9
8 7 7 7 8 8 8 7 8 7 7 8 7 8 8 8 7 7 7 8 7 7 8 8 8 8 8 8 8 8 8 8 8 8 12 114 49 8 10 9 9 8 9 8 8 8 8 8 9 8 8 8 8 9 8 109 94 5 8 7 7 7 7 7 7 7 6 6 6 6 6 7 6 6 6 5 6 6 5 8
7 7 6 6 6 7 7 7 7 6 6 6 6 7 7 7 7 7 6 7 7 7 7 7 7 7 6 7 7 7 7 6 7 7 10 62 29 6 7 6 7 7 7 6 6 5 6 6 6 6 6 6 6 7 8 23 22 7 7 6 6 6 6 6 6 6 6 5 6 5 4 5 6 6 5 5 5 5 4 6
7 7 7 7 7 7 7 7 7 7 7 7 7 7 7 7 7 7 7 7 7 7 7 7 6 7 7 7 7 7 7 7 7 7 8 5 7 7 7 7 7 7 7 7 7 7 7 7 7 7 6 6 6 7 7 6 7 7 7 6 6 6 5 6 6 6 6 6 6 6 5 5 5 6 6 5 4 5 4 7
8 7 6 7 7 6 7 7 7 6 7 7 6 7 7 7 7 7 7 7 6 7 7 7 6 7 7 7 6 7 7 6 6 7 7 7 7 6 7 6 6 7 6 7 6 6 6 5 6 7 5 5 6 7 6 6 6 6 6 5 6 6 5 6 5 6 6 6 6 6 5 5 6 6 5 5 4 4 4 7
8 8 7 8 7 8 7 7 7 7 8 8 8 8 7 8 8 8 7 8 7 8 8 7 7 8 8 7 8 8 8 8 9 8 8 8 8 8 8 8 8 8 8 9 8 9 8 8 8 8 8 8 8 8 7 8 8 7 8 8 8 8 7 7 7 7 7 7 7 7 7 7 7 7 7 5 6 6 6 8
8 8 8 8 7 8 8 8 8 8 8 7 8 8 8 8 8 8 8 8 8 8 8 8 9 8 8 8 8 8 8 9 9 9 9 9 9 9 9 9 9 9 9 9 9 9 9 9 9 9 9 9 9 9 8 8 8 8 8 9 8 8 8 8 8 8 8 8 8 7 8 7 7 7 7 7 7 7 7 9
8 8 8 8 8 8 8 8 8 8 8 7 7 8 8 8 8 8 8 8 8 8 8 8 8 8 8 8 8 8 9 9 9 9 9 9 9 9 9 9 9 9 9 9 9 9 9 8 8 9 9 9 9 8 8 8 8 8 8 8 8 8 8 8 8 8 8 8 7 7 7 7 7 7 7 7 7 7 7 8
8 7 7 7 7 7 7 7 7 6 7 7 7 7 7 7 7 7 7 7 7 7 7 7 7 7 7 7 7 8 7 6 8 8 7 8 7 7 8 7 7 7 8 8 7 7 7 7 6 6 7 6 7 7 7 7 7 7 7 7 6 6 6 5 6 6 6 6 5 6 6 6 5 5 5 5 5 5 5 7
7 6 6 6 7 7 7 7 7 6 7 6 6 7 7 7 7 6 7 7 6 7 7 7 7 7 7 6 6 7 7 6 7 7 7 7 6 6 7 7 6 7 7 7 6 6 6 6 6 5 6 6 6 7 6 5 5 6 6 5 5 6 6 5 5 5 5 5 5 5 5 4 5 5 3 3 4 4 3 7
7 7 7 7 7 7 7 7 6 6 7 7 7 7 7 7 7 6 6 7 7 7 7 6 6 7 6 6 7 7 7 7 7 6 6 6 6 7 6 6 7 6 5 6 5 6 6 6 7 6 6 6 6 6 6 6 6 6 7 5 6 5 5 6 5 5 5 5 5 5 5 6 5 5 4 4 3 4 5 7
7 6 7 7 7 7 6 7 7 7 7 6 7 7 7 7 7 7 7 6 7 7 7 7 7 7 6 7 7 7 6 7 7 7 7 7 7 7 7 7 7 7 7 7 7 7 6 7 6 7 6 5 6 6 7 6 6 6 6 6 6 5 6 6 6 6 6 5 4 4 4 6 5 5 4 4 4 4 4 8
8 8 8 8 7 7 7 8 7 8 8 8 7 7 8 8 8 8 8 8 8 8 8 8 8 8 8 8 8 8 8 8 8 9 8 8 8 8 8 8 9 9 9 9 8 8 8 8 8 8 8 8 8 8 8 8 8 8 8 8 8 8 8 8 7 7 7 6 7 6 7 6 7 7 7 6 6 7 6 8
8 8 8 8 8 8 8 8 8 8 7 8 8 8 8 8 8 8 8 8 8 8 8 8 8 8 8 8 8 8 8 8 9 9 9 9 8 9 9 9 9 9 9 9 9 9 9 9 9 8 9 8 8 8 8 8 8 8 8 8 8 8 8 8 8 8 8 7 7 8 8 7 7 7 7 7 7 6 6 9
8 7 8 8 8 8 8 7 7 8 7 8 7 7 7 8 8 8 8 8 8 8 8 8 8 8 8 8 8 8 8 8 8 8 9 9 8 8 8 9 9 8 8 9 9 9 9 9 8 9 8 8 9 8 8 8 8 8 8 8 8 8 7 7 8 7 7 7 7 7 7 7 6 7 7 7 7 6 6 9
8 6 6 7 6 7 6 7 7 6 7 7 7 6 7 6 7 7 7 7 7 7 7 7 7 7 6 6 6 7 6 7 7 7 7 7 7 7 7 6 7 7 7 7 6 7 7 6 6 6 6 6 6 6 7 6 6 6 6 7 6 6 5 6 5 6 6 6 5 6 6 6 4 6 5 4 4 3 3 7
8 7 7 7 7 7 6 7 7 6 7 7 6 6 7 6 6 7 7 7 7 7 7 7 6 7 7 6 6 7 6 6 6 6 6 7 6 6 6 6 6 7 6 6 5 6 7 7 6 6 6 6 6 7 7 6 6 6 6 6 6 5 5 4 5 6 5 6 5 4 5 5 5 4 3 5 4 4 3 7
7 7 7 6 7 7 6 7 7 7 7 7 6 6 6 6 7 7 7 7 7 7 6 7 6 7 7 6 6 7 6 6 7 6 6 6 6 6 7 6 7 6 6 7 6 7 7 6 6 7 5 6 6 6 6 6 6 5 5 6 6 5 5 5 6 6 4 5 5 5 5 6 5 5 4 4 3 4 5 7
7 7 7 6 6 7 6 7 7 6 7 6 6 6 6 7 7 7 7 7 6 7 7 6 6 7 7 6 6 7 7 7 7 7 6 7 7 7 7 6 7 6 7 7 6 6 6 6 6 7 7 6 6 7 7 6 6 6 6 7 6 6 6 5 6 6 5 5 5 5 4 5 4 4 5 4 4 3 3 7
8 8 8 8 8 8 8 7 7 7 7 8 7 6 7 7 8 8 8 8 8 8 8 8 8 8 8 8 8 8 8 8 8 9 8 8 8 8 8 8 9 8 8 8 8 8 8 8 8 8 8 7 8 8 8 8 8 7 8 8 8 8 8 7 8 7 7 7 7 7 7 7 7 6 7 6 6 5 5 8
8 8 8 8 8 8 7 7 7 7 8 8 7 7 7 7 7 8 7 8 8 8 8 8 8 8 7 8 8 8 8 8 8 8 8 8 8 8 8 8 8 8 8 7 8 8 8 8 8 8 8 7 8 7 8 7 7 7 8 8 7 7 8 7 8 8 7 8 7 7 7 7 6 6 7 6 6 7 7 8
8 8 8 7 7 7 7 7 6 7 7 7 7 7 7 7 7 7 8 7 7 8 7 8 7 8 8 8 8 8 8 8 8 8 7 8 8 8 8 7 8 8 8 8 7 7 7 7 8 8 7 7 7 7 7 7 7 7 7 7 7 7 7 7 7 7 7 6 6 6 6 6 6 6 6 5 6 6 6 8
7 6 6 6 6 7 7 7 7 7 7 7 7 6 6 7 7 7 7 7 7 7 7 7 6 7 7 7 7 7 7 7 7 7 6 6 6 7 7 6 6 5 6 6 7 6 5 6 6 6 5 5 6 6 6 6 5 6 6 6 5 6 6 5 6 6 4 5 5 5 5 5 4 5 5 4 4 3 3 7
7 6 6 7 7 6 7 7 7 6 7 7 7 6 6 6 6 6 6 7 7 7 7 6 6 7 7 6 7 7 7 6 6 7 6 7 6 7 6 5 5 6 6 6 6 6 5 6 6 6 6 5 6 6 5 6 6 6 6 6 6 5 5 5 4 5 6 6 5 5 4 5 4 4 4 4 3 3 3 7
7 7 7 6 6 6 7 7 7 7 6 7 6 6 7 7 6 7 6 7 7 6 6 6 6 6 7 6 6 6 7 6 5 7 6 6 6 6 7 7 5 6 6 7 5 5 5 6 6 5 5 5 6 6 6 6 5 4 5 5 5 5 6 5 6 6 5 5 5 5 4 4 5 4 3 4 3 4 3 7
7 6 6 6 7 7 7 7 7 7 7 7 7 7 7 8 7 7 7 7 7 7 7 7 7 7 7 6 7 7 7 7 7 7 7 7 7 6 7 6 7 7 7 7 7 7 6 7 7 6 7 7 6 7 6 6 7 7 7 6 6 6 6 6 6 6 5 6 6 6 6 5 6 5 5 4 5 5 4 7
8 7 7 7 8 7 7 7 7 7 7 7 8 7 8 8 8 7 7 7 8 8 8 8 7 7 7 7 8 8 8 8 8 8 8 8 8 8 8 7 8 8 8 7 8 8 8 8 8 8 8 8 7 7 7 7 8 7 7 7 8 8 8 7 7 7 7 7 6 7 7 6 7 6 7 6 7 6 6 8
8 7 7 7 7 7 7 7 7 7 7 8 8 7 7 8 7 8 8 8 8 8 8 7 7 7 8 8 7 8 7 7 8 8 8 8 8 8 8 8 8 7 8 8 8 8 8 8 7 8 7 7 7 6 6 7 7 7 7 7 7 7 7 7 7 7 7 7 7 7 6 7 7 7 6 6 6 6 6 8
8 8 7 7 7 6 7 7 7 7 7 7 7 7 7 7 7 7 7 8 7 7 7 7 7 7 7 7 7 8 7 7 7 7 6 7 7 7 7 7 7 6 6 6 6 6 7 6 6 6 6 6 6 7 6 6 6 7 7 7 7 6 6 5 6 6 6 4 5 5 6 5 6 6 5 5 6 6 4 8
8 7 7 7 6 6 7 7 7 6 6 6 7 7 6 7 7 6 7 6 6 7 6 7 7 6 5 6 6 7 7 7 6 6 6 6 6 7 7 6 5 6 5 6 5 6 6 6 6 6 5 6 6 6 5 5 6 6 5 5 5 6 6 5 4 5 6 4 5 5 4 5 5 4 4 4 4 4 3 6
8 7 7 7 7 6 7 7 7 7 6 6 7 7 7 7 7 7 6 7 7 7 7 7 7 7 7 7 7 7 7 7 7 7 6 7 6 6 6 6 6 6 6 6 7 6 6 7 6 6 6 6 6 6 6 5 5 5 6 6 6 5 5 4 5 5 5 6 6 4 5 5 5 4 4 3 4 4 4 6
7 6 6 6 6 7 7 7 7 7 7 7 7 7 7 6 6 6 6 6 7 7 6 6 7 7 6 5 6 6 7 6 6 7 6 6 6 6 6 6 6 6 6 6 6 6 6 5 5 5 5 6 5 4 6 6 5 5 6 6 6 5 5 4 4 5 5 5 5 5 5 5 4 3 4 3 4 4 3 6
8 8 8 7 6 7 7 7 7 7 7 7 7 7 7 7 7 7 7 7 7 7 7 7 7 8 7 6 6 7 7 7 8 7 7 8 8 8 7 7 8 8 6 7 7 7 7 7 6 7 6 7 6 6 7 6 6 7 7 7 7 6 6 7 6 6 6 7 6 6 7 6 6 6 6 4 6 5 5 7
9 9 8 7 7 7 8 7 8 7 7 8 8 8 8 8 7 7 7 7 8 7 7 8 8 7 7 7 8 7 7 8 8 7 8 8 8 8 8 8 7 7 7 8 8 8 8 8 7 7 7 7 7 7 7 7 7 7 7 7 7 7 7 7 8 7 7 7 7 7 7 7 7 7 6 6 7 6 6 8
9 8 8 7 7 7 7 7 6 7 7 8 8 7 7 8 8 7 7 8 7 7 7 7 7 7 7 7 7 7 7 8 8 7 7 8 8 7 7 7 7 8 7 7 8 8 7 7 7 7 7 7 7 7 7 7 7 8 7 7 7 7 7 7 7 7 7 7 7 6 6 7 7 6 6 6 6 6 5 8
8 8 7 7 7 7 7 7 6 7 7 7 6 7 7 7 7 7 6 7 7 7 6 7 7 6 8 7 7 7 7 7 7 7 7 7 7 7 7 7 6 6 6 7 7 7 6 6 6 6 7 6 6 7 6 6 6 6 6 7 7 6 6 6 6 7 6 6 5 5 5 5 5 4 4 4 4 5 5 7
8 6 6 6 6 6 6 7 7 6 7 7 6 7 7 7 7 7 7 7 7 7 6 7 7 6 6 6 7 7 6 6 6 7 6 6 6 7 7 5 6 6 6 6 6 6 6 6 5 6 6 5 4 6 6 5 5 5 5 6 6 4 5 5 5 6 6 5 5 5 4 4 3 4 4 4 3 4 3 4
9 7 7 6 7 7 6 7 7 7 7 7 7 7 6 7 7 7 7 7 7 7 7 7 7 6 6 6 6 6 6 6 7 6 7 7 7 7 7 6 7 6 6 6 6 6 6 6 5 5 5 5 6 6 6 6 5 5 6 6 6 5 3 4 6 6 5 5 6 4 4 4 5 4 4 4 4 4 3 29
