P2
80 80
255
32 13 8 8 9 10 8 7 8 7 7 8 7 7 7 7 7 7 7 7 8 7 8 8 7 8 7 7 7 8 7 7 8 7 7 7 7 7 7 6 7 7 7 8 7 7 7 7 7 7 7 7 8 7 7 7 7 7 7 6 6 7 7 6 6 6 5 5 6 6 5 6 5 5 4 5 5 5 4 8
5 6 7 7 7 7 7 7 6 6 7 7 6 6 6 6 6 7 6 6 6 6 6 6 6 7 6 6 6 7 6 7 6 5 6 6 6 6 6 5 6 6 5 5 5 5 5 6 6 5 6 5 6 6 5 4 5 5 5 4 5 5 5 4 4 5 4 4 4 4 4 5 4 3 3 3 4 3 2 6
7 6 7 7 6 6 8 8 6 6 7 6 5 6 6 6 5 7 6 6 6 5 5 6 6 5 6 5 6 6 6 5 5 6 6 5 5 6 6 5 5 5 4 4 4 5 5 4 5 6 5 4 5 5 4 4 5 4 5 5 5 4 4 3 4 5 4 4 4 3 3 4 3 4 3 2 2 2 1 6
6 6 6 6 7 6 7 8 7 7 6 5 6 6 7 6 6 6 6 6 6 7 7 7 6 6 6 6 6 6 7 7 6 6 6 5 6 6 5 5 6 6 6 6 6 6 6 7 6 6 5 5 5 5 5 5 5 6 6 6 5 4 5 4 4 5 5 5 5 4 3 4 4 4 3 2 3 2 2 6
7 6 7 7 7 7 8 8 7 6 7 7 7 7 7 7 7 7 7 7 7 8 7 7 7 7 7 8 7 8 7 7 8 8 7 7 8 8 7 7 7 8 8 8 7 7 7 8 8 7 7 7 7 7 7 7 7 7 7 7 7 7 7 6 6 6 7 7 6 6 6 6 6 6 7 6 6 4 5 8
8 7 7 7 7 7 7 7 7 7 7 7 7 7 8 7 8 8 8 8 8 8 8 8 7 8 8 8 8 8 8 8 8 8 8 7 8 8 8 8 8 8 8 8 8 8 7 8 8 8 8 8 8 8 8 8 8 8 8 8 8 8 8 7 7 7 7 8 7 7 7 7 6 6 7 5 5 7 6 9
7 7 6 7 7 7 6 7 7 7 7 7 7 7 7 7 7 8 7 7 8 7 7 8 8 7 8 7 7 8 8 8 7 8 8 8 7 8 8 8 8 8 8 8 8 8 8 8 8 8 8 7 8 8 8 8 8 8 8 7 7 7 7 7 7 7 7 7 7 7 6 6 7 6 5 6 6 6 6 8
7 7 7 6 6 6 6 6 7 7 7 6 7 7 7 7 6 6 7 7 7 7 7 7 6 7 7 7 6 6 6 7 6 7 6 6 6 7 7 6 7 6 6 7 6 7 7 6 6 5 7 6 6 6 6 6 5 5 6 6 5 4 5 5 5 6 5 5 5 5 4 4 4 4 4 4 4 4 4 6
7 6 6 7 6 7 6 6 7 6 7 6 7 6 7 7 6 6 6 6 6 6 6 6 6 6 7 6 6 7 6 6 6 6 6 6 6 6 6 6 6 6 6 7 6 7 6 5 5 6 6 6 6 6 5 5 5 5 6 6 5 6 5 6 6 5 4 4 5 4 4 4 4 3 2 2 3 3 3 6
7 6 7 7 6 7 7 6 7 6 6 7 6 6 6 7 6 6 6 6 7 7 7 6 6 6 6 6 6 7 7 7 6 7 6 6 6 6 7 7 6 6 6 6 6 6 6 6 5 6 6 6 6 6 5 6 6 5 5 6 5 6 5 5 5 5 4 5 5 5 5 4 4 4 3 3 4 4 3 6
7 6 6 7 7 7 6 6 7 6 7 7 6 7 7 7 7 7 7 7 7 7 6 6 7 7 7 7 7 7 7 7 6 7 7 6 7 7 6 7 7 7 5 6 5 5 6 6 6 6 5 6 6 7 6 5 5 6 5 6 5 5 5 6 6 5 5 5 4 5 5 6 4 4 5 4 5 4 3 7
8 6 7 7 7 7 7 7 7 8 8 7 8 7 8 8 8 7 8 8 8 8 8 8 8 8 8 8 8 7 8 8 8 8 8 8 8 8 8 8 8 7 8 8 8 8 8 8 8 8 8 8 8 8 8 7 8 7 7 7 8 7 7 7 7 7 7 6 7 6 6 7 7 6 6 6 6 6 6 8
7 7 7 7 7 7 8 8 7 8 7 7 8 7 8 7 8 7 8 8 8 8 8 8 8 8 8 8 8 8 8 8 8 8 8 8 8 8 8 8 8 8 8 8 8 8 8 8 8 8 8 8 8 8 7 8 8 8 8 7 8 7 7 7 7 7 7 7 7 7 7 7 7 6 6 6 6 6 5 8
7 6 7 7 6 7 7 8 7 7 7 7 8 8 8 8 7 7 8 8 8 7 7 8 8 8 8 8 7 8 7 8 8 8 8 8 8 8 8 7 8 7 7 8 8 8 8 7 8 7 8 7 8 8 8 8 7 8 7 7 7 7 7 6 7 7 6 6 7 7 6 6 7 6 6 6 5 6 5 8
7 6 7 7 6 7 7 7 7 7 7 7 6 6 7 6 7 7 6 5 6 7 6 6 6 7 7 6 6 7 6 6 6 7 6 6 6 6 7 6 7 6 6 6 6 6 6 6 6 5 6 5 6 7 5 5 4 7 11 15 8 5 6 5 5 4 6 6 5 5 4 4 4 4 3 4 3 3 2 6
7 7 7 6 7 6 7 7 7 7 6 7 6 7 7 6 6 6 6 7 7 7 7 6 6 7 7 7 7 7 6 6 6 6 6 6 6 7 6 6 7 6 5 5 6 6 5 5 6 6 6 6 6 6 6 7 6 4 58 116 7 6 5 6 6 5 5 5 4 5 5 4 5 5 5 5 4 3 4 6
6 5 6 6 6 6 7 7 7 7 6 6 6 7 7 7 6 6 6 6 6 6 6 6 7 7 6 7 6 6 7 7 6 7 7 7 7 4 7 5 6 6 6 6 6 6 6 5 6 5 5 5 6 6 6 6 6 7 29 35 8 6 5 5 6 5 4 4 5 5 5 4 4 4 4 4 3 3 3 7
7 6 7 7 6 7 7 7 7 7 7 7 7 7 7 7 7 7 7 7 7 6 7 7 7 7 7 7 7 6 7 7 7 7 7 8 18 51 12 7 7 6 7 7 7 7 7 8 8 8 8 8 7 7 7 7 7 9 8 6 7 7 7 7 7 6 5 6 6 6 6 6 5 5 5 5 6 5 4 7
8 7 7 8 7 8 8 8 8 8 8 8 8 8 8 8 7 8 8 8 8 8 8 8 8 8 8 8 8 8 8 8 8 8 8 7 28 143 23 8 9 9 9 9 9 8 9 9 9 9 8 8 8 8 8 8 8 8 8 8 8 7 8 8 8 7 8 8 7 8 8 8 7 7 7 6 7 7 6 8
8 7 8 8 7 8 8 8 7 8 8 8 8 8 8 8 8 8 8 8 8 8 8 8 8 8 8 8 8 8 9 8 8 8 8 8 12 27 16 9 9 9 9 9 8 8 8 8 8 8 8 8 8 8 8 8 8 8 8 8 8 8 8 8 8 8 8 8 8 7 8 7 7 7 7 7 6 7 7 8
8 7 7 8 7 7 7 7 8 7 7 8 8 8 8 8 7 7 8 8 8 8 7 8 7 8 8 8 7 8 7 7 7 8 8 8 8 7 8 8 8 8 8 8 8 8 7 8 7 8 8 8 8 8 7 7 7 8 8 7 7 7 7 6 7 7 7 6 7 6 6 6 6 6 6 6 6 5 5 8
7 7 7 6 6 6 7 7 7 7 7 6 7 6 7 7 7 7 6 7 7 7 7 6 6 6 7 7 7 7 6 7 7 6 5 7 6 7 7 7 7 6 6 6 6 6 5 5 6 6 6 6 5 6 6 6 6 5 5 6 5 5 5 5 5 5 5 5 5 5 6 5 4 4 4 4 3 3 3 7
7 6 7 7 6 6 6 7 7 7 7 6 7 7 7 7 7 7 7 7 6 6 6 6 6 6 6 6 6 7 7 7 7 6 6 7 6 7 7 6 7 7 6 6 6 6 6 6 5 5 5 5 5 6 6 6 6 5 5 5 5 5 4 5 6 5 5 5 4 5 5 4 5 5 4 4 5 4 3 6
7 5 5 6 7 7 6 7 6 7 6 7 7 7 7 7 6 7 6 7 7 6 6 6 6 6 7 7 6 6 6 6 7 6 6 6 6 7 7 6 6 6 6 7 6 5 6 5 6 6 6 6 6 6 6 6 5 5 6 6 5 5 6 6 5 5 4 5 5 4 5 4 4 5 3 4 3 3 3 6
8 7 7 7 7 7 7 8 8 7 8 7 7 7 8 7 8 8 8 7 8 7 7 7 8 7 8 8 7 7 7 7 8 7 8 8 8 8 8 7 7 7 7 8 8 8 8 8 7 7 8 7 8 7 8 7 8 7 8 7 7 7 7 7 7 6 6 6 7 7 6 6 7 6 5 6 6 6 5 8
9 8 8 8 8 8 8 8 8 8 8 8 8 8 8 8 8 8 8 8 8 8 8 7 8 8 8 8 8 8 8 8 8 8 8 9 9 9 9 9 8 8 9 9 8 8 9 8 9 8 9 9 9 9 8 8 8 8 8 9 8 8 8 8 8 7 8 7 7 8 8 7 8 7 6 7 7 7 6 8
8 8 8 8 8 8 8 8 8 8 8 8 7 8 8 8 7 8 8 8 8 8 8 7 8 8 8 8 8 8 8 8 8 8 9 8 9 9 9 9 9 9 9 8 9 9 8 9 9 9 8 9 9 9 8 9 8 8 8 8 8 8 8 8 8 8 8 7 8 8 7 7 7 7 7 7 7 7 6 8
7 7 7 7 7 7 7 7 7 7 7 7 8 6 8 7 7 7 7 7 7 7 7 7 7 7 8 7 6 7 7 7 7 7 8 7 7 7 8 7 7 7 7 8 7 7 8 7 7 7 7 7 7 7 7 7 8 7 7 7 7 7 7 6 7 7 6 6 6 6 6 6 5 5 5 5 6 5 5 7
7 6 7 7 6 7 7 7 7 6 7 6 6 7 7 6 6 7 7 7 7 6 7 7 7 6 7 6 7 6 7 6 6 7 7 7 7 7 6 6 6 6 6 7 7 6 7 6 6 6 6 6 6 6 6 6 6 6 6 5 6 6 6 6 6 5 6 5 5 5 5 5 5 4 4 4 5 2 2 7
7 7 7 7 6 6 7 7 7 7 7 6 7 7 7 7 7 7 7 7 7 7 7 6 7 6 7 7 7 6 7 7 7 7 7 7 7 7 7 6 7 7 6 7 6 7 7 6 6 6 7 6 6 7 6 6 6 6 6 7 6 6 6 6 6 6 5 4 5 5 6 6 6 4 4 4 4 2 4 7
7 7 7 7 7 7 7 7 6 6 7 7 7 7 7 7 7 6 7 7 7 7 7 7 7 7 7 6 6 6 6 6 7 7 7 7 7 7 7 7 7 6 6 7 7 7 6 6 7 7 7 6 6 7 6 5 5 6 7 6 6 5 6 5 6 6 6 5 6 5 6 5 5 5 4 4 3 3 4 7
8 8 9 8 8 8 8 8 8 8 8 7 8 8 8 8 8 8 8 8 8 8 8 8 8 8 8 7 7 8 7 7 8 8 8 8 9 9 8 8 9 8 8 9 8 9 8 8 8 9 8 8 9 8 8 7 7 8 8 8 8 8 7 8 8 8 8 7 7 8 7 7 7 7 7 7 6 6 6 9
8 8 9 8 8 8 8 8 8 8 8 8 8 8 8 8 8 8 8 8 8 9 9 8 8 8 8 8 7 8 8 8 8 9 9 9 9 9 9 9 9 9 8 9 9 9 9 9 9 9 9 9 9 9 9 9 9 9 9 9 8 9 8 8 8 8 8 8 8 8 8 8 8 8 8 8 8 7 7 9
8 8 8 8 8 8 8 8 8 8 8 8 8 8 8 8 9 9 8 8 8 8 8 9 9 8 8 8 8 8 8 8 8 9 9 9 9 9 9 9 9 9 9 9 9 9 9 9 9 9 9 9 9 9 9 8 9 9 9 9 9 9 8 8 8 8 7 8 8 7 8 8 8 6 7 8 8 7 7 9
8 7 7 7 7 7 7 7 7 7 7 7 7 7 7 7 7 7 7 7 7 7 7 7 7 7 7 7 7 7 7 7 7 7 7 7 7 7 7 7 8 7 7 7 7 7 7 7 7 6 7 7 7 7 7 6 7 7 7 7 7 6 7 6 7 6 6 6 6 6 5 5 5 5 6 5 5 4 5 7
8 7 7 7 7 7 7 7 7 7 7 7 7 7 7 6 6 7 7 7 7 7 7 7 6 7 6 7 7 7 7 6 7 7 7 7 7 7 8 7 7 7 6 6 7 7 6 7 6 6 6 6 6 7 6 6 6 7 7 6 6 7 6 6 6 6 5 6 6 6 6 6 5 5 5 5 5 4 4 7
7 6 7 7 7 7 7 6 7 6 7 7 6 7 6 6 7 7 7 7 6 7 7 7 7 7 6 6 7 7 7 6 6 7 7 7 7 7 7 7 7 7 7 7 6 6 6 7 6 6 6 6 6 7 6 5 6 7 7 10 17 12 7 6 6 6 6 5 6 5 5 5 5 5 5 4 5 4 4 6
6 7 7 7 7 7 7 7 7 6 7 6 6 7 7 6 7 7 7 7 7 7 7 7 7 7 7 7 7 7 7 6 6 7 7 7 8 10 11 10 9 8 7 8 7 6 7 7 7 7 7 7 7 7 7 6 7 7 7 25 155 43 5 5 6 6 6 6 6 6 6 5 4 5 5 5 6 4 5 7
8 8 8 8 8 8 8 8 8 7 8 8 8 8 8 8 8 8 8 8 8 8 8 8 9 8 8 9 8 8 8 9 9 9 9 9 6 46 134 18 9 9 9 9 9 9 9 9 9 9 9 9 9 9 8 9 9 10 12 20 51 20 8 8 8 8 8 8 8 8 8 7 6 7 6 7 7 6 7 9
9 8 8 8 8 8 8 8 8 8 8 8 8 8 8 8 8 8 8 9 8 8 9 8 8 9 9 8 9 9 9 9 9 9 9 9 9 29 61 14 8 9 9 9 9 9 9 9 9 9 9 9 9 9 9 9 8 9 9 9 6 9 9 9 8 8 8 8 8 8 8 8 7 7 7 7 7 7 7 9
9 9 8 7 8 8 8 8 8 8 8 8 8 8 8 8 8 8 8 8 8 8 8 8 8 8 8 8 8 8 8 9 8 8 9 8 9 9 7 9 9 9 9 8 9 9 9 9 9 8 9 8 8 8 8 9 8 8 8 9 9 8 8 8 8 7 7 8 8 8 8 7 7 6 7 7 7 6 7 8
7 8 7 7 7 7 6 6 7 7 6 6 7 7 7 7 7 7 6 7 7 7 7 7 7 7 7 6 6 7 6 7 6 7 7 7 7 7 7 7 7 7 6 7 7 6 5 5 6 7 6 6 7 7 6 7 6 6 6 7 6 6 7 6 6 5 5 5 5 5 5 5 5 5 4 5 4 4 2 7
7 7 7 7 7 7 6 7 7 7 6 7 7 7 7 6 6 7 6 7 6 6 7 6 7 7 7 6 7 7 7 7 7 7 7 7 6 7 7 6 6 6 6 7 6 6 6 6 5 6 7 6 6 7 5 5 5 6 6 6 6 5 6 6 6 6 5 4 5 5 4 5 5 3 3 4 3 4 3 7
7 6 7 7 7 6 7 7 7 7 7 7 7 7 7 7 6 7 7 7 7 7 7 7 7 7 7 6 7 7 7 7 7 7 7 6 7 7 7 6 7 7 7 6 7 6 7 6 6 6 7 6 6 6 6 6 6 6 6 6 6 5 6 6 6 6 5 5 5 6 5 5 6 4 4 3 4 4 3 7
8 8 7 7 7 7 7 8 7 7 7 7 7 7 7 7 7 8 7 8 8 8 7 8 8 7 7 8 7 7 7 7 7 8 8 7 7 8 7 7 8 8 8 7 8 7 7 8 7 7 8 7 7 8 7 7 7 7 7 7 6 7 7 7 6 7 6 6 6 6 6 6 6 6 5 5 6 6 4 8
9 9 8 8 7 8 8 8 8 8 8 8 8 8 8 7 8 8 8 8 8 8 8 8 9 8 8 8 8 8 8 9 8 8 8 9 9 9 9 9 9 9 9 9 9 9 9 9 9 9 9 8 9 9 9 9 9 8 8 8 8 7 8 8 8 8 8 8 8 7 7 7 7 8 7 7 7 7 7 9
8 8 8 8 8 8 8 8 8 8 8 8 8 8 8 8 8 8 8 8 8 8 8 8 8 9 8 8 8 8 8 8 8 8 8 9 8 9 9 8 9 9 9 9 9 9 9 9 9 9 9 9 9 9 8 9 9 8 8 8 8 8 9 8 8 8 8 8 8 8 7 8 7 7 7 7 7 6 7 9
8 7 8 7 8 7 7 7 7 7 7 7 7 8 8 7 7 8 8 8 7 8 8 7 8 8 8 8 8 8 8 7 8 8 8 8 8 8 7 8 8 8 8 8 8 8 8 8 8 8 8 8 7 8 7 8 8 8 8 7 7 7 8 8 7 7 7 7 7 6 7 7 7 7 7 6 7 6 5 8
6 7 7 7 6 7 6 6 7 6 6 6 6 7 7 7 7 7 7 7 6 7 7 6 6 7 6 7 6 7 6 7 7 7 6 7 7 7 6 5 6 7 6 6 6 6 7 7 6 6 5 5 5 5 6 6 6 7 6 6 5 6 7 6 5 5 5 6 6 5 5 6 6 5 4 4 5 5 3 7
7 6 6 6 6 7 7 7 7 7 6 6 6 7 7 7 6 6 7 6 6 7 6 7 6 6 7 7 6 7 6 7 7 6 6 6 6 7 7 6 6 5 6 7 5 7 6 6 6 5 5 6 6 6 6 5 6 6 6 6 6 5 6 5 4 6 6 6 5 5 5 6 5 4 5 3 3 4 3 6
7 6 6 7 6 7 6 7 7 6 7 7 7 7 7 7 6 7 7 7 6 6 6 7 7 7 6 6 6 6 5 6 7 7 7 6 7 6 7 6 7 7 6 6 6 6 6 6 6 6 6 6 6 6 6 6 6 6 6 6 6 6 6 5 5 6 5 6 6 5 4 5 4 6 5 5 4 4 4 6
8 7 7 6 7 7 7 7 7 7 7 8 8 8 7 8 7 7 7 8 8 8 8 8 8 8 7 7 8 8 7 7 7 8 8 8 8 8 8 8 8 8 8 8 8 7 8 8 8 7 8 8 7 8 8 8 8 8 7 7 7 8 7 7 7 7 7 7 7 7 6 6 6 7 6 6 6 4 6 9
8 7 8 8 8 8 8 8 8 8 8 8 8 8 8 8 7 8 8 8 8 7 8 8 8 8 8 8 8 8 8 8 8 8 8 9 9 9 8 9 9 9 9 8 9 9 9 9 9 9 9 9 9 9 9 8 8 8 9 8 9 8 8 8 8 8 8 8 7 7 7 7 7 8 7 7 7 6 6 9
8 8 8 7 7 7 7 8 8 8 7 8 8 8 8 8 8 8 8 8 8 8 8 8 8 8 8 8 8 9 8 8 8 9 9 9 8 9 9 9 8 9 9 9 8 9 8 9 9 9 8 9 9 8 8 9 8 8 9 8 9 9 8 8 8 8 8 8 8 7 8 8 7 7 7 7 7 7 7 9
7 7 6 7 7 7 7 7 6 7 7 7 7 8 7 7 7 7 7 7 7 7 7 7 7 8 7 7 7 7 7 7 7 7 8 7 8 7 8 7 8 7 7 7 7 7 7 7 8 7 7 7 7 7 7 6 6 7 7 6 7 6 6 6 7 7 7 6 7 6 6 6 6 6 6 5 5 4 4 8
7 6 7 7 6 7 7 6 7 6 6 6 7 7 7 6 7 7 7 7 7 7 7 7 7 6 7 7 7 7 6 6 6 6 7 6 7 7 7 7 7 7 6 6 6 6 6 5 7 6 7 7 5 6 6 6 6 6 6 6 6 6 6 5 5 6 5 5 5 6 6 4 4 4 4 3 3 4 3 7
8 7 7 7 7 7 7 7 7 7 7 7 7 7 7 7 6 6 7 7 7 7 7 7 7 7 7 6 6 6 7 6 7 7 7 7 6 6 7 7 7 6 7 7 6 7 6 6 6 6 6 7 7 6 6 6 5 5 6 6 6 6 5 5 5 6 6 4 5 5 5 4 5 5 5 4 4 4 4 7
9 8 7 7 7 7 6 7 7 7 7 7 6 7 7 7 7 7 7 7 7 7 7 7 7 7 7 7 7 7 7 6 7 7 7 7 7 7 7 6 6 7 7 7 6 6 7 6 6 6 6 6 6 6 6 6 6 6 6 6 6 6 6 6 5 6 6 5 6 6 6 5 5 5 5 4 5 4 4 7
11 10 8 7 7 8 7 8 7 7 8 7 7 7 8 7 7 7 7 8 7 7 7 8 8 8 8 7 7 8 8 8 8 8 8 8 8 8 8 8 8 8 8 8 7 8 8 8 8 8 8 8 8 8 7 8 8 8 8 7 8 7 7 8 8 7 8 7 7 7 8 7 7 6 6 6 7 6 6 8
11 11 8 8 7 8 7 8 8 7 7 8 8 7 8 7 7 7 7 8 8 8 8 8 8 8 8 8 7 7 8 8 8 8 8 8 8 8 8 8 8 8 8 8 8 8 8 8 7 8 8 8 8 8 8 8 7 8 8 7 8 7 8 8 8 8 8 7 7 7 7 7 7 7 7 7 7 6 6 8
11 10 8 8 7 8 8 8 7 8 7 8 8 7 8 7 8 7 8 7 8 8 8 8 8 8 7 8 7 8 8 8 8 8 8 8 8 8 8 8 8 8 8 8 8 8 8 8 8 8 8 8 8 7 8 7 8 8 8 8 7 7 7 7 7 8 7 7 8 7 7 7 6 6 7 6 6 6 6 8
9 8 7 7 7 7 7 7 7 7 7 7 7 7 7 7 7 7 7 7 6 7 7 7 7 7 7 7 7 7 6 7 7 7 7 6 7 7 7 6 7 7 7 6 7 7 7 7 7 7 7 6 6 6 6 7 6 6 7 5 5 5 5 6 6 6 6 5 5 5 5 6 6 3 4 5 4 4 4 8
9 8 6 6 6 7 7 7 7 6 6 6 6 7 7 6 6 6 6 7 7 7 6 6 6 7 7 7 6 6 5 6 6 7 6 6 6 6 6 6 7 6 6 7 6 6 6 6 6 6 6 6 6 6 5 5 6 6 5 4 4 4 6 5 4 5 6 5 5 5 4 4 4 3 3 3 3 4 4 6
8 8 7 6 7 7 7 7 7 7 6 7 6 7 7 7 6 7 6 7 7 7 6 5 6 7 7 6 6 7 6 7 7 7 7 6 7 6 6 7 7 7 6 6 5 6 6 6 6 5 6 6 5 6 5 5 5 5 6 5 5 5 6 4 4 5 5 5 5 5 3 3 3 4 4 4 5 4 3 7
8 8 7 7 7 6 7 7 7 6 6 7 7 7 7 6 7 6 7 6 7 6 6 7 7 7 6 6 7 7 7 7 7 7 7 6 7 7 6 5 6 7 6 6 6 6 6 6 6 6 6 6 6 6 5 6 6 6 6 6 5 5 6 4 5 5 5 4 5 5 4 3 5 5 4 3 4 3 3 6
10 9 8 7 7 7 8 7 7 7 7 7 7 8 8 7 7 7 7 7 7 8 7 8 8 8 8 8 7 7 8 7 8 8 8 8 8 8 8 7 7 7 7 7 7 7 7 8 8 7 8 8 7 8 7 8 7 7 7 7 7 7 7 7 7 6 6 7 6 7 6 6 6 6 6 6 6 6 6 9
10 9 8 8 7 7 7 8 7 7 7 7 6 8 8 7 7 7 7 8 7 7 8 8 7 8 8 7 7 8 7 8 7 8 7 8 8 8 8 8 8 7 8 7 7 8 7 8 8 8 8 7 7 8 7 7 7 7 7 7 7 7 7 7 7 6 7 7 7 7 7 6 7 7 7 6 7 6 6 8
9 9 8 8 7 7 7 7 7 7 7 7 7 8 7 7 7 7 7 8 7 7 7 7 7 7 8 7 7 7 7 7 7 7 7 7 7 7 7 7 7 7 7 7 7 7 7 7 7 7 7 7 7 7 7 7 6 7 6 6 7 7 6 7 6 6 6 7 6 6 6 6 6 4 5 5 5 6 6 8
9 8 8 6 7 7 7 6 6 6 7 7 7 7 6 6 6 6 6 6 6 6 6 7 7 7 7 6 6 6 7 6 6 6 6 6 6 6 6 5 6 6 5 6 6 6 5 6 5 4 5 5 5 5 5 5 5 5 5 6 6 6 6 5 6 5 4 6 4 3 5 4 5 4 3 3 3 4 3 6
9 8 7 7 7 6 7 6 6 7 6 7 6 6 6 6 6 7 6 6 7 6 6 6 7 7 7 7 6 6 6 6 6 6 7 6 7 7 6 6 7 6 5 6 6 6 6 6 5 5 5 5 6 6 6 6 5 5 6 6 5 5 5 5 6 6 5 5 4 4 4 3 4 3 3 4 3 3 3 7
9 8 7 6 6 7 6 7 7 5 7 7 7 7 6 7 7 6 6 7 6 7 7 7 7 7 6 6 6 6 6 7 7 6 6 7 6 7 6 6 6 6 6 7 6 6 6 6 6 6 6 6 5 5 5 5 6 6 5 5 5 5 5 5 5 5 5 5 6 5 4 5 4 3 4 4 4 4 3 7
8 7 7 7 5 6 6 7 7 6 7 7 7 7 6 7 7 7 7 7 7 7 6 7 7 7 6 6 7 7 7 7 7 6 6 7 7 7 7 7 6 6 6 7 6 6 6 7 6 6 6 6 6 6 6 7 5 6 5 6 6 6 6 5 5 5 6 5 6 6 5 6 5 5 5 4 4 5 4 7
8 8 8 9 8 7 7 7 7 7 7 7 7 7 7 7 7 7 7 7 7 7 7 7 7 8 7 7 7 7 7 7 8 7 7 7 8 8 8 7 7 7 7 7 7 7 8 7 7 7 7 7 7 7 7 7 6 7 7 7 7 6 6 6 7 7 7 7 6 7 6 7 6 6 5 5 6 6 5 8
8 8 8 8 7 7 7 7 7 7 6 8 7 7 7 8 7 7 7 7 8 8 7 7 7 7 7 7 7 7 7 7 7 7 7 7 8 7 8 7 8 7 7 7 7 7 8 8 8 8 8 7 7 7 7 7 7 7 7 7 7 6 7 6 7 7 6 7 7 6 6 7 6 6 7 6 6 6 5 8
8 8 8 8 7 7 7 7 7 7 7 8 7 7 7 7 7 7 8 7 7 7 7 7 7 7 7 6 7 7 7 7 7 7 6 7 8 7 6 6 7 7 6 7 7 7 7 7 7 6 6 6 7 6 7 6 6 6 7 6 6 5 6 6 6 6 5 6 6 7 6 6 5 5 5 4 4 5 4 8
8 7 8 9 8 6 6 7 6 6 6 6 7 6 7 7 7 7 7 7 6 7 7 5 6 6 6 6 7 7 7 7 7 6 6 7 7 6 7 5 6 5 4 6 5 6 5 5 5 5 5 5 5 5 5 5 4 5 5 6 5 5 5 5 5 5 5 5 5 4 3 4 3 4 4 2 3 3 2 6
8 7 9 8 7 6 6 7 6 6 6 7 7 7 7 6 7 6 6 7 6 7 7 7 6 7 7 6 6 7 7 6 6 7 6 6 6 6 6 6 6 7 4 5 5 5 5 5 4 6 6 4 4 5 4 4 4 6 4 4 5 5 5 3 3 4 5 5 4 4 3 4 4 4 3 3 3 2 3 7
8 8 8 7 7 7 6 7 6 6 6 6 6 7 7 7 7 7 6 7 7 7 7 7 7 7 7 7 7 7 6 6 6 6 6 5 5 6 6 5 6 6 5 6 6 6 5 5 5 6 6 4 5 5 4 4 5 6 5 4 5 5 5 4 4 5 5 5 4 5 5 3 4 5 3 4 4 3 3 6
8 7 7 8 8 7 5 6 6 7 7 7 7 7 7 7 7 7 7 7 7 7 7 7 7 7 7 7 7 7 6 6 7 7 7 7 7 7 6 6 7 7 6 7 7 7 7 6 6 6 7 6 6 7 6 5 6 6 7 6 5 6 7 6 6 6 6 6 6 5 6 5 6 5 4 6 5 4 4 5
7 7 7 8 7 7 7 7 8 7 6 7 8 7 7 8 7 7 8 8 7 7 7 8 7 7 7 7 7 7 7 7 7 7 7 7 7 7 8 7 7 7 7 7 7 7 7 7 6 7 7 7 7 7 7 7 7 6 7 7 6 6 7 6 7 6 7 6 6 7 6 6 6 6 5 5 6 6 5 30
