P2
80 80
255
34 14 10 9 9 8 8 8 8 8 8 8 8 8 8 8 8 8 8 7 8 8 8 8 8 8 8 8 8 8 8 8 8 8 8 8 8 8 8 8 9 9 8 8 9 9 8 8 8 8 8 9 8 8 9 8 8 8 8 8 8 8 8 8 8 8 8 7 8 8 7 8 7 7 7 7 7 7 6 8
8 9 10 9 8 7 7 7 8 7 7 7 7 7 7 7 7 7 7 7 8 8 7 7 7 8 7 7 8 8 8 8 8 8 8 8 8 8 7 8 8 8 7 7 8 8 8 8 8 8 8 8 8 8 8 7 7 7 7 7 7 8 7 7 8 7 7 6 7 7 7 6 6 7 6 6 6 5 5 8
8 8 9 9 7 7 7 7 7 7 7 7 6 7 7 7 7 7 6 7 7 7 7 7 7 7 7 7 7 7 7 7 7 7 7 7 7 7 8 7 7 7 7 7 7 6 8 7 7 7 7 7 7 7 7 7 7 7 7 7 7 6 7 6 7 6 7 7 6 6 6 6 6 6 5 4 5 5 4 8
6 6 7 7 7 7 7 7 6 7 6 6 6 7 6 6 6 7 6 6 7 6 7 7 6 6 7 6 6 6 5 6 7 6 6 6 7 7 6 5 6 6 6 6 6 6 6 5 6 5 6 6 5 6 5 5 6 6 5 5 5 5 5 5 4 5 6 6 5 5 4 4 5 4 3 3 4 4 2 6
7 7 7 7 8 7 7 7 6 6 7 7 7 6 7 7 7 7 7 7 7 6 6 6 6 7 7 6 6 6 7 7 7 7 6 6 6 7 6 6 6 7 6 7 6 6 6 6 6 6 6 5 6 6 6 5 6 5 6 5 5 6 5 5 5 5 5 5 4 5 6 5 5 4 4 4 3 5 5 7
7 6 6 7 8 7 6 6 6 6 6 7 7 7 7 7 6 6 7 7 6 6 7 6 7 6 7 6 6 7 6 7 6 7 6 6 6 6 6 5 6 7 6 7 7 5 6 6 6 6 6 5 6 6 6 5 6 6 6 6 6 5 5 4 5 5 5 5 5 6 5 5 4 2 4 4 4 4 3 7
7 7 7 7 8 7 6 7 7 7 7 7 7 7 7 7 6 7 7 7 6 7 7 6 7 7 7 7 7 7 8 7 7 7 7 8 7 8 7 7 7 7 7 7 7 7 7 7 7 7 7 7 7 7 6 7 7 7 7 7 7 6 6 7 6 7 6 6 6 7 5 6 6 5 5 5 5 5 5 8
8 7 7 7 7 7 7 7 8 7 6 7 7 7 7 8 7 7 7 7 8 8 8 8 8 8 8 8 8 8 8 8 8 8 8 8 8 8 8 7 8 8 8 8 8 8 8 8 8 8 8 7 8 8 7 8 7 8 8 7 7 7 7 7 7 7 7 7 7 6 6 7 7 7 6 6 6 7 6 9
8 7 7 7 7 7 7 7 7 7 7 7 7 7 7 8 7 7 7 7 8 8 8 8 8 7 8 8 8 8 8 8 8 8 8 8 8 8 8 8 8 8 8 8 8 8 8 8 8 8 8 8 8 7 8 7 7 7 7 7 8 7 7 7 8 7 7 7 7 7 7 8 7 7 7 6 6 7 6 8
7 7 7 7 7 7 7 7 7 7 7 7 7 7 7 7 7 7 7 8 7 7 6 7 8 6 6 7 7 7 7 7 7 7 7 7 7 7 7 7 7 7 7 7 7 7 7 7 6 7 7 6 6 7 6 6 6 7 7 7 7 6 6 6 7 7 6 6 6 5 6 6 5 5 5 4 4 5 4 7
7 6 7 7 6 7 6 7 6 6 6 7 6 7 7 7 7 7 6 7 6 6 7 6 6 7 6 6 6 6 7 6 6 6 6 6 6 6 6 6 6 6 5 5 5 6 6 6 6 6 6 4 4 6 5 6 4 5 5 5 5 5 5 5 5 5 4 4 4 5 5 4 3 3 3 3 2 3 3 7
7 6 6 7 6 6 7 7 6 6 6 6 6 7 7 6 6 7 7 6 6 7 7 7 6 7 7 7 6 6 6 6 6 6 6 6 7 7 6 5 7 7 6 6 5 6 6 6 5 6 6 6 6 6 6 5 5 5 6 5 6 6 6 5 5 5 6 5 5 5 5 5 5 4 4 4 3 3 2 7
7 7 6 7 7 6 7 7 7 7 7 7 7 7 7 7 7 7 7 6 6 7 7 7 7 7 7 7 7 7 6 6 7 6 6 7 7 7 6 7 7 6 6 7 6 5 6 6 6 6 6 6 6 6 6 6 5 5 6 7 6 6 5 5 5 6 5 5 5 5 5 5 4 5 4 3 4 5 3 7
8 7 8 8 7 7 7 8 8 7 8 8 8 8 8 7 8 8 8 8 8 8 8 8 8 8 8 8 8 8 8 8 8 8 8 8 9 8 8 8 8 8 7 8 8 8 8 8 8 8 8 8 8 8 8 8 7 8 7 8 7 7 7 7 7 7 6 7 7 7 7 6 6 7 6 6 7 6 6 9
8 7 7 7 7 8 7 8 8 7 8 8 8 8 8 8 8 8 8 8 8 8 8 8 8 8 8 8 8 8 8 8 8 8 8 8 9 8 8 8 8 8 8 8 8 8 8 8 8 8 8 8 9 8 8 8 7 8 8 8 8 8 7 7 7 7 7 7 7 6 7 7 7 6 6 7 7 6 7 9
8 7 7 7 7 8 8 8 8 8 7 7 8 8 7 8 8 7 8 8 7 8 8 8 8 8 8 8 8 8 8 8 8 8 8 8 8 8 8 8 8 8 8 8 8 8 8 8 8 8 8 8 8 8 8 8 7 8 7 7 7 7 7 7 7 7 7 7 6 7 6 6 7 6 6 6 7 6 7 8
7 6 7 7 7 7 7 7 7 7 6 7 7 7 7 7 7 7 7 7 7 7 7 7 7 7 7 7 7 8 7 7 6 7 7 7 7 7 7 6 7 7 6 7 6 6 7 7 6 6 6 6 7 7 6 7 6 5 6 5 6 6 6 6 6 6 6 6 4 5 6 6 5 5 4 4 5 4 4 7
7 6 6 7 7 7 7 7 7 7 7 7 7 7 7 7 7 7 7 7 6 7 6 7 7 7 7 6 7 7 7 7 7 7 7 6 6 7 6 6 6 6 6 7 6 6 6 7 6 6 6 6 6 6 6 6 6 6 6 6 5 6 6 5 6 6 6 6 5 5 5 5 6 5 4 4 4 4 4 7
7 6 7 7 7 7 7 7 7 7 7 7 7 7 7 7 7 7 7 7 7 7 6 7 7 7 7 6 6 6 5 7 7 7 6 7 5 7 7 6 7 6 5 7 6 6 6 6 5 5 6 6 6 6 6 6 5 6 6 6 6 5 6 6 6 5 5 6 4 5 5 5 5 4 4 4 4 4 3 7
7 7 7 7 7 7 7 7 7 7 7 7 7 7 7 7 7 7 7 7 7 7 7 7 7 7 7 7 7 7 7 7 8 7 7 7 7 7 7 7 7 6 7 7 7 7 7 7 7 7 7 7 7 6 7 7 7 7 7 6 6 6 6 6 7 6 6 5 5 6 6 6 5 5 5 4 4 4 3 7
8 8 7 7 7 8 8 8 8 8 8 8 7 8 8 8 8 8 8 8 8 8 8 8 8 8 8 8 8 8 8 8 9 8 8 9 9 9 8 8 9 8 8 8 8 8 8 8 8 8 8 8 8 8 8 8 5 9 8 7 8 7 7 7 7 8 7 7 7 7 7 7 7 7 7 7 6 7 6 9
8 8 8 8 8 8 7 8 8 8 8 8 7 8 8 8 8 8 8 8 8 8 8 8 8 8 8 8 8 8 8 8 9 9 9 8 7 9 9 8 9 8 8 9 8 8 8 8 8 8 9 8 8 8 8 17 82 22 8 8 8 8 8 8 8 8 7 7 8 7 7 8 8 8 7 7 7 6 7 9
8 7 7 8 8 8 7 8 8 7 8 8 8 8 8 8 7 7 8 8 8 8 7 8 8 7 7 8 8 8 8 8 8 8 8 33 33 9 8 8 8 8 7 8 7 8 8 8 8 8 8 8 8 8 7 25 109 22 8 8 7 7 7 7 8 8 7 7 7 7 7 7 6 7 6 6 6 7 7 8
8 7 7 7 7 7 7 7 6 6 7 7 7 7 7 7 7 7 7 7 7 6 6 7 7 7 7 7 7 7 6 7 7 7 3 77 106 4 7 7 7 6 6 7 6 7 7 7 8 6 6 7 6 7 8 9 6 8 7 6 6 6 6 7 6 6 6 6 5 5 5 5 5 5 5 4 4 4 5 7
7 7 7 7 7 7 7 7 7 7 7 7 7 7 8 7 7 7 7 7 7 7 7 7 7 7 7 7 7 7 7 7 7 7 8 13 18 9 7 7 7 7 7 7 7 7 7 7 7 6 7 7 6 7 7 7 7 7 6 6 6 6 6 6 6 5 6 6 6 6 6 6 5 5 4 5 4 4 3 7
7 7 7 7 6 7 7 7 7 7 7 7 7 7 7 7 6 6 6 7 7 7 7 7 7 7 7 7 6 7 7 7 7 7 7 7 7 7 7 7 7 7 7 7 7 6 6 6 6 7 6 6 7 6 6 6 6 6 7 7 6 6 7 5 5 6 6 6 5 6 6 6 5 5 4 4 5 4 4 7
8 7 7 7 7 7 8 8 7 8 8 7 7 7 8 7 8 7 7 7 8 7 8 7 7 7 7 8 7 8 8 8 8 8 8 7 8 8 8 7 8 8 8 8 7 8 8 7 7 7 7 8 7 7 7 7 7 7 7 7 7 6 7 7 7 7 7 7 6 7 7 7 6 6 6 5 6 5 6 8
8 8 8 8 8 8 8 8 8 8 8 8 8 8 8 8 8 8 8 8 8 8 8 8 8 8 8 8 8 8 8 9 9 9 9 9 9 9 9 9 9 9 9 9 8 9 9 9 8 8 8 8 8 8 8 8 8 8 8 8 8 8 8 8 8 8 8 7 8 8 8 8 7 8 7 7 8 7 6 8
9 8 8 8 8 8 8 8 8 8 8 8 8 8 7 8 8 8 8 8 8 8 8 8 8 8 8 8 8 8 8 8 8 9 9 9 9 9 9 9 9 9 9 9 9 9 9 9 8 8 9 8 8 9 8 8 8 8 9 8 8 8 8 8 8 8 8 8 8 8 7 7 7 7 7 7 7 6 7 9
8 8 8 8 8 8 8 8 7 7 8 7 8 8 7 8 8 8 8 8 8 7 8 7 7 7 7 7 8 8 8 8 8 8 8 8 8 8 8 8 8 8 8 8 8 8 8 8 7 8 8 7 7 8 7 8 7 7 7 7 7 7 7 7 6 7 7 6 6 7 7 7 6 6 5 5 6 5 6 8
7 7 7 7 7 7 7 7 7 7 6 7 7 7 7 7 7 7 7 7 7 7 7 7 7 7 7 6 7 7 6 6 7 7 6 7 6 7 6 7 7 6 6 7 6 6 6 6 6 7 6 6 6 6 5 6 6 6 6 6 6 5 6 6 5 6 6 6 5 5 4 5 4 5 5 4 4 4 4 6
6 6 8 7 6 6 7 7 7 7 7 7 7 6 6 6 7 7 7 7 7 7 7 7 7 7 7 7 7 7 6 6 6 8 7 6 7 6 7 6 7 7 7 7 7 6 6 6 6 6 6 6 5 6 6 7 6 7 6 6 5 6 6 5 6 6 6 5 6 6 5 5 5 5 5 5 6 5 4 7
7 6 7 7 7 7 6 7 7 6 6 5 6 6 6 7 7 6 6 7 7 7 7 7 6 7 7 6 7 6 6 7 7 6 7 7 7 7 7 6 6 7 6 6 7 7 7 7 6 6 7 7 6 6 6 6 5 6 6 6 6 5 5 5 5 6 6 5 4 6 5 5 4 4 5 3 4 4 3 8
9 8 7 7 8 8 8 8 7 8 8 8 7 8 8 8 8 8 8 8 8 8 8 8 8 8 8 8 7 8 8 8 8 8 8 9 8 9 9 8 9 9 8 8 8 8 9 9 8 8 8 8 8 8 8 8 8 8 8 8 7 8 7 7 8 7 7 7 7 7 8 7 7 7 7 7 6 6 5 8
9 8 8 8 8 8 8 8 8 8 8 8 8 8 8 8 8 8 8 8 8 8 8 9 8 9 8 8 8 8 9 9 9 8 9 9 9 9 9 9 9 9 9 9 9 9 9 9 9 9 9 9 9 9 8 9 8 9 9 9 8 8 8 8 8 8 8 8 8 8 8 8 8 8 7 7 7 7 7 9
9 8 8 8 8 8 8 8 8 8 9 8 8 8 8 8 8 8 8 8 8 8 8 8 8 8 8 8 8 8 8 8 9 9 9 9 9 9 9 9 9 10 9 9 9 9 9 9 9 9 9 9 9 9 8 9 8 8 9 8 8 8 8 8 8 9 8 8 8 8 8 8 8 8 7 7 8 8 7 9
8 7 7 8 8 7 8 7 7 7 8 7 7 7 7 7 7 7 7 7 8 7 7 8 8 7 7 7 7 7 7 8 7 7 8 7 7 7 7 8 8 8 7 8 7 8 7 7 7 6 7 6 7 7 7 7 7 7 7 6 7 7 7 7 6 7 6 7 7 6 7 5 6 6 6 5 5 5 5 7
8 7 7 7 7 7 7 7 7 7 7 7 7 7 7 7 7 7 7 7 7 7 7 7 7 7 7 7 7 6 7 7 7 7 7 6 7 7 7 7 7 7 6 7 6 7 7 6 6 6 6 6 6 6 6 7 6 6 7 5 6 7 7 6 6 6 6 6 5 6 6 5 5 5 4 5 4 4 3 7
7 6 7 6 6 7 7 7 6 7 7 6 6 7 7 7 7 7 7 7 6 7 7 6 7 7 7 7 7 6 6 7 7 7 7 7 7 7 7 7 7 6 7 7 6 6 7 6 6 6 6 6 6 7 6 7 7 7 7 6 6 7 6 6 6 5 5 6 5 6 5 5 5 4 4 3 4 5 4 8
7 7 7 7 7 7 7 7 7 7 7 7 7 7 7 8 7 7 7 7 7 8 7 7 7 7 7 7 6 7 6 7 7 7 7 7 8 7 7 7 7 7 7 7 7 7 7 7 6 7 7 7 7 7 6 6 8 7 7 7 7 7 6 7 6 6 5 6 6 7 6 7 6 5 6 6 5 5 5 7
9 8 8 8 8 7 7 8 8 8 8 8 8 8 8 8 8 9 8 8 8 8 8 9 8 8 8 8 8 8 8 9 9 8 8 9 9 9 9 8 9 9 9 9 9 9 9 9 9 9 9 9 9 8 8 9 9 8 8 9 8 8 8 8 8 8 8 8 7 8 8 8 7 7 7 7 7 7 7 9
9 8 8 8 8 8 8 8 8 8 8 8 8 8 8 8 8 9 8 8 8 8 9 9 8 8 9 9 8 8 9 9 9 9 9 10 9 10 11 10 10 10 9 9 10 10 10 10 10 10 10 9 9 10 9 11 14 23 15 9 8 8 8 8 8 8 8 7 8 8 8 7 6 7 7 7 8 7 7 9
9 8 8 8 8 8 8 8 8 8 8 8 8 8 8 9 8 8 8 8 8 8 8 9 8 8 9 8 8 8 8 8 9 9 9 9 97 67 8 11 10 10 9 9 9 9 9 10 10 9 9 9 9 9 9 9 19 143 56 6 8 8 8 8 8 8 8 8 8 7 7 8 7 8 7 6 7 7 6 9
8 7 7 7 7 7 8 7 7 7 7 7 7 7 7 7 8 7 7 7 7 7 7 7 7 7 7 7 7 7 7 7 7 7 8 8 67 46 6 7 7 7 6 7 7 7 7 7 7 7 7 7 7 6 7 8 11 38 20 7 7 6 7 7 6 6 7 7 6 6 4 5 5 5 6 4 6 4 4 7
7 7 6 6 7 7 7 7 7 7 7 7 6 7 7 7 7 7 6 7 7 7 7 7 7 6 7 7 7 7 7 7 6 7 7 8 4 6 8 6 7 6 6 7 6 6 7 7 6 7 6 7 7 7 6 7 7 5 7 7 6 5 6 6 6 6 6 6 6 6 6 6 6 4 4 4 4 4 4 7
7 6 6 7 6 7 6 7 7 7 7 7 7 7 7 7 7 7 7 7 7 7 7 7 7 7 7 6 7 7 7 7 7 7 7 7 7 7 7 6 7 7 6 7 7 7 7 7 7 6 7 6 6 7 7 7 7 7 6 7 6 6 6 6 6 6 5 4 5 6 6 5 6 5 5 4 5 5 3 6
8 6 7 8 7 7 6 7 7 7 7 7 7 7 7 7 7 7 7 7 7 7 8 7 7 7 7 7 7 7 7 7 8 8 7 7 7 8 8 7 8 8 7 8 7 8 8 7 7 7 7 6 7 7 7 7 7 7 7 6 6 7 7 7 6 6 5 7 6 6 6 6 6 7 6 6 5 5 4 8
9 8 8 8 8 8 8 8 8 8 8 8 8 8 8 8 8 8 8 8 8 9 8 8 8 8 8 9 8 8 9 9 9 9 9 9 9 9 9 9 9 9 9 9 9 9 9 9 9 9 9 9 9 9 8 9 9 8 9 8 8 8 8 8 8 7 8 8 8 8 8 8 7 8 7 6 7 7 7 9
9 7 8 8 8 8 8 8 8 8 8 8 8 8 8 8 8 9 8 8 8 9 8 8 8 9 9 8 8 8 8 8 9 9 9 9 9 9 9 9 9 9 9 9 9 9 9 9 9 9 9 9 9 9 8 9 9 8 8 9 9 9 8 8 8 8 8 7 8 8 8 8 8 8 7 8 7 7 7 9
8 7 8 8 8 8 8 8 7 8 8 8 8 7 8 8 8 8 8 8 8 8 8 8 8 8 8 8 8 8 8 8 8 8 8 8 9 9 9 9 9 9 9 8 8 9 9 8 8 8 8 8 8 8 8 8 8 8 8 8 7 8 7 6 8 8 7 7 7 7 7 7 7 7 6 7 7 7 6 9
7 6 7 7 6 7 6 7 7 7 7 7 7 7 7 7 7 7 7 6 6 7 6 6 7 7 7 7 7 7 7 6 7 7 7 6 7 7 7 7 7 7 7 7 7 7 6 6 6 7 7 7 7 6 7 6 6 5 6 5 6 6 6 6 6 6 5 6 6 6 6 6 5 5 5 4 4 5 4 7
7 6 7 7 7 7 6 7 7 7 7 7 6 7 7 7 7 7 7 7 7 7 6 7 7 7 7 7 6 7 7 7 7 7 6 7 6 6 7 6 7 7 7 7 6 6 6 7 6 6 6 6 6 6 6 7 6 6 6 7 6 7 5 6 6 5 4 4 5 6 4 5 5 5 4 4 4 4 3 6
7 6 7 7 7 7 7 7 7 7 7 7 6 7 7 7 7 7 7 7 6 7 6 6 7 7 7 6 7 7 6 7 7 6 6 6 6 6 7 6 7 7 6 7 6 6 5 6 7 6 6 6 6 6 7 6 6 6 7 6 5 6 6 6 5 5 6 5 6 5 5 5 5 5 4 3 5 6 4 7
8 7 7 7 7 7 7 7 7 8 7 8 7 7 7 7 7 8 7 7 7 7 8 8 8 7 8 7 7 8 8 7 8 8 8 8 8 8 8 8 8 8 7 8 8 8 7 7 8 8 7 7 8 7 7 6 7 8 8 7 7 7 7 6 7 7 7 7 7 7 6 6 7 6 5 6 6 7 5 8
9 8 8 8 8 8 7 8 8 8 7 8 8 8 8 8 8 8 8 8 8 8 8 9 8 8 8 8 8 8 8 8 9 9 9 9 9 9 9 9 8 8 8 9 9 9 8 9 9 9 9 9 8 8 8 8 8 9 8 8 8 8 7 8 8 8 7 8 8 7 8 8 7 7 7 7 7 7 7 9
8 8 8 8 7 8 8 7 7 8 8 8 8 8 8 8 8 8 8 8 8 8 8 8 8 8 8 8 8 8 8 9 9 9 9 8 9 9 9 9 9 8 8 9 9 8 9 9 9 8 9 9 8 8 8 8 8 8 8 8 8 8 8 8 8 8 8 7 8 7 7 7 7 7 7 7 7 7 7 9
8 7 7 7 7 7 7 7 8 7 8 8 7 7 8 7 7 7 7 7 8 7 7 7 7 8 7 7 7 8 8 8 7 8 8 7 7 8 7 8 8 8 7 8 8 7 8 7 7 7 7 6 7 7 7 7 7 7 7 7 7 7 7 7 7 7 7 6 5 7 7 6 6 6 5 5 5 5 5 8
7 7 7 7 7 7 6 6 7 7 7 7 6 7 7 7 7 7 7 7 6 7 6 7 7 7 7 6 7 7 7 6 6 6 6 6 6 7 6 6 6 6 6 6 7 7 7 6 6 6 6 6 6 6 5 6 6 6 5 6 6 6 6 5 6 6 5 6 5 5 5 5 4 4 5 5 4 4 3 7
7 7 7 7 7 7 7 7 7 7 6 7 6 7 7 7 7 7 7 7 6 6 7 7 7 7 6 6 7 7 7 7 7 7 7 6 7 7 7 6 7 7 7 7 6 7 6 7 7 7 6 7 6 7 6 6 6 6 6 6 6 5 5 5 6 6 5 6 6 5 5 5 5 5 5 5 5 4 4 8
8 7 7 7 6 7 7 7 7 7 7 7 6 6 7 6 7 7 7 7 6 7 7 6 7 7 6 7 7 7 7 7 7 7 7 6 6 7 6 6 6 7 6 6 7 6 6 6 6 7 6 6 6 6 6 6 5 5 6 6 4 5 6 6 6 5 5 5 6 5 5 5 4 5 4 5 6 5 4 7
9 8 8 8 7 8 8 7 7 7 8 8 8 7 7 7 7 7 8 8 7 7 7 8 7 7 7 8 7 8 7 8 8 8 8 8 8 8 8 8 8 8 7 8 8 8 7 7 7 8 8 8 7 7 8 7 7 7 7 8 7 6 6 7 6 7 7 6 7 6 6 6 6 6 7 6 6 6 5 8
9 8 8 8 8 8 8 8 8 8 8 8 7 7 8 8 7 8 8 8 8 8 8 8 8 8 8 8 8 8 8 8 8 9 9 8 8 8 8 8 8 8 8 8 8 8 8 8 8 8 8 8 8 8 8 8 8 8 8 8 8 8 8 8 8 8 8 7 7 8 7 7 7 7 7 7 7 7 7 9
10 8 8 8 8 8 7 8 8 7 8 7 8 8 8 7 8 7 7 8 8 8 8 8 8 8 8 8 8 8 8 8 8 9 8 8 8 8 9 8 8 8 8 8 8 8 8 8 8 8 8 8 8 8 8 8 8 8 8 7 8 8 8 7 8 8 8 8 7 7 7 7 6 7 7 7 7 7 7 9
8 7 7 6 7 7 7 7 7 7 8 7 7 7 7 7 7 7 7 7 7 7 7 7 7 7 7 7 7 7 7 7 8 8 7 7 7 7 7 7 6 7 7 7 6 6 7 7 7 7 6 7 7 6 6 6 6 5 6 6 6 6 6 6 6 7 6 5 6 6 6 5 5 5 6 5 5 6 5 7
8 7 6 7 7 7 7 7 7 7 7 7 7 7 7 6 7 7 7 7 7 7 7 7 7 6 7 7 7 7 7 7 7 6 7 7 7 7 7 5 6 6 6 6 7 5 6 6 6 6 6 4 6 5 5 6 6 6 6 4 6 5 5 5 6 5 5 5 5 5 5 5 5 4 4 4 5 4 2 7
8 7 6 7 6 7 7 7 7 7 7 7 6 7 6 6 6 7 7 6 7 6 6 7 7 6 6 7 6 6 6 6 7 7 7 7 7 6 6 6 7 6 6 6 5 6 6 6 6 6 5 4 5 5 6 6 5 6 6 6 5 5 5 3 4 5 5 5 4 5 5 4 4 4 4 4 4 3 2 6
8 7 7 6 7 7 7 6 6 7 7 7 6 6 6 6 7 7 7 7 7 6 6 6 7 7 7 7 7 7 7 7 7 7 7 7 7 6 6 6 7 7 7 6 6 6 6 7 7 6 5 5 6 6 7 6 6 6 6 6 6 6 6 5 5 5 6 6 6 6 4 5 5 5 5 3 3 3 3 7
9 7 7 8 7 7 7 7 7 7 8 8 7 7 7 8 8 7 7 8 7 8 7 7 7 8 7 8 8 8 8 7 8 8 8 8 8 8 7 8 8 8 8 8 8 8 8 8 8 7 8 8 7 7 7 7 8 7 8 7 7 7 7 7 7 7 7 7 7 7 6 6 6 6 6 6 6 6 6 8
9 7 7 7 7 7 6 7 7 7 7 7 8 7 7 8 7 7 7 8 7 8 8 8 7 7 7 7 8 7 8 8 8 8 8 8 8 8 8 8 8 7 8 8 7 8 7 8 7 7 7 7 7 8 7 7 7 7 7 8 7 7 7 7 7 7 7 6 6 7 7 7 7 6 6 6 6 5 6 8
9 7 7 7 7 7 7 7 7 7 7 7 8 7 7 7 7 7 7 8 8 7 8 8 7 7 7 8 7 7 7 8 8 8 8 8 8 7 7 7 7 7 7 7 7 7 7 7 7 7 7 7 7 7 6 7 7 7 7 7 7 6 7 7 7 6 7 7 6 6 7 7 6 6 7 7 6 6 6 7
9 8 7 7 7 7 6 7 7 7 6 7 7 7 7 6 7 7 6 7 7 7 7 6 6 7 7 6 6 7 7 7 6 6 7 6 7 7 7 7 6 6 6 7 6 5 6 6 6 6 6 7 6 6 6 6 6 6 6 5 5 6 6 5 6 6 5 6 5 5 4 4 4 5 5 5 5 5 3 7
9 7 6 7 8 7 7 7 7 7 7 7 7 6 7 7 7 6 7 6 7 6 7 7 7 6 6 6 7 7 7 7 7 6 7 7 6 7 7 7 6 6 6 7 6 5 7 6 6 6 6 6 6 6 7 6 6 6 6 5 5 5 6 5 5 5 5 5 5 5 3 4 5 5 4 4 3 5 3 6
8 7 6 6 6 7 6 6 7 6 7 6 7 6 7 6 6 6 6 7 6 6 7 6 7 6 6 7 7 6 5 6 6 7 6 5 5 6 7 6 6 6 5 5 5 6 6 6 6 4 6 5 6 6 6 6 5 6 6 5 5 5 5 4 4 5 4 5 5 5 4 4 3 3 3 4 4 4 3 6
8 7 7 7 7 7 7 7 6 6 7 7 7 7 7 6 6 6 7 7 6 7 6 7 7 7 7 7 7 6 6 7 6 7 6 5 6 7 6 6 6 5 5 6 7 7 6 6 6 6 6 6 7 6 6 5 5 5 6 5 5 6 5 5 6 6 5 5 4 5 5 5 4 4 3 4 3 3 4 7
9 9 8 7 7 7 7 7 7 6 7 8 7 7 8 8 7 7 8 7 8 8 8 8 8 8 7 7 7 8 7 8 8 8 8 8 8 8 7 7 8 8 7 8 8 7 8 7 7 8 7 7 7 7 7 7 7 7 7 6 7 7 7 7 7 7 6 7 7 7 7 7 7 6 6 6 6 7 6 9
9 9 9 8 7 7 7 7 7 7 8 7 7 7 8 8 8 7 8 8 7 7 7 8 8 8 7 7 7 7 7 8 8 8 7 8 7 7 8 8 7 8 7 8 8 8 7 7 7 7 7 7 7 7 7 7 7 7 7 7 7 7 7 7 7 7 7 7 6 7 7 7 7 7 6 6 7 6 5 8
9 8 8 8 7 7 7 7 7 6 7 7 7 7 8 8 7 7 6 8 8 7 8 7 7 7 7 7 7 7 7 8 7 7 6 7 7 7 7 7 7 7 6 7 7 7 8 7 7 8 7 7 7 7 7 7 7 7 6 7 6 7 6 6 7 6 6 6 5 7 6 6 6 7 6 4 6 5 5 8
8 7 7 7 7 7 7 7 7 7 6 7 7 7 7 7 6 7 7 7 7 7 7 7 7 7 7 7 6 7 6 7 6 7 7 6 7 7 6 5 6 6 6 7 6 6 5 6 6 7 7 7 6 7 6 7 7 7 6 5 5 5 5 5 5 6 4 4 6 4 5 6 4 4 4 4 4 4 3 7
8 7 7 7 7 6 7 7 7 7 6 7 7 7 7 7 7 7 7 7 7 7 7 7 7 7 7 7 6 6 7 7 7 7 7 7 7 6 6 6 7 6 5 6 6 6 6 6 5 5 5 6 6 6 6 6 6 6 6 6 6 5 5 5 5 5 5 6 6 5 5 6 4 5 5 4 4 3 4 5
8 8 7 7 7 7 7 6 7 7 6 7 7 7 7 7 7 7 7 7 7 6 7 6 7 7 6 6 6 6 6 6 6 7 6 6 6 7 6 5 6 6 6 7 6 5 6 6 5 5 6 6 6 6 6 6 6 6 6 6 5 5 6 4 5 6 5 5 6 6 5 6 5 3 3 4 5 3 4 30
