P2
80 80
255
113 108 108 107 110 112 114 116 119 120 123 126 126 125 127 128 131 133 135 138 139 142 142 143 146 148 150 153 156 157 158 158 159 159 160 163 167 168 169 171 171 173 175 177 177 177 176 178 177 176 176 175 174 175 175 174 173 173 172 172 171 170 169 167 166 164 162 161 158 156 155 153 151 150 148 146 144 141 138 151
102 99 101 102 102 105 109 110 112 114 116 118 118 119 120 121 124 126 127 128 128 130 132 135 138 139 141 143 144 146 147 149 151 151 151 152 153 156 157 157 158 161 162 164 162 163 164 164 164 164 164 163 161 159 160 162 161 159 159 159 159 158 157 155 154 153 152 149 148 146 145 145 142 138 138 136 135 132 131 143
102 100 103 104 105 107 111 112 113 115 117 118 119 120 123 125 127 128 129 129 131 133 135 138 140 142 144 145 144 146 147 147 148 150 152 153 152 156 159 159 161 164 164 166 167 167 167 168 167 166 167 167 165 163 164 165 166 164 161 162 162 161 160 158 157 156 154 152 152 150 149 147 147 143 141 141 138 136 133 146
103 102 103 105 106 110 111 111 112 116 116 118 120 121 124 126 128 130 130 132 133 134 134 136 137 140 143 144 144 147 149 149 149 151 152 154 156 159 161 161 163 163 164 166 167 166 163 162 161 159 156 155 153 154 153 154 152 153 152 152 152 153 152 152 153 152 151 151 151 150 149 149 149 146 144 143 141 139 137 151
104 103 104 104 106 108 111 112 115 116 117 119 121 123 126 127 127 128 129 130 132 134 136 138 139 140 144 147 148 149 152 153 153 154 153 153 153 152 152 151 150 147 145 146 146 144 143 143 142 143 141 141 141 142 142 143 142 143 144 142 142 140 139 138 137 136 136 137 137 136 137 139 141 141 141 143 143 141 139 152
104 102 103 105 107 110 112 113 114 115 117 119 123 124 126 126 128 130 132 134 136 138 141 142 142 144 143 144 143 142 141 141 139 138 140 140 141 143 143 145 145 146 147 150 151 151 150 151 150 148 147 145 146 147 147 148 148 149 149 148 148 146 145 143 142 142 140 139 138 137 135 134 133 130 129 130 131 133 134 151
103 101 104 106 108 110 112 113 115 115 118 120 122 122 124 127 128 130 132 135 135 134 133 132 132 131 131 132 133 136 138 141 143 144 146 147 148 148 149 151 150 151 151 153 153 153 151 151 151 149 146 145 146 147 147 149 149 150 150 151 148 147 145 144 143 143 142 141 140 139 139 138 136 135 134 132 130 127 125 138
103 103 105 105 107 110 112 114 114 116 119 121 122 122 123 122 122 121 120 122 124 127 130 133 137 138 139 141 143 144 145 145 146 146 148 149 149 149 151 150 152 153 155 155 156 155 154 153 152 150 148 147 146 148 149 150 151 150 152 151 147 145 143 143 142 142 142 142 141 140 139 139 138 136 135 133 132 131 129 141
103 102 105 104 106 109 111 112 114 115 116 116 114 113 114 116 120 124 127 131 134 135 137 140 140 141 141 143 145 145 146 148 147 148 149 151 151 151 154 153 155 156 157 157 157 157 156 155 154 151 150 148 148 150 151 152 153 152 151 149 148 145 143 143 144 144 143 142 142 141 142 141 140 137 136 134 134 133 130 141
102 100 101 102 105 108 109 107 108 109 111 113 116 121 124 126 129 131 133 134 135 138 138 140 141 143 144 145 146 148 148 149 150 150 152 153 155 155 156 157 158 158 158 160 160 160 159 157 156 155 153 150 149 151 152 153 153 153 151 150 149 147 145 145 145 144 144 144 146 145 144 142 141 139 138 137 136 133 130 144
99 97 99 101 102 102 103 106 110 115 119 121 123 125 127 128 129 131 135 136 137 138 140 143 143 144 146 146 147 150 151 150 152 153 153 155 158 158 159 160 160 160 161 162 163 162 161 159 158 158 156 153 153 155 156 156 155 153 152 151 151 150 148 148 147 145 145 146 147 145 146 145 143 141 139 138 137 136 133 145
95 92 92 87 95 108 111 115 116 118 120 122 124 126 127 130 131 133 135 136 138 140 141 143 144 146 146 147 149 151 152 153 153 154 155 158 159 159 161 161 162 162 162 163 164 164 163 162 161 161 159 159 156 142 154 156 157 156 155 153 151 141 144 149 149 148 146 148 148 148 147 145 144 145 142 139 138 137 134 147
92 87 83 74 89 111 112 114 116 118 120 123 125 127 129 131 132 135 138 139 139 141 143 144 146 147 148 150 151 154 154 155 156 158 159 158 160 161 161 162 162 165 166 166 166 167 166 167 165 164 165 156 112 79 133 160 158 157 157 157 147 85 85 106 124 141 148 150 151 149 149 142 132 119 106 128 140 138 135 147
88 81 78 67 85 111 113 115 117 119 122 125 126 127 130 133 134 137 138 139 141 143 143 145 147 149 151 151 152 154 156 158 155 142 156 161 162 161 164 155 102 110 131 150 163 169 170 170 169 169 144 92 72 84 96 160 160 158 159 159 128 78 105 70 61 76 115 154 153 148 109 85 77 58 55 111 142 139 137 150
81 76 72 63 81 110 114 115 117 120 123 125 128 129 131 134 136 137 138 141 139 135 141 147 151 151 152 153 154 157 149 124 94 80 135 166 164 165 167 141 92 84 80 68 84 136 173 171 167 123 63 91 108 53 62 140 162 161 160 159 104 79 124 91 76 56 112 156 154 146 85 84 84 64 59 98 143 140 138 133
76 74 69 66 80 110 114 117 119 121 124 126 128 131 132 131 133 137 141 144 125 82 91 102 117 137 153 155 152 116 83 94 84 101 114 166 166 166 169 126 106 103 126 59 54 132 175 177 145 61 88 131 122 92 79 103 162 163 164 153 77 72 95 75 100 81 138 158 157 151 95 88 93 116 88 93 141 143 129 88
78 79 76 72 80 109 116 118 120 122 125 122 101 92 89 84 110 140 142 144 117 101 132 100 74 89 149 156 152 93 93 82 89 122 99 162 169 168 170 114 121 125 121 83 64 156 177 178 166 89 114 129 75 79 83 71 148 166 166 136 61 87 97 97 120 97 157 160 158 155 109 93 92 96 83 79 139 145 136 96
84 84 82 76 80 109 117 118 121 123 126 116 84 85 105 96 92 139 141 144 113 76 97 85 89 89 151 158 160 115 84 55 111 101 67 149 172 171 168 104 126 125 115 69 81 171 178 178 180 130 87 166 131 93 62 104 159 168 166 116 61 104 94 107 65 120 165 161 159 160 119 78 92 62 53 71 137 146 143 117
87 88 87 80 80 106 117 118 121 123 126 123 83 89 104 86 86 137 143 145 112 89 58 86 90 96 155 159 162 141 82 78 115 121 80 125 173 174 163 75 100 112 103 65 106 181 181 182 183 168 97 122 104 83 138 172 171 170 167 153 132 112 91 77 68 150 167 164 162 161 132 78 74 85 106 130 149 149 145 144
90 90 90 82 80 102 118 120 121 123 126 128 81 81 70 68 80 134 144 148 108 103 75 84 66 96 158 161 163 160 100 104 127 74 78 117 175 176 167 104 91 103 74 51 136 185 182 184 185 184 130 60 106 164 182 180 176 174 173 172 173 172 167 151 145 167 168 168 164 163 152 136 148 155 157 154 152 150 146 156
92 92 92 83 80 98 118 120 123 125 128 130 96 68 75 93 89 124 146 149 120 90 78 92 62 102 162 163 165 169 117 65 93 104 140 167 177 178 180 178 170 152 130 112 167 188 186 187 188 187 171 148 181 187 184 184 183 181 179 178 178 178 176 176 176 173 171 170 168 165 165 166 161 160 158 157 154 153 150 162
93 92 94 86 80 93 117 121 122 125 128 132 108 65 76 84 90 126 146 149 151 146 134 118 96 123 164 164 167 169 156 127 154 173 179 179 180 182 183 185 187 188 188 187 190 191 190 191 191 189 190 190 190 188 188 187 186 185 183 183 182 179 180 179 175 174 172 172 169 168 167 169 164 161 160 159 157 154 150 165
94 92 95 90 81 87 115 121 124 126 128 131 131 127 130 136 140 143 147 151 152 155 158 160 161 159 165 166 169 171 174 175 176 178 181 182 183 185 186 186 188 187 189 191 192 192 193 193 192 192 192 193 192 191 191 191 189 186 187 185 186 186 170 161 181 177 175 176 173 171 168 138 155 167 163 160 159 155 152 167
94 93 95 92 83 84 112 123 125 127 129 132 135 138 140 142 144 147 148 150 153 156 158 160 163 165 168 169 170 173 175 177 180 181 183 184 185 188 189 191 192 190 192 195 197 196 197 197 197 199 197 196 195 192 193 193 192 190 190 191 185 143 98 99 177 180 179 177 176 174 137 62 83 142 166 162 160 157 154 169
95 93 94 94 85 82 107 122 125 127 130 133 135 138 140 144 145 149 151 153 155 157 159 158 165 168 169 172 174 176 178 181 183 181 176 187 189 189 191 192 190 189 187 183 186 198 199 201 196 153 133 126 116 108 142 197 196 195 195 166 114 116 143 102 150 185 181 179 179 161 89 106 97 79 121 159 162 159 157 122
94 93 95 96 88 82 100 122 125 127 131 133 136 140 126 112 140 151 152 154 156 159 153 100 120 161 173 173 176 177 180 169 146 113 94 176 194 194 197 162 112 104 100 96 123 200 203 204 187 81 101 98 118 117 132 201 198 194 139 87 94 138 96 124 113 184 184 182 178 105 60 150 123 78 67 129 166 158 115 72
96 95 95 97 91 81 94 122 125 128 131 135 137 141 103 53 74 118 149 155 156 161 133 103 119 92 135 172 178 180 134 90 92 116 62 150 197 197 201 145 133 145 98 110 124 202 206 206 181 99 126 118 184 106 145 204 201 195 111 83 99 122 61 116 90 165 189 186 135 58 102 133 108 74 85 159 168 136 71 130
96 94 96 97 95 83 88 118 125 129 131 134 136 137 87 69 58 62 95 142 159 161 113 92 113 73 59 114 179 186 123 99 154 134 103 128 198 200 204 153 129 164 131 77 115 208 209 211 181 99 95 108 94 71 160 208 205 204 161 60 95 122 74 93 76 158 192 183 109 57 117 83 80 84 147 172 170 156 101 123
94 94 96 98 98 86 83 112 126 129 132 134 138 129 82 103 102 112 92 133 162 154 96 142 128 110 87 110 183 186 165 97 110 135 160 97 187 202 206 158 76 153 162 100 113 212 213 216 175 136 173 115 105 94 173 212 207 208 197 102 114 144 94 115 172 192 192 189 180 135 79 49 53 124 176 174 171 168 141 89
97 94 97 98 99 90 81 105 126 129 131 136 139 122 77 83 111 121 90 148 163 154 87 116 136 114 93 149 185 188 186 119 116 135 120 60 167 208 210 162 97 121 139 106 127 216 218 219 173 108 137 130 110 96 194 216 213 211 211 155 70 109 167 201 203 198 197 193 193 190 165 100 106 178 179 176 174 171 166 134
97 94 96 98 99 94 82 96 124 128 132 135 139 139 122 93 75 86 109 157 163 165 159 123 91 113 104 174 187 190 194 149 113 100 109 143 194 210 212 183 126 126 126 134 174 222 221 221 207 181 183 190 197 206 217 217 216 216 213 199 169 202 210 207 204 202 199 198 196 193 192 184 181 186 180 179 176 174 171 179
97 94 95 97 99 98 84 87 120 129 131 136 139 141 145 144 120 83 128 161 164 167 171 175 160 118 134 187 189 191 196 187 148 178 202 211 211 211 213 215 216 219 220 224 225 225 226 225 226 229 227 227 227 226 224 223 221 218 216 216 217 212 211 208 207 204 203 201 199 197 193 192 189 186 183 181 177 175 172 189
96 93 94 96 98 99 88 82 113 130 131 135 139 142 140 146 153 153 155 161 165 168 172 175 179 182 184 187 190 194 197 201 206 207 210 212 213 215 218 219 222 226 224 227 228 229 229 228 228 228 229 231 231 228 227 226 225 223 224 223 221 218 219 213 211 209 206 203 198 193 197 198 193 189 186 185 182 181 177 195
95 94 94 95 97 99 93 80 103 128 132 136 139 142 146 149 153 155 160 164 167 170 174 176 180 184 190 192 193 197 200 201 206 210 210 215 217 218 223 224 224 215 229 232 233 236 233 234 236 237 232 215 199 227 233 231 229 224 204 195 192 183 179 202 215 213 210 209 146 94 127 152 176 190 190 188 182 142 123 140
94 93 94 94 96 99 96 82 93 127 132 135 139 144 147 150 152 109 123 163 167 171 174 179 180 170 148 158 197 200 203 206 208 173 114 192 223 223 227 232 204 95 140 214 241 241 239 237 215 179 146 111 114 215 238 236 235 193 90 105 78 125 112 174 221 216 214 194 82 115 164 104 92 149 196 191 172 107 86 82
93 92 94 95 96 98 99 86 84 121 133 136 140 143 146 152 121 75 69 116 164 173 176 149 107 86 85 103 186 204 206 194 128 89 127 128 219 228 229 234 151 101 117 116 161 232 245 223 120 158 143 120 86 201 243 240 239 172 130 140 109 107 117 194 225 220 217 152 89 137 191 133 95 174 198 193 159 113 95 88
92 91 94 95 95 97 99 91 80 113 133 136 140 143 147 133 95 87 87 84 109 162 179 142 90 108 122 65 153 208 208 134 110 127 156 84 164 232 235 199 126 167 148 121 79 219 251 238 127 132 111 141 104 180 247 245 243 163 144 122 157 91 98 214 228 224 204 96 108 122 179 135 132 201 199 196 142 95 78 99
92 91 93 95 95 97 99 96 81 100 130 135 139 144 148 129 87 92 123 114 70 141 180 175 122 124 110 90 123 201 213 182 136 148 97 86 96 218 239 153 114 204 233 108 157 252 252 252 161 134 125 155 110 158 250 249 242 143 93 135 151 151 137 226 231 227 171 76 88 94 166 103 182 206 201 195 124 111 91 56
90 89 92 94 94 95 97 100 86 90 126 135 139 143 146 151 132 98 109 90 115 171 179 184 143 95 151 108 112 193 214 218 155 66 83 107 181 232 240 222 161 160 196 137 234 254 254 255 186 81 86 114 163 217 252 253 245 160 129 133 121 133 180 236 234 230 218 190 155 125 117 143 208 208 204 198 149 126 125 132
89 88 91 93 93 94 96 99 92 82 118 134 137 142 146 150 155 147 109 105 163 176 179 185 178 121 139 171 196 208 213 218 217 131 149 217 239 240 243 248 250 219 160 204 255 254 255 255 236 196 229 251 255 255 254 255 253 249 246 245 245 244 241 239 237 233 233 231 227 220 205 209 213 208 206 204 201 200 194 211
87 86 88 90 91 93 95 97 95 80 106 132 137 142 146 150 152 158 157 159 171 174 180 184 187 194 201 205 207 210 214 219 224 223 231 236 237 242 246 249 251 254 255 255 254 255 255 255 255 255 255 255 255 255 255 255 255 253 253 252 251 249 245 242 238 236 234 230 229 225 222 220 215 211 209 206 203 200 195 210
85 84 87 89 91 93 94 96 97 83 94 129 137 141 144 149 152 157 164 166 165 176 180 185 189 193 188 202 209 212 218 221 225 232 235 240 244 246 249 251 255 255 243 249 255 255 255 255 255 237 251 255 255 255 255 255 255 255 255 252 242 246 250 246 243 241 238 231 186 203 226 222 218 214 211 204 189 197 199 214
84 83 86 86 89 92 93 96 98 89 85 123 136 139 144 148 152 157 149 110 103 163 180 184 190 180 118 133 184 214 218 225 200 161 167 168 193 247 253 255 246 198 124 168 255 255 255 255 233 132 134 207 254 255 255 254 239 211 171 147 116 205 254 250 247 246 226 155 97 117 209 227 220 217 214 165 114 128 142 186
82 81 84 85 88 91 93 94 97 94 81 112 134 137 142 147 151 127 96 111 107 109 174 183 190 142 119 89 105 153 211 229 175 98 91 118 128 243 255 221 140 171 140 116 223 255 255 252 154 129 142 78 151 236 255 250 150 135 130 139 111 181 255 251 246 212 151 108 93 80 127 213 223 219 204 104 154 151 78 115
81 81 81 85 87 90 92 94 94 96 83 98 128 135 139 144 149 122 99 128 133 115 130 181 178 106 115 140 118 113 210 229 188 114 145 158 119 241 255 222 107 121 192 126 131 250 255 197 176 205 164 80 127 238 255 255 161 145 158 147 125 160 254 255 220 124 142 138 91 133 122 163 227 221 165 110 122 103 82 168
79 80 81 84 86 89 91 93 93 95 87 87 123 132 138 141 146 150 126 119 109 101 127 178 179 135 108 129 128 162 221 226 199 96 133 118 137 238 255 255 178 144 202 140 174 250 255 207 158 135 109 135 216 255 255 255 189 174 139 65 69 139 253 255 245 158 93 117 133 108 151 217 227 205 117 108 112 136 129 209
79 79 80 83 85 87 90 92 91 93 92 81 114 130 134 138 143 148 151 120 109 145 174 180 186 191 178 145 134 205 221 225 221 180 176 180 199 249 255 255 250 174 184 232 255 255 255 255 242 184 113 192 255 255 255 255 217 115 129 161 194 228 254 254 255 246 159 80 129 189 232 231 227 212 165 134 129 104 168 218
79 78 79 81 83 85 88 90 91 91 93 82 101 126 131 135 140 145 151 152 157 168 173 178 183 191 196 202 205 215 219 223 230 238 244 252 255 254 255 255 255 254 255 255 255 255 255 255 255 255 246 254 255 255 255 255 254 248 255 255 255 255 255 255 254 253 241 182 213 239 233 231 227 221 221 214 198 186 200 216
77 77 78 80 81 84 86 89 90 91 91 86 91 121 127 131 136 142 146 152 157 162 168 175 180 187 195 197 178 205 218 223 230 237 237 215 243 255 255 255 255 243 248 255 255 255 255 255 255 255 255 255 255 255 255 255 255 255 255 255 255 255 255 255 253 252 250 250 243 237 234 230 224 220 218 215 213 209 201 214
75 76 77 79 81 82 84 87 89 90 90 88 83 112 122 127 132 137 141 112 96 102 102 154 179 182 165 119 94 150 215 222 226 204 145 125 189 255 255 255 247 135 164 218 252 255 255 246 223 192 185 199 255 255 255 255 248 231 208 193 244 255 255 255 255 247 192 178 237 235 232 227 223 221 211 178 173 205 200 214
75 75 76 78 80 81 83 84 86 89 89 90 82 102 118 123 127 132 136 103 88 75 68 134 176 162 105 122 124 103 170 222 202 125 133 174 130 209 255 254 184 136 171 154 168 250 255 191 113 131 156 143 247 255 255 191 142 175 111 73 209 255 255 255 234 171 138 132 164 232 228 224 212 174 110 97 121 195 199 213
74 74 75 77 78 80 82 83 85 86 87 88 82 91 113 118 122 127 133 110 81 79 87 120 167 172 133 125 163 122 128 208 217 163 141 140 121 141 254 238 157 189 182 190 180 254 255 212 111 190 181 128 221 255 255 193 142 197 174 129 184 255 255 210 110 151 179 140 97 161 226 216 123 88 83 101 111 171 198 210
74 73 75 76 77 80 81 82 84 85 87 87 85 84 105 112 116 121 127 118 88 95 96 121 160 168 165 129 122 139 187 208 217 209 125 111 175 231 255 253 228 193 135 164 247 255 255 243 139 187 195 143 202 255 255 220 129 184 181 161 166 253 254 203 92 144 141 154 125 158 219 216 131 96 156 169 134 154 194 206
73 72 73 75 76 78 79 81 82 84 86 86 85 81 98 108 112 116 120 124 127 132 139 146 153 160 167 162 164 188 195 202 209 215 202 211 241 252 255 255 255 254 216 227 255 255 255 255 212 208 224 239 251 255 255 243 143 133 168 186 217 250 248 247 196 113 88 123 194 219 213 212 178 85 105 132 164 184 187 203
72 72 73 73 75 77 79 80 81 82 84 86 86 80 90 103 107 111 114 119 123 125 123 138 145 151 158 164 159 175 186 192 199 207 219 228 237 244 249 254 255 255 255 255 255 255 255 255 255 255 255 255 254 253 252 252 244 246 252 251 249 244 242 238 234 188 156 209 216 212 208 205 196 144 161 187 190 185 181 199
72 70 72 72 74 76 77 78 79 81 83 84 85 81 85 98 102 105 109 112 114 84 76 111 134 143 151 130 98 121 157 180 191 178 134 143 142 193 242 251 244 193 212 238 253 255 255 248 232 233 234 239 245 243 240 241 244 242 245 245 241 238 237 231 229 225 220 213 207 205 201 199 196 196 193 187 182 179 175 193
71 69 71 72 73 74 76 77 78 80 81 83 83 82 80 92 98 101 104 108 87 75 71 80 101 133 138 90 80 100 90 142 184 157 103 99 68 146 231 243 208 159 156 153 191 255 255 205 151 145 151 161 224 231 224 172 158 164 174 198 231 231 226 209 168 180 193 201 200 197 191 188 177 159 147 171 176 173 167 184
69 69 70 71 73 73 74 76 77 79 80 81 82 82 79 88 94 96 100 102 90 74 77 77 94 128 121 94 96 88 82 150 173 155 100 108 89 134 218 230 180 149 165 184 197 254 252 190 135 155 155 140 206 217 206 124 137 141 110 140 220 222 216 169 156 137 123 129 180 189 163 106 117 100 90 155 168 163 160 175
69 68 69 71 71 72 73 75 76 77 78 79 81 81 79 83 90 92 96 98 101 94 74 86 115 121 125 123 108 85 117 154 159 155 108 122 116 143 206 216 187 158 164 183 225 247 241 182 118 102 100 120 197 205 190 120 114 149 128 156 210 212 195 143 167 115 115 120 178 180 143 87 124 117 109 147 159 155 150 164
69 67 68 69 71 71 72 73 74 75 76 77 80 80 79 79 87 89 92 94 97 100 99 106 111 114 120 124 128 126 136 144 149 154 158 164 170 180 193 203 215 222 219 213 235 234 227 201 166 145 126 142 187 190 181 116 104 142 123 160 203 203 179 139 146 122 106 157 175 171 141 83 92 111 112 142 150 146 142 154
67 66 67 68 69 70 71 72 73 75 76 77 77 78 79 77 82 86 88 91 93 96 99 101 104 109 113 116 120 126 128 134 139 145 151 157 164 172 180 190 204 215 223 228 226 220 212 204 195 189 185 180 176 175 173 170 168 165 169 182 191 192 190 183 168 144 140 170 165 162 144 102 115 131 138 143 140 137 134 143
66 65 66 67 67 68 69 71 72 73 74 75 76 77 79 78 80 83 84 87 88 91 93 96 99 102 106 109 113 116 119 124 128 133 137 143 148 155 164 174 187 197 206 211 209 205 196 185 178 173 169 165 163 160 159 160 161 163 168 170 175 178 181 180 179 173 167 161 155 150 147 145 143 139 137 134 131 128 124 130
64 63 65 65 66 67 68 69 70 71 72 73 75 77 77 78 78 79 81 82 84 87 89 91 94 95 98 101 105 107 110 114 117 121 124 129 133 140 147 154 165 174 186 188 187 183 175 168 161 156 153 150 147 146 144 145 145 146 149 152 157 161 163 163 163 158 153 148 143 139 136 132 129 127 125 122 120 117 113 116
63 62 63 64 65 66 66 67 69 69 71 72 73 74 75 76 77 79 80 82 83 85 87 88 90 92 95 98 100 103 105 108 111 113 115 119 122 125 129 132 137 141 148 149 151 150 148 146 142 139 137 136 134 133 131 132 132 133 136 139 143 146 146 147 147 145 140 135 130 127 122 120 118 117 114 113 108 107 104 109
62 61 62 63 64 65 65 66 67 68 69 70 72 73 73 75 76 77 79 80 82 84 86 88 90 92 95 96 98 100 103 105 108 110 112 116 118 120 123 125 126 127 129 129 129 130 129 130 128 127 126 125 124 123 121 122 121 121 122 123 124 126 128 128 128 127 125 121 117 116 113 111 110 107 105 104 101 100 99 105
61 60 61 62 63 63 64 64 66 67 66 68 70 70 71 73 75 76 77 79 80 81 84 88 91 93 95 94 95 100 103 100 105 107 110 113 115 118 120 122 124 125 127 127 128 127 127 126 125 124 123 122 121 120 119 118 117 116 116 115 114 113 114 112 112 111 111 110 108 107 107 106 104 104 103 101 99 98 96 102
60 60 60 61 62 63 63 64 65 66 66 67 69 69 70 71 73 75 76 77 79 83 85 87 90 92 94 94 94 96 98 99 102 104 107 110 113 115 117 120 121 123 124 124 124 125 123 122 122 121 120 119 118 117 116 115 115 113 114 113 112 112 111 110 111 110 108 108 107 105 105 104 103 101 99 99 98 96 94 100
60 59 60 60 61 62 62 64 64 65 66 66 67 68 69 71 72 73 73 76 79 82 84 86 89 90 93 94 92 93 95 98 100 102 105 108 111 113 115 118 120 122 122 124 123 123 121 121 120 119 118 117 116 114 114 113 112 111 111 111 110 109 109 108 108 107 106 106 105 104 104 102 101 100 98 97 96 94 92 97
59 58 59 59 60 61 62 63 64 65 65 66 67 67 69 70 71 72 73 76 79 81 83 85 86 89 90 91 90 91 93 95 98 101 103 107 109 111 114 117 121 123 123 124 124 123 121 121 119 117 116 114 113 112 111 111 110 109 108 108 108 107 107 106 105 105 105 105 103 102 101 101 99 99 97 95 94 92 91 96
58 58 59 59 60 61 62 63 63 64 65 66 66 66 67 69 70 71 73 77 80 81 82 82 84 87 88 90 89 90 92 93 96 98 101 104 107 109 112 114 118 120 121 122 121 121 120 119 117 117 115 114 113 111 109 108 108 107 107 106 106 105 105 104 104 105 103 103 102 101 101 100 99 98 97 95 93 91 90 95
58 58 58 59 60 60 61 62 62 63 64 65 65 65 66 68 69 70 73 77 79 78 80 81 83 85 86 88 88 88 90 92 94 97 100 102 106 108 110 113 115 118 119 121 120 120 118 117 115 114 113 112 110 108 108 107 106 106 104 103 104 103 103 104 103 103 102 101 101 100 99 98 97 96 95 93 92 89 88 93
58 58 58 59 59 59 60 61 62 62 63 64 64 64 66 66 68 69 72 75 76 77 79 80 82 82 85 87 87 86 89 91 93 96 98 102 105 108 110 113 117 120 123 123 121 119 118 115 116 114 111 109 108 107 106 104 104 104 103 102 102 102 102 101 101 101 101 100 99 99 99 97 97 96 94 93 91 89 87 92
56 57 57 58 59 59 59 60 61 61 62 63 63 63 64 65 66 68 72 74 75 76 77 79 79 81 85 84 84 85 87 89 91 94 97 100 102 106 109 112 116 123 130 131 124 119 118 117 115 113 111 109 107 106 105 103 102 102 102 101 101 101 100 100 100 100 100 99 99 99 98 97 96 95 94 92 90 88 85 90
55 55 55 56 58 58 59 60 61 61 62 62 62 63 64 65 65 67 70 73 75 75 77 78 78 80 82 82 82 82 84 86 88 90 92 95 97 100 103 106 110 120 127 127 120 115 113 112 111 110 108 107 106 105 103 103 101 100 100 100 100 99 100 99 99 99 98 98 98 97 96 95 94 92 91 89 87 85 83 88
56 54 54 55 55 56 57 59 59 60 61 62 62 62 63 63 64 66 68 72 73 74 75 77 78 79 78 78 78 80 81 83 85 87 88 90 93 96 98 101 105 121 129 126 113 108 107 106 105 104 103 102 102 101 100 99 100 98 98 98 98 97 97 97 96 95 95 94 93 93 91 91 89 87 86 85 83 82 80 84
56 55 55 55 56 55 56 56 57 58 59 59 60 61 62 63 63 64 66 71 73 74 75 76 77 75 75 75 75 76 78 79 82 83 85 86 89 90 92 95 99 108 113 109 104 101 101 100 100 99 98 97 97 97 96 96 95 95 94 94 95 94 93 93 92 91 90 90 89 88 88 86 85 84 82 81 80 78 77 82
56 55 55 55 56 56 56 56 56 57 57 57 57 58 60 60 62 62 64 68 71 72 73 73 73 72 72 73 72 74 75 76 78 81 82 83 85 86 90 91 96 105 108 105 101 99 97 95 95 94 93 93 93 94 93 92 91 91 91 90 89 90 89 88 88 87 86 85 85 84 83 82 81 80 78 77 76 75 74 79
57 56 56 56 56 56 56 56 57 57 57 57 57 58 58 58 59 60 61 64 66 69 70 69 69 69 70 70 71 72 73 74 76 77 78 81 84 86 86 89 95 103 108 104 98 95 95 93 91 90 89 89 89 89 88 88 88 87 87 87 85 85 85 84 84 83 82 82 81 80 79 80 78 77 76 75 74 74 72 76
56 56 56 56 56 57 57 57 57 57 57 57 58 58 58 59 59 59 60 60 62 62 63 64 65 66 67 68 69 70 71 72 74 74 76 78 81 83 85 89 94 98 102 103 98 93 91 89 89 87 85 86 85 85 84 84 83 83 82 83 83 81 81 81 81 80 80 79 78 78 77 77 76 75 74 74 72 72 71 72
57 57 57 57 57 57 57 58 58 57 57 58 59 59 59 60 60 60 61 61 62 62 63 63 63 63 64 65 65 67 68 69 72 74 75 79 82 84 88 91 97 127 142 136 109 97 93 91 89 87 86 86 86 86 85 85 84 83 83 83 82 81 81 81 81 82 81 80 79 79 79 78 77 76 74 73 71 70 68 84
