P2
80 80
255
114 108 108 111 113 115 115 116 119 121 122 124 125 128 130 132 133 136 137 138 138 140 143 145 147 150 151 154 156 156 159 161 162 164 166 166 166 169 170 171 172 172 173 175 176 177 177 176 177 178 174 173 173 171 169 169 170 170 170 168 165 164 162 159 158 157 157 155 153 152 150 149 148 147 144 142 140 140 141 153
102 100 102 103 105 107 109 110 111 112 114 118 117 119 121 123 124 127 128 129 131 132 133 136 137 140 141 143 142 143 145 146 149 149 151 152 154 154 156 159 160 159 161 163 163 163 164 163 164 165 164 163 162 161 161 160 161 158 159 157 159 155 154 152 149 148 147 145 144 143 140 139 138 137 135 134 132 129 128 144
103 101 103 105 107 109 112 113 112 114 115 118 119 121 125 125 126 127 127 129 131 132 133 135 136 139 142 144 144 145 148 148 150 151 151 154 154 156 158 159 158 161 163 165 167 166 165 166 167 167 166 165 165 164 162 163 164 162 162 162 160 161 159 158 155 154 152 150 149 147 144 144 143 141 138 136 135 132 131 147
104 102 103 105 107 109 110 111 114 115 116 119 121 123 123 125 126 128 130 132 134 135 137 138 139 141 142 146 148 149 152 152 153 155 154 157 157 159 161 162 162 164 164 167 167 170 169 168 168 167 165 166 166 164 164 165 166 166 164 163 161 162 161 159 156 156 154 153 151 150 148 148 145 143 141 139 137 135 135 148
103 101 104 106 108 109 111 112 114 116 117 119 120 121 124 127 127 129 131 134 135 136 137 139 140 140 140 141 142 143 144 144 145 144 144 145 146 147 147 148 149 149 148 149 151 152 151 150 150 151 151 151 152 153 155 158 159 161 161 161 162 161 160 160 158 157 156 154 153 152 152 152 149 145 144 142 141 138 137 152
103 102 105 106 108 110 111 113 115 117 118 120 121 121 122 122 122 122 123 124 125 125 126 127 127 128 130 131 131 134 135 137 137 138 140 141 143 142 143 145 145 145 147 148 148 149 147 147 145 144 141 141 141 141 142 142 142 143 144 145 144 146 146 148 148 149 149 153 152 153 155 154 152 149 148 146 143 142 140 154
103 100 104 106 108 109 111 112 113 113 113 112 112 112 112 115 117 119 122 127 129 130 132 135 135 137 138 138 140 142 143 143 145 145 147 146 148 148 148 149 149 151 152 153 154 154 152 151 149 148 146 144 144 146 147 148 148 149 149 149 146 144 142 140 139 138 138 138 138 140 144 147 149 151 151 150 146 145 142 156
101 99 104 104 105 104 105 105 106 107 110 114 117 120 123 125 127 129 130 131 132 134 135 138 139 138 140 140 142 144 144 145 146 147 148 148 149 151 151 150 151 153 154 155 156 155 153 152 152 150 147 146 145 145 147 149 150 150 151 150 147 145 143 141 142 142 142 141 139 139 137 136 135 137 140 142 144 146 143 155
99 98 98 97 100 103 107 111 114 116 119 121 123 124 125 126 129 129 131 133 133 135 136 138 138 141 141 142 144 145 146 147 148 149 149 152 151 152 153 154 155 156 157 158 158 159 156 154 152 150 148 147 147 148 150 150 151 151 151 148 146 143 142 142 142 142 141 142 142 142 141 141 139 137 136 133 134 134 134 151
85 89 102 105 108 111 112 114 116 118 120 122 123 125 126 127 130 131 133 134 135 138 139 140 140 142 144 145 147 147 148 149 149 151 151 153 155 155 156 156 157 158 159 159 160 160 160 157 155 153 150 149 149 150 151 152 152 151 150 150 147 145 144 144 144 143 144 142 144 143 142 143 140 140 138 136 135 133 130 141
70 86 107 108 110 111 113 115 117 119 121 123 124 127 127 128 130 132 134 137 137 139 140 142 143 144 145 146 147 149 150 151 152 153 153 156 157 157 159 160 160 162 162 163 163 163 161 159 157 156 154 153 153 153 155 155 154 153 151 150 150 147 147 147 146 145 146 145 145 146 144 143 142 140 140 138 135 135 132 144
64 83 107 108 110 112 114 116 118 120 122 124 126 127 127 130 132 134 136 137 138 140 142 143 144 145 146 147 150 151 151 152 152 153 155 158 159 159 160 161 161 163 162 163 164 165 163 162 160 160 158 156 157 158 156 156 154 155 153 153 153 151 149 148 148 147 146 148 148 148 146 144 143 142 140 139 138 135 133 145
62 81 107 109 111 113 114 115 119 120 122 125 127 128 130 132 133 134 137 138 141 142 143 144 146 147 148 150 151 152 152 154 157 157 157 158 158 159 160 161 160 164 165 166 167 167 166 165 163 163 161 164 156 132 154 158 156 155 155 155 152 152 153 150 149 149 150 150 151 149 148 147 144 143 142 141 140 137 134 147
64 81 107 110 112 114 116 118 120 121 123 127 129 129 132 132 134 136 137 136 123 133 141 147 148 149 149 151 152 154 156 149 131 106 134 162 160 162 163 164 117 102 128 152 167 171 169 169 167 166 167 143 95 79 136 162 160 157 158 157 115 96 125 143 151 151 152 152 153 153 150 147 143 144 143 142 141 139 136 148
69 82 108 110 112 115 117 119 121 121 119 118 116 112 115 132 136 137 139 126 77 85 90 107 126 143 151 152 152 133 106 91 77 85 106 162 163 164 164 160 99 91 80 74 93 129 169 171 170 162 117 80 80 75 99 163 161 160 160 151 87 90 75 78 105 141 156 154 144 123 107 88 88 138 147 145 142 141 136 142
73 81 108 111 113 115 117 119 123 108 79 76 76 86 77 126 137 138 141 117 92 136 118 77 75 109 154 154 147 86 79 96 88 107 99 156 165 165 166 152 100 103 126 77 49 94 171 173 163 92 56 105 122 57 69 147 164 163 162 134 79 122 93 67 62 132 158 155 105 78 78 52 65 133 149 145 143 125 90 103
77 81 107 112 113 116 118 120 123 108 85 90 107 113 72 119 138 139 142 114 70 93 87 90 78 111 156 155 156 102 99 59 95 125 84 141 169 167 170 138 109 123 130 98 54 121 177 176 165 79 108 133 99 97 86 116 166 164 164 107 65 96 81 93 85 152 159 158 108 85 96 97 76 127 149 143 107 81 84 94
78 80 105 112 115 117 118 121 124 116 71 85 90 83 72 110 139 140 144 109 91 60 74 93 81 121 157 157 161 125 71 60 100 113 61 119 170 169 172 122 113 126 127 87 60 148 180 177 178 122 89 140 94 79 65 88 162 166 156 78 78 99 98 116 113 164 162 160 121 95 94 108 84 119 151 140 92 107 99 62
78 79 103 113 115 117 120 122 124 121 73 80 67 68 71 103 140 141 144 101 104 78 75 84 62 131 158 158 162 148 92 98 121 118 91 98 169 172 173 98 80 115 105 82 73 170 181 180 182 160 95 160 126 84 88 147 169 169 145 72 94 98 104 73 141 167 165 164 129 83 97 69 58 110 151 149 106 86 97 84
80 78 100 114 115 118 120 123 124 125 84 63 74 85 96 93 139 141 146 111 84 77 87 81 60 139 159 161 163 164 100 83 115 68 80 114 169 175 175 129 92 101 90 51 98 182 183 183 183 182 115 75 87 122 172 179 176 173 167 150 125 99 76 86 164 169 166 167 138 80 70 78 100 138 154 152 129 79 76 80
81 77 97 113 116 118 121 123 126 128 96 64 75 79 85 102 140 145 147 147 138 123 105 85 78 147 162 163 165 169 131 73 104 132 158 172 174 177 178 179 174 157 132 100 141 188 186 187 186 187 155 100 155 186 184 182 181 179 178 178 178 173 157 156 173 171 169 168 156 130 144 157 160 159 155 154 144 79 69 123
81 77 92 114 118 119 121 124 126 128 127 126 128 132 135 139 142 146 148 150 152 154 156 151 145 157 164 166 167 169 167 159 170 177 177 177 179 180 181 182 184 187 188 184 186 190 190 190 191 189 185 185 189 187 187 186 185 183 181 181 181 180 180 177 175 174 172 172 170 169 166 166 162 160 159 156 151 132 138 163
81 77 89 114 118 120 121 125 127 129 132 134 135 138 140 142 144 146 149 151 153 154 157 159 163 162 165 167 170 172 173 175 175 178 179 180 181 183 184 186 187 188 189 191 191 193 192 192 192 191 191 191 190 188 189 189 188 186 185 185 184 183 182 178 178 177 173 173 171 171 169 166 164 163 160 158 155 155 152 165
81 77 85 111 118 120 122 125 126 130 133 133 136 140 141 144 146 148 149 151 154 157 160 162 163 164 167 169 171 173 174 177 179 180 183 183 184 186 187 187 190 192 193 195 195 197 196 195 195 197 196 196 197 197 194 193 190 189 189 190 186 147 156 184 182 180 178 176 167 132 162 171 167 164 162 159 159 150 147 167
83 78 81 107 118 120 123 125 128 131 133 134 127 123 142 146 147 149 152 153 156 156 125 139 165 169 170 173 174 175 178 181 181 172 163 183 189 189 189 190 189 188 190 188 189 199 199 199 198 177 165 160 154 150 180 197 194 193 195 169 119 105 114 185 184 182 181 180 126 62 96 153 172 167 166 164 148 98 116 169
86 79 79 102 118 121 124 127 129 130 134 137 101 59 89 128 149 151 152 154 157 147 92 97 115 157 173 174 175 176 170 147 121 100 75 163 193 192 195 174 112 107 103 99 116 194 204 204 191 89 90 92 95 97 163 199 197 187 136 100 137 136 109 166 188 184 185 152 86 128 97 88 140 169 169 150 87 82 81 155
89 80 78 97 119 122 125 127 129 132 135 133 79 52 48 59 96 137 154 157 160 125 89 138 90 72 127 169 178 176 102 82 103 130 62 135 196 195 198 164 121 154 102 104 116 195 205 206 182 99 130 129 173 112 176 203 202 140 86 93 115 85 121 138 192 188 176 89 78 154 94 67 112 172 152 94 78 87 96 113
92 80 78 90 118 122 125 127 129 132 135 121 76 100 89 79 90 91 150 158 157 104 105 109 84 76 56 142 181 184 116 113 155 133 115 120 193 197 202 169 121 161 144 82 102 203 208 210 179 95 90 119 108 84 191 207 205 166 71 99 121 71 96 101 189 191 124 58 129 111 96 92 164 176 139 90 136 139 94 96
95 82 79 85 114 122 125 128 130 133 136 103 73 91 100 123 94 106 154 160 145 77 140 154 106 123 80 162 184 187 157 93 101 137 163 88 179 202 206 175 75 140 166 111 97 208 213 214 173 137 155 98 94 110 200 211 209 199 102 105 136 85 103 156 195 193 156 92 85 58 71 150 181 176 170 115 99 118 95 157
97 85 78 81 109 122 124 128 130 132 136 114 78 79 100 125 88 127 157 159 153 102 98 121 113 95 113 180 184 186 183 114 123 132 113 57 160 207 208 177 96 118 140 112 116 212 216 219 166 118 147 133 94 118 211 213 212 210 154 83 114 146 193 204 198 198 196 179 114 62 123 186 182 178 177 155 99 97 145 183
98 88 79 79 102 122 124 127 131 133 136 139 132 105 71 63 86 146 159 162 164 166 144 98 105 99 150 185 187 188 194 137 110 99 116 151 191 208 210 192 129 127 123 128 164 219 221 221 199 164 168 176 181 201 218 217 215 215 194 140 185 212 210 206 204 201 199 198 189 163 182 188 184 183 179 176 144 153 169 183
99 91 80 77 93 120 125 128 130 133 134 139 142 145 138 104 114 153 159 163 166 169 173 172 142 121 177 188 189 192 196 181 157 187 204 210 209 210 212 215 216 219 221 224 226 224 225 226 226 228 228 227 228 225 222 221 219 219 215 217 216 212 210 208 207 205 202 201 197 197 193 190 188 186 182 179 178 176 171 187
97 94 83 77 86 117 126 127 131 133 136 140 142 146 146 151 154 156 161 164 167 170 172 177 180 181 185 188 191 195 197 200 205 205 207 210 213 213 215 218 220 225 225 227 228 229 228 230 228 228 229 231 231 227 226 225 224 224 223 222 220 219 215 213 210 209 205 202 203 200 196 194 191 189 189 185 182 179 174 190
96 94 86 77 80 111 125 128 131 135 137 140 143 146 150 152 156 159 162 165 168 171 174 177 181 186 191 190 194 196 201 202 205 209 207 212 217 218 220 222 225 217 228 232 232 234 233 234 236 236 231 211 211 234 231 231 228 214 202 199 191 192 214 217 214 214 154 114 146 173 192 197 195 187 143 129 130 134 168 194
96 94 90 78 76 102 125 127 131 134 137 141 143 147 150 110 105 152 164 166 170 173 176 179 172 154 140 184 196 199 202 207 209 164 111 195 222 223 226 231 211 99 136 213 240 239 238 236 212 176 141 107 150 238 237 238 215 109 106 87 129 125 211 222 219 200 89 132 151 96 128 198 199 169 113 81 78 92 167 197
95 95 95 82 76 92 123 128 132 134 138 141 145 149 121 76 63 94 147 169 171 174 147 110 89 76 89 149 200 204 205 187 113 95 124 132 222 228 229 233 157 101 117 116 160 234 247 212 121 160 137 104 120 236 242 243 198 131 141 107 108 139 223 226 225 162 98 157 179 109 152 206 202 152 106 82 116 132 178 199
96 93 95 86 77 84 119 128 132 134 139 141 144 129 92 84 79 79 91 137 170 177 135 82 101 130 81 96 197 205 196 112 108 126 158 79 175 232 234 203 125 169 150 122 82 222 252 229 123 121 130 129 118 229 246 247 185 137 130 157 91 150 233 231 211 102 101 142 171 128 197 207 201 136 106 81 83 139 186 201
95 93 95 91 79 79 111 129 132 134 137 141 145 108 88 91 117 120 84 81 161 178 170 113 123 104 83 95 171 207 210 151 147 149 96 84 101 223 237 154 115 203 234 109 163 253 253 248 152 123 137 134 113 221 251 251 168 95 130 137 136 183 238 234 195 103 89 113 130 157 215 211 199 122 106 83 77 160 189 202
94 92 95 95 82 76 100 127 131 134 137 141 144 143 107 83 114 107 77 131 172 177 182 137 95 158 125 94 143 210 213 211 115 68 80 108 178 232 240 219 158 160 196 141 239 254 254 255 159 82 105 149 203 246 254 254 193 155 157 155 169 223 241 238 232 220 194 162 150 209 218 213 208 187 178 179 182 192 191 206
92 91 93 95 86 75 89 122 131 134 137 140 144 148 151 131 103 83 120 168 174 176 182 173 96 113 141 167 196 210 213 219 197 102 150 215 239 240 242 248 250 217 161 210 255 255 255 255 232 218 248 255 255 255 255 254 255 255 254 255 254 247 242 240 239 237 236 231 227 223 219 216 213 211 208 204 202 197 192 206
91 90 92 94 91 77 79 115 130 132 137 140 144 147 151 156 144 130 161 169 173 177 181 185 182 191 200 203 205 210 214 219 222 214 231 235 236 242 246 249 251 255 255 255 255 255 255 255 255 255 255 255 255 255 255 255 255 255 255 255 252 250 247 243 240 238 228 232 230 225 222 220 215 209 211 207 201 198 192 208
91 88 91 94 94 81 74 104 128 132 136 138 143 147 150 154 158 164 167 170 172 177 182 186 191 196 200 203 207 212 218 221 226 234 236 240 244 246 250 252 255 255 240 250 255 255 255 255 252 216 251 255 255 255 255 255 255 248 221 202 246 252 251 249 246 198 121 188 235 230 226 224 178 134 155 178 199 201 196 210
90 88 90 91 94 86 74 93 125 131 134 138 142 145 150 153 159 154 129 157 175 178 183 186 189 142 153 196 211 216 218 222 200 186 188 186 213 248 252 255 246 195 119 177 255 255 255 255 187 114 125 205 251 255 255 218 176 132 124 114 230 255 253 246 186 113 99 98 201 234 229 212 121 162 127 84 175 206 198 212
89 89 90 91 93 91 76 82 120 130 133 138 141 145 149 151 132 97 88 108 165 179 182 187 165 110 97 91 159 201 221 224 132 100 101 116 149 252 255 216 141 179 135 121 229 255 255 232 132 172 114 91 179 255 255 170 127 153 154 126 217 255 246 169 150 130 87 129 135 224 231 180 114 130 100 118 201 206 201 213
89 89 89 91 92 93 81 75 110 128 132 136 139 144 147 111 86 115 129 88 117 171 182 184 121 107 118 106 107 157 224 227 147 113 132 142 132 253 255 209 102 133 196 114 145 255 252 166 188 184 118 101 221 255 255 196 180 159 101 94 199 255 249 160 101 126 132 121 188 232 220 132 111 127 133 177 213 207 201 214
87 87 89 89 91 92 86 74 97 125 129 133 138 141 146 125 99 125 129 134 102 132 181 170 100 101 138 143 98 197 222 228 150 108 158 129 148 251 255 255 160 157 194 143 198 255 253 209 152 108 119 200 255 255 255 218 122 108 108 148 226 255 255 245 150 88 147 210 240 236 225 184 154 136 139 210 211 207 201 214
87 86 88 89 90 91 90 76 86 119 127 130 135 139 143 147 128 113 106 91 110 157 179 181 165 130 109 123 154 218 221 229 186 137 142 151 190 253 255 255 243 170 195 244 255 255 255 255 248 193 169 254 255 255 255 248 205 227 250 255 255 255 255 255 241 183 225 245 240 236 234 234 228 217 213 215 211 206 202 214
85 85 87 88 88 90 92 80 77 111 125 128 132 137 142 146 150 126 106 134 167 174 178 182 189 194 182 156 198 216 221 225 231 239 244 253 255 255 255 255 255 253 255 255 255 255 255 255 255 255 255 255 255 255 255 255 255 255 255 255 255 255 255 255 255 255 247 243 239 236 233 232 224 219 219 216 212 207 203 215
83 83 85 86 87 88 89 85 74 99 122 125 129 135 138 141 147 150 154 163 165 172 176 181 187 192 200 208 210 214 220 226 232 240 245 240 255 255 255 255 255 240 250 255 255 255 255 255 255 250 235 252 255 255 255 255 250 233 227 254 255 255 255 249 190 181 243 242 238 235 228 195 145 171 218 212 210 207 201 208
82 81 84 86 86 86 88 88 76 87 115 121 127 131 135 139 143 148 153 157 161 167 172 179 185 193 186 139 160 213 219 226 235 225 166 144 231 255 255 255 237 126 175 214 251 255 254 213 161 151 159 221 255 255 229 178 181 109 110 244 255 255 239 179 153 130 169 235 233 202 144 83 91 133 211 213 208 204 200 195
82 81 82 85 85 86 87 87 80 78 108 118 123 127 131 135 139 118 97 101 95 108 165 175 177 148 102 93 101 176 218 225 187 127 125 169 152 248 255 253 170 144 172 144 178 255 253 142 118 171 128 184 255 255 208 136 195 160 124 225 255 234 123 140 172 144 97 191 233 157 84 134 155 132 189 210 204 202 194 179
80 79 81 82 84 85 86 86 84 74 98 114 119 123 127 132 135 102 86 77 64 76 153 173 157 100 127 138 121 109 197 223 173 142 157 166 99 186 255 222 160 194 185 176 213 255 255 167 145 202 181 150 255 255 231 143 193 183 156 205 255 240 134 125 132 142 163 213 224 191 101 128 150 163 196 203 199 195 183 165
79 78 79 81 83 84 85 85 86 76 87 110 115 118 122 126 130 112 85 77 79 90 139 166 170 138 112 156 129 118 187 217 220 160 107 122 170 230 255 249 216 185 123 187 255 255 255 217 153 189 193 214 255 255 250 148 136 173 197 234 249 244 230 141 102 169 220 219 215 209 134 137 185 202 200 197 194 191 169 155
77 77 77 80 82 83 83 84 85 80 79 102 110 113 117 121 125 118 77 78 88 86 133 160 166 167 134 116 139 188 205 209 217 207 155 197 247 255 255 255 255 251 214 244 255 255 255 253 240 251 255 255 255 255 255 245 246 253 254 248 244 237 234 219 201 219 214 210 207 204 200 202 200 195 192 189 187 181 152 149
76 76 78 78 79 81 82 83 84 82 75 95 105 108 112 116 119 121 117 121 128 135 145 154 158 164 164 165 184 190 196 202 209 220 230 242 251 254 255 255 255 255 255 255 255 255 255 255 255 255 254 253 251 252 252 254 253 250 247 240 234 228 215 213 217 212 206 201 200 194 179 165 182 186 183 180 177 168 140 145
75 75 76 77 79 80 81 83 83 83 75 85 101 104 108 110 114 117 123 126 129 135 140 145 150 157 162 153 166 181 189 194 201 197 193 198 202 237 255 255 237 200 210 227 248 255 252 200 176 175 180 222 242 239 198 175 171 169 203 231 225 208 149 141 143 164 192 189 149 124 115 94 161 176 172 169 164 150 130 140
74 73 75 76 78 79 80 82 83 83 78 78 96 100 103 107 109 112 117 113 83 101 128 138 143 149 133 95 106 135 161 183 193 128 108 93 94 199 251 254 199 172 148 134 195 251 237 153 151 148 145 189 229 223 152 149 157 124 175 224 215 172 156 133 114 122 182 178 106 112 124 113 152 166 162 159 154 137 126 134
73 72 74 76 77 78 79 80 82 81 80 75 90 96 99 102 105 107 106 80 64 77 91 118 135 139 93 77 97 89 104 173 180 125 121 95 94 185 242 243 188 164 172 164 210 240 225 132 113 125 115 181 214 209 143 133 167 149 190 215 202 127 134 106 98 152 177 169 109 90 109 119 147 156 152 148 142 126 120 128
73 72 73 74 76 78 78 79 80 81 81 75 83 93 95 97 100 103 85 75 71 75 77 96 130 119 89 94 95 74 131 166 171 125 91 124 103 176 229 232 198 173 165 164 224 225 215 147 126 98 111 177 199 195 142 133 167 164 196 206 196 160 145 126 122 167 165 162 125 112 135 144 148 145 142 137 127 116 112 119
72 70 72 73 75 75 77 78 78 80 80 77 78 88 91 93 96 99 97 82 73 73 84 115 123 124 118 108 86 100 148 154 161 148 138 155 164 193 214 223 231 230 216 206 220 212 203 190 181 177 175 180 183 182 181 183 184 191 195 194 190 186 179 167 162 159 154 150 147 146 141 139 136 133 131 125 116 109 106 112
71 69 71 72 74 74 76 77 77 78 79 78 74 84 89 90 92 95 97 101 91 83 106 114 116 121 126 128 125 132 141 146 151 156 165 172 180 189 200 210 220 224 223 216 205 197 189 184 177 173 170 167 166 165 167 169 172 175 176 177 175 171 164 158 152 146 142 138 135 133 128 127 123 120 118 114 108 104 102 108
70 69 70 71 72 73 74 75 76 77 78 78 74 81 86 87 89 91 93 96 99 102 104 108 111 114 117 121 125 128 131 135 139 145 151 156 164 173 184 194 202 204 203 198 190 181 173 166 160 157 153 150 149 149 149 150 152 156 159 159 158 155 149 144 139 134 130 126 122 121 119 117 113 110 108 106 103 101 98 105
69 68 69 70 71 72 73 74 75 75 77 77 75 76 82 83 85 88 89 92 94 96 99 102 105 106 109 112 115 118 121 125 127 132 137 141 147 155 163 171 178 181 180 177 168 161 154 150 145 141 138 138 137 136 135 136 137 139 142 141 140 138 133 129 125 121 118 115 113 111 110 108 107 104 103 102 100 98 95 101
68 67 68 69 69 71 72 72 74 74 75 77 76 75 79 81 82 84 86 87 90 92 94 96 98 100 103 106 108 109 112 114 117 119 122 125 129 133 137 139 143 144 144 142 140 137 135 134 131 129 128 126 125 124 123 122 121 121 121 120 119 118 116 114 113 113 111 111 109 108 107 106 104 103 101 100 97 95 92 99
67 65 67 68 67 69 70 71 72 73 74 75 76 76 76 78 79 80 82 83 85 86 89 92 94 97 99 100 101 103 106 108 110 112 114 117 120 122 123 124 126 127 128 128 128 129 128 128 126 125 124 122 122 122 120 119 118 117 117 116 115 116 114 113 112 111 109 109 107 106 106 104 103 100 99 97 95 93 91 96
66 64 65 66 67 68 69 69 71 72 72 73 74 75 76 77 79 79 80 83 84 85 89 92 95 97 98 98 99 103 105 104 109 110 112 115 117 119 121 123 124 126 126 126 127 127 125 125 125 122 121 120 119 119 117 117 115 114 115 115 113 112 112 110 110 108 108 107 106 105 103 101 100 99 98 96 93 91 89 93
64 63 64 65 65 66 67 68 69 70 71 72 73 74 75 76 78 79 80 81 83 86 90 92 94 96 98 99 98 100 101 102 106 107 110 112 114 116 118 119 121 123 124 124 124 125 124 122 121 120 118 117 117 116 114 114 114 112 112 111 110 111 109 108 108 107 106 105 105 103 102 101 100 98 96 94 92 89 87 91
63 62 62 64 64 65 66 67 68 69 69 70 72 72 74 75 76 78 79 80 83 86 88 90 93 94 96 98 96 96 98 101 103 105 108 109 112 114 116 118 119 121 122 123 124 123 122 121 120 119 117 116 114 113 113 112 112 111 110 109 108 108 108 107 106 106 106 105 104 103 102 99 98 96 94 92 89 87 85 88
61 62 61 62 63 64 65 66 67 68 68 69 71 71 72 73 74 76 77 80 83 85 86 88 90 91 94 97 95 94 96 98 100 102 105 108 110 113 115 118 119 122 123 123 124 124 122 121 119 117 116 114 113 112 110 110 109 108 109 108 108 107 106 105 105 104 104 103 102 101 100 99 97 96 94 91 89 86 83 87
61 61 61 62 62 63 64 65 66 66 67 68 69 69 70 72 72 74 76 80 82 84 85 85 87 89 91 94 93 92 94 96 99 101 104 105 108 111 113 115 118 120 120 121 121 122 121 119 117 116 113 111 111 110 108 107 106 107 106 106 106 106 105 104 103 103 102 102 101 100 100 98 97 95 93 89 87 85 82 85
60 60 60 61 62 63 63 64 65 66 66 67 68 68 69 71 71 73 75 78 80 81 83 84 85 87 89 91 90 91 93 94 96 99 101 103 106 108 112 113 115 118 119 121 121 122 120 118 116 114 112 110 110 107 106 105 105 105 104 104 104 103 104 103 103 103 103 102 100 99 98 96 93 91 88 86 84 82 79 82
60 59 61 61 62 62 63 63 64 65 66 66 67 67 69 70 70 72 74 77 79 79 80 82 84 84 87 89 88 89 90 92 94 97 100 102 106 109 111 113 116 118 120 122 123 124 120 118 117 114 112 109 108 107 105 104 105 103 103 103 103 103 102 101 102 100 100 99 97 95 93 91 88 85 85 83 80 78 77 80
60 59 60 60 61 61 63 62 63 64 65 66 66 66 68 68 70 72 74 77 78 79 80 81 82 83 86 86 87 88 88 91 93 97 98 101 104 107 110 112 115 117 119 123 128 127 121 116 114 112 110 108 106 105 104 103 103 102 102 102 100 100 98 98 97 95 95 94 92 90 89 87 85 82 80 78 78 76 74 79
59 59 59 59 60 61 61 62 63 63 64 65 65 66 67 68 68 70 73 76 77 77 79 79 81 85 85 85 84 86 87 89 92 95 96 98 101 102 105 106 109 112 113 117 121 121 116 111 108 106 104 103 102 100 100 100 100 98 99 98 96 95 95 94 93 92 90 89 88 86 84 83 81 79 77 75 74 73 73 77
59 57 58 58 59 60 60 61 62 62 63 63 64 65 65 66 67 69 71 75 76 76 77 79 81 82 82 81 81 84 86 87 88 90 91 93 96 97 99 100 102 106 105 111 119 121 114 104 103 102 100 98 98 97 96 96 95 94 94 93 93 91 90 90 88 86 85 85 83 82 80 79 78 77 76 74 72 72 71 75
59 57 58 59 59 60 60 60 61 62 63 62 62 63 64 65 66 67 69 73 75 76 77 79 80 80 78 78 79 80 82 83 85 86 87 88 90 92 93 95 97 98 99 103 108 109 105 101 100 97 95 94 94 94 92 92 91 90 89 89 89 87 86 85 84 83 82 81 80 79 78 77 76 75 73 71 70 68 66 71
58 57 58 58 58 59 59 60 60 61 61 61 62 63 63 64 64 65 67 69 72 74 76 76 76 75 75 76 77 77 79 79 81 83 83 84 86 88 89 90 92 94 97 101 104 103 101 97 96 94 93 92 90 90 89 88 88 87 86 86 84 84 83 82 82 81 81 80 79 78 76 76 73 71 69 67 66 65 66 70
56 55 56 56 57 58 59 59 60 60 60 60 61 62 62 63 64 64 65 67 69 70 71 72 72 72 73 74 73 75 76 76 78 78 80 81 83 85 86 87 89 91 96 101 103 101 99 95 93 91 89 88 88 87 85 85 85 83 83 82 82 82 81 80 80 79 79 77 76 73 71 70 69 68 68 68 67 67 66 71
55 54 55 55 55 56 57 57 57 58 58 59 60 61 61 62 62 63 64 64 66 67 68 69 69 69 70 70 71 72 73 75 75 76 78 79 80 82 83 85 88 91 95 103 108 104 96 92 91 88 86 85 84 83 82 82 82 81 80 81 79 78 78 76 75 74 72 71 70 69 69 68 69 69 69 69 68 68 68 70
56 55 56 56 56 56 56 56 56 56 57 58 59 60 60 61 62 63 64 65 66 66 67 67 68 69 70 71 71 73 73 73 76 77 77 79 81 82 83 86 88 91 95 114 139 141 116 94 92 90 87 86 84 83 82 81 81 79 78 76 75 74 72 72 73 73 72 73 73 73 73 73 73 73 72 70 70 70 70 87
