P2
80 80
255
114 109 109 109 111 115 117 119 122 122 124 126 127 127 129 131 135 135 137 138 139 141 143 145 147 150 152 153 157 157 160 160 162 164 163 164 168 170 169 170 172 174 175 175 176 177 177 177 178 176 175 174 174 172 172 173 173 174 173 171 171 169 166 164 162 159 158 158 156 154 152 150 148 148 146 143 141 140 138 151
101 100 101 103 105 107 109 110 112 113 114 117 118 119 123 124 125 126 128 128 128 132 133 136 137 140 142 143 144 146 145 148 149 150 152 153 153 154 158 159 159 161 163 164 162 164 165 163 165 164 164 163 161 162 161 162 161 160 159 159 159 158 156 155 153 152 150 148 146 144 143 142 141 138 137 134 133 131 129 141
103 101 102 105 106 108 109 110 113 115 115 119 121 121 125 126 128 128 129 131 133 134 134 137 139 142 143 143 143 145 146 148 150 150 150 154 154 154 159 160 161 162 165 165 167 167 167 168 167 166 166 166 164 163 161 165 165 164 162 162 161 161 159 158 156 155 153 152 150 150 148 146 144 140 139 138 136 134 131 144
104 102 103 104 107 110 111 113 113 115 117 120 120 123 124 126 127 128 130 130 132 133 135 137 138 139 143 145 146 147 148 151 152 154 154 156 157 158 162 162 163 164 164 165 168 168 167 167 168 165 164 164 163 164 165 165 165 164 163 162 163 162 159 159 158 156 155 154 152 151 150 150 148 144 143 142 140 138 134 147
103 101 104 104 108 110 111 112 114 115 117 119 121 123 125 126 127 128 130 134 136 137 139 141 142 143 145 147 148 149 151 151 150 149 149 149 149 149 149 150 148 148 146 147 148 148 146 145 145 145 142 142 142 144 145 145 145 147 147 149 149 149 151 152 152 152 152 152 152 151 152 152 149 146 146 145 142 142 139 153
104 102 105 106 109 111 112 114 115 117 117 119 121 122 125 126 129 130 132 135 134 136 135 135 133 133 133 133 133 134 135 136 136 137 140 141 142 143 144 146 145 146 147 148 150 150 149 150 148 146 145 144 143 145 146 145 146 146 146 144 143 142 141 140 139 138 137 138 139 140 144 145 146 147 148 146 145 143 142 155
104 102 104 106 108 110 112 113 115 116 118 121 121 122 121 121 120 120 120 122 124 125 128 130 131 133 135 137 139 141 143 144 144 146 147 148 148 149 150 150 151 151 152 153 154 152 152 151 150 149 146 144 145 146 147 148 150 150 151 151 148 146 144 142 143 143 141 139 137 137 136 134 134 134 135 138 141 141 141 156
105 101 103 104 108 109 111 111 114 114 113 113 112 112 113 117 119 123 127 129 132 135 136 138 139 139 141 143 142 144 145 145 146 148 149 150 149 150 151 151 152 154 155 155 155 155 154 154 151 149 148 146 146 148 148 150 151 151 152 152 148 145 142 141 143 142 142 141 141 141 140 140 137 136 134 133 131 130 129 146
102 99 101 106 107 105 106 106 106 109 111 115 119 122 124 125 128 130 132 133 134 136 137 139 140 141 141 143 144 145 146 147 147 149 151 152 151 152 153 155 155 156 157 158 158 158 156 155 154 152 149 147 148 150 150 151 154 152 152 149 146 145 143 142 143 142 142 142 142 141 141 140 139 137 136 135 134 133 129 140
98 97 98 99 100 101 106 110 114 117 119 121 124 124 125 128 129 130 133 134 136 137 139 140 141 142 143 145 146 148 148 149 150 151 152 153 155 155 157 157 158 157 159 159 160 160 159 157 155 153 151 149 149 151 152 153 152 151 151 150 148 146 144 144 145 144 144 144 144 144 143 142 141 139 139 136 136 133 131 144
92 85 89 104 108 110 112 114 116 118 120 121 123 126 128 129 130 132 134 135 137 138 141 142 143 144 146 147 148 149 149 150 152 152 152 155 157 158 160 160 161 160 161 162 163 163 162 160 158 157 155 153 152 153 154 155 154 153 151 151 151 149 147 146 146 146 145 146 145 146 145 144 143 140 140 137 137 135 132 144
84 72 83 107 109 112 113 115 116 119 122 123 124 127 128 130 132 135 135 137 137 140 142 143 144 145 147 148 149 151 152 153 153 154 156 158 158 159 161 161 162 162 161 164 165 164 164 163 161 160 158 157 158 157 156 157 156 155 153 153 153 152 151 148 148 148 146 147 149 147 146 144 144 143 140 139 137 136 134 146
77 64 79 107 110 111 114 115 118 120 122 124 126 129 130 132 134 137 137 138 139 141 143 145 146 148 148 150 151 152 154 155 157 158 158 157 159 160 161 161 161 165 166 168 168 168 166 165 163 163 164 161 132 111 154 159 157 156 155 155 140 127 141 149 150 149 150 150 151 149 149 148 146 144 142 141 139 137 135 147
70 62 77 107 111 112 114 117 119 120 123 126 126 128 130 134 134 137 138 140 142 143 145 147 147 149 150 151 152 154 156 153 139 124 153 161 162 162 162 152 102 111 134 155 168 171 169 169 168 168 157 107 79 84 134 163 161 159 159 157 103 71 87 101 125 144 153 152 152 148 137 124 108 109 139 142 141 139 137 150
66 64 77 106 112 114 117 117 120 122 124 127 130 132 133 134 135 138 139 134 99 102 120 136 146 150 152 153 152 144 122 96 79 83 136 164 163 164 166 137 93 84 78 74 96 145 172 171 170 139 81 87 84 61 99 160 162 160 161 146 90 114 94 60 63 102 152 154 142 96 80 70 51 75 137 144 142 142 136 124
72 70 80 105 112 114 117 119 121 123 116 107 102 97 93 120 137 139 141 127 88 107 95 79 89 129 154 155 134 86 76 102 87 104 118 164 165 166 168 123 105 105 120 60 57 133 176 175 137 66 74 130 113 67 75 143 164 163 164 129 69 100 102 81 67 114 157 156 140 84 90 84 72 73 130 145 143 125 90 80
77 74 80 105 113 116 117 119 121 123 93 81 76 99 85 101 138 139 143 123 84 122 115 90 79 117 155 157 141 95 92 69 104 117 99 160 168 168 167 113 120 126 121 79 68 155 178 177 146 82 129 116 83 94 85 111 165 165 163 103 65 92 77 107 94 139 160 159 148 94 91 103 109 85 125 148 140 93 97 113
81 76 80 103 114 115 118 120 122 124 99 86 95 113 84 93 138 141 144 120 80 66 68 87 80 125 157 158 156 101 71 61 118 89 72 152 171 171 161 104 124 127 114 69 87 171 180 178 173 105 103 145 105 78 58 105 164 167 151 75 83 111 102 106 101 160 163 160 154 102 93 97 85 68 116 149 145 104 85 114
84 78 79 101 114 117 119 122 123 125 105 69 84 71 67 87 136 142 145 116 100 73 77 92 74 133 159 159 162 124 94 89 129 111 84 131 174 174 155 74 101 111 102 65 114 181 181 180 183 145 105 151 104 84 122 166 171 168 152 99 90 84 88 65 123 167 166 163 159 105 83 67 56 68 121 152 149 126 82 94
88 79 79 99 115 117 119 122 123 126 114 77 72 77 88 89 130 143 145 113 88 85 83 77 66 140 160 160 163 149 89 105 109 66 84 133 174 176 162 104 93 102 72 56 141 186 184 184 185 176 99 67 101 154 180 179 176 173 171 168 157 137 110 97 155 169 168 166 162 122 91 107 127 142 153 152 150 141 83 59
90 79 79 95 115 117 119 122 125 128 121 70 60 72 83 81 126 144 146 140 117 98 89 76 74 147 163 163 164 165 98 73 103 130 158 173 176 178 178 176 168 148 123 110 168 188 187 186 187 186 147 131 178 187 185 183 182 180 179 178 178 178 175 172 173 171 171 169 166 161 160 164 162 160 157 155 152 149 110 103
93 81 80 91 113 118 120 123 125 128 128 108 101 109 113 121 137 145 147 150 153 152 148 135 128 155 163 165 167 169 156 151 170 176 178 180 180 181 182 184 186 188 187 186 189 191 191 190 192 188 187 190 191 188 186 186 185 184 183 181 181 180 179 177 176 175 172 171 170 168 167 165 163 161 159 158 156 153 147 163
94 82 79 87 113 119 121 124 126 128 130 135 136 138 141 143 144 148 150 151 153 155 158 160 162 162 165 167 170 171 174 176 177 178 179 183 183 184 185 186 188 188 189 192 193 194 193 194 193 192 191 191 191 190 189 188 187 187 186 184 184 184 180 180 178 178 175 174 173 169 166 168 165 163 161 158 158 154 153 168
95 84 79 85 110 120 121 125 126 128 131 133 135 138 140 143 146 147 149 151 153 156 159 161 162 165 169 169 171 173 174 176 178 181 183 184 185 186 189 190 190 191 193 195 196 197 197 196 196 199 198 199 197 197 194 194 192 190 191 192 181 131 121 180 183 181 178 177 176 131 99 152 170 166 164 161 160 158 137 142
97 87 79 80 105 120 122 123 128 130 132 135 136 134 141 145 148 150 152 154 156 156 144 153 166 168 170 172 173 176 178 182 181 174 172 185 188 191 191 191 189 188 188 186 192 200 200 201 192 163 152 146 137 136 180 198 195 195 193 157 113 120 103 160 187 182 182 180 157 89 71 89 138 167 166 162 162 139 94 97
97 91 81 80 101 119 121 125 128 130 133 135 134 88 92 132 149 152 153 155 158 152 98 95 131 166 172 173 176 177 173 150 124 92 102 183 192 193 194 148 111 104 102 97 141 204 204 207 165 77 94 96 104 103 171 200 197 180 122 91 138 127 120 131 186 184 185 175 97 100 146 92 79 124 168 166 141 76 73 83
97 92 83 79 94 120 123 126 129 131 133 137 124 64 48 62 100 140 153 157 160 136 95 134 90 90 147 173 179 166 96 86 110 106 70 168 196 195 198 132 144 135 95 112 139 206 205 208 156 108 121 147 166 110 184 203 201 142 87 91 117 74 117 110 176 190 186 128 64 112 140 82 67 129 171 147 85 97 93 121
97 94 86 79 88 116 123 126 129 132 134 138 106 77 86 66 76 88 138 159 159 116 94 107 84 65 69 153 182 176 96 132 153 121 109 146 199 198 202 138 136 165 116 78 137 211 209 212 153 92 94 118 90 97 196 207 206 177 78 87 126 75 94 79 162 195 171 74 82 128 92 90 113 172 173 150 94 128 137 121
97 95 90 81 85 113 124 126 129 131 134 135 90 84 100 111 114 92 143 160 152 90 134 148 108 114 83 166 184 187 133 101 101 159 136 111 198 201 206 134 85 160 155 86 140 214 214 214 148 154 145 97 98 120 204 210 208 202 118 99 145 96 100 153 189 194 186 143 93 66 52 84 166 179 173 171 130 88 113 101
98 96 93 82 81 107 123 127 129 132 134 134 95 72 95 118 106 101 153 160 154 100 99 129 113 96 119 180 185 190 165 112 118 142 89 78 187 206 208 139 104 124 138 100 150 217 217 217 141 126 140 129 89 134 214 215 212 211 168 82 103 146 192 205 200 198 195 193 173 108 74 151 184 179 178 175 165 110 91 150
98 96 95 84 80 99 124 127 128 132 136 139 137 115 84 68 78 126 158 161 164 164 138 96 106 101 152 185 188 190 187 120 113 98 121 160 201 209 212 166 127 124 126 133 186 223 220 220 190 170 176 183 190 208 218 218 216 216 203 154 184 211 210 206 204 201 199 197 195 187 171 187 186 184 181 178 176 157 148 188
97 95 97 87 78 91 121 126 129 132 135 138 141 144 141 114 93 142 160 161 165 169 173 170 137 121 176 187 189 192 196 170 158 189 207 211 209 211 213 215 216 219 222 224 225 225 226 226 226 228 227 228 226 224 222 221 220 219 217 218 216 213 211 207 207 205 202 201 198 196 194 191 187 187 183 181 178 176 173 188
96 94 97 92 78 82 115 127 129 132 135 138 141 146 144 151 153 156 160 164 167 169 172 175 181 182 185 189 192 194 197 201 206 205 209 210 213 215 217 220 224 225 225 228 229 229 229 229 229 229 230 232 230 228 226 226 225 223 223 222 220 220 216 212 212 209 205 201 200 202 198 194 190 189 187 186 183 181 176 192
95 95 96 94 81 78 108 127 129 133 135 138 142 146 148 152 155 159 162 165 167 171 175 177 182 185 191 191 194 197 200 202 208 211 210 214 216 220 223 224 224 219 232 233 234 235 233 235 236 236 230 208 213 232 233 230 229 214 203 198 190 189 208 218 215 214 197 117 121 150 175 191 195 192 186 143 127 130 126 172
95 93 95 96 84 77 100 126 129 133 136 138 142 146 150 135 97 137 164 166 170 172 176 179 172 152 144 186 198 201 204 208 203 145 127 213 223 224 227 232 178 95 164 227 241 240 238 233 205 171 132 106 162 238 238 237 217 113 104 86 120 118 184 224 218 218 154 79 158 129 92 138 198 196 171 112 85 77 73 159
94 93 95 96 89 77 90 123 130 134 136 139 143 148 143 94 68 77 130 166 171 174 152 111 90 77 91 156 201 204 203 174 98 110 115 161 227 228 230 223 127 103 121 121 186 241 249 185 126 160 133 98 135 239 241 242 203 128 143 113 106 122 203 226 223 206 116 107 181 160 101 164 204 198 156 111 85 102 121 180
95 92 94 96 94 80 82 117 130 133 137 140 144 144 108 91 80 83 85 120 166 177 145 86 102 127 78 107 199 207 185 106 111 141 139 87 204 233 234 170 138 162 152 94 115 242 253 202 124 115 137 120 127 234 246 246 192 138 130 156 100 113 222 230 227 164 89 111 167 155 131 201 204 200 138 102 81 89 113 194
95 92 94 95 96 85 78 108 130 133 136 140 144 138 95 84 108 123 102 70 146 179 175 121 124 109 87 101 176 209 207 143 153 133 91 77 137 234 227 125 135 225 208 94 201 254 254 230 144 117 147 130 117 227 251 251 175 97 124 146 145 151 232 233 224 134 88 80 143 118 171 214 207 197 121 105 83 57 122 205
95 92 93 95 96 91 77 97 128 133 134 140 143 146 139 95 102 110 85 117 170 176 181 146 92 153 123 96 155 210 214 202 95 73 80 128 199 237 238 203 148 178 178 157 250 254 255 250 131 81 103 147 200 247 254 253 191 143 145 140 149 198 240 238 233 222 197 163 136 146 211 215 210 202 170 159 158 158 177 208
94 91 92 93 96 94 79 86 123 133 135 139 142 146 151 151 121 91 106 164 174 177 182 177 111 117 150 177 202 210 214 222 181 107 173 228 238 240 244 248 246 200 158 231 255 255 255 255 217 215 247 255 255 255 254 254 254 252 252 252 250 247 242 240 238 237 236 232 225 220 219 215 213 209 208 205 203 199 193 208
91 90 90 92 95 96 82 78 114 131 135 138 141 145 149 154 156 142 156 169 173 177 181 186 187 195 201 205 208 211 215 221 222 219 234 236 238 244 248 248 252 255 255 255 254 255 255 255 255 255 255 255 255 255 255 255 255 255 255 255 251 249 246 241 239 237 236 232 229 224 221 217 215 213 212 207 203 198 194 209
89 88 90 91 93 95 89 76 102 129 133 137 141 145 148 153 156 163 167 169 174 178 183 187 191 195 200 205 208 212 217 221 230 233 236 241 243 248 250 252 255 255 241 255 255 255 255 255 249 228 255 255 255 255 255 255 255 255 242 221 243 252 251 248 246 240 182 151 224 230 227 221 220 194 153 176 198 200 196 210
88 86 90 90 92 95 93 78 90 125 132 137 141 145 149 153 158 153 119 131 173 179 183 187 188 136 139 187 212 217 220 221 187 179 180 181 221 250 253 255 236 178 114 214 255 255 255 255 175 115 148 226 255 255 255 232 195 149 132 108 205 255 252 252 236 165 110 95 146 230 227 224 215 134 141 131 97 157 200 213
86 86 89 91 91 93 94 82 81 119 131 136 140 144 148 150 130 100 98 94 139 180 182 187 163 111 100 87 152 199 222 218 117 97 103 113 176 253 254 194 137 183 118 143 249 255 255 221 121 171 96 103 190 255 255 174 126 142 153 121 188 255 254 225 163 148 93 88 116 167 229 227 188 105 155 115 82 168 203 213
86 85 88 91 91 92 94 88 77 108 129 134 137 141 145 136 85 108 131 113 103 153 180 184 120 107 125 117 103 170 224 222 133 118 151 126 166 255 254 179 94 153 189 99 185 255 244 162 195 187 110 98 215 255 255 197 164 169 125 109 163 255 255 193 108 129 125 127 126 169 230 221 142 115 110 118 133 204 202 215
84 84 87 90 91 91 93 92 77 94 124 130 135 139 143 145 123 115 126 126 107 117 178 176 115 99 131 142 112 206 223 227 131 114 145 123 171 255 255 246 137 181 182 145 212 255 248 190 143 107 125 191 255 255 255 221 139 121 76 96 177 255 255 252 169 97 111 138 188 236 233 213 135 115 131 118 185 208 202 215
84 83 86 89 89 90 92 93 82 84 118 127 132 137 140 145 148 123 107 94 119 164 178 183 181 154 123 119 167 218 221 227 183 152 153 164 210 255 255 255 226 167 204 249 255 255 255 255 236 164 159 253 255 255 255 246 170 184 221 243 255 255 255 255 251 166 138 220 243 237 231 229 222 204 177 171 207 207 203 216
83 82 84 86 87 89 89 91 86 77 109 125 129 134 138 142 148 149 127 144 167 173 177 181 188 196 193 179 205 216 223 226 234 239 246 252 255 255 255 255 255 253 255 255 255 255 255 255 255 255 255 255 255 255 255 255 255 255 255 255 255 255 255 254 254 252 243 244 239 236 233 228 226 224 222 217 211 207 203 216
81 81 83 84 86 89 89 90 89 78 96 121 126 131 135 139 144 149 156 161 165 170 175 181 186 192 200 204 207 215 221 227 234 240 237 233 255 255 255 255 255 239 255 255 255 255 255 255 255 255 248 255 255 255 255 255 255 255 251 255 255 255 255 255 251 217 238 243 236 235 232 228 223 195 196 213 208 207 202 216
80 79 81 83 84 87 88 88 89 81 86 115 124 127 131 135 140 142 139 140 143 149 168 177 184 189 167 113 144 212 219 225 231 205 140 149 239 255 255 255 213 124 190 228 255 255 252 220 176 165 166 233 255 255 245 213 199 148 122 231 255 255 255 244 174 134 158 235 236 231 225 196 133 107 141 211 208 204 200 214
78 78 80 82 83 85 87 87 88 84 79 107 119 123 128 131 136 125 84 82 79 75 149 175 173 128 98 106 98 163 218 223 164 118 140 164 157 252 255 246 151 152 173 143 201 255 248 132 118 164 126 196 255 255 212 126 185 147 89 201 255 254 217 143 172 167 111 149 229 226 152 98 82 101 119 194 207 202 197 212
77 77 79 80 82 84 85 86 87 87 77 96 114 118 122 127 131 127 95 86 74 76 134 169 165 115 127 151 136 104 191 220 173 148 150 155 96 208 255 202 164 193 192 168 227 255 255 143 156 198 168 157 255 255 232 144 202 196 166 181 255 253 152 87 171 143 146 119 213 224 148 94 156 172 135 174 204 197 193 208
76 76 77 78 80 82 84 86 86 86 79 86 109 113 118 121 126 128 91 73 82 85 117 163 169 158 115 142 118 139 196 214 218 156 101 128 187 243 255 245 211 173 127 205 255 255 255 196 153 188 179 190 255 255 250 138 130 155 159 195 253 251 231 142 110 102 160 211 221 218 190 94 109 142 176 195 196 193 189 203
76 75 76 78 79 80 82 84 85 85 82 79 102 108 112 117 120 125 109 98 106 108 132 156 162 168 149 125 163 195 202 207 215 207 171 216 250 255 255 255 255 244 211 250 255 255 255 247 226 241 253 255 255 255 255 217 205 228 244 250 248 244 241 222 143 167 215 217 212 208 203 154 167 195 197 192 190 186 183 191
75 74 77 76 79 80 81 83 84 84 83 77 93 104 108 112 114 118 124 129 133 139 143 149 155 161 166 174 183 186 194 200 206 217 230 239 246 251 255 255 255 255 255 255 255 255 255 255 255 255 255 253 251 251 253 255 255 255 252 247 242 237 233 232 225 219 213 210 206 202 200 200 198 191 189 187 183 178 175 175
74 73 75 76 77 79 80 81 83 83 84 78 85 100 103 106 110 113 118 122 113 114 133 140 147 153 156 128 145 172 185 192 198 177 171 176 186 236 253 255 226 201 218 239 253 255 253 214 199 201 205 232 243 241 224 210 211 215 226 237 233 228 205 178 193 201 203 200 195 190 177 155 142 173 180 177 173 169 164 156
73 71 73 75 76 77 79 80 81 83 82 80 80 95 99 102 106 109 112 104 69 76 103 128 139 146 121 86 96 116 141 182 187 114 109 79 94 206 245 251 182 172 150 149 220 255 240 153 151 142 146 191 230 228 161 135 141 125 154 226 224 216 159 149 124 126 156 192 178 112 114 109 91 157 172 167 164 162 151 144
72 71 72 74 75 76 78 79 80 82 82 80 77 89 95 98 101 104 100 79 74 70 79 93 128 131 90 79 99 79 109 171 176 120 116 93 96 191 235 231 172 162 181 172 226 248 228 132 126 144 127 181 214 211 148 129 166 137 163 218 216 185 144 150 109 110 156 182 166 95 119 121 115 149 163 157 155 151 137 136
71 70 72 73 74 75 77 78 79 80 81 81 77 83 92 94 96 100 99 82 70 78 76 98 125 123 103 99 87 81 142 161 167 118 94 120 106 182 222 220 185 170 177 186 236 233 218 136 117 87 100 175 201 198 133 105 149 142 172 211 208 162 130 130 107 123 174 171 160 92 87 111 120 145 152 148 144 141 125 129
71 69 70 72 73 74 75 76 77 78 80 80 78 78 88 91 93 95 98 100 90 72 92 116 119 124 127 120 103 116 146 151 157 153 151 159 169 191 207 218 226 229 218 217 230 219 210 186 173 165 163 179 185 185 167 156 165 169 187 200 198 191 175 158 132 156 167 162 155 124 126 139 144 144 141 138 135 127 115 122
70 68 70 71 72 73 74 75 76 77 78 78 77 75 84 88 89 91 94 97 100 100 106 110 113 116 121 125 129 133 136 143 147 154 160 167 176 183 193 205 216 225 227 224 215 204 197 190 183 179 176 173 170 169 170 174 176 177 182 184 185 184 181 176 168 162 157 151 148 146 142 139 136 133 130 127 124 115 107 114
69 68 68 69 70 72 72 73 75 76 77 77 78 76 80 84 85 87 89 92 94 97 99 104 107 109 113 117 120 123 127 131 135 141 146 153 159 167 177 187 197 205 208 204 197 188 180 171 166 162 158 155 155 154 152 155 156 158 162 165 167 166 164 159 153 148 143 138 135 133 129 126 124 121 119 115 112 106 102 109
67 66 67 68 69 70 71 72 73 74 76 76 78 76 78 81 83 84 86 88 90 92 95 97 101 103 106 109 111 114 117 121 124 128 133 138 143 149 158 166 174 181 185 183 176 168 161 154 150 146 143 142 140 140 139 140 141 143 147 150 152 151 149 145 141 136 131 126 123 121 118 114 113 112 109 106 104 101 99 105
66 65 66 67 68 69 70 71 72 72 74 75 76 77 77 78 79 81 83 84 87 88 90 92 94 97 100 102 104 106 109 112 114 117 120 123 126 131 134 137 141 145 146 146 144 141 139 138 134 132 131 129 128 127 126 127 127 128 129 130 131 130 129 126 123 120 117 115 113 111 110 107 106 105 103 102 100 99 96 102
65 64 65 66 66 68 68 69 70 71 73 73 75 75 76 77 78 79 81 82 84 86 88 91 94 95 97 99 101 102 105 107 110 111 114 116 119 122 123 125 127 128 129 129 129 128 128 128 126 125 124 123 121 121 120 119 118 118 117 117 116 116 114 113 112 112 111 109 108 107 108 105 104 103 101 100 98 96 94 100
63 62 63 65 65 66 67 67 69 70 71 72 73 74 75 77 78 79 81 82 83 85 88 91 95 97 98 97 99 102 104 103 109 110 112 115 117 119 122 122 124 127 127 127 127 127 126 125 124 123 122 121 120 119 118 117 116 116 116 115 114 113 113 112 111 110 109 108 108 106 105 104 101 101 100 98 95 94 91 98
62 62 63 63 64 65 65 66 67 68 69 70 71 72 74 75 76 77 78 80 82 85 88 90 93 95 97 98 97 99 100 101 104 107 110 112 114 116 118 120 121 124 124 125 125 125 122 121 121 120 119 118 117 116 115 115 114 114 112 113 112 111 111 110 109 108 107 106 105 104 102 102 101 99 98 96 94 92 90 95
62 61 61 62 63 64 64 66 66 66 68 68 70 70 72 73 74 76 77 79 81 84 87 89 91 93 97 96 95 96 98 100 102 104 107 109 112 114 117 119 120 122 124 124 124 123 121 121 119 118 117 115 114 114 113 112 111 111 111 110 109 109 108 106 106 106 106 105 103 103 102 101 99 98 97 95 93 91 89 93
61 60 61 61 63 63 64 65 66 66 67 68 69 69 70 72 73 75 75 79 81 84 85 87 89 91 94 94 93 94 95 97 100 102 105 109 110 113 115 118 120 123 125 124 125 124 121 120 119 117 115 114 112 112 110 110 109 109 108 108 108 107 107 106 105 105 105 103 102 102 101 100 98 97 95 93 91 89 86 91
60 59 61 61 62 63 63 64 65 65 67 67 68 68 69 71 71 73 75 79 81 83 84 84 86 89 91 93 92 92 93 96 99 100 103 105 108 111 113 116 118 121 122 122 122 122 120 119 118 116 114 112 111 110 108 108 107 107 106 106 106 106 106 105 104 104 102 102 101 100 100 98 96 96 94 92 90 88 85 90
59 59 59 60 61 62 62 63 64 65 66 67 67 68 68 70 70 72 75 78 80 81 82 83 84 87 89 90 90 90 93 94 96 98 100 105 106 109 112 114 116 119 120 121 120 121 120 117 115 114 112 111 109 107 107 106 105 105 104 104 104 103 103 103 103 102 101 100 101 100 99 97 96 96 93 92 89 87 84 88
59 59 59 60 60 62 62 62 63 64 65 66 66 67 68 68 70 70 74 78 78 78 80 82 83 84 87 89 88 88 90 92 94 97 100 103 106 109 111 114 118 119 122 124 124 121 119 116 115 113 111 109 108 106 105 104 104 103 102 103 102 102 102 102 102 102 102 100 100 99 97 97 94 92 90 88 85 83 81 86
59 59 59 60 60 60 61 62 62 63 64 65 65 65 66 67 69 70 74 77 77 78 79 80 81 82 86 86 86 87 89 91 93 96 99 101 105 107 110 113 117 120 125 132 131 124 117 116 115 113 111 108 107 105 104 103 103 102 102 102 101 101 100 100 101 100 100 98 96 95 94 93 89 87 86 84 81 80 79 83
58 58 59 59 60 60 60 61 62 62 63 64 64 64 65 66 68 69 72 75 76 77 78 79 81 83 84 83 83 85 87 89 91 94 95 97 100 103 105 107 110 112 120 126 126 117 112 111 110 108 105 104 104 102 102 102 101 100 100 99 99 98 98 98 96 95 94 93 92 90 89 88 86 84 82 80 78 77 77 80
58 57 58 58 59 60 60 61 61 61 62 63 63 64 64 65 66 67 70 74 76 76 77 79 80 81 81 80 81 82 84 85 87 89 90 92 94 97 99 101 104 105 116 125 123 112 106 105 105 103 101 100 99 99 98 98 97 97 96 96 95 94 93 93 91 90 89 89 87 86 84 83 82 80 78 77 76 76 74 79
56 55 57 58 59 59 59 60 60 61 62 62 62 62 63 64 65 66 69 72 74 75 76 78 79 78 77 77 78 79 81 82 84 85 87 87 90 91 93 96 97 100 105 110 110 104 101 100 100 98 96 95 94 95 94 94 93 93 92 91 91 90 88 88 87 86 85 84 83 82 81 79 78 77 76 75 74 73 72 76
55 55 55 56 56 57 58 58 60 61 61 61 61 61 62 63 64 64 66 69 72 73 75 75 75 74 74 75 75 77 78 79 80 82 83 84 87 89 90 92 94 97 102 106 104 100 98 96 95 95 92 91 91 91 90 89 89 88 88 87 87 86 85 84 84 83 82 80 80 80 79 77 77 75 74 73 72 70 69 72
55 55 55 55 55 55 56 56 58 58 58 59 60 61 62 62 63 63 65 66 69 70 71 70 71 72 72 72 73 74 76 76 78 78 80 81 84 86 86 88 91 95 104 105 102 97 95 94 92 89 90 88 88 87 86 86 85 85 85 84 83 83 82 81 81 80 79 79 78 78 77 76 75 74 72 69 68 66 65 69
56 55 56 56 56 56 56 56 56 56 56 57 58 59 59 60 61 62 62 63 65 66 67 67 68 68 69 70 71 72 74 74 74 75 77 79 81 82 84 86 90 93 99 105 105 95 92 91 89 88 86 85 84 84 83 83 83 82 81 81 81 79 80 79 79 78 78 77 75 75 74 72 70 69 68 67 65 66 66 68
56 56 57 57 57 57 57 57 57 57 57 57 58 58 58 59 59 59 61 61 62 63 64 65 66 67 68 69 71 72 73 73 75 76 77 80 81 83 85 88 90 95 123 140 137 110 95 92 90 88 86 86 85 85 83 83 82 82 82 81 80 79 79 78 77 77 75 74 73 70 71 70 70 70 70 70 69 68 68 85
