P2
80 80
255
114 109 108 108 110 114 117 118 120 122 124 125 126 127 129 131 133 135 137 139 140 142 143 145 148 150 152 154 156 157 159 159 161 163 163 163 167 171 170 172 172 174 177 177 176 177 176 179 179 177 177 176 176 175 175 174 174 174 173 172 172 169 168 166 165 162 162 160 157 156 153 152 151 150 147 145 143 142 139 151
102 100 103 104 105 107 110 112 113 114 117 117 117 119 121 123 125 127 127 128 129 131 134 136 139 141 142 144 145 146 147 149 151 151 151 152 155 156 158 158 160 162 164 165 163 165 164 165 164 165 163 163 164 161 161 161 162 161 160 159 160 159 156 155 154 154 151 149 147 145 144 143 141 139 137 136 133 131 130 141
103 101 103 105 106 108 110 110 113 115 117 119 120 122 125 125 128 129 130 131 132 134 136 137 140 142 144 143 144 146 147 147 149 150 150 153 154 156 159 159 161 164 165 166 168 167 167 169 167 165 165 167 165 163 163 164 165 163 162 162 161 161 160 158 157 155 154 152 152 150 148 147 144 142 141 140 139 135 133 146
105 102 103 104 107 109 112 112 114 116 117 120 120 122 126 127 127 129 129 131 133 134 135 135 139 140 143 144 146 148 149 150 151 153 154 157 158 159 161 163 164 165 165 166 168 168 167 165 166 162 162 162 159 161 161 163 160 161 160 161 159 159 159 158 158 156 155 154 153 152 150 150 148 145 144 142 140 137 136 150
105 103 103 104 107 111 112 113 115 116 117 120 122 124 125 126 126 128 131 133 134 136 138 139 141 143 145 148 149 152 153 153 152 151 152 152 150 151 152 151 149 148 147 147 148 147 146 144 144 144 142 142 142 142 143 142 143 144 144 143 143 143 143 144 144 145 144 146 148 147 148 150 149 147 146 145 143 142 140 155
103 102 104 105 109 110 112 113 114 116 117 121 122 123 125 127 129 131 133 135 137 139 139 140 137 137 137 138 136 137 137 137 136 138 140 140 142 143 145 145 146 147 148 150 151 151 151 150 149 147 146 146 145 147 148 147 148 149 148 147 145 145 144 142 140 140 137 136 136 135 136 136 137 138 140 143 143 143 141 154
104 102 104 106 109 110 112 114 115 116 118 121 121 123 124 126 127 127 127 127 127 128 128 129 129 132 133 135 138 139 142 143 144 145 147 147 148 150 149 150 150 151 153 154 154 154 152 152 150 149 147 146 145 147 148 148 149 150 151 151 149 147 145 143 143 143 143 141 141 139 139 136 134 133 131 131 132 133 133 149
104 103 104 106 108 110 111 112 115 116 118 118 117 116 115 116 117 119 123 126 130 133 135 138 139 139 141 142 144 144 145 146 147 148 149 148 149 151 151 152 153 153 155 155 155 157 155 153 151 151 148 147 147 149 149 150 150 150 151 152 148 146 143 143 142 142 143 142 141 141 140 140 139 137 136 133 132 131 127 138
103 101 102 105 108 109 111 111 110 110 110 111 113 117 119 124 127 128 131 134 135 136 137 140 140 140 143 143 144 146 146 148 148 149 151 152 151 152 154 154 156 157 158 158 158 159 157 156 154 152 150 148 148 151 152 152 153 152 152 150 147 146 144 143 144 143 142 143 143 143 143 140 139 138 137 135 134 133 131 142
100 99 101 103 105 104 104 105 109 112 116 120 123 125 127 128 130 131 132 134 135 138 139 140 141 143 144 145 146 148 149 149 150 151 152 154 154 156 156 158 158 158 159 160 160 161 160 158 156 154 152 150 150 152 152 154 153 154 151 150 148 147 146 145 145 145 144 144 145 145 144 143 141 139 138 137 136 134 130 144
97 94 93 97 103 106 110 114 117 118 121 121 124 126 127 129 130 133 135 136 137 140 141 143 142 144 146 147 148 149 151 150 151 154 154 156 158 159 160 160 161 161 161 162 162 162 163 160 159 158 155 153 154 155 156 156 155 154 152 151 151 149 149 148 147 147 146 146 147 146 145 145 142 141 140 138 137 135 133 145
91 85 77 95 110 112 113 115 116 118 121 123 125 127 128 131 133 135 136 137 139 141 142 143 144 146 147 148 150 151 152 153 154 154 156 158 160 160 161 162 163 163 162 164 165 164 165 163 162 161 158 159 158 153 157 157 157 156 154 153 153 151 152 149 148 148 147 148 149 148 147 146 145 143 141 140 138 137 135 147
85 77 69 91 110 111 114 114 118 120 122 124 126 128 129 133 134 135 138 138 139 141 144 145 147 147 148 151 151 153 155 156 157 158 158 158 160 161 162 162 162 166 166 167 169 168 167 165 165 164 166 159 117 96 154 160 158 157 156 157 136 102 122 139 148 151 150 151 152 151 151 148 144 136 137 141 140 138 136 148
80 72 64 87 110 112 114 116 119 120 123 125 127 128 131 134 135 137 138 139 142 144 144 146 148 150 150 152 152 154 157 156 145 133 158 161 162 162 164 150 99 114 134 154 168 171 170 169 169 170 148 94 78 82 127 164 160 159 159 158 106 72 84 75 94 121 147 154 153 141 120 103 85 73 112 143 141 140 138 151
74 66 64 85 110 113 115 117 119 122 124 127 128 131 133 135 136 138 138 141 121 119 133 146 150 151 152 154 154 152 133 104 83 82 144 165 164 164 167 132 93 83 78 72 93 147 173 171 166 126 67 97 87 55 87 158 162 161 161 151 88 111 115 69 61 76 145 156 153 104 77 80 57 53 98 143 143 141 137 124
75 69 68 84 110 114 115 118 120 122 124 124 120 118 113 121 136 139 141 139 92 89 89 88 102 134 154 155 140 93 76 103 85 103 122 167 167 166 168 118 108 106 120 56 58 141 176 178 133 59 85 135 117 77 73 134 166 163 164 136 65 87 100 80 81 97 157 157 155 110 81 94 98 81 92 141 145 136 96 84
82 75 74 85 109 115 117 119 121 123 119 87 79 79 86 86 133 140 142 137 90 126 129 89 78 108 156 157 143 91 92 74 99 120 102 166 168 168 167 109 124 128 118 76 70 162 177 179 152 80 131 115 77 89 83 95 162 166 167 111 59 95 78 112 102 125 163 159 157 122 93 90 108 94 88 138 146 131 88 116
87 79 77 83 108 115 117 119 122 124 120 88 91 107 109 79 129 141 142 136 83 74 75 84 81 114 157 158 158 102 75 57 120 88 72 157 170 171 164 101 127 127 111 65 90 174 179 180 177 108 100 159 113 84 58 107 166 167 160 83 73 118 98 107 80 152 164 161 161 134 82 100 83 64 68 133 147 141 97 91
90 83 78 82 106 116 118 120 123 124 125 84 80 87 79 75 121 143 145 134 97 81 67 98 78 120 160 160 162 126 88 82 129 113 81 135 174 175 156 71 104 111 103 61 118 182 181 181 184 154 99 142 99 85 133 170 172 170 162 126 103 88 81 64 99 167 165 164 164 145 85 72 61 74 101 143 150 147 122 87
94 86 80 81 103 117 119 121 123 124 127 94 76 72 74 79 112 143 146 132 89 98 74 84 59 128 161 161 163 151 91 107 117 66 82 131 177 177 163 102 94 103 70 54 146 186 183 185 186 182 107 62 107 163 183 180 176 174 172 172 170 161 142 118 146 170 168 167 166 154 115 121 140 151 155 153 152 150 137 84
95 88 81 80 99 117 119 122 124 126 129 105 63 70 82 89 102 143 146 144 111 92 83 85 61 134 163 163 165 166 101 69 98 120 152 171 178 180 180 178 168 148 126 111 172 189 188 188 188 189 158 139 182 186 185 184 182 180 179 178 179 178 178 177 176 173 171 170 168 165 165 166 163 161 157 155 154 151 146 130
96 90 83 80 95 117 120 123 125 127 129 120 85 87 94 101 120 144 147 150 153 150 143 126 113 148 164 166 168 171 153 141 165 176 178 178 181 181 183 183 185 188 188 185 190 192 192 191 192 190 190 192 191 189 188 187 185 184 183 181 182 180 181 178 176 175 173 173 170 169 167 166 164 162 160 158 157 155 150 164
95 92 86 80 91 115 120 123 126 128 130 133 134 136 140 142 144 146 148 151 152 155 159 161 163 162 166 168 170 172 174 176 177 178 181 181 183 185 185 187 187 189 190 191 194 194 194 193 194 193 192 192 193 190 188 190 189 189 186 186 186 184 174 177 180 178 176 174 173 171 159 162 167 164 162 158 158 155 152 168
95 94 88 81 86 111 122 123 126 128 131 133 135 138 141 143 145 147 150 153 155 156 159 162 163 165 168 169 172 174 175 176 177 181 184 183 186 187 189 190 190 191 194 196 196 198 197 198 198 199 198 198 197 196 195 194 192 191 191 192 183 137 94 153 185 180 180 177 177 164 90 93 150 167 165 162 160 158 154 137
96 94 91 82 82 108 121 123 126 128 131 134 135 138 141 145 147 149 151 154 157 158 153 154 166 169 170 172 174 175 179 182 183 177 174 187 190 191 192 193 189 189 188 185 190 200 200 201 194 158 143 137 126 121 165 199 195 195 195 162 113 120 124 118 183 182 181 180 177 120 85 86 89 131 164 163 161 160 124 97
97 94 93 84 81 102 120 124 126 129 132 134 138 127 95 122 147 151 152 155 157 160 124 90 128 165 173 173 176 177 177 161 135 101 96 183 193 194 197 155 110 104 101 96 132 204 204 206 178 76 99 97 111 106 153 201 199 188 130 82 123 128 121 107 165 186 184 184 146 66 126 139 83 76 127 166 163 127 69 73
97 94 94 87 81 96 120 125 127 130 133 135 140 112 55 56 89 130 153 156 158 157 103 124 107 90 143 173 178 177 113 86 101 113 64 162 197 196 198 136 140 140 95 113 130 206 206 209 172 101 125 132 178 103 167 204 202 174 90 86 116 90 87 113 130 189 188 170 84 77 132 121 76 75 146 171 137 80 105 115
96 95 97 90 81 90 117 124 127 131 133 136 137 97 75 71 60 79 114 156 160 145 93 104 98 67 61 135 183 182 107 116 156 127 106 136 200 199 203 145 133 165 125 77 125 211 210 211 168 95 93 112 94 78 182 209 205 199 115 63 121 96 82 82 109 189 192 139 59 105 110 84 87 130 174 171 149 101 119 146
97 95 97 94 83 86 112 125 128 130 134 137 131 85 93 103 114 102 108 158 163 121 105 156 111 119 76 142 185 188 150 98 104 148 150 100 194 202 207 148 78 157 160 92 124 215 213 216 162 145 162 105 102 102 192 212 208 208 165 85 139 124 88 134 183 194 192 182 139 89 56 52 103 173 176 173 170 134 89 119
97 95 97 96 86 83 106 125 128 130 134 138 128 85 76 102 125 91 127 160 162 127 84 132 121 108 98 171 184 188 178 113 118 140 106 66 178 207 210 153 99 122 138 102 136 218 216 220 161 116 140 131 99 109 208 216 213 212 202 110 79 129 181 204 202 198 195 193 194 168 106 89 166 182 179 176 175 166 117 99
96 94 97 97 88 81 99 124 128 130 133 137 139 131 104 76 76 92 145 161 163 166 151 108 95 109 124 184 187 190 193 134 114 97 114 151 197 209 213 178 127 125 126 134 178 223 221 222 201 176 180 187 193 207 219 219 216 216 213 178 171 207 210 205 205 202 200 197 195 194 186 178 187 186 182 179 176 174 158 167
96 94 96 98 92 81 90 120 127 130 133 137 140 143 146 135 97 105 154 162 164 168 172 174 150 113 159 188 189 193 197 180 153 184 204 210 210 211 213 217 216 219 222 224 226 226 225 225 226 229 228 227 227 225 223 221 220 219 216 216 217 213 211 207 206 205 202 200 199 196 194 193 189 188 184 181 178 175 173 190
95 93 96 97 95 84 84 113 127 130 134 137 141 145 143 148 154 153 158 162 166 170 173 175 180 182 185 188 190 196 198 200 206 206 210 210 212 214 218 219 223 225 226 226 227 229 228 229 229 229 230 229 230 228 226 225 224 223 223 221 220 219 218 212 210 208 205 204 197 198 199 196 192 190 187 184 184 181 176 195
95 92 94 97 97 87 80 105 126 131 134 138 141 143 148 150 153 157 161 164 168 171 174 177 181 184 192 192 193 197 200 201 206 211 209 214 218 219 222 224 224 216 231 233 232 234 234 234 236 237 232 210 204 230 232 231 229 220 203 196 192 184 189 214 215 214 211 180 104 121 149 174 190 193 192 183 145 126 127 140
95 93 94 97 98 92 79 95 125 131 134 137 141 145 149 152 126 105 151 166 169 173 175 181 176 164 142 171 198 200 203 208 209 164 114 200 223 224 226 232 199 93 146 218 241 241 240 237 212 176 142 109 127 227 238 236 234 159 92 98 90 130 125 211 220 216 211 124 88 163 122 93 139 194 193 173 113 88 75 78
95 93 94 96 97 95 82 87 120 132 135 138 142 146 150 137 86 66 91 146 171 173 170 129 101 79 88 122 196 203 204 189 116 95 123 137 224 229 230 231 144 101 118 118 168 235 246 214 120 161 139 113 96 218 242 241 234 145 142 131 100 115 141 221 223 222 189 102 116 186 153 101 161 199 196 162 114 93 89 131
94 92 93 95 96 97 87 82 111 131 135 138 142 146 143 104 90 84 84 92 138 174 175 109 95 116 109 72 178 207 202 120 110 130 154 81 178 232 234 193 128 166 149 116 86 226 252 231 122 128 120 135 105 203 248 245 233 143 143 132 145 80 155 230 227 221 138 93 116 168 150 130 195 203 199 149 100 83 89 117
94 92 94 94 96 98 92 80 101 129 133 138 142 146 136 95 84 114 123 84 93 168 180 153 117 119 100 91 143 206 211 166 140 145 95 83 106 224 237 147 118 209 229 104 167 251 253 250 155 129 132 146 107 183 251 249 227 117 98 147 147 137 183 234 232 211 109 86 83 149 118 166 208 204 197 132 108 88 56 101
93 92 93 93 95 97 96 82 92 124 132 137 141 144 147 138 98 106 103 87 145 175 180 179 109 118 147 99 124 201 213 215 134 66 81 112 185 233 240 217 157 163 194 140 240 254 254 255 171 80 91 124 176 230 254 253 230 148 136 137 132 153 217 239 235 228 210 181 147 126 138 205 211 208 201 165 143 142 138 173
91 91 93 92 93 96 98 86 83 117 133 136 140 144 148 153 150 121 91 131 173 177 181 185 154 110 144 172 197 209 213 219 210 119 154 218 238 241 244 248 250 215 160 210 255 255 254 255 232 202 235 255 255 255 255 254 253 250 249 248 249 247 243 239 238 235 233 231 228 218 213 216 212 209 207 206 204 201 196 210
88 88 90 91 92 95 97 91 79 105 131 136 139 144 148 152 155 157 148 164 172 177 181 185 189 194 201 202 206 210 215 219 224 223 231 234 238 243 247 249 251 255 255 255 255 255 255 255 255 255 255 255 255 255 255 254 255 254 254 253 253 249 246 242 239 236 234 233 230 225 222 218 216 211 208 208 205 200 194 209
87 86 89 90 92 95 96 94 81 94 126 134 139 143 146 151 155 159 165 166 171 176 181 185 190 193 195 204 208 212 217 220 227 233 235 241 244 246 250 252 255 255 242 250 255 255 255 255 255 232 252 255 255 255 255 255 255 255 255 241 234 249 249 247 244 239 235 192 174 225 224 222 218 215 203 174 186 201 200 212
85 84 87 89 91 93 95 96 86 85 121 133 137 142 147 150 154 158 139 103 139 177 181 184 190 165 120 155 200 217 218 224 197 169 174 174 201 248 253 255 246 196 121 175 255 255 255 255 221 125 132 208 254 255 255 251 223 189 147 128 128 238 253 251 249 236 169 112 97 166 227 224 219 217 164 123 129 118 153 208
84 83 86 88 90 93 94 95 90 80 110 132 136 141 145 149 146 114 97 110 97 149 181 185 187 123 121 75 122 170 217 227 157 97 94 117 137 246 255 218 139 176 137 120 227 255 255 248 143 141 135 81 155 243 255 234 133 132 144 136 122 224 255 251 226 169 135 91 86 104 178 226 223 201 117 145 146 84 116 208
83 82 84 88 91 92 93 95 94 81 97 127 133 136 142 147 133 91 116 132 118 113 161 186 162 99 123 131 109 127 218 229 172 115 143 152 124 246 255 216 104 126 194 123 137 252 255 187 179 203 148 81 152 249 255 247 151 165 153 134 116 205 255 249 165 117 140 116 124 131 146 222 221 169 119 106 110 100 166 218
81 81 84 87 89 91 92 94 94 85 87 119 130 135 140 144 148 131 118 121 114 100 145 184 161 112 108 144 117 175 222 229 184 95 140 121 141 244 255 255 171 149 201 140 181 252 255 207 156 126 110 146 236 255 255 254 170 161 99 67 89 199 255 255 232 127 102 119 126 152 220 229 213 132 104 122 131 147 197 217
80 81 82 85 87 90 92 92 93 89 81 110 128 132 137 142 146 149 129 104 107 150 176 181 188 183 155 127 138 211 220 225 214 168 166 170 196 250 255 255 248 173 186 236 255 255 255 255 243 186 123 215 255 255 255 255 201 134 167 202 229 249 255 254 255 231 124 112 194 235 234 230 224 205 176 149 127 178 204 216
80 80 81 84 85 88 90 90 92 91 81 98 123 131 134 139 143 147 150 143 161 170 176 179 185 192 199 195 200 216 220 224 232 239 245 253 255 255 255 255 255 253 255 255 255 255 255 255 255 255 252 255 255 255 255 255 255 255 255 255 255 255 255 255 255 253 233 220 239 238 233 231 227 224 222 216 209 209 202 215
79 79 81 81 84 86 89 89 90 91 84 88 116 126 131 134 140 145 150 158 162 168 172 176 183 190 198 200 192 212 219 223 231 239 238 223 248 255 255 255 255 243 249 255 255 255 255 255 255 255 255 255 255 255 255 255 255 255 255 255 255 255 255 255 255 250 241 245 240 237 232 229 225 221 216 209 210 209 202 216
78 77 79 80 82 84 86 89 88 91 87 81 109 122 126 131 135 141 136 117 118 121 135 171 181 186 171 123 102 178 217 224 230 211 149 128 201 255 255 255 246 133 167 216 252 255 255 241 209 177 175 200 255 255 255 246 229 207 166 179 252 255 255 255 251 197 143 191 239 232 230 227 221 193 150 143 202 206 200 215
77 76 78 80 81 83 85 86 88 88 88 81 98 118 123 127 130 136 120 85 80 68 85 160 177 150 101 116 111 109 195 224 194 124 129 173 133 222 255 254 183 139 173 154 168 251 255 182 108 141 150 145 252 255 255 161 144 177 97 98 239 255 254 237 180 154 159 114 187 231 225 195 146 90 79 109 179 205 198 213
75 75 77 79 80 82 84 85 86 87 87 81 89 111 118 122 126 131 125 94 81 78 92 146 171 158 117 140 162 111 142 215 210 153 147 150 115 149 255 235 157 190 182 189 187 254 255 205 115 193 186 130 228 255 255 180 156 210 176 145 215 255 242 137 96 180 146 130 101 205 226 152 80 117 139 130 150 199 195 208
75 74 76 78 79 81 81 83 85 86 86 84 82 103 112 116 120 126 126 91 77 88 88 135 165 171 149 124 123 133 183 210 220 200 115 109 173 230 255 253 225 193 134 168 249 255 255 240 140 184 188 152 219 255 255 204 126 165 166 150 200 254 249 187 110 138 122 148 171 214 219 187 99 128 150 149 163 194 191 205
74 74 74 77 78 79 80 82 83 85 86 85 80 95 108 111 115 120 123 119 120 125 132 148 157 162 169 147 156 190 197 201 210 216 191 206 243 251 255 255 255 254 216 230 255 255 255 255 219 219 236 249 255 255 255 239 161 170 203 223 243 249 245 241 184 102 120 190 218 214 211 204 126 106 152 184 193 189 185 201
73 72 73 75 76 78 80 81 82 83 84 85 81 87 103 107 110 114 118 123 128 132 136 144 149 156 161 167 173 183 189 195 202 210 223 233 240 247 252 255 255 255 255 255 255 255 255 255 255 255 255 255 252 253 252 253 255 255 254 251 247 242 238 234 230 203 207 215 210 207 202 202 190 185 193 191 187 183 179 196
72 72 73 74 75 77 79 80 81 82 83 84 82 82 97 102 106 108 112 117 116 88 101 129 141 147 154 132 111 141 173 185 195 184 151 159 161 205 245 254 245 198 214 236 252 255 255 241 219 219 223 231 243 242 239 234 235 236 239 240 238 234 230 221 217 218 215 208 202 200 198 195 190 182 182 182 178 175 172 187
72 71 72 73 74 75 77 79 80 81 82 83 82 79 91 98 101 104 107 108 86 67 76 94 122 139 138 87 85 102 104 156 186 150 101 96 72 153 236 249 211 165 159 151 188 254 254 197 147 142 148 157 224 229 215 146 146 142 146 192 231 227 218 168 144 148 164 185 194 187 165 146 128 107 148 175 171 167 163 177
71 70 71 73 73 75 76 77 78 79 81 83 82 79 84 93 96 100 103 95 77 72 76 78 100 133 113 85 95 89 82 154 175 150 105 108 87 142 224 234 185 157 171 182 197 251 246 181 125 149 147 142 208 214 197 120 150 148 119 172 221 216 194 154 162 123 113 140 185 173 101 103 121 95 135 166 162 158 155 166
70 69 70 71 72 74 75 76 77 78 79 80 82 79 80 89 93 96 98 100 93 77 72 86 117 125 122 112 99 78 118 157 163 152 97 120 110 144 212 220 192 166 172 182 223 242 235 174 118 95 92 126 199 203 182 111 116 151 134 181 212 207 159 141 131 101 112 166 177 165 103 106 110 119 130 156 152 149 146 151
69 68 70 70 71 72 73 74 76 77 78 80 80 79 78 86 90 92 95 97 101 97 89 107 115 119 124 127 124 117 138 146 153 156 157 161 169 181 198 209 220 226 223 213 230 229 219 197 170 155 143 156 187 188 178 129 129 152 145 185 202 199 173 149 140 114 138 172 168 160 104 85 111 124 140 146 143 140 135 138
68 68 69 69 70 71 72 73 74 76 77 78 78 79 77 82 86 88 91 93 96 99 102 104 107 113 116 119 124 129 132 137 142 147 153 160 167 175 185 197 208 220 225 229 222 214 206 198 191 185 182 177 174 173 172 174 175 175 181 187 189 190 190 185 173 156 163 162 157 153 141 138 142 142 140 137 135 130 125 126
68 66 67 68 69 70 71 72 73 74 75 76 77 78 77 78 83 85 86 89 91 93 96 99 102 105 108 111 115 118 122 127 130 135 140 145 151 158 168 179 190 202 208 210 206 199 190 180 172 169 165 161 159 157 157 158 157 160 164 168 172 174 175 173 169 163 157 151 146 143 139 137 134 131 129 126 122 120 113 116
65 64 66 67 67 68 70 70 71 71 73 75 76 78 78 78 80 81 83 86 87 89 91 93 96 98 101 105 108 110 113 116 119 124 127 131 136 142 151 159 168 176 186 188 184 178 171 162 157 151 149 146 145 143 142 143 142 145 148 150 155 156 157 156 152 147 142 138 134 131 127 124 121 120 117 114 112 109 104 109
64 64 65 65 66 67 68 69 70 70 72 73 74 75 77 76 77 79 81 81 83 85 87 89 91 94 96 98 101 104 106 109 112 113 116 120 123 127 130 135 139 143 147 148 149 146 145 142 140 137 134 133 131 130 129 130 131 133 136 136 140 141 141 141 138 135 130 126 122 119 116 114 112 109 108 106 104 102 99 106
63 63 63 64 65 66 66 66 68 69 71 72 73 74 75 76 77 78 80 81 83 84 87 89 92 94 95 97 99 101 104 107 108 110 113 116 117 120 122 124 126 128 129 130 129 129 129 129 128 126 125 125 123 122 121 121 120 119 119 119 119 121 119 119 118 116 114 113 111 110 108 107 106 104 103 102 100 100 97 103
62 61 62 63 63 64 65 66 67 68 69 70 71 72 73 75 76 77 78 79 82 83 86 89 92 94 96 95 97 100 103 102 106 108 110 113 115 118 121 122 124 126 127 128 127 126 126 126 125 124 123 121 120 120 118 118 116 116 116 116 114 113 113 113 112 110 110 109 108 106 106 104 104 103 101 100 98 97 94 100
61 60 61 62 62 64 64 65 66 67 67 68 69 71 71 73 74 76 77 78 80 83 86 88 91 93 96 95 95 97 99 100 104 105 108 110 113 115 117 120 122 124 124 124 125 124 123 123 123 121 119 118 117 117 116 115 114 114 114 113 113 111 111 110 110 108 108 107 107 104 103 103 102 100 99 98 96 94 92 98
60 59 60 61 62 63 64 64 65 66 67 67 68 69 70 72 72 74 75 76 80 83 84 87 89 91 93 94 93 94 96 98 100 103 106 108 111 112 116 117 120 122 123 124 124 123 121 121 120 119 116 116 114 114 113 112 112 111 112 110 110 109 109 108 107 107 106 105 104 103 103 101 100 98 97 96 94 94 91 95
60 59 60 60 61 62 63 64 64 66 67 67 67 68 69 70 72 73 74 77 79 82 84 86 87 89 92 93 92 92 93 96 98 101 104 107 109 111 113 116 120 123 124 124 125 123 121 121 119 118 116 115 114 113 111 111 110 109 109 108 107 107 106 105 105 106 104 104 102 102 101 101 100 99 97 95 93 91 89 94
59 59 60 60 61 62 63 63 64 65 66 66 67 67 68 69 70 72 74 77 80 82 82 83 85 87 90 92 90 91 92 94 96 98 101 104 107 109 112 115 118 120 123 123 123 121 121 119 117 117 114 113 113 111 109 108 108 107 106 105 105 105 105 105 104 105 104 103 101 100 100 99 99 97 96 93 92 89 88 93
58 58 59 59 60 61 61 62 63 64 64 66 66 66 67 68 70 71 74 77 79 80 81 82 83 85 88 89 89 89 90 92 94 97 100 103 105 107 111 114 116 118 119 121 121 120 119 117 115 114 113 111 110 108 108 106 105 105 104 104 104 103 103 103 102 102 101 101 100 99 98 97 97 96 94 93 92 90 87 91
58 58 59 59 60 60 61 61 62 63 63 65 65 65 66 67 69 69 73 76 77 79 79 80 82 83 86 88 87 87 89 91 94 96 99 102 105 108 111 114 116 119 122 124 123 121 118 116 115 114 111 109 108 107 105 104 103 104 103 103 102 102 102 101 101 100 101 101 100 100 99 98 97 95 94 93 90 88 85 90
58 58 58 58 59 59 60 61 61 62 63 64 63 64 65 66 67 69 72 75 76 77 78 79 79 81 85 84 85 86 87 89 92 94 97 100 103 106 109 112 115 120 127 133 132 122 118 117 116 113 112 110 107 106 105 104 103 103 102 102 101 101 101 101 101 100 101 100 99 99 98 97 95 93 92 89 87 85 83 87
56 56 58 58 59 59 60 60 61 62 62 63 63 63 64 65 66 67 71 73 75 76 78 78 79 82 83 82 82 83 85 87 89 91 92 96 99 101 104 107 109 113 123 127 126 117 114 111 111 109 107 106 106 104 103 102 102 101 100 100 100 100 100 100 98 97 97 97 95 94 92 92 91 89 87 85 84 81 79 85
56 55 55 57 57 59 59 60 61 61 62 62 62 62 64 64 65 66 69 73 74 75 76 77 79 80 79 79 79 80 83 83 85 88 89 91 94 95 98 101 103 107 122 127 122 110 107 106 105 104 102 101 101 100 99 99 99 97 98 97 97 96 96 95 94 94 93 93 91 90 88 88 87 84 83 81 80 78 77 82
56 54 54 55 56 56 57 58 59 60 61 61 61 61 62 63 64 65 67 71 74 74 75 77 78 77 75 76 76 78 80 81 83 84 85 87 89 90 92 94 97 100 108 110 108 102 102 101 101 98 97 96 97 96 95 95 95 94 94 93 93 92 92 91 91 89 88 88 87 86 84 83 82 80 79 77 77 76 74 79
56 55 55 55 55 55 56 56 57 58 59 59 60 61 62 62 63 63 65 68 71 73 73 74 74 73 73 73 73 75 77 77 79 80 81 83 85 88 89 90 94 98 105 105 103 100 99 97 96 95 93 92 92 92 92 91 91 91 90 89 87 88 87 86 86 85 85 83 82 81 81 80 79 78 76 75 74 73 72 76
56 55 55 56 56 56 56 56 57 57 56 57 58 58 59 60 61 62 63 65 68 69 70 70 70 70 71 71 71 73 74 75 76 78 79 81 83 85 86 88 92 97 106 106 102 97 95 94 92 91 89 89 89 89 88 87 87 86 85 86 85 84 84 82 82 82 81 80 80 79 78 78 77 76 74 74 73 71 70 74
56 55 56 56 56 56 56 57 57 56 56 57 57 57 57 57 59 59 60 61 63 64 65 66 67 67 68 69 69 71 71 73 74 74 76 77 79 80 83 86 90 94 99 105 104 94 91 91 89 87 86 85 85 85 84 84 84 82 82 82 82 80 80 80 80 80 79 78 78 77 77 76 75 74 73 71 69 68 67 68
56 56 57 57 57 57 57 58 57 57 57 58 59 58 59 59 60 60 60 61 62 62 62 63 63 64 65 67 67 69 71 71 74 75 76 78 80 82 86 89 90 101 133 142 130 103 95 92 90 88 87 86 86 85 83 84 83 83 83 82 81 80 81 80 80 81 80 78 78 78 76 74 73 72 70 68 67 67 67 84
