P2
80 80
255
114 109 107 110 112 115 118 119 120 120 122 124 126 127 130 131 134 136 138 139 139 141 145 146 149 148 151 154 156 158 158 159 161 165 167 168 168 170 170 172 172 174 172 172 173 175 175 177 176 177 175 174 173 169 170 168 167 166 167 166 164 163 162 160 159 157 156 154 152 151 151 150 148 147 146 145 143 143 141 153
100 100 102 104 105 107 109 109 111 113 114 116 118 119 121 123 124 125 127 128 128 130 132 135 134 135 137 140 142 145 145 145 147 149 150 151 152 154 154 156 157 158 158 160 161 164 165 164 164 164 164 165 162 162 161 159 158 157 155 156 155 153 153 150 148 146 144 143 142 142 139 140 140 138 134 133 133 132 131 145
103 101 103 105 106 107 110 111 113 114 114 118 118 120 123 124 126 127 129 131 133 136 135 138 139 140 141 142 143 148 149 149 151 152 153 154 155 156 158 158 159 160 162 163 165 166 168 166 165 165 164 166 165 166 164 164 162 163 161 161 160 160 159 157 154 152 150 148 146 145 142 142 141 140 138 136 133 133 133 147
103 102 103 105 107 110 111 112 114 115 117 118 119 121 123 125 126 128 129 133 135 136 138 140 141 143 144 145 146 148 150 153 154 154 156 156 157 159 160 160 162 164 163 165 166 167 168 168 168 168 166 165 166 167 165 162 162 164 164 163 161 161 161 159 158 155 154 153 150 147 146 146 145 142 140 138 135 135 133 148
103 101 103 105 107 109 109 110 114 117 117 118 119 120 121 120 120 120 120 123 125 125 126 128 129 128 129 130 130 132 134 135 136 137 138 139 141 142 143 143 147 148 147 149 151 151 152 154 155 156 157 158 160 162 162 164 166 168 167 164 163 163 160 159 159 158 156 155 153 150 151 150 147 145 144 142 138 138 136 150
101 101 103 104 106 108 109 110 111 111 109 110 110 111 112 113 115 117 119 122 126 127 129 131 131 134 136 136 137 138 139 141 141 142 142 144 145 145 145 146 145 147 147 148 148 148 146 145 143 141 140 141 140 141 144 145 146 150 153 154 156 158 158 157 159 158 155 155 154 154 155 153 150 148 147 144 142 140 139 154
102 99 101 102 101 101 102 104 107 108 111 115 117 120 121 124 126 128 129 129 132 133 135 136 135 138 139 139 141 142 144 143 145 145 146 147 148 149 149 149 150 151 153 153 153 153 152 152 149 148 147 144 144 146 146 145 146 146 146 146 144 142 141 142 145 147 149 151 154 153 155 156 154 152 149 148 147 145 142 156
96 95 96 99 102 105 109 113 115 116 118 120 121 122 124 126 127 128 129 131 132 133 135 137 138 139 139 141 142 142 144 144 145 146 148 148 149 149 150 152 153 154 155 154 156 155 154 153 151 149 148 146 145 147 147 148 150 150 151 149 147 144 142 141 141 139 139 138 139 142 145 149 150 152 153 151 149 149 145 158
78 98 104 107 108 109 112 113 115 117 119 120 121 124 125 126 128 129 131 134 134 135 137 139 139 141 141 143 144 145 146 147 147 149 150 151 151 152 153 154 155 157 157 157 158 157 155 154 153 150 148 146 147 148 149 151 153 151 151 148 145 143 142 141 142 142 142 143 141 140 141 139 138 139 144 146 148 148 145 159
70 99 107 107 109 111 112 114 116 118 120 121 124 124 126 128 130 130 133 135 136 137 138 140 141 143 144 145 146 146 148 149 149 151 151 153 153 154 155 157 159 160 161 160 160 160 159 156 155 153 150 149 149 150 151 152 152 151 150 149 148 145 144 144 144 143 144 143 144 144 144 142 141 138 137 137 136 137 138 157
69 98 107 108 110 112 113 115 117 120 121 124 124 126 128 129 131 132 135 136 136 138 139 141 142 144 144 146 147 149 150 150 151 152 152 154 157 158 159 159 162 163 162 163 164 162 161 158 156 156 154 152 152 152 155 154 153 152 152 151 150 148 147 146 145 144 145 145 145 145 144 144 142 140 140 138 136 135 130 144
68 97 108 109 112 114 114 117 118 121 122 124 126 127 128 130 132 134 136 136 138 139 141 143 144 145 146 148 150 150 152 153 152 154 155 158 157 157 158 161 161 162 163 164 164 164 163 162 161 160 158 157 156 156 157 156 155 154 153 153 153 150 149 148 147 147 146 147 149 147 146 145 143 143 141 139 138 137 135 147
70 97 109 109 111 114 115 117 120 121 123 125 126 130 131 132 133 134 136 137 136 134 141 145 146 147 148 149 151 151 153 155 157 157 154 151 158 159 160 161 161 162 161 167 170 168 165 165 164 162 162 162 161 160 150 155 156 155 156 156 154 155 152 150 149 149 150 150 150 149 149 146 146 144 143 140 138 138 134 148
72 96 109 110 113 114 116 118 120 121 122 121 120 117 117 127 134 135 138 140 123 79 91 109 131 145 150 151 152 154 155 151 137 114 93 95 156 162 163 163 164 145 92 114 142 164 170 169 167 166 165 166 160 122 88 140 160 157 158 158 155 134 141 151 151 152 151 152 152 151 150 149 148 145 144 141 139 139 137 149
75 96 108 111 114 116 118 119 122 113 82 78 72 83 76 98 136 137 137 141 113 91 118 99 75 84 117 152 153 155 120 86 82 94 85 92 143 164 164 165 168 124 96 82 78 83 116 161 171 168 168 145 96 75 82 109 160 160 160 161 146 78 85 105 133 151 154 155 155 153 148 139 136 145 146 144 142 140 139 150
77 95 110 111 114 116 118 120 122 111 80 95 90 121 88 86 134 137 139 142 106 79 122 114 90 82 96 153 154 157 104 93 84 90 96 111 125 166 165 166 169 110 110 110 111 51 66 155 174 169 122 63 81 120 58 75 153 163 162 162 125 93 113 65 67 109 157 157 136 102 88 68 90 145 148 145 145 138 123 147
78 93 111 112 115 117 119 120 123 118 75 83 93 98 80 82 133 140 141 144 100 80 61 66 85 80 105 156 156 159 130 87 66 75 129 87 101 167 167 170 164 104 131 132 113 65 85 171 176 173 94 86 136 114 92 80 128 166 164 162 98 77 110 83 69 113 161 159 114 82 82 60 80 143 149 145 125 89 87 139
78 91 112 113 115 118 119 122 124 123 75 76 75 65 65 75 131 140 141 141 95 106 62 80 98 75 117 157 157 161 153 82 79 77 134 82 82 162 170 172 152 98 124 126 104 60 113 179 177 178 137 88 135 89 79 75 94 164 166 152 73 84 84 103 99 143 163 161 122 88 101 107 90 140 150 121 88 96 81 123
78 89 112 114 116 119 120 122 124 126 87 72 69 83 99 84 123 141 144 143 88 96 80 83 78 56 127 160 160 162 163 106 103 117 121 87 82 148 174 177 137 63 112 111 97 59 144 182 180 181 168 97 153 135 87 73 129 167 168 129 64 111 103 109 100 162 165 163 132 93 100 91 79 136 153 122 92 108 64 102
80 86 110 115 116 120 122 123 125 128 95 53 65 69 81 74 118 143 145 147 129 103 85 85 77 59 138 161 161 163 167 130 64 100 81 81 113 159 177 178 159 108 99 98 59 70 169 184 184 183 183 128 83 90 104 159 176 173 172 152 116 96 83 66 124 170 167 167 138 83 75 58 74 140 156 138 89 93 86 84
80 83 109 115 117 120 122 124 127 128 123 110 111 115 118 122 135 144 145 148 151 153 149 136 116 102 149 163 165 166 169 157 97 114 145 165 173 175 178 180 182 181 171 149 115 121 183 186 186 186 186 162 91 138 180 184 182 179 177 178 176 167 142 117 160 171 169 170 149 99 106 128 145 157 156 150 97 61 78 126
80 80 106 116 118 121 123 125 126 128 132 135 136 139 140 142 142 144 147 150 151 154 156 158 161 159 160 164 167 168 170 171 170 174 177 177 178 178 181 183 184 186 187 189 187 187 190 190 190 189 189 184 181 189 186 185 185 184 182 182 181 180 180 177 176 174 173 170 167 165 166 166 163 161 158 155 120 100 136 165
80 78 102 117 119 121 123 125 127 128 132 133 136 138 139 142 144 146 149 151 153 155 156 159 161 163 164 166 168 170 172 174 176 178 179 179 180 182 184 185 187 188 190 190 191 192 192 192 191 192 191 191 192 190 188 190 188 187 186 185 184 183 184 181 178 177 175 172 171 171 168 166 164 163 161 157 154 154 151 164
80 77 98 117 119 121 124 126 128 130 133 134 135 138 142 143 145 147 149 152 154 156 158 157 164 165 167 168 170 173 174 176 178 179 181 184 184 184 187 188 191 192 193 195 196 196 196 196 196 196 196 196 196 197 196 194 192 191 189 188 189 181 160 179 181 179 178 177 172 159 170 169 166 164 162 159 159 155 151 166
80 77 94 117 119 122 124 126 128 132 133 137 124 87 117 142 148 148 151 153 156 157 153 100 122 162 170 172 174 175 176 179 182 181 168 150 174 187 190 192 194 189 187 187 186 187 194 198 199 198 181 169 165 161 159 185 195 194 194 192 164 119 97 166 185 183 180 181 141 76 131 171 170 166 165 162 130 124 154 169
80 78 88 115 120 123 125 127 130 132 134 137 104 51 54 84 126 149 152 153 155 161 132 95 110 99 142 172 175 176 178 164 138 109 101 67 136 193 193 196 189 116 107 98 98 103 181 204 202 196 100 89 92 94 97 170 200 197 185 131 112 139 123 139 190 184 185 166 98 104 88 121 164 169 168 130 89 89 143 171
81 78 84 112 120 122 125 127 129 132 134 134 83 62 61 48 62 97 139 156 157 159 102 88 132 87 59 106 164 180 182 110 78 109 141 72 107 193 196 199 185 115 168 116 98 113 182 207 206 190 102 128 128 169 115 181 202 196 120 86 110 100 113 121 185 187 183 110 80 153 89 73 142 172 135 79 73 92 114 173
81 78 81 107 121 124 126 128 130 133 136 120 74 104 106 94 110 85 119 158 160 147 94 124 116 84 88 54 140 185 185 137 103 155 138 125 113 182 199 202 187 115 153 158 88 88 190 209 209 186 98 91 119 106 93 196 204 202 134 70 124 88 93 91 170 194 145 65 122 120 89 101 171 166 95 120 133 104 86 169
81 78 79 102 121 124 127 129 130 132 137 104 73 79 98 119 109 82 142 158 163 124 69 149 151 109 123 85 166 185 187 172 93 101 124 176 84 158 204 205 194 82 121 170 129 84 199 213 214 179 135 156 98 92 119 205 208 208 174 81 129 106 87 124 185 196 154 86 91 65 86 163 181 174 133 101 125 99 133 180
84 78 78 94 120 123 126 129 130 133 136 125 91 75 88 109 106 99 153 160 162 151 106 99 108 116 92 120 183 186 188 187 120 129 126 119 57 139 207 209 193 100 117 131 116 107 205 217 219 173 115 145 132 91 132 215 213 211 203 115 97 126 169 202 201 198 195 171 99 61 139 187 182 180 167 108 97 136 166 181
87 77 77 87 117 123 126 128 131 133 136 140 141 126 90 60 64 127 158 161 164 167 169 148 102 105 97 158 188 189 190 195 148 105 106 121 157 193 209 212 204 139 133 131 136 161 217 219 221 203 170 174 180 183 206 218 216 215 214 167 151 203 212 207 205 202 199 197 186 157 186 190 186 183 180 152 145 174 169 184
90 78 77 81 112 123 126 129 132 133 136 140 142 147 147 129 109 147 160 162 165 169 170 174 175 145 132 182 188 191 193 197 189 166 190 205 209 209 212 215 218 220 222 224 224 226 224 226 224 225 227 227 228 227 224 222 220 219 217 216 217 213 211 208 208 205 202 201 199 197 193 192 188 186 183 180 179 174 171 187
94 80 76 78 105 122 125 129 131 133 136 139 142 146 145 151 156 156 161 163 166 169 171 174 179 183 185 186 189 194 196 198 202 205 207 209 210 212 215 219 221 223 226 226 227 227 228 229 229 228 230 231 232 230 227 226 224 224 224 223 222 220 216 213 211 209 206 202 203 200 198 195 191 190 189 184 182 177 173 190
97 82 76 76 95 123 126 128 132 134 136 139 143 146 148 152 154 159 160 164 168 170 174 176 179 184 190 191 191 196 200 200 203 208 211 207 214 218 220 222 225 228 213 226 233 234 234 234 234 237 236 227 202 212 233 232 231 223 203 194 189 183 205 219 216 213 154 114 146 173 194 198 194 157 125 125 128 170 177 193
97 87 77 75 87 120 127 130 133 135 139 140 144 147 150 126 91 139 165 165 168 172 175 179 180 171 151 140 189 198 202 204 209 208 165 105 190 222 225 227 232 218 98 125 206 241 239 240 234 202 167 131 105 166 239 236 238 174 97 95 108 126 182 225 221 202 94 143 145 95 158 203 191 131 94 79 96 169 180 197
97 91 79 76 81 113 127 130 133 135 139 142 145 149 134 82 67 75 128 166 170 174 173 134 107 81 77 90 160 203 202 206 186 113 95 129 126 221 229 231 236 161 106 118 113 149 231 248 206 120 161 134 98 144 241 242 239 160 146 128 99 117 205 229 226 164 105 161 164 113 187 207 184 111 87 111 137 182 182 199
96 93 83 76 76 106 127 130 133 136 139 142 145 137 95 87 75 79 78 114 162 175 177 105 87 104 135 70 112 203 206 194 110 111 127 158 80 169 234 236 205 125 168 154 124 83 227 254 225 125 115 142 127 137 240 247 239 148 129 152 133 117 224 230 212 103 96 150 154 152 211 210 169 114 88 71 138 191 184 200
96 95 88 76 75 95 125 130 133 135 139 142 146 111 88 90 111 119 109 64 121 176 181 153 112 118 99 78 100 182 210 211 149 151 150 95 87 99 223 241 158 114 205 236 107 174 255 254 243 148 117 131 120 135 240 251 234 123 104 128 128 158 235 234 209 128 100 116 127 194 216 213 163 114 108 100 168 193 187 203
96 94 92 79 75 85 121 129 133 136 138 142 144 142 105 72 116 115 90 87 157 178 180 180 108 115 167 115 95 155 214 215 211 110 71 81 111 182 235 243 225 164 159 190 147 244 255 254 254 148 92 129 180 228 253 255 242 187 180 180 187 220 244 240 237 232 215 185 186 221 218 214 208 202 199 199 198 194 190 206
95 93 95 83 75 78 113 129 132 135 139 141 144 149 151 128 102 92 89 153 174 177 180 186 149 79 119 138 167 197 213 217 224 192 100 153 218 242 242 245 250 254 224 166 218 255 255 255 255 236 236 255 255 255 255 254 255 255 255 255 255 249 245 243 239 238 239 234 230 224 220 218 218 213 208 204 200 196 192 207
94 93 95 88 76 74 100 127 131 135 139 141 144 149 152 156 144 113 143 170 172 176 180 184 185 176 190 201 208 210 212 217 222 223 216 232 238 241 245 248 252 254 255 255 255 255 255 255 255 255 255 255 255 255 255 255 255 255 255 255 254 250 248 246 244 236 207 232 231 228 224 219 196 201 212 208 201 199 194 209
92 91 93 92 78 73 89 124 129 134 137 140 143 147 151 153 158 162 167 169 172 176 180 185 189 194 198 202 205 210 215 219 223 227 234 239 244 245 249 250 254 255 255 235 251 255 255 255 255 239 203 251 255 255 255 255 255 239 208 168 218 254 252 252 236 164 104 177 237 232 229 194 132 138 128 185 208 202 196 208
91 90 92 93 83 74 80 117 129 132 136 140 143 146 151 154 159 163 152 157 173 177 182 184 190 186 150 181 208 214 217 223 224 204 196 196 194 221 252 254 255 241 188 111 186 255 255 255 254 152 115 120 203 250 255 242 171 140 125 112 186 255 254 233 168 109 89 108 196 237 227 144 142 137 90 182 211 204 198 210
91 89 91 94 88 75 75 107 129 133 136 140 143 148 150 155 153 123 87 97 159 178 181 184 191 147 109 87 124 183 214 223 222 122 104 107 116 164 255 255 211 137 183 130 124 237 255 255 207 142 192 94 108 216 255 239 137 145 161 130 175 255 248 154 134 133 115 133 173 238 200 128 114 122 143 211 210 206 199 206
92 89 90 92 91 79 72 94 126 130 134 137 142 146 149 134 98 97 122 94 97 167 181 186 180 102 124 95 107 111 181 227 225 133 112 134 135 150 255 255 199 97 143 198 102 164 255 241 156 188 155 109 152 252 255 249 172 182 91 77 159 255 254 204 105 112 134 172 238 238 184 123 131 130 193 217 212 207 200 197
90 89 89 91 92 84 73 83 120 128 132 135 139 142 147 115 84 119 129 130 111 116 172 187 144 89 114 154 119 105 209 225 230 132 126 167 134 162 255 255 253 149 170 182 153 219 255 251 210 150 100 146 242 255 255 255 166 120 148 192 236 255 255 255 194 116 200 246 242 238 233 220 196 186 216 215 211 206 198 186
90 89 88 90 92 88 75 75 109 126 129 133 138 140 144 146 117 117 121 109 97 112 169 184 168 127 102 118 128 167 222 225 231 162 128 132 149 198 255 255 255 235 168 208 252 255 255 255 255 251 202 220 255 255 255 255 246 247 255 255 255 255 255 255 255 241 247 244 242 239 236 236 232 225 220 216 213 208 194 178
88 87 88 89 90 90 79 72 97 123 128 131 135 139 143 146 148 117 101 96 134 170 177 181 187 192 181 151 141 206 218 225 231 234 237 245 253 255 255 255 255 255 255 255 255 255 255 255 255 255 255 255 255 255 255 255 255 255 255 255 255 255 255 255 234 235 249 244 240 239 234 199 184 224 221 217 212 209 187 170
87 86 88 87 88 91 84 73 85 118 125 129 132 137 141 143 148 148 132 153 166 171 175 181 185 190 197 204 211 213 217 225 233 239 245 251 251 255 255 255 255 255 234 252 255 255 255 255 255 249 227 222 255 255 255 253 235 200 166 236 255 255 255 215 148 146 227 242 234 211 144 96 128 212 220 216 212 206 172 166
86 84 87 87 87 89 88 75 77 110 122 126 130 133 138 142 145 150 157 162 164 170 174 178 184 190 197 194 164 198 217 225 232 241 229 172 164 249 255 255 255 217 120 180 213 250 255 244 178 131 155 159 248 255 250 162 170 148 82 204 255 250 188 154 173 127 132 229 218 110 103 132 135 187 219 214 210 199 158 163
84 83 85 87 86 86 89 79 72 99 118 122 127 129 134 138 143 142 139 139 138 137 161 176 182 187 161 112 89 138 212 224 229 190 133 130 165 181 255 255 248 152 150 171 134 201 255 240 114 155 175 129 228 255 253 162 181 199 158 187 255 233 107 132 150 150 143 220 224 128 124 162 161 192 212 209 206 188 149 158
82 81 83 85 86 86 87 84 73 87 112 118 121 125 130 134 139 111 77 77 74 62 134 172 176 136 98 121 120 94 155 220 224 147 149 167 167 99 222 255 204 165 191 188 170 240 255 255 137 177 205 152 207 255 255 175 140 164 159 195 250 246 201 117 101 162 220 224 220 170 110 165 201 208 204 203 199 170 143 152
81 80 82 83 84 85 85 86 76 77 106 115 118 122 125 129 135 112 92 81 71 69 121 168 172 146 108 141 167 122 121 207 225 207 143 110 141 174 239 255 243 209 166 120 216 255 255 255 197 178 208 228 250 255 255 222 176 210 236 245 243 237 236 194 176 218 216 213 210 204 199 206 201 200 197 195 187 154 138 146
80 79 80 81 83 84 84 85 80 73 98 112 114 118 122 125 129 119 79 72 79 84 105 160 167 172 138 120 120 133 189 210 216 225 186 142 205 255 255 255 255 255 245 220 254 255 255 255 255 254 255 255 255 255 255 255 255 255 251 244 237 229 225 225 220 212 208 204 203 193 180 184 193 190 187 185 171 142 134 141
78 78 80 81 81 83 83 84 83 73 87 106 109 113 117 120 124 123 89 86 98 102 125 155 160 165 168 141 157 189 197 203 212 220 230 237 252 255 255 255 255 255 255 255 255 255 255 254 251 248 246 247 253 253 247 233 226 221 225 231 226 213 162 157 168 186 197 183 143 132 99 146 183 179 176 173 152 134 129 137
77 77 78 80 81 82 83 83 83 75 77 101 106 108 112 114 118 121 124 129 134 140 144 148 154 159 164 171 177 183 189 196 204 212 217 220 226 233 253 255 255 220 192 201 219 247 254 230 166 153 160 174 239 243 210 152 154 129 156 222 216 181 149 131 112 139 187 155 95 127 116 139 171 167 163 157 137 126 123 131
77 76 78 78 79 81 82 82 83 79 74 93 101 104 107 110 113 117 120 125 123 124 137 142 146 150 156 134 116 144 171 185 195 194 125 125 106 131 238 255 254 179 161 131 126 217 244 204 136 154 153 153 222 230 194 148 180 148 168 214 201 133 133 101 104 161 178 152 92 103 121 141 160 156 152 143 127 121 116 122
75 75 76 78 78 79 81 82 82 81 73 84 97 100 102 105 108 112 116 111 73 81 111 130 138 143 141 88 90 104 101 146 186 179 112 130 89 124 227 253 241 176 145 158 154 222 228 192 111 104 103 137 210 216 180 141 173 165 183 208 194 135 127 113 126 168 166 152 109 128 144 150 147 143 140 129 118 114 109 115
75 74 75 77 77 78 80 81 81 81 75 78 93 95 98 101 103 107 104 81 67 70 79 94 125 138 107 78 93 94 77 147 176 173 108 113 124 125 218 244 232 189 151 139 167 220 213 193 147 136 128 158 196 199 189 176 188 193 197 197 189 182 170 156 156 157 154 150 149 146 142 139 136 131 127 117 110 107 104 111
74 73 74 75 77 77 79 79 80 80 78 74 88 93 95 97 100 103 87 74 72 76 77 87 122 128 106 99 96 75 110 157 163 166 128 134 156 174 215 230 234 234 223 200 202 207 200 194 188 185 184 182 181 180 182 186 186 188 186 181 176 169 162 156 150 144 141 136 134 131 128 125 122 119 114 108 106 104 100 107
72 72 73 74 75 77 77 79 79 80 79 74 81 90 92 94 96 98 99 88 75 70 82 112 120 123 127 125 114 106 136 148 153 159 167 175 185 195 206 216 222 223 220 212 200 192 185 180 175 170 167 165 164 162 162 165 166 168 167 167 161 155 147 142 136 130 128 125 122 119 116 114 111 109 108 105 102 101 98 103
71 71 72 73 74 75 75 78 79 79 78 74 76 86 88 91 93 95 97 101 98 86 104 112 114 117 120 125 129 131 135 139 143 148 154 162 170 179 190 200 205 206 201 193 184 176 168 162 156 153 150 147 147 146 146 148 149 151 151 149 146 139 134 129 124 119 117 115 113 112 110 109 107 105 104 102 99 98 94 99
70 70 71 72 73 75 75 76 76 77 78 76 74 83 86 87 88 91 94 96 98 101 104 106 108 110 112 116 119 123 125 129 131 137 140 146 152 160 170 177 182 182 178 172 163 156 151 146 141 138 136 134 132 132 130 130 130 128 126 125 123 120 118 116 115 114 114 112 111 109 108 107 105 103 101 99 97 95 91 95
69 69 70 71 72 73 74 74 75 76 77 76 73 78 83 84 85 88 90 91 94 96 99 100 102 104 106 108 111 113 116 118 121 123 128 131 135 140 144 145 146 145 143 139 137 134 133 132 131 130 127 126 125 123 122 122 121 120 119 118 118 116 114 114 113 113 111 110 108 107 105 104 103 101 99 97 95 92 89 92
69 68 69 70 70 71 72 73 74 75 76 76 74 76 80 82 83 84 86 87 89 92 93 95 98 99 101 102 103 105 107 110 112 112 115 117 119 122 123 124 125 127 129 128 128 129 128 127 127 125 123 124 122 120 120 119 118 118 117 116 115 115 113 111 111 110 108 106 106 105 104 103 101 99 98 96 93 90 87 89
67 67 68 69 69 69 71 72 73 74 74 75 76 76 77 79 80 81 82 84 84 86 90 93 95 97 98 98 101 103 106 105 108 109 113 115 116 119 122 122 123 125 126 126 125 126 124 124 124 123 122 121 120 117 117 116 115 115 115 114 113 111 111 109 109 108 107 106 105 105 103 102 100 98 96 93 90 87 84 88
66 65 66 67 68 69 69 70 72 72 73 74 74 75 76 77 78 79 81 82 84 87 91 93 95 97 98 98 99 100 102 103 106 108 110 112 114 117 118 119 121 122 123 124 123 123 123 122 122 121 120 118 116 116 116 114 113 112 112 111 110 110 109 108 108 107 106 105 105 102 101 100 98 96 93 92 89 86 83 87
65 64 65 65 67 67 68 69 70 71 71 72 73 74 76 76 77 79 80 82 85 88 90 91 93 95 97 98 98 97 99 101 103 105 107 109 112 113 115 118 119 120 122 123 123 124 123 123 121 120 118 116 115 114 113 112 111 110 110 110 109 108 108 107 105 105 105 104 103 102 101 99 98 96 94 91 87 85 82 84
64 63 63 64 65 66 67 68 69 70 71 71 72 73 74 74 76 77 79 81 84 87 88 89 91 92 94 97 96 95 96 99 100 102 104 107 109 111 114 116 120 121 121 123 123 123 121 121 120 118 116 115 114 112 111 110 109 108 108 107 107 106 107 105 104 105 105 105 103 102 100 99 95 94 91 87 84 82 79 83
62 62 62 63 64 65 66 67 67 68 70 70 70 71 72 73 74 75 77 80 83 85 86 86 88 90 91 94 94 92 93 96 98 100 103 105 108 110 113 115 117 118 119 119 119 121 120 119 118 117 114 113 111 110 108 107 107 106 106 105 105 106 106 105 104 105 104 103 102 99 96 94 92 89 86 83 81 78 77 80
61 61 61 62 63 64 65 65 66 66 68 69 69 70 71 72 73 74 76 79 82 82 83 85 86 87 90 91 90 90 92 94 96 99 101 104 106 109 110 112 114 117 117 119 119 121 120 119 118 116 113 112 111 109 107 106 106 105 104 104 104 104 104 104 102 101 100 98 96 94 91 89 86 85 82 80 78 76 75 77
61 61 62 62 62 63 64 64 65 66 67 68 68 68 69 70 72 72 75 78 79 80 81 82 84 85 87 88 89 89 90 92 94 97 99 102 104 107 109 112 114 116 116 118 120 121 121 120 119 116 114 111 109 108 106 105 104 104 104 103 102 101 100 99 98 96 94 94 91 90 87 84 82 80 78 76 75 74 73 76
60 60 61 61 62 62 63 63 64 66 66 66 67 67 69 69 70 72 74 77 78 79 80 81 82 83 87 86 87 87 88 91 93 94 98 101 104 105 109 112 113 115 116 117 118 118 120 118 116 111 110 107 106 104 103 102 102 101 100 100 99 97 96 94 93 91 90 88 86 85 83 80 79 77 76 74 73 72 71 75
60 59 60 60 61 62 62 62 63 64 65 66 66 67 67 69 69 71 74 76 77 78 79 80 82 83 85 85 84 86 87 89 91 94 96 98 101 103 104 106 107 108 110 110 111 113 115 115 113 107 103 102 101 100 99 98 98 96 96 95 94 93 92 90 88 87 86 84 82 82 80 78 77 76 74 72 71 69 67 71
60 59 60 60 60 61 62 62 63 63 64 64 65 66 67 68 68 70 72 75 76 77 79 80 81 82 83 82 82 84 86 87 90 92 93 94 95 98 99 99 101 102 104 105 106 109 116 114 109 103 100 98 98 96 95 94 94 92 92 91 90 88 87 86 85 85 83 82 81 79 77 77 76 73 70 68 66 66 67 72
59 58 59 59 60 60 61 61 61 62 63 63 63 65 65 66 67 68 70 73 75 76 77 78 81 81 79 80 80 81 83 84 86 87 89 89 91 92 93 95 96 97 98 99 100 103 109 106 103 100 96 94 93 93 92 91 90 89 88 87 86 86 84 84 83 81 82 81 79 77 75 72 70 68 67 67 67 67 68 72
59 58 59 58 59 59 60 60 61 62 61 63 63 63 64 65 66 67 68 70 72 74 75 76 77 77 77 77 77 79 80 81 82 83 84 85 86 87 88 89 91 91 92 95 98 101 105 104 102 95 93 92 90 90 90 89 87 87 86 85 84 83 83 82 81 80 78 76 73 72 70 69 69 70 69 69 69 68 68 73
58 57 58 58 58 59 59 60 61 61 61 61 62 62 63 64 65 65 67 68 70 71 72 73 73 74 74 74 75 76 77 78 78 79 80 82 83 84 85 86 87 88 90 94 98 100 103 105 103 96 93 91 88 88 86 85 84 83 83 83 81 80 78 76 76 73 72 71 71 71 70 71 71 72 71 71 70 69 68 73
57 57 57 57 58 58 59 59 59 59 60 60 61 62 62 62 63 64 64 66 67 68 69 69 69 70 71 71 72 73 74 75 76 76 77 79 79 80 82 82 84 86 88 92 97 102 104 104 103 96 90 88 87 85 82 82 81 78 77 76 74 72 71 72 72 72 72 72 73 73 73 73 72 73 72 71 71 71 70 73
55 55 57 57 58 59 59 59 59 60 60 61 61 62 62 63 63 64 64 66 66 67 67 69 69 70 70 71 72 73 74 74 77 77 77 79 80 81 82 83 85 87 89 92 98 112 134 132 112 93 90 87 84 81 79 77 77 76 75 74 74 74 75 75 76 76 75 76 77 78 79 77 76 77 76 76 74 75 74 90
