P2
80 80
255
115 110 110 112 115 117 117 119 120 121 123 126 127 129 132 133 134 137 139 140 139 143 146 147 148 151 153 156 158 157 160 161 165 166 168 168 169 169 169 172 171 171 171 172 174 175 176 175 175 175 171 169 168 166 168 169 169 168 165 164 162 160 160 160 160 156 156 156 153 153 151 150 148 147 147 147 145 144 140 150
103 102 104 105 106 107 109 111 111 112 115 117 119 121 122 123 124 125 128 129 129 132 134 135 136 138 140 143 144 145 146 147 150 151 151 152 154 154 155 158 160 159 160 161 162 164 165 165 164 166 165 162 159 159 157 155 156 156 154 152 152 152 150 148 147 145 143 143 143 141 141 140 139 137 137 137 136 133 131 143
104 103 105 107 107 109 111 112 113 115 117 118 119 121 124 126 128 129 131 134 134 136 138 139 140 143 144 145 147 149 150 151 153 153 153 155 155 156 159 158 161 161 163 165 166 167 168 167 167 167 168 166 166 165 163 163 162 160 160 159 158 157 154 152 149 147 147 146 145 145 145 143 139 139 140 138 139 137 134 146
105 102 104 106 108 109 111 112 114 116 117 119 120 121 123 125 126 127 129 131 133 135 136 138 139 141 141 144 147 148 150 152 153 155 156 155 158 159 161 161 165 164 165 167 167 169 169 166 168 167 166 166 166 166 163 164 164 163 163 162 162 161 160 157 154 151 150 150 147 148 146 145 143 140 139 138 139 138 136 148
104 102 104 106 107 109 111 112 113 113 113 112 113 112 113 114 114 115 118 120 122 124 125 127 127 127 129 130 131 132 132 135 137 136 139 141 142 145 147 150 154 154 156 159 161 165 166 166 167 168 167 167 166 165 163 165 166 166 165 164 164 162 162 159 158 157 154 152 151 151 151 149 145 142 140 141 140 140 138 151
103 101 102 102 103 102 103 104 106 107 110 112 114 116 119 121 123 125 127 127 129 131 133 134 134 135 137 137 137 140 140 141 142 141 142 144 143 143 144 146 145 144 144 146 146 146 146 145 146 148 148 150 152 156 160 163 164 166 166 166 166 164 163 161 160 159 155 155 155 154 154 152 149 146 143 143 143 141 140 151
98 95 97 99 103 106 110 112 115 116 119 120 121 121 124 125 127 127 129 130 132 133 135 136 136 138 139 140 141 142 144 144 145 146 145 146 147 147 149 150 152 152 152 153 153 153 150 149 147 145 143 141 140 143 143 144 146 149 153 156 157 159 160 159 159 159 159 157 157 157 156 154 152 150 148 147 146 143 140 153
103 102 105 107 109 110 113 114 115 117 119 120 122 123 125 126 129 129 130 131 133 134 135 138 139 139 140 141 142 142 143 145 146 147 147 148 147 149 150 152 153 155 155 156 156 154 152 152 150 149 147 146 145 148 149 148 149 148 148 147 143 142 142 144 146 151 154 156 158 160 159 158 156 153 153 151 148 146 142 157
106 105 107 108 110 110 113 114 117 118 120 123 123 125 126 128 130 130 131 133 135 135 138 139 139 140 142 143 143 145 146 147 147 149 149 151 149 151 153 154 156 157 157 158 157 157 154 154 153 150 147 146 147 148 149 150 152 151 151 149 146 145 142 141 141 141 139 141 146 149 154 158 159 156 156 154 152 149 144 160
106 105 107 108 110 112 114 116 118 119 121 123 123 125 127 129 130 132 133 135 136 137 139 140 140 142 144 145 147 147 148 148 149 150 150 152 153 154 155 157 160 160 160 160 160 159 158 156 154 152 150 149 149 149 151 152 151 150 150 149 147 146 143 143 145 143 143 143 144 143 141 143 147 152 153 153 153 150 148 163
109 106 109 110 111 113 115 117 119 120 122 123 126 127 128 131 130 133 135 136 136 138 139 141 142 144 146 147 147 149 149 149 151 151 151 154 157 157 160 162 163 163 163 163 163 161 160 158 157 155 153 152 152 153 154 155 153 152 151 150 149 148 147 147 145 144 144 145 146 146 145 144 143 141 140 140 142 146 147 163
108 106 109 110 112 115 116 118 120 122 124 125 127 128 130 131 132 135 136 138 140 141 142 143 143 145 146 148 149 150 151 151 153 153 155 156 157 158 160 162 163 163 163 163 164 164 163 162 161 159 157 157 156 157 156 157 155 155 153 151 153 150 150 149 147 147 146 148 149 147 147 145 144 143 141 138 136 136 136 153
110 108 110 112 114 115 116 119 122 124 125 127 128 130 130 132 134 136 137 122 117 134 143 146 146 147 149 151 151 151 153 155 155 150 150 156 157 159 160 162 162 164 166 167 166 167 166 165 164 163 162 161 162 162 160 159 157 155 156 155 154 153 152 150 150 150 150 151 150 148 148 146 145 143 141 141 140 138 134 145
110 109 111 113 114 115 118 117 103 96 94 92 89 97 129 134 135 137 139 93 76 83 93 114 135 148 150 151 152 152 145 129 107 89 99 157 160 161 163 166 145 108 139 161 171 170 167 167 167 165 166 165 140 137 163 160 160 158 158 157 157 156 155 153 152 151 152 153 152 150 150 149 147 145 143 142 141 139 136 148
112 108 112 113 116 118 120 114 74 84 69 93 94 73 123 134 136 138 135 85 117 133 105 70 77 116 152 152 151 106 79 83 93 87 92 146 162 163 165 169 122 88 78 89 117 151 169 171 171 171 159 112 82 97 159 163 162 161 159 122 120 149 155 155 155 154 154 155 155 155 152 150 147 147 146 143 142 140 137 150
111 109 113 114 115 118 120 117 79 90 90 118 95 69 120 136 136 139 135 75 79 102 86 93 77 112 154 154 155 99 98 81 86 99 107 129 166 164 166 166 108 109 111 89 52 84 165 174 170 137 79 88 82 70 142 166 163 164 154 86 86 83 112 143 156 157 155 144 133 118 139 152 149 148 147 146 143 142 138 151
113 110 112 115 117 119 121 121 75 70 84 76 71 69 114 137 138 141 129 84 85 52 77 92 76 124 156 156 158 124 84 60 81 127 83 107 168 166 170 162 102 122 128 108 55 96 174 177 156 69 80 135 102 60 112 168 166 165 131 89 123 74 61 111 160 158 112 86 70 56 122 155 152 150 139 111 131 143 139 151
113 111 114 114 116 119 121 123 84 75 71 71 71 75 107 137 138 142 122 87 105 58 89 85 69 136 157 156 159 146 80 81 82 132 78 87 164 170 173 149 104 134 136 100 60 127 180 178 170 94 123 114 85 95 90 160 170 166 103 74 97 87 81 134 164 160 99 92 90 72 116 155 150 122 86 85 118 144 140 153
113 111 114 115 118 120 122 125 92 59 64 78 92 88 97 138 140 143 125 77 90 70 98 66 66 144 158 159 162 160 100 102 121 113 88 83 153 174 177 129 71 111 104 93 62 155 182 180 181 127 104 152 101 69 73 154 173 156 75 92 93 117 106 158 166 163 111 94 112 98 115 157 140 93 114 77 93 143 142 155
114 112 114 116 118 121 123 126 105 68 72 77 80 82 106 139 140 143 144 135 116 96 88 64 76 152 159 161 163 166 123 63 99 79 83 113 161 176 179 146 91 100 104 62 80 176 183 184 184 163 102 133 89 100 152 177 177 150 79 100 100 88 115 173 169 167 114 96 88 66 104 161 150 93 105 84 78 138 143 156
115 112 115 117 120 122 123 125 126 126 127 130 132 134 136 140 143 145 146 149 152 153 145 127 123 157 161 163 165 167 153 100 120 146 164 172 175 177 179 181 176 155 124 85 119 186 185 187 187 185 106 74 132 178 185 183 180 176 161 130 99 76 150 176 172 172 119 78 71 89 133 163 156 110 79 82 84 139 145 159
114 112 115 118 120 123 124 126 129 132 132 134 136 138 140 143 144 146 147 150 152 154 157 159 160 161 163 165 167 168 169 169 172 174 175 176 178 180 182 183 186 188 187 179 180 189 189 190 190 189 165 165 191 188 187 186 185 184 183 182 174 163 176 177 175 174 150 139 157 166 166 163 161 125 66 103 144 152 146 159
112 113 116 119 121 123 124 126 129 131 133 135 136 138 141 143 145 148 148 151 153 156 158 158 161 163 165 166 169 171 172 173 174 176 178 179 180 183 185 187 189 189 190 191 192 193 192 192 192 191 192 193 192 190 190 190 189 187 186 185 185 185 181 180 179 175 175 175 172 169 168 165 163 151 141 155 156 152 149 162
109 114 117 119 121 124 126 129 129 131 132 126 137 142 143 145 148 149 150 153 154 152 151 162 165 166 168 169 171 173 174 175 178 180 182 182 183 186 188 190 192 193 193 194 195 196 195 196 196 195 195 195 195 195 194 193 190 189 190 189 185 185 184 182 181 178 177 176 173 171 169 168 166 164 164 158 157 154 151 165
107 115 118 119 121 124 126 128 130 133 120 69 88 126 144 146 148 150 152 154 158 125 83 124 162 170 171 173 174 175 177 181 177 165 148 174 188 189 192 192 193 193 194 194 196 198 199 200 199 193 191 189 188 191 196 197 197 197 192 149 121 182 188 185 184 183 137 135 178 175 172 170 170 156 146 161 158 156 152 167
102 115 119 120 122 124 126 129 131 134 98 50 47 60 95 134 150 151 154 155 154 96 118 108 96 142 171 174 175 175 156 130 105 99 67 142 193 193 196 186 120 113 110 109 125 195 204 206 179 100 103 101 100 142 201 199 200 176 127 125 114 164 191 187 189 162 88 79 129 174 175 174 162 111 98 156 162 159 154 170
97 115 118 120 123 125 127 130 131 128 77 70 74 53 57 78 111 150 154 158 136 76 104 118 69 60 109 167 178 177 96 82 112 138 70 114 194 194 199 179 115 154 102 100 116 195 206 208 161 101 119 142 132 145 204 203 158 93 112 125 120 140 195 192 184 97 123 126 78 126 179 166 101 73 86 130 164 161 156 172
91 115 119 120 123 125 129 130 133 114 68 100 104 102 115 95 97 150 156 158 107 110 135 105 93 81 63 157 181 184 126 109 152 135 124 113 185 200 203 181 119 162 147 84 106 203 210 212 155 92 101 152 95 158 208 207 142 80 119 88 102 114 193 197 131 75 136 112 74 143 181 115 106 118 109 91 161 163 158 174
85 111 119 122 124 126 129 131 134 95 72 73 101 113 117 72 127 154 158 154 80 91 165 125 119 104 102 176 182 186 163 92 99 129 170 84 167 204 205 187 80 134 166 108 100 209 215 216 149 141 120 84 92 177 213 212 180 78 121 100 86 112 193 192 104 89 99 80 124 184 183 137 111 139 103 126 168 166 162 176
82 106 119 121 124 126 129 131 132 125 96 76 79 93 109 90 146 155 158 160 139 98 99 103 117 82 144 183 183 186 183 115 128 126 115 57 145 208 209 188 97 120 143 114 120 214 217 218 140 149 146 118 92 195 217 214 207 120 115 120 148 198 203 200 186 122 57 85 179 189 187 175 108 101 131 173 172 168 163 175
79 101 119 122 123 125 129 132 134 137 140 130 99 65 56 113 154 157 160 163 168 165 135 98 103 104 174 184 187 188 193 138 107 103 120 154 192 208 212 199 130 126 120 124 164 222 221 222 176 152 161 162 175 217 220 218 217 162 125 191 215 210 208 206 205 196 147 165 197 193 190 187 153 138 180 176 173 170 167 175
78 93 118 121 124 126 129 131 133 135 138 143 146 136 111 138 155 157 161 164 166 170 174 169 135 147 184 186 189 192 194 184 164 189 205 210 209 211 215 215 217 219 221 223 225 225 227 228 228 229 227 228 229 226 225 222 221 218 218 218 218 215 213 210 208 205 205 202 199 196 192 190 187 185 182 178 176 172 169 173
76 85 116 121 123 126 129 132 134 137 139 142 145 150 148 151 157 159 162 165 168 170 173 175 181 184 186 187 191 193 196 198 204 204 207 210 212 215 218 222 225 227 227 228 229 229 229 230 229 231 231 232 230 230 228 227 228 227 226 223 220 219 217 213 213 211 209 205 201 199 197 196 192 191 185 181 178 176 171 169
76 79 112 122 124 128 129 133 135 138 140 143 146 148 149 155 158 161 164 166 170 172 175 179 183 187 191 191 193 196 198 201 204 209 208 212 217 220 223 226 228 218 230 233 234 236 234 235 238 237 225 210 231 235 234 231 217 208 202 198 216 225 221 209 135 144 175 199 205 202 173 134 131 135 181 185 181 178 170 168
77 76 106 122 125 127 130 133 135 138 141 144 147 129 88 128 159 161 164 168 171 175 178 176 165 142 151 192 197 198 202 206 205 162 110 195 222 224 227 234 211 100 142 219 242 240 240 233 199 163 123 124 225 240 241 206 109 103 112 130 200 229 228 169 98 166 110 136 209 204 145 99 82 104 184 190 185 181 169 169
77 74 98 122 124 127 131 133 137 139 142 146 135 84 67 67 117 158 167 168 172 158 120 101 72 83 95 179 199 202 203 182 110 98 122 132 223 229 231 235 156 103 119 116 172 240 250 174 138 154 122 98 219 247 246 187 143 129 102 126 218 232 222 131 127 187 126 168 216 199 120 90 113 145 193 191 188 184 167 170
77 74 87 120 126 127 130 133 136 140 142 137 95 83 72 77 73 101 153 170 175 151 74 96 113 125 60 141 204 206 186 106 104 127 159 79 179 234 238 201 128 169 155 109 105 240 255 190 127 115 150 111 208 253 250 171 130 153 135 132 236 238 185 89 116 173 141 211 220 184 120 91 68 154 201 194 190 185 163 172
78 74 79 114 125 128 130 134 136 140 142 102 88 93 103 113 111 73 89 163 177 174 115 121 103 91 75 111 196 206 204 135 158 149 96 84 105 226 239 151 119 215 227 101 197 255 255 218 136 114 135 115 203 255 249 149 103 128 129 175 244 242 191 127 108 129 174 227 223 185 132 129 129 188 201 197 193 185 159 173
79 74 75 105 125 127 130 133 136 140 142 131 93 65 115 113 107 66 126 169 174 179 150 93 144 160 102 98 171 209 213 200 96 73 79 110 178 234 242 221 158 165 185 159 252 254 255 242 113 110 158 212 248 255 253 208 191 195 201 234 250 246 244 238 220 199 224 229 226 221 216 215 212 207 201 199 196 183 157 175
84 74 73 95 123 127 130 132 137 139 141 145 144 112 98 100 78 121 166 172 176 178 179 98 84 123 130 161 198 210 213 221 178 90 151 216 240 243 245 251 253 216 167 231 255 255 255 254 235 250 255 255 255 255 255 255 255 255 255 255 252 250 247 246 244 239 236 231 227 226 223 219 213 209 206 201 197 177 157 174
88 74 73 85 119 127 129 133 136 138 141 144 148 152 134 97 115 162 169 171 175 180 184 170 164 185 202 205 206 210 215 219 223 209 232 237 239 246 250 251 253 255 255 255 255 255 255 255 255 255 255 255 255 255 255 255 255 255 254 254 253 253 252 208 204 243 237 236 230 180 179 204 215 213 211 205 199 171 158 174
93 77 72 77 113 126 129 131 135 137 140 143 147 151 155 154 159 165 169 171 175 179 183 187 193 197 200 202 208 213 217 221 227 233 236 243 243 248 252 254 255 255 231 253 255 255 255 255 210 207 255 255 255 255 252 227 189 148 214 255 255 255 197 118 112 214 243 239 199 140 151 100 185 217 213 207 196 165 158 172
94 80 73 72 102 125 128 131 134 136 140 143 147 150 154 158 162 162 167 172 175 180 184 187 178 169 198 207 212 216 219 222 211 204 204 202 227 252 253 255 238 181 106 203 255 255 255 230 124 111 136 220 255 254 176 139 136 121 192 255 251 197 150 96 108 147 235 238 160 130 126 115 210 219 215 210 190 162 158 171
94 86 74 70 90 122 127 131 133 137 141 143 147 151 155 148 111 97 155 173 175 180 185 187 127 101 105 158 201 215 222 216 116 108 112 116 170 255 255 205 139 184 126 132 244 255 250 179 173 171 81 165 254 255 167 157 154 120 177 255 242 134 126 132 129 176 242 214 127 124 138 180 225 220 216 210 181 161 156 169
92 90 77 71 80 117 126 130 133 135 139 143 145 146 124 92 95 95 97 160 177 180 184 164 94 131 69 113 120 197 224 219 124 108 128 131 157 255 255 191 95 153 193 95 189 255 218 161 175 129 128 233 255 255 191 160 93 91 186 255 255 214 108 122 194 248 250 232 186 165 152 220 226 222 216 206 172 161 154 167
91 91 82 71 74 108 125 127 131 135 138 140 145 110 75 109 127 118 88 111 165 179 179 116 97 124 145 103 112 211 224 225 123 137 174 137 168 255 255 251 144 176 174 171 236 255 250 210 147 108 211 255 255 255 217 156 201 239 255 255 255 255 211 204 255 253 250 248 246 241 232 231 227 222 217 201 165 160 153 163
91 90 87 74 70 95 123 126 128 133 137 138 143 131 94 116 124 128 125 88 132 179 175 122 97 103 142 122 172 221 224 229 142 119 123 142 198 255 255 255 230 172 221 255 255 255 255 255 252 224 253 255 255 255 255 255 255 255 255 255 255 255 255 255 254 251 249 246 238 220 235 233 227 223 219 189 160 156 149 160
90 88 89 78 70 82 117 124 126 130 134 137 139 145 134 104 112 88 90 131 169 177 181 183 172 142 123 134 211 218 223 228 229 231 242 250 255 255 255 255 255 255 255 255 255 255 255 255 255 255 255 255 255 255 255 254 242 251 255 255 255 233 172 223 255 250 244 211 139 138 223 233 228 222 217 177 157 153 146 155
88 86 89 82 71 75 108 122 124 128 131 135 138 142 146 135 101 113 151 169 172 176 180 186 191 197 194 201 213 218 224 231 239 246 252 254 255 255 255 255 253 227 251 255 255 255 255 248 219 195 227 255 255 236 206 170 104 213 255 255 227 172 155 131 221 245 174 108 104 131 197 231 226 221 207 164 155 149 141 151
88 86 87 86 74 70 97 119 122 126 129 132 137 140 143 148 147 155 161 165 169 174 180 185 189 196 200 195 210 217 223 231 242 238 187 177 253 255 255 255 202 122 179 205 248 255 220 136 137 151 185 255 255 186 154 187 124 189 255 228 112 162 161 128 175 241 161 114 174 165 193 225 220 218 193 156 150 145 138 147
87 85 86 87 79 69 85 114 119 122 127 129 134 138 142 145 150 154 158 162 165 171 178 181 188 179 125 99 180 217 223 229 204 141 127 163 196 255 255 243 146 153 171 132 221 255 216 112 191 178 155 254 255 207 161 199 166 183 255 244 151 119 120 184 228 233 203 109 148 201 218 216 215 210 175 150 146 140 133 142
85 83 85 85 83 72 75 107 116 119 123 127 130 134 139 133 114 108 108 96 119 165 173 175 143 95 100 101 101 193 224 219 136 144 175 167 105 230 255 196 169 190 184 182 252 255 243 135 190 191 184 253 255 230 134 160 196 229 250 246 231 152 174 228 225 221 217 196 212 213 210 209 205 199 159 145 140 135 127 137
84 83 84 84 85 76 71 96 113 116 119 123 127 130 135 112 74 74 72 53 87 158 170 161 102 121 145 153 106 132 215 227 190 146 121 150 167 239 255 242 210 160 125 237 255 255 255 206 217 243 255 255 255 254 243 253 255 248 244 235 233 229 224 220 214 212 209 199 192 201 199 198 196 180 147 141 136 131 125 133
83 82 82 83 85 80 69 85 108 113 116 119 123 126 130 118 87 84 71 76 91 147 164 168 149 104 145 130 119 174 213 222 227 165 130 199 255 255 255 255 255 248 235 255 255 255 255 255 255 255 255 255 255 255 255 250 244 238 234 219 181 182 192 203 202 175 146 115 133 190 188 185 182 160 139 136 131 126 119 127
82 81 82 81 83 82 72 75 102 108 111 114 118 121 126 123 79 67 77 82 79 139 159 163 168 146 114 138 185 199 205 215 224 228 232 255 255 255 255 255 255 255 255 255 255 255 246 225 218 213 240 254 248 198 175 155 165 223 222 185 148 127 118 170 190 117 118 123 130 177 174 171 166 143 133 129 124 119 115 120
81 79 81 82 81 83 77 71 93 104 108 110 114 116 121 122 98 93 106 114 126 146 153 157 162 166 166 183 187 192 200 208 218 228 235 239 245 255 255 255 209 178 180 200 243 251 198 148 147 154 198 243 232 161 175 146 150 214 205 141 138 101 120 176 179 117 97 120 137 165 162 159 149 130 125 121 116 112 108 115
79 78 80 81 81 82 79 70 83 100 103 106 109 112 116 119 122 127 131 136 139 141 146 150 156 161 152 153 173 185 192 199 198 146 142 124 150 247 255 250 168 154 126 129 225 239 176 124 146 135 187 229 219 162 169 168 171 211 193 127 124 108 143 173 169 132 122 148 154 152 150 146 133 121 117 114 111 107 103 109
78 77 79 80 81 80 81 73 75 95 100 102 104 108 111 114 117 121 118 108 125 135 139 143 149 144 100 97 118 135 171 190 178 109 131 92 138 239 255 233 163 130 147 163 225 223 165 116 96 110 182 213 208 175 182 190 194 202 193 181 168 154 160 161 157 154 153 147 142 139 136 131 120 114 111 108 105 103 99 103
77 76 78 79 80 80 81 77 70 88 96 98 100 103 106 109 112 111 77 65 91 111 129 135 142 107 72 92 99 78 153 180 171 113 126 126 139 227 248 230 180 145 131 179 213 206 187 170 172 176 188 193 195 198 197 197 193 188 181 172 165 158 151 145 142 138 135 131 128 124 120 117 113 110 107 105 101 99 95 99
77 75 77 77 79 80 80 78 71 81 92 95 97 99 102 105 105 84 71 65 75 78 100 130 126 88 88 100 76 107 161 167 167 113 129 156 178 221 233 234 231 219 202 201 198 192 189 184 182 179 176 175 175 176 176 179 175 169 163 156 150 142 137 133 129 125 122 118 118 115 112 110 108 106 104 101 98 95 92 96
75 74 76 77 78 79 79 78 74 73 88 91 93 96 99 102 91 73 70 76 77 78 109 124 123 112 105 90 87 138 152 159 163 167 178 190 203 214 219 222 220 213 201 191 182 176 172 168 164 161 158 157 157 157 158 160 159 155 149 143 136 130 124 122 119 117 115 114 112 111 109 107 105 102 101 98 95 91 88 92
74 73 75 75 76 77 78 78 77 71 83 89 91 93 95 96 99 92 77 67 73 100 116 119 122 125 127 125 126 139 143 148 154 160 169 178 187 198 204 205 201 193 184 174 165 159 155 150 147 144 140 139 140 139 138 136 133 129 126 124 121 119 117 116 116 114 112 111 109 109 107 104 102 100 98 95 91 88 85 89
73 72 73 75 76 76 77 78 77 71 77 86 88 90 91 93 96 98 100 90 95 108 110 113 115 118 120 124 127 131 133 136 140 146 153 159 168 177 181 181 178 168 160 153 147 142 141 137 133 131 129 129 127 126 124 123 121 121 120 119 118 117 115 114 113 112 110 109 107 107 105 102 100 98 95 92 88 84 82 87
72 72 72 73 74 76 76 77 77 73 73 83 85 86 89 90 92 94 96 99 100 102 105 107 109 111 113 115 118 120 122 125 129 132 135 141 145 149 148 145 141 137 134 132 131 131 131 130 130 128 126 125 124 122 121 121 119 118 118 116 115 114 113 112 110 109 108 107 105 105 104 101 98 96 92 90 85 83 81 85
71 70 71 72 73 75 75 76 76 75 71 79 82 83 85 87 88 90 91 93 95 98 100 101 104 106 107 109 109 111 112 115 115 117 119 122 122 123 125 125 126 128 128 128 128 128 127 126 125 124 122 121 120 120 119 118 117 116 115 114 113 113 111 110 110 109 107 106 105 103 101 99 96 93 90 87 84 82 79 83
70 69 70 71 72 72 74 74 75 75 72 75 79 80 82 84 85 86 88 90 91 92 95 97 99 101 102 102 103 106 107 106 111 112 114 117 118 121 123 124 124 126 126 126 125 125 123 123 122 121 120 119 118 116 116 115 114 113 113 113 112 111 111 110 109 108 106 105 104 101 99 98 95 92 89 86 83 81 78 81
69 67 68 70 70 71 72 73 74 74 74 74 77 78 79 80 82 81 84 85 87 90 94 95 97 100 101 101 101 103 104 105 108 110 113 114 116 118 120 122 121 123 124 123 123 123 122 121 121 119 117 117 116 115 113 113 112 111 112 111 110 110 109 108 108 105 105 104 103 101 99 96 93 89 87 84 81 79 76 79
67 66 67 68 69 70 71 72 73 73 74 74 75 75 76 78 79 81 82 84 89 91 93 95 97 99 100 101 101 99 102 103 105 107 110 111 113 115 117 118 121 121 123 122 122 122 122 121 119 118 117 115 114 113 112 111 110 110 110 109 109 108 108 108 107 106 106 103 102 99 96 92 88 85 83 81 79 77 74 77
66 65 65 67 67 69 70 71 72 73 73 74 75 75 76 77 79 80 81 85 88 89 91 93 95 95 97 100 100 97 99 100 103 105 107 110 112 115 116 118 120 121 122 122 121 121 119 119 117 116 115 112 111 111 109 109 109 108 108 108 108 108 107 107 104 104 102 99 97 93 90 87 84 82 79 77 76 75 73 76
65 63 65 66 66 68 68 69 70 71 72 73 73 74 75 76 77 78 80 84 86 87 89 89 91 92 95 97 96 95 96 99 101 103 105 108 111 113 115 116 118 119 119 119 120 119 119 117 116 115 113 111 110 109 108 108 107 107 106 107 106 105 104 102 100 99 96 94 90 88 86 83 81 79 76 75 74 73 71 73
63 63 64 64 65 66 66 67 69 70 70 71 71 72 73 74 75 76 78 82 84 85 86 87 88 90 92 95 93 93 95 95 98 101 104 106 109 110 112 114 115 117 117 118 119 119 119 117 116 114 112 111 108 108 107 106 105 105 104 103 102 101 99 98 95 93 91 89 86 84 82 80 78 77 75 74 72 70 68 70
62 62 63 64 64 65 66 66 68 68 69 70 70 71 71 73 74 74 77 80 81 82 84 84 87 88 89 91 91 91 94 94 97 100 102 105 107 109 112 114 116 117 118 119 118 118 118 115 114 112 109 107 106 105 104 103 103 103 101 100 97 95 94 93 91 88 87 85 83 81 79 78 76 74 72 70 67 67 67 72
62 62 62 63 63 63 64 65 66 67 68 69 69 69 71 71 72 73 76 78 79 81 83 84 85 85 89 89 89 90 91 93 96 97 100 104 106 108 111 113 115 115 114 115 113 113 112 111 109 107 104 102 101 100 100 99 100 98 98 95 94 91 90 90 87 86 84 82 81 79 78 76 73 70 68 67 67 68 68 73
62 61 62 62 63 63 64 64 64 66 66 67 68 68 69 71 71 72 75 78 79 80 82 82 84 85 87 87 86 87 90 92 94 97 99 102 104 105 106 107 107 107 109 108 108 108 107 106 105 102 100 98 98 96 96 95 94 93 93 91 90 89 88 87 85 84 82 81 79 76 73 71 69 68 67 68 68 67 68 73
62 60 61 62 63 63 63 64 64 65 66 67 67 68 68 69 70 72 74 77 78 79 80 81 83 85 85 84 85 86 89 90 93 94 95 96 98 99 100 100 101 102 102 103 103 103 105 103 101 98 97 95 94 92 91 91 91 89 89 88 87 87 86 85 84 82 78 77 73 71 70 70 70 70 69 69 69 69 69 74
61 59 60 61 61 61 62 63 63 64 65 65 66 66 67 68 70 71 72 74 77 77 79 81 82 83 82 83 83 84 86 87 89 90 90 91 93 94 94 94 94 96 96 97 98 99 101 99 97 95 93 91 90 90 89 88 87 87 86 85 85 85 83 81 78 76 73 73 72 72 71 72 71 72 71 70 70 70 70 76
60 59 59 60 60 61 61 62 63 64 64 64 65 65 66 67 68 69 70 72 74 76 77 78 79 79 79 80 79 80 82 83 84 85 87 87 88 89 89 89 90 91 92 95 96 97 98 96 95 91 90 89 88 88 87 86 85 84 83 82 79 77 76 75 75 75 76 75 75 74 73 73 73 73 73 73 72 71 71 76
60 59 59 59 60 61 61 61 62 62 62 63 64 64 65 65 67 68 69 70 72 74 75 75 75 76 76 77 77 78 79 79 80 81 82 84 83 85 85 86 87 88 90 93 95 96 97 97 96 92 88 87 86 84 82 81 79 77 75 75 74 74 75 76 77 77 77 78 78 77 76 77 77 76 74 75 75 73 73 78
59 58 59 59 59 59 60 61 61 61 61 61 62 63 63 64 65 66 66 67 69 70 71 71 72 73 73 73 74 76 77 77 77 77 78 80 80 81 82 83 84 86 88 91 94 96 98 98 96 91 85 82 80 77 75 75 74 73 74 74 75 75 76 76 78 79 78 80 81 81 80 80 79 79 79 78 77 77 76 80
59 58 59 59 60 60 60 60 61 61 61 62 63 64 64 65 65 66 67 68 69 69 70 71 71 72 73 73 74 75 76 76 78 78 78 79 80 81 82 83 85 86 88 90 94 99 110 107 96 85 81 79 79 78 77 77 77 77 77 76 77 77 77 79 81 82 83 86 90 93 90 91 90 88 87 88 86 84 82 96
