P2
80 80
255
113 108 109 109 113 115 116 118 120 121 123 124 126 127 131 131 133 136 138 138 139 141 142 145 147 149 152 153 156 156 159 161 162 163 165 166 166 167 171 172 171 173 172 174 176 176 176 176 177 177 174 173 174 173 171 170 170 169 170 168 167 166 162 160 158 157 155 155 153 152 150 149 149 147 146 143 141 140 140 153
101 99 102 103 105 107 109 109 111 112 115 117 117 118 122 123 125 127 128 129 130 132 133 136 138 141 142 142 142 144 145 146 148 149 151 152 153 154 156 159 158 159 161 164 163 163 164 163 163 164 163 163 162 161 160 160 160 159 159 159 158 156 154 152 150 150 148 146 144 143 141 140 139 138 136 133 132 130 128 142
104 100 102 104 107 108 111 112 113 114 116 119 119 120 125 126 126 127 128 130 131 133 134 135 137 140 143 144 143 146 147 147 149 151 152 154 154 155 158 160 159 161 164 166 167 166 166 166 167 167 164 166 165 163 160 163 164 164 162 162 161 161 158 158 156 154 153 151 149 147 144 145 142 140 139 137 135 133 130 145
103 101 103 105 108 110 110 112 114 115 116 119 121 122 125 125 126 128 128 131 133 134 137 137 138 140 143 146 148 149 150 152 153 155 155 157 157 159 162 161 163 164 164 165 168 170 170 169 169 167 165 167 165 165 165 165 166 166 163 162 161 162 159 159 158 155 154 155 152 150 149 148 145 141 141 140 137 136 133 148
103 102 104 107 108 109 111 113 114 116 117 119 121 122 125 126 127 129 132 135 136 137 140 141 141 142 142 144 144 145 147 146 146 146 145 147 147 147 148 150 149 148 149 149 151 152 150 149 149 150 149 149 149 151 152 155 156 158 157 158 159 160 159 160 158 156 154 154 153 153 153 152 149 146 145 142 140 140 137 151
103 102 105 106 109 110 112 113 114 116 117 119 121 122 124 124 125 126 127 128 128 128 129 129 127 128 130 130 131 133 134 135 137 138 140 143 142 143 144 144 145 145 146 148 148 149 148 148 145 143 142 140 141 142 142 142 143 143 144 143 142 143 142 144 145 145 146 148 149 151 153 153 151 149 148 145 144 143 141 155
104 101 104 106 107 109 110 112 115 115 115 115 115 114 113 115 116 117 120 123 127 129 132 134 134 137 137 138 140 142 143 142 145 145 146 147 148 148 149 149 149 150 151 152 154 153 152 150 149 148 147 144 145 146 147 148 149 149 150 149 148 146 143 141 140 139 137 137 136 137 140 142 144 147 148 148 147 145 142 156
102 99 103 106 106 107 107 107 107 107 109 111 114 117 119 123 126 128 130 131 133 134 136 137 139 138 140 141 143 143 144 145 147 147 148 149 148 149 151 150 151 153 153 154 156 155 154 152 151 149 148 146 145 146 147 149 150 150 149 151 147 144 142 142 141 141 140 142 140 140 138 137 135 134 135 138 139 142 141 156
99 99 100 100 99 101 104 107 111 115 117 120 122 123 125 127 129 130 131 133 134 134 136 139 138 139 142 144 144 144 146 147 148 149 150 151 152 152 152 153 154 155 156 158 157 158 155 153 153 150 148 147 148 148 150 150 152 151 150 148 146 143 142 142 142 142 141 141 141 141 141 140 139 137 136 134 132 131 129 144
92 89 98 102 105 110 112 113 116 117 119 121 122 125 126 128 130 131 132 134 135 136 138 140 141 142 144 145 146 147 148 148 150 150 151 153 154 155 156 156 157 157 159 159 159 160 158 156 155 153 150 150 149 150 152 152 152 152 150 149 147 145 144 145 144 143 143 143 143 143 142 141 140 138 137 136 136 133 130 143
78 77 104 107 109 111 112 114 117 118 120 121 123 126 127 130 131 132 134 135 136 138 139 141 142 143 145 146 147 147 150 149 151 152 153 155 157 157 159 159 159 160 161 162 163 162 162 159 157 155 154 153 152 153 155 155 153 153 150 150 149 147 146 147 145 145 145 145 146 145 144 144 142 140 140 137 136 135 132 145
68 73 103 108 110 112 113 115 118 119 122 123 126 127 128 130 132 133 135 138 138 140 141 143 143 145 146 147 149 150 151 152 153 153 155 157 159 159 159 160 161 162 161 164 164 164 164 162 161 159 157 156 157 158 156 157 156 154 153 152 151 150 150 148 146 147 145 147 148 147 147 144 143 142 140 138 138 136 133 145
63 70 103 109 111 112 114 117 119 120 122 124 126 128 130 132 133 134 137 139 140 141 142 145 145 147 148 150 151 152 154 155 156 158 157 157 158 159 161 161 159 163 165 167 168 169 167 165 165 163 161 163 152 126 154 159 156 156 156 155 150 148 152 150 149 150 149 149 150 149 149 146 146 144 141 140 139 137 134 146
63 70 102 110 111 113 114 117 119 121 123 125 128 129 131 133 135 136 137 137 131 138 144 147 147 148 150 152 153 155 155 151 136 111 140 161 161 162 162 162 114 103 131 154 167 171 169 168 167 166 166 136 89 79 134 162 159 157 158 158 112 85 113 134 148 151 152 152 152 153 150 143 136 140 144 142 141 138 136 150
68 73 101 109 113 115 116 118 121 121 123 125 124 122 122 132 135 137 138 131 81 86 97 116 133 145 152 153 153 138 112 94 77 83 111 164 164 163 164 157 96 89 80 74 93 132 169 169 170 160 109 79 82 72 96 161 161 159 160 151 88 97 79 68 90 132 156 155 142 115 98 80 71 123 147 144 142 142 137 136
73 74 101 111 112 115 117 119 121 117 89 82 77 83 78 121 136 138 141 124 90 129 113 76 76 113 153 154 146 86 76 100 87 108 100 160 166 166 167 147 101 101 128 73 49 101 173 173 160 86 57 111 123 59 67 145 164 162 162 135 74 116 100 72 59 124 159 156 116 78 83 59 56 113 148 145 143 127 92 86
77 76 99 112 113 115 117 119 123 117 81 91 95 117 76 111 138 139 143 119 72 101 98 91 79 109 155 154 154 99 100 60 95 126 86 146 168 167 170 133 111 123 129 94 54 128 178 177 163 79 114 132 94 97 87 112 166 164 164 110 63 94 79 97 85 148 160 159 124 82 95 107 83 107 149 147 115 84 88 91
79 76 97 111 114 116 118 121 123 122 80 83 94 93 74 103 140 140 143 115 88 62 69 90 81 119 157 157 161 121 72 58 104 109 60 127 171 168 172 117 116 126 124 83 62 154 180 179 178 122 89 144 98 79 62 88 162 167 158 80 77 104 97 117 106 162 162 161 135 94 93 104 87 98 149 147 110 92 115 69
79 77 94 112 116 118 119 121 124 125 83 76 72 66 67 95 139 141 145 109 102 79 73 89 65 128 158 158 161 146 92 95 122 119 90 102 171 172 173 93 83 115 106 78 77 172 181 180 181 159 95 160 124 83 94 151 170 170 150 80 89 95 101 68 132 166 164 163 145 83 96 69 56 86 148 150 129 80 95 98
81 77 91 113 115 118 120 122 124 127 95 69 71 84 99 89 137 143 146 114 83 80 85 83 59 137 160 161 163 162 97 88 117 67 79 115 171 175 173 123 90 102 87 50 106 184 183 183 183 182 115 72 87 128 175 179 175 173 169 157 135 109 85 82 161 168 167 166 152 89 75 83 105 135 154 151 144 93 68 78
82 78 87 111 116 118 121 122 125 129 107 61 69 74 82 91 136 144 146 147 134 116 100 82 72 145 162 162 163 168 125 71 103 131 156 171 176 177 177 179 172 155 130 101 146 188 185 187 187 187 155 106 160 186 184 183 181 180 178 178 178 176 164 159 172 171 170 168 161 141 148 159 161 159 156 154 151 109 67 114
82 78 84 109 116 119 121 124 125 128 127 119 122 126 130 136 141 144 147 150 153 154 154 148 140 156 163 165 167 168 165 155 169 176 177 178 179 181 182 183 185 186 188 185 186 191 190 189 190 188 185 187 190 187 187 185 185 183 182 181 181 179 178 177 176 174 172 171 168 169 167 164 163 161 159 157 155 142 137 163
83 78 82 107 117 120 121 124 126 128 132 134 135 139 140 142 144 147 149 151 152 155 156 159 162 162 165 167 168 170 173 174 176 177 178 180 183 184 184 185 187 188 189 192 193 193 193 192 191 191 192 191 190 190 188 189 189 188 186 184 183 184 183 180 179 177 174 174 172 170 169 166 164 162 161 157 157 155 153 165
85 79 80 102 117 120 123 125 127 129 132 134 135 140 141 142 145 148 149 151 154 156 159 161 163 165 167 169 170 174 173 175 179 180 182 182 185 185 187 188 191 190 193 194 196 196 196 196 195 197 197 197 197 197 193 192 191 190 188 190 186 145 143 183 182 180 178 176 173 127 144 171 167 165 163 161 160 152 140 166
89 79 79 96 117 120 123 125 128 130 132 134 132 126 140 145 146 149 151 153 155 157 133 141 165 169 169 172 173 176 178 181 181 174 164 183 188 189 190 190 190 189 189 188 190 200 199 199 196 174 162 158 151 146 178 197 195 196 194 169 119 110 104 178 186 182 181 181 141 68 77 133 168 167 165 163 157 112 93 156
91 80 79 92 117 121 122 125 128 131 133 136 118 65 87 127 147 151 152 153 157 151 94 94 116 159 173 174 175 176 171 150 124 101 78 167 192 193 194 172 113 107 103 99 117 196 204 203 188 88 91 92 97 97 160 201 200 188 137 96 137 134 112 151 189 184 184 165 85 125 114 80 114 162 167 161 104 76 76 121
94 81 79 87 114 122 124 126 129 131 134 137 98 52 48 58 93 136 153 156 159 133 87 137 95 75 131 170 179 177 104 82 102 127 62 138 196 193 197 161 122 152 101 106 117 196 206 206 182 99 131 128 175 111 173 203 203 147 87 91 118 77 122 122 188 188 182 107 66 144 114 69 86 164 165 108 84 80 105 92
96 84 79 82 109 122 124 127 129 132 135 132 83 91 91 72 87 87 144 158 159 112 99 108 85 73 57 139 181 184 115 113 156 133 113 121 195 198 202 166 122 162 142 81 104 202 209 211 181 94 90 118 106 80 188 207 205 176 76 91 128 72 97 87 180 194 147 57 114 117 98 86 146 176 161 94 123 139 120 81
97 88 80 80 104 122 125 127 130 133 136 120 74 89 98 119 104 96 150 159 150 81 131 156 105 125 78 157 184 187 157 93 102 138 163 89 182 203 204 171 75 143 164 109 99 208 212 215 173 137 157 99 95 107 199 210 207 202 114 98 142 90 99 150 192 194 172 109 85 61 61 125 181 177 173 143 91 116 97 133
98 90 81 79 96 121 124 127 130 132 136 123 83 74 99 123 96 114 156 159 157 105 95 125 114 99 108 179 186 188 182 114 122 134 114 57 161 207 207 174 95 119 140 111 118 213 216 218 167 116 146 132 97 114 211 214 210 211 167 82 108 142 189 203 199 197 195 189 139 72 96 178 183 180 177 170 120 91 123 181
98 94 83 78 88 117 125 128 129 133 135 138 135 111 76 64 79 138 158 161 165 165 144 99 103 101 144 185 188 189 193 136 111 100 114 149 192 208 211 190 128 127 124 129 164 221 220 221 199 165 170 178 184 201 217 218 215 217 202 145 180 210 209 206 203 201 200 197 194 172 174 189 186 182 180 177 161 142 167 185
97 96 86 78 83 113 125 128 130 132 134 139 141 145 140 109 103 151 159 163 166 169 172 172 144 118 174 188 190 192 195 182 155 185 203 210 209 211 212 215 216 218 222 224 225 224 224 224 225 228 228 228 227 225 222 221 219 219 217 218 215 212 211 208 207 204 201 200 198 197 195 190 189 186 183 179 177 176 172 188
96 95 90 79 78 105 124 127 131 132 135 138 141 146 144 150 154 156 160 163 166 169 172 176 180 182 185 187 190 195 197 200 205 206 208 208 212 214 215 218 222 225 225 227 228 228 229 228 227 228 230 229 230 228 227 226 224 225 223 222 220 220 215 212 212 208 206 201 203 201 197 194 191 189 188 186 182 180 175 190
96 94 93 81 77 97 123 127 130 134 136 139 142 144 148 151 155 159 160 164 168 171 174 178 180 185 190 189 193 197 199 202 206 211 209 212 215 218 221 224 224 216 228 231 232 234 233 234 236 238 232 211 209 232 232 231 229 215 202 199 191 190 212 218 215 215 176 109 136 163 186 196 194 193 159 128 129 128 151 193
96 94 95 85 76 88 121 128 130 134 136 140 142 146 150 122 99 146 165 166 169 173 177 180 172 156 140 181 197 199 202 207 208 165 111 196 223 223 227 230 210 99 136 212 240 240 238 236 212 177 141 108 142 234 238 238 222 116 104 86 124 120 197 223 219 212 114 104 163 104 106 183 199 190 125 95 76 75 134 199
94 94 97 90 77 81 114 128 131 134 137 141 143 148 134 82 65 85 139 168 171 174 153 112 92 74 89 142 200 203 203 188 115 94 123 131 222 229 228 234 156 100 116 116 160 233 247 216 120 161 136 106 113 234 242 243 209 130 144 112 105 126 213 225 225 185 100 134 189 125 122 201 202 180 114 94 95 124 156 201
94 94 95 93 80 77 106 128 131 134 137 140 145 138 98 88 78 80 85 128 168 176 146 82 101 127 86 89 194 206 198 113 109 126 157 79 173 234 235 203 125 168 149 122 80 222 252 232 123 124 128 131 113 223 247 249 198 136 130 158 99 126 229 230 223 127 95 123 179 129 173 210 204 166 110 91 80 105 174 202
94 93 94 95 84 76 95 126 131 134 136 141 146 124 87 87 113 121 95 72 152 178 175 118 124 108 87 94 164 207 210 156 144 148 95 85 100 222 239 154 115 204 233 109 161 252 252 248 153 124 135 136 110 211 252 252 182 96 123 139 139 163 236 233 213 114 92 93 143 127 207 212 207 151 104 95 65 115 185 203
94 91 93 96 90 77 85 120 130 134 136 140 143 145 122 82 111 109 81 119 171 177 181 149 91 153 131 94 138 208 213 213 120 67 80 108 179 232 240 220 158 160 196 139 237 254 254 255 164 81 102 144 197 243 254 254 202 152 154 150 162 212 241 238 234 223 199 166 143 187 218 214 209 192 174 174 174 183 190 207
93 90 93 95 94 80 79 111 130 133 137 140 143 147 152 140 108 86 111 166 175 177 181 179 106 110 142 168 196 208 213 220 201 106 150 216 238 239 243 248 251 219 162 208 255 255 255 255 232 214 246 255 255 255 254 254 255 254 253 254 253 248 242 240 239 237 236 233 227 223 219 217 213 209 207 204 202 197 192 208
92 89 92 94 95 84 74 100 128 132 135 138 143 147 150 154 150 133 159 170 173 177 181 184 184 191 201 203 206 210 214 220 223 216 230 236 237 241 246 247 252 255 255 255 255 255 255 255 255 255 255 255 255 255 255 255 255 255 255 255 252 249 246 243 241 239 233 229 229 225 222 219 216 211 211 208 203 198 193 209
91 88 91 93 94 89 74 88 123 131 135 138 143 146 150 153 156 163 168 170 172 177 182 186 190 195 201 204 207 212 217 221 227 232 236 240 243 246 250 252 255 255 239 250 255 255 255 255 254 219 251 255 255 255 255 255 255 252 231 206 242 253 249 248 247 221 139 162 232 230 227 223 206 144 151 176 197 202 196 210
89 88 90 91 93 93 79 79 116 130 134 138 142 146 150 153 157 155 127 146 175 178 182 186 189 145 145 192 211 217 218 224 198 183 186 185 210 249 252 255 246 197 120 174 255 255 255 255 195 116 125 204 252 255 255 228 184 139 126 108 211 255 252 252 211 129 104 91 174 233 227 224 159 132 155 88 129 202 199 212
88 88 90 91 92 94 84 74 105 129 133 137 141 144 149 152 135 100 91 98 154 179 182 188 171 110 104 84 152 197 220 226 136 99 99 117 145 250 255 219 141 179 137 120 229 255 255 236 133 167 120 88 171 254 255 184 124 146 157 124 196 255 252 194 149 143 84 116 124 201 233 212 128 127 122 88 163 207 200 213
87 88 89 90 92 94 89 75 93 125 130 134 139 142 147 124 83 111 131 99 105 164 182 186 129 103 122 108 108 149 222 227 153 113 134 144 129 251 255 211 102 131 196 117 142 254 254 169 186 189 122 94 209 255 255 208 171 172 109 96 172 255 254 180 101 125 130 120 152 218 232 167 114 112 135 137 203 207 200 214
86 86 89 90 91 92 92 78 82 118 128 132 137 140 145 137 104 120 127 133 107 119 178 177 109 98 131 147 99 192 222 228 159 103 155 128 146 250 255 255 164 156 197 142 194 254 254 209 153 111 115 187 255 255 255 230 130 112 95 126 204 255 255 251 168 89 123 178 231 237 230 192 145 138 117 178 213 206 202 215
85 86 87 89 90 90 92 83 75 106 126 130 134 139 142 146 139 112 109 91 110 155 178 183 173 141 113 121 149 217 222 227 193 141 146 154 190 253 255 255 245 171 193 242 255 255 255 255 248 193 159 250 255 255 255 251 198 211 242 255 255 255 255 254 247 178 196 242 241 237 234 233 227 214 201 211 211 207 202 216
84 84 86 88 88 89 90 88 75 94 122 126 131 136 139 144 149 138 112 133 166 173 177 183 188 194 188 164 196 218 222 224 231 239 243 252 255 255 255 255 255 253 255 255 255 255 255 255 255 255 255 255 255 255 255 255 255 255 255 255 255 255 255 255 255 255 248 242 240 237 234 230 228 223 220 215 210 208 202 215
83 83 85 86 88 88 89 90 78 83 116 124 128 133 136 141 145 150 155 160 165 170 177 180 185 191 200 207 209 214 220 226 232 240 242 235 255 255 255 255 255 240 249 255 255 255 255 255 255 254 239 252 255 255 255 255 254 244 233 253 255 255 255 255 220 182 237 242 238 236 233 221 178 156 211 213 211 207 202 215
82 81 82 85 87 87 88 89 83 77 106 120 125 130 133 138 142 146 151 153 155 162 171 178 184 191 184 134 147 210 218 224 234 223 163 140 226 255 255 255 239 127 172 213 250 255 255 219 169 151 161 215 255 255 239 190 187 127 99 230 255 255 252 206 150 139 154 233 233 222 183 117 81 111 189 214 209 204 200 212
80 79 81 83 84 86 86 87 86 75 94 117 121 125 130 134 139 123 92 92 89 91 156 175 178 146 101 97 98 162 218 224 188 126 125 169 147 244 255 254 173 142 172 146 173 255 255 151 113 168 131 172 255 255 220 132 188 164 112 205 255 247 162 121 183 149 102 159 232 197 88 105 135 132 159 210 206 202 196 203
79 78 80 81 83 85 86 85 87 78 84 111 116 121 125 129 135 115 89 81 70 69 141 173 165 107 124 143 131 102 186 222 182 143 156 165 102 177 255 225 158 194 184 179 208 255 255 176 137 201 185 140 252 255 241 145 194 192 163 184 255 247 147 110 148 141 145 185 226 212 115 123 155 153 170 204 200 197 192 186
78 77 79 80 82 84 85 86 86 82 78 103 112 116 120 124 129 122 86 77 80 86 124 165 170 150 109 151 128 120 184 214 220 167 106 118 171 229 255 250 219 188 126 183 255 255 255 223 149 187 189 201 252 255 254 153 126 162 181 219 251 248 235 152 94 130 205 221 217 215 157 101 154 190 201 197 193 191 184 169
77 77 77 79 81 82 84 85 84 84 75 93 109 112 116 119 124 125 90 81 92 91 125 158 163 169 142 116 142 187 203 208 215 211 161 198 247 255 255 255 255 252 216 242 255 255 255 253 236 247 255 255 255 255 255 240 235 248 253 251 245 238 236 224 183 211 217 211 208 206 198 192 200 196 193 190 188 185 171 155
76 75 77 78 79 81 82 84 84 83 77 84 104 107 111 114 118 121 121 125 131 137 145 151 157 162 165 169 184 187 195 202 209 218 228 240 249 253 255 255 255 255 255 255 255 255 255 255 255 255 254 253 251 252 252 255 255 253 249 241 237 231 224 219 222 214 208 204 202 201 193 183 183 187 184 182 178 175 154 148
75 75 76 77 78 79 81 82 83 83 80 77 96 102 106 108 112 115 120 125 126 129 139 143 149 155 161 146 157 177 187 192 199 193 185 191 194 233 253 255 238 198 210 228 248 255 253 208 182 181 185 220 241 241 211 184 183 183 205 234 229 220 167 147 156 171 191 194 177 145 133 101 137 179 175 172 168 161 139 142
74 73 75 76 77 78 79 81 82 82 81 75 90 99 102 105 108 111 115 112 78 88 119 136 143 148 135 92 100 126 152 181 191 131 105 91 87 190 248 254 204 171 151 137 192 252 242 159 150 145 146 179 229 226 164 140 156 123 157 224 219 192 150 150 118 111 168 187 136 92 127 107 129 169 165 161 159 149 129 136
73 72 74 75 76 77 78 80 81 82 82 77 83 94 97 100 103 106 104 82 68 72 83 105 132 138 97 75 96 89 96 170 180 129 118 98 91 176 238 244 189 164 174 167 207 242 230 140 113 130 119 172 215 213 152 128 166 148 175 215 210 148 135 118 98 128 177 175 134 95 105 119 128 158 154 152 148 135 122 130
72 71 73 74 75 76 77 78 80 81 81 78 78 90 94 96 99 102 92 75 71 76 77 91 127 124 93 94 94 74 129 164 170 131 89 123 103 167 227 231 197 175 170 167 225 230 218 151 125 95 103 169 199 198 146 119 158 157 185 208 203 161 138 128 110 156 169 166 137 92 117 134 145 147 145 142 135 122 115 122
71 70 72 73 74 75 76 77 78 80 80 80 75 85 91 92 96 97 100 92 77 70 84 113 121 124 122 113 94 101 146 153 159 152 143 156 165 190 212 221 230 231 219 209 221 215 207 191 179 176 174 180 184 182 178 176 180 186 194 196 192 188 181 167 156 162 159 155 149 145 146 143 140 137 134 130 124 112 108 115
71 69 71 71 73 74 75 76 77 78 79 79 75 80 88 89 92 94 96 100 98 89 105 113 115 119 124 127 128 133 139 145 149 155 163 169 178 187 197 209 219 223 224 219 208 200 192 186 179 175 172 169 167 167 167 170 172 175 179 180 178 174 169 163 159 151 146 142 138 136 133 130 128 125 121 117 111 105 103 109
70 69 70 71 72 73 74 75 76 78 77 78 76 77 84 86 88 90 91 94 97 101 103 106 109 112 115 119 123 127 130 134 137 142 149 154 161 171 180 191 200 205 204 201 192 183 175 166 162 158 154 152 151 149 150 152 152 156 159 161 160 158 153 148 144 137 133 129 125 124 121 119 116 114 111 109 105 102 100 106
68 67 69 69 71 72 72 73 75 75 76 76 77 75 80 83 84 86 88 90 92 95 97 100 103 105 107 111 113 117 119 123 125 129 135 139 145 153 161 169 177 182 183 179 171 163 157 151 146 143 140 138 137 137 137 136 138 141 143 145 145 143 138 134 130 125 121 118 115 114 112 109 108 106 104 103 101 99 97 103
68 67 67 68 69 71 71 72 73 73 75 76 77 76 78 80 81 82 85 86 89 89 92 95 97 99 102 104 105 108 112 114 115 118 120 124 127 132 136 139 142 145 144 143 141 139 136 134 132 131 129 127 126 125 124 123 122 123 123 121 121 120 118 117 115 114 111 111 110 108 108 106 105 104 102 101 99 97 94 100
66 65 66 67 68 69 70 71 72 72 74 74 76 76 77 77 78 79 81 82 84 86 88 91 94 96 98 99 100 103 106 108 110 113 114 117 119 121 123 125 126 127 128 130 129 129 129 128 127 126 125 123 122 120 120 119 118 118 116 115 115 115 114 113 112 111 110 109 107 107 106 105 103 102 100 99 95 93 91 97
65 65 64 66 67 67 68 68 70 71 72 73 74 75 76 77 78 79 80 82 84 84 88 92 95 96 98 98 99 103 105 104 108 110 112 114 116 119 121 123 124 125 126 127 127 126 126 125 124 123 122 120 119 118 118 117 116 116 115 114 114 113 112 110 110 108 108 107 106 104 103 102 101 99 98 96 94 92 90 95
63 63 63 64 65 65 66 68 69 69 70 71 72 73 74 76 77 77 79 81 83 86 89 91 93 95 98 98 98 99 101 102 105 107 109 111 114 116 117 119 121 123 124 123 124 123 123 123 121 120 119 117 116 116 115 115 113 113 113 111 110 110 110 109 109 107 106 105 104 103 102 101 101 99 98 95 93 91 88 92
62 62 62 63 64 64 65 66 67 68 69 69 71 72 73 74 75 76 78 80 82 85 88 89 91 93 96 97 95 96 98 100 101 104 107 109 112 113 116 118 120 122 122 124 123 124 122 121 119 119 117 116 114 113 112 112 111 110 110 108 108 107 108 107 106 106 106 105 104 103 102 100 99 97 96 93 90 88 85 90
61 61 61 62 62 64 65 65 66 67 68 69 69 70 72 73 74 75 76 79 82 84 86 87 89 91 94 96 93 93 95 98 100 102 104 107 111 112 115 117 120 122 122 123 124 124 121 121 118 117 116 114 112 112 111 110 109 108 108 107 107 106 106 105 106 106 104 104 102 102 100 99 97 96 94 92 90 87 84 88
60 60 61 61 62 63 64 64 65 66 67 68 69 69 70 71 72 74 76 79 81 83 85 84 87 89 91 94 93 92 93 96 97 100 103 105 108 111 113 115 118 119 120 121 122 121 121 118 117 115 113 111 110 110 108 109 106 106 106 105 106 105 105 104 103 104 102 103 100 99 99 98 97 95 93 91 89 86 83 87
60 59 60 61 62 62 63 64 65 66 66 67 67 68 69 70 70 72 75 79 81 81 82 84 85 87 89 90 90 91 92 93 96 98 101 104 106 108 112 113 116 117 119 120 120 121 119 118 115 113 111 110 109 107 107 106 105 104 104 103 104 103 104 103 102 102 103 102 101 100 99 97 95 93 91 88 85 83 80 84
59 60 60 61 62 62 63 63 63 64 65 66 66 67 68 69 70 72 75 78 78 79 81 82 83 84 87 89 88 88 90 92 95 97 99 102 105 108 112 114 116 118 120 122 123 122 119 116 116 113 112 110 109 107 106 105 104 103 103 103 102 102 103 102 102 101 101 99 98 96 94 93 91 89 87 84 81 80 77 81
59 59 60 60 60 61 62 63 63 64 65 66 65 66 67 67 69 71 74 77 78 78 79 80 81 83 86 86 87 87 88 91 93 96 98 101 104 107 110 114 115 117 119 125 129 126 120 116 114 112 111 108 106 105 104 103 104 102 102 101 101 100 99 99 98 97 96 95 93 92 91 89 86 84 82 81 78 76 75 80
59 59 60 59 60 60 61 62 62 63 64 65 65 65 66 67 68 69 73 76 76 77 79 79 80 84 85 83 84 85 87 90 92 94 95 97 99 102 104 107 109 112 112 118 123 121 114 111 109 106 105 104 103 101 101 101 101 99 99 98 97 97 96 95 94 93 91 90 88 87 86 84 83 80 78 77 75 75 74 78
59 58 58 59 60 60 60 61 61 62 63 63 63 64 65 66 67 68 71 74 76 76 77 79 81 82 82 81 81 83 85 86 88 90 91 93 94 96 99 100 103 105 106 114 121 120 110 105 104 102 101 99 99 96 96 97 96 95 95 94 93 92 92 90 89 88 87 85 84 83 80 81 79 77 76 74 73 73 72 76
58 57 58 58 59 59 59 60 61 62 62 62 62 63 64 65 65 67 69 73 75 75 76 78 80 79 78 78 79 79 81 83 85 85 87 88 89 91 93 94 96 98 100 105 109 108 104 100 100 98 96 94 93 94 93 93 92 91 90 89 89 88 87 86 85 85 83 82 81 80 79 78 76 75 74 72 72 71 69 72
56 56 57 57 58 59 59 59 60 61 61 61 62 62 63 64 64 65 66 70 72 73 75 76 76 74 75 76 76 77 78 79 81 82 83 84 85 88 89 90 93 94 96 103 104 103 99 98 96 95 93 92 90 90 89 89 88 87 87 86 85 84 83 83 83 82 80 80 79 78 77 76 75 74 72 69 68 66 65 70
55 55 55 56 56 57 58 59 60 60 60 60 61 62 62 63 63 64 65 67 68 70 71 72 72 72 73 73 73 74 75 76 78 78 80 81 83 85 85 87 89 92 96 102 103 101 98 96 93 90 90 89 88 87 86 85 85 84 84 84 82 81 81 81 81 80 79 79 77 75 74 73 70 69 68 67 66 66 66 70
55 55 56 55 55 55 56 56 56 57 57 58 60 61 60 61 62 63 63 64 66 66 67 68 69 69 70 70 71 72 73 74 75 76 77 78 80 81 82 85 88 92 95 104 107 104 95 92 90 87 86 85 85 83 83 82 83 81 80 81 80 79 78 78 78 76 74 73 71 69 69 68 68 69 69 68 68 68 67 69
56 55 57 56 56 56 57 56 56 56 56 57 58 59 59 60 61 62 63 64 64 65 66 67 68 68 69 70 71 72 73 74 75 76 77 78 80 81 83 86 89 91 97 122 141 137 108 93 92 90 87 85 85 84 83 82 82 81 79 78 77 75 74 73 73 72 72 72 72 72 71 72 72 72 72 70 70 69 69 86
