P2
80 80
255
113 109 109 110 111 114 117 119 122 122 124 126 126 128 129 133 134 135 138 136 137 140 142 145 146 150 152 152 155 157 159 161 163 163 165 165 166 168 171 172 172 173 175 176 176 177 176 177 177 178 175 175 174 173 173 172 171 172 171 170 170 168 164 162 161 161 157 157 155 153 152 150 147 148 146 144 142 141 138 151
101 99 102 103 105 107 108 108 111 113 115 117 117 119 123 124 125 127 128 128 129 132 134 136 138 141 142 142 144 145 147 148 149 150 151 154 152 153 158 159 158 160 162 165 163 165 165 164 165 165 163 164 162 162 160 160 160 161 159 159 159 157 156 154 152 151 149 147 146 144 143 142 140 138 137 134 133 130 128 141
103 101 102 103 106 108 110 111 113 114 116 118 120 121 124 126 127 128 130 130 133 134 134 136 138 141 143 143 143 144 146 148 148 149 150 153 154 155 158 159 160 163 164 165 167 167 167 167 168 166 165 166 166 164 160 163 164 163 161 162 161 161 159 157 156 154 153 151 150 147 146 145 143 140 139 138 137 134 132 145
105 101 102 104 107 110 112 112 114 115 117 119 121 122 125 126 126 128 129 129 132 135 136 136 138 139 142 145 146 148 150 151 152 154 154 157 157 159 161 162 163 164 165 167 168 169 169 168 168 166 165 165 165 164 165 166 166 166 164 162 162 161 160 159 159 156 155 153 152 151 151 149 147 145 142 140 139 137 134 147
103 102 104 105 108 109 111 111 114 115 117 119 121 122 124 127 128 129 132 133 136 138 139 141 142 143 143 147 149 150 149 149 150 148 148 150 148 149 150 149 149 148 148 149 149 148 147 146 146 146 145 144 144 145 146 148 148 149 149 151 153 153 154 154 154 154 153 153 152 152 152 152 150 146 145 144 142 141 139 152
103 102 104 106 109 110 112 112 115 115 117 119 121 122 124 127 128 129 131 133 133 134 134 133 132 131 132 132 132 134 134 136 137 138 140 142 142 143 145 145 145 145 147 148 150 149 149 149 146 146 145 143 143 144 144 145 145 145 145 143 143 142 141 139 138 139 138 140 141 144 147 148 148 148 148 147 145 143 141 154
104 101 104 106 108 110 112 112 114 116 117 120 119 119 119 119 119 118 119 123 125 126 128 130 133 134 136 137 139 141 143 143 145 147 147 148 148 148 150 151 150 152 152 153 154 154 152 151 150 149 146 145 144 146 147 149 149 149 150 150 148 146 144 142 142 141 140 139 137 136 136 135 135 136 138 142 143 144 140 155
104 101 102 104 107 109 111 112 112 112 111 111 111 113 115 119 121 125 128 131 133 134 136 138 139 140 140 141 143 143 145 145 146 146 148 149 149 150 151 151 152 154 154 155 155 155 153 153 151 150 148 147 146 146 148 151 151 151 151 150 147 145 143 142 142 142 142 141 141 140 140 139 137 135 133 132 132 133 133 150
100 99 102 105 104 104 104 104 107 109 113 117 121 124 124 126 128 130 132 133 134 134 137 140 139 141 141 144 145 145 147 147 148 149 150 152 152 152 153 154 155 156 157 157 158 157 157 155 154 151 149 147 148 150 150 151 153 151 151 149 147 144 142 142 143 142 142 142 143 141 142 141 139 138 137 136 134 132 129 140
98 95 97 98 100 103 107 111 115 118 119 121 123 125 126 128 130 132 132 134 136 137 140 140 142 143 143 145 146 148 149 148 149 151 151 153 153 156 157 158 157 158 159 159 159 159 160 158 155 154 151 149 150 151 153 155 153 152 150 150 148 145 144 144 145 143 143 143 144 144 143 141 141 140 139 137 136 133 131 144
90 82 88 105 108 111 113 114 116 117 120 122 124 126 128 129 130 132 134 136 136 139 140 142 143 143 146 146 147 148 150 149 151 152 152 156 157 158 160 160 160 159 161 162 162 162 162 159 157 157 155 152 152 153 154 156 154 154 152 151 150 149 147 147 146 145 144 145 146 147 145 144 143 141 140 137 137 135 131 145
82 69 83 107 110 111 112 115 118 119 122 122 125 127 128 129 132 134 136 137 138 141 142 143 143 145 146 148 150 150 152 153 154 154 154 158 159 160 161 161 162 161 161 163 164 166 164 162 161 160 158 157 158 157 157 156 155 155 154 153 153 152 151 149 148 146 146 148 148 148 146 145 144 142 140 138 138 137 134 145
76 63 79 107 112 112 113 115 118 119 122 124 126 129 130 132 133 135 137 139 139 142 143 145 146 148 148 151 151 152 153 154 157 158 158 157 159 160 161 161 161 162 166 166 167 168 166 166 164 163 162 164 148 110 148 159 157 156 156 156 147 132 144 150 150 150 149 150 151 149 148 147 146 145 142 141 140 139 135 146
68 61 77 107 111 113 115 117 119 121 123 125 128 128 131 134 134 137 138 140 139 143 145 146 148 149 150 151 152 153 156 155 144 120 143 161 161 163 163 164 113 103 127 150 165 171 170 169 167 168 164 128 81 81 117 163 160 158 159 159 124 69 89 104 128 145 152 153 152 151 145 133 119 114 139 141 141 139 137 150
67 65 77 106 112 113 116 117 120 123 125 127 129 131 132 134 135 138 138 140 100 93 110 129 143 149 151 152 153 147 125 101 79 80 113 164 163 165 165 158 95 90 81 71 88 128 170 172 171 156 99 76 91 66 78 153 162 160 159 157 100 102 104 61 65 93 150 155 150 107 85 76 54 72 136 145 141 142 139 134
73 70 78 106 113 115 117 119 121 123 116 102 95 91 86 110 138 138 140 138 89 110 103 80 81 113 153 155 149 93 74 99 89 105 101 160 165 166 168 146 101 101 129 73 49 101 173 174 162 81 60 113 133 71 63 127 165 162 163 147 74 91 114 80 68 95 157 157 147 87 87 83 67 68 129 146 143 133 98 80
78 74 80 105 114 116 118 119 121 124 98 83 78 102 93 89 137 139 140 135 81 110 119 92 83 96 154 156 155 100 101 66 91 125 89 147 169 168 171 133 112 123 129 95 55 129 179 177 169 86 111 135 86 92 93 91 160 165 167 127 59 91 78 99 96 126 163 159 153 97 91 101 113 84 122 148 141 94 92 110
81 76 79 104 114 116 118 120 122 125 106 83 91 112 89 83 135 140 142 133 84 70 64 82 84 104 156 157 161 125 74 57 101 110 60 127 172 170 173 117 116 125 125 84 62 154 180 178 179 132 82 148 113 86 60 80 156 167 163 95 67 115 94 119 92 151 163 161 159 109 91 98 90 71 111 150 145 104 89 116
83 77 79 101 115 117 119 121 123 126 115 66 85 70 66 76 131 140 144 129 95 88 66 96 70 113 158 158 161 148 90 93 116 124 89 103 171 173 173 93 83 115 105 79 77 172 180 181 181 168 97 146 125 81 103 155 171 169 161 108 85 90 87 71 101 168 165 164 162 116 83 76 55 60 113 152 149 125 82 97
87 78 79 97 114 118 120 121 123 126 120 78 72 77 90 87 123 143 146 129 82 92 77 89 55 121 159 160 163 163 101 91 122 70 76 110 171 177 174 123 91 102 86 50 105 185 184 183 183 184 128 64 87 135 177 180 176 174 171 168 159 139 113 86 141 171 167 166 164 129 86 95 116 136 149 152 151 142 86 62
90 79 79 93 114 118 119 123 125 126 127 78 57 71 79 79 117 145 146 145 127 107 93 85 61 130 162 163 164 169 129 66 96 122 151 170 176 179 178 179 173 156 133 105 147 188 185 187 187 187 167 117 165 186 184 183 182 180 179 178 177 178 175 169 172 173 172 169 166 158 155 162 162 161 157 154 153 150 108 93
92 80 79 89 113 119 121 123 125 128 129 116 107 112 117 123 134 145 147 150 153 153 153 144 130 150 163 165 168 170 164 149 166 175 178 178 181 181 182 183 184 186 187 186 188 189 191 191 190 189 187 189 192 188 187 186 185 184 184 182 180 180 180 178 176 174 173 172 169 169 167 165 164 161 160 156 155 153 144 161
94 82 79 85 111 119 121 124 126 128 131 133 136 138 140 143 144 147 148 151 153 155 157 158 162 163 165 167 170 171 172 176 177 177 180 180 183 184 185 186 187 187 190 191 193 193 193 192 192 192 191 191 191 190 189 188 187 187 187 184 184 185 181 180 179 176 175 174 172 170 168 168 165 164 161 158 157 154 153 167
95 84 79 82 108 119 122 125 126 128 131 133 135 137 140 143 145 146 150 152 154 156 159 161 162 164 167 169 171 173 175 177 179 181 183 183 185 186 187 189 191 190 193 196 197 197 197 196 197 198 197 197 197 197 195 193 191 191 190 190 188 150 112 171 183 179 178 177 177 148 100 149 170 167 164 160 159 158 142 144
96 87 80 80 103 119 122 125 127 129 131 134 136 134 138 146 147 150 152 153 155 158 148 144 166 168 169 173 174 176 178 180 182 178 168 184 189 190 191 191 189 188 187 186 188 198 200 201 199 172 154 149 141 133 163 197 195 194 195 174 122 115 105 140 188 183 181 180 171 100 67 85 132 167 166 163 163 146 98 97
97 90 81 79 98 119 123 126 128 130 133 134 138 96 80 122 146 151 152 153 156 159 114 88 117 158 174 175 176 177 175 158 131 105 79 165 194 193 195 174 113 107 101 98 113 193 204 204 195 92 91 92 101 102 140 201 198 191 144 89 127 132 127 111 182 185 183 181 120 82 149 99 79 118 166 166 149 84 73 82
97 93 83 79 91 118 123 126 128 131 133 136 133 73 48 55 86 129 151 155 158 152 90 130 107 76 128 170 179 179 117 82 97 127 63 134 196 194 199 164 121 155 103 104 116 195 206 207 190 100 130 118 181 115 156 205 203 173 89 86 116 82 105 108 160 190 188 153 66 95 149 89 65 112 171 155 90 92 89 121
97 95 86 79 85 115 123 126 129 132 134 138 118 77 92 71 73 82 124 159 161 134 92 107 94 72 56 125 182 185 124 105 157 136 111 119 193 198 203 169 120 160 146 82 99 202 209 211 190 98 91 110 107 72 172 207 203 196 105 68 129 85 88 78 136 194 183 96 64 134 95 93 99 165 174 156 93 127 137 126
98 96 90 80 82 111 123 127 129 132 135 138 101 78 100 105 121 89 130 159 161 104 109 162 110 126 77 141 184 187 165 94 105 132 166 90 178 203 205 176 75 139 165 115 93 207 214 215 183 132 166 107 97 99 185 210 208 208 155 82 143 111 88 135 185 195 190 158 99 73 52 71 153 179 174 173 137 87 114 102
98 95 93 82 80 103 124 127 129 131 134 137 104 72 88 111 121 88 147 159 161 120 85 128 116 106 96 172 185 187 186 117 120 131 121 57 154 207 208 179 96 119 138 113 113 211 217 219 180 110 143 132 105 97 202 214 212 210 196 98 89 133 180 205 201 197 196 196 182 122 69 132 184 181 178 175 169 115 88 144
97 96 96 85 79 94 122 126 129 132 134 138 139 124 93 67 72 110 156 161 164 167 152 108 96 107 126 184 188 190 194 146 110 100 112 146 191 209 210 194 129 128 125 130 162 219 222 221 206 172 174 181 187 200 217 218 216 216 212 165 169 208 211 207 205 202 199 197 195 192 171 184 187 184 181 179 175 159 144 186
97 96 97 88 79 87 119 126 129 132 133 138 141 145 145 125 91 131 160 163 166 169 172 174 152 114 163 188 189 193 196 186 154 182 202 210 210 211 214 216 217 219 220 224 226 224 225 226 226 227 227 227 227 225 222 220 219 218 216 216 216 213 210 207 207 204 202 200 198 196 196 192 188 185 184 180 178 176 172 188
96 94 97 92 80 81 111 126 129 131 134 138 141 144 142 150 154 155 159 163 166 170 173 175 180 181 183 187 190 196 198 201 205 205 208 210 212 214 217 220 222 225 226 226 228 229 228 227 229 229 228 230 231 227 226 226 225 223 223 221 219 220 217 213 211 208 206 203 200 201 200 195 191 188 185 184 183 180 177 192
95 94 96 95 81 77 103 126 129 131 135 139 142 144 148 152 154 159 162 163 168 170 175 178 180 185 190 190 193 196 199 202 206 210 209 212 216 219 222 223 226 215 228 233 232 235 235 233 235 237 232 213 203 229 232 231 230 220 203 198 192 186 199 217 216 213 208 136 110 143 170 188 194 192 187 150 127 129 127 168
95 94 95 96 85 76 93 125 130 133 136 139 141 146 150 146 101 123 163 165 168 173 176 180 176 162 140 173 198 200 203 208 209 172 111 188 222 223 227 230 214 102 131 209 241 240 239 236 216 180 146 111 123 226 236 236 232 146 97 93 103 126 150 223 219 217 185 76 141 147 94 120 193 197 182 117 90 76 72 149
94 92 95 96 91 78 85 120 130 133 137 140 143 146 149 108 72 68 115 162 172 174 165 121 98 75 89 125 199 202 204 193 123 91 127 124 218 227 229 233 162 100 115 117 154 230 247 226 122 158 142 115 94 217 243 241 230 137 146 126 99 116 174 227 223 219 140 97 165 177 107 143 203 200 171 111 91 95 122 174
94 92 94 96 96 81 79 111 129 132 136 139 143 147 122 92 82 83 81 105 157 175 167 91 97 120 104 73 184 207 203 122 109 124 159 83 163 232 234 207 124 167 149 131 74 214 252 240 128 129 116 139 105 202 249 247 227 138 138 145 130 86 197 230 228 195 91 107 146 170 123 190 205 202 155 105 85 85 107 190
95 92 93 96 97 87 77 101 128 132 135 140 143 145 104 85 98 121 116 67 121 176 181 138 118 114 94 90 148 208 211 168 139 150 98 87 93 217 240 162 111 198 238 117 148 251 253 253 162 131 125 144 107 186 252 251 217 108 105 146 144 134 216 233 230 169 89 84 120 133 146 212 207 203 136 105 90 57 110 203
94 91 93 95 97 91 77 90 125 133 135 140 143 147 144 106 94 113 94 95 162 175 180 171 94 136 145 95 124 205 213 217 138 65 82 103 174 231 240 223 163 155 198 138 231 254 254 255 184 81 94 129 182 234 253 254 225 151 147 145 145 178 235 237 235 227 208 177 145 136 199 215 209 206 179 161 161 159 174 206
94 91 92 93 95 95 81 82 119 131 134 139 142 145 150 153 130 99 92 152 173 177 182 184 134 104 141 167 194 208 213 220 211 115 145 215 239 241 243 247 250 222 164 200 255 255 255 255 237 207 239 255 255 255 254 254 255 254 252 252 251 248 243 241 238 236 233 232 228 220 218 216 213 210 208 206 204 199 193 208
91 90 91 92 94 96 85 76 107 130 133 137 142 146 150 154 158 145 148 168 171 177 181 185 187 192 201 205 206 211 215 219 224 220 230 235 238 241 246 248 251 255 255 255 254 255 255 255 255 255 255 255 255 255 255 254 255 254 255 255 253 248 247 243 240 238 235 232 230 224 221 220 216 213 213 209 204 200 194 209
89 88 90 91 94 96 90 76 95 127 134 137 141 146 148 152 156 161 167 169 172 176 181 187 190 194 198 205 208 212 217 222 226 232 235 241 243 246 250 251 254 255 243 248 255 255 255 255 255 226 248 255 255 255 255 255 255 255 247 223 231 252 249 248 246 242 204 139 207 232 225 223 220 203 154 168 193 200 196 212
88 87 89 90 92 94 95 80 83 121 133 137 140 144 148 152 157 158 132 120 167 178 182 187 192 158 128 175 208 216 219 224 201 177 180 180 203 248 253 255 249 202 126 163 255 255 255 255 218 121 123 198 251 255 255 245 204 163 131 112 157 254 252 252 245 188 116 99 114 215 230 225 221 150 132 142 94 140 198 213
86 86 89 90 91 93 95 85 77 112 131 135 138 143 147 151 141 109 96 96 120 174 183 186 183 114 117 73 135 184 219 227 153 97 96 118 134 247 255 225 143 173 145 115 219 255 255 247 145 149 139 79 152 247 255 218 124 134 159 130 146 251 255 241 175 152 112 80 113 141 222 229 204 113 143 125 82 154 203 214
85 85 88 91 91 92 94 90 76 100 129 133 137 141 145 145 96 96 128 123 96 137 179 187 148 98 126 117 110 133 220 228 168 113 135 153 119 245 255 221 107 124 195 128 128 250 255 184 179 199 139 84 173 253 255 236 154 183 133 114 122 243 255 228 121 118 130 127 123 153 224 228 157 119 105 124 124 199 203 215
83 84 86 89 91 91 93 93 80 87 122 129 134 139 142 146 132 109 128 125 119 102 165 185 135 98 117 153 105 180 222 229 178 95 148 127 139 243 255 255 176 146 203 143 183 251 255 212 158 120 109 161 248 255 255 251 151 135 82 89 142 244 255 255 208 108 98 135 171 231 234 225 155 118 129 115 172 210 204 217
83 83 86 88 90 90 91 92 84 79 114 127 132 136 140 145 148 132 110 96 105 151 177 183 184 165 128 120 139 214 222 227 207 152 154 159 188 250 255 255 249 174 187 236 255 255 255 255 249 196 139 232 255 255 255 255 197 174 214 240 253 255 255 255 255 202 129 202 241 237 233 230 224 212 188 171 204 209 203 216
83 82 84 86 88 90 89 92 89 76 102 124 128 133 138 142 146 150 132 132 163 172 175 181 187 194 197 180 194 217 220 224 231 239 243 253 255 255 255 255 255 253 255 255 255 255 255 255 255 255 255 255 255 255 255 255 255 255 255 255 255 255 255 254 253 253 244 243 239 237 233 231 226 223 223 217 210 207 202 216
82 81 84 85 87 89 89 90 91 79 90 120 126 131 136 139 144 148 154 160 164 171 176 180 184 191 199 206 206 214 219 225 232 239 242 231 251 255 255 255 255 243 248 255 255 255 255 255 255 255 248 252 255 255 255 255 255 255 250 253 255 255 255 255 254 220 224 245 238 235 232 230 224 197 187 213 210 207 202 216
80 80 82 83 85 87 88 88 90 83 81 111 123 128 131 135 139 143 143 141 143 148 165 178 182 190 182 133 122 201 218 224 233 221 161 133 211 255 255 255 247 134 167 213 250 255 255 234 190 159 167 199 255 255 252 218 202 169 111 191 255 255 255 249 192 138 137 216 238 231 225 202 139 102 125 204 209 205 200 214
79 78 80 82 84 85 87 87 87 86 77 101 119 123 127 130 136 135 94 80 82 70 127 173 178 147 101 104 99 133 211 224 193 127 124 170 139 233 255 254 183 140 171 152 166 252 255 171 106 156 141 150 255 255 245 136 165 175 98 151 255 255 233 152 158 174 126 117 214 230 173 97 87 100 115 179 208 202 197 211
78 77 80 80 82 84 85 86 87 87 78 90 114 119 123 127 131 132 100 89 75 70 113 167 171 129 115 147 149 100 163 221 197 144 154 158 109 158 255 235 159 193 183 186 193 255 255 197 121 198 194 131 239 255 253 161 178 208 177 157 246 255 196 82 154 146 156 113 195 226 179 88 147 171 143 163 204 198 194 208
76 76 79 79 81 82 84 85 86 86 82 82 106 113 117 121 125 130 103 75 77 85 99 157 167 167 119 136 128 125 181 213 221 184 109 112 169 227 255 252 223 192 131 170 251 255 255 235 144 184 186 174 241 255 255 179 119 149 160 176 243 250 243 174 112 97 143 204 220 217 206 111 99 137 174 196 195 193 189 204
76 75 77 78 80 81 82 84 84 85 83 77 98 109 113 116 120 126 116 94 102 106 122 153 160 167 161 124 147 189 202 205 212 217 175 198 244 255 255 255 255 253 216 234 255 255 255 254 229 236 250 255 255 255 255 237 205 226 242 249 248 242 239 235 169 154 210 217 212 208 206 170 165 195 196 192 189 186 181 191
75 74 76 76 78 79 81 82 84 84 84 78 90 104 108 111 115 118 122 127 132 139 144 149 154 160 166 171 182 187 192 198 206 214 227 235 244 251 255 255 255 255 255 255 255 255 255 255 255 255 255 255 252 252 253 255 255 255 253 248 243 237 233 229 226 220 213 208 206 202 200 201 197 192 188 185 181 178 175 175
74 73 75 76 77 79 80 81 82 84 83 79 82 99 103 106 110 113 116 122 120 112 130 140 145 151 158 138 137 167 184 189 198 188 171 178 181 222 252 255 244 200 212 232 250 255 255 227 197 196 200 222 242 241 231 208 206 209 219 235 235 228 211 172 182 193 200 199 195 187 174 153 132 165 181 177 173 168 165 158
73 72 73 75 76 77 79 80 81 83 83 81 78 93 98 102 105 108 111 112 79 70 99 125 138 145 138 89 92 113 132 175 190 141 101 93 79 171 244 253 209 169 157 144 187 254 249 176 148 142 149 163 227 228 192 127 147 130 130 213 225 219 172 149 131 120 137 188 183 121 103 119 88 145 173 166 164 160 152 144
72 71 73 75 76 77 78 79 80 81 82 81 77 86 95 97 101 103 105 84 76 69 78 87 121 137 104 76 94 91 86 162 179 141 112 104 87 159 233 241 190 164 174 174 198 248 238 160 116 139 131 155 213 214 174 121 162 148 148 209 217 198 139 158 109 108 142 181 173 105 112 118 118 138 162 158 155 151 138 135
72 70 72 73 75 76 77 78 79 80 81 81 78 81 91 93 96 99 100 86 71 76 77 88 122 128 106 98 94 75 122 162 168 142 89 121 104 154 221 228 196 174 174 173 223 235 226 159 122 91 91 148 200 202 160 105 138 154 156 208 209 181 127 134 111 110 169 170 166 106 82 108 120 141 150 147 144 140 124 128
71 70 71 72 73 74 75 76 77 79 80 81 79 77 88 91 93 95 98 100 93 74 83 112 120 123 126 122 107 104 142 152 157 155 149 158 167 185 205 217 226 231 222 212 226 220 212 194 177 168 163 174 186 185 174 160 167 173 184 199 197 193 180 163 139 147 166 160 156 136 128 141 144 143 141 137 134 128 115 121
70 69 70 71 72 73 74 75 76 77 79 79 78 75 83 88 89 91 93 97 99 100 105 110 113 117 120 124 128 133 137 142 147 151 159 165 173 182 191 203 215 223 226 224 214 205 197 191 184 179 176 173 171 169 170 173 174 178 181 183 184 182 180 174 169 162 155 150 146 145 142 138 134 132 129 126 123 115 106 113
68 67 68 69 70 72 73 74 75 76 77 78 77 75 79 84 86 88 90 92 94 97 100 104 106 109 113 116 120 123 127 131 134 140 145 151 157 165 175 187 197 205 207 206 198 189 181 173 165 161 159 156 155 153 153 154 154 158 161 164 166 166 163 157 153 148 142 137 133 130 128 125 122 120 117 115 112 105 102 109
68 67 68 68 69 71 72 72 73 74 75 76 77 77 77 81 82 84 87 88 90 92 95 98 100 102 105 109 111 114 117 120 123 128 132 135 142 148 157 165 174 181 185 183 177 169 161 155 150 146 144 142 140 139 139 140 140 143 145 148 151 151 148 143 140 134 129 126 122 121 117 114 113 110 107 106 104 102 98 105
66 65 67 67 68 69 70 71 72 72 73 75 76 77 77 78 79 82 83 85 86 88 90 92 94 96 100 102 104 107 109 111 114 117 120 123 126 130 133 137 140 144 147 145 144 142 139 136 134 132 131 129 128 126 126 126 126 127 128 128 129 128 127 124 121 119 116 115 112 111 109 107 105 105 103 102 101 99 96 102
65 64 65 65 66 68 69 69 70 72 72 73 75 76 76 77 78 79 81 82 84 84 87 90 93 96 97 99 100 102 104 107 110 111 114 117 119 121 123 125 126 127 128 129 129 130 128 127 127 126 124 123 122 121 121 121 119 118 117 117 116 115 115 114 113 111 111 109 108 107 107 106 104 103 102 100 98 96 94 99
64 63 64 64 65 65 67 68 69 70 71 72 73 74 75 77 77 78 80 82 84 84 87 90 94 96 97 97 98 102 104 103 108 109 112 114 116 119 121 122 124 126 127 127 128 127 125 125 124 124 123 121 120 119 118 118 117 116 115 115 114 113 113 112 111 110 109 108 107 105 105 104 102 101 99 97 96 94 91 97
62 61 63 63 64 65 65 66 67 68 69 70 71 72 74 75 76 77 78 80 82 85 88 90 92 94 97 98 97 98 100 100 104 106 109 111 114 115 118 119 122 124 124 124 125 124 124 122 120 121 118 117 117 116 115 115 114 113 113 112 111 110 110 109 108 108 107 105 105 104 103 102 100 99 98 96 94 92 90 95
62 61 61 62 63 64 65 66 67 67 68 68 70 71 72 73 74 75 76 79 81 84 87 89 91 93 96 96 95 95 97 99 100 103 107 109 112 113 116 118 120 122 123 123 123 123 122 121 119 119 117 116 115 114 113 113 112 111 111 110 109 109 108 107 106 106 106 105 104 104 103 101 99 98 97 95 93 91 87 92
61 60 60 61 62 63 64 65 66 67 67 68 68 69 71 72 73 74 75 79 81 83 86 87 89 90 94 94 93 93 94 97 100 102 105 108 110 112 115 117 120 122 123 124 123 123 122 120 119 117 116 115 113 112 111 110 109 108 109 108 108 107 107 106 105 105 105 104 102 102 100 99 98 96 95 92 91 88 85 90
60 60 60 61 62 63 64 64 65 65 66 67 68 68 70 71 71 73 75 78 81 83 84 84 86 88 90 93 92 91 93 95 98 100 102 105 107 110 112 114 118 120 121 123 121 122 120 119 117 116 114 112 112 110 108 108 107 106 106 106 107 105 105 104 104 104 103 103 101 100 99 98 97 96 94 91 90 88 85 90
59 59 60 61 61 62 62 63 64 65 66 66 67 67 69 70 70 72 75 78 80 81 82 83 84 87 89 90 89 90 91 93 95 98 100 103 106 108 111 113 115 118 120 122 121 121 119 118 116 114 112 110 110 108 107 106 106 105 104 104 104 104 103 104 103 102 102 101 101 101 99 98 97 95 93 91 89 87 83 87
59 59 60 60 61 61 62 62 63 64 65 66 66 67 68 69 70 71 75 77 78 79 80 81 83 84 87 88 88 88 90 92 94 96 99 102 106 108 111 115 117 118 121 123 124 123 120 118 115 114 112 109 108 107 106 104 104 103 103 103 103 102 102 102 101 101 102 101 100 99 98 97 94 92 90 88 84 83 81 84
59 59 59 59 60 60 60 62 63 63 64 65 64 66 67 68 69 70 74 76 77 78 79 80 81 82 86 86 86 86 88 90 92 95 98 101 104 107 109 112 115 118 121 130 131 127 119 116 114 113 111 108 108 106 104 103 103 102 102 102 102 101 100 101 100 98 100 98 96 95 93 92 90 88 86 83 81 80 78 82
58 58 59 59 59 60 61 61 62 62 63 64 64 65 66 66 67 69 73 75 76 77 79 79 80 83 84 84 84 85 87 89 91 93 94 98 100 102 104 106 109 112 116 124 125 121 113 111 110 108 106 105 104 103 102 102 101 100 100 99 99 97 97 96 95 95 94 92 92 90 88 88 85 84 82 80 78 76 76 80
58 57 58 58 59 60 60 60 61 61 63 63 63 63 65 65 66 67 71 74 74 76 77 78 80 81 80 80 81 82 84 85 87 89 90 92 95 96 98 100 103 105 110 123 124 118 106 105 104 102 101 100 100 98 98 96 97 95 96 95 95 94 93 92 91 90 89 88 87 86 83 83 81 80 78 77 75 74 74 78
56 56 57 57 59 59 59 60 60 61 61 61 62 62 63 64 65 66 69 72 75 75 76 78 79 78 78 77 78 79 81 82 84 85 86 87 90 91 92 94 97 98 102 107 110 106 101 101 100 97 96 95 94 94 94 93 92 92 91 91 90 90 89 88 87 86 84 83 82 81 80 79 78 77 75 75 73 73 72 76
55 55 56 55 56 57 58 59 59 60 61 61 61 61 62 63 64 64 65 68 72 73 75 75 75 74 74 74 75 77 78 79 80 82 83 84 85 87 89 90 94 95 99 105 104 102 99 97 96 94 92 91 91 91 90 90 89 89 88 87 85 85 85 85 84 83 82 81 80 79 78 78 76 75 74 72 71 70 68 71
55 55 55 55 55 55 56 57 58 58 59 60 60 61 62 62 63 64 65 66 68 70 70 71 71 72 72 72 73 74 75 76 77 78 79 81 83 85 85 87 91 94 101 105 102 99 96 95 92 90 89 88 88 87 86 87 86 84 84 84 83 82 82 81 81 81 80 79 78 77 77 76 74 72 71 69 67 66 65 69
55 55 55 55 56 56 56 56 56 56 56 57 58 58 59 61 61 62 63 64 65 66 67 68 68 69 69 70 71 72 72 74 75 75 77 78 80 82 83 86 89 92 97 105 106 99 92 90 89 88 86 85 84 83 83 83 83 82 81 81 81 80 79 79 79 79 78 77 75 73 72 71 68 68 68 67 67 67 66 69
56 56 56 57 57 57 57 57 57 56 57 58 58 58 58 59 59 60 61 62 63 64 65 66 66 67 68 70 70 72 73 73 75 76 76 78 80 82 85 87 89 92 109 136 141 124 97 93 91 89 86 85 85 85 83 84 83 82 81 81 80 79 78 76 77 76 74 73 72 70 71 70 70 70 71 70 68 68 69 85
