P2
80 80
255
115 109 110 113 115 116 117 119 120 121 123 126 128 128 132 134 134 136 139 140 140 144 146 146 148 150 154 156 157 157 159 161 164 166 167 167 169 169 168 171 172 172 171 172 174 176 178 177 175 175 171 169 168 167 167 168 168 169 166 164 162 161 159 160 159 157 155 154 151 151 151 151 147 148 147 146 145 144 139 149
103 101 104 105 106 108 109 111 112 113 115 117 119 121 121 124 124 125 128 128 130 132 133 134 136 137 140 142 144 145 145 146 149 150 151 153 154 154 155 157 159 159 159 163 163 165 164 164 164 165 164 161 159 159 157 156 155 157 155 153 151 151 150 149 147 146 145 142 143 142 140 139 138 138 137 137 135 133 130 142
104 103 105 107 107 109 110 113 114 114 117 118 119 121 124 125 127 129 131 133 135 136 138 140 139 142 143 144 148 149 150 151 152 154 154 155 156 157 158 160 161 161 162 165 167 168 167 167 166 167 168 166 165 165 163 162 161 161 160 159 156 156 155 152 149 147 148 146 145 145 145 144 140 138 139 138 139 137 134 145
105 102 105 106 108 108 111 112 114 116 117 118 120 122 123 124 126 127 129 131 132 135 136 138 139 140 142 143 146 148 151 152 154 155 155 156 158 160 161 162 164 164 165 166 167 169 170 167 167 167 167 165 166 165 164 163 164 164 164 163 162 161 159 157 153 152 151 150 147 146 146 145 143 140 138 139 140 138 136 148
104 103 104 106 107 108 111 112 112 113 112 111 112 113 112 113 114 115 118 120 121 124 125 126 128 128 128 129 130 132 133 135 136 136 138 141 142 144 147 150 154 156 156 159 161 165 165 166 168 168 167 167 167 165 163 164 167 167 165 164 164 162 162 160 158 156 153 153 152 150 150 149 146 142 140 141 140 140 137 149
104 102 102 102 102 103 103 104 105 108 109 112 115 117 119 121 123 125 127 128 129 131 133 134 135 136 138 138 137 140 141 141 141 142 141 144 143 143 144 145 145 146 145 145 146 147 146 145 145 147 148 150 152 155 160 162 165 166 165 165 164 164 163 161 160 158 155 155 155 154 153 151 149 145 143 143 143 141 139 151
98 94 97 99 103 105 110 113 114 115 119 120 122 122 124 126 126 128 130 131 132 132 134 136 137 137 139 140 140 142 144 143 144 145 146 146 147 147 149 150 151 152 153 152 152 153 150 150 147 145 143 140 140 142 143 144 145 148 152 156 158 158 159 158 160 159 158 158 158 157 156 154 152 149 148 146 146 144 139 152
103 102 105 107 109 111 113 114 116 117 119 121 122 122 124 126 127 129 131 132 132 134 136 137 139 139 139 141 142 142 145 145 146 147 147 148 148 149 150 153 153 153 155 155 154 154 153 152 150 149 148 147 146 147 148 149 149 149 148 147 144 143 141 143 147 151 154 157 158 160 159 158 156 154 152 151 149 147 142 156
107 105 107 108 110 111 113 116 117 118 120 121 123 124 126 128 129 130 131 133 134 135 138 139 139 140 141 143 144 145 145 147 147 149 149 151 150 151 153 155 157 157 157 157 158 156 156 154 152 150 148 146 146 148 150 150 151 150 151 149 147 145 142 141 140 139 139 142 145 148 155 157 159 157 155 154 152 150 145 159
106 105 108 109 111 112 114 116 118 118 121 123 124 126 128 129 131 131 133 135 135 138 139 140 141 143 144 145 146 148 147 148 149 150 150 153 154 154 156 157 158 161 160 160 159 159 158 156 154 153 150 148 149 149 151 152 152 151 150 148 147 146 144 143 144 144 143 142 142 142 142 143 147 150 152 152 152 150 147 162
107 105 109 110 112 113 115 117 118 120 121 123 125 127 129 129 131 133 134 136 137 139 140 141 142 144 145 146 146 148 150 150 152 152 152 154 156 158 160 162 163 163 163 163 163 161 159 158 158 157 154 153 152 153 154 155 153 152 152 150 150 148 147 146 145 146 144 144 146 146 145 144 142 140 141 140 143 147 147 163
108 106 108 110 113 114 116 118 120 121 123 125 126 128 129 131 133 134 135 138 140 141 142 143 144 146 147 149 150 151 151 153 153 154 155 156 157 159 161 161 162 163 162 164 164 164 163 161 161 160 158 157 156 157 157 157 155 154 153 153 152 151 150 149 147 147 146 147 147 147 146 145 143 143 141 139 136 137 136 154
109 108 110 111 113 115 117 119 122 123 125 127 128 129 130 132 133 136 138 123 117 134 143 146 147 147 149 150 152 152 154 156 157 152 150 156 157 160 161 161 164 166 166 166 167 167 166 164 164 162 162 163 163 161 159 157 156 155 155 155 154 153 151 150 149 150 150 150 150 149 148 148 145 145 142 140 139 138 134 145
111 108 111 113 114 116 118 117 103 97 94 92 89 97 130 134 135 137 139 93 76 84 93 115 136 149 150 150 151 154 145 129 108 90 99 157 160 162 164 166 145 110 139 162 171 171 168 168 167 167 166 166 141 136 162 161 161 157 157 157 158 156 153 153 152 153 152 152 153 151 150 149 147 145 143 142 140 138 136 149
111 109 111 112 115 116 120 114 74 84 69 94 94 74 124 134 135 138 136 85 117 133 106 69 78 117 153 152 151 106 80 82 93 87 92 146 163 163 163 168 122 87 78 89 118 152 170 171 171 172 160 112 81 97 160 164 162 160 159 122 120 148 156 156 155 154 154 155 155 155 152 150 148 147 145 143 141 140 137 150
111 110 113 114 116 118 119 118 80 90 91 119 95 69 120 136 137 139 135 75 79 102 88 94 76 113 154 154 156 99 99 81 87 99 107 129 167 165 166 167 108 109 110 88 52 84 165 174 170 137 79 89 82 70 142 166 163 163 153 86 85 82 112 143 157 157 155 146 132 118 138 153 150 148 147 146 142 140 137 151
113 110 114 115 116 118 120 120 75 71 85 77 71 69 114 138 138 141 129 84 84 53 77 91 75 124 155 156 158 124 84 61 81 127 83 108 167 167 170 162 103 121 128 107 55 96 174 176 156 69 80 135 103 60 112 168 165 164 131 88 123 74 61 110 160 158 111 85 70 56 121 155 151 152 140 111 131 143 139 152
113 110 113 114 116 120 122 123 84 75 71 71 71 75 107 137 139 142 121 87 105 58 89 84 69 136 157 157 159 146 80 81 83 133 78 87 165 169 173 149 103 134 137 101 61 127 179 178 170 94 124 114 86 95 91 160 168 166 103 73 98 87 82 133 164 161 100 92 89 71 116 156 150 121 86 85 117 144 140 154
112 111 114 115 118 121 122 125 92 59 64 78 93 89 97 139 141 143 124 77 90 70 98 67 67 145 159 158 161 161 100 102 123 114 87 83 153 173 176 129 71 113 104 93 61 155 180 180 182 127 104 153 100 69 73 154 172 156 75 92 93 116 106 159 167 163 111 94 112 98 114 159 140 93 114 77 93 144 142 155
114 112 114 117 119 121 123 125 105 68 71 77 81 82 105 138 140 144 144 135 116 96 87 64 76 152 159 161 163 166 122 62 99 78 82 112 162 175 178 146 91 101 104 62 81 176 184 183 185 162 103 134 88 99 152 177 177 151 79 100 99 88 115 173 169 167 114 96 89 66 104 161 150 93 104 85 79 137 144 157
114 112 115 117 120 122 124 125 126 125 127 129 132 134 136 140 142 144 146 150 152 152 144 127 124 156 162 164 165 168 152 100 120 147 165 173 176 179 179 182 177 155 125 85 119 186 186 186 187 184 107 74 132 178 186 182 180 175 161 131 99 76 151 176 172 171 120 78 70 89 133 161 157 111 78 82 84 139 146 157
114 113 115 118 119 122 125 127 127 132 133 135 136 138 140 142 143 146 147 149 152 154 157 160 161 161 164 165 168 170 171 169 173 176 177 178 180 180 182 184 186 187 187 179 180 190 189 191 191 189 165 165 190 188 187 186 184 183 183 182 175 163 175 176 175 173 150 138 156 166 165 163 161 126 66 104 143 150 146 161
112 114 116 118 120 122 125 127 129 131 133 136 136 139 141 142 145 147 149 150 152 154 157 160 162 163 166 167 169 172 172 174 174 177 178 179 181 184 185 188 189 189 190 190 191 192 192 193 192 191 192 194 191 191 189 189 188 187 186 184 185 185 182 180 180 176 175 175 174 169 167 164 164 152 141 155 156 152 150 163
109 114 118 119 121 124 126 129 130 133 133 126 136 141 142 145 147 149 151 152 155 153 150 162 163 166 168 170 171 173 174 176 177 181 183 182 185 186 188 190 192 192 193 194 194 196 195 196 196 196 196 195 194 195 194 193 192 189 191 189 186 185 184 183 182 178 179 178 173 170 169 167 165 166 164 159 158 154 150 165
107 115 118 120 121 124 126 129 131 134 120 69 88 126 144 147 148 150 152 155 159 126 83 122 161 169 170 172 174 176 178 180 178 166 148 176 189 189 192 193 193 193 194 194 194 198 199 200 199 194 190 190 187 191 197 197 196 195 192 150 121 182 188 185 183 182 137 136 177 175 172 170 169 157 146 161 158 155 152 167
102 116 118 121 122 125 127 129 131 135 98 50 47 60 95 132 150 151 153 155 154 96 118 108 95 143 172 175 175 175 156 129 105 100 66 142 193 193 195 184 121 113 110 109 125 195 204 205 180 101 103 102 100 143 201 200 199 175 127 126 114 164 192 188 189 162 88 79 128 175 175 174 161 110 98 156 162 157 154 169
97 114 118 120 122 125 128 130 132 129 78 70 75 54 57 78 112 151 155 158 137 76 104 118 69 61 110 166 178 176 95 82 112 138 70 113 194 197 199 179 114 153 102 100 115 194 206 210 161 101 118 142 133 145 205 202 158 93 112 126 120 140 194 192 183 97 123 126 77 126 179 167 100 72 86 130 164 161 157 172
91 114 119 120 123 126 128 130 133 112 69 100 103 102 117 96 97 151 156 158 106 111 135 105 93 81 63 157 182 184 125 109 152 134 125 113 185 199 204 183 120 161 146 83 107 203 210 212 155 93 101 152 95 159 209 207 144 79 119 88 103 114 190 196 132 76 135 113 74 143 181 114 105 117 109 91 161 163 159 173
85 110 119 122 123 127 128 131 133 95 73 73 101 112 118 72 127 154 158 153 80 91 166 125 119 105 102 177 183 187 163 92 100 130 172 84 166 203 206 188 80 134 166 108 100 210 214 215 150 141 120 85 93 178 214 212 181 79 121 100 86 112 193 193 105 90 99 81 125 184 183 137 110 139 103 127 168 165 161 176
81 106 120 121 124 127 128 131 133 125 97 76 78 93 109 89 146 155 158 160 138 98 100 102 118 83 145 183 183 187 183 115 129 126 115 57 146 207 208 188 97 120 144 114 120 215 217 218 139 149 146 119 92 195 217 215 205 119 115 120 148 199 204 201 185 122 57 84 179 190 186 177 109 100 131 172 172 168 163 175
78 101 119 121 124 126 129 132 134 137 141 130 99 65 56 113 153 157 160 163 166 165 134 99 104 103 174 185 188 189 193 138 106 103 120 155 191 209 212 200 132 127 122 125 164 222 221 222 177 153 160 162 176 215 220 219 217 162 125 192 213 211 208 207 205 196 147 164 196 193 190 187 155 137 178 177 174 170 166 174
77 93 118 120 124 127 129 131 134 137 138 143 145 136 112 138 155 158 160 163 167 171 175 170 135 148 184 187 190 192 195 185 165 191 205 209 209 211 215 216 219 219 222 224 225 226 225 227 228 229 228 229 229 226 225 223 220 217 218 218 215 214 213 209 208 205 204 202 199 195 192 190 186 185 182 178 176 172 168 172
76 86 116 121 123 126 130 131 134 137 139 142 145 150 148 152 156 159 161 164 168 172 174 177 181 184 185 188 191 194 196 200 203 204 208 209 212 215 218 219 222 227 227 228 229 230 229 231 230 231 233 233 229 230 228 227 227 226 225 223 219 218 217 214 212 211 208 205 202 199 198 198 193 190 183 181 178 175 170 169
77 80 112 122 124 126 130 132 135 137 140 144 146 148 150 156 157 158 163 166 169 172 177 179 183 186 190 191 193 197 199 200 205 210 207 212 215 220 224 226 228 217 231 234 235 235 235 236 239 237 223 209 232 234 232 231 217 207 201 198 216 223 221 209 135 144 174 199 206 203 172 133 132 135 181 186 181 178 170 168
77 76 105 122 125 127 130 133 135 138 140 143 148 129 88 129 160 162 165 168 171 175 179 176 166 143 150 192 196 200 201 205 207 163 109 194 223 223 228 233 212 99 141 217 243 240 240 231 198 165 122 123 225 241 242 205 108 103 112 129 199 230 227 169 97 165 109 136 209 205 143 99 82 103 182 189 185 180 168 168
77 73 98 122 124 128 131 134 137 138 142 146 135 83 67 67 116 159 167 169 174 158 120 101 72 83 95 179 198 202 203 183 109 98 123 132 221 228 232 235 156 103 119 117 171 240 249 175 137 153 121 99 219 247 246 187 142 130 102 127 218 233 222 131 127 187 127 166 216 200 120 91 113 146 194 192 187 183 167 170
76 73 87 118 125 128 131 134 136 139 143 137 94 84 72 77 73 101 153 169 175 152 74 97 112 126 60 140 204 206 187 106 105 127 158 79 178 233 237 202 128 170 155 111 105 241 254 190 127 115 150 111 208 252 249 172 130 153 134 131 235 237 185 89 116 172 141 210 219 185 119 91 68 154 201 194 191 186 163 171
78 74 80 114 125 129 131 134 137 139 143 104 89 93 103 113 112 73 88 162 176 177 116 121 103 91 76 111 196 206 206 136 158 149 95 84 104 226 240 152 119 214 226 102 197 255 255 218 136 115 134 115 203 255 250 149 103 128 128 175 244 242 192 128 108 128 174 227 222 187 133 130 129 188 202 196 194 186 159 171
80 73 75 106 124 128 131 133 136 139 142 130 93 65 115 114 108 66 126 170 175 180 151 92 144 160 103 97 172 209 214 201 97 73 79 110 179 235 242 222 160 165 184 158 251 254 255 242 113 110 158 212 249 255 253 206 192 195 201 234 251 246 243 238 221 199 225 228 224 221 217 215 211 208 204 199 196 183 156 172
83 74 73 95 122 126 130 132 136 139 142 145 143 113 99 99 77 122 167 173 176 179 179 99 84 122 130 162 198 210 214 222 177 91 152 215 240 242 246 250 252 217 167 230 255 255 255 254 234 250 255 255 255 255 255 255 255 255 255 255 252 249 245 246 245 241 235 231 227 226 224 218 214 209 206 201 198 178 157 174
88 75 73 84 119 126 128 132 136 138 140 144 148 153 135 97 114 163 169 172 175 180 182 171 164 186 201 206 208 211 215 219 223 209 232 238 238 245 250 251 252 255 255 255 255 255 255 255 255 255 255 255 255 255 255 255 255 255 254 255 253 252 252 206 204 244 239 236 229 181 179 204 215 214 209 203 198 170 158 174
92 77 72 76 112 126 129 130 135 138 140 143 147 152 155 154 159 165 169 171 175 179 182 189 194 199 200 204 207 213 216 220 229 233 237 242 245 248 251 253 255 255 232 253 255 255 255 255 210 208 255 255 255 255 253 227 188 148 214 255 255 254 197 119 112 213 244 239 200 140 151 99 185 219 212 206 197 164 159 171
94 80 72 71 102 124 127 131 134 137 140 143 147 150 154 159 161 161 168 172 175 180 184 188 178 168 199 208 212 216 220 222 211 204 204 201 227 252 254 255 238 182 107 202 255 255 255 230 125 112 136 220 254 254 176 140 136 121 192 255 250 199 150 96 108 147 235 238 161 131 127 114 210 221 215 210 192 161 158 170
94 86 74 71 89 122 127 130 133 137 140 144 146 150 155 148 111 96 155 174 176 180 185 187 128 101 104 157 202 216 223 217 116 108 111 117 170 255 255 205 138 183 126 132 244 255 250 180 173 172 81 163 254 255 169 158 153 121 176 255 242 135 126 131 129 175 242 214 128 124 138 180 227 219 216 211 182 161 157 170
93 89 77 71 79 117 126 129 133 135 138 141 146 146 125 91 96 96 97 159 177 180 185 164 95 131 70 112 119 197 224 219 124 109 129 130 157 255 255 192 94 153 194 96 188 255 219 161 175 129 129 234 255 255 192 160 93 91 185 255 255 215 108 122 193 248 251 231 186 163 152 220 227 221 215 207 173 160 153 166
91 90 83 72 73 106 124 128 131 135 137 139 145 111 74 109 127 117 89 111 164 178 181 115 97 124 146 104 113 211 224 225 124 137 175 137 167 255 255 251 145 177 173 171 237 255 251 212 147 108 211 255 255 255 217 156 200 238 254 255 255 255 212 203 254 251 248 248 245 240 233 230 226 223 217 203 164 160 153 164
90 90 87 74 70 94 122 125 129 131 135 138 143 132 95 116 124 127 124 89 133 179 175 124 97 103 141 124 171 220 225 231 143 119 123 143 198 255 255 255 230 172 220 255 255 255 255 255 252 225 253 255 255 255 255 255 255 255 255 255 255 255 255 255 254 252 248 247 238 219 235 232 226 223 219 191 160 157 148 160
89 88 89 78 70 82 116 123 126 129 134 136 140 145 136 104 112 88 89 131 168 176 181 184 172 144 122 135 210 218 225 230 229 230 241 251 255 255 255 255 255 255 255 255 255 255 255 255 255 255 255 255 255 255 255 254 243 251 255 255 255 234 172 221 255 248 245 210 138 139 222 232 228 223 216 177 158 154 146 156
89 87 89 83 71 74 107 121 123 128 132 135 138 143 148 136 102 114 151 168 171 176 180 185 192 198 194 202 213 217 224 231 239 245 251 254 255 255 255 255 253 227 251 255 255 255 255 248 218 196 227 255 255 237 207 170 105 212 255 255 227 172 155 130 221 243 175 108 104 130 196 232 226 222 208 164 154 149 142 152
88 85 87 87 75 70 96 119 121 125 128 131 137 140 143 147 147 155 162 165 169 174 179 184 189 196 201 194 210 217 223 232 242 237 186 177 253 255 255 255 203 122 177 204 248 255 220 136 137 151 185 255 255 187 153 188 124 189 255 229 112 161 161 128 173 242 162 114 174 165 191 225 221 218 194 157 150 144 138 147
87 84 86 87 79 70 84 113 119 122 125 130 134 137 141 145 151 155 157 161 166 170 176 182 188 179 126 99 179 217 223 231 204 141 128 164 196 255 255 243 147 153 169 133 220 255 216 112 191 178 153 253 255 209 160 198 167 182 255 244 151 119 120 184 229 233 204 109 149 200 217 217 215 212 177 151 146 140 133 141
86 83 85 86 84 72 75 106 116 119 123 126 130 134 138 133 114 107 106 94 119 166 174 176 143 95 101 103 102 193 223 217 136 144 175 168 103 228 255 198 169 190 183 182 252 255 243 136 190 192 182 253 255 231 134 160 195 231 251 246 232 152 172 227 226 222 216 195 212 214 211 209 208 201 160 146 141 135 129 136
84 83 83 85 84 75 70 96 112 116 119 123 127 130 135 112 74 74 72 54 86 159 171 163 104 121 146 154 106 131 216 227 189 146 121 149 168 239 255 243 210 160 124 236 255 255 255 206 217 243 255 255 255 254 243 252 255 249 243 236 234 229 224 219 215 213 208 200 193 201 201 198 197 180 147 140 135 130 125 132
83 82 82 84 85 80 69 84 109 113 114 119 123 125 130 119 87 85 72 76 91 146 164 169 150 103 143 130 118 174 214 222 226 166 131 200 255 255 255 255 255 249 236 255 255 255 255 255 255 255 255 255 255 255 255 249 243 238 233 219 181 181 193 203 202 175 146 116 132 189 187 185 183 160 139 136 130 125 119 126
82 81 82 82 83 83 72 75 101 109 111 115 118 121 125 123 80 67 75 82 79 138 158 163 169 146 114 138 185 200 207 214 222 228 234 255 255 255 255 255 255 255 255 255 255 255 245 224 218 214 239 254 249 199 176 155 163 225 222 186 147 127 117 169 191 118 117 125 130 177 174 173 166 144 133 130 124 119 114 120
80 80 81 82 82 83 77 70 92 104 107 110 113 117 120 122 100 93 106 114 126 145 153 157 163 167 166 181 187 193 201 208 217 227 235 238 244 255 255 255 209 178 179 199 242 251 199 149 147 154 196 243 233 161 176 146 148 214 205 142 136 102 118 176 181 118 97 120 136 165 162 159 150 131 125 121 117 112 108 115
79 79 80 80 81 81 80 70 82 100 103 107 109 112 115 119 123 126 129 136 139 141 146 151 156 162 151 152 172 185 191 199 198 144 140 123 148 247 255 251 169 153 127 128 224 238 177 125 146 135 187 230 218 163 170 169 170 211 195 127 124 108 141 172 169 132 121 146 154 152 148 147 133 121 117 113 110 107 103 109
78 77 79 79 81 81 81 74 75 95 100 102 105 107 109 112 116 120 118 109 125 134 140 144 148 145 100 96 118 134 170 189 179 110 132 92 136 236 255 233 164 129 147 162 224 222 166 117 97 109 180 212 208 175 182 190 193 202 193 181 166 154 160 160 155 152 152 146 143 138 134 130 120 115 112 108 105 103 99 102
77 76 78 78 80 80 80 78 71 87 96 98 100 103 106 108 112 112 77 65 90 111 128 135 141 108 72 91 99 77 151 180 172 113 125 127 138 225 248 229 182 146 132 178 215 206 188 169 172 176 187 192 195 197 196 197 194 188 181 172 164 157 151 146 141 138 135 132 128 125 121 117 113 110 107 105 101 99 94 99
76 74 76 77 79 79 79 78 71 80 91 94 97 99 102 105 104 83 72 66 74 78 99 129 125 89 89 100 76 107 161 167 167 114 129 156 177 221 232 233 229 218 201 201 199 192 189 182 181 178 175 174 175 177 176 176 174 170 164 156 149 141 137 133 129 125 122 119 118 115 112 110 108 105 104 101 98 94 90 96
76 74 75 76 77 79 79 79 75 73 88 91 93 95 98 101 92 73 70 77 77 77 108 124 122 112 107 90 87 138 152 158 162 166 178 188 204 213 219 222 220 211 201 192 183 176 171 167 163 161 158 157 158 158 157 160 157 155 148 143 136 130 125 121 119 117 115 114 112 110 109 107 105 102 100 98 95 91 88 92
74 73 74 75 76 77 78 78 77 71 82 89 90 92 94 97 99 93 78 67 73 100 116 119 122 125 128 125 127 138 144 147 154 161 168 177 186 196 203 205 201 194 183 175 165 160 156 151 147 144 142 140 139 139 138 136 133 130 126 123 121 118 117 116 115 115 112 111 110 108 106 105 103 100 98 95 91 88 85 89
73 72 74 74 75 76 77 77 77 71 76 85 87 89 91 94 95 98 99 91 95 108 110 113 116 118 121 123 126 129 133 136 142 146 152 159 168 176 181 182 178 170 161 154 146 143 140 138 133 131 129 128 127 126 124 123 121 121 120 118 119 117 116 115 113 112 110 109 107 106 104 102 100 98 95 92 88 85 82 87
72 71 72 73 73 75 75 76 77 73 72 82 84 86 88 90 92 94 96 98 101 102 104 106 109 110 112 115 117 120 123 125 128 131 135 140 144 148 147 144 141 138 135 132 131 131 132 131 129 128 125 125 125 122 121 120 119 118 118 115 116 115 112 112 110 110 108 108 106 105 103 101 98 96 92 89 86 83 81 85
71 70 71 72 72 74 75 76 76 75 71 78 82 83 85 86 88 90 92 93 95 96 99 101 104 105 107 109 109 111 113 115 115 116 119 121 122 124 124 125 127 128 128 128 128 128 126 127 126 125 122 121 120 120 119 118 117 116 115 115 113 113 111 110 109 109 109 107 104 103 100 98 96 93 91 87 84 82 80 83
70 69 70 71 71 72 73 74 75 75 72 74 79 80 81 83 84 86 88 89 91 92 94 97 100 101 102 101 103 106 107 107 111 111 115 117 118 121 123 123 125 126 127 125 125 126 125 124 123 122 120 119 118 116 115 115 114 113 113 113 111 111 111 110 109 107 107 104 103 102 100 98 95 92 90 86 83 81 78 81
69 68 68 70 70 71 72 73 74 75 74 74 76 78 79 80 80 82 84 85 87 91 94 94 97 100 101 101 101 103 104 105 109 110 112 114 116 118 120 121 122 123 124 124 123 123 123 122 121 121 117 117 116 115 114 113 112 111 112 111 110 109 110 108 108 106 105 104 104 101 99 96 93 89 87 84 81 79 76 79
67 66 67 68 69 70 71 72 73 74 74 74 74 75 77 78 79 80 82 84 88 92 93 94 96 98 100 101 100 100 102 103 105 107 109 111 114 115 117 119 121 121 122 123 123 122 121 121 120 118 116 114 115 113 111 111 111 110 110 109 108 107 108 107 108 106 105 104 101 99 96 92 88 86 83 80 78 77 74 77
66 65 66 67 68 69 69 70 71 72 73 74 74 75 76 77 79 79 81 85 88 90 91 93 94 96 97 99 98 97 99 101 102 104 106 109 111 114 117 119 121 122 122 122 121 120 119 118 118 116 114 113 111 111 109 109 109 108 108 108 108 107 107 107 106 104 102 100 96 93 90 88 85 82 80 77 76 75 73 76
65 63 65 66 67 67 68 69 71 71 72 72 73 73 75 76 77 78 80 83 85 87 89 89 91 94 94 97 96 96 96 99 100 103 105 109 111 113 114 117 119 119 119 119 119 119 118 117 117 115 112 112 109 109 108 107 107 107 106 106 107 106 105 103 100 99 96 94 91 88 86 83 81 79 77 75 74 73 71 73
63 63 63 64 66 66 66 67 69 70 70 71 72 72 73 75 75 77 79 81 83 84 85 87 88 91 92 94 93 93 94 97 99 100 104 106 109 110 111 114 116 117 118 119 119 119 118 118 116 114 112 111 109 107 107 106 105 105 105 104 102 101 99 97 96 93 92 89 86 84 82 80 78 77 75 73 72 70 68 70
62 62 63 63 64 64 65 66 67 68 69 70 70 71 72 73 73 74 77 80 81 82 83 85 87 87 89 92 91 91 93 95 96 99 101 104 106 109 112 113 116 117 118 119 119 118 117 115 114 111 110 108 105 105 104 103 102 102 101 99 97 97 95 92 91 89 87 85 82 81 79 77 76 74 72 70 68 66 66 71
62 61 62 62 63 64 64 65 66 67 68 68 68 69 70 71 72 74 76 78 79 80 82 83 84 85 88 89 89 90 91 93 95 98 101 103 106 108 112 112 114 115 114 115 114 113 113 111 109 106 105 102 101 100 100 99 98 98 97 95 94 92 89 88 87 85 84 82 80 79 78 76 73 69 67 66 67 67 68 73
61 61 62 62 62 63 63 65 65 66 67 68 68 68 69 70 71 72 75 78 79 80 82 83 84 85 87 87 86 88 89 91 94 96 99 101 103 105 106 106 107 108 108 109 108 107 107 107 105 102 100 97 97 96 97 94 94 93 92 91 91 89 87 86 84 84 82 80 79 76 73 71 69 68 67 68 69 67 68 73
62 60 61 61 62 63 63 64 65 65 65 67 66 68 68 69 70 71 74 76 77 79 80 82 83 85 85 84 85 86 88 90 93 93 95 96 97 99 99 100 101 101 102 102 102 103 105 103 101 98 96 94 94 92 91 91 91 89 88 88 88 87 86 85 84 81 79 77 74 71 69 70 70 70 69 69 69 69 69 74
61 60 61 61 61 61 63 63 63 64 65 65 66 66 67 68 69 71 72 74 76 77 78 81 82 82 82 82 82 84 86 87 88 89 91 91 93 93 93 95 95 95 96 96 98 99 101 99 97 95 93 91 90 89 88 88 87 87 86 85 84 84 83 81 79 75 74 73 72 71 71 71 71 71 70 70 70 70 69 75
60 59 59 60 60 61 61 62 62 63 64 64 65 65 66 67 68 69 70 72 75 76 77 78 79 79 79 79 79 81 82 82 84 85 87 87 87 89 89 90 90 91 92 95 96 96 97 97 95 92 90 89 87 87 86 86 85 84 83 81 79 77 76 75 75 75 75 75 75 74 73 73 74 73 73 72 71 71 71 76
60 59 59 59 60 60 61 61 62 62 62 63 63 64 64 66 66 67 69 70 72 73 74 75 75 76 76 76 77 78 79 80 80 81 82 83 84 85 85 86 87 88 90 93 95 95 97 97 96 92 90 87 86 86 83 82 80 78 76 74 74 74 75 76 77 77 77 78 78 76 76 76 77 77 75 75 75 73 73 78
58 58 58 59 59 59 60 61 61 61 61 61 62 63 64 64 65 66 66 68 69 70 71 71 72 72 73 73 74 75 76 77 77 78 78 79 80 81 82 83 84 86 89 90 94 97 98 98 96 91 86 82 80 77 75 74 74 73 73 74 74 75 75 76 77 79 78 80 80 81 80 80 79 79 78 78 77 76 75 79
59 58 59 59 60 60 60 60 61 61 61 62 63 64 64 65 66 66 67 68 69 69 70 71 71 72 73 73 74 75 76 75 77 78 78 79 81 81 82 84 85 87 88 90 94 99 111 107 96 86 82 80 79 78 77 78 77 76 77 77 77 77 77 79 80 82 82 85 89 91 89 90 88 88 87 87 86 84 81 96
