P2
80 80
255
114 110 108 110 112 114 115 117 119 120 121 124 125 127 129 131 132 133 137 138 139 142 142 145 145 147 149 150 153 154 157 156 159 160 162 163 164 166 167 168 169 171 172 172 173 175 176 175 174 176 174 172 170 168 166 166 167 168 166 165 165 163 160 159 157 157 156 156 154 152 150 149 147 146 144 144 143 143 141 151
100 99 102 102 105 106 108 109 111 113 114 116 117 118 120 122 122 124 126 128 130 131 133 135 136 138 140 142 142 145 145 147 149 148 149 151 151 152 154 155 157 159 158 159 160 163 164 164 163 163 163 163 161 160 159 157 157 155 153 153 153 151 150 149 146 146 144 143 142 141 139 139 137 136 135 135 134 132 130 143
101 99 102 103 104 105 108 109 111 112 112 113 115 115 117 118 118 120 121 123 126 128 130 131 133 134 137 137 138 142 145 146 149 151 152 153 154 157 159 158 159 161 162 163 165 165 167 166 166 166 165 167 166 165 163 164 163 161 159 158 157 156 155 153 149 149 147 146 145 145 143 142 139 137 139 138 138 137 133 145
100 99 101 101 102 102 104 106 107 109 110 110 112 114 115 115 117 119 120 123 123 126 126 127 129 130 131 131 133 134 136 137 138 140 140 142 145 147 152 153 155 158 161 162 164 166 167 168 167 166 167 166 166 166 165 163 163 163 164 162 161 160 159 157 154 152 149 148 147 146 145 144 144 141 139 139 138 138 136 148
95 97 98 100 102 104 105 107 108 111 112 113 116 117 118 119 120 123 124 125 126 128 130 131 132 133 134 135 136 137 138 138 137 137 138 139 140 141 142 142 144 146 146 148 149 153 154 157 159 162 163 164 166 166 165 165 165 165 165 164 164 163 162 160 158 156 154 152 150 149 149 149 146 143 140 139 137 139 138 151
91 99 100 102 104 106 108 110 112 114 116 118 119 121 122 123 125 127 128 128 130 130 132 135 134 135 137 138 138 139 141 141 142 143 142 143 145 145 145 146 147 147 147 148 147 148 146 146 142 143 143 144 147 151 155 160 164 166 167 165 165 164 163 160 160 159 156 155 153 153 153 151 148 146 143 141 139 139 139 152
94 100 103 105 108 109 111 112 114 116 117 119 120 122 123 125 126 127 130 131 132 133 134 136 137 137 138 139 140 141 143 142 143 145 144 145 147 147 148 149 149 151 151 152 152 153 151 150 148 146 145 142 141 142 143 144 144 148 152 157 159 160 159 160 160 159 159 157 156 156 156 153 151 150 147 144 144 143 139 154
98 102 105 107 108 111 112 114 115 117 118 120 121 123 125 126 126 129 131 131 133 134 136 137 139 138 140 141 142 143 144 144 145 146 148 148 147 149 150 150 153 154 154 155 154 154 153 152 150 148 147 146 146 146 147 148 149 148 147 147 143 142 141 145 150 154 157 158 158 157 158 158 155 152 152 148 146 145 143 156
100 104 107 107 109 111 112 115 117 118 120 122 123 124 126 127 129 130 132 133 135 136 137 139 139 140 141 143 144 145 146 146 146 148 150 150 149 151 153 154 155 156 157 157 157 157 155 154 152 149 147 146 147 148 149 150 151 150 150 148 146 144 142 140 140 140 141 144 149 154 158 159 158 155 155 153 151 148 146 159
101 105 107 108 110 112 113 116 117 119 120 122 124 126 128 129 130 132 133 135 136 137 139 139 141 142 144 146 145 146 147 148 148 149 150 151 152 154 155 156 158 159 160 160 160 158 158 155 154 152 151 148 148 148 152 152 151 151 150 148 147 145 144 144 144 143 143 142 140 143 143 148 153 156 157 155 154 151 147 162
104 105 108 110 111 113 114 117 119 119 121 123 125 127 127 130 130 133 135 136 135 135 139 142 142 144 145 146 147 148 149 149 151 150 151 154 154 157 159 161 162 162 162 163 163 161 160 159 156 155 153 152 152 152 155 155 153 152 152 150 150 149 146 147 145 145 144 146 145 145 145 142 141 143 146 149 150 151 148 163
105 106 108 111 112 114 116 118 119 112 110 110 111 112 115 127 132 134 137 135 117 112 123 132 141 145 146 147 149 149 152 151 152 154 153 151 154 158 160 160 162 163 163 164 165 163 162 162 159 159 157 156 156 156 157 157 155 154 154 152 152 150 149 148 147 147 146 147 148 147 147 145 143 143 140 138 139 140 143 162
106 108 109 111 114 116 116 119 110 92 95 91 100 101 105 128 134 136 138 121 89 104 112 114 118 130 141 150 150 152 151 144 134 121 112 128 154 159 160 161 162 157 153 163 167 167 164 164 163 162 161 162 162 161 160 158 156 156 156 155 154 153 153 150 149 150 150 150 152 149 148 146 145 145 142 141 139 136 134 149
107 108 111 111 114 115 117 118 97 85 82 90 102 86 102 129 134 137 137 106 87 105 109 95 95 107 134 151 152 144 111 92 89 86 90 125 153 162 163 165 154 112 104 123 147 164 168 168 167 166 165 165 152 137 148 160 159 157 158 157 158 156 155 152 151 152 152 153 152 151 150 148 147 144 143 141 140 140 136 147
107 108 110 112 115 117 119 116 94 80 79 98 87 72 100 129 136 137 136 99 91 102 85 77 84 94 141 153 152 121 88 90 90 84 102 123 150 163 164 167 141 100 91 89 92 112 146 168 170 171 164 129 92 90 129 159 161 160 159 141 133 146 156 155 154 155 154 154 154 154 151 149 148 146 145 143 141 140 137 150
108 109 112 113 115 118 119 119 95 76 85 83 75 71 100 130 136 138 135 90 88 77 70 92 81 102 148 153 154 129 104 77 67 103 114 104 146 165 165 166 129 105 110 108 71 68 131 170 171 147 96 79 87 76 110 154 164 162 157 117 86 87 116 145 157 158 156 153 149 143 149 152 150 149 147 145 144 141 138 151
109 110 112 114 117 119 121 121 94 77 69 71 74 83 100 129 139 141 131 92 91 70 79 90 68 110 153 154 156 142 100 70 79 115 94 86 141 167 169 164 118 120 136 119 76 82 152 176 164 103 77 118 117 77 91 148 165 164 147 108 109 89 65 97 145 157 136 115 99 87 117 147 151 149 145 136 141 142 139 152
108 111 113 114 117 119 121 123 100 75 67 76 81 83 95 131 141 141 128 100 97 71 87 81 63 123 155 157 159 152 111 92 96 131 92 88 134 167 172 157 106 113 119 105 70 102 168 179 173 125 111 119 93 91 93 135 165 166 129 86 91 95 82 105 147 160 122 94 82 65 94 142 152 140 120 109 121 140 141 153
108 111 114 116 118 120 122 123 107 86 91 95 102 98 115 138 140 143 135 119 114 101 104 77 73 137 158 159 161 161 127 91 103 97 74 84 139 171 176 145 83 96 113 98 68 129 178 179 180 148 109 141 119 79 70 126 167 161 106 83 90 101 107 135 163 163 127 95 106 98 102 143 145 118 108 84 97 136 143 156
109 112 115 117 119 121 122 125 117 109 112 114 117 119 130 139 142 144 145 144 139 133 126 108 114 153 159 161 162 165 142 90 96 104 121 144 168 175 176 161 130 117 102 66 73 156 183 182 184 170 120 121 101 94 135 168 175 157 97 90 105 98 110 152 169 166 129 101 93 87 103 147 150 107 106 90 80 127 144 157
108 112 116 117 119 121 124 125 127 129 130 132 135 136 138 140 142 146 147 150 152 153 152 148 148 159 161 164 164 166 160 141 151 164 171 173 175 178 178 181 180 170 151 121 128 179 186 187 188 185 130 80 119 167 184 183 180 175 160 127 94 78 121 167 172 170 132 87 78 76 102 148 156 116 88 94 81 119 145 159
107 111 116 118 120 122 124 126 128 130 132 134 135 138 140 143 144 146 148 150 152 154 157 159 160 162 164 166 167 168 170 170 174 174 175 176 178 180 182 185 186 187 188 185 186 191 191 191 191 189 172 166 187 190 187 186 184 184 183 181 171 149 160 174 175 173 150 119 122 133 145 158 161 128 76 91 112 128 145 160
106 113 117 118 120 122 125 127 129 131 132 116 119 134 141 144 146 148 149 151 153 153 146 155 162 164 165 168 169 170 171 172 175 177 178 180 181 183 184 187 188 189 190 192 193 192 193 193 192 191 192 194 192 191 190 190 188 189 187 184 185 184 183 180 177 176 174 170 168 169 167 166 164 149 115 120 139 149 150 163
103 113 117 119 121 124 127 128 131 134 122 86 94 113 129 142 146 149 151 152 156 138 112 134 153 166 169 169 171 173 174 176 179 179 175 177 185 187 189 190 192 193 193 195 195 196 197 196 195 196 196 196 196 195 193 193 191 191 190 189 188 185 184 183 180 178 178 177 173 171 169 168 165 163 156 153 156 154 150 164
100 113 117 119 122 124 126 128 131 134 99 59 69 84 103 122 139 150 153 154 155 104 98 119 125 146 166 172 173 176 172 163 148 133 112 151 189 190 192 192 182 176 180 182 185 196 198 198 198 191 188 189 188 191 196 197 195 195 192 163 140 181 187 185 185 181 155 159 178 174 172 170 168 159 158 161 158 155 152 166
98 113 118 120 123 125 126 129 131 127 79 70 73 66 84 108 121 149 154 157 141 84 114 112 81 99 133 165 176 174 130 96 95 111 71 123 189 193 196 186 115 109 99 98 114 186 204 204 181 102 100 100 100 139 196 200 199 182 140 126 109 161 192 187 188 169 105 87 150 177 173 174 163 131 124 160 160 157 154 169
93 112 118 121 123 125 127 130 133 112 72 84 89 83 96 83 109 152 155 158 114 92 123 111 79 74 84 157 179 178 108 95 137 138 84 115 185 197 199 181 122 163 118 101 118 190 206 207 163 104 119 140 135 142 201 204 165 105 111 130 124 143 193 192 183 121 120 109 88 146 177 169 126 96 89 142 164 161 155 171
88 110 119 121 123 125 128 130 133 103 76 85 97 110 116 82 122 152 157 154 92 105 148 113 110 89 86 168 181 183 138 104 128 125 148 111 176 200 203 183 115 150 152 89 102 200 210 211 158 93 101 148 101 154 208 208 143 84 114 92 105 122 189 195 146 84 127 120 77 129 176 133 107 95 95 108 163 163 159 173
83 107 118 122 123 126 128 130 132 111 93 88 90 98 97 87 142 153 158 154 108 103 133 109 117 90 128 180 181 185 166 104 105 135 153 71 156 203 206 186 82 129 167 115 104 207 214 214 152 144 121 85 93 174 212 212 176 79 118 98 86 109 188 190 103 90 110 96 113 167 180 125 113 135 105 112 162 166 161 173
81 103 119 121 124 126 128 131 133 130 119 108 96 88 84 112 151 155 159 160 152 132 114 102 111 93 163 183 184 187 184 122 124 112 100 80 160 207 210 187 102 117 127 106 126 214 219 217 140 145 145 118 96 193 217 215 202 115 121 118 136 185 201 199 166 100 62 84 163 186 187 161 103 115 126 151 168 167 162 173
78 98 118 121 123 126 130 131 134 136 139 136 123 102 94 135 153 157 160 163 166 167 154 131 113 129 180 183 186 188 191 149 119 131 155 180 201 209 213 202 150 144 139 142 178 223 222 222 179 155 162 162 176 216 221 219 216 152 118 182 210 212 209 206 204 180 115 145 191 192 190 185 133 124 161 175 173 169 164 172
77 92 116 121 124 126 129 132 135 136 139 143 145 141 135 147 155 158 161 164 167 170 175 173 158 168 184 186 189 191 195 189 184 198 206 208 209 211 216 218 220 223 224 225 226 225 227 227 228 228 228 228 228 226 225 222 219 213 214 218 216 215 213 209 207 205 197 196 198 196 192 190 178 170 180 178 175 171 168 171
77 86 115 122 124 127 129 132 135 138 140 142 146 147 142 151 158 160 163 166 169 171 174 177 181 183 187 188 191 193 198 199 203 205 208 211 213 215 219 221 225 228 228 228 229 230 231 232 230 230 232 233 230 229 229 227 226 224 225 223 219 217 216 214 212 210 206 204 201 199 195 194 192 189 184 181 177 174 169 170
76 80 111 122 124 128 130 133 135 139 140 144 144 128 116 141 157 161 165 167 170 173 177 176 175 168 178 192 194 196 199 203 206 200 188 212 217 221 224 226 226 203 227 233 233 237 235 238 240 237 223 213 233 233 235 231 220 213 209 209 221 223 222 208 154 170 193 204 204 202 178 160 157 163 185 184 180 177 167 169
76 76 106 122 124 127 131 132 136 138 141 143 129 99 75 106 141 159 166 169 171 164 152 140 121 113 134 192 196 199 203 202 180 130 101 192 225 225 228 234 190 83 137 213 242 242 241 226 191 159 119 134 232 241 242 195 113 108 124 136 210 229 225 162 104 148 118 162 209 200 139 99 92 120 187 186 183 179 167 168
76 74 98 122 125 129 131 133 137 139 141 133 110 82 70 75 101 138 162 170 174 140 94 95 89 97 87 178 198 203 192 148 86 116 134 126 223 231 232 227 140 119 124 109 171 244 248 158 143 148 117 109 230 245 246 174 137 120 107 138 223 233 216 123 137 186 117 171 215 192 121 92 110 144 193 190 187 183 165 170
77 73 89 120 125 128 131 134 137 140 139 112 92 84 90 93 88 86 138 170 175 150 88 105 111 103 63 146 203 206 177 109 135 137 138 75 177 235 238 177 132 172 164 98 132 248 254 174 128 118 146 117 224 252 246 160 135 154 115 148 237 238 171 95 135 172 143 212 218 176 113 86 91 166 198 192 190 185 161 172
78 73 82 115 124 128 130 133 136 139 140 110 89 86 111 115 98 74 118 168 176 174 117 117 121 107 88 115 195 206 207 141 135 123 86 86 126 233 236 142 127 227 209 105 220 254 255 203 132 116 131 120 221 255 242 131 108 135 134 189 245 239 165 109 113 135 183 226 220 167 124 108 114 190 200 196 193 182 159 173
80 73 76 108 125 128 130 134 137 140 142 136 109 85 111 103 94 101 149 170 175 180 150 84 133 142 104 118 187 209 214 201 93 77 91 143 206 238 243 226 169 165 169 182 254 254 255 227 106 120 169 219 251 255 248 193 183 184 194 234 248 245 238 222 195 185 225 228 224 210 198 197 198 205 202 198 195 179 156 175
83 73 73 98 123 127 131 133 137 140 142 145 145 126 109 97 103 144 168 172 175 179 178 115 113 145 160 183 202 209 213 221 179 119 184 228 241 244 247 250 254 221 183 244 255 255 255 252 238 254 255 255 255 255 255 255 255 255 255 254 251 249 246 247 244 239 235 232 227 228 224 219 213 209 204 200 196 173 157 174
87 74 72 88 120 126 128 132 136 139 141 146 148 151 140 120 139 164 169 172 175 178 183 177 178 192 200 205 208 210 216 220 223 220 234 238 241 246 251 252 253 255 255 255 255 255 255 255 255 255 255 255 255 255 255 255 255 255 255 254 253 253 250 211 222 243 239 236 226 192 199 212 215 213 208 203 195 167 158 173
91 76 72 79 114 125 128 132 136 139 140 144 148 151 154 157 160 165 169 171 176 180 183 188 190 195 200 204 209 212 219 223 230 233 237 243 246 250 253 255 255 243 222 255 255 255 255 255 197 218 255 255 255 255 251 224 188 160 234 255 255 252 188 116 147 231 242 240 188 145 146 133 203 217 212 207 192 163 158 172
95 80 72 73 105 126 128 131 134 138 141 144 147 150 154 149 137 149 168 171 176 182 185 183 151 148 186 205 213 215 220 214 185 184 182 184 230 254 254 253 221 165 105 221 255 255 255 205 123 108 153 232 255 245 166 137 134 124 219 255 247 190 136 94 114 180 243 232 144 145 116 126 216 219 213 209 184 161 159 171
94 85 73 70 95 124 127 130 134 137 140 144 146 146 138 124 102 95 149 171 177 181 186 167 118 101 93 148 191 216 224 198 107 101 117 114 193 255 252 178 139 178 124 146 251 255 241 171 186 146 90 192 255 246 156 161 149 123 206 255 220 129 131 126 133 189 245 196 124 128 133 191 225 219 215 207 174 161 158 169
93 89 76 70 84 119 125 129 133 135 138 141 141 122 109 101 110 94 96 156 178 181 179 134 102 127 87 112 129 207 226 204 117 123 149 121 187 255 254 175 96 175 178 100 215 255 201 164 162 126 148 247 255 253 182 152 85 103 213 255 251 179 106 135 200 249 247 207 165 152 162 226 225 221 216 203 168 161 155 166
91 90 81 71 76 110 124 128 130 134 136 141 143 105 84 116 126 123 95 110 165 179 167 103 100 130 144 99 147 215 226 212 108 140 154 134 192 255 255 244 145 181 170 195 246 255 248 203 136 126 233 255 255 255 195 161 207 241 255 255 255 249 187 214 255 253 248 245 239 227 228 231 226 222 216 193 163 159 151 164
91 89 85 73 71 100 121 125 128 133 136 139 143 134 99 116 116 114 113 107 150 179 175 135 108 105 135 133 192 220 226 224 147 141 144 165 220 255 255 255 222 188 238 255 255 255 255 255 248 233 255 255 255 255 255 255 255 255 255 255 255 255 255 255 254 252 248 246 237 227 235 233 227 222 217 181 159 156 150 160
89 88 88 77 70 87 118 123 126 130 133 136 140 145 135 106 107 99 115 147 170 178 181 184 177 154 134 161 215 220 226 232 233 237 248 255 255 255 255 255 255 255 255 255 255 255 255 255 255 255 255 255 255 255 255 253 244 253 255 255 255 222 186 238 255 250 244 205 144 167 230 233 228 222 211 170 158 153 146 155
87 86 89 81 70 77 111 121 124 128 131 135 138 142 146 135 116 132 157 167 171 176 180 186 191 198 199 206 214 219 225 232 241 247 244 253 255 255 255 255 241 221 252 255 255 255 255 239 212 195 241 255 255 229 203 152 126 236 255 254 215 166 147 160 235 237 164 103 109 149 214 231 227 222 198 161 154 149 142 151
87 85 87 85 73 71 101 118 122 126 128 132 136 141 143 148 150 156 162 165 169 174 180 185 190 192 180 185 212 216 224 234 237 214 167 186 255 255 255 254 175 136 176 209 252 255 202 128 145 148 213 255 254 170 167 169 131 218 255 202 119 169 151 129 203 228 134 131 172 164 208 225 221 217 184 157 151 144 137 147
86 84 86 86 77 70 90 114 119 122 126 129 133 138 141 140 143 145 146 151 163 171 177 180 175 152 111 102 185 218 224 219 179 134 146 155 208 255 255 225 147 158 167 147 240 255 191 130 196 165 183 255 255 190 173 191 164 207 255 220 139 121 133 194 230 230 172 116 161 205 219 217 215 206 167 151 145 139 133 141
85 83 84 85 82 71 79 108 116 119 122 126 130 134 136 117 101 97 94 85 127 168 173 161 125 104 109 101 108 200 225 205 138 150 174 151 124 242 255 186 178 183 182 204 255 255 224 146 195 187 204 255 255 209 137 170 203 238 250 246 210 145 190 228 226 223 206 194 214 214 211 209 207 192 154 146 140 134 129 137
85 83 83 84 84 74 72 100 112 115 119 122 127 130 133 103 80 74 71 59 102 162 170 157 104 126 151 146 105 151 219 226 181 136 122 161 193 247 255 242 208 149 153 248 255 255 250 210 227 249 255 255 255 253 245 254 255 248 243 236 233 227 225 220 216 214 209 199 197 204 201 199 196 172 147 141 134 130 125 132
83 83 82 82 84 78 70 89 109 112 116 118 123 126 130 110 84 80 74 78 99 151 163 169 146 108 140 127 138 186 214 223 224 163 154 220 255 255 255 255 255 250 244 255 255 255 255 255 255 255 255 255 255 255 255 248 242 237 232 212 182 186 196 206 200 171 144 118 153 191 187 186 181 154 140 135 131 125 120 125
82 80 82 82 83 82 71 79 104 108 111 114 118 121 125 117 78 73 82 86 94 144 158 163 168 143 124 153 189 200 207 215 224 230 240 255 255 255 255 255 254 255 255 255 255 254 238 218 212 215 244 254 239 191 171 152 180 226 218 173 144 124 130 182 177 112 122 121 146 178 174 173 162 141 133 130 124 120 115 120
81 80 81 82 82 82 75 73 95 105 106 110 113 116 119 121 103 102 114 121 131 147 152 157 162 166 168 181 187 193 200 209 215 223 228 231 245 255 255 252 197 169 173 205 245 245 181 148 149 158 212 242 218 162 172 142 168 215 193 138 129 103 134 180 166 109 103 123 146 166 162 158 146 130 125 121 116 112 108 114
79 79 80 81 81 81 79 71 86 100 103 106 109 112 115 118 122 126 129 134 138 141 146 150 156 155 141 150 170 183 192 201 181 136 132 118 166 251 255 237 163 150 126 148 230 230 158 126 142 140 201 229 206 161 173 165 183 210 179 125 120 113 153 172 161 123 127 149 155 153 149 144 131 121 117 113 110 107 103 109
78 77 79 80 81 80 80 72 77 95 98 102 106 107 110 113 117 118 108 105 125 135 139 144 147 130 97 99 114 133 175 191 164 116 124 98 156 243 254 218 152 131 145 178 224 217 153 116 98 124 191 213 202 176 186 190 198 200 191 178 163 155 161 158 155 153 151 147 143 139 134 129 119 115 111 108 105 103 99 103
77 76 78 79 79 80 81 75 73 90 96 97 101 103 106 109 110 102 72 68 89 110 129 136 135 98 76 94 92 92 160 181 160 110 130 127 157 231 246 222 179 149 139 190 211 204 186 174 176 178 190 193 195 198 197 197 193 187 179 170 163 156 150 145 141 138 135 132 127 125 121 116 112 109 107 105 101 98 94 100
76 75 76 78 79 80 79 77 71 82 92 95 97 99 102 104 98 81 71 67 76 79 107 131 118 89 90 95 81 120 162 169 162 118 139 164 187 223 234 234 229 218 203 201 197 192 187 183 180 177 174 174 176 177 177 177 174 169 163 155 147 142 137 133 128 125 123 121 117 115 112 110 108 106 104 101 98 95 91 96
76 73 75 77 77 78 79 78 73 76 89 91 93 96 98 100 90 72 70 76 77 85 112 124 123 113 107 91 97 140 153 158 163 169 180 192 205 213 221 221 218 209 199 189 181 175 170 164 162 159 156 157 158 157 159 159 158 152 147 141 134 129 124 122 119 117 115 113 112 111 109 106 104 102 100 98 95 90 88 91
75 73 74 76 76 77 78 78 76 72 84 89 90 92 94 96 99 93 78 69 80 103 115 118 122 125 127 126 129 139 144 148 153 160 168 178 187 196 202 204 199 190 180 172 164 158 155 150 146 143 141 139 138 137 137 135 132 128 125 123 120 118 118 116 116 114 112 110 110 108 106 105 102 99 96 94 90 87 84 89
73 72 73 74 75 77 77 77 76 71 78 85 88 90 91 93 96 98 99 93 97 108 109 113 116 118 120 124 126 129 133 136 141 145 152 158 168 175 180 179 175 167 158 149 145 142 140 137 134 131 129 128 126 126 124 123 122 121 119 119 119 117 116 114 113 112 110 108 107 106 105 102 100 97 95 92 88 85 82 87
72 72 72 73 74 76 76 76 76 73 74 83 85 87 88 91 92 94 96 98 100 102 104 107 108 110 113 115 117 120 123 125 128 131 135 139 143 146 146 143 140 136 134 131 131 131 131 131 131 128 126 125 124 122 120 120 119 119 118 117 116 115 112 111 110 110 109 107 106 105 103 100 98 95 92 89 86 83 81 85
71 70 71 72 73 74 75 75 76 75 71 79 82 83 85 87 88 90 92 93 95 97 99 101 104 105 107 108 109 110 113 113 115 117 118 122 122 124 125 126 127 128 129 129 128 128 127 126 126 124 122 121 121 119 119 118 117 116 115 114 113 112 111 110 110 109 108 106 103 103 101 98 95 92 90 88 85 82 80 83
70 69 70 71 72 72 74 74 75 75 71 75 79 80 81 84 85 87 88 90 91 92 95 97 99 101 102 102 103 107 107 106 110 112 115 117 118 121 124 123 125 126 126 125 125 125 124 123 122 121 120 119 118 117 115 115 114 114 114 112 111 111 110 110 109 107 107 105 102 102 100 97 94 91 89 86 83 80 78 82
68 67 68 70 70 71 72 72 74 74 74 75 77 78 79 80 81 83 84 86 89 91 93 95 98 100 101 100 101 103 104 105 108 110 112 114 116 118 120 121 122 123 123 124 123 122 122 121 121 119 118 118 116 115 113 112 112 112 112 110 111 110 109 108 107 106 106 105 103 102 99 95 92 88 86 83 81 79 76 79
68 66 67 68 69 70 71 71 72 73 74 74 75 76 77 79 80 81 82 85 89 91 93 95 96 98 100 101 100 101 102 104 106 107 109 111 113 116 118 120 120 122 122 123 123 123 122 121 119 118 116 115 114 113 111 111 110 110 110 109 108 107 108 108 107 107 106 105 101 98 95 91 88 85 83 80 78 76 74 77
66 65 66 67 67 69 70 71 71 72 74 74 75 75 76 78 79 80 81 85 89 89 91 93 95 95 97 100 99 97 99 101 103 105 107 110 112 115 117 119 121 121 123 122 122 120 120 119 117 116 114 112 111 110 109 109 108 109 108 109 108 108 108 107 105 104 102 100 96 92 90 87 85 82 79 77 76 74 73 76
65 64 65 66 67 68 68 69 70 71 73 73 73 75 75 76 77 78 80 84 86 88 89 89 91 93 95 97 96 95 96 99 102 103 105 109 112 114 115 117 119 119 119 120 119 119 118 118 116 114 113 110 110 108 107 108 107 108 107 107 106 106 105 103 100 99 96 94 91 88 86 83 81 78 77 75 74 73 70 73
63 63 64 64 65 66 67 67 69 69 70 72 72 73 73 75 75 76 79 82 84 85 86 87 88 91 92 94 93 93 95 97 99 101 104 107 109 110 112 114 116 117 118 120 119 120 118 117 115 113 112 111 109 108 107 105 105 105 104 102 102 100 99 98 96 94 91 89 87 84 82 79 78 76 75 73 72 70 68 69
62 63 64 64 65 65 65 66 68 68 69 70 70 71 71 73 74 75 78 80 81 82 84 86 86 87 89 91 91 91 93 95 97 99 102 105 107 109 112 115 116 117 118 119 119 119 118 115 114 112 109 107 107 105 104 102 102 102 101 99 98 96 95 93 91 88 87 85 82 81 79 78 75 74 72 70 67 67 67 72
62 62 63 63 64 63 64 65 66 67 68 68 69 69 71 71 73 74 77 78 79 81 82 83 85 85 89 89 89 90 92 93 95 98 101 104 106 109 111 113 114 114 114 115 114 113 113 110 109 106 105 103 101 100 100 99 99 98 97 95 94 92 90 89 87 85 84 83 80 79 78 76 72 70 68 67 67 67 68 73
62 61 61 62 63 64 64 65 65 66 67 68 68 68 70 70 71 73 75 78 79 80 82 83 83 85 87 87 87 88 90 92 94 97 98 101 104 105 106 106 106 108 108 107 108 108 106 106 104 101 99 98 98 97 95 95 95 93 92 92 90 89 88 86 85 83 83 80 78 76 72 71 69 68 68 68 68 68 68 74
61 60 61 61 62 63 64 64 65 65 66 66 67 68 68 69 71 72 73 77 78 79 80 82 82 85 85 84 85 87 88 90 93 94 95 96 98 99 100 101 101 100 102 102 102 103 104 103 101 97 95 94 94 92 92 91 90 89 88 88 87 87 86 85 84 82 79 76 73 71 69 70 70 70 70 70 69 69 69 75
61 59 60 61 62 61 63 62 63 64 65 65 65 66 66 68 69 70 72 74 77 77 79 81 82 83 82 82 83 85 86 86 89 89 90 91 92 93 94 95 95 96 96 97 98 98 101 99 97 94 93 91 89 89 89 88 87 86 85 86 85 84 82 81 79 75 74 73 72 72 71 71 71 72 71 70 70 70 69 76
60 59 60 60 61 61 62 62 63 64 64 64 65 65 66 67 68 69 70 72 74 76 77 78 79 79 79 80 79 81 81 82 84 86 86 87 87 88 89 90 91 91 92 95 96 95 96 97 95 92 90 89 87 87 86 86 86 85 83 81 79 77 76 75 75 76 75 76 75 74 74 73 74 73 73 72 71 72 71 76
59 59 59 59 60 60 61 62 62 62 63 63 64 64 65 66 67 68 69 70 72 73 74 74 75 76 76 76 77 78 78 79 80 82 82 83 84 85 85 86 87 88 90 92 95 94 96 97 96 92 90 87 86 85 83 82 79 77 75 75 73 74 75 76 77 77 77 78 78 77 76 77 77 76 75 75 74 74 73 78
58 58 59 59 59 60 61 61 61 61 60 61 63 63 63 64 65 66 66 67 69 70 71 71 71 72 73 73 74 75 76 77 77 77 78 79 80 81 82 83 84 86 88 90 94 96 97 97 95 90 85 82 79 77 75 74 75 73 74 75 75 75 76 76 77 79 78 80 81 82 81 80 79 79 79 78 78 76 76 80
59 58 59 60 60 60 60 61 61 61 62 62 63 64 64 65 66 66 67 68 69 70 70 71 71 72 73 73 74 76 76 76 77 78 78 79 80 81 83 84 86 86 88 90 95 100 111 105 96 85 81 80 79 78 77 78 77 77 77 77 77 77 78 79 81 83 83 86 89 92 90 91 90 89 89 88 86 84 82 97
