P2
80 80
255
114 110 108 111 113 116 116 116 119 121 122 126 127 127 131 133 134 137 138 138 138 141 144 145 148 150 153 154 156 157 159 161 164 165 165 168 168 169 171 172 172 173 173 174 176 178 178 178 177 178 176 172 173 172 171 169 169 170 169 168 166 165 163 161 160 156 156 155 154 153 151 150 149 148 146 144 142 142 141 154
101 100 102 103 105 107 110 111 112 113 115 117 117 119 122 124 125 127 130 129 130 133 133 135 136 139 141 143 143 143 144 146 149 149 150 154 155 154 156 158 158 158 161 163 164 165 165 163 164 165 164 163 163 161 161 160 161 160 159 158 158 157 154 151 150 148 146 146 144 141 141 140 138 137 136 133 132 131 131 144
103 101 102 105 107 109 110 112 113 113 116 118 119 122 125 125 126 126 127 130 131 132 134 135 136 139 142 145 145 145 147 149 150 151 152 154 155 156 157 160 160 161 165 165 167 167 167 167 167 166 165 166 166 165 162 162 164 164 162 162 162 160 159 158 155 154 153 151 149 146 145 145 143 140 139 137 134 134 131 146
104 102 104 106 108 109 111 113 114 116 117 118 120 122 124 126 127 129 130 132 135 136 138 140 141 142 144 146 148 150 152 154 154 156 156 157 159 158 160 162 164 164 165 165 168 170 170 169 169 169 167 167 168 165 163 166 165 165 164 162 162 162 161 159 157 156 154 153 151 150 149 147 146 143 142 139 136 136 135 147
103 102 105 107 108 109 112 113 114 116 117 118 119 122 123 126 127 129 131 135 135 136 137 137 138 138 138 138 141 141 141 142 143 142 142 145 146 146 147 148 150 149 149 150 151 153 153 150 151 154 154 154 154 155 158 161 161 164 164 163 163 162 161 160 159 157 155 155 153 153 153 151 148 145 144 143 141 138 137 151
104 103 105 105 107 109 109 113 115 117 118 120 120 120 120 120 119 120 120 123 124 125 126 127 127 129 131 132 133 135 137 139 138 140 141 143 144 144 144 145 145 146 147 148 149 150 148 147 144 142 142 141 140 142 144 143 142 144 146 146 147 148 150 152 153 153 154 153 153 155 155 154 152 149 148 146 144 142 139 153
103 100 104 106 107 108 110 111 111 110 109 110 111 112 115 117 119 122 125 128 130 132 134 135 137 138 138 140 141 143 144 143 145 145 147 148 148 148 148 150 150 152 153 153 154 154 153 152 149 149 147 145 145 147 148 148 149 148 149 149 145 142 141 139 138 139 139 141 142 145 150 151 151 152 151 150 147 147 143 155
102 101 103 103 102 102 103 104 107 110 114 117 120 122 124 126 128 129 131 132 134 135 136 137 139 139 140 142 143 143 145 146 146 147 148 149 149 150 151 150 151 154 154 154 157 156 153 152 151 149 147 146 147 147 148 150 150 150 151 150 149 145 143 142 142 141 141 141 137 138 137 138 137 141 145 147 148 147 144 157
96 96 97 99 102 106 110 113 115 117 119 120 122 124 125 127 129 130 131 133 135 136 137 140 139 140 142 142 144 145 145 147 147 149 150 152 152 152 153 154 156 157 156 157 158 158 156 154 154 150 147 146 148 149 150 151 152 151 151 149 146 144 143 142 143 142 142 143 142 142 141 140 139 136 136 135 136 137 139 156
79 94 105 108 109 111 112 114 115 118 121 122 123 124 127 128 130 131 133 135 136 137 140 140 141 143 144 146 147 147 148 149 150 151 151 154 154 155 156 157 157 158 159 160 161 160 159 157 156 153 151 150 149 150 152 153 153 152 150 150 147 145 144 144 145 143 143 143 144 144 143 142 141 140 139 137 135 132 129 143
68 93 108 108 110 111 113 116 117 119 120 123 125 127 128 130 131 133 135 136 137 139 140 142 143 143 145 146 147 148 150 150 152 153 152 155 157 158 158 160 160 162 163 163 163 163 161 159 158 156 154 153 152 153 155 156 153 153 152 150 150 150 148 146 147 145 145 145 145 146 145 142 142 141 140 137 136 135 132 145
64 92 107 109 110 112 113 117 118 119 121 123 126 128 129 130 132 133 135 137 139 140 142 142 143 145 146 148 149 150 152 153 154 154 156 158 160 160 160 161 163 163 163 163 165 165 163 162 160 160 158 157 156 158 158 158 155 154 154 152 153 151 150 149 148 147 146 148 148 147 147 144 144 143 141 138 137 136 133 147
63 90 108 110 111 113 115 117 119 120 123 125 127 128 130 132 133 135 137 139 141 142 143 146 145 146 148 150 151 153 154 154 157 156 157 157 159 159 160 161 161 163 166 168 169 168 166 165 164 163 162 162 161 140 154 159 156 155 155 155 154 154 153 150 149 150 150 150 150 149 149 146 145 145 142 141 139 138 134 147
66 89 109 111 112 114 116 118 120 123 125 127 130 129 133 134 136 137 138 135 114 122 136 145 149 149 150 151 152 155 156 147 129 105 121 160 161 161 161 164 130 98 123 149 166 172 170 169 167 167 167 152 107 80 130 162 159 158 158 159 124 107 134 149 153 151 151 153 152 153 152 150 146 144 144 143 141 139 137 148
71 89 109 111 113 115 117 118 121 120 112 110 106 101 106 132 136 138 140 127 78 87 86 95 114 137 150 153 152 133 104 90 80 85 95 157 163 163 164 164 109 94 79 76 89 125 167 172 171 167 131 85 78 80 95 161 161 161 160 155 90 83 78 87 117 146 154 154 147 133 118 99 104 144 146 143 141 142 137 148
74 89 110 112 114 116 118 120 124 101 77 74 79 92 76 126 136 139 142 120 89 137 124 82 76 100 152 155 152 92 83 90 93 100 100 145 167 166 166 160 102 107 120 92 49 78 165 175 168 107 58 91 127 59 65 143 164 162 163 139 82 124 91 64 64 134 158 155 104 79 75 50 76 143 148 146 144 128 94 122
76 87 111 112 115 117 119 120 124 103 87 90 113 108 71 119 138 139 143 116 70 82 81 88 79 104 155 156 158 113 97 63 86 126 88 125 168 168 169 151 103 126 131 106 58 103 176 176 170 89 96 137 105 97 86 113 166 164 165 114 65 99 84 88 83 152 159 157 100 88 94 85 77 139 150 141 107 80 83 107
78 85 111 113 115 118 119 121 124 112 65 87 83 75 71 112 140 141 145 109 94 62 73 95 82 114 156 157 160 138 74 66 88 124 67 102 169 170 172 136 106 126 129 96 58 132 182 179 180 134 86 138 96 79 69 83 161 168 160 85 74 97 96 117 114 163 161 159 112 95 99 110 86 133 152 131 88 115 84 73
78 83 109 115 116 118 121 122 125 118 72 79 68 73 78 105 140 142 145 101 102 84 74 83 59 125 158 159 161 157 97 102 116 121 93 89 162 173 176 117 72 115 106 90 63 158 183 182 182 168 96 156 136 88 80 136 169 170 148 71 95 103 107 77 142 167 165 164 119 89 98 73 64 128 153 144 88 99 90 74
79 82 107 114 116 118 122 123 125 123 77 59 75 84 92 94 140 143 146 117 87 77 86 84 57 134 160 161 162 167 113 76 113 74 77 109 164 176 176 141 95 99 97 55 82 177 184 184 184 184 127 78 87 111 166 181 176 173 166 144 118 93 75 85 166 169 167 167 128 79 67 71 96 142 156 151 110 78 83 76
80 80 105 115 116 119 122 123 125 127 95 73 82 85 90 108 141 144 146 148 144 132 114 93 81 144 162 164 165 168 144 78 103 133 159 172 175 177 178 180 177 162 138 105 129 187 186 187 188 188 163 96 146 185 185 183 181 180 178 179 178 170 148 151 173 172 170 168 149 121 139 153 159 159 156 154 129 62 75 131
80 78 100 116 118 120 122 124 126 129 130 131 132 136 139 141 142 146 148 150 152 155 157 156 150 158 164 166 168 169 169 161 171 177 177 177 179 181 181 184 185 187 188 186 186 190 190 191 191 189 186 183 190 188 187 186 185 185 183 181 181 181 180 179 176 175 173 172 169 170 167 165 163 162 160 157 146 122 141 163
80 77 98 116 118 121 123 126 128 129 132 134 135 138 140 143 145 147 150 150 152 155 156 159 162 163 165 168 169 172 173 175 175 178 180 180 181 184 185 186 187 188 190 191 192 193 193 193 192 192 191 192 190 189 189 190 188 187 186 185 184 184 183 180 179 176 174 173 172 172 168 166 166 163 161 158 156 157 152 164
81 77 92 115 118 121 123 127 128 130 132 133 137 140 141 144 146 148 150 152 153 157 160 163 164 165 168 169 171 173 174 176 179 182 183 182 184 185 189 189 191 191 193 195 196 197 195 196 196 198 198 197 197 197 195 193 191 190 189 190 188 152 163 185 182 180 177 178 165 142 168 169 167 165 163 160 159 150 151 167
81 78 87 114 119 121 123 126 128 131 133 136 121 118 142 145 147 149 152 154 157 157 122 133 166 169 169 172 173 176 178 182 182 173 159 180 189 190 191 192 190 190 190 188 190 199 199 199 198 181 168 164 158 155 180 197 195 194 196 173 123 101 120 187 185 183 182 180 115 63 115 166 172 168 165 165 139 97 138 170
82 79 83 111 120 122 123 127 129 132 134 136 88 56 86 126 148 152 152 154 157 147 92 99 109 152 174 174 176 177 169 147 120 102 72 151 194 193 195 181 116 108 102 101 110 187 204 205 195 99 88 91 94 96 159 201 197 188 142 103 136 138 109 174 188 184 185 143 91 122 86 103 157 170 169 138 84 80 101 171
84 79 80 106 120 122 125 127 129 133 134 128 69 54 49 57 95 136 154 156 159 122 86 137 93 67 121 166 178 179 110 80 101 134 67 119 195 195 198 176 115 159 108 101 114 186 206 206 189 101 129 124 175 116 171 203 204 142 87 94 114 91 119 147 193 189 171 80 92 154 84 69 135 174 141 88 71 97 88 145
87 79 79 100 120 123 125 128 130 133 137 110 77 105 89 86 93 93 152 159 156 102 109 111 85 79 54 136 183 185 127 106 156 138 117 115 188 198 202 180 118 158 152 85 93 195 208 210 187 97 90 117 113 82 187 207 206 166 72 103 119 74 96 111 194 191 111 66 133 109 91 104 172 174 114 106 139 131 77 127
89 79 78 94 119 124 126 129 130 133 136 91 74 91 101 124 88 112 156 161 143 74 138 156 107 125 80 160 184 187 166 92 102 128 171 88 169 203 206 186 80 130 168 122 86 202 214 215 181 133 157 100 93 108 199 211 209 198 99 107 133 84 103 160 196 193 142 86 84 59 84 165 182 178 157 99 113 109 106 173
94 80 78 87 117 123 125 128 131 133 135 108 76 83 100 124 86 134 157 161 154 104 97 118 113 97 111 180 184 188 186 118 124 128 122 56 146 207 208 187 97 118 138 117 108 208 218 218 176 116 149 133 97 113 211 216 213 212 150 86 116 146 194 205 199 199 195 168 97 63 145 187 183 180 177 133 93 111 160 181
96 82 78 82 111 123 126 129 131 133 136 140 132 103 68 62 93 150 159 161 166 166 146 101 104 100 147 185 187 190 195 145 107 102 115 149 190 209 211 199 133 129 124 129 157 218 220 221 203 165 168 174 179 200 219 218 216 217 192 139 187 212 210 207 204 202 199 198 185 161 188 187 186 182 179 170 137 167 170 184
98 86 77 77 105 123 125 128 131 134 136 141 143 147 137 104 122 155 160 163 167 169 173 173 145 122 176 188 189 193 197 186 158 186 204 209 210 210 214 215 217 220 222 224 224 223 226 225 226 228 228 227 229 226 223 223 220 220 217 218 215 213 211 209 207 204 203 201 198 198 194 191 188 184 182 179 179 175 171 187
97 89 78 77 96 122 125 128 131 134 137 140 142 146 146 151 154 157 161 164 167 170 173 175 180 182 186 187 191 196 198 199 205 207 206 209 213 213 215 219 222 227 227 227 227 228 231 229 229 228 231 231 230 228 229 227 225 223 223 223 220 218 216 213 211 207 204 204 204 201 197 194 191 190 190 186 183 179 174 189
97 91 80 76 88 119 126 129 132 135 138 141 143 146 150 152 158 159 162 166 169 171 176 178 182 186 190 190 193 198 200 201 205 211 208 212 216 220 222 224 225 217 229 233 234 235 233 235 237 237 233 212 210 233 233 233 230 215 203 198 189 195 216 218 216 212 137 121 153 179 196 197 196 175 133 131 127 148 176 194
97 95 85 76 81 114 127 129 132 135 137 140 143 148 147 103 112 155 165 167 170 173 178 179 173 155 140 183 197 201 203 208 209 169 109 189 222 223 227 231 217 105 129 207 240 241 239 237 214 179 142 109 147 237 237 239 213 107 106 89 130 131 218 223 221 187 82 151 136 94 153 204 198 144 105 77 77 126 180 197
96 95 89 77 76 106 127 129 133 136 139 142 144 149 112 74 63 100 152 169 172 174 146 110 89 75 89 147 201 203 204 190 119 91 126 126 218 227 229 235 165 101 116 118 154 230 248 220 122 160 138 106 119 236 242 245 196 134 141 105 109 150 228 226 222 142 104 174 163 105 180 205 198 127 99 89 125 154 183 199
95 95 93 79 75 96 126 129 133 135 138 142 146 122 91 81 80 78 94 143 172 177 131 81 101 131 82 94 199 207 199 114 108 123 160 82 165 231 234 211 125 168 150 129 77 216 252 234 127 124 130 132 118 230 247 248 183 136 133 156 91 168 235 231 197 91 105 160 155 143 209 208 189 118 99 77 95 172 186 202
95 94 95 84 75 86 122 129 132 135 138 142 143 97 89 95 118 121 79 87 166 177 168 113 123 103 83 94 170 208 211 156 146 153 97 87 94 218 241 163 112 198 239 116 156 253 254 250 155 124 134 132 114 220 252 250 162 95 132 135 136 196 238 234 180 102 88 127 121 187 216 212 179 109 104 76 111 188 188 204
94 93 95 90 77 79 114 128 132 135 137 142 145 139 94 88 116 107 76 136 173 178 182 133 97 161 126 94 140 209 211 212 120 67 81 104 173 231 240 223 163 157 199 141 235 254 254 255 165 83 107 152 205 247 254 252 194 160 161 161 180 231 242 239 235 220 194 162 168 219 217 214 204 187 184 186 189 194 191 207
94 92 95 93 79 75 103 127 132 135 138 141 144 149 151 122 100 82 126 170 173 178 183 171 92 113 139 165 195 210 215 220 200 103 147 213 240 241 242 248 252 223 164 205 255 255 255 255 234 220 249 255 255 255 255 254 255 255 255 255 253 247 243 242 239 237 237 233 229 223 220 217 215 213 207 205 201 197 191 207
91 91 94 96 84 74 90 124 131 134 137 141 144 149 152 155 137 129 163 169 174 178 183 185 180 189 201 205 207 210 216 221 224 215 231 236 238 244 247 249 251 255 255 255 255 255 255 255 255 255 255 255 255 255 255 255 255 255 255 255 253 250 248 244 241 237 224 232 228 225 223 220 211 208 213 207 203 199 193 209
90 89 92 94 89 75 80 118 130 133 136 140 143 148 150 154 159 163 167 170 174 179 182 187 191 197 200 203 207 213 218 222 227 233 236 241 245 247 251 253 255 255 241 249 255 255 255 255 251 214 250 255 255 255 255 255 255 242 211 199 251 254 252 250 239 172 116 205 235 230 227 219 148 138 155 181 203 202 196 210
91 88 91 92 92 79 76 109 129 133 136 139 144 146 151 155 160 153 134 163 176 179 183 186 189 144 159 199 214 215 219 223 203 189 190 189 212 249 253 255 249 200 122 171 255 255 255 255 187 115 122 201 250 255 255 210 168 127 121 123 241 255 255 237 164 106 94 114 217 234 230 182 121 171 95 114 205 205 199 213
90 88 90 92 93 84 73 96 126 132 136 139 143 146 150 153 131 95 85 119 170 179 184 188 163 109 96 97 163 204 221 225 135 100 100 117 145 251 255 222 144 178 139 118 227 255 255 232 135 175 116 91 181 255 255 165 129 158 151 131 231 255 236 150 151 117 102 131 158 236 223 148 115 124 95 167 212 206 201 213
90 89 89 91 93 88 74 85 121 129 133 136 141 145 146 105 91 117 124 83 128 176 183 185 118 110 115 103 109 157 224 227 148 113 128 145 129 252 255 214 103 131 197 117 140 254 252 167 186 182 118 106 226 255 255 192 187 148 92 96 217 255 244 146 103 124 129 139 217 236 195 116 115 136 144 207 212 206 201 214
89 89 89 90 91 92 79 77 112 127 130 133 138 142 145 111 99 127 131 132 101 142 183 168 96 104 141 140 95 196 222 229 153 108 161 133 146 250 255 255 166 155 197 145 198 254 254 212 155 108 119 206 255 255 255 213 117 110 124 171 240 255 255 241 137 96 174 232 241 236 223 188 163 135 181 216 211 207 202 214
88 88 88 89 91 92 84 73 99 124 127 131 137 140 145 147 118 117 105 94 109 158 181 180 159 122 108 126 153 218 223 231 186 134 140 148 187 253 255 255 246 171 195 244 255 255 255 255 251 198 178 255 255 255 255 247 216 238 255 255 255 255 255 255 239 202 242 245 240 237 234 236 230 221 219 215 211 208 202 212
86 85 87 88 89 91 89 75 87 120 126 129 132 138 143 147 147 116 104 133 167 175 177 183 190 192 177 150 199 217 223 227 233 238 244 251 255 255 255 255 255 254 255 255 255 255 255 255 255 255 255 255 255 255 255 255 255 255 255 255 255 255 255 255 253 253 247 244 241 237 234 232 216 221 219 216 212 208 202 201
86 84 87 87 87 90 90 78 77 112 124 128 131 137 140 143 148 148 152 163 167 173 176 182 188 194 201 210 212 213 221 228 234 240 247 243 255 255 255 255 255 240 249 255 255 255 255 255 255 247 230 252 255 255 255 255 243 219 222 255 255 255 255 233 164 187 244 241 237 235 212 157 129 197 219 214 211 207 200 187
84 82 85 87 86 88 90 84 74 101 121 124 129 133 136 140 146 150 156 159 164 169 174 180 186 194 190 147 170 214 220 228 236 229 173 148 231 255 255 255 239 126 173 211 249 255 254 210 154 148 158 224 255 255 219 168 176 97 121 252 255 255 218 164 161 121 181 237 228 167 110 78 105 164 218 214 209 205 194 174
83 82 83 85 85 86 87 86 74 88 114 120 125 128 132 137 140 121 108 111 105 122 169 176 179 154 106 91 106 185 221 226 191 131 123 167 155 248 255 254 173 143 172 144 177 255 254 142 121 173 128 187 255 255 201 143 202 163 136 236 255 213 98 158 160 141 108 216 227 118 106 161 158 146 207 209 206 203 181 164
81 80 82 83 85 86 86 87 79 79 107 116 120 125 129 133 135 93 81 76 60 84 159 174 154 98 126 133 115 115 201 223 171 141 159 169 101 186 255 225 160 194 184 177 215 255 255 168 146 203 178 156 255 255 226 142 189 175 153 220 255 233 134 127 119 150 191 222 224 167 95 129 159 189 205 203 201 195 165 158
79 78 80 82 83 85 85 86 83 74 99 112 116 120 124 128 132 104 87 76 78 92 146 168 168 129 116 160 133 114 189 218 220 159 109 124 167 227 255 249 217 185 122 187 255 255 255 218 157 191 200 225 255 255 246 150 150 189 215 244 248 244 226 135 126 200 222 216 215 198 140 176 202 202 199 196 194 187 151 152
79 77 78 80 82 84 83 85 85 75 88 108 112 115 119 123 127 109 71 77 86 84 139 162 167 166 126 117 134 186 206 210 219 207 151 194 250 255 255 255 255 251 216 244 255 255 255 254 244 253 255 255 255 255 255 251 254 255 254 247 242 236 234 220 214 217 212 209 206 204 205 202 197 193 192 188 185 170 140 148
78 77 78 79 80 82 84 84 85 77 80 102 108 111 114 117 122 120 109 116 123 132 147 155 159 166 161 161 186 191 198 203 211 220 231 245 253 255 255 255 255 255 255 255 255 255 255 255 255 254 254 253 253 252 251 251 249 247 244 239 233 222 202 205 210 208 203 200 194 179 154 154 186 184 181 178 174 153 134 144
76 76 77 78 79 81 83 84 83 80 75 94 103 105 108 112 116 119 125 129 135 138 142 147 152 158 163 160 173 183 190 195 203 202 199 205 210 241 255 255 237 198 208 225 246 255 250 195 170 168 176 222 243 240 186 167 162 156 206 230 223 191 142 133 132 160 193 178 115 121 101 112 176 174 169 168 160 137 127 138
76 74 77 77 78 79 80 83 82 82 75 86 99 101 105 107 111 114 119 115 92 114 134 140 145 152 136 99 112 143 168 186 193 131 109 96 98 203 253 255 201 172 146 131 194 251 235 150 151 151 147 193 228 222 147 159 161 129 189 221 209 152 156 117 110 144 183 164 97 120 124 123 164 164 161 157 146 128 122 131
75 74 75 77 78 79 80 81 82 82 78 79 95 98 100 103 106 109 108 78 63 81 101 126 138 141 93 79 96 92 110 175 182 124 123 94 97 189 245 247 190 163 169 161 209 238 223 129 111 118 114 186 214 206 139 138 170 154 200 214 189 117 129 103 110 170 174 158 90 94 118 132 155 153 150 146 133 121 117 124
74 72 74 75 77 78 79 80 81 81 79 75 89 95 97 99 101 103 82 77 69 74 77 100 132 119 86 91 97 74 131 167 174 123 93 125 104 179 233 235 200 173 163 161 222 223 213 149 130 104 120 182 198 194 148 147 174 174 202 204 193 166 150 127 144 167 163 156 128 135 146 148 145 142 137 134 120 113 109 116
72 71 73 74 75 76 78 78 79 80 79 74 83 91 93 96 98 99 92 74 72 76 82 115 125 123 112 104 82 99 149 156 162 146 134 153 163 196 218 227 232 231 216 207 217 210 203 192 183 181 180 180 182 181 183 186 188 193 192 191 187 182 176 167 162 155 151 147 147 143 140 136 132 129 126 119 110 107 104 111
72 70 72 73 74 76 77 77 78 79 79 75 77 88 89 91 94 96 99 98 81 79 107 115 119 123 126 126 121 132 142 147 152 160 167 174 184 194 203 214 223 225 221 215 204 194 188 182 177 171 169 166 165 165 166 167 170 173 174 175 170 166 159 154 146 141 138 134 131 128 126 123 120 117 115 110 106 103 101 107
70 70 71 72 73 74 75 77 77 78 78 77 75 83 87 89 90 92 95 98 100 102 107 109 112 115 118 122 127 130 133 138 141 147 152 159 167 176 186 198 204 206 202 196 188 178 171 164 158 155 152 149 149 149 148 150 152 155 157 157 155 152 146 140 134 130 126 123 120 118 115 113 111 109 107 105 102 100 98 104
69 68 70 71 72 73 74 75 75 76 78 77 74 79 83 85 87 88 91 93 95 98 101 103 106 107 111 114 117 120 123 126 129 133 138 144 150 157 166 175 181 182 180 174 167 161 153 148 143 140 138 137 135 135 135 135 136 137 138 137 136 132 128 124 122 118 115 113 112 111 109 107 106 105 103 101 100 97 95 101
68 68 69 69 70 72 72 73 74 75 75 77 74 76 80 82 84 85 87 89 91 93 95 98 100 102 104 107 109 111 113 115 118 122 123 127 131 136 139 143 145 144 144 141 139 136 135 133 130 129 127 127 124 123 123 123 121 121 121 118 118 117 115 114 113 114 112 111 109 109 107 106 105 103 101 99 96 94 91 97
68 67 67 68 68 70 71 72 73 73 75 76 76 76 78 79 80 81 83 84 87 88 90 94 96 98 99 100 102 104 106 108 110 113 115 117 120 121 123 125 126 128 128 129 129 129 129 128 127 126 124 123 122 121 121 120 118 117 117 115 115 116 115 114 111 111 109 108 106 106 105 104 102 100 99 97 94 92 89 94
66 65 66 67 67 68 69 70 72 73 73 74 75 76 75 78 78 80 81 83 85 86 89 93 95 98 99 99 101 104 105 104 109 111 113 115 117 120 122 123 125 126 127 127 126 127 126 125 124 123 123 121 119 118 117 116 115 114 115 114 112 112 112 111 109 108 108 107 105 103 103 102 100 98 97 95 92 90 87 91
65 64 65 65 66 67 67 69 69 71 72 72 73 75 75 77 78 79 81 82 83 87 90 92 94 97 99 99 99 101 102 103 106 108 111 113 114 117 117 119 122 123 124 124 123 124 123 122 121 120 118 117 117 116 116 113 113 112 113 111 110 110 110 108 108 106 106 105 105 103 102 101 99 97 96 93 91 88 85 89
64 62 63 63 65 66 67 68 68 69 70 70 72 73 74 75 76 78 79 82 83 86 88 90 93 94 97 99 97 97 99 102 103 105 108 110 112 115 116 118 120 122 123 124 123 123 122 121 121 119 117 116 114 114 113 111 111 110 110 110 109 108 108 107 107 106 105 105 104 102 101 99 98 96 94 92 89 86 84 88
62 62 62 63 63 65 66 67 67 69 69 70 70 71 73 74 75 76 78 81 83 86 87 89 91 92 94 97 95 94 96 98 100 103 105 108 111 113 115 118 120 121 123 123 123 124 123 121 118 118 116 114 113 112 111 110 109 109 109 107 107 106 106 105 105 104 103 103 102 101 100 99 97 95 94 91 88 85 82 86
61 60 61 62 63 63 65 65 66 67 69 69 69 70 71 72 73 75 77 80 82 85 86 87 88 90 92 95 94 93 94 96 100 101 104 106 109 111 114 116 118 120 121 121 121 122 121 118 117 115 113 111 111 110 107 107 107 107 106 106 105 105 105 104 104 104 103 103 102 101 100 98 97 94 91 88 85 83 81 83
60 60 61 62 63 63 63 65 65 66 66 68 69 69 70 71 72 73 76 79 81 82 84 85 85 88 89 91 91 91 93 94 96 99 101 104 107 109 112 115 116 118 118 121 121 120 119 118 117 114 112 111 109 108 106 106 105 104 104 104 104 104 105 104 104 105 104 102 100 98 97 94 91 90 87 84 82 80 78 81
60 60 60 61 62 62 63 63 65 65 66 67 67 68 69 70 71 72 75 78 79 80 81 82 84 85 88 89 89 89 91 93 95 98 100 102 105 108 111 114 117 118 119 121 123 123 121 118 116 114 112 110 108 107 106 104 104 104 104 103 103 103 103 102 101 99 98 97 95 94 92 90 87 84 83 81 79 77 75 79
60 59 60 60 61 62 63 62 64 65 65 67 66 66 68 68 70 72 75 77 78 79 80 81 83 84 87 87 87 88 89 91 94 96 99 102 105 107 110 112 115 117 118 120 126 126 121 117 114 112 110 108 106 105 104 103 103 102 102 101 100 99 98 97 97 94 94 92 90 89 87 85 83 80 79 78 76 75 73 78
59 59 59 60 61 61 61 62 63 64 64 65 65 66 67 68 69 70 74 76 76 78 80 80 82 84 86 84 84 86 88 91 93 95 96 99 101 103 105 106 108 112 112 114 119 119 116 111 108 106 105 102 101 100 100 100 100 98 98 97 96 95 94 92 91 90 89 87 86 84 82 81 80 78 76 75 74 72 72 77
59 58 59 59 60 60 60 61 62 63 63 63 64 65 66 67 68 69 72 75 77 77 78 79 81 83 82 82 82 84 86 87 89 91 92 93 95 97 99 100 103 105 106 109 118 119 115 106 103 101 99 98 99 97 96 95 95 93 94 93 92 91 90 88 87 86 84 83 83 81 79 78 77 77 74 73 71 70 69 72
59 58 58 59 59 60 60 61 61 62 62 62 63 63 64 65 67 68 70 73 75 76 78 79 80 80 79 80 80 82 83 83 86 87 89 90 91 92 94 95 97 99 99 101 107 108 107 101 99 97 95 94 94 93 92 92 91 90 89 89 88 87 85 85 84 83 81 81 80 79 78 77 75 74 72 70 68 66 66 70
58 58 58 58 58 59 60 60 60 61 61 62 62 63 63 64 65 66 67 70 72 74 76 76 76 76 76 76 76 78 79 80 82 83 84 85 86 88 89 91 92 94 96 99 103 104 103 97 96 95 93 91 90 90 89 88 87 87 86 85 84 83 83 82 82 81 80 79 78 77 75 74 71 69 68 67 66 66 67 71
56 56 57 57 58 58 59 59 60 60 61 61 61 62 63 63 63 65 66 67 69 71 72 72 73 73 73 73 74 76 76 78 78 79 80 81 83 85 85 87 89 92 96 99 103 102 100 96 94 91 90 89 88 86 85 85 84 83 83 82 82 81 81 80 80 79 77 76 73 71 70 69 69 69 69 68 68 67 66 71
55 55 55 55 56 57 58 58 59 59 59 59 60 61 61 62 63 63 63 65 66 67 68 68 70 70 70 71 72 73 74 75 76 76 78 79 80 81 82 84 87 91 95 100 107 105 99 94 91 88 86 85 84 84 83 83 82 80 80 79 78 76 76 74 73 72 71 70 70 70 69 70 70 70 70 70 68 68 67 71
55 55 56 56 56 56 56 56 57 57 57 59 60 60 62 62 63 64 65 65 66 67 67 68 69 70 70 70 71 73 74 74 75 76 78 79 80 81 84 86 88 90 95 107 134 141 125 97 91 89 88 86 84 82 80 80 79 78 76 74 73 72 72 72 73 73 73 73 75 73 74 74 74 74 73 71 71 71 71 88
