P2
80 80
255
115 110 108 110 112 114 116 118 119 120 121 123 126 127 130 132 133 137 139 138 139 141 144 145 146 149 153 155 156 158 159 159 162 165 166 167 168 169 168 171 172 172 172 173 174 176 177 177 176 178 177 175 174 172 170 169 167 168 168 167 165 163 163 161 159 157 156 155 152 151 151 149 148 147 145 144 143 142 141 152
102 100 101 102 105 107 109 110 112 112 114 116 118 118 121 123 125 126 128 128 128 131 133 133 135 137 139 142 144 144 143 146 148 149 150 152 153 154 155 156 158 159 159 161 162 165 165 164 163 164 164 164 162 162 161 160 160 159 156 157 157 155 155 152 148 147 145 144 143 141 139 139 138 137 135 134 132 131 130 144
102 101 103 105 107 108 110 111 113 114 115 117 120 121 123 124 124 126 128 130 131 133 134 136 136 139 141 142 145 147 148 149 150 152 152 153 155 157 158 158 159 160 162 164 166 166 168 166 164 166 165 166 165 165 164 162 162 162 161 161 159 159 159 157 154 153 152 149 148 146 144 143 141 139 139 137 134 133 132 147
103 101 103 106 107 109 111 113 112 115 117 117 119 121 123 125 126 129 130 132 135 136 137 140 141 143 144 145 147 150 151 153 154 154 155 156 157 158 160 161 162 163 164 166 165 167 169 169 168 168 167 165 166 167 164 161 163 164 164 162 160 161 160 158 156 156 155 153 151 149 147 146 145 143 142 139 136 135 132 147
104 101 104 106 108 109 111 112 114 115 118 119 120 121 123 124 125 126 126 128 130 130 132 133 134 133 133 133 134 135 136 137 138 139 139 141 143 143 144 145 146 148 147 149 150 151 152 152 151 152 153 155 156 158 158 161 164 166 164 163 164 162 161 158 159 158 156 154 153 152 152 150 148 145 144 142 139 138 136 150
102 100 104 105 107 108 110 112 113 115 115 116 115 115 115 114 114 116 117 119 122 124 127 128 129 131 133 134 134 136 138 139 139 142 142 143 144 145 146 145 145 146 147 148 148 149 148 145 143 143 141 140 140 141 142 144 144 144 147 147 150 152 153 154 156 156 155 154 154 153 155 153 151 149 147 145 143 141 138 153
101 100 104 105 107 107 107 107 107 106 107 110 112 115 117 121 123 125 128 129 131 132 134 136 137 138 138 139 140 141 143 144 145 146 145 146 147 148 149 150 150 150 151 152 154 154 152 151 149 148 147 145 145 147 147 147 148 147 149 147 144 142 140 139 140 140 143 144 147 148 152 153 152 152 150 149 147 145 142 157
100 98 98 97 99 101 104 107 111 114 117 119 121 122 124 125 127 128 130 131 132 134 135 137 139 139 139 140 142 143 144 146 147 146 148 149 148 150 150 151 152 154 154 154 155 156 153 152 151 150 148 147 146 146 147 150 151 149 150 150 147 146 143 143 142 141 141 139 137 137 137 140 142 146 149 150 149 147 145 157
88 91 100 103 106 109 112 113 115 116 119 121 122 123 125 127 129 129 130 133 134 135 136 138 139 140 141 143 144 144 146 148 147 149 150 150 151 153 152 154 155 156 156 157 157 159 155 153 153 151 148 147 147 147 150 151 151 151 150 148 145 144 141 142 143 142 142 142 142 142 141 139 137 135 136 138 141 143 144 159
70 91 107 107 108 111 112 114 116 118 119 120 123 125 126 128 130 131 132 134 136 136 139 140 140 141 144 144 146 147 148 148 149 150 152 153 154 155 156 157 157 158 159 160 159 160 158 157 154 153 151 148 149 150 151 153 152 151 150 149 147 146 144 143 145 142 143 143 143 144 143 142 141 138 137 137 135 131 131 147
64 89 107 108 110 111 112 115 117 118 119 122 124 127 127 129 130 131 134 135 137 137 139 142 142 143 145 145 147 147 150 149 150 152 152 156 157 158 158 160 162 162 162 162 163 161 161 158 157 157 154 153 152 153 154 155 153 152 151 151 150 149 148 147 145 145 144 145 145 146 145 144 143 141 140 138 136 135 131 143
62 88 107 108 111 112 114 116 118 120 122 123 125 127 127 130 132 134 135 137 138 140 141 142 144 145 146 148 149 150 152 153 153 154 155 158 158 159 159 160 161 163 163 164 164 164 164 162 159 159 157 157 156 156 159 157 155 153 153 152 152 149 149 148 147 147 146 148 148 148 147 145 143 143 141 139 138 136 134 146
64 87 107 109 111 113 114 116 119 121 123 124 127 129 130 131 133 135 137 137 139 142 145 145 146 146 147 149 151 153 152 154 155 156 154 155 157 160 161 161 162 160 162 168 168 168 165 164 164 163 162 161 162 157 143 156 156 155 156 155 154 154 153 150 150 150 149 150 151 149 148 146 145 144 142 141 139 137 134 147
68 87 108 109 112 114 116 118 120 121 124 127 128 127 129 133 134 136 137 140 119 94 112 130 144 148 151 151 152 154 156 152 136 115 92 125 161 161 163 162 165 118 96 124 151 167 171 168 167 166 167 166 146 100 86 148 160 158 158 159 152 118 129 147 153 153 152 152 151 152 151 150 149 144 143 142 140 138 136 149
72 86 108 110 112 115 117 119 123 120 99 94 89 87 83 112 137 137 137 142 103 89 97 87 85 104 139 152 154 150 115 88 90 80 91 103 162 163 163 164 161 100 94 80 74 92 130 168 170 170 164 121 82 78 78 120 162 160 160 160 138 75 84 87 115 141 155 154 153 148 136 123 115 140 147 144 142 141 139 151
74 85 110 112 113 117 119 119 122 114 76 88 78 109 84 94 136 138 139 141 94 101 137 112 82 76 117 155 154 145 84 88 93 85 111 100 153 165 165 166 152 100 104 127 80 48 96 172 173 160 93 56 108 108 53 85 158 162 162 160 111 96 118 67 61 97 155 157 133 88 80 59 65 132 148 146 145 138 111 130
77 85 109 112 114 117 118 120 122 119 81 88 98 113 81 87 136 139 142 141 90 72 70 70 90 74 128 156 156 157 102 92 55 102 121 78 138 168 168 170 137 110 127 131 98 55 123 177 177 160 74 112 131 104 93 84 138 166 164 158 85 78 102 84 75 116 160 159 125 81 91 76 68 126 150 145 124 87 78 111
79 83 109 113 115 117 119 122 124 123 76 74 80 68 66 80 134 141 142 139 91 98 54 91 94 79 136 157 158 162 123 74 65 106 117 65 118 171 169 173 120 111 122 125 86 62 150 178 178 176 112 99 133 84 78 67 110 167 166 142 66 91 83 112 100 144 163 161 134 90 93 115 88 121 152 137 89 106 88 82
79 81 107 113 116 118 120 122 124 126 88 76 68 79 88 83 129 142 144 137 83 107 71 85 69 69 145 158 161 163 146 95 102 130 107 89 98 169 173 173 95 78 117 107 80 77 172 182 181 181 149 100 164 117 81 90 148 168 167 117 65 111 101 100 97 163 165 163 143 88 100 86 68 112 154 144 91 103 86 70
80 80 105 114 116 119 121 122 124 127 97 54 66 72 90 76 124 144 144 143 109 89 74 92 67 75 152 160 162 164 165 93 79 106 69 89 126 171 176 175 133 97 101 86 50 107 183 184 183 183 177 104 82 88 126 172 176 173 170 155 127 100 83 64 128 170 167 167 150 86 74 60 75 126 156 151 112 81 89 76
81 78 102 115 117 120 122 124 125 128 117 91 93 99 102 108 133 145 146 148 151 147 136 118 94 102 157 162 164 166 170 128 86 120 148 166 175 176 177 180 181 176 162 135 105 148 187 186 187 186 186 141 100 161 185 184 180 179 177 178 177 171 153 133 164 172 169 168 160 114 119 140 153 158 155 154 131 63 68 117
81 77 98 116 117 121 122 125 126 128 132 134 135 138 140 142 143 145 148 150 152 154 156 158 158 155 161 164 167 169 170 168 167 175 176 177 178 179 181 184 184 187 188 188 186 188 189 190 190 188 189 183 185 189 187 186 185 184 182 181 180 178 180 179 176 174 172 172 168 167 166 165 163 161 158 156 146 110 131 163
81 77 94 116 118 121 122 125 127 129 131 134 135 138 139 142 144 146 147 150 153 155 156 158 162 163 163 166 168 171 172 173 176 177 178 180 181 182 183 185 187 188 188 190 191 193 193 192 191 191 191 191 191 190 189 189 186 188 187 185 182 182 183 179 177 176 175 174 171 172 168 165 164 163 161 158 156 155 152 165
80 77 89 115 118 121 123 126 128 130 132 135 136 141 141 144 145 148 149 151 154 156 157 160 163 165 166 169 171 174 174 176 178 179 182 184 184 185 187 187 190 193 193 194 194 196 196 195 195 195 196 196 196 197 195 193 190 189 191 190 190 174 150 179 182 180 179 177 175 149 164 169 167 165 163 160 158 153 152 166
81 77 85 112 119 122 124 126 129 131 133 137 128 101 128 145 147 150 151 153 155 158 146 106 142 168 170 172 173 175 177 181 182 180 165 158 184 188 189 190 192 189 187 187 186 189 196 198 199 194 172 165 160 155 158 191 196 193 194 191 153 112 96 163 186 182 181 181 150 70 102 161 171 167 167 164 146 105 142 170
81 78 82 108 120 122 124 128 130 131 134 138 110 54 62 98 136 151 153 155 156 160 120 96 100 116 160 174 176 176 177 160 134 110 91 77 175 193 193 197 164 107 103 100 97 124 200 203 203 175 80 93 93 95 103 186 199 196 177 117 115 139 123 134 188 184 184 171 98 113 94 96 152 169 167 148 92 81 106 171
83 78 79 104 120 122 125 128 129 132 134 136 88 57 54 48 68 110 146 154 157 155 90 108 130 72 75 134 173 180 168 83 90 118 123 64 151 196 196 201 151 133 152 99 108 125 201 205 205 162 103 122 147 158 117 194 202 190 107 86 113 93 115 117 183 189 186 118 68 152 102 69 114 173 150 94 69 93 91 152
85 78 78 98 120 122 125 127 130 133 136 126 75 101 103 88 103 82 127 158 161 136 98 119 105 84 70 70 164 184 180 102 131 151 129 120 130 197 199 205 155 125 164 132 77 119 207 207 210 158 91 93 126 90 114 205 205 201 121 70 128 84 95 86 167 195 154 62 115 120 97 89 161 176 123 98 136 130 77 130
87 78 77 91 119 123 126 129 130 133 137 109 72 81 96 119 107 86 144 159 161 107 85 165 132 117 105 102 178 184 190 139 97 95 159 145 93 191 203 208 156 74 154 162 96 121 213 211 214 151 152 141 92 94 139 211 207 208 164 80 134 104 89 127 186 196 167 94 89 64 72 146 181 177 160 102 114 112 106 171
92 79 78 85 116 122 125 129 130 133 136 123 88 74 92 115 104 104 154 159 162 140 93 108 112 115 85 144 185 186 190 169 113 125 137 92 69 179 207 210 157 100 120 137 103 138 217 215 217 141 129 141 127 84 159 217 213 211 198 105 98 128 171 202 200 197 196 183 119 60 116 184 182 181 177 135 93 110 160 182
95 80 78 81 110 122 125 128 130 132 136 139 139 121 84 60 69 131 157 160 164 168 164 130 94 108 103 173 187 188 191 192 119 111 101 130 166 200 208 212 180 129 129 129 135 182 221 219 220 189 168 175 180 187 211 219 217 215 212 161 156 204 210 206 204 202 200 198 191 160 180 189 186 184 180 171 136 166 169 185
97 83 77 77 102 122 125 128 130 133 136 140 142 146 145 122 105 148 160 162 165 168 171 175 169 130 143 187 188 192 194 197 174 168 195 207 209 209 212 215 217 219 221 223 225 225 225 225 225 225 227 228 227 226 223 223 220 218 216 217 217 212 210 207 208 205 202 200 198 198 194 190 189 186 183 180 179 174 171 188
97 86 77 76 93 121 126 128 130 133 136 139 142 146 145 150 156 156 160 164 165 169 173 174 178 183 184 186 191 195 196 198 202 206 207 211 211 213 215 219 222 224 226 227 226 228 229 228 228 228 228 229 232 229 226 226 224 223 224 222 222 220 216 213 212 208 206 202 203 201 196 194 192 190 188 186 183 179 174 190
97 90 78 76 86 118 125 128 131 134 137 139 143 146 149 150 154 159 161 164 168 170 173 176 179 185 189 191 192 196 198 200 205 209 209 208 215 218 220 222 224 224 216 231 233 234 233 234 236 238 235 223 200 219 232 232 230 222 202 196 191 185 206 218 216 214 166 110 143 169 191 197 194 178 132 127 125 147 175 193
97 93 81 76 79 113 126 128 132 135 138 140 144 146 151 123 94 143 164 165 169 173 175 180 177 168 144 154 195 198 201 205 210 202 140 125 213 222 224 227 233 182 89 157 225 243 239 238 229 194 162 123 106 191 240 237 236 159 97 93 111 123 183 224 220 210 103 125 157 96 133 201 199 153 108 77 79 129 181 197
97 94 86 76 76 105 126 129 132 135 138 140 144 149 133 82 66 79 134 168 171 174 168 125 103 76 84 99 183 201 203 204 169 92 116 113 162 228 228 233 225 127 106 121 115 183 240 249 172 131 156 128 89 174 244 242 235 150 146 124 100 117 204 228 225 177 103 149 178 110 163 208 200 132 98 90 125 157 184 200
96 94 91 78 75 93 125 129 132 135 139 141 145 137 96 86 76 80 81 121 166 175 169 89 94 112 125 61 147 205 208 169 103 109 146 135 88 208 233 235 170 137 162 155 91 123 246 252 188 125 108 150 113 162 248 247 231 141 131 155 125 113 224 232 220 114 94 136 169 133 203 208 194 124 103 74 94 176 185 201
95 93 94 81 75 85 120 129 133 135 138 142 146 113 87 89 113 120 104 64 135 177 179 136 118 112 95 81 118 199 211 199 131 164 131 91 76 143 238 227 123 137 230 204 95 214 254 254 218 138 113 141 116 153 248 251 222 112 107 133 133 156 235 235 213 124 97 106 127 169 216 213 188 115 107 85 119 189 188 204
94 93 95 86 76 79 112 129 132 135 138 141 145 143 108 74 114 113 84 99 164 176 180 170 96 131 160 101 101 182 212 217 188 78 80 79 133 202 239 240 204 147 180 173 168 254 254 255 243 112 93 130 182 231 254 255 233 173 170 170 176 213 241 239 235 229 210 181 166 215 218 215 207 195 191 193 195 194 191 207
93 92 95 91 77 75 101 128 131 135 139 141 144 149 151 130 103 89 96 159 173 176 181 185 128 86 127 147 178 202 212 216 223 155 104 176 228 242 242 245 252 248 202 164 240 255 255 255 255 225 237 255 255 255 255 255 255 255 255 254 253 249 244 240 239 237 237 235 229 223 220 217 215 212 208 204 201 197 192 208
92 91 94 94 81 74 89 125 131 133 137 140 144 148 151 156 146 117 150 170 172 176 180 185 182 180 195 204 207 209 214 217 222 222 219 235 236 242 246 248 251 253 255 255 255 255 255 255 255 255 255 255 255 255 255 255 255 255 255 255 253 250 247 243 243 239 218 228 230 226 224 221 208 201 211 209 203 199 194 208
90 90 92 94 86 74 80 116 130 133 136 140 144 147 149 155 159 163 167 170 173 176 181 185 189 195 200 202 205 210 215 219 224 231 235 238 243 245 248 251 254 255 252 236 255 255 255 255 255 228 220 255 255 255 255 255 255 245 218 182 228 254 252 251 244 187 110 169 234 230 228 219 147 135 140 168 205 201 197 210
91 89 91 92 91 77 75 107 129 132 135 138 143 146 150 153 159 161 145 156 174 178 181 184 190 174 146 187 211 215 217 222 221 197 194 192 195 234 252 254 255 230 168 110 228 255 255 255 243 134 111 145 226 254 255 237 176 140 124 109 191 255 254 242 182 112 93 95 189 234 231 187 120 168 95 121 208 206 198 212
91 89 91 92 92 81 72 94 127 131 135 138 142 146 150 154 148 112 84 101 161 178 181 185 189 125 111 83 138 192 216 225 201 102 103 114 113 203 255 252 184 143 181 114 154 253 255 254 183 142 180 78 125 233 255 224 128 144 164 129 179 255 252 168 139 136 101 134 144 229 225 151 113 122 104 180 212 205 200 212
90 89 90 92 94 87 73 84 121 130 134 137 140 144 148 127 92 104 128 92 103 169 181 187 164 95 127 91 116 114 205 227 206 115 114 152 112 197 255 252 159 96 170 179 91 209 255 219 160 195 149 100 169 253 255 240 169 184 95 81 160 255 254 196 101 115 131 137 216 237 205 120 118 133 152 212 211 208 201 213
89 88 89 91 92 90 76 76 112 128 131 134 139 142 145 120 89 121 128 134 111 119 176 185 124 92 121 156 102 136 220 226 214 105 147 155 128 198 255 255 234 128 195 164 162 233 255 242 189 134 98 161 246 255 255 253 147 114 128 168 225 255 255 255 187 96 167 234 242 238 229 208 182 155 194 216 211 209 202 212
88 88 89 89 90 92 82 72 99 125 129 131 136 139 143 147 123 115 117 101 95 128 175 183 166 128 103 124 125 193 221 226 223 140 135 133 158 222 255 255 255 209 171 219 255 255 255 255 255 238 177 228 255 255 255 255 234 236 255 255 255 255 255 254 253 223 242 245 240 238 234 235 232 227 221 215 212 208 202 202
87 86 89 88 89 91 86 72 87 120 126 130 134 138 141 146 148 121 100 107 150 173 176 181 188 193 181 150 161 213 218 226 230 234 238 247 254 255 255 255 255 255 255 255 255 255 255 255 255 255 255 255 255 255 255 255 255 255 255 255 255 255 255 255 248 246 249 244 240 237 236 228 199 216 220 216 212 208 201 188
86 85 87 87 87 90 89 76 78 111 123 128 130 136 140 143 147 150 141 159 167 170 176 181 186 191 198 206 212 211 218 225 232 239 245 246 251 255 255 255 255 251 238 255 255 255 255 255 255 252 231 237 255 255 255 255 243 217 194 244 255 255 255 236 163 153 231 243 236 231 197 129 116 190 220 213 211 208 197 175
84 83 85 87 86 88 90 81 72 101 121 124 128 133 136 140 143 149 156 160 164 170 173 178 184 191 196 179 156 206 216 225 233 239 212 152 186 255 255 255 255 180 132 192 232 254 255 234 175 136 160 174 255 255 246 166 176 134 80 212 255 254 219 161 167 131 138 226 230 154 99 92 115 159 217 213 209 206 186 167
83 82 84 86 86 86 88 85 73 89 116 121 124 129 134 137 141 134 125 124 123 124 160 176 181 180 138 97 93 152 214 225 221 165 121 146 156 210 255 255 229 137 158 165 135 230 255 211 105 162 159 133 246 255 245 149 185 192 145 192 255 237 111 127 164 151 112 201 230 141 106 166 162 155 209 209 205 202 169 160
81 80 83 84 86 85 87 87 76 79 108 117 121 124 130 133 138 105 76 76 68 62 141 173 173 118 103 128 121 96 173 222 207 135 155 170 143 117 245 255 177 177 184 192 171 251 255 239 119 191 205 138 227 255 254 160 160 175 157 187 253 247 182 117 109 139 200 223 223 186 94 127 171 202 205 203 200 191 154 157
80 79 80 82 84 85 85 86 81 73 99 112 117 121 124 128 134 112 90 80 73 79 129 167 170 144 109 146 159 109 146 214 223 191 129 108 150 189 250 255 233 201 147 137 238 255 255 254 170 181 202 218 249 255 255 199 151 191 219 239 245 241 238 178 137 202 220 215 212 205 170 194 203 200 198 197 194 178 144 152
79 78 79 81 83 84 83 85 84 73 89 109 112 116 119 123 128 118 76 71 82 80 114 161 167 170 135 120 116 155 200 210 215 222 167 156 226 255 255 255 255 255 233 221 255 255 255 255 250 251 255 255 255 255 255 255 255 255 253 245 240 233 230 226 219 215 210 206 204 203 203 195 193 191 190 187 184 159 136 146
78 77 79 79 80 82 84 84 84 76 80 103 109 112 115 118 122 122 99 100 110 116 137 153 160 165 166 145 173 191 196 202 210 219 228 240 252 255 255 255 255 255 255 255 255 255 255 255 255 252 251 250 252 252 249 246 242 239 237 236 230 220 187 181 193 200 199 195 181 159 128 133 183 183 178 175 169 144 132 141
77 77 78 79 80 81 83 83 83 80 74 95 104 108 111 113 116 120 124 129 135 140 143 146 152 157 164 168 173 182 189 195 203 208 210 213 217 233 255 255 255 208 200 213 233 252 254 220 169 161 166 190 242 242 207 159 157 142 170 227 220 196 145 135 119 136 187 177 102 118 110 116 172 171 167 165 153 131 127 135
76 75 76 77 79 79 81 82 82 82 73 87 100 103 106 108 112 115 118 123 111 116 135 139 144 150 154 116 111 141 169 184 195 173 110 117 94 152 250 255 242 172 157 129 145 237 244 186 140 153 152 160 225 228 181 145 176 140 166 217 210 153 145 114 105 143 180 166 101 111 120 124 161 160 156 153 138 124 120 128
74 75 76 76 78 78 80 81 82 82 75 79 95 99 101 104 107 109 115 98 64 79 104 126 138 143 124 79 90 104 94 159 186 159 113 118 86 142 238 253 224 171 155 164 168 234 230 172 107 110 109 149 213 213 167 133 170 160 183 211 198 126 123 110 108 165 168 159 97 99 127 141 151 148 145 141 124 117 114 119
74 73 75 76 77 77 79 81 82 81 78 74 90 95 97 100 102 105 94 77 71 70 78 90 128 133 94 82 99 83 92 160 173 158 96 120 112 137 227 242 220 183 155 145 192 224 215 179 137 119 114 160 198 199 174 156 178 183 196 202 194 179 162 142 147 162 159 153 143 146 147 144 141 137 134 126 114 111 106 113
73 71 73 74 76 76 78 78 80 80 80 73 84 91 93 96 99 101 90 73 71 79 75 99 125 125 109 102 90 78 130 158 163 159 125 143 156 181 216 228 233 232 219 199 210 209 202 193 185 182 182 181 182 181 183 187 188 191 191 187 183 177 170 164 157 149 146 142 141 138 134 130 128 124 121 113 108 105 102 109
72 71 73 74 74 76 77 78 79 79 79 75 78 88 91 93 94 97 100 96 80 68 93 116 118 122 128 125 118 117 141 149 153 158 164 173 183 193 204 216 221 224 220 215 204 194 186 181 176 171 169 166 164 164 163 167 169 170 171 171 166 160 155 148 143 137 133 130 127 125 121 119 116 112 110 107 104 102 99 105
71 70 71 72 73 75 75 76 78 79 78 77 75 85 87 89 91 94 96 99 100 97 106 110 113 116 119 123 128 131 133 138 143 147 152 161 168 178 187 198 205 206 202 195 187 178 170 165 158 154 152 149 148 148 147 149 150 153 156 155 151 146 141 135 130 125 122 119 117 115 112 110 108 106 105 104 101 98 96 101
69 68 71 71 72 73 74 75 76 76 77 76 74 80 85 86 87 90 92 94 96 99 102 104 107 109 112 114 118 121 123 127 130 134 139 144 151 159 168 175 182 182 180 173 166 159 153 149 143 139 137 136 134 133 133 132 132 134 133 131 129 125 122 119 118 115 113 111 110 110 109 106 105 104 103 101 99 96 93 98
69 68 69 70 70 72 73 74 75 75 76 77 74 76 81 83 84 87 88 90 92 94 96 98 100 102 106 108 109 113 115 117 119 121 125 129 132 137 141 144 146 145 144 141 138 136 135 134 131 129 127 126 124 123 122 121 120 120 119 117 116 116 115 113 113 113 111 110 109 108 108 104 104 102 100 97 96 93 90 94
68 67 68 70 70 70 71 72 73 74 76 76 76 76 79 80 81 83 85 85 87 89 92 94 96 98 100 101 102 104 106 109 111 113 115 117 119 121 124 125 126 127 128 128 128 129 128 128 127 125 123 123 122 120 121 119 119 118 117 116 115 115 113 112 111 110 109 108 106 105 104 103 101 100 98 96 93 91 88 92
67 66 67 68 68 68 70 70 72 73 74 75 76 76 75 77 79 80 81 82 84 86 89 91 95 97 98 99 101 104 105 104 108 110 112 114 117 118 121 122 124 125 127 127 126 127 125 125 124 123 121 120 119 119 117 116 115 114 114 114 113 112 111 110 110 108 108 106 105 103 103 102 100 99 97 94 91 89 86 90
65 65 65 66 67 68 69 69 70 71 72 73 74 75 76 77 79 80 81 83 84 87 90 93 95 96 98 99 100 100 102 103 106 107 110 112 114 116 118 120 121 122 123 124 123 123 123 123 122 120 119 118 117 116 114 113 113 112 112 110 110 110 110 108 108 108 107 106 105 104 102 101 99 97 95 92 90 87 84 89
64 63 64 65 66 66 67 68 69 69 71 71 73 74 75 76 77 78 79 81 84 87 89 91 93 94 97 98 97 98 99 101 103 105 107 109 112 113 116 118 119 120 121 122 123 123 122 122 121 120 119 116 115 114 113 112 111 110 110 109 109 107 108 107 106 106 105 105 103 102 101 99 98 96 94 92 89 86 83 86
63 62 63 63 64 65 65 67 68 69 70 71 72 72 73 74 75 77 78 81 83 86 88 89 91 92 94 97 96 95 95 97 100 103 105 107 109 111 114 116 119 121 122 122 123 123 121 122 120 118 116 114 113 112 111 110 108 109 108 108 107 107 106 106 105 104 104 104 101 101 100 99 97 95 93 90 87 83 82 84
62 61 62 63 63 64 65 66 67 68 69 69 70 70 71 72 74 75 77 80 82 84 86 86 88 89 91 94 93 92 94 97 98 100 103 105 108 110 113 115 117 119 120 120 120 122 120 119 118 116 114 112 111 110 108 107 107 107 106 106 105 105 105 105 104 105 104 103 102 100 99 97 94 92 89 85 83 81 78 82
60 61 61 62 63 63 64 64 65 66 67 68 68 69 69 71 72 73 76 79 81 82 83 84 86 88 90 91 90 90 92 93 96 98 101 104 106 108 111 113 115 117 117 119 120 121 121 118 116 114 113 111 109 108 107 106 105 105 104 104 103 104 104 104 103 103 102 100 98 96 95 92 89 87 84 82 80 78 76 80
61 60 61 62 62 62 63 63 65 65 66 67 67 67 69 70 71 72 75 78 80 80 81 83 84 85 87 89 89 89 91 92 95 97 99 101 105 107 110 113 115 117 118 119 121 122 122 121 117 115 113 110 109 108 106 105 104 104 103 103 102 102 101 101 99 98 96 95 93 92 90 88 85 83 81 79 76 75 74 77
60 60 60 61 62 61 62 63 64 65 66 67 66 67 68 68 70 72 75 77 77 78 80 81 82 84 86 87 86 87 89 91 93 95 98 100 103 106 109 111 114 115 116 118 119 123 122 120 115 112 110 108 106 104 104 103 103 102 102 101 99 98 98 96 95 93 92 90 88 87 85 83 81 79 78 75 74 74 73 77
59 59 60 60 61 61 62 62 63 63 65 66 65 66 67 68 69 70 74 76 77 78 79 81 81 83 86 84 84 85 86 89 92 94 96 98 101 103 105 106 107 110 112 113 114 117 117 116 110 107 104 102 102 100 100 99 99 98 97 97 95 93 93 92 90 89 87 85 84 83 81 80 78 77 76 74 73 71 71 74
59 58 59 59 60 61 61 62 62 63 64 64 65 65 66 67 68 69 71 75 77 78 78 79 81 82 82 82 82 84 85 87 90 91 92 93 95 97 99 100 101 104 105 106 109 117 118 114 105 102 100 98 97 96 96 95 95 93 93 92 91 90 89 88 86 85 83 83 82 80 78 78 77 75 74 71 69 67 67 71
59 58 58 58 59 59 60 61 62 62 63 63 64 64 65 66 67 69 70 73 75 76 77 79 80 81 79 79 80 81 82 83 86 86 88 89 91 92 93 95 96 96 97 100 103 108 109 106 101 98 96 93 93 93 92 91 90 89 88 88 88 87 85 85 84 82 82 81 79 78 77 76 74 71 69 67 66 66 66 72
58 57 58 58 59 59 60 60 61 61 61 62 63 63 64 64 65 66 68 70 72 73 75 77 77 76 76 76 77 78 79 80 81 83 83 85 86 87 89 89 92 93 93 98 101 104 104 103 97 95 93 92 91 91 90 88 87 87 86 85 84 83 82 82 82 80 80 79 77 75 72 70 68 68 68 67 67 67 66 72
58 57 58 58 58 58 59 60 60 60 60 61 62 62 63 64 64 65 67 68 69 70 71 72 73 73 73 73 75 75 76 77 78 79 80 82 83 84 84 85 88 89 92 97 100 103 104 102 97 93 91 90 89 88 86 85 84 83 83 83 81 81 80 79 79 76 74 73 71 69 69 69 70 70 70 69 69 68 67 72
55 55 56 57 57 58 59 60 59 59 60 60 60 61 61 63 63 63 64 66 67 67 68 68 69 70 71 71 72 73 73 75 76 76 78 79 80 80 81 82 85 87 91 97 101 107 104 101 96 91 88 87 85 84 83 83 82 80 79 77 77 75 73 72 72 71 70 70 71 71 71 71 71 71 71 71 70 70 68 71
55 55 56 56 57 57 57 58 59 59 59 60 61 61 61 63 63 64 65 65 66 67 67 68 68 70 71 71 72 73 74 73 75 76 77 78 80 80 83 84 86 88 91 96 109 136 138 122 95 90 88 87 84 82 79 79 78 76 75 73 73 73 73 73 74 75 74 74 75 76 75 74 75 75 74 74 72 72 72 89
