P2
80 80
255
115 109 108 110 112 114 117 119 120 120 121 122 126 127 129 132 134 135 138 140 139 142 144 146 147 149 151 155 157 158 158 159 162 164 166 167 169 170 170 172 172 173 173 173 174 175 176 177 177 177 176 175 173 171 171 168 167 167 167 167 165 163 162 160 158 157 156 154 153 151 150 149 148 146 145 145 144 142 141 152
101 100 101 102 106 107 109 109 112 113 114 116 119 119 121 123 125 125 128 128 129 130 133 133 134 136 138 142 143 144 144 145 148 149 149 151 152 153 155 157 158 159 159 159 161 164 165 164 164 163 163 164 162 161 161 161 159 158 157 156 156 154 153 152 148 147 144 143 142 141 139 139 139 137 134 133 133 131 131 144
102 101 104 105 106 108 110 110 112 114 115 117 120 120 123 125 124 126 128 131 132 133 135 137 138 139 141 142 144 146 148 149 150 152 152 154 154 156 158 158 160 161 162 162 165 166 166 166 165 165 166 166 166 166 166 164 162 163 160 161 160 160 158 156 155 153 150 148 147 146 143 142 141 139 138 136 134 134 132 147
103 101 103 105 107 109 111 112 113 115 117 118 119 120 122 125 127 129 130 132 135 135 138 139 142 141 145 145 147 150 150 153 154 155 156 156 156 159 160 161 161 164 164 166 166 167 168 169 168 168 167 165 166 166 165 163 163 164 164 163 161 161 159 158 157 156 154 154 150 148 146 145 145 142 140 139 137 136 133 148
104 101 104 105 107 109 111 112 114 116 117 119 120 121 123 124 123 124 124 126 129 128 129 130 131 131 132 132 133 134 135 137 137 138 137 140 142 143 143 145 146 148 148 149 150 152 153 154 153 154 155 156 158 159 160 163 165 167 166 163 163 162 162 159 158 158 156 155 153 152 152 151 148 146 143 142 139 138 136 150
101 100 103 105 107 109 110 112 113 114 112 112 112 112 113 112 114 115 118 121 125 126 128 129 130 133 134 135 136 137 139 139 140 141 141 143 144 145 146 146 146 147 147 148 148 148 147 146 143 141 141 140 141 141 142 143 145 147 150 149 152 155 155 156 158 158 157 155 154 154 154 153 151 148 147 144 143 141 140 153
100 100 104 105 104 104 104 104 106 106 108 112 114 117 119 122 124 126 128 129 132 132 134 135 137 137 137 138 140 142 143 142 145 146 147 148 146 148 149 150 150 151 151 153 153 154 152 151 149 148 146 145 145 146 147 148 147 146 147 146 144 141 141 139 141 143 145 148 150 152 154 154 152 152 150 147 146 146 143 157
99 96 97 97 99 102 106 110 113 115 118 119 122 122 124 125 127 128 131 130 132 133 135 137 139 139 139 140 142 143 143 144 147 147 148 148 149 150 151 150 152 152 153 154 155 155 153 153 151 149 147 146 146 147 147 150 150 150 151 150 147 145 142 141 141 139 140 138 138 138 141 144 146 151 152 150 148 148 145 158
82 92 102 105 108 110 112 113 115 117 119 120 122 123 125 126 129 129 131 132 133 134 137 140 138 140 141 143 144 145 146 148 148 149 149 150 152 152 152 153 154 156 156 157 158 157 155 155 154 150 148 146 147 148 150 150 152 152 150 149 145 144 142 142 143 142 142 143 142 140 140 138 137 135 138 141 145 148 145 159
68 93 107 107 109 110 113 114 116 118 119 121 122 124 126 128 130 130 132 135 135 137 139 140 141 142 144 145 146 146 147 148 149 151 151 152 153 154 155 156 157 159 159 160 160 159 159 157 155 153 151 148 148 150 152 153 152 151 149 149 148 146 144 144 145 143 143 143 143 143 143 141 141 139 138 136 135 134 134 151
64 91 107 108 110 111 113 116 117 118 121 123 124 126 128 129 130 133 134 135 137 138 140 142 141 143 144 146 147 148 149 149 151 152 153 154 156 158 159 159 161 162 162 164 163 162 161 159 157 155 154 154 151 152 154 154 153 153 151 150 150 149 147 147 146 145 144 145 146 145 144 143 142 141 139 138 136 135 132 143
63 91 107 108 110 113 113 115 119 120 122 123 125 127 128 131 132 134 136 137 137 140 142 142 142 145 146 148 150 150 152 152 154 155 156 158 158 159 159 159 161 162 163 163 164 164 163 163 161 158 158 158 156 156 157 156 155 154 153 153 152 151 149 149 148 147 146 148 149 148 146 144 143 143 140 139 138 137 134 146
65 90 108 109 112 113 115 117 119 121 123 125 126 130 130 132 132 135 137 138 138 139 143 145 146 146 147 149 151 151 153 155 156 157 156 153 158 160 159 161 162 161 161 167 169 168 166 165 164 162 161 162 161 160 147 156 156 155 156 156 154 154 152 149 149 149 150 151 151 149 149 146 145 144 142 141 140 137 135 147
69 90 108 110 113 114 116 117 119 122 124 125 126 124 125 130 134 136 137 140 125 86 100 120 139 147 150 150 152 153 155 152 139 116 95 105 159 162 162 163 165 138 93 117 145 165 170 169 167 166 166 167 156 114 85 139 160 156 158 157 155 128 133 149 152 151 151 152 152 152 151 149 148 145 143 142 141 139 137 148
72 89 109 111 113 116 117 118 121 118 92 85 79 83 79 101 136 137 137 142 113 88 108 92 79 92 126 152 153 153 121 88 85 88 88 93 151 164 164 164 167 115 97 81 76 85 119 163 172 170 169 138 89 76 81 107 161 160 160 160 147 78 83 94 122 145 155 155 154 151 143 133 126 143 145 145 142 141 139 151
74 89 110 112 114 117 118 119 122 116 78 93 81 115 91 85 135 138 140 143 105 86 130 119 88 80 101 154 154 155 96 92 85 90 100 105 137 166 166 167 164 104 109 117 102 49 73 163 174 169 113 59 89 120 56 74 152 163 161 161 124 92 119 68 62 97 155 157 136 96 84 64 72 139 149 146 144 140 117 140
77 87 110 113 114 117 119 120 122 121 81 85 94 108 82 81 133 139 140 143 99 76 65 67 87 77 111 157 156 160 119 90 61 83 127 84 114 167 167 170 156 103 130 132 109 61 95 175 177 171 89 94 135 109 95 82 127 165 165 161 97 74 107 83 74 107 160 159 124 81 89 69 69 133 149 145 127 91 79 122
78 85 110 113 114 118 120 121 123 125 79 73 80 66 64 73 129 140 141 142 96 103 59 84 98 77 122 158 158 161 144 77 73 85 130 74 93 167 169 172 143 101 124 127 99 59 125 179 178 178 132 89 135 89 79 72 95 164 165 152 72 84 84 106 102 139 163 160 134 90 97 114 87 128 152 132 88 102 83 98
78 83 109 115 116 118 120 122 124 126 91 75 68 81 92 84 123 141 144 142 87 101 78 82 75 58 133 159 160 162 160 99 104 121 116 90 85 158 173 175 123 66 116 108 92 62 154 181 180 181 164 95 157 132 85 77 135 168 168 129 63 109 102 107 94 161 164 163 142 91 100 89 72 121 153 138 87 110 76 77
80 81 106 114 116 119 121 123 124 128 100 53 64 70 84 74 117 143 144 145 122 96 79 87 76 62 141 161 161 163 168 117 68 105 77 83 116 165 177 176 150 103 99 95 56 80 175 183 183 182 182 120 81 89 111 163 178 174 171 156 124 99 83 65 119 170 168 167 149 85 76 58 71 128 155 148 101 86 92 73
80 79 104 114 116 119 121 124 125 128 121 100 101 106 109 114 132 144 145 149 152 151 144 127 105 98 151 162 164 166 169 147 90 114 145 164 174 176 177 181 181 179 167 143 110 130 186 187 187 186 186 158 93 146 182 183 182 181 177 177 178 171 150 125 159 172 170 169 157 106 111 133 149 157 155 154 118 60 72 118
81 78 101 116 118 121 123 125 126 129 131 134 136 138 140 142 143 144 146 150 151 153 156 158 160 159 161 164 167 169 170 170 168 175 177 176 178 179 180 183 184 186 187 188 188 188 189 190 190 189 188 184 183 190 187 186 185 184 183 182 181 180 178 179 176 175 172 171 168 166 166 165 164 161 158 156 139 102 132 163
80 77 98 116 118 122 123 126 127 129 131 134 135 138 139 142 143 146 148 151 151 154 156 158 161 162 164 166 169 172 172 173 176 177 178 179 182 182 183 186 187 187 188 190 191 191 192 192 191 192 190 191 191 190 189 188 188 188 187 185 184 183 184 180 178 176 175 174 171 172 168 166 165 162 160 157 155 154 152 165
80 77 92 116 118 121 124 126 127 130 132 135 136 139 143 143 146 147 150 151 153 155 158 160 164 164 166 168 170 173 174 175 179 180 181 184 185 184 186 188 191 191 192 195 195 196 195 195 196 195 197 197 195 196 196 193 191 191 190 188 190 180 155 179 182 179 177 177 174 154 168 169 167 165 162 159 158 154 152 167
80 77 88 113 119 121 124 126 128 131 133 136 130 95 121 144 147 149 151 152 156 158 151 104 131 165 170 171 172 176 176 180 183 180 168 154 179 188 190 190 193 190 187 187 185 187 195 199 198 196 178 167 163 159 158 186 195 193 195 191 162 117 94 160 186 182 181 181 150 72 112 167 171 168 166 163 140 110 150 170
81 78 83 111 120 122 125 127 129 132 134 137 112 54 57 90 130 149 152 154 156 160 130 95 104 105 150 173 175 177 178 165 140 111 99 68 152 194 192 196 182 112 106 100 98 109 190 203 203 191 92 90 93 95 98 174 199 197 184 128 112 138 125 132 189 185 184 171 99 109 90 104 159 170 169 142 91 81 124 174
81 77 80 107 120 122 126 127 129 132 135 136 88 58 58 48 63 101 142 156 158 159 100 94 134 81 65 118 168 179 179 99 82 110 136 67 124 196 196 200 173 119 164 108 101 116 190 206 206 182 100 126 133 167 114 185 202 195 116 86 109 98 113 118 182 189 186 120 69 154 98 69 125 174 146 89 68 94 96 163
82 78 79 101 120 122 125 128 131 133 136 127 75 101 106 90 106 84 119 157 160 144 96 121 111 84 81 58 149 183 186 123 113 154 135 123 116 189 200 204 177 117 158 150 83 97 198 209 212 179 95 90 121 101 98 199 206 202 133 69 124 89 91 88 165 195 155 64 116 122 95 91 165 174 109 108 135 122 75 150
84 78 78 95 120 123 126 129 131 133 137 110 72 79 97 117 111 82 141 158 163 121 74 155 144 111 117 89 172 185 189 160 93 99 137 166 84 174 204 207 182 76 135 167 117 95 206 214 215 169 140 152 95 93 123 208 209 208 176 80 129 108 87 123 186 196 165 90 91 65 76 152 182 177 151 98 121 106 116 177
88 78 78 87 117 123 125 128 130 132 136 125 91 74 90 112 109 98 152 159 161 147 99 102 111 116 89 128 185 186 189 184 115 128 130 110 59 156 208 209 181 98 118 135 110 117 211 216 219 163 120 144 130 89 140 216 212 211 202 114 95 126 167 202 200 197 195 179 112 59 123 186 182 179 174 123 94 119 162 180
92 79 77 82 112 122 126 128 130 133 137 140 141 124 88 60 65 127 157 161 162 167 168 141 98 107 98 165 187 189 190 195 137 109 102 123 159 195 209 211 197 133 132 129 135 168 218 221 221 198 169 174 180 185 207 218 215 216 214 168 151 202 210 206 204 201 200 197 189 158 182 190 186 184 180 164 136 169 168 183
96 81 77 78 107 122 126 130 131 134 136 140 142 146 146 126 105 146 159 161 165 169 170 175 173 139 134 185 189 192 194 197 183 165 192 206 210 210 212 214 219 220 221 223 225 226 225 226 224 225 227 228 228 228 225 222 220 219 216 216 217 213 211 208 207 204 203 202 198 198 194 191 188 186 183 180 178 174 171 187
98 83 77 77 98 122 126 128 131 134 137 140 142 145 144 150 156 157 160 163 165 169 172 174 177 184 185 187 190 192 196 198 202 206 208 209 210 212 215 218 222 224 227 226 228 228 227 228 228 229 229 229 232 229 226 226 224 222 225 223 221 221 216 212 211 209 206 203 204 201 198 194 190 190 189 185 183 178 173 189
97 87 77 76 89 121 126 129 131 135 136 140 144 146 149 152 154 159 161 164 166 171 175 177 179 183 188 191 190 195 198 200 204 208 211 208 215 217 221 224 226 227 216 230 234 233 233 235 235 237 235 225 202 215 233 231 230 222 203 196 190 184 205 218 216 215 165 111 144 170 192 198 196 171 128 127 124 158 177 192
97 91 79 76 82 116 126 129 132 135 138 140 143 147 151 128 94 139 164 165 168 172 175 180 180 171 148 146 192 199 202 204 209 206 156 110 202 223 224 227 233 205 92 138 215 241 240 240 233 201 167 128 105 174 239 238 237 173 97 96 107 124 179 225 221 209 100 130 156 95 141 202 197 143 103 77 83 150 181 196
96 94 83 76 78 109 126 130 133 135 139 143 144 148 135 84 66 76 129 166 171 174 171 132 106 79 80 92 170 204 204 206 180 104 103 121 140 226 227 231 233 147 106 120 113 163 235 248 194 124 161 132 95 153 243 242 238 158 145 127 99 114 202 229 226 174 103 152 175 111 174 208 196 122 92 98 127 170 183 199
97 94 87 76 75 99 126 129 132 135 139 142 145 138 96 87 75 80 79 116 164 174 173 99 89 106 132 65 127 206 208 187 106 110 134 152 79 187 233 237 193 129 167 154 111 96 234 254 213 124 112 145 121 144 243 246 237 147 130 152 133 111 221 233 220 113 93 141 164 138 207 210 185 118 98 71 111 186 184 201
95 94 92 78 75 89 123 129 134 135 138 142 146 114 87 91 111 119 109 64 125 176 180 147 115 116 98 79 105 190 209 209 140 158 143 94 83 116 230 237 144 121 217 225 98 190 255 254 235 143 115 136 118 139 244 251 232 120 105 130 129 154 234 236 213 128 100 110 126 179 216 213 179 114 108 90 143 193 187 204
95 94 94 83 75 80 116 129 132 136 139 142 144 143 109 72 115 114 89 89 160 176 180 177 103 122 165 109 96 165 213 215 203 95 75 79 118 188 235 242 216 155 167 186 153 249 255 255 253 132 91 128 179 228 253 253 241 181 174 176 181 215 242 239 236 230 213 184 175 218 218 215 207 198 195 196 197 195 190 205
94 92 95 88 75 75 106 128 131 135 139 141 144 148 152 130 102 91 90 153 174 176 181 185 142 81 122 140 170 200 212 214 223 178 99 162 222 243 241 245 250 251 214 162 227 255 255 255 255 231 236 255 255 255 255 254 255 255 255 255 255 249 244 241 239 238 237 233 229 223 220 218 216 213 208 204 200 197 192 206
93 91 94 92 78 74 93 125 131 134 137 141 144 148 151 157 145 115 145 170 171 176 180 185 184 177 191 203 206 210 213 218 222 221 217 234 237 242 245 248 251 254 255 255 255 255 255 255 255 255 255 255 255 255 255 255 255 255 255 255 254 250 247 244 244 238 211 230 232 227 225 221 202 200 212 209 203 199 194 208
92 90 93 94 82 74 83 120 130 133 137 139 143 147 150 155 158 164 166 170 172 176 180 186 189 195 200 203 206 210 215 220 224 229 235 239 243 246 248 251 254 255 255 235 254 255 255 255 255 235 210 255 255 255 255 255 255 243 214 173 219 254 252 251 243 179 107 170 235 231 229 212 136 138 132 172 207 203 196 210
91 89 92 93 87 75 76 112 130 131 136 139 143 146 150 153 158 162 150 155 173 177 181 184 189 182 147 184 210 215 215 221 223 201 195 196 193 227 252 254 255 237 183 108 204 255 255 255 250 144 113 130 214 252 255 242 176 141 124 110 184 255 252 240 176 112 91 99 191 236 231 168 128 157 86 150 211 205 199 212
91 89 90 93 91 78 73 100 130 131 136 139 143 146 150 155 152 119 86 97 159 177 180 184 191 139 110 85 130 187 215 224 215 112 104 109 114 179 255 255 201 139 186 123 134 245 255 255 198 139 187 87 113 223 255 235 133 143 164 130 174 255 251 164 135 136 107 133 154 234 217 141 112 123 119 201 210 206 200 213
91 89 90 92 92 83 72 88 124 130 134 137 140 145 148 132 96 100 125 93 99 167 181 186 175 98 126 92 111 110 191 227 219 123 113 141 123 169 255 255 182 94 155 193 95 182 255 233 157 192 154 106 156 252 255 247 170 187 94 79 154 255 255 204 104 112 132 151 227 239 198 120 126 130 172 216 212 207 199 211
89 89 90 91 92 88 74 79 116 128 131 134 138 143 147 119 85 119 129 132 112 116 173 186 136 90 117 155 113 116 214 226 225 119 133 164 131 177 255 255 248 137 182 177 155 224 255 248 201 143 98 151 243 255 255 255 159 116 138 180 229 255 255 255 196 104 180 241 241 239 232 216 191 169 208 215 212 207 200 201
89 88 89 90 91 91 79 73 103 126 129 132 137 141 143 147 120 115 119 105 95 117 172 184 166 128 102 120 126 179 223 227 229 152 131 132 153 208 255 255 255 224 167 212 254 255 255 255 255 246 191 220 255 255 255 255 242 241 255 255 255 255 255 255 254 233 244 244 240 238 235 235 233 226 221 216 213 209 200 189
88 87 88 89 90 91 84 72 92 122 127 131 134 139 142 145 148 119 100 100 141 172 178 181 187 194 180 152 149 211 220 226 230 234 238 246 253 255 255 255 255 255 255 255 255 255 255 255 255 255 255 255 255 255 255 255 255 255 255 255 255 255 255 255 243 240 248 244 241 238 237 218 189 220 220 216 212 208 196 177
87 86 87 87 88 90 87 74 81 115 124 128 131 137 141 143 149 150 136 156 167 172 176 181 185 192 198 204 211 212 218 225 232 238 245 249 251 255 255 255 255 254 236 255 255 255 255 255 255 251 230 228 255 255 255 255 241 210 179 238 255 255 255 230 156 148 227 242 237 225 172 108 118 199 220 215 211 209 186 169
85 83 86 87 86 88 89 78 74 105 121 125 129 134 137 141 145 150 157 160 164 171 174 178 183 189 198 189 161 202 216 225 233 241 224 164 172 252 255 255 255 202 123 186 221 253 255 241 179 133 158 164 251 255 250 165 172 143 79 203 255 253 206 156 172 130 130 225 229 133 95 110 125 171 218 213 210 206 172 165
84 82 84 87 86 87 88 83 71 93 117 122 126 129 134 137 142 140 133 132 131 131 161 176 180 184 151 105 91 144 214 223 226 180 128 135 161 193 255 255 241 144 153 170 132 213 255 230 108 158 169 128 235 255 251 157 181 197 153 186 255 237 110 127 157 151 125 210 227 137 115 167 160 172 210 209 206 197 158 160
82 81 83 84 85 86 87 86 74 82 111 117 121 126 130 134 138 109 76 76 72 60 136 173 175 128 98 125 121 95 162 220 217 141 153 168 158 104 233 255 192 170 188 189 168 245 255 251 126 183 205 146 214 255 255 170 148 169 156 188 251 247 196 118 102 146 212 223 222 181 97 142 188 207 203 201 200 183 148 156
80 79 81 83 84 86 85 86 78 75 103 114 118 122 126 128 133 113 91 81 72 73 124 167 171 146 108 143 165 117 130 210 224 201 138 109 144 178 243 255 240 205 158 125 226 255 255 255 185 178 205 222 248 255 255 214 163 198 228 241 245 239 236 188 156 212 219 214 212 205 186 202 203 199 197 197 192 166 140 150
79 78 80 82 83 84 84 85 82 73 92 110 113 116 121 123 129 120 79 72 80 82 107 160 165 172 138 121 118 143 194 210 217 225 178 147 213 255 255 255 255 255 240 219 255 255 255 255 253 253 255 255 255 255 255 255 255 255 252 244 239 232 227 226 221 213 209 206 204 200 193 188 194 191 189 186 181 150 135 144
78 78 79 80 82 83 84 84 84 74 82 105 108 112 116 119 124 122 93 92 103 108 130 154 160 165 168 143 162 190 197 203 210 218 228 239 253 255 255 255 255 255 255 255 255 255 255 254 253 250 248 250 252 253 248 241 235 230 232 233 228 218 175 168 181 193 197 191 164 144 110 136 183 180 177 175 163 137 130 138
77 77 78 79 80 82 83 83 84 78 75 98 105 108 110 113 117 121 124 129 135 140 144 148 153 158 164 170 174 182 189 196 204 209 213 216 223 232 254 255 255 215 197 206 226 250 253 226 167 156 163 181 240 243 211 155 155 133 159 224 218 190 147 134 114 133 187 169 95 123 112 127 172 168 164 162 145 129 125 134
76 76 77 77 80 80 82 83 82 81 73 90 101 104 106 109 113 116 119 124 117 120 135 141 146 151 156 127 113 142 169 185 195 186 118 122 100 137 245 255 250 175 161 129 133 226 243 198 137 155 153 156 222 230 190 146 179 145 165 216 207 143 139 107 103 151 179 160 97 104 119 131 161 157 154 149 132 123 119 124
75 75 76 77 77 79 81 82 82 82 74 81 96 100 102 105 107 110 115 106 68 79 108 128 137 144 136 83 89 104 97 152 185 172 111 126 86 130 233 253 234 173 150 162 159 228 230 185 108 106 107 141 211 215 176 136 169 163 183 210 197 130 123 112 115 167 167 155 101 113 136 148 149 147 143 136 120 116 111 118
75 73 75 75 77 78 79 80 82 81 77 76 91 95 97 100 103 106 100 79 69 70 79 91 126 135 101 79 96 89 82 154 174 168 103 116 119 129 222 243 227 187 153 142 178 222 215 188 141 129 120 157 196 200 184 167 182 187 196 199 192 182 168 150 152 160 155 152 147 147 145 141 137 134 131 121 111 109 105 112
74 72 74 74 76 77 78 79 80 80 79 73 86 92 94 96 100 102 88 73 71 78 76 92 124 126 107 101 94 75 119 157 164 163 126 138 155 175 214 228 233 233 221 199 204 208 202 194 187 184 182 181 181 181 182 186 187 188 188 185 179 172 167 160 155 147 143 140 137 133 131 128 124 121 118 110 107 104 102 108
72 71 73 73 75 76 77 78 79 79 79 74 79 88 91 93 95 98 100 92 77 68 86 114 120 122 127 125 116 110 139 148 153 158 166 173 183 194 205 216 222 224 219 212 202 194 186 180 176 170 167 167 164 162 163 165 167 168 170 169 164 158 151 145 139 134 130 127 124 122 118 116 113 110 108 106 103 101 98 105
71 71 71 72 73 74 76 77 78 79 78 77 75 86 88 90 92 95 97 100 98 92 106 112 114 116 120 124 127 131 134 139 144 148 153 161 169 178 188 199 205 205 202 195 185 177 169 163 157 153 150 149 147 147 147 149 149 152 153 151 148 143 137 132 128 123 120 117 114 113 112 110 108 106 104 103 100 99 95 100
70 70 71 72 72 73 74 75 76 78 78 77 74 82 85 87 88 90 93 96 98 101 103 105 108 110 113 115 118 122 124 127 132 135 140 145 151 159 168 176 182 182 179 174 166 158 152 147 143 139 137 135 133 133 131 132 130 130 130 128 126 123 119 117 116 114 112 111 110 109 109 107 105 104 102 99 98 95 92 97
69 68 70 71 71 73 73 74 75 76 76 77 73 77 82 84 85 88 89 91 93 95 98 100 101 103 106 108 110 113 115 117 121 122 126 129 133 139 142 144 147 146 144 140 138 135 134 132 131 129 127 126 125 123 121 122 121 120 119 118 118 117 115 114 112 112 110 110 108 107 106 104 103 101 100 97 94 92 89 93
68 68 68 69 70 71 72 72 73 74 75 76 75 75 80 81 82 83 85 86 88 90 93 95 97 99 101 102 103 104 108 109 111 114 115 117 120 121 124 125 126 127 129 129 129 130 129 128 128 126 125 123 121 121 121 120 118 118 117 116 115 115 113 113 110 110 109 107 106 105 103 102 101 100 97 96 93 91 88 91
67 66 67 68 69 69 70 71 72 73 74 76 75 75 78 78 79 80 81 83 84 86 89 92 95 97 98 98 100 103 105 104 108 110 113 115 116 119 121 122 124 125 127 126 128 126 126 124 124 123 122 120 119 118 118 116 115 115 114 114 113 111 112 110 109 108 107 106 105 104 103 102 100 99 96 93 92 88 85 89
66 65 66 67 67 69 69 70 71 72 73 74 74 75 76 77 78 79 81 82 84 86 90 93 95 97 98 98 98 100 102 103 106 107 109 112 114 116 118 119 120 123 123 123 124 124 124 123 122 120 119 118 117 116 115 114 112 112 112 112 109 109 109 109 109 107 106 106 105 102 101 100 98 96 94 91 89 86 84 87
65 63 65 65 66 67 68 69 70 70 71 72 73 75 75 76 77 78 80 82 84 87 89 91 93 95 96 98 97 97 98 101 103 104 106 108 111 113 116 117 119 120 121 122 123 123 123 123 121 119 118 117 115 114 113 111 111 110 110 109 108 108 108 107 107 105 105 104 102 102 100 99 98 96 94 91 88 85 82 86
63 63 64 64 65 66 67 68 68 70 70 71 72 72 73 74 76 77 79 82 84 86 87 89 91 92 93 97 96 95 96 98 101 102 104 107 109 111 114 116 119 120 121 123 123 122 122 122 121 118 117 114 113 112 110 109 108 109 109 107 106 106 106 105 105 105 104 103 103 102 100 99 97 94 92 88 86 83 80 84
62 61 62 63 64 64 65 66 67 68 70 70 70 71 72 73 74 75 77 80 82 84 86 86 88 90 91 94 94 93 93 95 99 100 103 105 108 111 113 115 118 119 120 121 120 120 119 119 118 117 114 112 112 110 107 107 107 107 106 105 105 105 105 105 104 105 104 103 101 99 97 95 93 90 87 84 82 79 77 81
61 61 61 62 63 63 64 65 65 67 68 69 68 70 71 72 72 73 76 79 81 82 84 85 85 88 89 92 90 91 92 93 95 98 102 104 105 107 110 113 115 116 117 118 119 120 120 119 117 115 114 112 111 108 107 106 105 104 104 104 104 104 104 104 103 102 101 99 97 95 93 90 88 86 83 80 79 77 75 79
61 61 61 62 62 62 64 64 64 65 67 68 68 68 69 71 72 72 75 78 79 80 81 82 84 85 87 89 89 89 90 92 94 96 99 101 104 106 110 112 113 115 117 119 120 122 122 120 119 116 113 111 109 107 106 105 105 104 104 103 102 102 101 100 99 97 95 94 93 90 88 86 83 82 80 77 75 75 73 78
60 60 60 61 62 62 63 63 64 65 66 67 67 68 69 69 70 71 73 76 78 79 80 81 82 84 87 87 87 87 88 91 93 95 98 101 103 106 109 111 114 115 116 118 117 121 121 120 116 113 110 108 106 103 103 103 103 102 101 100 99 98 96 96 94 93 92 89 88 86 84 82 80 79 77 75 74 73 73 76
60 59 60 60 61 62 62 63 63 64 65 66 66 66 68 68 69 70 74 76 78 78 79 80 81 83 86 84 84 85 88 90 92 94 96 99 101 103 105 106 107 109 110 112 112 115 117 116 112 107 104 103 101 100 99 99 99 97 97 96 95 94 92 92 90 88 87 85 83 82 80 79 77 76 75 73 72 70 69 73
60 59 59 59 61 61 61 62 62 63 65 64 65 66 67 68 69 70 72 75 76 77 78 79 80 83 83 82 82 84 86 87 89 92 93 94 96 97 99 100 102 102 104 106 106 113 118 114 108 103 100 98 98 96 95 95 95 92 92 92 91 89 88 87 86 84 83 83 80 80 77 77 76 74 72 69 68 67 66 72
59 58 58 59 60 60 60 61 62 62 63 63 64 64 65 67 67 68 70 73 75 76 77 79 80 80 79 79 80 81 83 84 86 87 89 89 91 92 93 95 96 97 98 99 101 105 109 106 103 99 97 94 93 93 92 92 90 89 88 87 87 86 84 84 83 82 81 81 80 78 76 74 72 70 68 67 66 66 67 73
59 58 58 58 59 60 60 60 61 62 61 62 62 63 64 65 66 66 67 70 72 74 75 76 77 76 76 77 77 78 79 80 82 84 84 85 86 87 89 90 91 92 93 97 99 102 105 104 99 96 93 91 91 90 89 89 87 86 86 85 83 82 82 82 81 81 79 78 76 73 71 69 68 69 69 68 68 68 67 73
58 57 58 58 58 59 59 60 61 60 61 61 62 62 63 64 64 65 66 68 69 70 72 73 73 74 73 74 74 76 77 77 78 79 81 82 83 84 84 86 87 89 92 95 100 102 104 105 101 95 92 90 89 87 86 86 85 84 83 82 81 81 79 78 77 75 72 72 71 70 70 70 71 71 71 70 70 68 68 73
57 56 57 57 58 58 59 59 59 59 59 60 61 62 62 63 63 64 64 66 67 67 69 69 69 71 71 71 72 73 74 75 76 76 77 78 80 81 82 83 85 86 90 95 99 106 106 103 100 93 89 88 86 84 83 82 81 80 78 77 75 73 72 71 72 72 71 71 72 72 72 71 71 71 72 71 70 70 69 72
55 55 56 56 58 58 58 59 59 59 59 60 61 62 63 63 63 64 65 66 66 67 68 69 69 70 70 71 72 73 74 74 76 76 77 78 79 80 82 84 85 87 89 95 102 125 138 130 104 92 89 87 84 81 79 78 77 75 75 74 74 74 74 74 75 76 75 75 75 77 77 76 75 75 75 75 73 74 73 89
