P2
80 80
255
114 109 108 110 112 114 117 118 121 122 123 125 126 128 130 133 135 135 138 138 138 142 143 146 149 150 152 154 157 157 159 160 163 163 165 166 166 169 171 172 171 172 175 175 177 178 177 178 178 177 175 173 174 173 172 172 172 171 172 171 168 167 165 163 160 158 157 157 154 152 150 149 148 148 147 143 141 140 140 151
102 100 101 104 106 107 108 107 111 113 114 117 117 120 123 124 125 126 128 128 130 133 133 136 138 140 142 143 143 145 146 147 149 150 152 155 154 154 159 159 159 161 161 164 164 165 165 164 165 166 162 163 162 162 162 162 160 161 160 159 159 157 156 154 152 151 149 148 145 144 142 141 139 139 137 134 133 131 129 142
104 101 102 105 106 109 111 113 113 114 116 119 120 122 125 126 127 129 129 131 132 133 134 135 137 141 143 143 143 145 147 149 149 150 151 153 155 156 159 160 160 162 164 165 168 168 167 168 167 167 165 167 165 164 161 164 164 163 162 162 162 161 160 158 156 154 154 151 149 148 146 145 143 141 140 137 135 134 132 146
103 101 102 106 108 110 111 112 114 114 116 120 121 123 124 125 126 128 129 131 133 135 136 137 138 141 143 145 147 149 150 152 152 154 156 158 159 159 161 163 163 164 166 167 169 171 170 169 168 167 166 167 166 164 165 166 167 166 163 163 163 162 160 160 159 157 155 154 153 151 150 149 146 144 142 140 139 138 134 149
104 102 105 106 109 109 110 113 113 115 118 119 120 123 125 127 127 131 132 135 136 138 140 141 143 143 143 146 147 148 148 149 149 147 148 149 148 148 149 149 149 149 149 149 150 151 149 147 148 148 147 147 146 149 150 152 153 153 154 156 157 156 157 158 157 156 156 155 153 152 152 152 151 146 145 144 142 140 137 151
104 102 104 107 109 110 112 113 115 117 118 120 121 122 125 126 128 128 130 132 131 131 131 131 131 130 130 132 131 133 135 136 137 138 142 142 142 144 144 145 145 146 147 148 149 149 148 148 147 145 143 143 143 144 145 144 144 144 144 143 141 142 141 141 141 143 143 145 147 149 152 153 152 148 149 147 145 144 143 155
104 102 104 106 108 110 111 112 115 116 117 119 118 117 116 117 117 117 119 123 126 127 131 132 134 136 137 138 139 141 144 143 145 146 147 147 148 149 149 150 150 152 153 153 153 154 153 152 150 149 147 145 145 147 148 149 149 150 150 150 148 146 144 142 142 141 140 137 136 136 136 138 139 142 145 147 146 146 142 156
103 100 103 106 108 108 110 110 110 109 108 110 113 114 117 121 124 127 129 131 133 135 136 138 139 140 140 142 143 144 145 145 147 148 148 149 150 150 151 151 152 153 155 155 155 155 154 153 151 149 148 146 145 147 149 150 150 151 151 150 148 145 143 141 143 142 142 141 141 140 139 138 136 134 133 134 135 138 138 155
101 99 102 103 102 102 103 105 108 111 116 120 121 124 125 126 129 130 132 133 134 135 138 140 139 140 141 143 145 145 146 148 148 149 150 152 153 153 153 154 154 156 158 157 158 158 157 156 153 152 149 146 148 149 150 151 152 152 150 148 145 144 143 142 142 143 143 142 142 141 141 140 140 138 137 134 134 132 129 142
97 92 96 99 103 107 111 114 116 118 120 122 123 124 125 128 130 131 133 135 136 138 139 140 140 143 144 144 147 148 150 149 151 151 152 154 155 155 156 156 157 158 159 160 160 159 160 158 155 154 152 150 149 151 152 153 152 152 151 151 148 145 144 145 144 143 143 143 144 143 143 142 141 140 138 137 136 133 131 143
86 75 98 108 110 110 113 115 117 119 120 122 124 126 128 129 132 132 135 136 137 138 140 142 142 145 146 148 148 149 150 151 152 153 154 156 158 158 159 160 160 161 161 162 163 163 162 160 158 156 155 154 152 153 155 155 154 153 153 152 151 149 147 147 146 146 145 146 146 145 144 145 143 141 140 138 137 135 132 145
76 67 96 108 109 112 114 116 118 120 122 124 125 127 128 130 132 134 136 137 139 141 142 143 144 146 147 148 149 150 151 152 154 153 156 158 159 160 161 162 163 162 162 164 166 165 164 163 161 160 158 157 158 158 158 156 156 156 154 153 153 152 150 149 147 147 147 148 149 148 147 145 144 143 141 140 138 137 134 147
68 63 94 109 111 112 114 116 118 121 123 125 126 128 130 132 134 136 137 138 140 142 143 144 147 148 148 150 151 153 153 155 157 158 158 158 159 161 161 162 161 165 166 168 168 168 166 166 164 163 161 164 149 118 153 158 158 158 156 156 148 142 149 151 150 149 149 150 151 150 149 147 147 144 142 141 139 138 134 148
64 63 92 110 112 113 115 117 120 122 124 125 126 128 132 134 135 137 137 139 136 141 145 147 148 149 150 151 152 154 156 153 139 115 143 162 161 163 163 163 112 104 130 152 167 172 169 169 168 169 166 130 85 80 128 162 160 158 159 160 114 76 101 122 142 150 152 152 152 153 148 140 128 132 143 141 141 139 137 151
67 67 91 109 112 115 116 118 120 122 126 127 128 127 128 132 136 138 139 136 88 90 104 124 139 148 152 153 153 143 119 97 78 81 115 165 164 164 165 157 95 89 80 73 92 132 173 171 171 157 102 78 85 69 90 159 161 159 160 154 92 103 87 62 76 116 155 155 144 108 91 76 59 101 146 144 142 142 139 130
73 71 90 110 112 115 117 119 122 123 103 91 84 85 81 117 138 139 141 130 88 122 108 77 78 115 154 155 146 88 75 101 87 107 101 161 166 166 167 145 102 101 129 70 49 104 174 175 158 81 59 114 127 63 66 139 165 163 163 140 72 107 107 77 60 113 158 157 132 78 88 70 58 89 145 145 143 129 93 82
77 74 89 110 113 116 118 120 122 122 84 89 83 114 83 103 139 139 141 128 75 108 107 91 81 105 155 156 154 99 101 62 95 125 87 150 169 169 171 130 113 123 129 93 55 132 177 176 165 80 115 132 90 96 89 104 165 165 166 116 61 94 78 100 87 140 161 159 141 84 93 109 97 89 142 148 127 86 94 98
79 75 87 110 114 116 118 121 124 126 91 82 95 105 79 94 140 140 144 123 84 65 66 88 82 116 158 157 160 120 72 57 106 108 60 131 171 170 172 114 118 126 124 82 64 157 180 178 179 123 87 147 104 81 61 86 162 168 160 84 74 110 95 118 99 160 163 161 149 96 95 99 90 80 139 150 131 84 111 90
80 77 85 109 115 118 120 121 123 127 96 69 80 65 66 86 137 141 147 118 99 81 71 92 67 124 159 159 162 145 92 94 121 120 88 107 172 174 172 89 85 114 106 77 81 176 181 181 182 161 96 155 122 82 100 155 171 170 156 90 86 92 95 68 121 168 165 164 157 92 91 71 56 69 137 152 146 95 86 103
83 78 83 108 116 119 120 121 124 127 108 73 69 82 97 87 133 143 146 119 83 85 82 85 57 133 161 161 163 162 97 91 120 68 79 116 173 176 173 121 91 102 86 50 109 187 184 185 184 183 118 67 89 133 176 179 176 174 170 164 147 123 96 82 154 171 167 167 161 104 81 90 112 134 152 152 150 119 67 71
85 78 81 105 116 119 121 123 125 128 118 64 63 72 81 82 130 146 147 145 129 111 96 83 66 141 163 163 165 168 124 68 100 128 155 172 177 178 178 180 174 154 130 103 151 189 187 188 186 189 162 111 165 188 183 182 182 180 179 180 179 178 171 165 173 172 171 168 166 152 151 162 162 159 156 155 153 137 78 104
86 79 79 101 116 119 122 125 126 129 128 116 114 121 125 131 140 145 149 151 154 155 153 146 136 154 164 166 168 170 165 153 169 176 178 178 181 181 182 184 185 187 188 186 189 192 191 191 190 189 187 189 191 188 187 186 186 186 184 182 182 181 180 178 177 175 173 172 169 168 167 165 163 161 159 157 156 150 140 164
88 80 79 96 117 120 122 124 127 130 131 134 136 139 140 143 145 147 149 151 153 156 157 160 163 163 165 168 170 172 174 175 177 178 181 181 183 184 185 187 188 188 190 190 193 194 194 193 193 193 192 192 191 191 190 190 187 187 187 185 185 185 183 179 178 176 176 174 171 171 170 167 164 163 163 159 156 154 154 166
91 80 78 92 116 121 123 125 127 130 132 133 136 140 140 143 145 147 150 151 154 157 159 162 164 166 168 170 172 173 175 177 180 181 184 185 186 187 189 190 190 191 193 196 197 197 196 197 197 198 198 199 197 197 195 193 191 190 190 192 187 145 129 182 182 180 179 178 176 133 124 167 169 165 163 161 159 156 135 161
95 82 79 87 114 121 123 124 127 130 133 135 137 130 141 146 147 150 152 153 156 159 140 144 166 169 170 172 174 176 179 182 181 175 167 185 190 190 191 192 191 189 188 187 190 199 200 200 198 172 158 154 146 141 173 197 195 195 196 171 119 115 99 166 187 182 181 181 157 80 67 109 158 168 166 162 162 128 87 129
96 85 79 83 111 121 123 126 128 132 134 136 131 76 85 126 149 152 154 155 158 158 102 93 119 159 173 175 176 176 173 153 127 101 80 170 193 193 196 171 112 107 103 99 118 198 204 204 190 87 91 92 100 99 155 201 198 189 140 91 136 132 120 132 188 184 184 177 94 111 134 83 92 150 169 165 127 72 80 91
98 88 80 80 105 121 124 127 129 131 134 138 118 57 48 57 92 134 154 156 160 142 88 137 99 77 131 171 180 177 107 82 100 125 62 142 197 195 200 159 123 152 101 106 119 198 207 207 183 99 130 126 178 111 170 204 203 156 87 88 118 76 120 111 181 188 186 127 62 123 135 74 70 147 173 130 85 85 100 101
98 91 82 79 98 121 123 126 129 132 134 137 97 83 92 70 81 84 137 158 160 120 96 108 89 73 57 135 182 184 116 111 156 133 112 122 195 199 204 166 122 162 141 81 105 204 210 211 182 95 90 116 106 78 184 207 204 186 86 80 130 74 96 78 166 195 166 67 92 128 96 87 123 175 171 122 101 137 137 94
98 94 83 79 92 120 124 128 129 131 135 131 82 85 99 113 113 89 143 160 157 89 123 159 106 126 77 153 183 188 159 94 103 138 162 90 183 203 206 171 75 144 164 109 100 210 214 216 174 136 161 101 96 105 194 210 208 206 129 90 144 97 95 145 190 195 183 130 87 66 55 98 174 179 174 164 104 103 109 110
98 95 86 79 86 116 125 127 129 131 135 132 91 71 95 118 108 101 154 159 159 109 91 127 114 102 104 177 185 189 183 114 122 135 114 57 162 207 208 174 96 120 140 111 118 213 216 219 170 115 145 132 99 109 210 214 212 211 181 85 101 140 186 205 202 199 197 194 162 91 76 163 185 180 178 175 147 94 103 171
98 95 89 80 80 109 125 127 129 132 135 138 138 117 83 65 75 127 158 161 165 167 147 102 101 104 137 186 188 190 195 137 112 100 115 150 193 209 212 190 128 128 125 130 166 221 220 222 202 170 173 180 186 202 220 218 216 215 208 153 177 211 209 207 205 202 199 196 196 183 170 188 185 184 181 178 172 144 158 186
97 96 93 81 78 101 124 127 130 132 134 138 142 146 143 117 96 145 159 163 165 168 173 172 146 117 171 189 189 192 196 183 156 185 204 210 209 210 213 216 217 220 222 224 226 225 225 226 226 228 227 228 228 227 223 221 220 219 218 218 216 213 211 210 208 205 203 202 199 197 196 191 187 186 183 180 177 176 173 188
97 95 96 84 77 92 122 127 130 132 136 139 141 146 144 151 154 157 161 163 166 169 172 175 180 182 186 188 191 196 197 200 206 206 207 211 213 214 216 219 222 225 226 227 228 228 229 230 228 229 230 231 231 229 226 226 225 224 224 223 221 220 216 213 211 209 206 202 201 203 199 194 192 190 187 185 184 180 176 191
96 94 96 88 78 85 118 127 130 134 136 140 142 145 149 152 155 159 161 164 168 171 175 179 182 186 192 192 194 198 200 201 207 212 209 214 216 219 223 224 226 216 230 233 233 236 233 235 236 237 232 213 208 232 231 233 230 219 205 199 192 187 207 218 216 215 194 114 126 156 181 193 196 195 176 134 129 129 135 187
96 94 96 92 78 79 111 128 131 134 136 139 143 147 150 135 96 137 164 166 170 174 177 181 175 159 140 180 198 201 202 208 209 167 112 196 223 223 227 232 211 98 137 214 241 241 239 238 213 178 143 109 136 234 238 238 228 126 102 88 116 119 179 225 219 218 147 82 164 122 95 157 200 197 151 105 77 76 95 189
95 94 96 95 82 77 101 128 131 134 137 141 144 148 143 92 67 75 129 167 172 175 159 115 95 75 89 137 200 204 205 189 116 94 125 131 221 227 228 233 156 100 117 118 161 233 247 218 120 160 139 109 107 231 242 242 219 131 146 117 103 119 199 226 225 206 112 113 186 151 104 181 203 196 134 105 81 119 132 198
95 93 95 96 88 77 91 123 131 134 137 140 144 143 107 91 79 82 83 118 165 177 157 83 100 125 93 83 191 207 200 116 110 125 158 80 173 231 234 202 125 167 149 125 79 221 252 233 125 126 123 134 111 218 249 248 211 136 132 155 111 105 219 230 228 159 88 112 172 145 143 207 204 192 121 100 81 90 144 203
95 92 93 96 92 80 83 117 130 133 137 140 145 136 92 85 107 123 106 67 140 179 178 125 123 111 90 93 159 208 212 159 144 149 96 85 100 222 239 156 115 204 235 110 160 253 254 250 156 128 132 140 108 203 253 252 196 100 116 143 143 146 230 233 226 135 91 82 144 116 187 213 208 184 110 104 73 74 162 206
94 91 93 95 95 84 78 108 129 132 136 140 144 147 135 89 103 111 86 108 169 177 182 159 91 147 137 95 134 208 214 214 124 66 81 108 179 232 241 220 159 160 197 140 238 254 254 255 169 81 99 138 192 241 254 254 210 150 151 147 155 198 241 239 235 222 202 170 141 160 214 215 210 201 173 169 168 172 188 207
94 91 92 94 96 87 76 96 127 132 135 138 143 147 152 149 118 91 101 161 174 177 183 184 117 108 142 168 196 209 215 220 203 108 150 217 240 241 243 249 251 218 162 208 255 255 255 255 234 212 244 255 255 255 254 255 255 254 253 254 252 248 243 241 240 235 235 233 227 222 220 217 213 211 210 205 203 199 192 207
93 91 91 93 96 92 77 85 121 132 135 139 142 146 149 154 155 138 154 170 173 178 183 186 186 191 201 205 208 211 216 219 224 218 231 237 237 243 248 249 252 255 255 255 255 255 255 255 255 255 255 255 255 255 255 255 255 255 255 255 252 249 247 244 242 238 236 230 230 225 223 221 217 213 212 209 204 200 194 209
90 89 90 92 95 95 81 78 113 130 134 138 142 146 148 153 157 163 169 170 173 178 181 187 191 195 200 205 207 211 217 222 227 232 235 241 244 246 250 251 255 255 241 250 255 255 255 255 255 222 250 255 255 255 255 255 255 255 239 212 237 253 251 250 247 237 169 144 225 231 227 224 219 172 147 174 196 201 197 211
89 88 89 91 93 96 88 76 102 129 133 137 141 145 149 152 157 156 128 134 174 179 182 187 191 149 137 184 211 216 218 226 200 180 184 181 208 250 253 255 247 197 121 173 255 255 255 255 204 117 126 202 252 255 255 235 194 150 128 107 189 255 253 253 231 153 107 93 144 230 229 226 199 120 158 114 97 182 202 214
87 87 90 90 92 95 92 77 89 124 133 137 141 143 147 151 138 103 94 95 140 178 182 188 176 111 110 78 146 192 221 227 143 98 98 118 142 251 255 222 142 177 139 119 227 255 255 241 137 159 127 85 164 252 255 199 123 141 160 126 173 255 255 220 155 150 93 97 121 171 232 227 162 113 143 95 113 198 204 215
87 87 89 90 92 93 94 82 80 116 131 134 138 142 147 136 86 106 130 112 98 153 181 187 137 101 126 113 108 143 223 230 159 115 136 148 126 250 255 215 104 129 197 122 138 253 254 174 185 195 129 89 195 254 255 220 162 180 120 103 148 255 255 204 108 122 128 125 129 193 234 204 128 110 124 123 172 210 201 216
85 86 88 90 91 91 93 87 76 105 127 131 136 140 144 144 117 113 129 131 114 110 173 182 120 97 125 151 100 189 223 230 166 101 152 127 145 248 255 255 169 152 200 144 191 253 255 210 155 116 112 176 254 255 255 240 139 122 85 107 177 254 255 254 187 97 109 152 210 239 234 208 144 130 124 136 205 208 201 216
84 84 87 89 90 90 92 91 77 92 123 129 133 137 142 146 147 119 110 92 108 155 178 184 179 153 119 120 146 216 222 227 200 147 151 157 191 252 255 255 247 172 191 241 255 255 255 255 248 194 149 244 255 255 255 254 194 195 231 250 255 255 255 255 254 185 160 230 242 238 235 232 227 213 192 198 213 208 203 217
84 83 85 87 89 89 90 91 81 82 116 126 130 135 139 143 147 147 121 134 165 173 178 182 188 195 194 172 197 216 221 225 231 238 243 252 255 254 255 255 255 254 255 255 255 255 255 255 255 255 255 255 255 255 255 255 255 255 255 255 255 255 255 255 254 255 249 244 240 238 233 231 228 225 221 217 212 209 204 216
83 81 83 85 87 89 89 91 85 77 104 124 127 132 136 140 146 150 156 161 166 172 175 181 186 191 199 207 209 213 221 228 233 240 243 234 254 255 255 255 255 241 249 255 255 255 255 255 255 255 244 252 255 255 255 255 255 252 243 253 255 255 255 255 242 197 230 244 240 237 232 229 209 169 197 215 210 208 203 216
81 81 82 84 86 87 88 89 88 77 93 119 125 129 132 137 141 144 147 148 150 156 168 178 184 191 183 133 135 208 219 226 235 221 162 137 219 255 255 255 242 130 171 214 250 255 255 227 179 155 163 208 255 255 247 204 194 148 101 212 255 255 255 232 163 139 143 227 237 229 212 163 97 101 155 213 209 206 201 214
80 79 81 83 84 86 87 88 89 80 83 112 120 124 129 133 138 130 90 85 85 79 145 175 177 145 101 100 97 149 216 226 189 126 127 170 143 240 255 254 177 142 175 151 171 254 255 160 109 164 135 162 255 255 233 131 178 169 104 181 255 254 203 125 176 161 114 134 226 221 124 91 106 122 133 202 208 203 197 211
79 77 79 81 83 85 86 86 88 84 77 103 116 119 124 128 133 128 94 86 72 68 129 170 168 117 120 145 140 100 176 223 189 144 156 162 105 168 255 230 159 195 184 182 201 255 255 186 131 200 191 135 247 255 249 153 189 201 172 168 253 253 169 92 159 141 148 145 218 221 143 106 158 161 144 192 202 197 193 206
77 77 78 80 81 84 85 86 86 86 77 92 111 115 119 122 127 129 93 75 79 86 112 163 169 160 113 144 129 123 182 215 222 177 108 115 171 228 255 251 221 190 128 177 254 255 255 229 146 184 188 189 248 255 255 165 121 154 168 199 250 248 240 164 102 103 175 219 219 216 186 93 121 165 194 199 196 192 189 192
77 76 77 79 81 82 82 85 84 85 80 83 105 110 114 118 122 126 104 86 97 98 122 156 162 169 154 121 145 189 202 205 215 215 170 199 247 255 255 255 255 253 216 239 255 255 255 253 233 242 254 255 255 255 255 238 221 239 251 252 247 241 238 229 171 189 218 214 210 208 203 178 191 199 195 192 188 186 182 174
75 75 77 78 79 80 82 84 83 84 82 78 98 106 110 113 117 120 123 127 133 139 144 150 156 161 167 171 183 188 193 200 207 216 229 239 247 253 255 255 255 255 255 255 255 255 255 255 255 255 255 253 252 252 253 255 255 255 253 246 239 235 230 227 225 219 210 207 203 202 199 197 189 189 188 185 182 178 170 159
74 74 75 77 78 79 81 82 83 83 83 77 90 102 105 108 112 116 119 124 123 121 136 142 148 154 159 141 148 173 185 191 200 192 179 184 188 227 254 255 241 200 211 231 249 255 255 219 189 189 193 219 241 241 223 196 196 196 209 235 231 226 192 158 171 183 197 196 189 172 153 126 123 175 178 176 171 168 155 146
73 73 74 75 77 78 79 81 82 83 83 78 83 96 100 104 107 110 114 113 77 78 109 130 141 147 136 91 95 119 141 178 192 136 104 92 83 181 248 254 208 172 155 141 190 253 246 168 149 144 148 172 229 228 179 131 153 127 141 222 223 210 156 156 123 115 150 189 167 93 118 110 105 163 168 164 162 157 140 139
73 72 74 75 76 77 78 79 80 82 82 80 78 92 97 99 102 105 105 83 72 69 80 95 127 138 101 76 96 90 90 166 181 136 116 101 89 168 236 242 190 166 175 172 202 244 234 150 116 135 125 162 214 214 164 125 165 149 162 215 214 177 135 139 101 111 166 179 158 98 112 119 118 154 158 155 151 145 128 133
72 71 72 73 75 76 77 78 79 81 81 80 76 86 93 95 97 100 98 79 71 77 76 88 124 126 100 97 95 74 127 162 170 137 88 123 103 161 225 230 199 176 174 170 223 232 222 155 123 93 96 158 201 201 153 110 149 155 170 209 207 168 131 131 108 132 173 169 154 91 95 120 133 149 148 144 140 132 118 126
71 70 71 72 74 75 76 76 77 79 80 80 77 80 89 92 94 96 99 99 85 70 83 112 121 124 125 120 100 102 144 152 158 154 146 158 166 187 209 219 230 233 222 210 224 218 208 193 179 172 168 178 184 183 177 170 173 180 191 198 196 192 182 165 147 160 163 158 153 138 142 146 144 140 138 134 130 120 110 117
71 69 70 71 72 75 74 75 77 77 79 79 76 77 86 89 91 93 96 98 100 96 104 111 114 119 122 126 129 133 138 143 148 155 162 167 176 185 195 206 218 225 225 223 213 203 195 189 182 177 175 172 169 167 169 172 173 177 180 181 181 179 176 171 164 157 151 147 143 141 138 135 133 129 127 122 118 109 105 111
69 68 69 70 71 72 73 74 76 76 77 78 77 75 81 86 88 89 90 93 96 99 102 105 108 111 114 118 121 125 128 132 136 141 146 153 159 168 178 189 199 205 207 203 197 186 178 171 164 161 157 154 153 153 152 153 154 158 161 163 164 161 159 155 148 143 137 133 130 128 125 122 119 117 115 112 107 104 101 108
68 67 68 69 70 71 72 73 74 74 75 77 78 75 78 81 83 85 88 90 91 94 96 99 102 104 107 110 112 115 118 122 125 129 133 138 144 150 159 167 176 182 184 182 175 168 160 154 148 145 142 140 139 139 137 138 139 143 145 148 149 148 145 140 136 131 126 122 118 117 115 112 110 108 106 104 103 101 98 104
67 65 67 68 68 70 70 71 73 73 75 76 77 77 78 79 81 82 84 85 87 89 91 93 96 97 101 103 105 108 110 112 115 118 120 124 127 131 135 139 141 144 145 144 143 140 138 136 134 132 130 128 127 126 125 126 124 125 125 125 125 124 122 120 117 116 113 112 110 110 109 107 106 104 103 102 100 98 96 101
65 64 65 67 67 68 69 70 71 72 73 74 76 75 77 78 78 79 82 82 85 86 88 91 94 95 98 98 100 102 104 108 110 112 114 117 118 121 124 125 125 126 128 129 130 129 129 128 126 125 124 123 122 121 122 120 118 118 117 116 115 115 115 113 112 112 111 109 108 108 107 105 104 103 102 99 97 95 93 98
65 63 64 65 66 66 68 68 69 71 72 72 73 74 75 77 78 80 80 82 84 85 89 91 94 96 98 97 99 103 105 104 108 110 111 114 117 119 120 122 125 126 127 127 127 127 126 125 124 123 122 121 120 119 118 117 116 115 115 115 114 113 113 111 110 109 109 108 107 106 104 103 102 100 99 97 95 93 91 96
63 62 62 64 65 66 65 67 68 68 70 71 72 73 74 75 77 78 79 81 82 86 89 91 93 95 97 98 97 99 100 102 105 106 109 112 114 116 118 119 122 123 124 125 124 125 124 123 122 120 120 118 118 117 115 115 113 113 114 112 111 111 110 109 109 108 106 106 104 103 103 102 100 99 98 96 94 92 89 94
62 61 62 63 63 64 65 66 67 67 68 69 70 72 73 74 75 76 78 80 82 85 87 89 92 92 95 97 95 96 98 100 101 103 106 109 112 114 117 118 120 122 123 124 123 124 123 121 120 119 117 116 115 115 113 112 112 110 110 110 109 109 108 107 106 107 105 104 104 104 103 101 100 98 96 94 93 89 86 91
61 60 61 61 62 64 64 65 66 67 67 69 69 70 71 72 74 74 76 79 82 84 86 87 90 90 94 95 94 93 96 97 100 102 105 108 111 113 115 117 120 123 124 125 124 124 123 122 119 118 116 114 113 113 111 110 109 109 108 108 107 108 107 106 106 105 105 103 103 102 101 100 98 97 95 92 90 88 85 90
60 60 61 61 62 63 64 65 65 65 67 67 68 69 69 71 72 73 75 79 81 83 84 85 87 89 91 93 92 92 93 96 98 100 103 105 108 110 113 115 119 120 121 122 122 123 121 120 117 116 114 112 112 110 109 108 107 107 106 106 106 106 106 105 104 103 104 103 101 99 100 99 97 96 94 91 90 87 85 89
59 59 60 62 62 62 63 64 64 65 66 67 68 68 69 70 71 73 75 78 80 81 83 83 85 87 89 91 90 90 92 94 96 98 101 104 106 108 111 114 117 118 119 121 121 122 119 118 116 114 112 110 110 108 107 106 106 104 104 104 104 104 103 104 104 103 102 101 101 100 100 98 96 96 92 90 88 85 82 86
59 59 60 60 61 61 62 63 64 64 65 66 67 66 67 69 70 71 75 78 78 79 80 81 83 85 87 88 88 88 90 92 94 97 99 102 105 108 112 114 117 119 121 123 125 125 121 118 115 114 112 110 108 108 106 105 104 103 103 103 103 103 103 103 103 101 101 100 100 98 97 95 92 90 88 87 84 81 80 83
59 59 59 59 61 61 61 62 62 64 65 66 65 66 67 68 69 71 74 77 78 78 79 80 81 84 86 85 86 87 88 91 93 95 98 102 104 107 110 113 115 118 120 128 130 128 120 116 115 112 112 109 107 106 105 103 103 102 102 102 101 102 100 100 100 98 98 96 95 93 93 91 88 86 85 82 80 79 78 81
59 59 59 59 60 60 60 61 62 63 64 64 64 65 66 67 68 69 73 76 76 77 79 80 81 84 85 83 83 85 87 89 92 94 95 97 100 102 105 106 110 112 115 122 124 122 114 112 109 107 107 104 103 102 102 101 101 101 101 100 98 98 97 95 94 93 93 92 90 88 87 86 84 82 80 79 77 75 75 79
59 57 58 59 59 60 60 61 61 62 63 63 63 64 64 66 67 68 70 74 76 77 77 79 81 82 81 81 81 82 84 86 88 89 91 92 95 96 99 101 104 106 108 118 123 122 110 106 104 102 101 100 99 98 97 98 97 96 96 95 94 93 92 92 90 90 88 87 86 84 82 82 81 79 77 75 74 74 73 77
57 56 57 58 59 59 59 60 60 62 62 61 62 62 64 64 66 67 68 73 75 76 77 78 79 79 77 78 79 79 81 82 85 85 87 88 90 91 93 95 97 98 101 107 109 108 103 100 100 99 96 95 94 95 94 94 92 92 91 91 90 89 88 88 86 85 84 83 82 81 79 79 77 76 75 74 73 72 70 75
56 55 56 56 58 58 59 59 60 61 61 61 61 62 63 63 64 65 66 69 72 73 75 76 75 75 74 74 75 77 78 79 81 82 83 84 86 88 90 90 93 95 98 104 104 103 99 97 96 96 93 92 91 91 90 90 89 89 88 87 85 85 84 84 84 82 82 80 79 78 78 78 76 75 73 71 70 68 66 70
56 55 55 55 56 56 57 57 59 60 60 60 61 61 62 63 63 64 65 66 68 70 71 72 72 72 72 72 74 75 75 76 77 78 79 81 82 86 86 88 90 94 98 103 103 100 96 95 93 91 89 89 88 87 86 86 85 84 85 84 83 82 82 81 81 80 80 79 78 77 76 75 73 72 69 67 66 65 65 70
55 55 55 56 56 56 56 56 56 56 57 57 58 59 60 61 62 62 63 64 66 66 67 68 69 69 69 70 71 72 72 74 75 76 76 79 80 81 82 85 89 92 95 105 106 102 93 91 91 88 86 85 85 84 83 83 83 81 80 80 80 79 79 78 79 78 77 76 74 72 70 69 68 68 68 67 67 66 66 69
56 55 56 57 57 57 57 56 57 56 56 57 58 58 59 59 60 61 62 63 64 64 65 66 67 68 69 70 70 72 73 73 75 77 77 79 80 82 84 87 89 91 100 129 141 134 102 93 91 90 87 86 85 85 83 83 83 81 80 79 79 77 76 75 75 74 72 72 72 71 71 71 71 71 71 70 69 69 69 86
