P2
80 80
255
114 109 107 108 110 113 115 117 119 121 124 126 125 126 128 130 133 135 137 139 140 141 143 143 146 149 152 153 157 157 159 158 160 162 162 164 166 168 169 171 172 173 175 177 177 177 178 178 176 177 176 176 175 175 173 174 174 174 173 172 171 170 168 167 166 164 162 159 157 156 154 153 151 151 148 145 143 142 139 150
100 100 102 103 103 106 109 111 113 114 117 117 118 119 121 124 125 127 128 127 130 131 132 136 138 140 141 144 145 146 146 148 149 151 151 153 154 155 157 158 158 161 163 165 163 164 164 165 164 165 163 163 161 160 160 161 161 161 160 159 159 157 157 156 153 153 151 151 147 146 145 144 142 140 137 136 134 132 129 143
103 100 103 105 106 107 110 111 113 114 116 118 119 121 124 125 127 129 129 130 132 133 135 138 140 143 144 144 145 145 147 147 148 150 151 153 153 156 159 158 161 164 165 166 168 167 168 169 167 167 166 168 165 162 164 164 165 165 162 162 160 162 160 158 157 155 153 153 151 150 149 148 146 142 141 140 139 137 133 145
105 102 102 104 107 109 111 111 112 115 116 119 120 123 124 127 127 130 130 130 132 133 135 135 137 141 143 145 146 146 148 150 151 152 153 156 157 159 162 162 162 164 164 166 168 167 166 164 163 160 159 159 156 157 158 157 156 156 155 156 156 157 156 156 156 154 154 153 152 151 150 149 149 146 145 143 142 140 137 150
104 103 104 104 106 110 112 113 114 116 118 120 121 122 125 126 127 128 130 131 133 135 138 139 140 143 144 147 149 151 152 153 153 153 153 152 151 151 151 150 149 147 146 145 147 146 143 142 143 142 141 141 141 141 142 142 143 143 143 142 142 140 140 139 139 139 139 139 141 142 143 145 146 146 145 145 144 142 139 153
103 102 104 105 108 110 112 113 114 116 117 120 121 122 125 127 129 131 131 135 137 139 140 141 140 141 141 140 140 140 140 139 137 137 140 141 141 142 144 145 146 146 148 149 150 151 151 150 149 148 146 145 147 146 147 147 149 149 150 148 146 147 144 142 142 141 138 138 136 135 134 133 133 132 132 135 138 140 139 154
103 102 104 106 109 111 112 114 115 116 119 121 121 123 125 127 129 129 130 131 131 129 130 131 130 129 131 133 135 138 141 142 144 146 146 147 147 148 149 150 151 152 152 153 152 154 152 151 149 149 148 145 146 147 149 149 149 150 150 151 148 147 145 142 143 143 142 141 140 140 139 138 136 134 132 131 130 129 127 142
104 102 104 105 108 110 112 113 114 116 119 120 122 120 120 119 118 118 120 122 126 129 133 136 139 139 141 142 144 143 145 146 147 149 149 149 149 150 152 151 152 154 155 154 156 156 154 153 151 150 148 147 147 149 149 150 151 152 152 151 148 146 143 143 143 143 141 141 140 140 139 140 138 136 135 134 133 132 128 140
104 103 103 103 106 109 111 112 113 113 114 113 112 113 115 119 124 126 130 132 134 135 138 140 139 141 142 142 145 145 146 147 147 149 150 151 152 152 154 154 155 155 157 157 158 158 156 156 155 152 150 148 148 150 150 152 153 153 152 150 147 146 143 143 144 143 143 143 142 142 142 140 139 137 136 134 134 132 129 143
102 99 100 103 106 107 106 106 105 109 113 116 120 123 126 127 129 131 132 134 135 137 139 140 141 142 143 145 146 147 148 149 150 151 151 153 155 156 157 157 158 157 158 160 160 160 159 158 157 155 153 150 150 151 153 154 153 153 151 150 148 147 145 144 145 144 144 145 145 145 144 143 141 140 138 137 136 133 130 144
98 96 97 98 99 101 105 110 113 117 119 121 123 125 127 128 130 133 134 135 137 138 140 142 143 144 146 147 147 148 151 150 151 153 154 156 157 157 159 160 161 161 161 162 162 162 162 160 159 158 155 154 153 155 155 155 155 153 153 152 151 150 148 147 146 146 145 146 146 146 146 145 143 142 141 138 137 136 133 144
93 90 87 83 103 111 112 115 117 118 120 122 125 127 128 130 132 134 135 136 138 140 142 143 144 145 148 149 150 151 152 153 154 154 155 159 159 160 161 161 162 162 163 164 165 165 164 162 161 160 159 158 158 147 156 157 155 156 156 154 153 148 149 150 149 148 147 149 150 148 147 146 145 144 142 139 139 138 135 147
89 83 77 73 102 111 112 114 117 119 121 124 126 128 130 132 133 134 136 139 139 141 143 145 146 147 149 151 152 153 154 156 156 158 159 158 159 162 162 162 161 165 167 166 168 168 167 165 165 164 165 159 122 82 135 161 158 156 156 157 148 92 98 119 137 147 151 150 151 150 150 146 140 130 122 136 140 139 135 148
84 79 72 67 99 112 114 117 118 120 123 125 126 128 130 133 135 136 138 140 142 144 144 146 147 148 150 152 152 154 156 158 153 136 154 161 162 164 164 158 103 108 128 149 164 170 171 170 169 170 152 99 71 85 97 161 160 158 160 160 130 74 96 68 70 91 128 153 153 147 116 94 82 62 69 129 142 140 137 150
79 73 66 66 97 112 114 116 118 121 123 125 127 130 131 134 136 138 138 141 135 127 138 147 150 151 152 153 153 155 145 118 90 80 130 166 165 165 166 145 92 86 81 68 83 132 173 171 168 132 70 84 108 55 63 142 163 160 160 160 106 86 128 86 71 57 119 156 155 137 80 83 77 55 61 120 144 140 139 135
76 72 69 69 94 113 115 117 119 122 125 126 127 128 125 125 134 139 140 144 115 81 89 95 107 130 152 155 152 111 78 96 86 102 109 165 166 166 169 132 105 100 130 63 51 123 176 175 151 64 79 128 127 89 75 105 164 164 163 154 79 73 99 77 95 78 143 157 156 145 85 90 98 107 79 111 145 143 117 89
80 79 74 73 93 113 116 119 120 123 126 111 89 81 85 80 116 139 141 144 109 107 137 100 77 89 150 156 154 95 95 77 90 123 95 158 168 167 171 119 120 125 124 88 59 149 178 177 167 90 112 132 75 80 86 72 147 167 166 138 61 85 91 96 120 99 157 160 158 151 98 95 92 101 81 99 145 145 119 90
86 84 78 76 90 114 117 120 122 124 127 104 88 89 117 87 103 141 141 144 104 74 86 81 88 91 153 158 160 119 81 55 109 103 63 144 171 170 171 107 124 125 119 73 74 168 179 179 180 133 83 162 132 94 60 95 157 168 167 115 60 109 98 110 69 124 164 161 160 158 103 84 94 64 54 88 146 145 136 90
90 88 82 78 88 113 117 119 121 124 128 114 77 91 94 78 95 140 143 145 105 91 57 92 87 98 156 158 162 144 84 82 114 123 82 118 174 174 168 80 95 113 105 69 97 180 181 182 183 171 99 126 111 79 129 170 173 169 167 147 121 103 84 75 68 153 166 164 163 161 117 77 67 77 97 127 150 148 145 119
92 90 85 79 85 111 119 120 122 125 128 122 75 80 69 72 88 138 145 147 100 104 74 86 62 100 159 161 162 162 100 100 126 73 77 113 175 177 171 110 91 103 79 50 127 187 184 184 184 185 135 59 99 158 183 179 175 173 172 172 173 170 160 140 137 169 168 167 164 163 143 125 143 153 156 154 151 148 148 142
94 91 88 80 84 109 119 121 123 125 129 127 83 64 78 94 86 133 147 148 120 91 79 93 60 106 162 163 165 169 122 63 93 108 142 168 177 179 179 179 171 154 132 111 162 190 187 188 188 188 174 142 179 187 184 184 182 181 179 179 178 178 177 176 176 172 171 170 169 166 164 165 162 160 158 156 154 151 150 158
95 92 91 82 82 105 120 122 123 127 129 132 97 73 82 90 99 134 147 149 152 148 140 125 104 129 163 165 168 170 160 133 158 174 178 179 180 182 183 185 186 187 188 186 189 191 191 191 192 189 189 191 190 188 188 187 186 184 183 182 182 180 179 178 175 175 173 172 169 168 166 166 163 162 160 159 156 155 150 165
94 93 93 85 80 99 119 123 125 127 129 131 132 132 135 138 142 145 149 150 152 156 158 159 162 161 164 167 170 172 173 176 177 178 180 181 183 185 186 186 188 188 189 190 192 194 194 193 193 194 192 191 192 192 191 190 188 187 186 185 185 185 173 167 180 178 176 175 173 172 165 145 163 166 162 160 157 156 152 167
94 93 94 87 80 93 118 122 125 128 130 132 134 137 140 142 145 147 149 150 154 156 159 161 163 165 167 169 172 173 176 177 179 181 182 183 186 188 188 189 190 192 193 195 196 197 197 196 196 199 198 198 196 195 194 194 191 190 190 190 188 149 97 109 181 182 179 178 175 174 127 64 106 157 167 163 161 158 156 163
96 93 95 90 82 89 115 122 125 128 130 133 135 137 141 144 146 148 150 152 156 157 159 154 165 169 170 173 174 175 178 181 184 182 174 186 191 191 191 192 190 188 187 185 187 200 199 200 197 161 137 131 121 113 141 197 196 194 195 171 119 114 141 100 159 184 181 180 179 156 88 98 88 91 143 163 161 160 152 108
96 94 96 93 83 84 111 123 126 128 131 134 137 139 114 110 142 151 153 154 157 160 149 95 118 159 173 174 175 177 179 170 144 112 89 172 194 194 197 168 112 105 100 96 117 199 203 204 193 87 97 96 114 115 127 198 199 195 144 88 97 140 102 121 123 186 184 183 175 94 72 159 107 77 76 148 165 155 101 63
96 94 96 95 85 82 106 124 127 130 131 135 137 137 83 51 76 119 149 157 158 162 127 107 120 89 132 170 178 181 132 89 92 121 62 141 196 197 201 155 127 150 100 108 120 199 205 207 189 98 127 113 185 113 139 205 203 195 111 84 99 119 63 120 95 172 188 185 125 60 108 136 98 69 101 166 166 111 81 126
96 94 96 96 89 81 99 123 127 129 132 134 138 130 77 73 58 66 97 147 160 161 108 94 111 73 58 111 178 186 130 97 155 137 106 123 195 199 203 162 124 163 139 79 105 206 209 210 188 100 94 108 97 70 155 208 205 204 159 60 98 119 73 93 76 164 192 179 92 62 124 81 85 93 159 173 168 136 98 130
96 95 96 98 92 82 92 122 127 130 132 135 140 114 81 104 105 114 92 142 163 149 94 147 127 112 87 111 184 186 170 97 111 130 166 94 183 203 207 168 74 146 163 109 101 210 213 216 183 130 176 116 103 94 169 212 208 208 196 100 116 145 92 115 171 193 192 189 172 120 71 49 61 142 177 173 172 166 116 98
97 94 97 99 96 84 85 117 128 129 133 136 139 110 74 89 116 113 96 154 163 149 85 119 132 113 92 153 187 187 187 121 117 132 125 57 160 208 210 171 96 119 137 109 117 213 217 219 182 106 138 131 112 91 191 215 212 211 210 153 70 111 166 201 203 198 195 194 192 187 150 86 120 180 178 176 174 172 158 110
97 94 96 98 98 87 82 109 126 129 133 136 138 138 118 88 73 84 118 159 163 166 159 122 90 113 105 176 188 190 194 152 112 101 108 142 190 209 212 190 127 127 126 134 167 221 222 221 209 179 182 188 194 205 218 217 217 216 216 198 167 201 211 208 205 202 201 199 194 193 193 181 183 185 181 178 177 175 169 169
97 93 96 97 99 91 81 100 126 130 132 136 139 143 146 143 115 85 138 161 165 168 172 176 160 118 137 187 191 192 195 188 150 178 202 209 210 210 214 217 217 220 223 224 226 226 226 226 226 229 227 226 227 225 222 221 220 220 219 216 216 213 210 207 207 205 203 201 198 197 193 193 189 187 185 181 178 175 173 191
96 93 95 96 98 95 82 90 123 130 132 136 138 143 142 148 154 153 158 162 165 168 172 175 179 182 183 187 191 195 197 200 206 206 208 210 213 215 217 220 223 226 226 226 227 230 230 229 229 229 229 230 232 228 228 226 225 222 223 222 220 220 218 213 211 209 206 204 199 196 198 197 194 190 188 185 182 181 179 194
96 93 94 96 98 98 84 83 116 130 133 136 139 143 146 149 153 157 160 163 168 170 174 176 180 185 192 192 192 198 200 201 206 210 211 214 215 218 222 224 226 216 229 232 232 235 233 234 236 235 233 217 199 225 232 231 230 224 206 196 193 185 180 204 217 213 210 207 134 100 133 157 181 191 191 188 175 134 125 141
95 93 93 95 96 99 89 80 107 129 132 136 140 143 148 151 146 104 131 165 169 172 174 180 180 170 148 158 195 200 203 206 210 178 113 185 223 224 227 231 215 100 132 209 242 241 239 237 219 182 150 112 110 209 237 237 236 196 91 106 79 125 112 180 220 217 215 183 74 131 159 97 99 168 196 191 153 103 77 81
94 93 95 95 96 99 95 80 97 128 133 137 140 145 148 151 110 71 72 124 167 173 176 146 107 84 84 103 186 202 205 197 133 87 129 122 216 229 230 235 162 100 115 117 154 229 246 231 124 155 146 123 84 192 243 241 240 175 129 141 109 108 118 199 224 219 215 140 91 152 187 121 107 188 197 192 138 114 80 109
93 92 94 94 96 98 98 83 88 124 134 137 140 144 148 125 94 84 87 85 114 166 179 137 89 108 124 65 153 207 208 138 108 123 159 87 155 232 236 208 124 168 147 131 71 208 252 245 133 133 107 144 104 172 246 245 242 166 144 123 159 92 104 218 227 225 194 90 111 132 177 126 153 204 199 192 120 92 78 107
93 91 94 95 96 98 100 89 82 114 133 137 140 145 149 118 85 99 124 108 71 148 180 172 118 125 109 90 122 200 212 184 136 151 100 87 89 213 242 165 110 196 240 121 142 250 253 254 169 137 119 155 112 149 248 249 245 147 93 134 149 149 141 228 231 227 160 78 84 107 154 111 196 205 202 183 112 110 76 57
91 90 93 94 95 96 99 95 81 103 131 135 139 144 148 150 121 98 109 88 119 173 179 184 137 98 153 108 110 191 214 218 162 66 82 101 174 231 241 224 166 155 199 136 227 255 253 255 200 84 85 112 162 215 252 253 248 166 132 136 125 137 185 239 235 230 217 191 157 128 117 163 212 208 205 191 144 133 130 142
89 88 91 93 93 95 98 98 83 91 127 135 139 143 147 151 155 140 103 108 165 175 180 184 176 117 138 168 193 208 214 218 220 135 142 213 238 241 242 246 252 224 165 193 255 255 255 255 242 197 228 251 255 255 254 255 253 249 247 246 248 245 242 241 237 234 232 232 227 220 209 213 213 211 207 204 203 200 195 212
88 87 90 91 92 93 95 98 89 83 119 134 138 142 147 151 154 158 154 161 171 175 179 183 187 194 201 204 207 209 213 220 223 224 231 236 238 242 248 248 251 255 255 255 254 255 255 255 255 255 255 255 255 255 255 255 255 254 254 251 252 249 245 242 239 237 233 232 231 227 222 219 214 212 210 207 204 200 195 210
85 85 87 89 91 92 94 97 93 80 108 133 138 141 146 150 153 158 164 166 169 176 179 184 189 193 190 203 209 212 217 221 226 232 235 239 244 247 249 251 255 255 243 247 255 255 255 255 255 237 248 255 255 255 255 255 255 255 255 251 238 245 249 248 245 240 238 226 174 208 227 222 218 215 213 196 183 198 201 213
84 83 86 87 90 92 94 96 96 81 96 130 137 140 145 148 153 158 148 109 112 169 180 184 191 180 119 138 189 215 218 224 206 165 171 170 192 245 253 255 250 205 131 154 255 255 255 255 240 136 128 198 251 255 255 255 237 208 166 143 113 206 254 250 247 246 215 141 95 123 213 224 220 218 211 138 121 127 138 191
83 82 85 86 88 92 93 95 97 87 86 122 134 139 143 147 150 124 97 110 102 118 177 183 189 142 120 87 105 155 210 228 181 98 92 119 122 237 255 230 144 166 150 112 212 255 255 254 166 124 153 75 141 230 255 253 151 133 132 142 113 182 255 253 247 201 147 108 88 83 136 216 222 219 180 100 170 129 71 153
82 81 83 86 88 91 93 93 95 92 81 110 131 135 141 145 148 110 101 130 131 112 137 183 178 106 115 137 118 110 208 228 194 114 140 163 112 235 255 231 114 114 190 138 118 246 255 204 170 205 170 82 121 234 255 255 167 150 160 144 123 159 254 255 214 120 140 133 100 137 120 182 227 214 144 110 117 96 101 199
80 79 82 85 88 89 92 92 94 94 81 98 127 133 138 142 147 147 120 121 111 102 127 181 177 129 106 133 129 155 222 227 205 96 134 122 131 231 255 255 191 136 207 144 166 246 255 215 161 135 106 136 211 255 255 255 195 166 136 64 70 144 255 255 247 161 94 114 133 110 176 225 226 185 107 107 128 132 154 218
79 79 81 84 85 88 91 92 92 93 86 87 121 131 135 139 143 150 146 113 105 142 173 180 186 190 172 139 129 201 220 225 223 179 172 173 193 246 255 255 253 179 180 228 255 255 255 255 247 193 117 185 255 255 255 255 226 124 139 173 205 235 255 254 255 248 160 82 144 209 235 230 226 211 174 145 126 119 192 218
79 78 80 83 84 87 89 90 91 92 90 81 111 127 132 136 141 146 152 148 157 169 172 179 184 191 199 201 202 214 217 223 229 238 243 251 255 255 255 255 255 254 255 255 255 255 255 255 255 255 250 254 255 255 255 255 255 252 255 255 255 255 255 255 254 252 241 197 226 240 234 231 226 223 222 217 204 198 202 216
78 77 79 81 83 85 87 90 90 91 91 81 100 123 128 132 138 143 148 154 159 164 170 177 182 188 197 200 185 206 217 224 230 236 240 219 242 255 255 255 255 246 246 255 255 255 255 255 255 255 255 255 255 255 255 255 255 255 255 255 255 255 255 255 253 252 249 248 240 237 232 230 226 221 220 215 211 207 202 216
77 76 78 80 81 83 85 88 89 90 91 83 89 118 124 129 133 138 141 114 105 110 113 160 179 185 173 127 95 153 215 222 228 212 154 123 183 255 255 255 252 145 155 213 249 255 255 248 222 189 183 188 254 255 255 254 244 227 199 180 241 255 255 255 255 238 175 170 235 235 230 227 225 220 197 154 175 206 201 214
76 75 77 79 80 82 84 85 87 89 89 87 83 109 120 124 129 133 134 98 85 74 67 139 176 164 105 118 121 101 172 222 207 129 127 172 136 203 255 255 198 134 170 160 157 245 255 203 114 127 157 135 240 255 255 195 135 178 117 70 204 255 255 254 223 162 148 130 159 230 226 220 195 145 84 97 131 201 199 212
75 73 76 77 79 81 82 84 86 88 87 87 81 98 115 119 123 128 133 106 82 79 86 125 167 170 129 127 165 124 122 208 218 164 146 142 127 128 252 246 159 185 181 195 171 252 255 227 108 187 186 131 207 255 255 204 141 199 182 138 179 255 255 199 96 156 171 141 93 162 226 206 100 88 103 118 120 182 198 211
74 73 75 76 78 79 81 83 84 86 87 86 82 90 109 113 118 122 127 112 81 90 91 119 161 168 164 128 125 132 180 207 217 212 128 104 165 225 255 254 230 198 140 154 242 255 255 251 143 181 193 151 193 255 255 230 128 173 175 157 166 253 254 209 101 141 135 150 134 181 220 212 125 108 157 162 133 172 193 207
73 73 73 75 77 78 80 81 82 85 86 85 84 83 102 109 113 117 121 124 125 130 136 146 154 160 168 159 157 187 197 201 208 215 201 204 240 252 255 255 255 255 220 220 255 255 255 255 218 209 227 241 252 255 255 250 158 141 177 197 225 249 247 245 204 113 88 139 204 217 212 211 170 82 112 148 180 189 186 202
72 71 73 74 76 77 78 81 81 82 84 86 85 80 95 104 107 111 116 119 125 127 127 140 147 153 159 165 165 178 187 192 199 207 222 229 237 246 250 255 255 255 255 255 255 255 255 255 255 255 255 255 253 252 252 253 250 249 252 252 249 244 240 236 233 198 176 214 214 208 205 204 193 160 181 192 188 184 181 198
71 71 72 73 75 76 78 79 80 81 83 84 85 80 88 99 104 106 111 114 116 87 82 118 137 145 152 136 102 125 161 182 192 186 144 150 150 191 242 252 250 198 210 235 251 255 255 248 229 228 230 235 243 242 240 241 241 241 244 244 241 239 234 229 225 223 219 211 206 203 199 197 195 194 190 184 180 178 174 190
70 70 72 72 73 74 76 78 79 80 81 83 84 80 82 95 99 102 106 108 89 73 70 84 107 134 140 93 80 99 95 139 184 165 101 105 68 134 230 245 222 160 161 153 180 252 255 215 148 145 147 153 219 230 225 171 150 153 163 186 229 229 225 202 155 165 179 193 196 193 187 177 160 138 134 171 174 171 166 182
70 69 70 71 73 74 75 76 78 78 80 81 82 81 79 90 95 97 101 102 85 72 76 77 90 128 123 91 94 92 77 145 172 161 104 109 89 124 217 234 193 154 164 185 188 252 251 200 129 151 154 136 201 216 209 131 134 150 114 138 218 220 214 164 162 136 120 120 179 186 147 91 120 98 97 160 166 160 157 172
69 68 69 70 72 73 74 75 77 77 79 80 81 82 78 85 92 94 97 100 100 88 72 82 113 123 125 120 107 81 110 155 160 158 105 117 115 133 206 220 195 163 165 182 215 247 240 192 118 101 95 111 193 203 194 124 110 149 133 157 211 211 191 138 158 108 109 130 180 177 135 96 118 120 112 150 157 152 148 162
69 67 69 70 70 71 73 73 75 76 77 79 80 80 78 81 88 91 93 96 98 100 96 104 113 116 121 125 128 122 135 146 150 155 159 162 168 179 195 206 216 224 224 214 230 233 225 204 169 151 132 141 186 189 184 128 109 143 132 162 203 203 183 143 145 123 110 163 173 168 135 78 92 113 118 146 147 144 141 151
68 67 68 69 69 70 72 73 74 75 76 77 77 79 79 77 84 86 88 92 94 96 99 102 106 109 114 117 122 127 130 136 140 146 152 157 164 173 181 192 204 217 225 229 225 217 210 202 194 188 183 179 177 175 172 171 170 171 174 182 189 192 191 186 172 149 148 167 162 158 143 117 129 137 142 140 137 134 132 137
66 66 66 67 68 69 70 71 72 73 74 76 77 78 78 78 81 83 85 87 89 91 94 97 100 103 106 110 112 116 120 124 128 133 137 144 148 155 165 176 187 197 208 211 209 203 195 184 176 172 167 163 162 159 158 158 161 162 166 169 172 175 178 178 175 171 164 157 151 148 145 144 139 135 134 131 128 125 121 123
65 64 65 66 67 68 69 70 70 71 72 74 76 77 78 79 78 80 82 84 85 87 89 91 94 96 100 103 106 109 112 115 118 121 125 130 133 141 148 156 166 175 184 190 188 183 174 167 159 154 151 148 146 145 144 145 145 146 148 153 156 159 160 160 159 154 149 145 139 136 132 130 126 125 122 118 117 115 109 112
64 63 64 64 65 66 67 68 69 70 71 72 74 75 76 77 78 79 80 82 83 84 87 89 91 92 96 97 100 102 106 108 110 112 116 118 121 126 129 134 137 143 148 151 150 149 146 144 142 139 136 134 133 131 132 132 131 133 137 137 141 145 146 146 144 141 136 132 128 124 121 118 115 114 111 109 107 105 102 107
62 62 63 63 64 65 65 67 68 68 70 71 72 73 74 75 77 78 79 81 82 84 86 89 91 93 95 97 98 100 103 105 108 110 113 116 117 120 122 124 126 129 129 129 129 130 129 129 127 127 125 124 123 122 122 121 120 121 120 121 121 124 124 124 123 122 120 117 115 113 111 109 107 106 105 102 100 100 97 105
61 61 62 62 63 63 64 65 66 67 68 70 70 71 72 74 75 76 78 79 81 82 84 88 92 94 94 94 97 99 102 101 106 107 111 113 115 118 119 122 124 126 127 127 128 128 127 126 125 124 124 121 120 120 119 119 117 117 116 116 114 114 113 112 112 111 110 108 109 107 107 106 104 103 102 101 99 98 95 102
60 60 61 62 62 63 63 64 65 66 67 68 68 70 71 72 74 74 76 77 79 82 85 88 90 93 94 95 95 96 98 99 102 105 108 110 112 115 117 119 121 123 124 125 125 125 124 122 123 121 120 119 119 118 116 115 115 114 113 113 112 113 111 111 110 110 109 108 107 106 104 104 102 101 100 98 97 95 93 99
60 59 60 61 61 62 63 64 65 65 66 67 68 69 70 71 72 73 74 76 78 82 84 86 88 90 93 94 93 93 95 98 100 102 105 108 111 113 115 118 120 122 123 124 123 123 122 121 121 119 118 117 116 115 114 114 113 112 112 111 110 110 110 108 108 107 107 106 104 104 103 101 100 99 98 97 95 94 91 97
59 59 59 60 60 62 63 64 64 65 65 66 67 68 69 70 71 72 73 76 79 81 83 85 87 88 91 92 92 91 93 95 98 101 103 107 109 111 113 116 120 122 123 124 124 123 122 120 119 118 117 115 114 113 112 111 110 109 109 109 107 107 106 106 106 105 104 104 103 102 102 101 100 99 97 95 94 92 90 95
58 58 59 60 61 62 62 63 64 64 65 66 66 67 68 69 70 72 73 77 80 81 82 83 85 87 89 91 90 90 91 94 97 98 100 104 107 109 111 114 118 120 122 122 123 121 120 119 118 117 115 114 113 112 109 109 107 107 106 106 106 106 105 105 104 104 103 103 103 101 101 100 99 98 97 94 94 91 89 94
58 58 58 59 60 60 61 62 63 64 64 65 65 66 67 68 69 71 73 77 79 79 80 82 83 85 86 89 88 88 90 92 94 97 99 102 105 107 110 113 116 119 120 120 121 120 119 117 116 114 114 112 110 109 108 107 107 105 104 104 104 104 103 103 103 103 102 101 101 100 99 98 97 96 95 93 92 90 88 93
58 57 58 59 59 60 60 61 62 63 63 64 65 65 65 67 68 69 73 76 76 78 79 80 82 83 85 88 87 87 88 90 93 95 99 101 105 107 110 113 117 120 122 124 123 120 119 116 114 113 112 110 108 108 106 105 104 103 103 103 102 102 101 101 101 100 101 100 99 99 98 98 96 95 95 93 91 89 86 92
57 57 58 58 59 59 60 60 61 62 63 63 63 64 65 65 67 69 72 75 75 77 77 78 79 81 84 84 85 86 87 89 90 94 97 99 103 105 108 111 116 121 128 133 129 121 118 117 116 114 112 110 108 106 105 104 103 103 102 101 101 100 100 101 100 100 100 100 99 99 99 98 96 95 94 91 89 87 85 89
55 56 57 57 59 59 60 60 60 61 62 63 62 63 64 65 66 67 71 74 75 76 77 78 78 81 83 81 81 83 84 86 88 91 92 96 98 100 102 106 109 116 125 128 124 116 114 111 111 110 109 107 107 104 104 102 102 101 100 100 100 100 99 100 99 99 98 99 97 96 95 94 93 91 89 87 86 83 82 86
56 55 54 55 56 57 58 59 60 60 62 62 61 62 63 64 65 66 68 72 73 75 75 77 78 79 78 79 79 80 82 83 85 87 89 91 92 95 97 101 103 111 126 127 119 108 107 106 105 104 103 102 102 100 100 100 99 98 98 97 97 97 97 96 96 96 94 94 93 92 90 90 88 86 85 84 81 79 79 83
56 55 54 55 55 55 56 57 58 59 60 60 60 61 62 62 63 65 67 71 73 74 75 76 77 75 75 75 76 77 79 80 82 83 85 86 88 89 92 95 96 102 111 111 107 102 101 100 101 99 98 97 97 97 96 96 95 95 94 93 94 93 93 91 92 91 90 90 89 87 86 85 83 83 81 79 78 77 76 80
56 55 55 56 55 56 56 56 56 57 57 57 58 59 61 61 62 63 65 68 71 73 74 73 73 72 72 72 73 74 76 77 78 80 82 83 84 87 89 91 94 100 106 106 103 100 98 96 96 95 93 93 93 92 92 92 91 91 91 90 89 89 88 87 87 87 85 85 84 83 82 80 80 79 78 76 76 75 73 78
56 55 55 56 56 56 56 57 57 57 57 57 57 57 58 59 60 61 62 64 67 69 70 69 69 69 70 71 71 73 74 75 76 77 79 81 83 86 86 88 92 99 107 104 100 96 95 94 92 91 89 89 89 88 88 88 87 86 87 86 85 85 84 84 83 82 82 81 80 80 80 79 78 76 75 74 74 73 71 75
56 56 56 56 56 56 57 57 57 57 57 57 57 58 57 58 58 59 59 60 61 62 64 64 65 66 67 68 69 71 71 72 73 74 76 78 79 81 84 87 91 95 100 105 101 93 91 89 89 88 86 85 86 85 84 84 84 83 83 82 81 81 81 81 80 80 79 78 78 78 77 77 76 75 74 73 71 70 69 70
57 56 57 57 57 57 58 57 58 57 57 58 58 59 59 59 60 60 60 61 62 62 62 63 63 64 64 65 66 68 69 71 73 74 75 78 80 82 86 89 91 108 137 141 123 100 94 91 89 88 86 86 86 86 85 85 84 83 84 83 82 81 81 81 81 81 80 80 79 79 78 77 75 74 72 70 69 68 67 84
