P2
80 80
255
115 109 108 110 113 116 116 116 118 121 121 125 125 126 130 133 133 135 138 139 138 140 143 144 147 149 153 154 156 158 160 161 164 165 166 166 168 169 169 171 172 172 172 173 174 176 178 176 176 177 176 174 174 172 170 169 168 168 168 166 165 164 163 160 158 158 156 154 153 152 150 150 149 147 144 144 142 141 141 154
102 99 101 102 104 107 109 110 111 112 113 117 117 118 120 124 125 126 128 129 129 131 132 134 136 137 139 142 143 143 144 145 148 149 150 152 153 154 154 156 159 158 158 161 162 165 165 164 163 163 164 164 162 161 161 160 159 159 158 159 157 156 154 152 149 147 145 144 142 142 140 139 138 136 136 134 132 131 130 144
102 101 104 105 106 108 110 111 112 114 115 118 119 121 123 124 125 126 127 130 131 133 134 136 136 138 140 143 145 146 148 148 150 151 152 153 154 156 157 157 158 160 162 164 166 165 166 165 166 166 166 166 165 166 164 162 163 163 162 161 160 160 158 157 155 153 152 150 148 146 144 143 142 140 140 137 134 132 131 145
103 101 104 105 108 109 110 111 113 115 117 119 120 121 124 125 127 128 130 132 135 136 138 139 140 142 144 145 147 149 151 153 154 155 156 157 158 159 161 162 162 163 164 165 166 168 169 168 169 168 167 166 168 167 164 163 165 165 164 161 162 162 160 159 157 157 154 153 150 149 147 147 146 143 141 140 136 135 133 147
103 102 104 106 108 109 111 112 114 117 117 118 120 122 123 125 126 128 130 131 132 134 135 136 136 135 135 137 137 138 139 139 140 140 141 142 144 143 145 146 147 148 148 150 151 152 152 151 151 153 153 154 155 156 157 160 163 165 164 161 163 161 161 160 159 157 156 155 153 152 152 150 148 145 143 142 140 138 137 150
103 102 103 105 107 108 109 112 114 116 116 118 117 118 118 117 116 117 119 121 123 123 126 128 128 130 132 132 133 135 137 138 140 140 141 144 144 144 145 145 146 145 146 149 149 149 148 146 144 142 141 140 139 140 142 143 143 144 145 145 148 150 151 152 154 154 154 153 154 154 155 154 152 148 148 145 144 141 139 153
101 101 104 106 106 108 109 108 109 107 107 110 111 113 115 118 121 123 126 129 131 132 134 135 136 138 139 139 140 141 142 142 144 146 146 147 148 149 149 148 149 150 152 153 153 154 153 152 149 148 147 144 144 146 147 149 148 148 148 147 145 142 141 138 139 139 140 141 144 147 151 152 152 152 151 149 147 146 143 157
101 101 101 100 101 101 102 105 108 111 115 118 120 123 124 125 127 129 130 131 133 134 135 137 138 139 139 141 142 143 144 144 145 146 147 149 149 149 150 150 152 155 155 155 155 155 152 152 150 149 147 146 146 147 148 149 151 150 150 149 148 146 142 141 143 142 141 140 138 138 137 138 139 142 146 149 147 146 143 157
93 93 96 100 105 107 110 114 116 117 119 120 122 123 125 126 128 129 132 132 134 134 136 139 139 140 141 143 144 145 146 146 147 149 149 151 151 152 152 153 154 156 157 158 158 158 155 154 153 151 148 147 148 147 150 151 152 151 150 148 147 144 142 142 143 142 141 142 143 142 142 140 138 135 136 135 138 140 140 157
74 90 106 107 109 110 112 114 115 118 120 121 123 124 126 128 130 131 132 135 135 137 139 140 140 142 143 145 146 146 148 148 150 150 151 153 154 154 155 157 157 158 160 159 159 159 158 156 155 153 151 148 148 150 151 153 151 151 149 150 148 146 143 144 144 143 143 143 143 144 144 141 140 139 138 136 134 131 129 145
65 89 107 108 110 111 113 115 117 118 121 122 124 126 127 129 130 133 134 136 137 138 140 143 142 142 145 146 146 149 149 149 151 153 152 155 157 157 159 159 160 162 163 163 163 162 161 160 157 156 154 152 151 153 154 155 154 152 151 151 150 149 147 147 145 145 145 144 145 146 145 143 141 140 139 137 136 135 132 144
62 87 106 108 110 112 113 116 118 120 121 123 125 127 128 130 132 134 136 137 139 139 142 143 144 145 146 148 149 150 151 152 153 154 156 158 159 159 159 160 160 162 163 164 164 165 162 162 161 160 157 155 156 158 158 156 155 154 154 152 151 151 150 148 148 148 146 147 148 147 147 145 142 143 141 139 137 136 132 146
63 87 107 109 111 112 114 117 119 120 122 125 126 128 129 132 134 135 137 138 140 142 144 145 145 146 147 149 150 151 153 155 158 157 156 157 159 160 160 161 161 160 164 168 168 167 165 164 164 163 161 160 163 149 145 158 156 156 155 155 154 153 153 150 149 149 149 150 151 148 148 146 145 144 141 141 140 138 134 148
66 86 108 110 112 114 115 117 121 123 125 126 129 130 132 134 134 136 137 139 114 107 124 139 147 150 149 151 152 154 156 150 134 111 98 147 161 162 163 165 157 100 107 134 157 170 171 168 167 166 167 163 129 87 98 158 159 157 158 159 145 108 129 146 151 152 151 152 152 151 151 150 148 143 143 142 141 139 136 148
71 86 108 110 113 115 116 118 121 120 106 101 97 94 92 122 136 137 138 139 89 89 89 86 96 121 148 152 153 141 109 88 89 80 89 128 164 163 163 167 142 94 86 80 76 103 148 171 170 170 154 101 78 81 76 140 162 160 160 161 120 74 84 83 112 140 154 154 151 141 128 112 106 140 146 144 143 141 138 150
74 86 109 111 113 116 118 120 122 109 76 81 77 102 76 107 137 138 140 136 85 121 136 100 78 79 139 154 157 124 82 83 100 84 113 111 164 166 165 167 127 105 103 125 59 54 130 175 174 141 73 63 128 86 53 109 163 163 161 156 94 107 110 65 59 109 157 156 123 83 78 55 65 134 147 145 145 135 104 122
76 85 109 112 113 117 119 119 123 113 82 90 104 113 75 100 138 140 142 134 77 74 77 77 89 80 143 156 158 145 93 82 61 119 109 88 161 167 168 169 113 124 127 123 80 63 154 177 177 134 72 131 118 99 91 90 152 164 165 145 70 87 95 86 76 132 161 158 118 82 93 82 70 127 150 144 118 84 79 105
78 83 108 113 115 117 120 122 124 121 70 81 80 72 69 92 138 140 144 129 91 83 59 96 90 88 149 156 158 159 94 73 64 125 92 69 149 170 170 164 101 124 126 115 70 84 173 178 178 164 91 118 120 81 76 66 133 167 166 119 63 98 84 120 101 155 163 160 128 92 95 114 88 123 152 136 88 109 90 73
78 81 106 114 116 118 120 122 124 123 81 78 69 76 82 88 136 141 145 123 87 102 67 86 61 92 155 158 160 163 121 100 102 133 98 84 128 173 175 156 71 100 113 103 64 112 182 180 181 180 122 120 160 101 77 108 160 169 163 96 75 110 103 89 113 167 165 163 137 86 101 80 64 113 154 146 94 98 91 72
80 80 105 114 115 118 121 122 124 126 89 55 70 76 93 80 133 143 145 135 95 84 76 95 57 100 159 160 162 165 147 74 97 95 68 97 143 175 176 166 112 95 102 71 55 144 185 182 183 184 161 85 85 94 145 176 176 173 170 151 125 98 81 67 145 171 168 166 144 83 70 64 82 131 155 152 116 80 87 78
81 78 102 115 117 119 121 124 126 129 109 81 87 91 95 106 136 145 146 147 149 141 127 106 82 119 161 162 164 166 164 99 92 125 152 169 176 177 177 180 180 170 151 121 106 172 186 187 186 186 182 116 117 174 185 181 181 180 179 178 178 171 153 140 167 170 170 168 156 118 129 147 155 158 157 154 134 65 69 120
81 77 99 114 117 120 122 125 126 129 131 132 134 137 139 141 142 145 147 149 151 155 157 158 155 155 162 165 167 168 169 165 168 175 177 178 179 180 181 184 185 186 187 187 186 190 189 190 190 190 188 182 188 188 187 185 185 183 183 181 181 179 179 178 176 174 173 171 168 168 167 165 163 161 158 156 148 117 133 164
80 77 94 116 119 121 122 126 127 129 131 134 135 137 139 143 145 145 148 150 152 155 157 158 161 163 164 166 170 170 172 174 176 178 179 180 182 182 183 186 187 188 189 190 192 193 192 193 192 192 190 190 191 190 189 188 187 187 186 185 183 183 183 180 179 176 175 174 172 170 168 166 166 163 161 158 156 155 153 164
80 77 89 115 120 121 123 126 127 130 133 134 136 139 141 144 146 146 149 151 154 157 158 162 162 166 167 168 170 173 174 177 178 181 183 184 185 186 187 188 192 192 192 195 196 196 196 195 195 196 197 196 196 196 195 192 191 190 190 190 190 167 152 183 182 179 178 178 171 145 166 171 166 165 163 160 159 152 150 166
81 78 86 112 119 122 124 126 129 131 133 136 125 109 136 146 147 148 151 152 155 158 134 116 156 170 170 173 173 176 177 181 183 178 161 168 188 188 189 190 191 188 189 187 188 194 199 199 199 190 170 165 160 153 165 194 195 193 195 185 140 107 101 175 186 182 180 180 138 65 105 162 171 166 164 165 146 100 137 170
81 78 82 109 119 121 124 126 129 132 134 137 101 53 72 113 144 152 152 154 157 157 104 98 100 133 168 176 176 177 174 156 127 108 79 107 190 192 193 194 139 108 101 101 99 154 205 202 204 141 79 92 95 96 123 197 199 195 163 107 125 141 115 150 188 186 183 162 93 118 92 97 152 169 169 147 89 82 101 169
83 78 79 105 120 122 125 127 129 132 135 133 79 55 51 51 80 123 151 156 159 144 81 126 115 63 94 152 178 181 144 75 95 130 94 80 179 196 196 196 123 154 130 95 112 151 207 205 204 129 118 116 166 138 137 202 202 173 94 87 118 86 120 127 188 189 182 104 74 154 95 68 119 173 149 93 69 93 89 145
85 79 78 99 120 123 125 127 130 133 136 119 75 104 97 85 99 83 140 158 160 120 103 115 94 85 57 98 178 184 162 91 150 146 121 113 159 200 200 200 128 142 166 106 78 157 210 209 207 126 90 102 126 78 150 207 205 190 96 81 129 74 98 92 180 194 139 61 123 116 95 92 164 175 121 99 137 131 78 124
89 79 78 93 119 123 126 128 130 133 137 101 72 86 98 123 97 97 151 160 156 86 109 167 114 127 86 129 183 184 184 109 105 101 176 112 126 201 204 206 115 93 167 148 77 166 215 214 205 131 163 120 90 95 168 213 208 207 135 87 138 93 94 140 191 192 158 89 88 62 75 153 182 176 161 102 111 111 104 171
93 80 78 86 116 123 126 129 130 133 136 117 82 78 96 122 93 119 157 158 159 122 90 116 113 109 90 166 185 185 191 142 120 122 137 68 100 198 206 208 120 110 127 131 97 175 219 216 206 118 143 136 116 88 188 216 212 210 181 91 106 135 182 204 199 197 195 177 109 59 126 186 182 179 178 137 94 108 158 182
96 82 78 81 111 123 125 128 130 133 135 140 137 112 75 60 79 143 157 161 164 168 157 116 96 105 121 183 186 188 193 175 107 110 105 137 177 207 209 211 154 128 125 127 141 203 222 221 214 175 167 175 180 191 216 218 217 217 207 147 168 208 210 207 205 202 199 198 189 159 182 189 186 183 180 170 135 164 169 185
98 84 77 77 103 123 126 129 131 133 136 139 142 145 142 112 111 151 159 163 165 168 171 176 159 121 160 187 188 191 195 195 163 175 199 208 210 210 212 214 217 218 221 223 226 225 225 226 225 228 227 227 227 225 223 222 220 220 216 216 216 214 211 209 208 204 203 200 197 197 193 191 188 185 183 179 179 176 171 187
97 87 78 76 95 122 126 128 131 133 137 139 142 147 144 151 155 157 161 164 166 169 172 175 179 183 184 187 190 195 198 199 204 206 208 209 211 214 216 219 221 225 226 227 228 228 228 228 229 229 229 229 231 228 227 227 225 223 223 222 222 220 217 213 211 209 205 202 204 201 197 194 191 190 189 186 183 179 173 190
97 91 79 76 87 119 126 129 132 134 136 140 143 146 149 151 155 159 163 164 167 171 175 177 181 185 190 191 192 197 199 200 205 209 208 210 215 218 222 223 226 219 221 233 233 234 233 235 236 237 233 218 204 229 233 231 229 217 203 198 191 190 212 217 215 214 155 115 147 173 193 197 195 177 133 129 126 148 174 193
97 94 82 76 81 114 127 130 132 135 138 139 143 148 149 113 103 151 165 166 170 173 176 179 175 163 140 169 196 200 202 205 211 189 119 155 221 221 226 229 230 141 102 186 235 241 239 239 223 186 153 115 120 219 237 236 229 132 103 89 122 123 201 224 220 201 92 137 148 94 141 202 198 150 107 77 78 124 180 196
96 95 87 78 77 105 126 130 134 135 139 142 145 149 122 77 63 90 144 169 171 175 158 117 97 73 87 120 196 202 205 199 146 86 126 110 196 229 227 234 200 108 109 122 130 209 246 240 140 148 147 120 95 210 243 242 220 136 145 115 103 132 217 227 225 161 101 161 173 107 170 208 199 131 98 89 125 154 182 198
96 94 91 78 75 95 125 130 132 135 139 141 145 129 92 83 78 78 87 134 170 177 152 80 99 122 105 70 179 205 207 140 106 112 158 106 122 225 233 229 140 157 153 150 72 171 252 249 151 128 113 145 108 197 248 247 212 134 132 159 106 136 231 232 211 103 100 148 163 136 206 208 192 121 101 76 94 174 185 200
96 94 94 83 75 86 121 129 133 136 138 141 144 103 88 90 116 122 91 72 152 177 176 121 123 107 88 86 144 206 210 179 135 163 111 92 77 186 242 200 109 167 242 161 114 239 254 255 184 134 120 141 111 186 252 251 196 100 119 135 135 173 237 234 199 112 92 116 124 176 217 213 184 112 105 81 114 188 188 204
94 92 95 88 76 79 113 128 132 135 138 141 144 141 100 80 116 111 77 119 170 177 181 153 92 149 145 96 118 201 212 218 157 67 84 87 153 219 240 234 182 146 195 151 204 255 254 255 211 90 100 140 194 238 254 255 215 164 165 164 175 222 242 238 235 224 201 171 166 216 217 215 205 191 188 189 192 194 191 206
93 92 95 92 78 75 104 127 132 135 138 140 144 149 151 125 102 84 111 167 175 177 182 180 106 99 133 154 186 208 213 218 218 124 122 196 236 241 242 246 251 236 180 179 253 255 255 255 247 219 244 255 255 255 255 255 255 255 255 255 253 249 243 242 240 238 236 233 228 223 220 217 214 212 208 205 200 197 191 206
91 91 94 94 81 74 91 124 131 134 137 141 144 148 150 156 140 122 158 170 174 177 181 185 180 185 198 204 208 210 215 219 224 217 224 236 237 242 245 248 251 254 255 255 255 255 255 255 255 255 255 255 255 255 255 255 255 255 255 255 252 250 247 243 243 239 221 231 229 225 223 220 210 206 213 210 203 199 194 208
90 89 92 95 87 75 81 119 129 133 136 139 143 147 150 154 159 164 168 171 174 178 180 186 190 197 201 203 207 212 216 220 226 232 235 240 244 247 250 252 254 255 247 243 255 255 255 255 255 218 237 255 255 255 255 255 255 244 215 190 242 254 251 250 242 180 112 189 236 230 227 220 148 137 148 175 204 204 196 210
91 88 90 93 91 77 75 109 128 132 137 139 143 147 151 154 160 158 140 160 175 179 182 185 190 158 152 194 212 216 218 224 213 194 194 192 202 243 253 255 254 215 143 135 251 255 255 255 219 122 113 176 242 255 255 223 173 133 123 112 220 255 254 241 172 109 94 104 205 235 230 183 121 169 93 117 206 205 199 212
90 88 90 91 93 82 73 98 127 132 136 138 142 146 150 155 139 102 83 112 168 179 182 186 179 112 104 88 153 198 219 227 167 99 100 117 123 233 255 240 161 160 162 111 194 255 255 247 156 157 150 80 152 250 255 194 126 151 158 128 208 255 244 157 146 126 101 133 150 233 223 149 113 122 99 175 211 206 200 212
90 89 89 91 92 87 74 86 122 130 133 137 141 145 148 115 90 110 127 84 118 175 181 186 139 100 123 94 115 133 218 229 176 112 118 155 109 232 255 238 125 111 189 148 108 242 255 190 173 191 133 98 202 255 255 216 176 167 92 87 190 255 250 168 101 121 130 139 218 237 197 117 118 136 149 211 211 207 200 214
89 88 88 91 92 90 77 77 114 127 131 134 139 142 146 112 95 124 130 133 104 132 181 178 105 100 132 150 92 171 222 229 185 101 160 143 134 230 255 255 200 134 202 150 180 248 255 228 170 120 106 185 255 255 255 235 126 114 126 169 232 255 255 250 160 95 171 234 241 236 225 197 172 144 189 216 210 207 200 213
88 87 88 89 90 91 82 73 100 125 129 132 136 140 144 146 119 117 110 98 99 145 179 181 160 124 104 129 135 211 222 229 205 130 138 140 172 242 255 255 254 184 182 232 255 255 255 255 255 218 171 245 255 255 255 253 224 237 255 255 255 255 255 255 246 212 242 245 241 237 234 235 231 224 219 215 212 206 203 207
87 85 88 88 89 91 87 73 89 121 127 130 133 138 143 145 147 115 100 121 160 175 177 183 189 192 178 146 181 216 221 226 231 234 240 250 255 255 255 255 255 255 255 255 255 255 255 255 255 255 255 255 255 255 255 255 255 255 255 255 255 255 255 255 250 251 248 244 240 237 234 229 207 218 219 217 212 208 202 193
85 84 87 87 87 89 89 77 79 113 124 127 132 136 140 142 148 147 147 163 167 172 177 182 186 191 199 207 210 213 220 226 233 238 247 244 254 255 255 255 255 245 244 255 255 255 255 255 255 250 229 247 255 255 255 255 243 217 209 252 255 255 255 234 162 171 241 242 237 234 203 141 122 195 220 214 211 208 197 179
84 83 85 87 86 87 89 82 74 104 120 124 129 133 136 141 145 150 157 159 165 170 174 179 185 192 195 163 163 211 218 227 235 235 192 146 213 255 255 255 252 145 154 203 243 255 255 221 163 141 158 202 255 255 231 165 180 111 99 239 255 254 217 164 165 123 163 234 228 156 102 83 110 166 218 213 209 206 188 169
82 81 83 85 86 86 88 85 73 91 116 121 125 129 133 137 141 128 117 118 114 126 167 175 180 168 120 91 99 173 218 226 207 145 118 161 152 236 255 255 199 138 167 154 155 250 255 172 111 171 141 161 255 255 223 142 196 175 137 219 255 222 99 148 161 146 110 212 227 125 109 167 160 151 211 209 205 202 173 161
81 80 82 84 85 85 86 87 76 81 109 118 121 125 129 134 135 94 78 76 62 75 155 174 163 103 115 131 116 105 191 224 188 136 159 172 115 154 255 243 163 189 181 187 193 255 255 203 128 200 193 143 248 255 242 144 176 176 154 207 255 240 152 120 113 146 199 223 223 172 93 128 167 197 204 203 199 193 158 158
79 79 80 82 83 85 84 87 81 75 102 113 118 120 124 128 132 104 90 77 75 87 141 167 169 132 112 156 145 107 170 218 222 170 117 116 158 210 255 253 222 194 131 165 251 255 255 237 157 188 202 222 253 255 254 169 150 191 219 241 247 242 231 152 134 205 222 217 214 200 156 188 202 200 198 196 194 180 145 152
79 78 79 81 83 84 84 85 84 74 91 109 112 115 119 123 129 110 72 73 84 80 131 161 166 166 127 120 123 173 203 211 218 214 152 176 241 255 255 255 255 254 221 234 255 255 255 255 246 252 255 255 255 255 255 254 254 255 253 246 241 234 232 224 218 216 210 209 204 204 204 197 194 192 191 188 185 163 137 147
78 77 79 79 80 82 84 83 84 76 81 103 108 111 114 118 122 119 102 108 116 123 143 154 159 166 162 152 182 191 198 203 212 220 229 244 252 255 255 255 255 255 255 255 255 255 255 255 255 252 251 252 253 252 250 249 246 243 242 236 231 220 192 194 203 204 202 197 188 169 138 146 185 183 181 179 172 146 132 142
77 76 77 78 80 82 82 83 84 79 75 95 105 107 111 113 116 120 125 130 136 139 143 148 153 159 164 165 173 184 190 196 203 206 207 211 215 239 255 255 247 201 205 220 241 255 252 204 168 166 170 210 243 239 192 163 157 147 192 229 222 190 143 132 125 150 191 173 103 121 101 119 174 172 168 166 155 133 128 136
76 75 77 77 79 80 81 83 82 81 74 88 100 102 106 108 112 115 119 119 102 117 135 142 145 151 146 105 114 145 171 185 195 149 109 107 95 183 253 255 219 171 151 129 172 246 239 163 147 152 147 180 228 226 160 153 168 134 182 219 207 149 151 113 108 148 182 160 98 116 122 126 165 162 158 155 142 127 122 130
74 74 75 77 77 78 80 81 82 82 75 80 95 98 101 104 106 109 112 85 62 82 104 127 138 142 105 79 93 99 103 171 185 136 120 102 91 170 243 251 203 165 163 162 192 236 227 144 108 114 111 173 215 211 149 136 172 156 195 213 190 116 125 105 113 170 172 156 89 97 122 139 153 151 148 142 128 119 115 122
74 73 74 76 77 78 79 80 81 81 78 75 90 95 98 100 102 104 86 77 69 72 78 97 132 124 87 87 100 76 114 167 175 136 93 124 105 164 233 238 207 175 158 152 213 224 215 160 133 110 118 174 198 197 161 153 177 180 199 202 193 173 156 135 147 165 161 155 136 143 148 147 142 139 136 129 116 112 108 115
73 72 74 74 76 76 77 78 80 80 79 74 85 91 93 95 99 101 88 72 73 78 79 109 125 122 110 103 84 88 144 157 163 150 129 149 159 190 218 227 232 231 216 202 215 209 201 192 184 181 180 181 183 182 184 186 188 193 191 188 184 179 173 166 159 152 148 145 144 140 136 134 129 127 123 115 108 107 103 110
71 70 72 74 74 75 76 77 79 79 79 75 79 88 90 92 94 97 100 96 79 73 103 117 119 122 126 125 117 126 143 148 152 159 169 174 184 194 204 215 222 225 221 214 204 194 187 182 175 171 169 167 164 164 165 167 168 171 173 172 168 162 156 150 143 139 135 132 129 126 123 120 117 114 112 107 105 102 100 106
70 70 71 72 73 74 75 76 77 78 78 76 75 85 87 89 91 93 95 99 100 100 106 111 114 115 119 124 127 130 134 138 143 147 154 161 168 177 187 198 205 206 202 195 188 178 169 164 158 154 151 149 149 148 148 150 151 154 156 155 153 148 143 138 133 127 123 120 117 115 114 111 109 106 106 103 101 99 96 102
69 69 70 71 72 73 74 75 76 76 77 77 74 82 83 86 87 89 92 95 97 100 101 104 108 108 111 114 117 120 123 127 131 135 139 145 150 158 167 176 182 182 180 173 166 159 153 147 143 140 137 135 136 134 134 134 134 135 135 133 131 129 124 121 118 116 114 112 110 110 109 107 106 105 103 100 99 97 93 99
69 68 69 70 70 72 73 73 75 75 77 77 74 77 81 82 84 86 88 89 92 94 97 99 101 103 106 108 109 112 114 118 120 122 125 129 132 136 140 144 146 145 144 140 139 136 134 133 131 128 127 126 125 123 123 121 120 120 119 118 118 117 115 114 112 113 112 110 109 109 108 105 103 102 101 99 96 93 91 96
68 67 68 68 69 71 71 72 73 74 76 76 76 76 79 80 81 82 84 85 88 89 91 93 96 98 100 101 103 104 106 109 111 112 115 118 120 121 124 125 126 128 128 128 129 129 127 127 126 125 124 122 122 120 120 120 119 118 116 116 115 115 114 112 111 110 108 108 106 106 104 103 101 100 98 97 94 92 89 92
66 65 66 67 68 69 70 71 72 73 73 75 75 75 76 78 79 80 81 83 84 86 89 93 96 98 99 99 100 103 105 104 109 111 113 115 117 119 121 122 124 126 127 127 127 127 126 125 124 123 121 120 119 118 118 116 115 115 115 114 113 112 111 110 109 108 107 107 106 104 103 102 100 98 97 95 93 90 87 90
65 64 65 66 67 67 68 70 71 72 71 73 74 75 76 77 78 80 81 82 84 87 90 93 95 97 99 100 100 100 101 103 106 108 111 112 115 116 118 120 122 123 124 124 123 123 123 122 122 120 119 117 116 116 114 113 113 112 112 111 111 110 109 108 108 107 107 106 105 103 102 101 99 97 95 92 91 87 84 88
64 62 64 64 66 66 67 68 69 70 70 71 72 73 74 76 76 78 79 82 84 87 88 91 93 95 96 99 97 97 99 101 103 105 107 109 112 114 116 118 119 121 123 123 123 123 122 121 120 119 118 116 114 113 113 111 111 110 109 109 108 108 108 107 107 106 106 104 103 102 100 99 98 95 94 91 88 86 83 86
63 62 63 63 64 65 66 67 68 69 70 70 71 71 73 74 75 77 78 81 83 85 87 89 91 92 94 97 96 95 96 99 101 103 105 108 110 113 115 117 119 121 123 122 123 123 122 122 119 118 116 114 113 111 111 109 109 109 108 107 107 107 106 105 105 104 104 103 102 101 100 98 97 95 93 90 87 84 82 85
62 61 62 62 63 65 65 66 67 68 69 69 70 70 71 72 73 75 77 80 82 84 86 86 89 90 91 95 94 93 94 97 99 101 103 106 110 112 114 116 119 120 119 121 121 122 121 118 117 116 114 112 111 110 108 108 107 107 106 106 106 106 105 104 104 104 104 103 102 100 100 98 95 92 89 86 84 82 79 83
61 61 61 62 63 63 63 64 65 66 67 68 68 69 70 71 72 73 75 79 81 81 83 84 86 87 89 91 91 91 92 94 97 99 101 104 107 109 112 114 116 117 118 120 120 121 120 118 116 114 113 111 109 108 106 105 105 104 105 104 104 104 104 105 104 103 101 100 99 97 95 93 90 87 85 82 81 79 77 80
60 60 61 62 62 63 63 63 64 65 66 68 67 68 69 70 71 72 75 78 79 80 81 83 84 85 87 88 89 89 91 93 94 96 99 102 105 107 111 114 116 117 119 120 121 123 122 119 117 115 112 111 109 107 105 104 104 104 104 103 103 102 101 101 101 99 97 95 94 93 90 88 85 83 81 79 77 75 74 78
60 60 60 61 62 62 63 63 64 65 65 67 66 67 69 69 71 72 74 77 78 79 80 81 82 84 87 87 87 87 89 91 94 96 98 101 104 107 110 112 115 116 117 118 122 125 122 117 114 111 109 108 106 105 104 103 103 102 102 102 100 98 97 96 96 93 92 91 90 87 86 84 81 80 78 77 75 74 73 78
60 59 60 60 60 62 62 63 63 64 65 66 66 66 67 68 69 71 74 76 77 78 80 80 81 84 86 85 85 86 87 90 92 94 97 99 101 103 105 107 108 111 113 112 116 119 117 113 108 106 104 101 101 100 100 100 99 98 98 97 95 94 93 92 91 89 88 86 85 82 81 80 79 77 76 74 73 72 71 75
59 58 59 59 60 60 61 62 62 63 63 64 65 66 66 67 68 70 72 75 77 77 79 79 81 82 82 82 83 84 86 87 90 91 93 94 96 97 99 101 102 104 105 107 114 119 118 109 104 102 99 99 98 96 95 95 95 94 94 92 91 90 89 88 87 85 84 82 82 80 78 78 77 75 74 72 70 68 67 71
59 58 58 58 59 59 60 61 61 62 62 63 63 64 65 66 67 68 70 73 75 76 77 79 80 80 79 79 80 81 83 83 85 87 88 90 90 92 93 95 97 97 99 100 105 108 109 103 100 98 96 94 93 93 92 92 90 89 89 88 88 86 85 85 83 83 81 81 79 79 78 76 74 72 71 68 66 66 66 71
59 58 58 58 59 59 60 60 60 62 62 62 62 63 64 64 65 66 67 70 72 74 76 76 77 76 77 77 77 78 79 81 82 83 84 85 86 88 89 90 92 93 95 99 102 103 103 100 96 95 93 92 91 90 89 89 87 86 86 84 83 83 82 82 81 80 80 80 78 75 73 71 69 69 68 67 67 67 67 71
58 57 57 58 58 59 59 60 60 60 61 61 61 62 63 63 64 65 66 68 69 70 72 73 73 73 74 74 75 76 77 77 78 79 80 81 83 84 85 87 89 91 94 98 101 103 103 99 95 92 91 89 88 86 85 86 84 83 83 82 81 81 81 79 79 78 75 74 72 69 69 69 70 70 69 69 69 68 67 72
55 55 55 56 57 58 58 59 59 60 60 60 61 61 61 62 63 64 64 66 67 67 68 69 70 70 70 72 72 73 74 75 76 76 77 79 80 81 82 84 86 89 93 97 106 107 101 97 93 89 88 85 85 85 83 83 82 80 79 78 77 75 74 72 73 71 70 70 71 71 71 70 71 70 71 70 69 69 68 71
55 55 56 56 56 57 57 57 58 58 59 60 61 62 62 63 63 64 65 65 67 67 68 68 69 70 70 71 72 73 74 74 76 77 77 79 80 81 83 85 87 89 93 99 124 139 132 105 91 91 88 86 84 82 80 79 78 77 76 74 73 73 72 73 73 74 74 74 75 75 76 74 74 74 74 73 72 72 71 88
