P2
80 80
255
103 124 180 184 186 184 184 185 69 54 38 34 21 35 74 172 166 164 163 170 178 94 37 39 61 43 24 38 204 201 203 205 201 202 168 40 53 59 92 69 134 204 210 207 208 204 190 30 53 113 131 145 147 150 155 145 113 151 144 152 145 146 153 130 135 128 135 132 133 146 131 119 112 102 97 101 91 104 107 114
170 174 170 187 191 186 187 191 186 59 47 33 28 42 173 122 168 163 171 172 160 168 49 50 74 46 24 103 162 201 203 203 205 202 194 46 51 61 95 82 73 204 205 210 208 203 202 36 50 104 134 135 152 126 157 144 155 144 135 147 148 143 137 137 136 124 131 130 116 138 133 104 124 117 89 103 86 109 107 98
170 172 168 184 186 192 186 191 187 152 54 37 33 163 173 170 161 161 158 173 171 168 160 45 66 67 33 175 177 202 202 206 204 202 201 77 51 53 86 81 176 158 204 207 205 209 203 62 45 105 132 146 143 153 160 150 136 145 135 140 128 147 152 148 140 133 143 139 136 139 132 109 119 100 103 94 92 96 104 113
171 173 181 128 184 193 190 190 190 187 49 33 72 175 168 162 152 157 160 171 168 169 179 57 66 53 168 177 174 146 203 204 204 205 201 202 54 56 87 148 178 185 190 207 210 206 206 61 37 124 141 145 147 90 144 153 149 136 132 146 146 119 135 149 142 144 143 131 123 126 144 119 113 113 92 106 94 93 97 90
173 174 181 183 171 188 190 192 190 191 191 27 171 173 164 161 172 133 157 151 155 167 159 167 47 109 178 179 165 167 184 206 205 207 202 201 178 56 86 178 179 172 173 207 206 210 208 59 38 102 145 145 151 166 151 155 145 152 144 155 140 148 152 144 123 131 139 146 126 128 131 120 118 118 100 104 100 99 106 94
176 176 182 181 23 187 190 190 193 190 191 177 171 162 161 165 172 185 146 136 156 165 160 186 136 169 174 166 165 166 175 202 206 208 205 198 199 57 176 181 173 164 168 151 206 206 206 64 37 130 123 136 146 144 130 155 144 134 153 155 135 144 143 139 110 143 130 131 134 144 136 129 115 112 95 102 94 98 107 106
178 178 181 77 20 55 190 196 194 194 191 195 166 166 166 168 184 51 25 142 153 156 162 170 173 172 179 167 170 169 176 66 206 206 205 204 195 200 176 183 175 167 172 177 203 205 210 60 46 127 125 127 155 160 153 146 146 163 148 157 151 148 130 137 136 140 123 137 115 111 139 114 116 119 96 98 88 104 109 82
179 181 171 45 25 15 182 193 199 192 195 198 195 167 171 181 170 17 24 108 144 158 161 177 172 178 173 172 174 173 18 14 197 206 208 207 199 200 187 178 174 169 177 48 72 206 206 63 45 102 133 126 131 162 143 150 140 146 157 146 122 156 162 143 102 139 137 147 137 150 128 122 108 101 99 105 95 104 112 116
179 178 40 60 37 15 15 190 192 195 197 190 195 171 177 180 61 31 27 30 143 154 166 172 175 179 165 174 177 82 14 15 24 208 208 208 202 197 201 177 175 175 109 60 84 162 206 54 45 125 116 114 153 156 140 139 145 159 146 155 133 136 140 129 136 136 126 130 135 135 135 118 120 106 78 108 97 104 116 93
150 72 37 68 55 18 15 74 193 197 194 199 194 193 177 79 61 49 32 25 51 154 159 170 175 176 187 172 175 37 21 25 27 115 208 205 203 200 197 198 172 172 52 68 94 64 205 58 39 89 133 135 143 164 150 158 132 146 160 151 138 157 152 162 142 144 131 133 123 123 131 113 109 107 100 97 99 114 96 111
147 48 42 58 60 39 15 22 186 198 196 198 194 193 196 61 70 48 44 33 50 147 165 171 174 172 179 182 42 38 40 41 30 33 207 205 205 202 202 201 177 47 81 63 94 91 79 50 48 85 113 135 148 128 147 143 147 159 154 151 144 134 144 148 136 135 135 133 152 142 141 105 131 110 85 102 98 98 114 88
151 146 41 59 56 56 18 166 142 193 196 196 195 196 198 92 74 54 50 40 53 170 172 161 172 170 177 184 67 46 62 55 31 35 155 207 205 203 201 200 201 62 60 88 101 94 42 44 47 74 121 138 152 152 150 168 157 121 132 153 157 158 150 159 146 151 137 134 117 134 135 108 121 120 98 99 110 103 91 116
156 157 130 63 61 51 92 169 170 131 192 193 195 199 194 201 86 68 49 54 172 178 136 170 167 171 167 175 182 52 70 76 31 140 178 179 203 203 200 201 200 164 67 67 96 90 65 57 42 62 103 150 145 153 107 157 156 160 155 146 145 156 122 147 138 135 144 144 153 136 151 119 121 106 92 99 95 98 114 112
145 157 148 59 64 34 167 165 165 166 188 193 199 196 197 199 192 53 42 126 172 179 175 175 167 168 174 173 175 156 88 74 49 173 182 175 207 202 200 202 202 200 62 69 93 97 79 52 39 54 126 138 161 163 161 173 167 138 126 146 145 150 156 162 148 144 134 128 138 134 145 118 129 108 94 95 98 98 71 110
142 149 157 151 41 160 163 166 165 161 144 193 194 196 202 201 203 73 41 172 180 175 169 161 184 175 173 170 179 181 78 52 167 171 177 164 135 203 200 203 201 201 199 85 99 91 55 72 45 48 125 148 154 142 146 149 156 159 149 118 144 143 139 121 156 139 143 138 144 134 149 130 127 100 103 99 85 97 119 120
128 147 154 157 142 166 161 163 162 163 175 111 193 199 201 202 196 200 171 175 180 171 175 175 135 181 166 171 175 174 182 128 168 175 172 170 170 193 200 201 203 203 202 103 96 101 63 55 44 54 125 142 150 162 148 150 156 154 155 152 154 151 151 151 144 135 134 135 135 118 138 126 126 107 84 90 94 103 89 108
122 139 150 160 160 155 164 163 164 171 157 16 192 196 200 199 200 199 192 179 175 171 175 175 19 176 180 172 175 173 174 171 174 178 167 171 168 25 203 201 203 202 201 201 95 104 86 76 46 44 125 136 139 135 155 131 149 143 150 143 158 128 149 151 154 120 146 146 138 145 147 139 116 99 100 101 95 102 125 110
123 128 143 151 155 161 158 161 166 172 22 17 23 196 200 201 202 201 202 175 170 176 173 84 18 41 185 179 174 168 175 178 175 171 170 174 114 12 101 202 202 199 202 200 184 107 94 58 45 63 129 156 137 135 131 141 139 157 156 158 159 140 144 128 138 142 139 148 121 129 120 140 120 106 82 97 103 107 106 103
128 124 133 149 141 157 151 161 166 68 44 26 21 127 195 201 200 201 200 201 176 176 170 63 41 39 137 185 172 171 171 171 175 170 173 167 86 103 62 201 202 199 200 202 201 105 69 53 46 45 136 132 147 148 162 142 159 132 151 159 150 137 152 155 144 124 147 153 136 134 125 130 112 104 97 100 105 118 119 113
37 123 132 138 150 160 163 163 144 69 71 48 23 26 193 199 200 205 198 200 189 173 65 79 67 36 35 184 178 172 165 168 174 171 119 119 125 123 121 130 203 201 199 200 201 201 72 63 48 51 127 132 85 159 129 154 160 157 151 153 148 139 136 149 135 133 150 137 123 140 149 134 117 103 90 101 104 115 106 100
16 131 129 130 144 156 160 161 39 60 71 66 29 21 37 196 204 199 203 199 202 101 63 87 65 42 31 52 184 173 169 167 155 112 123 129 134 144 134 131 128 200 200 200 204 202 142 65 41 46 146 134 134 149 148 154 162 146 137 130 149 151 142 143 149 143 140 125 134 126 119 117 115 97 96 92 112 119 103 118
127 129 132 128 132 148 154 157 134 63 79 75 35 27 166 162 199 203 200 196 197 197 79 90 55 58 47 134 166 184 170 153 114 130 134 140 147 149 146 145 130 190 200 198 203 200 202 67 46 50 134 129 141 149 156 130 157 157 152 155 147 146 148 134 154 147 149 139 146 137 138 136 110 92 98 102 89 106 110 97
146 148 90 127 129 137 152 157 157 61 83 78 54 136 166 169 194 200 198 198 199 197 143 90 61 58 48 171 169 178 155 109 128 138 145 160 170 155 154 151 139 121 197 201 201 204 200 53 49 51 128 132 146 157 156 159 160 166 122 113 147 146 145 144 158 152 130 120 133 134 133 136 99 101 95 86 99 107 82 108
145 149 155 139 133 131 144 153 156 154 76 72 58 155 167 168 120 196 199 198 197 196 200 92 54 49 167 170 175 119 124 117 135 148 158 164 223 166 164 158 141 127 170 200 201 200 196 52 53 46 130 112 145 150 153 151 143 139 155 148 109 149 137 135 159 149 142 132 135 128 136 144 125 99 100 101 101 111 105 109
144 149 150 129 141 131 131 151 152 153 135 59 155 160 167 165 167 163 196 201 199 199 197 194 59 138 166 171 171 129 96 115 140 155 166 151 196 167 163 155 150 133 21 198 200 198 198 52 53 45 74 131 140 154 155 160 151 156 151 151 152 150 140 141 151 146 133 146 142 135 123 118 128 94 91 91 103 113 117 86
74 72 72 65 42 84 92 110 121 134 138 105 126 129 122 126 123 117 158 169 174 176 180 188 86 160 161 169 153 107 101 128 149 167 164 165 164 165 158 157 149 134 20 90 200 196 191 57 56 43 67 128 132 135 127 166 135 134 142 155 147 140 132 144 158 147 145 137 138 142 139 134 131 97 99 103 97 103 114 108
68 51 27 28 28 28 35 48 39 33 38 97 78 71 29 20 29 26 29 18 18 18 29 61 28 22 23 29 25 14 105 136 145 163 146 147 161 161 157 156 151 136 19 14 37 65 55 53 68 66 48 124 155 134 136 131 148 153 154 157 148 138 150 112 127 138 138 140 129 123 138 139 125 93 79 95 103 108 113 85
64 71 37 33 40 66 72 78 76 55 60 56 89 87 101 68 84 78 82 47 51 49 85 96 84 59 49 53 48 34 102 133 156 164 153 149 161 158 164 152 141 131 22 20 65 86 66 58 55 62 46 126 122 144 150 166 136 162 122 151 157 142 144 145 145 144 130 136 124 142 127 113 122 101 97 105 112 99 106 117
67 66 39 42 41 51 70 76 85 64 56 56 68 81 97 91 78 94 82 53 57 59 101 94 90 68 59 41 43 39 89 132 147 167 138 138 157 156 152 149 139 115 32 25 40 73 67 62 64 68 48 136 133 126 146 132 155 153 159 147 148 137 143 128 130 144 111 140 134 149 139 133 129 95 83 102 94 98 97 110
60 71 68 45 44 49 67 72 82 83 62 118 148 150 126 109 69 68 70 61 60 68 87 86 87 66 65 49 50 39 76 124 143 162 168 161 156 154 149 143 133 100 55 28 24 84 61 60 62 73 46 157 114 125 147 155 140 168 160 105 129 137 149 141 133 135 133 139 125 139 125 111 124 103 93 99 107 105 106 111
59 69 65 46 44 60 56 80 96 82 150 181 196 191 171 191 170 128 71 101 80 59 84 95 79 58 68 45 44 39 74 101 143 161 164 157 157 151 144 139 120 49 59 29 23 67 66 64 57 68 46 136 138 121 150 156 130 156 158 159 143 125 136 143 143 141 111 144 136 138 129 125 130 103 89 103 99 103 115 98
65 63 73 50 50 52 52 81 66 165 185 195 205 203 188 200 198 186 177 81 103 104 74 89 89 63 60 47 53 39 27 87 137 165 161 156 154 147 140 133 101 39 60 30 24 71 80 64 71 75 44 114 118 136 143 156 156 158 157 128 143 138 138 126 134 125 134 131 123 126 132 122 130 96 79 95 88 109 106 97
54 72 69 67 54 51 57 60 48 189 197 196 208 211 198 201 209 197 196 185 85 108 114 89 89 74 81 52 52 43 26 75 103 160 153 152 151 143 127 119 71 44 61 47 28 66 74 64 61 93 51 116 117 136 148 163 123 142 155 161 130 129 144 154 149 148 138 139 131 136 119 135 140 119 89 102 95 108 115 113
46 73 69 86 76 60 50 30 40 164 190 184 199 221 202 198 216 194 201 201 197 96 99 99 91 80 59 63 58 42 39 34 84 128 151 142 147 149 149 143 135 114 110 67 23 52 67 59 56 88 50 65 113 149 151 162 162 154 155 151 156 149 144 149 131 141 130 132 139 141 135 118 132 111 88 93 98 109 113 81
48 73 79 82 81 54 56 43 44 55 156 180 192 198 187 174 211 189 201 203 193 70 101 105 116 88 80 86 68 49 50 27 66 81 145 139 145 147 147 154 152 133 131 91 32 47 74 57 58 76 50 86 115 138 152 143 147 124 145 147 148 147 146 143 139 156 152 149 145 144 129 137 146 128 87 98 98 109 113 113
38 42 67 71 77 60 64 60 64 64 55 135 189 194 191 193 205 203 204 199 190 87 98 100 107 94 68 76 94 109 59 54 34 63 93 119 137 144 138 143 145 137 144 114 65 45 64 51 63 81 55 52 116 141 152 158 153 140 138 158 151 145 150 149 130 149 141 139 153 130 129 132 122 132 83 92 104 106 113 80
38 44 77 84 75 75 49 59 63 61 88 86 77 160 178 185 197 193 193 190 72 77 77 101 103 107 82 75 80 99 103 112 73 33 54 97 115 116 111 107 95 112 130 103 87 37 55 53 57 84 55 51 124 121 142 140 166 131 152 124 151 159 133 144 141 161 150 131 132 138 143 130 129 120 100 86 110 107 109 113
41 43 40 68 80 77 78 52 63 62 58 91 105 96 99 71 85 105 126 117 93 72 67 70 96 106 107 80 73 71 94 104 112 82 93 97 115 108 97 73 69 66 73 62 67 73 44 49 58 79 59 50 132 144 151 139 133 149 153 158 142 147 138 156 116 133 150 141 149 132 129 139 140 130 90 91 95 96 111 94
43 45 43 75 75 71 73 54 53 48 60 83 99 100 105 65 72 74 104 111 103 72 69 69 68 93 107 112 65 67 70 108 114 108 72 74 87 112 105 87 68 76 110 93 92 92 35 46 47 83 59 50 131 91 158 140 162 144 166 150 132 148 127 145 145 156 132 142 142 133 132 117 109 111 97 77 92 100 103 109
50 41 45 40 81 81 85 91 72 73 66 61 91 104 103 84 66 74 67 108 104 100 66 62 64 101 104 107 62 71 71 99 103 96 63 73 69 105 116 93 56 61 82 98 96 73 81 45 54 72 64 46 119 131 140 151 137 153 159 159 154 150 134 141 132 117 135 112 119 136 152 137 124 128 92 86 90 110 111 108
77 54 49 57 64 85 92 92 89 78 64 60 78 89 98 86 62 63 65 97 110 102 70 55 60 96 99 105 67 75 76 102 100 103 74 64 70 98 96 98 56 58 63 88 111 67 94 40 46 72 61 55 115 102 144 151 150 152 150 160 122 120 139 137 143 126 128 143 142 130 131 128 123 126 95 79 95 109 98 109
81 77 61 54 75 56 82 92 88 86 55 63 63 94 97 98 60 53 61 96 97 101 96 63 62 78 95 109 93 72 70 77 115 103 78 72 65 90 98 91 55 57 61 106 96 69 71 69 43 60 56 50 80 124 125 139 154 141 142 135 141 146 122 126 142 148 143 120 114 139 147 129 124 134 119 82 96 109 116 109
81 82 78 63 61 69 72 94 92 90 56 59 56 87 102 96 87 62 60 64 96 101 97 59 65 65 90 102 108 70 74 67 107 108 97 68 66 84 96 91 56 62 61 88 95 70 65 81 36 56 59 48 63 104 146 138 137 159 143 139 129 144 136 131 131 137 133 140 139 129 128 128 114 137 102 81 95 110 113 93
84 82 92 72 50 63 70 88 100 107 60 62 56 64 93 83 100 67 65 61 99 95 95 60 69 61 98 104 113 59 68 74 103 100 104 67 69 82 94 88 54 60 58 96 105 74 61 68 49 44 59 52 48 108 137 138 159 146 142 134 149 142 142 136 149 140 153 147 138 141 137 138 137 140 126 80 99 106 109 115
48 78 84 70 50 63 53 87 92 91 89 55 67 61 93 98 99 90 64 75 95 94 96 68 66 55 97 101 102 66 76 69 97 108 95 63 58 90 99 97 52 60 59 87 89 89 61 61 95 39 58 43 28 99 134 144 150 151 148 152 152 147 147 140 135 137 149 150 145 135 138 128 121 122 112 75 90 111 109 88
43 78 79 72 55 53 49 67 95 90 93 58 54 68 88 94 87 72 56 58 104 100 81 80 58 63 98 105 119 73 68 67 96 102 95 69 70 101 98 89 60 59 62 99 91 84 66 75 100 32 55 53 28 123 114 140 140 152 122 151 153 147 153 132 137 136 157 150 134 140 142 143 142 127 118 83 92 104 113 115
41 67 72 83 63 50 48 54 89 90 90 65 60 63 84 93 100 84 63 65 66 82 92 81 61 71 95 104 115 125 148 148 147 136 106 66 65 92 93 94 56 60 64 103 102 96 68 67 74 112 45 46 32 108 123 129 146 157 154 163 157 132 142 135 141 122 154 149 141 144 131 119 137 142 114 82 84 75 89 94
40 66 81 79 80 49 57 53 89 94 93 64 63 58 71 85 98 87 58 56 62 96 99 90 52 59 146 157 183 189 187 185 187 186 183 175 73 101 93 87 62 59 67 97 98 114 70 64 62 100 38 36 26 110 116 146 147 140 135 120 142 126 129 137 143 147 153 146 124 146 138 124 122 116 118 79 81 109 102 115
41 47 68 75 79 49 52 56 90 97 85 73 53 70 59 92 92 92 59 50 62 85 82 74 115 153 184 188 187 186 188 185 181 183 186 192 185 110 95 93 57 66 62 102 105 93 79 67 57 84 84 30 25 61 116 135 152 150 160 142 130 137 141 124 142 127 102 133 135 130 137 131 137 124 116 78 78 97 113 95
40 46 82 70 90 51 53 53 76 97 82 86 57 63 53 97 86 92 54 50 44 75 88 138 159 183 183 188 186 182 186 185 189 180 186 182 185 184 99 99 62 67 68 93 100 90 69 58 60 91 94 24 22 63 104 124 128 125 155 134 145 121 114 139 146 142 125 144 140 149 141 136 130 114 119 78 77 104 103 107
124 129 132 135 137 139 143 143 139 86 95 91 53 51 50 88 89 83 49 48 59 79 119 158 182 184 189 186 183 185 183 182 184 187 185 181 187 181 183 93 68 56 57 104 98 92 62 60 61 98 100 23 19 37 116 145 134 131 130 148 154 152 135 133 134 144 134 148 130 142 146 133 127 118 131 89 79 100 117 98
145 153 150 152 157 154 146 157 163 145 93 81 51 44 46 78 85 80 44 47 60 73 135 180 184 180 184 183 182 186 183 182 182 181 181 181 181 185 185 141 56 55 53 86 97 96 54 59 65 99 101 69 11 23 113 124 138 137 151 135 157 153 139 144 144 143 146 154 143 146 132 128 137 105 127 83 78 103 104 105
151 146 148 158 154 155 151 150 153 160 118 85 54 58 43 84 98 80 50 54 54 119 183 180 182 181 183 186 186 183 182 181 183 181 182 180 177 182 180 182 51 60 65 85 85 100 52 50 59 106 107 87 9 21 134 121 122 144 155 146 154 150 155 151 149 150 154 150 149 153 155 151 150 145 149 142 151 155 152 154
147 156 150 156 159 156 155 151 154 155 157 93 70 49 50 84 88 76 43 50 42 116 181 181 181 181 181 183 182 181 180 179 179 179 179 185 178 182 180 182 58 46 57 98 99 94 72 55 60 100 98 107 25 14 91 157 160 160 166 167 165 160 155 155 155 155 157 151 155 154 145 147 155 154 153 176 184 186 188 192
150 144 145 150 152 153 144 152 155 157 154 81 56 49 43 76 77 62 48 44 53 168 182 178 177 179 181 182 180 35 14 14 32 174 176 174 174 180 180 180 172 54 61 100 98 94 61 65 62 94 103 93 76 15 151 145 102 205 191 195 196 200 202 202 205 152 169 148 101 106 82 112 114 76 83 207 202 204 205 203
145 139 146 146 153 149 151 152 151 151 162 75 53 48 46 79 58 72 41 30 96 177 178 177 177 179 183 177 21 10 8 8 14 94 179 177 177 181 178 178 176 47 57 95 93 93 70 65 60 98 88 91 65 10 142 148 150 216 216 217 216 212 214 214 216 170 160 168 174 171 168 171 170 197 184 206 202 203 201 201
146 142 144 147 153 156 148 147 151 153 160 68 62 47 40 73 67 65 38 20 98 174 176 179 175 179 176 52 27 14 12 12 21 30 180 176 181 176 178 177 178 43 54 83 96 100 66 74 59 108 80 94 61 17 140 148 151 218 217 217 211 211 211 210 212 197 197 201 203 199 195 197 199 208 209 205 203 211 211 210
140 142 149 145 151 152 148 151 152 155 151 71 54 38 39 66 64 47 30 18 97 175 176 175 172 174 175 51 46 26 22 25 35 47 159 177 173 179 177 176 179 39 54 79 100 96 54 67 54 85 86 84 56 70 139 149 151 216 217 217 219 219 220 219 220 214 214 214 205 208 206 205 205 208 205 206 210 213 211 209
141 141 147 145 148 147 150 148 153 152 157 66 52 32 39 63 70 50 27 20 100 176 175 175 173 175 176 59 60 42 41 31 47 48 140 175 174 177 177 176 176 41 53 87 104 94 59 62 60 87 80 81 50 50 141 152 154 218 217 218 223 218 220 220 225 216 219 217 211 204 206 204 205 206 207 204 212 212 212 208
141 145 143 130 141 147 147 148 145 153 131 57 42 45 47 71 85 48 23 23 100 173 176 176 175 174 182 122 136 135 138 139 138 132 141 173 174 174 173 175 173 36 47 77 91 96 74 56 51 74 65 60 44 40 142 152 155 218 216 222 219 219 220 220 220 218 216 216 217 207 204 206 204 206 206 205 212 212 211 210
142 146 139 136 151 149 150 148 151 155 58 61 31 31 37 71 100 96 52 31 102 174 173 175 173 178 175 181 175 182 175 175 177 177 178 175 175 176 177 176 173 43 50 74 89 85 64 66 48 73 71 61 33 40 143 152 150 215 215 216 211 218 220 219 217 219 216 215 215 206 204 204 204 206 206 204 213 211 211 209
136 137 143 141 143 125 130 125 96 33 58 68 33 51 96 114 118 144 143 138 118 176 175 176 172 181 175 176 176 173 174 173 177 176 174 175 171 177 176 177 175 41 56 81 109 97 65 63 62 79 69 65 107 109 145 148 153 217 217 215 213 217 218 220 218 217 214 214 213 206 205 203 205 206 207 209 212 213 212 208
134 141 145 147 143 98 40 36 32 35 56 60 35 88 124 168 169 168 173 175 158 150 171 173 172 173 174 176 178 173 174 174 175 171 176 174 174 174 177 177 174 49 50 102 98 95 65 61 65 79 90 133 136 127 144 149 153 216 217 216 211 216 218 219 220 217 215 214 213 209 205 203 203 206 206 214 211 213 212 209
143 137 142 145 144 151 50 31 34 33 61 67 82 140 173 172 168 177 177 174 173 170 157 171 172 174 171 176 172 175 173 174 173 172 176 175 175 178 175 176 172 47 62 97 116 129 152 166 182 170 169 168 152 123 143 154 152 215 215 217 211 211 217 218 219 217 214 212 212 213 204 202 203 206 205 214 212 213 211 208
136 142 141 140 143 145 88 30 33 33 64 69 120 168 157 155 154 159 169 162 165 175 173 168 172 172 173 174 172 175 172 175 174 174 175 176 178 177 174 172 166 167 172 166 164 169 165 173 175 175 174 167 110 152 144 154 148 215 215 215 211 208 219 217 215 216 212 213 212 213 203 203 203 206 207 213 210 212 211 209
140 142 141 145 142 144 152 35 25 25 53 91 166 162 152 148 150 153 159 159 163 162 174 132 168 169 175 174 175 171 174 178 176 172 168 168 173 175 163 166 164 163 166 168 168 169 173 170 174 179 173 170 132 102 140 147 149 218 215 214 210 210 216 214 216 214 212 212 213 214 203 201 203 204 210 211 211 211 212 208
140 135 141 142 140 149 153 52 28 21 60 142 154 153 149 147 143 153 151 156 153 155 159 182 164 168 173 174 174 166 159 173 169 165 164 169 162 163 167 168 165 167 164 161 171 170 166 163 164 170 175 169 152 128 141 147 151 217 214 213 210 211 209 216 218 215 212 216 212 213 210 204 203 204 215 215 212 211 211 208
138 134 139 143 141 143 148 154 23 26 72 161 146 149 152 145 144 158 147 155 155 153 161 178 147 174 175 164 167 155 152 169 169 170 164 163 170 166 170 162 162 165 161 163 163 160 169 168 169 175 168 173 139 129 145 149 151 215 216 215 211 210 210 216 218 214 213 213 215 214 213 207 206 205 216 212 212 211 209 208
139 145 137 141 141 144 145 152 28 19 110 147 146 148 148 146 146 146 149 161 154 150 159 165 153 161 171 161 168 168 165 163 159 168 172 168 162 155 160 167 166 160 156 156 155 172 171 163 160 162 175 169 148 150 143 146 152 214 212 211 214 215 210 218 218 214 213 214 214 213 213 206 208 204 214 211 210 211 210 207
145 139 145 147 142 150 147 146 141 20 142 148 147 151 149 145 147 152 150 146 147 155 157 167 174 156 195 169 169 167 168 162 165 158 168 170 161 163 155 153 158 160 153 147 176 203 202 198 158 161 157 160 158 135 136 144 146 211 212 211 211 210 210 210 216 213 212 213 212 212 212 206 207 212 212 211 209 209 210 207
128 137 138 144 147 142 145 147 133 43 158 146 155 142 149 144 147 159 152 146 150 151 150 163 179 147 192 168 169 167 172 167 159 175 164 160 162 162 153 153 145 147 148 174 174 195 203 195 211 155 153 139 133 109 133 144 146 211 213 212 212 210 210 210 217 214 212 212 212 213 211 210 203 214 212 210 208 210 208 207
16 141 139 143 140 142 144 154 121 89 149 142 145 143 138 146 120 124 101 156 144 152 157 158 184 151 187 165 191 172 163 169 165 157 159 164 165 152 153 151 149 143 142 181 189 207 220 224 215 182 153 149 140 111 131 142 145 212 211 211 210 209 209 208 214 213 210 213 212 213 211 214 203 215 214 211 207 210 209 208
40 138 137 145 145 151 147 146 107 93 153 145 153 143 138 145 97 205 162 148 143 153 159 149 171 149 169 168 165 198 169 167 168 157 150 148 158 155 164 139 125 124 164 215 218 225 231 218 224 226 150 141 102 128 128 142 143 211 212 212 212 207 210 206 207 213 212 212 212 212 212 214 205 213 213 212 208 208 210 206
142 146 142 142 146 150 153 150 107 91 150 137 138 139 142 145 123 162 167 145 139 144 151 154 168 135 158 169 161 165 171 158 162 160 160 149 147 149 157 153 133 127 195 207 214 225 227 218 229 232 225 124 97 110 131 140 141 211 212 210 213 209 208 205 207 213 210 212 212 211 212 213 212 213 214 212 206 209 210 207
135 141 145 137 148 144 156 147 105 88 144 143 140 144 141 141 144 109 138 147 142 147 149 159 161 139 166 166 165 163 168 168 161 151 156 165 167 165 153 136 123 127 200 204 214 226 229 226 225 231 229 122 92 116 126 139 142 210 210 209 210 207 207 205 207 212 210 211 212 211 209 214 212 213 211 212 208 210 208 206
136 139 137 140 147 143 147 146 110 90 144 140 147 137 144 145 146 148 142 142 151 151 152 158 139 147 159 164 170 163 160 158 169 169 163 166 156 153 148 129 191 150 185 171 189 224 226 221 207 200 211 197 83 133 124 136 145 209 211 208 207 208 205 205 204 207 204 210 212 212 210 213 213 211 213 209 206 209 204 206
129 134 136 137 142 142 144 144 105 87 133 145 142 132 138 139 142 149 154 147 148 150 151 152 130 144 162 157 163 166 170 166 162 164 165 161 154 149 125 119 160 154 209 165 179 227 232 228 216 198 192 219 131 79 122 135 145 210 208 208 208 207 206 205 205 205 211 210 209 210 212 212 213 212 212 211 208 209 199 206
130 136 134 135 140 140 146 143 108 88 107 138 138 138 143 150 149 149 154 144 149 151 153 157 140 150 163 163 164 169 171 170 162 160 157 158 147 136 119 132 155 179 199 188 169 224 235 203 214 212 228 189 193 70 119 139 138 209 209 208 208 207 205 204 204 204 210 211 211 211 208 211 213 211 211 211 209 207 197 207
131 133 140 136 143 143 143 140 120 90 88 145 145 143 149 148 147 149 148 144 145 152 152 146 141 145 174 164 166 170 177 163 160 157 162 160 140 123 115 188 142 170 198 233 226 210 224 215 210 225 197 191 209 70 118 135 146 209 208 208 209 206 204 203 202 204 204 208 211 210 209 213 212 212 211 209 211 204 197 202
126 130 131 134 141 141 146 142 132 87 86 114 144 146 145 146 146 143 143 148 152 148 153 35 139 159 166 165 164 160 167 172 162 161 159 151 139 121 179 172 134 173 166 222 232 196 232 225 190 230 169 217 210 164 106 132 145 208 207 206 207 205 205 204 203 203 203 208 211 209 210 210 211 211 211 210 207 199 196 194
