P2
80 80
255
172 181 184 197 189 186 188 186 57 66 40 32 23 39 133 168 164 164 166 168 174 56 42 58 59 37 24 179 204 204 205 205 202 193 56 41 47 60 46 65 204 204 208 210 204 202 165 45 37 58 126 137 152 148 147 153 144 143 149 146 149 149 148 145 111 115 129 143 129 127 138 119 108 105 115 102 97 89 109 103
174 143 188 187 188 188 186 189 103 92 53 40 27 123 170 173 168 169 172 170 168 127 50 50 65 42 35 176 202 203 206 204 203 202 58 49 52 52 52 74 143 204 211 206 210 202 194 47 38 67 114 135 128 157 141 136 135 149 140 151 146 139 134 122 130 136 113 127 136 136 138 96 119 115 95 108 90 97 103 104
172 175 142 187 190 188 191 189 189 72 56 38 34 174 174 135 159 157 160 171 165 167 55 48 69 57 144 179 152 203 203 204 206 202 202 61 58 50 61 96 177 202 206 211 207 205 203 48 37 62 108 122 143 151 142 151 147 132 155 151 138 134 140 150 130 146 127 126 121 130 139 121 111 115 122 100 100 95 104 79
173 177 181 188 186 194 193 189 190 181 56 28 172 170 167 163 145 154 165 168 166 175 172 45 57 68 172 177 169 199 205 207 206 202 201 130 60 54 46 176 183 168 206 206 208 209 202 41 40 56 112 141 132 155 129 152 137 147 142 155 129 147 139 147 131 125 132 136 144 123 135 126 126 109 100 96 97 92 90 108
175 177 182 143 185 190 190 192 190 191 74 122 171 166 163 161 171 162 149 156 162 165 163 92 35 174 177 174 161 156 204 205 206 207 201 202 59 60 166 180 177 174 176 204 209 205 209 44 42 53 103 123 138 132 162 156 160 136 150 149 140 110 146 150 149 139 136 137 124 130 145 121 114 106 106 104 91 97 82 102
177 179 180 158 126 187 196 192 193 193 193 174 169 164 166 169 180 107 145 150 158 165 168 182 143 176 180 170 163 174 158 204 207 208 203 201 198 86 180 183 162 166 171 205 207 211 205 46 50 39 112 129 139 157 117 160 150 150 141 147 148 153 120 125 151 137 136 139 143 127 132 134 126 102 104 103 95 75 75 113
177 182 176 33 25 188 192 196 193 191 191 194 168 168 167 173 185 14 135 134 153 158 164 174 172 173 174 169 173 175 36 204 207 208 205 198 200 171 179 179 167 170 173 76 208 205 207 39 53 53 92 135 149 149 159 141 165 148 156 144 151 147 150 147 141 137 127 130 147 121 137 126 115 108 101 107 81 90 94 92
181 180 51 59 30 30 190 192 193 195 198 198 165 166 172 179 43 16 28 149 153 158 163 167 178 173 168 172 176 165 14 34 207 208 208 201 197 202 180 167 171 175 171 32 191 204 206 54 60 59 120 132 136 142 140 164 151 129 128 154 152 135 147 150 148 112 140 127 138 134 150 133 131 108 101 105 94 93 91 103
181 144 39 67 42 22 138 192 200 198 198 194 198 171 178 141 55 32 26 66 158 158 171 171 174 180 170 176 177 24 11 24 173 207 209 204 201 199 190 173 173 178 57 61 63 207 204 56 61 51 103 131 133 159 153 154 150 160 163 149 155 151 144 137 129 135 135 144 133 119 138 137 106 115 101 104 78 101 108 103
168 38 41 73 58 26 16 190 196 195 198 195 193 185 182 56 68 46 27 25 149 155 170 174 176 184 181 177 61 28 21 33 30 209 207 207 204 197 201 169 172 83 72 77 77 126 206 41 52 51 126 134 137 147 154 159 156 140 152 156 143 131 154 161 150 117 142 145 133 139 139 131 116 106 97 102 87 99 109 113
137 36 47 69 61 41 15 101 198 196 195 196 194 196 71 60 81 52 35 30 49 167 165 170 176 173 184 159 40 39 44 43 27 72 210 206 205 201 199 200 168 54 67 57 98 61 202 44 53 46 127 115 144 156 153 142 138 146 158 149 151 142 138 137 125 132 135 136 123 138 137 133 119 112 98 86 81 91 102 111
152 91 43 67 61 49 30 172 172 194 198 197 194 196 198 67 72 56 50 33 159 147 167 163 169 176 178 185 43 45 65 49 30 73 200 206 208 203 199 200 112 74 57 60 94 94 94 46 52 52 122 131 146 148 159 149 153 144 147 159 150 144 155 147 150 134 146 139 128 131 124 114 107 107 98 101 87 101 108 113
152 148 35 60 60 39 166 167 161 196 194 194 199 196 196 145 78 69 49 74 178 179 170 166 168 169 175 184 108 48 65 61 33 172 171 207 206 205 202 201 202 72 81 57 100 96 84 72 50 53 131 114 148 152 152 145 134 145 157 151 153 147 141 151 146 127 127 142 136 146 151 140 110 116 97 101 94 94 90 106
155 153 148 63 58 147 166 165 169 114 191 198 199 195 200 201 87 51 39 174 181 180 137 181 169 173 176 174 184 63 79 60 160 177 181 149 206 204 202 203 201 192 63 56 91 91 81 72 67 53 109 132 142 147 145 152 167 155 114 138 146 163 142 140 153 144 149 136 134 129 124 122 116 124 102 110 79 98 109 108
146 155 156 98 45 166 163 166 163 168 177 195 195 196 200 200 202 49 157 174 179 174 176 162 178 173 171 178 177 180 71 84 171 177 177 164 204 200 202 203 203 201 66 77 88 94 88 58 62 57 102 116 153 156 153 113 157 148 160 155 119 143 144 131 151 133 139 140 152 141 131 133 107 106 88 99 88 102 97 110
141 147 158 154 162 163 163 162 163 169 167 190 195 198 201 200 197 127 175 179 173 172 177 174 180 174 170 173 174 183 67 167 174 180 171 170 151 206 202 202 202 203 202 62 93 99 91 56 64 50 88 126 144 158 161 150 157 162 135 143 140 148 138 148 161 154 138 124 134 136 131 140 107 121 98 114 73 108 110 95
131 140 152 159 159 163 165 163 167 173 21 48 193 204 201 199 198 204 178 181 171 174 173 153 50 179 173 174 173 172 181 174 177 170 168 172 171 158 201 202 202 204 201 146 97 95 94 58 55 46 68 121 150 148 152 147 145 150 156 144 106 152 147 130 134 154 137 138 139 129 135 141 127 111 82 100 85 104 113 115
124 135 152 154 161 155 162 162 171 118 15 32 176 198 197 202 202 201 198 175 179 178 173 24 28 170 179 171 172 174 176 177 178 168 172 172 14 16 202 202 200 201 202 201 102 96 98 60 72 50 81 123 149 142 152 156 154 157 156 160 152 154 152 141 143 154 138 133 145 135 117 138 119 120 95 108 83 103 118 82
122 130 149 152 160 157 157 162 171 52 36 33 27 195 198 202 201 201 203 176 177 174 76 53 37 40 183 176 174 167 169 179 175 172 172 67 12 17 59 202 200 199 201 202 198 96 92 60 53 41 48 116 148 140 133 164 133 154 153 148 150 150 130 148 154 143 122 145 147 126 138 146 126 114 92 102 91 100 109 106
131 123 131 146 145 160 157 167 42 65 55 38 55 53 198 200 201 201 199 204 173 157 72 80 50 33 76 184 173 172 168 167 177 176 166 59 107 105 43 189 202 200 201 204 201 114 91 59 61 50 73 121 147 124 156 144 140 150 150 162 155 149 152 140 100 124 137 149 140 128 130 135 132 108 97 97 90 102 113 88
37 128 138 130 152 158 159 118 41 73 79 51 27 26 187 197 201 201 202 198 195 65 80 94 56 41 39 180 181 171 174 167 166 145 119 121 124 124 122 117 203 201 200 202 202 202 97 67 58 46 41 123 138 138 150 155 136 147 140 152 160 143 154 154 133 132 114 130 121 150 133 127 138 108 95 105 92 97 111 119
152 116 129 131 143 156 159 164 43 80 85 71 32 62 154 198 201 203 199 199 201 92 90 92 59 51 43 152 184 176 171 165 118 121 129 134 137 139 134 127 123 201 201 200 204 203 179 65 57 46 51 116 130 149 152 152 138 150 154 155 148 141 145 145 141 146 120 140 121 135 138 145 124 101 88 105 89 89 102 94
151 147 138 132 138 148 155 157 153 79 77 72 34 158 169 132 199 200 198 198 198 199 94 88 61 59 157 171 148 177 167 116 130 132 139 143 148 147 148 138 119 193 201 198 200 204 191 59 65 52 51 142 139 138 149 149 152 166 153 107 140 147 152 138 132 140 135 140 130 138 122 109 122 92 87 107 77 102 104 107
144 153 103 137 134 136 149 151 153 92 85 66 149 164 170 170 189 200 199 199 198 197 183 88 67 83 167 174 176 173 129 119 131 151 148 181 163 159 150 148 143 48 201 202 201 199 188 62 57 56 48 126 105 151 154 152 96 155 156 158 155 128 137 145 150 150 139 142 140 122 125 126 126 106 90 112 95 102 93 103
147 152 152 115 132 132 138 149 153 158 76 79 157 165 167 164 153 200 200 200 199 197 200 98 51 168 168 175 167 120 103 127 143 155 153 217 216 162 160 157 142 97 151 203 202 195 189 60 63 55 41 128 135 144 161 163 162 160 159 133 137 138 143 128 142 146 131 125 137 130 141 127 136 104 83 112 73 110 92 101
84 85 79 73 77 95 105 120 134 142 134 131 132 133 127 129 134 101 170 177 180 182 185 190 154 162 170 167 158 108 106 129 149 165 163 221 161 165 161 150 143 121 26 200 198 194 183 56 57 73 50 124 114 147 141 135 152 144 146 154 144 142 149 148 137 155 146 144 142 137 123 133 148 118 87 109 87 94 111 113
62 44 28 21 28 30 41 50 36 33 83 130 77 70 24 22 25 26 24 14 17 26 52 42 32 22 25 38 18 15 114 125 158 165 162 165 164 163 159 157 145 121 19 15 22 45 75 70 54 59 56 81 131 137 154 154 160 151 149 149 162 147 144 144 145 153 142 136 141 145 144 125 135 121 86 114 78 105 111 98
67 68 45 41 45 64 74 76 66 57 67 58 89 90 87 68 81 85 79 44 50 67 74 79 62 58 53 65 48 35 115 136 149 156 156 152 164 160 160 158 144 122 24 20 38 85 97 64 64 60 51 74 125 133 130 129 168 147 149 143 147 151 134 146 143 158 149 150 132 137 144 130 137 118 89 110 88 101 113 114
73 64 36 40 39 69 72 84 85 55 51 64 92 87 103 71 83 93 92 60 52 62 85 88 67 67 53 74 45 36 111 138 159 154 156 139 159 158 154 148 146 117 37 29 36 76 92 59 66 59 53 47 125 132 129 144 147 138 144 152 153 137 137 151 100 131 150 144 137 125 135 131 136 124 82 99 86 96 104 113
72 72 43 38 45 51 67 80 94 65 137 172 177 163 149 102 72 70 94 61 57 59 92 78 90 66 59 61 49 33 104 138 158 166 139 160 158 156 150 143 136 101 48 38 40 76 90 62 66 59 56 62 129 123 129 142 167 142 154 122 140 147 131 148 146 145 146 135 133 129 142 117 116 123 92 105 85 104 111 98
58 68 77 51 53 51 72 79 88 152 164 187 194 185 182 191 171 102 77 82 53 58 92 83 93 56 47 58 51 35 86 131 152 165 165 158 155 151 145 136 122 70 48 38 36 73 82 63 62 68 60 50 137 127 108 143 125 146 138 154 157 144 131 137 134 126 151 107 149 141 145 138 131 123 83 95 91 96 83 112
70 69 72 52 60 48 59 75 136 172 172 200 206 194 177 203 192 184 150 89 98 60 96 89 95 52 53 50 44 42 80 123 139 163 158 156 151 149 142 132 109 55 53 48 37 72 83 55 64 62 68 45 142 129 133 148 155 147 169 147 113 144 150 138 141 134 133 141 135 125 133 115 115 115 87 96 68 107 105 101
75 77 68 79 64 64 58 44 151 174 170 208 216 205 185 209 198 192 195 189 107 106 102 87 91 61 60 55 42 33 67 94 134 162 154 158 153 142 136 126 63 37 71 42 38 66 82 65 47 62 66 44 137 126 132 147 157 139 160 158 161 142 136 129 147 154 138 127 139 133 127 126 124 123 94 93 89 96 84 113
47 76 79 85 59 56 44 30 49 152 146 189 201 206 194 212 205 196 206 199 77 100 104 91 97 59 70 43 68 39 29 68 110 160 150 152 149 137 124 106 45 46 64 47 45 51 76 57 60 56 70 48 132 118 136 146 156 166 168 142 140 157 141 136 136 129 127 138 128 127 122 139 125 131 90 83 69 105 102 101
36 72 90 85 71 53 50 56 37 88 136 186 195 196 191 205 208 189 200 199 105 96 107 110 105 90 68 52 62 56 33 65 92 149 147 148 148 149 145 140 127 104 57 57 43 55 67 56 60 64 68 53 120 117 144 146 146 111 153 160 149 141 135 144 149 141 144 138 148 128 133 116 135 137 114 83 83 96 95 112
47 52 83 84 75 57 52 58 66 86 50 150 194 187 190 199 204 198 200 197 61 73 105 109 100 65 80 91 91 53 49 29 72 95 144 143 151 147 150 157 132 129 120 64 40 49 67 55 56 48 78 45 57 110 146 161 165 163 152 164 159 158 144 140 135 135 138 132 137 138 134 145 121 131 109 79 78 103 110 99
38 41 73 81 71 75 43 55 64 62 98 88 94 129 154 178 195 195 194 139 75 85 99 106 97 92 73 81 102 104 67 36 25 66 100 133 135 139 142 145 134 142 140 84 48 40 64 45 56 50 75 45 68 124 140 142 142 159 130 156 151 146 150 150 142 139 150 140 148 137 137 123 132 144 109 86 84 94 112 110
43 39 53 67 79 82 52 52 61 58 67 92 98 96 70 70 81 119 120 115 78 76 67 82 99 106 97 68 77 83 109 104 76 37 65 98 112 118 106 109 114 131 154 88 73 49 53 55 48 59 74 49 42 111 137 151 151 157 146 140 145 149 142 140 136 136 148 143 138 145 132 136 124 121 131 80 86 89 107 110
42 46 44 82 74 77 93 48 59 66 64 89 89 96 91 62 69 73 99 98 106 65 63 65 96 104 100 77 69 73 101 102 118 87 97 103 117 115 86 74 56 86 67 55 93 38 56 64 47 51 76 50 33 113 122 141 124 165 145 150 128 148 154 138 143 143 159 150 141 134 142 142 125 132 129 78 75 99 111 106
47 43 47 53 80 82 91 92 69 66 72 69 93 94 102 57 64 66 105 106 106 65 63 64 89 104 100 87 81 64 89 104 109 74 79 74 101 105 102 61 67 87 106 104 82 103 65 53 49 53 80 53 40 119 147 147 142 136 153 153 151 148 138 126 143 119 142 161 134 146 127 135 132 130 122 79 82 100 94 112
71 58 56 57 59 92 93 86 93 61 67 60 100 99 95 78 60 65 76 98 103 96 65 60 60 102 104 87 69 66 74 107 106 94 76 61 86 99 100 55 53 65 97 100 73 86 60 65 43 43 70 57 37 111 109 149 147 158 141 166 152 135 138 139 144 150 154 140 147 136 135 128 112 101 111 83 68 103 102 88
79 82 54 52 54 66 91 94 92 64 63 52 92 95 99 88 55 72 70 103 90 96 58 57 62 102 102 116 86 86 76 116 114 101 75 64 75 98 93 66 60 55 96 96 91 75 98 64 44 40 67 59 33 127 130 126 146 142 149 155 153 148 149 131 128 132 132 147 100 123 135 146 130 131 118 86 77 99 94 112
84 87 82 60 55 60 91 100 95 73 55 69 64 93 96 95 57 65 67 93 96 102 68 68 63 101 106 106 67 62 69 105 116 103 66 80 73 99 101 80 56 63 98 102 95 65 84 48 45 41 70 52 32 116 108 143 139 146 155 162 156 113 130 142 136 143 128 137 151 144 136 139 124 120 115 84 72 99 112 87
81 83 75 48 65 55 85 105 97 90 54 61 51 101 93 92 58 56 68 88 94 97 68 59 64 94 97 102 65 75 77 104 99 108 78 69 55 93 102 81 58 56 86 97 95 58 70 93 45 46 71 65 28 85 118 120 142 159 137 134 131 143 138 128 128 145 145 144 116 118 134 143 127 121 127 98 76 95 113 117
81 73 82 61 47 51 65 98 91 92 68 54 59 100 92 90 79 61 60 63 96 97 101 54 69 91 123 102 79 63 71 101 103 104 81 67 61 83 99 85 48 72 89 99 96 60 57 91 35 57 66 60 34 42 100 145 145 153 159 146 149 136 151 134 128 125 122 126 137 135 108 125 132 113 129 92 74 89 107 94
75 71 76 72 51 50 56 98 91 100 66 55 58 67 96 93 90 63 66 70 98 95 90 61 62 69 99 97 95 69 65 91 98 104 73 75 66 96 84 95 62 64 85 96 99 63 68 65 71 48 64 62 29 40 115 130 141 144 153 150 138 143 138 147 141 146 145 151 139 140 131 131 136 131 137 106 79 84 111 117
48 82 80 78 48 47 58 90 99 96 75 51 73 80 97 95 98 53 59 59 88 102 97 55 65 72 98 107 109 96 146 153 156 153 138 68 66 109 101 84 57 64 86 98 95 68 64 59 100 39 72 75 33 26 97 136 135 148 141 147 159 157 143 134 140 129 138 137 139 137 137 133 125 118 112 97 73 65 97 109
53 77 76 83 51 46 51 77 85 95 89 60 62 55 94 95 94 58 59 60 91 94 103 63 57 66 105 151 165 188 188 187 183 183 184 186 175 103 100 93 61 61 83 107 109 74 68 61 88 64 66 52 30 29 114 120 132 144 154 116 144 146 146 149 127 147 142 153 152 127 148 140 136 130 125 108 68 84 112 114
39 68 82 83 52 52 43 61 99 85 81 58 62 67 94 94 92 61 52 55 86 90 84 48 60 141 162 188 188 187 184 186 184 182 182 186 184 186 100 97 60 63 85 96 108 82 80 64 97 107 49 52 32 24 116 123 139 157 152 156 157 148 137 140 120 149 111 139 145 143 140 126 112 128 127 107 73 73 100 106
38 75 81 80 58 46 54 76 103 79 90 54 55 54 97 90 82 48 44 46 79 85 80 51 145 172 182 182 190 185 184 186 183 185 181 182 183 189 184 93 65 62 73 94 98 80 61 70 95 104 61 50 30 24 126 92 146 138 143 142 121 142 124 137 143 149 144 146 144 129 134 137 119 112 107 105 67 84 108 107
126 130 131 134 139 141 142 141 111 96 92 56 50 54 73 99 84 50 49 45 79 92 76 138 173 182 183 188 186 183 186 183 181 184 184 185 181 185 182 183 60 72 80 89 97 75 62 64 94 93 100 39 34 23 51 114 138 149 148 149 133 141 140 138 129 140 127 117 131 132 124 138 132 139 112 110 76 82 87 108
153 150 158 157 154 153 150 164 156 109 89 56 55 46 76 94 86 44 42 50 93 92 79 148 182 184 181 187 184 184 185 184 183 183 180 182 182 180 185 183 86 57 65 97 90 79 55 66 86 99 87 35 26 26 52 105 140 135 122 158 142 151 137 139 131 139 135 137 149 139 150 141 133 131 108 112 72 86 106 106
146 168 150 155 161 154 148 148 155 158 84 71 47 51 78 88 86 52 54 48 76 78 122 185 180 183 181 184 186 187 186 182 181 182 182 179 181 178 179 183 184 52 55 87 80 81 56 59 82 90 96 63 20 22 45 124 132 133 153 143 153 150 152 152 154 150 153 154 148 153 151 149 149 136 144 154 154 150 150 148
147 147 155 153 152 152 154 149 159 155 77 77 49 54 69 85 86 50 46 52 82 51 138 181 181 181 179 182 185 181 182 178 178 177 178 179 187 180 178 180 184 49 57 90 92 97 68 64 76 95 105 66 14 29 93 161 158 162 163 162 160 155 156 157 154 154 158 155 152 152 148 156 153 154 168 182 185 192 191 196
152 144 149 152 157 154 152 153 156 155 118 82 48 46 57 75 67 45 42 48 77 88 177 183 181 178 179 181 183 169 20 15 16 32 176 177 175 176 182 179 183 123 49 91 81 90 73 68 68 99 102 70 29 194 143 112 164 197 191 193 201 203 204 202 159 161 150 125 113 85 100 129 65 86 130 208 204 203 199 198
141 142 143 149 154 148 151 145 154 152 154 70 52 52 52 80 65 43 43 48 49 102 177 179 178 178 180 182 173 13 11 12 13 15 116 177 178 178 178 178 180 174 51 99 97 103 71 64 67 87 89 65 73 85 145 148 188 215 215 214 215 214 212 211 173 165 168 175 176 171 165 168 179 186 188 206 203 203 201 199
143 142 147 149 149 149 151 153 151 157 158 66 44 47 51 64 75 41 41 42 39 103 179 177 177 176 183 177 27 20 15 19 23 23 54 178 175 178 176 179 178 181 46 82 87 96 66 59 56 86 88 73 67 95 146 149 194 215 217 215 214 212 212 210 212 204 198 201 203 198 195 199 207 206 204 203 212 210 211 211
143 148 145 143 149 149 147 148 150 156 142 68 38 41 57 71 72 45 38 38 29 110 177 177 177 175 175 175 35 28 24 43 41 40 31 173 176 168 178 180 177 177 40 74 90 98 77 72 62 87 80 69 57 92 147 150 196 215 217 221 221 220 218 218 218 218 215 211 205 207 206 207 208 206 205 205 212 211 211 209
144 142 150 144 145 154 152 150 158 156 76 66 42 35 62 70 66 40 38 26 32 119 177 175 174 175 175 175 53 45 41 60 54 45 30 168 176 175 176 179 179 176 43 82 86 97 62 56 59 103 85 62 54 92 144 154 202 216 216 220 224 221 218 219 216 218 220 216 204 206 206 205 206 205 203 207 212 212 209 210
142 147 141 144 143 156 147 147 148 153 70 55 36 33 62 72 75 42 42 29 38 121 174 176 179 175 174 179 139 146 146 148 151 147 146 164 171 174 174 169 176 175 47 82 88 92 61 52 56 80 72 58 42 87 144 153 202 217 217 214 222 220 219 219 220 219 216 214 204 206 204 205 206 207 206 213 212 211 209 208
141 139 146 143 148 152 151 151 153 82 63 63 34 37 75 74 94 103 110 81 46 123 173 176 175 176 177 179 179 173 179 174 175 173 174 176 174 175 176 176 176 173 44 89 92 93 71 56 55 76 61 52 35 86 152 151 204 217 217 212 221 218 218 224 219 218 215 213 205 206 204 206 208 204 204 214 212 211 211 208
141 148 146 144 145 122 124 103 42 60 65 61 38 39 63 98 121 152 160 153 148 135 178 174 177 172 180 174 175 175 173 174 175 174 174 173 173 174 178 177 177 179 47 84 97 92 69 53 53 71 64 64 105 115 153 151 204 217 215 212 216 218 216 219 218 217 217 212 212 204 205 206 208 206 205 214 211 209 212 209
141 144 146 141 146 30 30 36 35 59 64 73 39 39 94 141 170 172 174 171 171 173 145 174 175 175 174 175 174 180 173 175 176 171 172 175 177 174 175 176 176 175 49 86 95 96 63 50 57 64 62 84 121 135 154 153 205 216 215 214 211 219 217 219 216 219 216 212 213 208 205 205 206 206 208 215 214 210 212 208
143 140 145 150 143 88 42 34 32 59 71 60 39 82 156 177 162 163 168 178 177 181 174 155 171 173 175 175 175 172 175 173 177 174 179 175 175 177 179 176 174 177 50 98 93 97 61 65 64 97 129 151 133 108 148 156 204 215 216 212 211 218 216 217 219 216 216 213 213 203 207 206 208 206 216 214 214 209 210 210
142 139 141 143 142 146 63 33 33 65 60 67 71 138 166 160 157 155 154 160 179 173 178 171 167 172 170 174 175 175 175 173 174 175 174 176 177 178 178 176 173 148 121 159 162 171 170 167 162 171 156 151 130 113 152 147 201 212 214 212 210 216 216 219 218 216 214 214 213 204 205 203 205 204 215 212 213 209 210 208
141 138 141 143 145 147 73 36 34 59 54 60 96 174 149 158 152 154 153 156 154 165 161 177 135 167 170 174 175 175 172 172 173 168 172 170 169 171 173 163 163 160 153 153 160 163 160 168 172 170 168 161 131 91 154 153 202 213 215 213 212 210 219 214 216 215 215 212 210 210 206 203 203 205 214 212 213 210 210 209
138 141 141 142 145 146 154 30 30 30 48 73 155 147 155 156 158 149 151 156 158 154 156 175 176 155 174 178 173 175 165 161 169 171 172 161 170 167 167 166 169 162 161 159 152 154 162 165 164 175 175 160 126 117 144 151 205 214 212 214 213 208 217 218 216 214 216 212 213 213 207 205 202 209 215 215 211 210 210 208
134 136 143 131 148 141 152 39 29 24 46 84 165 154 157 153 158 152 153 152 158 157 153 154 177 145 167 173 159 172 171 168 175 168 171 168 169 172 166 170 160 162 160 161 156 159 161 163 167 173 169 161 130 128 145 147 209 214 215 216 212 212 215 214 216 215 213 214 216 209 205 208 206 215 214 213 210 210 209 207
135 143 141 145 142 143 150 155 23 22 44 120 153 155 153 153 153 143 149 153 159 153 154 155 162 135 165 176 173 166 167 173 170 168 163 166 164 166 155 154 166 166 162 156 176 167 158 162 157 162 171 164 123 129 145 151 200 211 211 214 213 212 210 219 219 216 214 214 212 214 207 205 205 214 213 213 210 210 208 208
140 138 137 144 145 145 152 150 23 16 25 148 156 151 155 150 147 146 154 151 146 150 151 153 157 171 154 192 187 170 167 171 170 170 164 169 164 163 159 157 149 151 162 181 207 191 184 155 159 162 156 160 121 117 144 147 199 211 211 211 212 212 207 216 214 217 215 213 211 213 213 205 204 212 213 212 212 207 207 206
137 141 143 142 145 148 153 149 138 16 45 159 149 154 148 150 143 147 136 157 150 150 152 147 156 181 158 173 172 183 165 166 170 161 166 164 160 158 167 148 151 147 181 195 203 192 198 201 156 149 161 149 109 106 143 144 200 212 211 212 212 211 207 214 217 215 214 214 211 212 212 205 206 211 212 212 212 208 207 205
137 138 142 150 146 148 147 158 157 13 61 157 143 150 148 138 147 112 157 88 153 141 152 154 155 178 146 170 173 168 199 166 167 165 162 159 163 158 148 145 140 138 171 194 208 219 225 213 160 147 150 148 109 98 142 143 198 211 210 210 211 210 206 206 216 216 214 212 210 212 212 205 213 212 213 213 212 208 207 208
45 131 140 146 148 150 147 154 155 44 56 153 149 140 149 147 151 120 192 163 152 143 152 148 152 178 144 168 166 172 177 165 162 162 155 160 156 150 151 137 130 181 217 226 228 231 218 224 224 144 152 138 105 96 143 144 199 211 210 213 208 210 207 205 215 215 216 212 210 212 212 207 212 213 211 212 210 207 208 208
147 139 145 147 144 149 153 153 155 122 41 148 150 146 144 138 145 103 153 179 152 144 150 156 153 182 145 164 170 162 170 171 163 154 157 153 154 144 144 129 131 192 218 223 225 223 209 227 229 207 151 136 101 86 140 145 200 211 209 210 210 209 207 204 212 213 212 213 211 212 213 216 213 211 212 213 210 208 206 207
138 139 139 140 144 148 153 152 154 116 17 152 143 145 145 142 145 149 120 141 145 150 150 153 152 171 149 164 162 169 170 155 160 154 154 164 161 158 143 137 130 203 219 219 223 232 229 228 227 227 137 127 91 89 134 141 197 210 207 208 210 209 208 204 206 213 215 213 209 210 210 213 212 210 213 213 211 207 207 206
139 146 138 139 144 148 143 149 150 112 79 158 139 139 144 139 142 145 152 156 152 149 149 148 152 126 142 161 161 164 165 168 169 165 166 165 163 152 131 189 149 191 180 191 223 226 223 200 217 209 179 135 82 85 132 142 199 211 207 207 207 207 204 206 204 213 206 213 209 209 211 214 213 207 211 211 211 209 206 206
133 133 138 140 142 141 147 146 151 112 96 134 151 150 149 148 149 151 155 147 151 152 156 151 152 139 147 167 166 167 166 166 168 170 166 159 151 137 124 163 158 213 175 185 222 226 228 205 192 208 218 129 76 83 131 142 193 211 209 208 208 209 205 203 203 212 213 211 209 208 209 212 213 211 211 211 210 205 206 207
139 133 140 141 141 140 139 144 147 114 90 81 147 151 150 152 153 151 159 148 147 153 151 150 148 147 145 166 173 175 183 161 167 158 165 162 144 123 147 143 181 194 187 179 206 235 202 205 220 224 190 184 71 94 125 144 193 209 208 206 208 207 206 203 203 204 213 212 210 207 208 213 212 209 212 211 209 198 200 205
131 135 140 143 143 136 146 146 153 122 89 8 148 151 155 151 151 156 152 147 161 155 153 153 129 142 147 168 171 171 168 163 159 156 151 145 135 119 186 150 185 205 223 236 207 232 203 217 224 224 182 204 64 79 127 141 192 208 206 207 208 205 205 202 202 203 211 210 209 209 208 213 213 210 213 210 210 199 197 204
130 134 137 143 146 137 139 144 146 139 93 7 98 148 146 149 147 152 148 148 150 151 151 162 20 151 157 164 168 168 165 163 156 150 149 136 115 195 174 136 176 181 214 240 206 237 228 193 222 182 213 209 114 74 130 141 192 209 205 205 208 205 206 202 201 203 210 210 209 209 210 213 212 208 211 210 210 197 193 203
