P2
80 80
255
171 172 183 193 190 184 187 186 58 62 44 32 21 41 119 169 162 163 163 165 176 53 42 53 60 35 22 137 205 203 203 206 200 199 79 42 54 55 52 63 205 204 208 207 204 202 164 42 33 85 147 147 153 152 145 160 146 139 138 141 148 146 154 159 103 135 133 145 131 127 121 107 102 99 117 115 93 86 110 103
174 158 187 188 188 188 187 188 136 67 45 35 25 81 173 168 168 165 171 168 165 149 48 48 66 41 30 176 201 203 206 204 203 201 77 48 54 52 60 74 133 202 208 204 210 201 199 41 38 93 120 131 135 145 133 137 140 143 135 152 140 125 124 128 141 135 135 126 134 126 126 104 115 108 88 117 75 95 104 103
172 173 128 187 189 186 191 188 187 78 46 35 29 175 171 149 159 156 160 172 167 167 63 47 72 60 112 177 158 202 203 204 205 202 202 55 56 51 64 78 174 192 205 212 206 206 203 43 33 84 114 137 150 154 142 138 146 148 148 157 142 148 136 146 123 141 148 126 124 127 127 112 114 112 117 116 93 100 103 94
173 177 181 183 184 194 193 189 191 189 50 29 166 171 168 162 131 155 164 167 167 171 173 45 63 58 172 176 168 186 204 206 206 203 201 166 55 56 51 174 180 178 206 205 208 208 203 38 38 63 124 136 118 158 133 144 134 144 140 160 130 147 146 145 129 120 139 126 150 137 131 109 132 112 91 104 84 96 91 107
172 176 182 161 184 189 190 191 189 190 110 82 172 167 165 162 171 161 150 156 161 168 164 124 40 170 176 176 159 162 203 207 205 206 201 201 64 61 149 181 177 173 160 205 207 205 209 40 40 59 104 115 140 148 146 142 156 148 152 157 133 132 142 145 141 142 136 129 117 130 134 113 122 105 102 114 85 96 86 99
176 178 182 172 80 188 196 194 192 192 191 173 172 164 165 169 178 137 142 146 157 164 165 187 114 174 179 171 164 174 144 205 206 205 204 200 200 61 180 185 164 164 170 203 206 210 206 44 43 50 111 128 126 165 134 154 132 151 157 148 132 157 136 146 143 146 135 144 145 132 147 125 119 104 102 107 85 85 79 110
175 181 176 33 23 185 191 197 192 190 191 198 167 164 165 173 180 15 119 134 153 158 163 173 171 174 173 169 172 174 67 200 205 209 205 199 201 177 179 182 168 171 171 83 208 205 209 44 46 50 94 124 143 119 154 139 158 142 154 145 143 131 150 150 149 141 123 134 136 134 142 106 130 105 100 118 73 101 103 98
180 179 72 57 29 21 188 192 193 194 196 196 168 166 170 177 57 14 28 147 150 159 162 167 178 174 168 171 173 178 14 24 208 209 209 203 197 200 178 170 173 175 174 30 164 205 205 46 45 53 111 134 142 148 129 166 148 125 143 151 150 149 139 152 154 139 132 127 137 134 149 135 127 114 109 118 92 101 92 109
180 166 39 68 40 19 91 192 199 196 197 195 196 169 176 166 56 30 26 43 158 159 169 172 174 179 169 174 178 27 12 21 130 207 207 205 201 198 198 171 175 177 57 59 65 206 204 43 57 50 103 135 139 146 149 159 156 161 160 151 156 147 135 148 144 135 134 146 127 119 146 124 119 117 98 112 71 106 114 99
167 38 41 71 57 22 17 186 195 194 196 195 193 192 182 55 66 48 27 25 139 153 168 174 174 181 186 176 84 31 19 32 29 210 207 207 203 197 201 168 175 107 62 70 86 97 207 42 42 53 121 132 141 150 146 164 165 129 113 156 148 146 151 150 151 125 146 150 137 140 148 132 120 117 110 114 84 100 109 114
139 36 43 64 59 40 15 82 196 194 195 197 194 194 99 61 82 52 36 30 50 167 164 170 176 175 182 169 41 41 42 42 28 48 211 207 205 201 199 201 174 51 67 59 104 69 194 43 43 44 107 129 151 160 147 151 142 157 160 154 152 153 142 124 129 137 142 140 129 125 126 135 122 116 96 96 84 88 103 105
151 118 44 63 61 50 22 169 147 194 197 197 195 197 199 65 72 60 49 34 131 136 168 161 169 176 175 184 45 43 65 52 29 48 182 207 206 202 199 197 159 64 65 61 95 99 92 50 43 58 135 134 145 146 161 159 159 145 150 159 143 137 148 146 140 127 143 147 139 138 123 121 115 109 98 115 89 100 108 115
155 149 37 62 64 42 165 165 166 193 194 192 198 195 194 178 78 66 49 63 177 179 169 166 168 169 172 182 144 48 68 64 30 169 175 207 204 203 200 200 202 64 73 68 101 96 91 63 46 49 113 129 151 152 153 140 132 148 157 145 147 146 140 140 137 125 144 136 128 142 149 138 127 108 100 107 90 95 95 103
152 153 150 60 60 115 169 165 167 126 191 196 200 195 199 199 90 50 40 173 177 180 154 180 168 171 172 174 185 65 80 62 142 174 181 138 205 205 202 202 201 199 63 64 96 87 89 63 57 50 131 139 146 147 155 145 153 161 138 148 145 158 140 138 139 135 146 129 138 131 105 121 116 115 105 111 83 97 106 109
145 155 155 124 34 163 161 165 163 167 153 194 195 196 201 199 204 50 130 173 178 173 175 140 179 169 173 174 177 185 73 66 169 177 179 166 199 200 201 202 203 200 95 90 92 92 87 59 63 49 144 110 152 138 162 128 145 137 160 155 133 145 149 150 153 121 129 139 149 139 129 122 113 94 97 107 89 104 105 108
139 150 159 151 158 163 163 162 162 169 174 189 194 199 201 200 196 158 176 177 174 171 177 174 178 173 169 171 173 179 102 165 173 179 171 170 163 205 201 202 203 203 202 64 94 97 93 57 62 44 130 136 147 151 139 153 159 158 126 149 143 149 129 145 154 147 144 135 137 134 124 130 115 110 101 112 83 106 110 86
128 141 149 158 159 163 165 163 165 175 35 27 194 202 200 200 198 203 176 181 170 173 174 170 33 180 171 174 172 175 181 172 176 172 168 171 172 112 201 201 202 202 201 181 102 97 97 67 56 46 112 120 153 153 157 130 164 149 157 151 126 143 158 129 150 135 129 134 135 121 128 131 113 100 91 108 92 105 118 113
121 134 149 154 159 155 158 160 169 149 16 27 145 200 198 200 201 200 200 177 175 176 174 28 25 145 180 172 172 173 175 179 178 169 174 171 18 15 199 203 200 200 201 202 102 108 105 61 73 50 108 126 131 157 154 157 158 161 147 152 139 147 140 145 154 148 138 125 139 145 128 139 105 111 89 109 94 106 117 72
122 129 145 155 159 157 156 162 172 54 36 32 26 194 196 201 201 201 201 181 176 174 94 54 37 39 180 178 174 167 171 177 172 172 171 109 13 16 38 203 200 200 201 202 200 96 86 54 60 47 72 126 152 137 148 157 142 157 157 128 146 150 146 143 156 150 142 137 143 113 131 136 115 111 92 104 94 105 110 106
130 120 132 148 146 159 157 165 45 68 57 39 45 33 198 201 201 201 198 203 175 170 71 79 52 32 51 183 175 171 168 166 176 175 170 104 116 119 94 166 201 201 199 204 200 144 88 61 53 55 98 123 150 140 160 150 147 148 151 164 153 150 154 126 128 139 133 149 138 143 125 146 117 104 94 107 92 101 113 81
23 126 136 131 148 155 157 146 41 68 77 56 29 27 165 198 201 200 201 197 198 65 75 93 55 43 37 170 182 169 175 166 161 120 118 125 125 125 128 120 202 200 200 202 202 202 91 58 56 50 46 118 150 144 154 157 145 154 145 148 160 132 147 152 140 134 129 128 134 147 130 142 128 107 93 102 98 95 111 118
152 97 130 129 140 153 158 160 43 77 85 74 33 39 160 199 199 201 198 197 199 124 89 91 58 53 43 160 181 175 172 162 116 120 131 135 136 140 136 130 121 200 201 198 204 202 193 61 58 54 63 122 137 150 154 152 134 135 146 159 142 136 146 135 129 143 125 134 127 136 136 143 129 95 93 106 94 89 101 86
150 150 139 129 138 148 157 158 157 79 77 73 34 159 168 128 197 200 198 198 197 199 94 87 60 59 140 170 136 178 166 112 131 133 143 145 150 153 149 140 125 180 200 198 200 204 196 59 61 59 51 127 142 143 151 152 146 156 137 138 155 145 152 141 129 133 130 140 129 136 116 116 133 92 89 99 85 104 103 106
143 152 125 141 135 135 149 151 151 118 81 70 134 161 169 170 177 198 198 198 197 197 194 88 67 64 168 171 177 168 122 120 133 149 152 201 167 159 153 149 141 60 199 201 199 199 193 63 56 60 49 125 118 153 141 159 106 153 154 156 151 145 140 150 157 141 126 140 152 131 139 116 114 100 96 111 98 107 98 101
147 154 150 94 133 132 138 148 151 158 80 60 155 161 167 162 163 198 200 199 199 196 200 113 52 166 170 173 165 124 102 127 144 157 151 215 212 163 162 155 144 112 106 203 201 196 197 58 60 60 38 142 140 147 154 158 160 165 160 115 148 149 136 140 125 127 125 141 140 122 142 139 131 100 82 104 83 113 97 95
83 85 79 75 70 92 106 116 131 143 140 133 131 131 128 131 131 91 170 177 178 182 185 190 139 160 168 166 155 105 106 124 151 168 164 206 162 164 163 151 146 122 22 197 199 193 189 57 65 66 51 138 101 148 146 146 136 159 156 156 144 143 147 153 141 148 137 137 136 124 117 129 131 106 93 106 94 94 112 113
60 44 28 21 29 30 39 50 35 29 71 114 77 67 24 21 26 26 24 15 18 26 47 48 31 23 26 38 18 15 115 128 158 164 157 165 166 163 158 156 143 123 18 16 27 50 73 61 54 65 51 116 141 126 161 160 163 158 159 146 153 148 143 132 145 141 130 137 138 144 149 127 141 104 85 110 86 102 112 98
69 67 42 41 42 67 73 77 66 56 64 58 89 89 88 66 80 84 80 44 50 66 75 79 65 59 51 61 50 35 113 134 149 147 159 148 162 161 156 155 147 119 25 21 46 88 93 59 65 67 45 115 114 141 134 141 158 157 161 147 117 146 141 143 141 154 144 153 138 137 136 132 144 108 89 109 94 99 112 118
72 67 36 39 39 69 72 84 84 54 50 62 90 87 102 72 82 94 92 58 53 60 84 88 70 69 52 72 47 34 110 138 158 161 154 140 158 157 154 148 140 115 39 28 33 75 91 59 61 72 48 69 127 130 132 153 154 150 149 146 158 132 139 147 125 142 139 138 133 139 140 124 134 115 84 106 92 94 106 113
72 71 44 38 47 49 65 78 90 64 125 167 173 159 143 100 74 69 93 61 56 58 91 78 91 66 56 58 49 36 99 137 158 166 143 159 157 155 149 143 137 96 48 37 35 73 92 61 71 66 53 75 121 130 133 141 166 155 156 133 145 147 133 142 143 154 151 133 126 128 142 119 137 119 88 106 92 104 111 102
59 67 76 50 54 49 68 78 88 141 158 187 195 183 180 191 170 103 77 86 54 58 89 86 95 56 49 54 50 36 87 130 150 164 165 157 154 153 144 138 122 62 47 37 33 73 85 61 61 75 56 59 130 129 119 149 147 137 135 149 151 140 133 132 129 144 155 133 144 145 142 135 138 124 81 104 93 98 86 112
68 68 71 52 60 49 58 76 115 168 172 202 207 195 180 202 193 183 152 87 99 61 94 88 93 53 52 46 42 42 79 116 134 161 158 157 153 146 141 130 107 46 53 47 35 70 90 57 59 66 57 48 127 129 142 153 158 145 160 136 143 151 153 139 144 149 149 143 139 133 131 105 117 125 85 92 73 112 110 103
74 75 69 79 65 61 62 49 156 177 165 208 216 205 187 208 197 192 195 189 104 103 99 90 92 62 59 55 44 30 53 91 126 161 153 159 152 143 133 123 48 37 65 43 39 67 83 65 49 69 61 42 132 116 130 151 150 147 150 151 160 145 144 123 141 154 150 119 144 141 132 138 118 122 94 96 93 100 89 112
49 76 77 80 56 55 49 28 49 148 148 191 201 208 190 212 206 198 206 198 75 100 104 92 97 61 68 45 71 40 29 69 104 158 152 150 150 139 129 118 52 42 64 52 41 53 75 53 62 60 66 48 156 120 132 150 149 158 169 147 128 157 152 132 128 132 138 144 142 134 119 135 124 124 90 90 78 107 108 96
37 71 91 86 70 54 51 53 37 94 137 185 194 198 191 204 210 187 201 199 123 97 109 107 108 87 73 55 65 54 38 58 95 146 147 146 147 148 149 146 131 119 62 66 45 52 66 58 61 65 67 52 135 114 144 142 151 96 157 146 155 142 138 143 145 149 140 124 141 141 125 124 127 125 99 85 89 100 99 113
46 54 82 83 75 58 51 56 61 82 48 159 193 188 189 199 204 199 199 197 68 68 105 107 97 66 75 89 97 53 51 28 79 87 138 142 145 148 148 157 133 131 126 63 41 52 65 53 61 54 74 48 109 121 134 159 163 165 159 164 151 151 145 135 129 120 136 141 133 136 129 144 126 129 93 82 85 104 114 93
38 41 72 81 71 75 42 56 64 60 97 85 90 138 162 182 196 196 195 146 74 82 97 105 97 96 74 80 94 106 78 41 25 55 103 129 136 140 139 139 128 145 145 86 55 41 62 46 60 55 69 46 114 116 142 145 151 144 146 158 155 133 143 153 143 138 139 130 145 136 131 112 127 134 106 84 89 96 113 113
43 39 53 66 79 83 51 53 61 58 70 91 102 102 71 71 84 120 121 112 76 74 67 80 97 105 99 68 75 82 109 104 88 56 60 88 103 105 94 86 101 121 143 83 78 47 52 50 47 65 74 45 58 116 135 158 159 159 155 153 153 155 141 143 126 136 143 132 129 142 140 149 119 134 114 82 91 89 107 107
45 45 45 81 75 78 87 50 57 70 63 90 91 96 92 62 69 73 98 101 107 64 64 65 97 104 99 78 68 73 100 100 116 83 91 89 116 112 95 87 64 73 68 61 93 40 53 60 48 53 70 48 57 110 138 139 135 157 139 156 137 143 146 149 141 139 152 152 146 134 135 140 128 141 119 76 82 102 111 105
46 43 47 52 81 83 90 90 67 67 73 68 92 95 100 56 62 65 102 107 105 65 61 65 88 103 98 89 77 65 85 103 111 75 75 73 99 104 100 56 57 72 107 111 76 98 62 55 50 58 69 49 49 111 147 151 156 154 136 138 146 150 129 129 141 123 154 149 144 145 132 134 129 133 122 80 88 104 95 111
70 58 55 59 58 91 91 84 90 62 67 58 101 103 94 80 61 65 76 98 103 96 63 60 61 102 102 90 69 66 72 106 106 95 74 62 82 100 101 54 51 63 92 96 72 83 62 65 44 43 62 54 47 114 124 143 141 159 141 161 133 150 140 136 141 146 157 150 143 133 129 138 108 124 113 79 78 108 104 84
77 83 54 52 54 64 91 94 91 66 63 54 92 96 98 88 56 73 73 102 89 97 60 55 61 100 100 116 86 87 73 116 111 103 72 63 73 96 92 66 58 56 98 100 92 79 96 61 46 42 63 58 36 131 129 129 143 129 149 153 154 147 143 137 131 126 147 155 120 138 130 140 131 133 113 82 81 104 99 111
85 86 82 56 54 58 90 100 92 74 54 69 65 93 96 92 56 66 67 93 96 101 68 69 62 101 106 107 65 62 68 103 118 104 64 80 73 98 100 77 57 63 96 101 96 63 78 48 42 45 67 51 33 127 111 136 145 151 152 164 157 110 139 151 140 146 147 149 154 141 133 136 119 88 115 80 76 101 114 81
81 84 76 48 62 56 84 104 96 90 58 62 52 100 93 93 63 56 67 84 93 97 72 61 63 93 96 100 66 71 78 102 97 107 77 68 55 92 103 76 57 54 85 98 94 59 70 95 46 44 69 62 26 112 118 111 147 156 116 150 144 149 138 131 125 140 145 148 104 128 135 141 130 118 120 88 81 98 114 118
82 74 82 62 49 51 66 96 87 93 73 55 60 100 92 90 79 58 61 61 97 96 100 53 67 85 121 103 82 64 73 103 102 104 81 67 62 83 96 80 50 71 88 98 98 62 55 83 33 54 62 55 31 76 112 130 146 155 156 158 149 127 148 137 131 126 123 126 140 131 119 118 132 122 126 83 77 91 109 91
72 71 75 69 50 49 54 100 91 101 65 56 59 66 96 92 90 64 65 70 100 95 91 56 63 70 99 96 95 69 62 90 97 103 73 74 63 94 84 90 59 58 86 100 101 62 70 64 75 46 65 59 28 56 108 133 145 141 149 130 128 142 132 140 133 144 146 143 127 138 126 129 130 122 126 95 83 85 112 118
45 81 80 76 50 46 54 87 100 96 76 50 64 95 95 93 98 52 58 58 90 102 99 53 70 69 96 106 109 105 145 152 155 151 121 65 66 104 106 83 56 64 84 94 93 69 62 60 100 36 69 68 30 27 94 139 140 151 148 137 156 149 151 140 143 130 131 126 133 134 134 128 122 115 123 86 73 66 100 108
52 77 77 81 49 44 51 75 85 93 87 60 59 55 94 94 97 59 57 61 92 93 104 64 57 67 118 152 170 186 186 191 185 189 183 186 150 98 99 88 61 61 84 104 107 78 69 60 86 69 59 49 28 33 111 118 137 135 156 132 151 139 142 143 136 150 137 150 150 139 143 136 132 129 137 95 69 91 111 115
37 69 81 84 53 53 46 60 97 83 82 58 60 67 94 95 95 68 55 53 89 91 83 46 62 147 170 186 186 186 187 185 186 181 182 184 182 185 98 96 62 62 90 94 107 77 71 63 99 105 44 48 29 27 112 132 139 141 139 153 160 153 136 135 127 145 131 148 148 143 145 136 110 122 116 102 74 79 100 105
38 73 80 80 58 46 52 71 101 77 90 52 55 53 96 92 80 50 47 49 80 84 79 52 143 179 186 181 187 182 185 186 182 181 181 186 182 183 181 94 66 62 80 95 95 80 61 69 95 104 55 45 26 23 114 95 150 138 149 119 142 148 130 144 139 147 141 157 152 126 137 144 126 113 112 99 69 91 108 106
125 130 132 134 140 140 141 140 117 96 91 56 51 56 71 90 78 54 50 46 78 89 75 138 182 182 183 184 184 186 185 182 185 185 179 182 185 182 181 164 61 69 80 88 96 70 61 64 96 92 99 35 30 25 97 121 134 155 152 154 142 142 143 140 130 142 122 113 137 141 125 133 129 134 117 113 78 88 91 107
150 148 156 156 157 153 145 160 159 124 86 53 53 45 75 88 89 43 41 49 91 91 119 173 183 181 181 187 183 186 184 182 187 183 181 182 182 180 182 182 58 61 70 93 91 70 55 64 94 99 86 30 22 27 103 106 142 132 132 158 140 150 123 141 131 146 138 128 141 134 149 142 132 120 112 107 74 92 110 104
149 163 148 155 159 146 145 149 156 165 84 73 45 50 70 89 87 50 49 46 76 66 123 182 179 181 185 185 185 184 183 184 185 182 181 180 178 176 180 181 171 52 57 88 81 78 54 58 87 87 96 55 16 21 60 117 133 133 151 149 153 149 152 150 155 149 150 154 148 153 152 149 150 139 140 151 150 152 153 146
151 149 151 151 153 152 161 150 158 155 88 77 50 55 60 85 94 52 46 53 79 75 177 181 180 181 184 184 183 183 181 179 181 182 177 179 182 182 179 180 181 47 59 88 91 95 62 64 84 92 111 68 12 23 86 163 159 161 162 161 163 154 157 157 155 152 156 156 153 152 150 153 153 154 163 180 183 190 191 193
151 142 149 149 155 155 152 152 155 154 147 83 47 42 53 74 68 43 42 48 64 107 179 181 182 181 177 180 184 129 16 15 17 76 181 178 176 178 182 180 182 55 54 86 82 86 78 67 74 94 103 65 20 187 143 119 135 199 191 193 200 201 204 202 167 165 154 128 108 101 95 117 64 90 105 206 204 204 199 198
145 144 144 151 155 146 141 148 155 153 160 70 50 52 50 81 65 43 43 45 41 107 177 178 177 176 180 180 120 13 10 11 13 16 160 177 174 180 176 178 179 110 55 96 94 98 70 62 76 89 89 60 68 34 145 147 175 215 214 214 214 215 212 209 186 162 162 176 174 176 169 169 177 191 181 206 202 203 200 198
146 143 142 149 148 151 150 152 149 156 160 65 41 45 50 64 76 41 40 39 37 135 181 177 178 177 176 176 23 18 15 18 23 23 104 179 176 177 175 178 179 153 49 84 89 96 63 61 62 87 87 69 69 36 144 148 176 216 216 212 212 212 211 209 214 200 197 201 201 198 195 198 207 206 203 203 213 210 210 209
143 147 143 144 147 157 144 149 149 153 157 67 37 40 55 70 70 43 36 32 30 162 176 177 174 176 173 168 33 28 23 42 39 39 75 174 176 172 176 179 178 163 40 77 92 98 70 71 63 88 82 62 57 34 148 150 181 216 216 219 221 222 220 217 220 218 215 213 206 207 206 206 209 205 204 204 213 212 209 207
146 142 151 143 144 153 149 149 156 155 118 65 41 34 61 69 66 41 36 24 33 167 174 173 173 176 175 144 50 43 40 58 50 46 58 175 179 174 174 174 176 167 43 85 86 96 60 55 60 103 83 58 52 62 148 153 191 218 216 217 224 221 218 217 216 218 219 217 204 207 205 203 208 204 203 203 212 212 208 209
142 145 142 144 142 155 144 147 148 156 67 57 35 34 63 72 74 42 39 25 39 169 177 175 175 176 170 153 141 143 145 147 148 147 141 175 173 174 176 172 176 165 46 84 86 92 64 50 58 81 76 48 40 65 146 148 191 217 216 217 221 220 219 218 219 218 216 215 204 208 203 204 205 205 209 209 212 212 209 208
137 143 146 144 149 150 151 147 151 104 62 62 32 36 74 73 95 105 104 57 46 168 172 174 174 175 173 183 176 175 175 174 176 174 172 174 176 173 174 175 176 168 44 93 91 90 70 58 55 75 61 44 33 50 153 149 189 219 216 212 222 218 216 220 217 219 215 215 208 205 203 204 207 203 204 213 214 212 210 207
139 143 144 145 151 120 124 108 44 61 64 61 38 40 70 96 127 147 149 152 137 164 176 174 172 174 172 174 177 173 172 174 175 173 174 172 174 176 177 177 176 171 46 95 96 93 68 52 52 69 67 59 103 111 151 148 192 218 214 212 213 219 218 218 219 217 217 214 211 203 206 204 205 206 204 214 213 211 211 209
143 143 144 142 143 28 28 37 35 58 64 72 38 54 100 156 171 173 173 166 172 161 163 172 171 175 174 174 175 175 173 174 177 174 171 174 176 176 175 176 176 169 47 89 91 96 61 54 57 64 63 61 124 137 152 153 192 217 215 216 211 218 218 217 215 219 216 213 213 204 205 205 203 206 205 215 216 212 210 207
139 142 144 151 142 123 44 34 31 58 71 61 42 95 168 170 166 165 174 174 180 177 168 170 168 174 176 175 174 174 176 174 176 177 177 177 174 177 179 177 173 141 51 102 95 95 71 73 98 138 168 166 128 117 146 156 191 216 215 215 212 218 215 215 218 217 215 213 211 203 206 208 206 205 212 215 214 211 209 209
144 139 140 144 143 147 61 34 32 64 59 67 79 161 173 157 154 154 161 168 178 173 174 147 170 175 173 174 174 172 174 174 175 184 174 176 179 179 178 173 172 132 147 166 168 165 164 165 157 163 166 157 139 93 152 148 190 214 213 214 211 213 216 216 216 217 214 215 212 207 204 202 204 204 214 213 213 211 209 207
142 139 141 139 146 146 104 35 33 57 55 67 120 168 152 155 152 154 156 164 169 156 164 175 163 170 172 173 174 174 173 174 173 180 170 171 176 174 170 163 165 155 154 157 161 161 170 164 167 167 171 164 148 64 152 153 188 214 214 215 211 211 220 215 214 214 215 213 209 211 203 203 202 205 213 212 213 212 211 209
140 139 138 140 146 146 154 30 29 34 52 76 163 147 155 157 152 156 153 159 153 157 159 171 154 160 172 176 175 172 169 160 169 168 165 166 159 167 171 164 164 161 156 164 153 154 171 166 167 177 165 162 142 76 144 147 191 215 212 213 213 209 218 216 215 214 216 213 212 212 207 205 202 205 214 214 212 212 209 206
136 137 143 141 148 142 150 58 30 23 43 121 161 154 154 153 155 150 156 149 161 157 155 163 181 152 169 164 161 164 166 170 169 166 166 170 174 167 172 170 162 163 158 157 149 172 161 155 168 168 171 160 123 80 144 147 193 215 213 215 210 213 212 215 215 215 214 215 216 207 205 206 205 214 213 212 211 211 208 208
136 140 142 144 142 143 150 157 22 22 52 144 158 152 157 151 149 142 151 149 153 153 149 156 178 141 159 172 171 172 168 169 169 170 167 161 158 163 162 156 156 160 159 154 167 174 155 164 163 163 166 160 134 95 145 148 189 212 211 213 212 211 211 218 217 216 215 215 212 212 210 205 206 213 212 212 211 209 208 206
142 139 139 142 142 149 153 150 29 17 81 155 152 156 147 154 148 150 154 152 148 147 150 155 160 133 169 178 182 165 167 171 164 169 166 163 169 156 154 161 156 149 158 166 197 203 202 149 156 165 160 157 123 73 142 144 187 213 210 211 213 211 208 216 214 215 216 213 211 211 213 205 205 211 212 211 212 208 207 205
137 140 145 144 145 146 148 148 154 16 93 157 151 154 147 139 151 148 155 157 141 153 153 156 168 162 164 172 172 174 170 163 170 163 161 164 158 163 156 151 151 151 167 163 185 207 192 211 142 149 166 160 115 59 140 143 187 212 210 211 211 210 208 209 216 216 214 214 210 211 210 203 205 212 211 212 211 210 206 205
130 138 143 148 144 147 149 152 153 14 97 152 152 157 147 141 149 101 129 149 147 151 150 149 159 164 155 173 173 172 197 166 164 165 165 164 162 155 153 146 135 135 184 184 199 221 221 216 185 147 146 144 115 73 143 145 184 212 209 211 210 210 207 206 215 214 215 214 210 211 212 205 211 212 211 212 211 209 205 206
37 125 140 143 151 151 147 151 148 75 100 155 140 144 137 137 150 157 194 170 148 151 151 147 155 159 146 169 161 177 198 167 166 158 153 158 164 161 145 137 124 152 221 213 222 229 221 223 222 153 152 142 108 78 140 144 185 211 210 209 208 210 208 205 213 215 214 214 210 210 210 211 214 213 209 211 210 209 207 207
143 140 145 143 143 149 150 151 149 108 97 151 147 143 145 142 142 93 165 154 149 151 154 157 156 136 149 160 166 167 162 169 163 153 157 154 150 145 139 133 132 186 212 213 227 228 221 229 229 230 145 135 101 72 138 147 184 212 207 209 209 210 209 205 209 212 214 212 211 209 211 216 214 211 210 212 210 209 205 206
137 140 139 138 143 147 148 155 147 105 91 144 141 144 144 145 143 150 100 139 142 148 152 151 152 119 146 164 170 166 168 158 160 155 160 165 167 155 144 131 134 202 206 216 228 229 227 226 231 222 137 130 85 75 134 141 181 212 206 207 208 208 207 204 205 212 213 213 210 208 211 214 213 209 211 212 211 209 206 205
141 143 141 134 145 151 150 146 142 103 90 148 136 139 142 136 142 146 149 145 149 148 149 151 158 137 149 165 160 159 162 170 168 174 165 164 156 155 130 187 149 187 170 195 227 226 223 218 202 211 197 127 72 96 130 143 179 211 208 206 207 207 206 206 203 211 206 213 208 207 209 214 214 208 210 210 210 209 206 204
133 134 138 137 140 141 150 147 147 100 94 155 146 146 143 143 151 153 152 145 151 152 153 150 150 144 148 167 168 167 170 162 166 167 169 161 154 139 124 159 152 196 166 185 229 228 224 222 201 187 220 163 70 72 127 141 175 211 208 207 206 208 206 204 203 209 213 211 210 207 208 213 213 211 210 211 210 211 203 205
136 136 142 140 145 140 144 143 145 100 88 126 147 145 143 150 150 152 157 148 145 152 150 157 145 142 150 173 169 173 170 164 169 157 155 164 146 118 118 161 166 197 188 164 230 231 196 220 205 223 192 197 79 73 124 142 175 209 208 206 207 207 207 205 203 203 211 213 210 207 208 214 214 210 211 210 210 199 197 204
129 134 140 140 143 141 142 146 150 108 87 49 150 151 151 151 149 159 151 145 153 156 154 153 110 144 156 168 174 167 168 164 156 156 154 143 137 118 183 149 165 208 233 217 209 219 221 212 230 186 195 210 103 70 127 142 170 208 205 206 207 206 206 204 202 201 212 210 209 207 207 213 213 210 211 208 211 200 196 203
128 135 136 136 144 142 138 142 144 124 89 6 140 146 147 153 145 148 147 148 149 149 155 153 75 157 173 163 167 164 166 166 151 156 145 141 122 154 165 143 170 164 229 224 190 227 227 198 231 174 224 210 169 58 127 140 169 208 204 205 206 205 207 204 202 202 211 210 209 209 208 212 212 210 210 210 209 197 194 199
