P2
80 80
255
143 126 180 185 184 186 186 184 62 56 39 32 20 36 98 171 163 162 162 166 178 64 39 44 61 38 22 46 205 200 203 205 200 202 153 42 57 56 87 64 175 206 209 208 205 203 171 39 44 115 129 145 147 156 152 148 117 141 139 148 141 145 155 144 141 133 134 135 133 146 131 120 105 103 98 109 84 97 107 111
171 174 185 190 191 187 186 190 184 60 47 33 26 43 175 134 168 163 171 170 159 167 48 50 70 44 27 139 185 201 204 204 204 201 172 47 47 54 87 89 87 205 205 208 210 203 200 37 41 105 132 141 145 103 148 148 157 142 118 146 143 120 147 144 136 131 143 130 116 133 142 106 114 105 89 109 72 107 107 101
172 171 151 184 186 191 189 189 186 108 51 36 29 168 172 169 160 158 159 173 168 169 131 46 69 63 42 176 176 204 203 205 204 202 200 52 49 46 82 79 173 155 203 209 204 209 203 41 41 107 140 146 148 156 157 154 144 147 131 151 140 149 154 153 126 142 146 142 137 124 133 109 108 99 106 102 89 100 106 110
171 174 180 139 183 194 193 188 190 187 45 31 110 173 169 159 132 156 161 168 169 170 176 49 64 50 171 177 171 142 204 204 205 203 201 201 62 53 77 165 179 184 202 207 210 206 205 47 39 132 125 135 139 122 125 151 151 134 128 152 135 131 120 136 142 143 144 120 133 140 132 119 119 109 86 110 88 93 96 100
172 174 182 181 181 187 190 190 191 191 185 31 171 169 167 160 168 148 156 156 157 169 162 168 44 138 177 179 162 167 196 207 205 207 201 200 127 56 88 177 177 172 166 205 206 208 208 49 39 114 137 135 153 157 148 139 153 159 147 158 143 147 140 126 125 129 134 143 127 112 123 120 120 121 98 98 92 98 104 90
175 177 182 180 25 187 189 190 194 192 191 170 171 163 163 167 172 183 145 138 157 164 161 185 90 170 175 167 167 167 169 202 205 206 205 199 200 49 175 182 172 164 168 172 204 207 204 47 34 89 124 122 136 164 123 151 139 145 155 151 123 151 152 145 115 145 133 133 137 145 136 115 113 113 97 107 92 99 98 109
176 180 179 45 21 115 192 199 194 193 192 197 169 169 168 171 182 25 44 143 151 155 162 172 172 173 176 169 170 172 167 121 205 207 206 204 196 198 177 181 174 169 171 170 206 205 210 52 47 106 109 114 146 152 148 137 140 158 147 155 149 144 136 141 139 142 129 135 121 103 128 118 120 120 93 98 80 107 109 84
178 179 154 47 27 14 184 192 199 193 196 196 190 170 170 180 148 15 26 135 146 158 163 171 176 178 175 172 173 175 16 15 203 209 207 206 197 201 180 175 175 173 179 44 84 207 206 42 41 67 132 125 123 163 135 144 123 148 161 148 129 159 156 147 125 132 131 146 135 151 132 116 108 106 105 109 91 104 104 116
178 177 38 63 37 16 21 189 192 197 195 193 195 168 176 179 60 30 26 30 148 155 167 171 174 178 166 174 177 49 14 16 37 207 207 207 201 198 201 173 173 173 75 60 73 191 204 42 45 72 112 112 149 140 139 141 148 156 147 155 139 117 144 142 141 135 112 125 133 122 145 104 122 107 79 106 93 105 117 83
154 50 38 69 55 19 15 128 193 196 194 198 194 194 180 63 62 50 30 25 71 153 162 173 174 176 188 173 161 35 20 27 29 168 207 206 202 200 199 190 174 166 56 66 97 63 205 56 36 81 122 130 146 162 146 171 143 120 149 156 149 157 144 163 149 153 138 136 122 129 139 120 119 113 101 100 96 105 102 113
144 37 42 58 60 39 15 30 191 197 197 198 194 192 185 61 73 47 41 31 50 162 164 171 173 172 182 177 40 39 41 41 27 34 210 205 206 203 200 200 176 46 75 63 97 91 126 45 36 61 117 130 150 132 153 152 152 163 157 155 151 146 135 153 146 138 135 140 150 128 143 114 135 114 82 108 96 93 108 88
151 144 41 60 56 54 17 167 124 194 195 196 194 197 199 70 75 56 51 36 62 158 171 162 171 170 175 184 50 45 64 55 31 35 144 207 205 203 200 199 200 65 67 81 93 95 53 44 40 62 115 131 149 151 153 165 162 124 109 155 158 153 152 161 151 141 141 142 129 137 143 112 121 110 99 101 110 100 99 117
158 156 96 62 62 48 133 169 169 164 193 192 195 197 194 200 85 68 49 55 173 177 144 167 166 171 170 174 183 52 67 70 29 162 180 199 204 202 199 200 201 110 64 61 103 97 74 66 42 52 116 147 153 154 109 161 156 160 156 137 145 157 115 136 146 134 151 136 146 130 144 131 125 101 95 102 93 96 109 102
144 154 149 54 63 39 169 166 165 167 190 194 198 196 198 199 161 53 42 154 171 180 175 176 165 170 172 172 179 104 85 70 72 173 181 166 207 201 201 201 201 199 59 91 91 95 77 51 43 41 118 134 158 163 161 165 163 151 142 147 137 152 154 157 147 137 137 120 150 128 140 128 119 109 93 101 93 97 78 109
142 153 156 146 37 159 161 167 162 163 127 193 195 196 202 201 204 59 52 171 180 174 171 142 183 170 174 172 177 184 78 52 171 169 179 165 144 202 199 200 202 200 189 88 97 88 68 60 50 46 129 141 154 131 163 130 139 153 150 142 146 146 147 134 147 127 147 132 145 134 149 134 128 99 107 101 91 103 119 116
131 150 158 154 143 165 163 165 164 166 177 157 194 199 201 200 196 198 174 177 178 170 174 175 155 177 167 171 173 176 176 148 169 174 170 169 169 203 199 200 202 202 202 75 100 97 83 54 52 42 129 153 143 150 143 143 139 159 148 157 154 154 146 135 134 133 138 139 134 118 125 135 105 108 82 97 93 106 97 99
120 141 149 158 161 161 163 165 164 173 122 16 193 197 199 199 200 200 181 180 174 172 176 171 20 178 177 171 173 173 176 170 175 176 165 171 167 31 202 200 203 202 202 200 96 106 90 70 51 42 139 131 140 141 154 140 146 131 156 146 156 122 157 156 153 113 146 145 141 146 136 131 112 100 101 98 100 107 124 112
122 129 144 149 155 161 157 159 165 173 19 19 41 196 201 200 202 198 201 174 171 176 172 51 19 54 186 176 172 171 174 178 175 169 172 171 67 13 153 201 202 198 202 200 153 109 97 60 50 52 132 142 137 132 111 149 150 155 146 153 153 129 140 139 138 136 138 147 119 138 133 136 113 104 77 100 107 109 110 93
127 125 134 152 149 158 152 160 166 59 41 27 22 174 196 201 201 202 200 198 176 175 159 58 38 42 168 180 171 168 173 173 173 171 172 168 34 40 27 203 200 200 200 202 201 94 89 65 54 46 150 130 145 153 159 138 167 147 154 157 149 147 154 146 151 138 143 149 129 131 121 123 112 100 94 98 106 118 118 110
78 120 133 143 151 161 160 164 108 70 65 44 24 28 195 200 201 203 197 202 178 173 68 81 70 33 36 185 178 172 165 166 176 172 131 122 123 121 120 125 203 200 198 202 202 199 81 62 49 53 138 130 94 148 153 154 163 161 145 157 147 148 134 149 150 130 116 141 130 146 149 137 112 100 92 100 99 109 110 85
16 128 130 130 145 152 159 160 39 62 74 62 28 21 63 198 202 199 203 197 200 78 63 89 65 42 32 81 185 172 172 167 159 113 123 126 136 134 136 129 168 200 199 201 204 202 100 59 47 44 125 131 149 149 149 163 153 162 123 92 154 148 136 150 159 151 144 134 137 114 129 121 114 102 95 94 110 110 104 117
145 107 129 129 134 146 153 157 93 71 80 76 33 28 164 185 198 203 200 196 199 190 81 92 57 59 47 151 176 179 173 157 113 127 133 140 142 145 142 135 123 196 200 198 203 200 200 66 54 52 118 128 144 154 153 143 147 151 149 156 146 141 150 129 141 149 151 133 147 138 133 139 117 85 100 101 92 99 107 80
147 147 109 126 132 139 156 157 158 62 80 79 45 154 166 159 195 200 198 197 198 198 109 86 58 64 67 169 155 178 159 110 129 136 141 158 164 153 150 144 149 124 200 200 200 205 199 53 55 53 86 127 143 151 156 156 153 162 139 145 149 140 149 146 161 150 128 113 131 135 128 145 105 102 85 93 98 109 88 104
145 149 152 143 132 131 146 154 155 151 78 73 71 158 168 168 120 197 197 198 196 196 199 101 58 49 168 171 175 133 126 119 135 149 156 214 219 162 160 157 144 117 187 200 199 200 194 53 55 51 82 121 138 147 150 159 128 133 144 148 135 149 137 142 152 149 131 138 143 136 141 143 133 96 99 101 101 109 106 101
146 151 149 103 139 133 133 151 150 153 106 55 155 161 167 163 167 185 197 201 199 198 197 185 53 153 168 173 167 128 98 119 141 155 165 151 208 164 162 153 147 134 28 200 201 197 198 54 54 55 55 126 146 149 146 151 141 158 147 143 157 153 138 136 125 142 135 151 143 124 129 122 135 95 83 100 102 114 113 81
80 79 73 71 52 91 92 111 126 137 141 123 129 130 127 131 127 112 164 173 176 177 183 191 73 158 161 169 153 105 104 121 152 166 163 162 163 164 160 155 147 131 19 151 199 196 190 56 65 51 48 129 117 151 134 162 133 152 142 156 151 140 126 145 150 143 132 128 130 140 140 117 123 98 100 101 97 97 115 110
66 48 27 24 31 27 32 49 33 32 40 93 77 66 25 21 26 26 27 15 18 19 32 57 24 23 24 32 20 14 106 134 152 168 143 150 161 161 158 159 147 142 16 14 35 58 66 54 65 66 43 128 147 135 143 124 159 159 157 140 142 141 144 125 105 131 144 141 127 115 143 143 122 94 76 99 100 100 113 87
60 69 40 36 40 64 76 76 74 52 65 55 89 85 94 64 78 79 81 49 48 51 83 89 79 61 56 61 52 36 108 132 156 162 158 146 159 159 157 153 149 125 21 20 57 81 85 62 58 70 42 124 113 140 150 157 130 167 141 144 142 144 147 144 133 142 125 142 132 133 123 121 114 99 96 104 104 95 109 118
62 67 37 46 41 62 73 86 84 57 58 59 79 87 97 83 77 97 85 54 58 57 93 93 89 70 57 47 45 35 100 129 152 167 145 138 158 155 153 149 139 115 35 28 35 71 79 62 68 77 48 135 136 122 152 152 153 164 163 148 153 136 145 132 138 145 94 131 137 153 136 130 132 101 85 102 95 96 104 110
62 69 63 43 49 47 71 72 78 79 67 141 158 152 130 106 70 69 79 53 56 68 84 88 86 66 57 44 47 35 78 126 152 164 166 160 155 152 152 143 131 101 53 33 25 79 77 60 68 76 49 143 114 135 144 150 152 167 167 112 106 138 148 132 141 140 133 136 119 135 132 132 139 104 91 99 108 102 108 111
61 72 67 48 48 55 51 83 96 84 148 186 195 190 168 192 170 122 73 98 67 64 87 94 78 63 61 49 42 37 79 119 145 166 164 160 155 153 147 137 124 53 62 35 25 69 83 61 59 74 48 108 132 135 143 163 140 149 149 155 142 125 138 147 137 148 131 135 128 135 130 126 137 111 87 101 96 103 106 106
67 62 71 45 52 46 60 84 63 176 175 198 207 203 188 203 197 187 175 75 98 88 78 84 82 56 57 40 47 42 40 92 134 162 160 155 152 145 138 129 100 39 59 37 27 70 89 59 65 76 48 71 119 140 143 157 158 152 150 141 150 141 145 117 143 142 139 138 123 130 133 111 133 103 80 96 87 113 112 98
67 71 73 70 58 51 59 57 78 190 193 199 210 210 201 205 207 193 196 186 79 102 102 82 90 68 57 57 46 34 27 76 116 166 152 154 153 143 128 118 53 45 58 40 33 61 79 63 58 89 56 72 115 136 140 162 149 135 137 156 138 131 148 148 135 152 144 139 137 138 131 138 143 121 90 94 95 106 106 109
54 77 74 77 65 67 60 27 39 173 173 190 202 213 201 200 217 194 201 203 174 99 98 114 95 72 53 59 54 41 34 61 93 144 151 146 149 147 144 137 131 87 56 65 29 49 70 55 58 83 52 48 118 139 150 156 158 142 153 154 151 153 147 152 131 155 137 137 144 143 120 124 123 131 88 93 96 110 114 76
45 73 79 75 79 55 54 49 38 75 142 181 192 202 171 177 209 183 204 206 191 77 101 97 107 89 74 63 70 45 48 25 69 89 151 143 148 148 151 157 146 127 127 60 33 47 68 62 60 79 55 78 120 130 150 140 153 124 133 134 151 152 140 141 140 161 151 139 149 150 141 134 133 126 87 94 98 107 109 113
40 48 69 76 77 57 59 56 69 70 56 143 191 194 188 197 201 202 205 197 183 86 95 100 102 90 70 83 94 92 53 36 53 68 90 127 138 141 143 147 142 138 147 93 52 51 67 53 63 82 59 57 134 138 143 153 139 144 145 155 138 143 154 148 119 140 150 140 152 128 123 140 130 125 85 92 99 103 116 77
38 41 75 80 75 74 47 60 66 58 91 84 83 157 174 185 197 193 194 185 72 77 79 105 101 105 75 75 83 101 102 91 53 34 72 111 123 129 122 125 108 126 147 83 75 42 57 53 61 82 56 47 119 101 146 144 167 121 160 134 152 158 136 147 145 162 148 130 133 135 136 130 113 117 98 87 105 98 111 113
39 40 42 73 82 77 70 55 68 64 66 96 97 104 82 68 79 107 124 119 85 72 69 78 95 102 101 72 71 72 96 106 101 85 88 92 83 94 74 49 27 85 81 57 81 44 46 48 51 77 63 45 138 132 145 150 131 155 156 163 149 152 137 146 124 106 143 141 135 136 134 144 140 132 88 87 97 93 108 98
46 41 46 80 72 80 81 55 49 57 59 92 88 105 104 59 73 70 105 102 102 63 67 68 83 94 104 105 66 63 74 112 112 91 76 78 108 120 103 66 60 82 110 104 87 100 40 47 48 78 67 47 126 93 155 145 153 136 160 160 129 131 137 145 144 139 134 138 145 136 128 118 116 116 101 79 91 100 108 108
43 43 45 40 78 83 78 94 68 72 61 58 90 97 95 68 66 73 84 101 104 92 65 59 65 97 100 107 65 69 69 104 111 99 73 71 72 100 106 78 57 64 108 95 89 79 49 51 58 70 63 47 88 121 139 162 158 147 147 152 156 154 130 144 138 124 137 123 113 139 155 137 122 132 100 85 90 110 104 109
78 60 53 57 65 89 94 87 85 80 63 59 97 97 99 84 52 66 66 101 113 98 62 57 60 108 97 105 58 125 74 105 104 107 71 78 81 100 103 83 61 59 86 100 95 80 101 52 47 65 59 52 81 104 140 144 142 156 140 159 128 131 137 131 134 133 132 141 140 130 127 140 123 141 98 78 93 112 105 99
80 82 53 55 55 54 87 96 97 71 59 68 63 97 96 94 56 58 69 98 110 97 75 52 63 104 98 107 80 77 68 100 146 109 70 66 61 100 95 90 56 64 83 101 97 67 79 55 47 52 63 54 54 112 131 131 154 143 134 133 143 143 126 132 142 141 147 138 134 139 135 132 129 142 125 81 95 107 112 108
80 82 81 50 56 58 78 96 88 91 57 59 57 91 107 94 68 60 60 74 88 95 94 65 64 65 104 106 93 71 67 84 111 106 76 67 73 86 93 85 56 62 67 96 102 64 72 87 37 51 62 50 37 99 138 138 135 159 137 148 144 140 139 141 135 140 152 142 139 134 124 128 108 126 121 82 89 107 115 85
83 84 92 59 50 59 66 87 95 104 58 62 54 96 97 83 98 63 73 69 97 103 98 59 68 69 97 96 100 63 68 78 104 104 82 66 57 89 93 96 52 60 64 94 93 60 61 66 41 45 64 53 32 118 136 132 156 138 140 151 154 145 145 135 141 134 157 157 126 148 138 142 143 133 125 79 93 100 111 117
61 80 75 71 48 56 53 91 91 99 75 54 63 70 91 89 94 70 68 72 102 94 102 64 66 56 104 105 106 72 71 71 107 102 85 61 62 81 96 92 50 68 64 84 89 69 65 66 66 47 60 45 26 116 124 137 143 148 156 152 154 135 148 145 142 137 151 157 147 139 135 123 127 121 117 78 86 102 111 85
47 74 80 73 46 48 51 94 94 100 91 60 51 62 84 98 89 68 64 59 96 103 96 56 67 59 97 108 114 71 64 72 99 92 81 62 57 97 91 87 59 64 59 100 90 70 72 63 98 35 68 52 27 116 119 132 139 147 120 134 148 149 147 134 123 139 156 148 117 140 143 140 129 107 115 86 89 94 114 116
42 65 78 83 50 50 46 57 91 90 98 63 53 63 91 87 85 67 60 64 86 88 100 60 56 68 92 102 118 118 145 150 148 145 95 77 63 96 97 101 63 65 62 105 106 76 68 65 92 68 55 50 28 81 117 138 149 162 150 152 144 134 146 141 138 112 137 140 143 133 127 115 137 143 120 82 76 69 94 100
40 73 75 74 65 45 55 58 88 96 101 76 63 62 88 90 93 75 55 73 68 96 95 67 60 64 142 154 182 185 184 185 185 188 185 183 74 92 91 105 56 61 60 105 96 99 68 62 81 107 41 41 26 70 108 141 147 129 145 130 141 121 127 138 145 146 142 141 132 146 128 126 122 123 120 84 78 105 106 114
40 65 67 72 83 54 52 62 85 88 91 55 61 64 62 86 96 84 56 46 67 88 81 58 84 148 182 186 186 186 185 187 182 183 182 187 183 148 92 90 56 60 68 96 106 96 65 60 71 88 44 38 24 40 112 134 147 141 150 139 145 141 141 129 141 130 124 136 134 137 138 138 128 113 122 81 77 93 106 98
39 51 76 77 80 48 52 54 90 95 89 70 74 55 56 98 90 82 54 46 68 69 84 104 150 183 184 185 187 182 187 185 185 176 186 183 184 182 136 101 58 66 66 100 102 81 64 58 68 93 93 29 22 37 108 111 140 130 154 135 152 136 132 138 135 143 135 150 145 150 141 143 140 114 134 84 76 102 108 106
125 129 133 136 138 140 142 140 138 86 91 85 55 57 48 89 85 73 50 51 71 82 91 144 181 183 183 186 184 183 183 182 184 183 184 182 181 182 184 91 63 58 57 107 97 90 65 64 63 104 97 21 21 27 135 134 135 142 133 149 159 152 137 138 135 146 120 147 138 145 150 130 118 118 134 105 78 99 108 101
145 155 153 155 158 155 144 153 162 143 91 84 52 50 48 79 78 76 50 56 85 84 130 181 181 181 185 185 182 189 181 183 181 182 183 184 180 182 185 182 58 60 59 97 94 95 56 59 67 102 92 53 14 25 118 116 129 139 148 143 155 155 125 146 144 142 147 150 141 137 143 135 127 103 124 91 76 101 112 99
146 143 146 154 156 159 151 151 153 158 95 91 44 70 44 84 81 71 49 50 77 92 174 181 180 183 183 184 181 181 183 181 182 180 180 182 182 182 177 184 51 54 61 76 90 89 59 55 64 102 99 81 12 19 119 129 112 131 151 142 151 149 154 151 150 149 153 155 148 152 156 151 148 138 141 145 150 155 153 151
148 154 152 145 160 156 152 149 152 153 149 84 52 54 54 80 83 70 45 48 61 113 184 180 184 180 184 182 184 183 179 179 180 177 179 179 177 178 178 178 153 49 49 98 96 92 66 58 57 109 91 90 10 15 84 164 161 159 165 163 168 160 157 154 155 155 154 152 152 150 149 149 154 153 154 176 184 184 189 192
148 146 147 155 146 151 150 153 156 154 156 80 53 49 44 70 68 57 44 41 42 129 179 179 180 179 179 179 180 56 14 13 22 173 177 178 175 181 176 179 179 50 57 93 89 100 65 57 51 99 99 93 71 30 148 140 113 203 192 191 198 200 199 202 202 159 162 144 103 96 85 122 115 80 81 206 203 203 205 199
146 141 151 146 156 143 148 152 152 146 161 77 47 46 44 78 69 61 40 39 50 173 179 178 177 178 178 178 27 10 8 8 13 37 177 178 177 179 178 178 176 47 58 103 89 90 72 70 56 91 93 88 69 13 149 147 154 217 215 217 212 213 213 213 212 169 158 165 177 173 167 166 173 189 179 205 203 204 200 200
143 142 143 155 151 157 149 150 150 150 161 71 43 47 44 66 72 46 44 25 86 173 177 176 175 180 177 135 29 14 14 10 20 24 163 175 178 175 176 177 180 49 56 92 95 100 55 65 58 100 86 85 66 11 141 147 157 217 216 215 211 212 211 212 214 195 197 200 202 198 195 197 198 207 207 207 206 212 210 209
143 143 148 150 148 154 146 154 153 152 154 67 45 39 35 64 70 46 33 21 93 174 175 173 173 174 179 46 45 29 22 25 34 38 119 177 174 175 176 176 176 42 51 84 102 93 62 61 58 92 83 85 52 54 143 151 156 217 217 216 219 220 221 219 221 215 213 214 207 204 205 207 205 208 203 203 215 213 210 207
146 144 144 140 147 150 146 148 156 153 159 64 40 29 40 74 82 42 31 22 93 166 174 176 173 177 174 57 64 35 41 34 46 42 119 175 173 175 174 176 173 46 53 92 101 102 50 69 54 86 84 86 50 60 148 154 157 217 216 217 224 219 220 218 224 215 220 218 207 206 205 202 205 206 206 204 212 213 211 207
140 144 146 132 142 148 141 148 148 156 87 56 31 35 44 67 73 52 25 24 92 173 175 172 174 174 175 118 136 136 137 143 142 139 134 174 173 175 173 177 175 45 47 97 91 101 67 56 51 83 72 66 46 46 146 152 158 217 217 225 219 219 220 220 217 217 217 216 212 204 203 205 204 206 206 204 213 213 211 208
136 143 138 144 148 146 152 146 154 152 60 68 30 35 48 74 95 96 73 27 92 171 175 175 173 178 175 197 175 180 177 175 178 179 175 175 173 174 175 174 173 45 45 88 90 91 56 55 54 77 64 62 37 41 147 147 152 215 216 214 214 218 219 220 216 216 216 214 213 205 204 202 204 206 207 207 214 213 212 207
139 139 145 141 146 116 125 118 65 38 62 66 31 40 85 101 135 143 153 148 124 174 175 173 171 173 175 175 176 171 176 173 177 175 173 175 172 170 177 177 175 47 49 91 108 96 58 63 61 75 66 56 108 108 147 146 154 217 217 214 211 219 219 221 217 217 215 214 213 204 203 203 204 207 206 211 212 213 211 205
136 139 145 157 143 50 42 34 29 40 57 63 36 88 112 169 170 171 168 176 173 128 170 174 170 172 173 175 175 174 175 174 177 173 174 175 173 175 176 176 177 52 45 99 106 87 65 67 63 70 62 94 139 127 146 149 153 214 216 214 210 218 219 219 220 217 216 214 214 205 204 205 204 208 207 214 214 213 210 206
143 141 139 144 142 150 50 30 33 44 61 59 74 115 164 172 173 172 175 178 176 171 141 170 170 174 178 174 172 176 171 174 174 171 175 176 175 177 176 179 172 48 59 99 107 103 112 144 165 168 172 164 133 150 145 153 151 215 215 218 210 213 215 217 217 215 215 212 213 210 203 202 204 205 205 213 211 212 211 206
141 143 139 144 144 145 58 31 31 40 64 64 107 165 156 152 157 159 164 175 176 177 171 163 168 172 171 174 176 175 176 174 173 175 174 175 175 176 175 172 168 149 164 165 165 162 164 166 171 170 172 170 137 143 148 155 149 212 214 213 209 210 217 217 215 215 212 213 213 210 202 202 205 205 210 212 212 212 210 207
137 144 137 138 142 145 149 39 30 30 47 73 162 165 156 152 152 151 160 160 154 159 179 161 166 170 172 176 173 173 173 178 175 174 168 169 176 173 167 159 158 159 162 165 161 165 165 170 176 192 170 176 148 118 144 149 150 214 215 215 210 207 218 215 215 213 214 213 212 211 203 202 204 205 213 210 212 211 211 206
140 135 139 142 143 149 154 33 26 28 54 113 161 153 151 146 146 151 157 152 157 160 161 180 159 167 174 172 172 170 165 168 166 167 162 164 163 158 172 164 160 158 154 160 163 168 161 165 167 166 175 168 150 110 143 146 153 214 213 212 210 210 212 219 216 212 212 213 214 212 206 203 203 205 215 212 212 212 211 206
135 137 135 139 140 144 148 144 23 23 72 157 144 153 153 150 149 152 150 159 152 151 154 171 131 169 162 159 163 156 157 172 170 163 161 166 167 164 162 162 158 157 159 160 150 160 167 170 166 169 167 174 148 104 144 148 153 212 215 214 209 212 208 217 217 213 211 213 214 213 211 206 205 205 215 211 212 211 208 207
136 150 137 143 142 144 149 149 22 18 83 162 148 153 149 152 139 146 150 153 148 151 157 161 177 154 172 169 170 166 173 164 170 167 168 168 157 152 164 162 158 160 161 156 153 182 156 166 161 162 169 164 141 146 143 146 153 211 212 211 212 213 210 218 216 213 214 215 214 212 211 205 207 208 213 212 210 211 210 205
136 140 144 142 143 151 150 146 120 16 115 154 149 147 149 145 143 153 149 152 149 153 150 162 181 148 216 166 170 168 171 170 168 159 169 162 162 160 153 154 159 165 148 150 193 196 195 174 150 164 163 160 134 119 141 146 150 208 211 211 210 211 211 214 215 212 212 213 212 211 210 205 205 213 211 210 211 210 208 205
136 138 138 141 145 142 144 148 145 15 129 151 145 149 146 145 147 147 157 151 145 155 159 155 176 147 172 170 176 166 168 167 162 169 166 160 156 160 158 147 146 149 146 199 203 208 203 194 175 153 151 145 135 82 134 144 151 210 213 210 209 209 209 208 216 213 212 213 213 213 210 204 203 214 211 209 209 211 207 205
37 140 142 146 143 146 149 156 134 34 142 149 154 143 149 140 143 154 49 157 145 149 157 157 177 143 171 167 185 182 169 170 162 155 162 167 160 159 156 150 147 143 160 188 189 199 221 221 214 156 158 155 130 72 134 143 148 211 211 211 210 208 207 207 214 212 212 213 212 213 210 213 204 215 212 209 208 209 207 206
37 135 140 146 144 151 147 146 126 82 155 146 142 146 144 142 128 207 178 141 142 151 156 154 163 147 156 165 169 172 196 167 165 155 151 153 162 151 171 133 124 125 196 221 216 226 229 223 225 215 144 142 104 115 133 145 145 210 213 211 209 208 209 205 211 212 212 212 213 212 209 213 209 213 211 210 210 209 208 203
144 145 141 145 145 157 150 152 123 88 155 149 153 141 146 147 109 152 167 137 148 146 153 152 158 144 156 174 164 174 176 162 165 153 154 152 148 144 154 147 130 116 195 218 224 224 220 211 228 230 150 134 83 85 129 142 146 210 211 210 207 210 209 206 206 211 211 212 212 210 208 213 215 212 211 211 209 209 208 206
138 141 150 133 145 148 151 149 120 95 139 143 137 145 149 144 143 127 130 153 138 148 147 155 158 145 159 166 161 167 170 172 158 159 154 167 168 166 150 131 159 145 212 221 225 226 230 233 227 231 229 128 85 94 126 139 143 208 209 208 207 206 208 206 207 211 211 211 213 210 208 213 214 212 211 211 210 211 208 203
139 137 138 139 143 144 144 148 119 93 128 145 137 138 140 144 141 144 143 144 144 151 156 153 157 151 156 169 164 163 179 162 173 167 162 162 157 152 143 123 175 151 186 192 199 227 221 230 216 218 230 134 81 132 125 142 147 208 211 208 205 207 205 206 204 210 203 212 211 210 207 212 214 212 212 209 209 210 203 205
131 130 136 137 141 141 138 146 120 88 105 142 140 147 138 136 144 154 151 145 151 152 151 160 137 142 161 160 165 166 168 167 162 164 164 162 149 145 123 132 147 169 166 183 192 219 218 221 201 222 210 214 78 77 123 137 142 210 209 207 206 207 208 204 204 204 212 211 210 210 208 210 213 211 211 209 208 211 199 204
134 136 135 139 140 137 150 143 122 89 90 139 140 137 146 154 149 151 153 144 145 151 150 154 136 141 160 173 170 171 168 170 163 162 154 160 142 133 115 160 148 202 205 172 182 181 214 185 194 216 224 195 135 67 121 137 145 209 208 208 207 204 207 205 204 205 209 210 211 209 207 211 213 211 211 210 208 208 197 203
131 137 141 142 144 139 141 142 133 93 88 144 142 139 149 147 147 152 149 145 148 150 151 158 141 144 179 165 170 174 168 165 160 154 160 156 138 118 118 154 137 177 228 213 225 197 221 199 232 231 224 177 189 51 120 139 145 208 208 207 207 206 207 203 203 202 209 209 211 209 207 211 213 213 212 208 211 200 198 204
127 129 135 134 138 138 144 144 139 94 89 74 146 146 148 144 147 143 144 150 149 148 158 109 134 146 166 166 162 163 169 172 159 159 157 147 132 118 203 153 146 163 190 226 217 229 230 234 224 224 226 219 204 39 113 135 144 208 207 205 206 204 205 203 202 202 202 208 210 209 208 211 212 211 211 209 207 198 196 193
