P2
80 80
255
52 141 181 187 190 184 184 187 98 52 38 36 23 37 51 171 168 163 163 168 181 141 36 39 62 44 23 34 205 200 203 204 201 201 172 35 47 60 91 74 89 203 210 207 209 203 199 37 48 120 136 150 149 152 156 147 134 154 147 151 147 149 147 118 117 129 142 128 133 143 128 114 116 110 99 96 99 106 108 118
170 173 143 185 190 187 190 191 187 58 47 34 30 42 169 131 169 163 173 172 162 169 52 49 76 47 24 61 151 201 202 203 205 201 201 43 53 69 92 80 61 198 205 211 207 205 203 62 52 115 138 132 156 142 148 140 154 142 147 148 146 146 128 130 136 112 128 135 126 143 114 118 127 114 91 106 99 106 105 82
170 173 176 184 186 192 189 193 188 181 52 36 36 148 173 169 151 160 158 170 169 166 168 47 62 71 30 175 179 196 203 206 205 202 201 133 49 58 92 87 172 169 206 205 207 209 203 132 45 113 125 144 148 147 158 149 128 153 144 135 119 143 149 141 148 127 136 132 134 143 129 110 125 121 97 97 92 96 97 115
170 173 177 140 184 189 191 189 189 188 68 33 39 173 169 164 164 158 160 172 170 168 180 88 66 54 161 176 176 157 203 204 205 204 201 202 51 56 89 117 176 185 167 205 209 205 208 130 34 115 143 141 153 112 152 148 148 141 144 136 151 124 145 141 136 140 142 140 122 131 137 122 115 117 97 108 98 94 99 86
173 175 180 185 148 188 193 191 189 192 192 26 170 174 164 162 174 131 159 149 152 167 159 166 51 76 175 177 169 167 155 206 205 206 203 201 197 55 83 179 178 175 174 205 206 211 208 129 32 103 135 147 139 168 155 162 138 150 145 150 122 149 155 153 133 135 141 139 129 141 130 119 117 119 99 109 107 101 105 97
176 177 181 183 28 186 191 194 192 192 192 188 171 164 161 165 173 185 139 138 157 165 158 181 169 169 176 167 164 168 175 203 205 208 206 199 201 84 172 178 177 163 170 150 207 206 209 129 31 127 130 143 153 114 152 153 148 128 151 154 144 135 128 149 126 139 135 138 133 138 141 134 113 113 103 102 95 96 114 106
177 177 183 130 18 23 193 194 192 196 191 194 168 165 164 167 185 104 18 141 153 156 159 169 173 171 179 168 169 171 178 33 207 208 206 205 196 200 176 182 174 166 171 178 186 205 207 116 43 107 139 144 158 159 150 160 150 161 148 156 151 150 138 136 136 135 124 149 109 130 139 105 116 116 97 101 92 99 101 94
178 182 174 49 25 15 150 192 199 192 193 198 197 167 171 179 177 21 21 63 144 155 160 172 170 180 172 174 175 175 24 13 165 208 208 207 200 198 196 178 170 166 172 57 66 206 205 121 45 125 130 133 140 154 154 150 139 134 153 149 128 151 159 142 99 143 134 144 137 150 131 133 111 103 96 103 92 102 114 114
177 179 43 59 38 16 15 191 193 195 198 192 194 184 176 180 63 33 28 29 138 155 165 174 174 178 173 171 178 132 16 13 19 207 206 207 204 196 202 169 172 179 156 69 88 117 207 110 42 126 130 125 158 159 147 142 153 163 150 156 148 147 131 124 136 137 139 134 132 140 135 119 121 108 87 109 99 104 114 102
147 108 37 68 56 21 15 39 193 196 194 198 196 192 174 112 58 46 32 25 44 152 158 170 176 176 186 172 178 36 23 21 26 66 210 206 204 201 197 201 173 177 52 76 92 65 202 107 43 118 137 136 145 156 157 151 142 155 158 146 132 156 160 158 128 142 141 130 134 131 132 114 103 98 98 98 100 118 91 110
150 76 40 59 60 46 14 19 170 197 198 197 196 192 199 59 68 49 44 35 48 115 165 169 173 173 176 185 49 38 38 36 32 34 193 206 206 202 204 199 184 55 70 63 93 90 58 99 51 123 112 140 152 150 139 141 142 156 151 151 138 132 146 136 134 133 138 129 148 147 133 113 126 108 91 99 100 103 118 100
152 148 44 55 56 59 18 157 159 192 197 195 196 195 198 138 75 51 48 46 51 175 172 162 170 169 176 184 108 45 59 58 33 33 165 206 205 202 202 198 200 60 60 74 110 92 38 59 46 98 129 144 154 156 146 162 146 136 151 153 153 157 148 155 141 153 138 132 123 131 118 107 120 117 100 98 108 108 88 112
151 158 142 61 62 53 47 168 171 115 192 195 195 197 196 200 84 60 51 46 170 178 148 173 165 171 168 175 181 53 72 79 34 98 176 151 204 202 200 200 200 194 66 74 93 91 70 63 49 108 103 148 148 153 135 145 150 159 154 151 148 148 142 154 128 131 144 145 151 150 147 110 119 106 98 101 95 102 116 117
146 158 151 86 67 37 168 165 166 166 179 193 199 195 196 198 198 53 41 78 176 178 174 162 171 168 170 174 175 183 87 73 41 174 179 179 204 201 201 201 202 200 73 71 97 94 67 51 46 78 130 142 155 152 158 173 163 116 128 146 157 146 149 160 147 148 136 134 134 133 137 116 131 109 99 88 101 102 85 110
141 148 156 154 48 156 168 166 166 163 160 194 194 195 201 201 201 116 42 173 180 177 168 171 185 177 174 169 178 181 88 54 164 174 176 165 147 203 199 207 201 201 200 70 101 92 58 66 43 73 123 150 157 149 119 160 158 160 150 109 142 142 133 140 148 147 140 151 142 135 140 121 122 98 98 99 86 90 119 119
129 144 151 156 150 166 162 163 162 163 173 85 193 200 203 203 196 201 166 176 179 172 175 177 132 183 167 171 173 175 182 97 168 177 175 169 172 166 201 201 203 203 202 161 91 104 63 58 41 71 126 136 156 165 147 152 164 147 153 146 152 145 150 160 153 136 126 134 135 125 145 110 131 104 97 85 97 99 95 109
123 136 148 160 159 152 162 163 163 169 173 16 181 195 200 199 198 198 199 180 176 171 175 177 25 167 179 173 175 173 172 176 173 177 167 170 170 39 204 201 203 201 201 202 95 101 85 73 39 49 123 145 144 145 153 130 150 152 145 127 154 139 140 138 160 129 143 144 132 141 146 135 118 99 95 100 96 96 124 110
124 126 141 152 156 160 160 160 165 171 28 15 21 196 199 201 202 203 203 179 171 175 175 134 17 38 184 178 174 169 173 178 176 171 171 176 156 13 50 204 201 199 201 202 199 104 88 57 38 74 128 156 136 145 151 147 149 161 160 158 156 151 139 128 151 143 141 150 131 124 130 132 125 107 92 90 99 108 102 107
127 125 133 147 137 156 153 161 167 97 47 26 23 64 195 201 202 203 199 204 179 174 173 70 42 39 86 185 172 171 172 171 174 171 173 152 114 116 118 192 202 200 198 202 201 128 63 51 42 47 121 142 147 131 165 139 155 141 151 156 150 130 150 154 137 120 148 150 138 138 143 131 117 105 99 97 105 116 119 112
18 125 131 134 147 157 161 159 163 63 68 49 23 21 188 198 201 205 200 199 199 172 64 80 59 40 34 182 179 171 168 170 172 166 114 122 124 127 129 125 193 200 199 200 201 203 65 58 43 61 123 141 105 156 126 147 157 150 158 154 148 142 142 118 130 137 151 133 125 133 144 136 115 108 93 96 107 117 103 105
19 118 126 132 141 157 161 162 41 54 76 69 28 23 27 196 207 199 201 202 201 138 71 90 63 51 34 42 182 176 168 167 145 115 127 130 136 139 145 137 123 198 200 199 204 202 189 67 36 43 136 134 133 151 151 141 158 132 150 154 146 155 148 139 139 128 134 118 145 134 114 130 114 101 99 93 113 120 107 115
89 143 135 128 131 148 154 160 155 48 78 75 47 27 165 134 199 202 200 197 196 199 81 93 60 51 45 102 144 185 172 150 115 130 137 143 149 149 147 144 138 145 199 198 201 202 201 66 45 52 115 127 146 150 157 131 158 158 155 152 144 148 149 143 154 134 146 135 142 140 142 129 111 94 97 97 91 112 110 103
147 149 97 130 130 138 150 154 157 78 81 77 68 92 165 173 192 198 199 198 199 196 181 89 60 56 42 169 172 178 153 109 129 138 145 163 200 158 154 155 144 127 193 201 201 204 203 72 48 44 149 137 142 153 151 158 165 164 101 118 147 149 142 138 148 144 137 133 135 136 125 127 101 99 111 85 98 105 87 110
145 151 156 119 136 133 144 152 156 155 71 70 56 155 166 170 139 196 200 198 197 197 201 93 63 47 164 169 177 125 126 104 133 146 158 81 228 168 162 155 151 132 126 199 200 201 199 62 51 47 140 105 151 155 151 126 153 149 159 150 110 142 142 144 158 144 144 135 124 126 132 136 118 94 106 98 99 109 105 110
144 147 152 143 143 128 131 148 154 156 152 65 152 160 165 165 167 132 199 200 198 199 198 197 73 105 165 170 175 131 99 121 139 156 164 170 180 165 163 161 148 140 28 194 200 198 198 62 53 41 111 135 140 160 163 163 159 158 147 148 142 147 133 148 155 138 119 142 138 143 123 132 115 97 104 83 99 113 117 92
74 72 70 65 39 82 92 105 120 131 138 83 124 127 119 122 124 120 154 166 172 177 178 186 138 158 163 169 155 108 96 126 147 163 166 164 162 161 163 155 148 139 46 42 199 195 192 67 52 44 102 122 143 135 128 161 132 139 149 149 147 146 144 141 160 148 147 144 143 137 137 147 127 97 102 103 99 109 111 110
65 60 28 32 22 32 37 46 45 32 36 79 81 76 37 24 32 25 28 18 17 17 30 57 34 30 23 28 28 15 95 131 146 157 150 152 161 159 159 159 151 135 52 14 37 67 51 54 63 60 62 128 149 140 142 152 142 148 153 164 145 139 148 132 146 142 137 140 141 140 132 138 127 96 92 92 104 113 112 94
66 70 41 33 36 69 70 74 77 55 62 59 93 94 96 74 88 80 82 45 52 47 79 81 91 65 51 47 55 35 87 124 152 162 148 152 155 158 161 154 143 135 33 17 59 90 65 55 56 59 55 128 130 136 142 172 140 151 130 152 158 136 142 147 153 148 138 129 126 148 124 126 125 102 100 106 113 106 99 115
71 69 54 42 40 42 74 69 91 72 54 59 60 82 99 101 76 86 80 62 60 59 99 97 98 67 63 45 48 45 70 126 145 167 152 139 157 156 152 147 140 120 32 19 41 82 56 58 59 62 48 128 130 128 141 133 144 146 154 150 144 138 144 110 126 151 139 141 130 143 137 137 127 91 87 95 97 101 91 110
64 68 71 41 44 53 70 70 93 83 53 84 124 135 123 105 77 67 68 81 59 65 82 91 84 75 59 50 54 42 46 117 139 161 165 163 157 152 150 142 133 103 53 20 22 81 54 64 62 68 52 141 120 126 151 160 142 164 145 127 144 136 151 148 134 139 134 138 133 143 123 103 122 105 98 96 107 108 102 109
62 63 65 41 42 54 50 74 91 84 138 172 194 194 178 190 176 136 73 87 105 57 69 90 86 60 63 44 51 38 40 89 140 154 163 158 154 149 143 135 127 52 63 23 20 65 64 64 56 70 45 135 132 112 147 139 140 149 157 158 147 128 134 141 140 143 103 149 144 143 136 125 125 97 90 100 95 101 119 93
65 69 75 61 50 51 52 76 73 109 166 183 202 205 191 193 200 185 183 96 93 110 83 93 89 71 59 44 53 43 27 85 126 159 159 156 155 149 138 130 106 43 65 28 22 70 63 65 69 66 42 142 124 130 145 152 151 165 158 115 144 146 133 134 124 124 143 132 129 128 132 119 124 95 84 85 88 107 97 102
45 73 66 74 56 57 52 50 54 184 180 192 206 211 205 199 206 197 192 187 140 110 112 105 93 81 68 49 66 46 41 65 99 139 155 152 150 147 133 130 119 52 63 50 26 69 63 63 72 81 49 134 122 142 146 160 110 156 161 166 134 136 139 149 158 144 141 139 132 131 118 131 131 108 90 105 90 106 119 113
36 74 70 71 77 55 63 49 45 144 175 170 197 217 201 195 215 198 198 199 200 84 101 106 101 83 67 66 57 53 42 27 66 91 151 142 147 149 149 151 146 122 129 64 23 50 67 60 56 78 54 105 116 142 152 163 165 166 150 148 159 144 142 146 129 132 133 127 138 136 143 120 133 94 90 88 99 107 110 95
53 56 78 85 87 57 52 45 37 44 155 170 190 197 196 183 211 189 203 205 199 65 105 102 110 92 67 80 83 57 51 35 52 81 127 141 142 145 145 153 154 139 139 125 50 43 71 56 53 75 47 104 115 143 150 145 141 138 155 148 144 144 148 144 139 150 147 150 137 140 115 138 145 129 91 95 100 111 114 111
43 44 73 79 81 71 56 56 66 54 54 122 187 193 193 191 207 205 197 200 197 69 91 110 112 104 67 76 84 111 97 52 32 36 84 112 134 137 133 140 136 129 141 145 79 34 60 47 59 76 57 52 109 144 157 162 160 149 153 162 158 146 146 143 136 146 130 138 145 135 142 127 132 125 83 87 104 111 110 89
38 44 67 78 71 72 54 54 54 62 84 84 67 167 183 184 195 194 194 196 112 79 89 99 108 98 95 73 81 83 106 107 97 62 41 71 95 101 98 84 72 96 105 100 77 40 51 51 51 77 54 60 131 134 137 137 164 132 150 138 151 155 139 141 139 158 147 143 133 140 140 132 140 115 100 87 107 115 105 113
40 49 42 76 84 75 79 59 56 59 58 92 96 94 95 74 93 103 126 120 110 84 72 68 97 103 97 95 79 65 82 112 109 109 89 93 118 113 112 86 79 73 70 86 76 98 35 51 59 78 54 54 118 147 149 145 151 143 144 149 145 145 141 152 123 149 147 142 151 131 132 134 133 134 90 93 93 101 115 98
47 49 43 59 73 70 76 63 54 54 63 74 100 97 100 64 68 80 101 109 95 90 71 62 68 93 100 108 62 68 69 106 111 109 76 80 77 99 107 97 58 62 91 103 101 76 51 48 44 77 58 50 117 108 150 129 168 153 161 129 145 156 126 142 147 162 148 143 140 132 145 116 124 121 96 79 93 100 97 109
66 48 45 44 78 70 92 90 63 64 65 63 89 104 103 91 63 70 68 103 102 110 70 70 66 88 101 109 71 69 65 89 114 100 73 85 67 101 105 98 54 57 66 103 103 74 91 36 47 67 58 49 127 143 137 141 113 158 164 158 153 144 139 138 126 133 154 112 132 134 145 138 125 124 90 84 83 110 117 109
71 49 48 62 62 79 83 92 83 70 69 66 59 102 95 95 71 61 73 90 102 104 92 67 59 72 119 111 100 75 65 80 110 118 93 69 69 96 103 101 57 60 60 93 102 68 77 39 40 68 55 56 125 105 146 154 155 149 160 161 111 134 143 141 148 140 134 153 138 131 134 119 107 124 92 81 98 107 92 111
76 75 68 48 54 52 86 101 88 96 57 56 55 97 99 93 75 54 64 68 101 96 102 56 56 68 99 101 105 75 66 79 107 105 106 83 72 83 91 88 59 58 61 97 91 80 64 85 34 60 49 48 119 134 119 146 150 138 151 146 144 148 127 121 141 148 142 105 112 139 150 129 123 125 106 81 98 110 116 107
79 80 85 69 78 63 62 98 93 91 62 52 58 72 95 94 101 61 61 66 88 94 98 71 59 64 92 109 104 69 75 72 101 98 105 78 67 78 97 96 56 57 59 96 99 93 57 80 35 55 55 46 95 112 147 138 146 157 155 146 127 140 137 125 135 127 124 144 140 131 133 129 123 130 95 81 100 112 109 103
63 78 80 74 49 65 59 89 103 104 84 54 61 52 99 88 95 60 57 65 95 100 97 69 61 66 98 106 100 73 67 69 106 103 95 75 63 68 97 85 59 57 60 100 97 90 62 71 87 46 51 51 74 110 130 141 158 146 132 126 143 140 139 132 152 144 147 134 140 133 139 132 131 137 117 78 102 113 106 110
45 78 78 85 53 49 49 75 99 93 93 64 58 60 103 98 95 75 69 67 73 102 97 94 52 63 93 109 96 72 72 68 96 99 96 63 64 90 101 95 57 57 53 93 99 92 72 67 85 32 55 45 35 95 144 149 154 156 140 153 148 151 142 136 131 133 136 141 142 127 137 131 116 127 107 77 94 117 108 96
47 77 75 74 78 63 50 60 91 90 95 72 57 55 77 93 90 94 59 67 60 95 98 107 65 55 72 91 106 69 62 74 96 102 99 65 63 91 98 98 57 64 58 96 100 94 70 64 77 77 43 48 30 120 121 143 145 159 137 150 151 142 153 140 146 140 156 145 145 140 138 143 137 141 120 81 96 110 110 110
46 63 88 86 79 45 51 60 98 93 105 75 50 81 68 97 108 91 60 63 60 92 91 97 53 70 72 92 114 137 144 147 145 129 88 73 63 89 91 90 62 58 58 97 101 106 68 70 63 106 33 44 28 106 133 133 145 145 153 163 158 136 137 135 141 131 150 144 139 149 133 117 132 131 111 80 87 86 91 92
52 46 78 71 87 51 50 56 79 87 101 89 56 72 55 94 96 99 58 61 58 96 94 94 56 65 147 161 185 186 188 185 186 184 186 159 73 92 98 92 62 62 58 112 99 112 74 64 62 96 46 29 28 111 117 143 147 151 122 129 149 135 139 132 144 151 158 153 127 143 148 132 123 115 124 76 81 109 95 113
39 40 65 81 77 45 48 42 63 94 87 81 59 72 63 94 93 95 63 59 57 86 86 85 136 159 188 188 185 186 185 185 183 181 185 184 187 94 95 102 59 68 64 96 103 98 77 65 61 98 104 22 25 93 121 139 158 154 158 150 136 139 141 120 142 122 120 145 140 134 135 123 135 136 112 78 80 102 118 99
38 37 75 88 90 61 49 57 81 102 84 90 58 54 56 94 94 92 56 54 50 78 85 142 171 185 181 190 184 187 187 183 185 181 184 183 186 186 94 99 74 63 68 97 101 93 61 61 67 95 99 21 19 109 94 138 132 135 152 128 136 118 126 141 150 145 132 137 135 143 140 129 121 113 110 74 77 105 94 107
124 129 132 133 135 138 143 143 143 95 97 92 58 50 52 75 99 82 60 53 46 82 136 174 182 181 185 187 184 186 183 182 185 182 185 182 185 183 180 101 69 59 60 97 103 94 63 63 63 100 94 70 15 41 113 146 136 139 146 141 144 145 135 126 136 139 135 145 130 131 142 137 138 114 120 80 77 98 122 98
147 150 153 157 158 153 151 153 160 149 96 90 60 58 47 76 92 92 45 41 50 88 151 182 184 182 188 182 186 184 183 184 182 180 183 184 180 185 183 95 61 60 54 83 95 93 63 58 65 98 108 86 9 23 112 136 138 135 156 144 157 149 145 139 139 139 143 154 144 150 134 125 138 110 124 82 79 106 91 108
148 145 151 161 154 158 155 151 155 158 137 83 70 50 50 76 88 89 51 58 55 119 184 180 182 185 184 187 187 185 181 181 183 182 180 179 176 181 183 185 67 56 52 95 95 94 50 54 61 89 106 93 12 21 133 122 132 150 147 151 154 151 153 151 148 149 150 149 153 153 152 150 153 146 146 139 151 157 152 151
147 151 148 158 153 159 155 153 156 156 162 76 78 48 55 66 87 94 52 47 34 152 180 181 181 181 183 184 181 181 177 179 180 178 180 188 179 179 180 182 58 55 61 87 94 98 69 56 69 93 99 113 71 13 109 132 159 161 167 165 159 161 152 156 153 158 158 155 156 153 148 144 158 153 153 173 183 186 190 193
145 142 145 148 154 154 147 152 154 157 157 88 79 48 46 54 80 65 47 38 99 178 180 182 179 178 181 184 172 26 13 15 61 180 177 176 176 181 180 183 97 55 61 87 90 90 59 60 66 85 101 93 73 10 166 146 98 207 192 192 194 201 203 202 204 152 170 149 96 123 89 94 103 72 82 199 205 203 202 200
146 140 147 145 153 153 148 152 151 153 156 85 70 54 52 54 77 65 45 24 100 176 179 177 176 180 179 173 20 10 9 8 13 136 176 177 178 178 179 180 170 44 59 93 91 92 72 64 67 91 87 93 75 11 139 147 148 210 216 216 214 213 215 214 216 170 163 172 171 178 168 173 169 186 182 203 210 204 200 200
143 142 142 148 151 150 143 147 152 154 161 82 65 46 46 58 60 65 38 21 106 181 176 177 174 180 177 33 26 13 11 11 20 77 178 177 178 177 180 180 179 44 56 71 93 104 62 66 57 87 87 101 59 62 137 148 147 214 215 217 214 212 210 209 211 203 198 202 201 199 195 199 199 209 209 205 204 210 211 211
136 143 147 145 150 150 148 148 151 154 154 66 68 37 40 61 67 60 28 18 131 174 176 175 176 172 175 49 45 25 21 21 36 48 175 175 169 178 179 178 179 41 50 74 93 90 67 60 54 80 91 82 58 65 137 146 148 214 216 217 221 219 220 218 218 216 215 214 206 207 207 205 206 206 206 206 205 213 211 211
138 141 147 146 146 146 149 156 151 151 154 62 64 40 40 64 79 63 24 20 148 175 175 171 173 174 176 56 64 45 43 32 48 42 173 177 173 175 179 177 176 45 51 66 93 98 70 63 60 85 84 72 56 55 135 149 151 215 216 216 221 219 220 221 223 216 218 217 216 203 205 204 206 206 206 204 213 211 212 209
139 145 143 138 142 144 156 148 147 153 142 63 54 33 42 72 77 70 24 21 151 174 178 175 172 173 176 122 130 128 129 132 130 122 169 172 174 176 171 176 175 38 59 66 93 92 77 62 55 75 74 67 45 46 137 149 154 214 217 221 215 220 219 219 221 219 218 214 215 208 204 208 203 205 207 205 213 212 211 210
142 144 139 138 149 145 153 152 148 153 65 62 50 40 40 81 94 99 35 26 152 173 174 174 176 174 182 178 174 177 173 175 176 174 174 173 175 176 176 175 174 42 56 63 93 91 77 74 51 74 71 64 39 37 138 153 153 214 215 216 211 219 218 219 218 220 216 214 216 205 205 205 204 206 208 205 212 212 211 209
138 140 146 144 141 133 127 127 95 36 60 65 44 46 102 114 129 151 143 129 151 177 174 176 173 177 173 173 176 170 175 174 172 173 174 174 175 178 178 175 180 42 53 67 100 98 74 66 63 87 72 66 79 107 138 153 155 213 217 216 213 217 217 217 220 216 214 215 213 208 205 203 206 206 206 206 213 211 212 209
132 141 145 144 142 138 37 29 35 32 58 59 46 94 150 164 170 169 177 172 150 166 172 169 175 173 174 174 178 175 175 175 171 172 175 178 176 176 176 177 175 45 61 80 92 104 77 61 57 94 123 145 129 123 137 153 153 213 216 218 212 212 218 218 219 217 216 213 212 213 207 203 202 205 206 216 213 213 211 210
140 141 146 146 147 149 54 34 32 35 76 73 91 156 168 172 171 175 175 172 171 161 170 170 173 175 177 174 173 176 173 177 174 176 175 174 176 179 178 177 172 50 60 102 128 152 164 169 170 169 167 164 191 131 136 154 151 213 216 215 213 211 217 216 221 218 215 213 213 215 204 203 202 205 206 215 213 212 211 208
137 143 139 143 142 143 136 35 31 31 54 74 144 168 159 155 159 161 172 169 168 175 158 168 174 172 172 174 172 174 173 174 176 174 175 177 176 177 173 170 171 166 170 175 169 169 167 168 176 171 177 164 120 162 130 154 146 213 214 216 212 210 218 217 216 217 214 212 212 214 205 204 202 206 206 215 210 211 210 211
142 139 142 146 143 145 153 40 28 28 59 106 163 150 146 148 149 157 155 157 158 172 182 158 170 170 172 176 176 170 174 175 182 174 169 172 174 173 165 170 168 169 168 173 170 175 174 167 170 170 170 174 105 103 125 150 149 215 215 215 212 210 212 214 216 215 214 212 212 214 205 203 202 205 206 213 212 210 211 210
138 138 141 137 140 145 151 104 24 23 69 160 156 150 144 146 148 149 153 156 153 154 163 157 164 169 173 171 173 170 161 173 171 161 159 163 170 171 170 172 163 168 175 171 171 172 166 169 170 175 171 169 123 120 135 148 153 216 213 213 211 213 208 214 219 217 213 214 211 215 213 207 203 204 216 215 213 210 212 210
137 134 143 142 138 146 149 151 26 22 94 155 147 151 147 147 159 147 155 157 154 156 159 182 161 167 172 169 167 158 157 167 167 170 168 172 169 168 170 166 172 162 159 169 171 165 171 167 167 174 176 172 114 145 143 147 152 213 215 215 212 211 212 216 217 216 215 213 215 215 213 208 206 207 216 214 213 211 209 208
140 136 140 139 140 143 141 152 61 22 142 144 147 150 154 141 143 154 151 152 151 145 159 168 150 164 163 155 166 169 165 168 159 167 168 166 165 157 159 166 165 163 154 160 159 160 185 162 160 162 172 171 139 156 143 146 151 210 212 212 214 214 212 215 218 216 215 213 214 213 213 206 204 205 214 212 211 209 211 208
135 142 144 141 141 147 148 146 133 67 165 142 145 147 150 142 147 153 144 144 154 153 155 171 152 164 172 169 164 165 169 167 164 167 166 171 167 162 162 152 162 163 155 158 175 188 194 205 161 157 153 158 140 149 135 146 149 208 210 210 212 211 209 207 217 215 214 214 212 212 212 208 206 205 212 212 211 207 208 208
95 136 135 146 148 138 150 151 115 88 148 150 147 140 149 145 143 158 149 154 153 153 144 162 160 156 204 177 167 168 169 165 164 167 166 163 157 169 151 158 153 146 149 151 168 197 208 207 207 153 154 146 127 148 133 142 146 208 211 212 214 211 208 211 217 216 214 211 211 213 213 212 204 212 212 211 209 209 208 207
12 139 142 141 141 140 149 148 106 95 156 154 148 141 139 149 113 95 146 145 152 151 158 157 168 158 176 168 193 168 158 170 166 160 158 165 164 151 152 148 150 144 148 196 186 198 207 224 221 206 149 143 133 148 127 142 144 209 210 210 211 210 209 206 212 214 213 214 212 213 210 213 203 213 213 213 209 209 209 208
44 127 138 143 146 150 148 147 93 101 149 140 147 148 139 146 151 189 173 150 147 154 156 154 167 145 168 172 163 196 168 171 173 163 154 150 152 160 149 148 134 125 142 202 223 220 226 226 225 218 179 139 107 146 126 142 143 208 212 212 213 208 210 206 206 215 214 213 212 213 212 214 203 213 213 213 211 208 210 207
139 141 140 138 147 147 155 150 97 97 143 145 146 136 136 145 159 169 167 146 146 147 151 156 160 142 165 167 166 162 166 160 160 164 164 150 148 150 155 160 138 130 158 212 226 228 227 221 229 230 230 120 110 144 130 137 140 208 210 209 215 211 207 206 207 212 213 211 212 212 212 213 208 212 213 212 209 209 208 207
137 140 145 139 150 143 151 141 95 97 148 135 137 144 137 139 126 92 135 140 145 148 148 157 133 146 166 165 164 161 166 163 161 152 155 162 169 164 161 144 124 176 173 203 222 227 227 232 230 230 219 175 98 138 126 136 144 207 209 210 210 209 208 204 206 211 212 211 212 211 210 212 213 212 212 212 210 210 207 207
136 140 140 141 149 144 148 142 103 89 147 142 141 142 142 146 145 150 142 141 153 152 157 156 138 148 166 160 172 165 156 159 166 168 164 168 160 162 152 137 134 157 196 185 177 221 226 205 228 205 212 216 94 129 124 132 141 208 211 207 207 209 206 205 203 204 205 210 210 212 211 212 212 211 212 211 210 209 207 206
129 137 138 137 142 139 150 139 95 87 149 136 142 131 137 139 144 146 151 148 146 148 149 156 148 146 162 158 164 167 173 167 166 162 164 162 157 153 133 117 180 164 181 187 184 221 222 199 230 194 204 198 186 80 121 131 146 206 208 209 207 207 206 205 203 205 214 211 208 210 210 212 214 211 212 212 210 208 199 206
128 136 134 138 139 141 140 139 98 91 137 137 140 138 141 141 146 148 153 143 146 150 153 154 141 151 170 161 163 169 169 170 163 164 159 160 157 138 122 114 172 158 191 194 184 223 196 191 228 213 219 209 210 64 120 133 141 206 209 208 208 208 204 204 204 204 210 213 210 211 207 210 213 210 211 212 210 207 199 208
130 132 140 134 147 143 150 137 111 86 102 134 134 141 149 145 151 147 147 142 143 148 156 130 142 149 173 167 165 170 173 165 161 162 162 172 147 135 116 164 156 155 190 211 222 201 199 231 213 226 206 228 199 177 113 130 146 206 207 208 207 206 205 204 202 204 203 210 209 209 210 211 212 212 212 211 210 207 197 198
126 130 133 133 145 143 140 147 115 82 84 145 140 142 141 148 146 142 141 144 149 149 155 24 141 156 165 167 166 160 164 170 165 165 156 151 147 125 117 184 145 157 197 214 221 185 219 235 224 222 208 218 220 186 98 128 146 204 207 205 206 206 205 204 202 202 203 210 209 209 209 209 212 209 210 211 209 201 197 194
