P2
80 80
255
164 148 181 188 186 184 187 184 60 58 41 31 19 37 114 169 163 162 161 164 178 54 41 49 60 36 21 77 205 202 203 205 199 200 117 43 58 54 72 66 200 205 209 207 204 203 162 42 34 111 135 148 149 157 149 158 142 127 134 137 142 145 160 153 122 140 130 140 132 135 119 111 98 102 106 115 86 86 109 106
172 169 188 187 189 188 187 188 172 61 46 33 25 51 174 154 168 162 170 168 162 163 48 48 68 42 28 165 199 203 205 205 201 201 122 46 51 53 75 82 113 203 205 206 209 201 200 37 36 111 129 137 143 125 125 141 153 142 119 149 136 106 138 148 140 134 144 130 125 128 132 116 111 103 85 115 73 98 106 103
171 172 131 185 186 188 191 187 186 82 46 34 28 173 170 163 159 155 160 172 168 167 90 46 71 62 64 175 170 202 203 204 203 200 201 51 49 48 74 72 172 170 204 210 205 208 204 42 33 115 128 142 154 154 151 146 146 155 140 156 144 148 148 149 116 144 148 138 133 115 117 111 108 108 109 113 89 102 104 104
172 175 181 164 183 194 191 188 190 188 46 30 147 170 169 159 122 154 162 168 169 169 174 46 64 49 174 176 166 161 203 205 205 204 202 193 55 56 62 173 180 184 206 204 209 207 203 41 36 94 121 128 126 150 124 146 145 141 136 157 130 141 122 135 136 135 141 119 144 141 128 108 126 110 83 111 83 94 93 107
170 175 182 174 183 187 191 189 189 190 156 46 171 168 166 161 167 157 153 156 159 170 164 159 41 161 175 178 160 165 200 207 205 205 201 200 80 55 115 178 175 174 155 205 205 206 208 40 42 81 116 123 147 153 141 128 149 161 151 157 139 144 131 136 134 134 139 131 126 123 118 117 124 117 97 107 88 96 96 92
174 177 182 177 40 187 191 192 193 193 191 171 172 163 164 168 176 170 141 142 153 162 163 184 77 170 177 168 166 169 151 204 204 206 205 198 199 50 177 184 168 163 169 194 204 209 204 44 34 62 124 122 120 165 132 141 134 148 158 150 115 156 149 153 129 146 131 139 142 143 146 111 113 109 101 111 87 95 87 108
174 181 178 35 21 164 190 198 193 191 190 198 168 165 167 173 179 18 81 134 154 156 164 174 170 174 172 170 170 174 128 175 203 207 206 202 199 189 178 182 172 169 171 141 206 205 210 48 51 66 98 113 136 135 144 142 151 145 151 149 136 131 143 148 146 144 128 135 124 136 129 108 127 110 95 112 69 106 108 96
178 178 115 50 29 17 185 193 195 193 196 195 177 169 170 177 99 14 28 143 149 157 164 169 177 175 174 172 171 177 15 18 206 208 207 204 196 199 177 173 171 175 176 37 120 206 205 41 36 56 124 129 136 159 133 154 121 137 156 147 142 157 142 151 146 137 128 139 136 137 141 124 117 112 109 115 89 105 94 116
178 175 38 66 38 17 39 190 195 197 194 194 194 166 175 178 57 29 25 33 151 157 167 170 174 177 168 172 178 33 12 18 71 207 206 205 201 197 200 168 174 174 61 65 67 203 202 43 48 51 111 127 144 113 146 151 154 159 157 152 150 129 142 151 150 134 122 136 127 126 143 100 125 111 85 110 80 106 117 90
162 40 40 69 56 20 16 170 193 195 194 196 194 194 181 56 65 49 28 25 109 152 165 173 173 176 189 173 126 32 20 30 29 201 206 207 202 198 200 175 177 143 58 68 98 73 205 51 41 70 114 129 146 154 142 168 161 114 114 156 149 154 146 153 153 144 141 143 135 135 147 130 120 116 106 112 90 101 106 114
141 35 42 60 59 39 15 50 193 195 196 197 192 192 150 61 77 49 38 30 49 166 162 170 174 175 182 171 39 39 41 41 26 35 212 205 204 201 199 200 174 48 67 63 103 82 169 43 36 48 117 132 152 155 145 159 153 164 157 157 155 153 125 143 140 138 142 142 139 116 133 127 133 116 86 107 89 90 103 97
149 137 42 61 58 52 19 166 123 193 196 196 194 196 199 65 74 59 50 35 89 141 169 160 170 172 173 182 45 44 65 55 30 37 155 206 206 201 199 197 192 62 73 64 95 99 78 45 40 61 120 133 146 146 158 163 160 138 123 158 145 141 148 156 146 129 144 145 142 140 138 118 118 110 97 111 100 99 106 117
157 152 56 61 65 46 157 166 167 185 194 191 195 195 193 196 82 67 48 58 175 177 161 166 167 170 172 177 174 50 67 67 29 170 177 207 203 203 198 198 201 71 65 68 100 99 84 69 42 57 114 136 153 154 138 148 140 160 157 134 146 151 135 127 141 129 154 132 133 135 133 138 128 105 102 107 93 95 102 100
148 153 150 56 61 65 169 167 165 151 192 194 198 196 198 198 110 51 41 167 173 181 170 176 167 169 168 173 184 71 81 66 104 173 179 147 204 203 202 201 200 198 56 74 93 91 87 53 46 44 124 138 151 157 158 153 160 159 147 148 138 153 149 141 137 131 139 110 149 127 119 134 114 112 101 102 85 97 96 107
142 155 156 140 34 160 160 164 162 165 127 193 195 196 202 199 203 53 84 170 180 172 173 130 182 168 173 173 176 186 76 55 171 175 179 167 175 200 200 198 202 198 151 74 95 88 85 59 57 50 147 124 149 121 168 132 124 142 156 151 142 146 152 149 143 116 141 137 146 136 137 129 125 97 105 105 92 105 113 107
136 151 159 152 151 162 163 164 164 168 177 182 194 200 201 199 195 187 175 177 175 170 175 175 172 172 166 171 174 176 150 159 171 175 171 169 167 204 198 201 202 201 202 67 94 95 99 55 58 42 132 145 143 140 124 144 152 154 136 156 151 150 136 137 140 138 138 142 138 129 101 129 114 107 92 104 90 104 107 89
123 141 148 157 159 163 163 165 162 174 69 18 195 198 199 199 198 202 176 181 171 173 174 172 22 179 173 172 171 174 178 170 176 174 166 171 171 59 201 200 201 201 201 196 102 103 93 76 53 45 146 125 148 145 157 133 160 135 158 149 145 130 159 148 155 113 137 145 135 134 121 119 110 95 99 103 97 108 122 113
124 130 145 150 157 157 156 157 166 169 17 23 87 198 198 198 200 198 200 175 173 175 173 34 21 94 186 173 172 172 173 179 177 169 173 171 30 14 186 203 201 199 201 201 115 115 112 59 62 53 137 131 131 152 139 156 155 158 137 146 139 138 129 145 150 139 139 134 127 143 138 131 107 106 81 105 104 108 114 75
124 127 138 157 153 156 153 160 168 57 37 29 24 190 195 200 202 202 199 193 176 174 130 54 38 41 177 178 172 168 172 174 170 171 170 150 16 16 29 203 200 199 199 201 201 94 86 59 61 46 126 136 147 148 153 141 157 155 154 144 150 150 151 137 156 147 146 139 134 122 126 121 112 104 92 100 100 113 113 106
116 119 133 148 149 160 158 162 67 71 58 41 28 31 196 201 200 201 197 203 173 173 70 82 60 32 39 184 176 172 166 165 176 172 158 115 121 119 123 115 202 200 196 203 200 183 84 60 50 52 121 129 133 141 161 152 155 158 148 159 150 151 148 138 154 141 108 143 136 148 134 144 106 99 93 103 92 103 112 74
17 126 130 130 146 151 157 156 39 67 77 59 28 24 114 199 201 198 201 197 200 68 68 94 58 43 34 133 184 170 176 166 159 113 120 125 128 129 132 124 198 201 198 201 202 200 91 54 52 46 67 123 159 145 154 158 151 165 134 116 157 140 140 149 155 148 141 133 140 128 130 136 117 106 92 96 107 99 108 116
150 91 128 128 137 147 154 157 57 75 83 76 34 29 162 196 198 201 198 196 198 167 85 94 58 57 43 159 180 175 174 159 113 122 135 139 138 143 138 135 119 199 200 197 203 202 199 63 58 52 86 121 142 152 154 155 135 133 144 157 140 139 154 125 127 150 142 128 138 136 133 141 125 84 96 100 96 93 102 76
149 148 129 126 136 144 156 157 158 72 79 76 38 160 167 142 197 201 197 198 198 199 96 86 59 62 101 168 140 178 163 110 128 134 143 151 153 153 145 142 133 142 200 199 199 204 196 59 58 57 63 123 140 147 154 154 141 149 139 147 153 140 151 146 149 138 129 129 130 135 114 139 125 99 87 97 93 106 99 105
144 150 145 143 133 132 149 152 152 144 78 73 101 159 167 169 146 198 198 198 196 197 197 97 64 51 167 170 175 155 122 118 133 149 153 215 203 161 157 151 139 103 195 201 197 200 193 60 56 56 49 126 126 146 136 161 129 143 145 152 146 148 140 147 151 143 119 140 150 137 144 123 126 97 98 103 99 108 104 97
148 153 148 87 136 131 135 148 149 155 92 54 153 162 167 160 169 195 200 200 199 196 199 154 52 162 168 172 164 128 100 124 146 155 157 191 214 163 162 151 144 122 53 202 201 196 198 57 58 62 44 129 144 149 143 148 149 166 150 123 154 153 127 146 101 129 134 150 143 119 138 135 131 99 83 101 93 115 106 87
83 81 75 73 59 91 98 113 128 140 143 129 130 131 128 132 127 97 167 175 175 180 185 191 104 158 165 167 153 103 102 117 153 166 165 159 163 163 161 152 145 128 18 185 200 195 190 59 69 60 47 127 107 149 144 154 120 162 154 158 149 141 139 151 143 141 124 130 133 123 134 121 115 100 96 99 96 94 113 112
61 47 27 23 30 28 36 50 34 31 49 90 77 65 24 20 26 27 26 15 20 20 39 54 26 25 24 36 18 14 111 135 157 165 147 162 164 163 157 152 147 127 17 16 31 54 73 57 57 67 47 133 141 130 157 150 162 165 161 133 147 145 137 125 129 135 135 139 135 132 145 139 133 95 82 104 93 99 112 95
64 66 42 37 39 65 72 74 70 53 62 55 90 86 90 62 72 82 81 46 47 58 77 77 74 63 51 66 54 35 110 133 154 145 162 141 164 158 155 154 146 125 24 21 50 84 101 59 62 71 42 134 107 141 146 151 142 163 159 144 103 144 146 145 133 147 132 147 140 138 126 128 129 99 92 105 97 98 110 119
66 69 36 39 40 68 74 90 80 55 57 63 86 90 99 78 79 97 91 56 57 57 86 92 81 76 55 63 49 34 102 134 160 168 150 140 159 154 152 148 137 115 36 28 33 74 87 61 62 79 47 107 131 123 142 155 153 160 160 148 155 132 142 143 143 149 118 118 134 152 141 125 135 108 85 103 96 92 106 112
69 69 52 41 51 46 66 73 85 71 96 157 168 157 136 103 74 71 87 55 53 62 85 87 91 69 52 48 49 37 85 131 158 164 157 158 156 155 148 141 131 99 47 36 29 73 86 59 72 74 49 102 118 141 140 145 160 163 164 134 117 141 144 138 141 149 139 134 119 132 138 128 146 109 89 100 101 102 109 107
60 69 73 46 54 48 55 80 91 108 146 187 194 186 172 191 170 112 76 93 61 64 88 90 88 62 54 51 47 36 82 130 148 165 161 158 156 150 146 140 123 53 52 37 29 71 86 58 60 77 52 72 120 136 134 157 147 139 138 147 143 132 137 140 126 150 143 138 133 140 136 131 144 118 83 102 92 100 94 110
69 64 71 46 55 46 56 83 68 176 163 202 207 202 185 204 192 185 165 82 99 69 89 85 86 55 51 39 42 39 74 98 130 161 158 156 151 144 140 128 105 38 57 40 32 69 90 57 58 73 48 53 122 131 146 155 155 146 148 145 154 149 151 130 142 151 147 140 131 135 132 102 126 121 83 89 82 113 114 102
72 74 69 71 57 54 59 60 132 196 150 206 214 207 196 208 200 192 195 185 91 99 101 82 94 65 49 51 45 30 32 76 113 161 151 156 151 144 131 123 49 41 65 39 38 63 79 60 54 78 60 45 123 125 132 154 154 139 134 145 152 142 149 134 136 158 151 131 141 142 134 141 127 122 93 92 95 104 95 109
54 78 77 80 53 54 61 29 45 162 153 194 201 212 194 207 211 203 203 199 116 105 98 103 94 69 58 55 62 36 26 71 93 154 150 147 150 146 135 130 108 42 70 56 34 50 74 52 62 72 61 47 141 124 141 152 157 143 161 151 142 156 153 148 126 150 147 139 145 137 118 128 119 125 89 92 88 108 112 88
41 71 83 77 76 58 56 52 36 83 129 183 193 202 182 195 211 189 204 203 175 93 102 102 106 90 71 57 68 51 48 35 84 131 147 145 146 146 151 151 135 126 116 63 39 48 65 62 60 75 63 66 119 117 145 139 158 120 145 118 157 148 139 144 141 157 146 124 141 150 137 132 114 116 91 86 95 104 104 113
43 51 78 80 76 60 54 54 65 75 51 152 192 193 185 198 203 200 202 197 137 62 100 106 99 74 68 83 96 65 52 29 68 81 120 134 143 143 144 151 137 134 132 69 45 53 65 52 64 69 66 54 141 126 135 152 143 159 160 159 138 145 149 132 123 120 147 141 137 131 124 142 132 120 86 86 93 103 117 85
36 39 72 87 70 77 48 57 64 58 97 82 83 147 167 184 196 195 195 171 70 77 86 105 101 101 76 78 77 106 92 58 31 47 88 120 130 135 131 137 126 135 153 79 65 42 60 48 62 68 61 46 136 101 142 142 161 119 161 148 155 137 139 151 145 152 133 132 137 138 125 124 121 128 98 86 94 95 112 113
39 38 46 72 82 81 58 60 60 66 71 94 98 102 68 69 83 115 125 113 80 73 70 73 95 102 105 70 67 78 103 111 88 79 67 75 89 88 80 55 70 100 98 59 83 42 50 48 46 71 69 44 101 120 138 162 157 155 158 166 155 156 142 146 126 103 139 137 119 139 136 147 129 134 96 82 96 90 107 104
51 45 44 78 76 82 83 54 52 68 56 92 91 99 98 55 71 73 101 107 101 61 67 68 102 100 103 93 69 68 97 105 115 86 88 84 110 113 99 76 72 80 77 83 75 72 47 53 49 61 70 47 94 103 144 142 145 148 144 159 135 131 142 146 139 131 143 144 149 139 130 128 124 131 108 79 87 101 110 105
50 44 43 44 76 83 86 88 65 65 62 63 92 98 92 58 73 63 96 107 107 74 64 67 79 98 98 98 70 61 71 106 116 106 77 73 97 98 101 61 56 72 111 106 71 90 53 53 53 59 61 47 70 116 142 155 158 151 135 139 146 153 127 137 137 130 153 135 132 142 149 134 121 136 112 83 88 108 98 109
75 54 57 61 62 87 89 81 81 70 66 57 99 106 98 76 61 61 66 99 101 96 59 49 61 102 101 98 65 84 65 104 102 107 61 75 66 104 103 69 57 55 100 96 86 76 85 61 45 49 58 51 57 107 136 137 139 157 134 148 128 150 140 132 135 142 150 150 139 128 129 145 117 138 107 78 87 111 106 86
75 88 58 63 57 56 87 96 95 59 55 65 74 96 93 97 62 61 74 97 98 103 62 53 63 98 102 110 81 72 66 112 112 100 68 63 70 97 91 84 60 59 103 106 100 79 87 54 48 43 64 56 51 119 134 131 148 139 141 140 151 144 139 135 136 127 150 149 135 142 126 135 131 142 121 80 86 105 106 108
84 81 84 51 56 54 93 96 87 89 59 69 65 90 96 94 64 63 74 89 96 96 68 56 67 92 94 116 71 69 67 96 120 107 69 71 76 94 101 94 54 57 84 102 97 59 69 65 40 49 66 51 35 105 121 137 144 156 146 159 155 126 140 146 139 141 156 149 147 140 128 131 110 106 127 82 83 102 117 78
85 88 80 46 55 59 64 100 92 96 54 58 55 101 94 97 83 61 65 65 91 102 93 62 62 85 92 95 80 65 75 91 104 108 68 68 57 90 99 90 57 54 84 105 89 58 71 95 43 44 65 58 25 114 122 121 152 150 122 160 160 149 143 135 126 134 152 157 108 144 138 139 142 119 118 81 88 98 113 117
81 75 78 65 52 54 54 90 86 96 72 56 61 84 90 89 101 59 67 60 95 93 103 59 59 59 100 109 113 77 69 96 101 104 70 70 60 80 98 97 48 66 74 88 92 66 59 70 34 51 59 49 28 113 124 127 144 151 156 157 157 123 145 145 143 132 142 147 144 135 127 119 131 114 117 80 81 94 110 87
61 71 79 72 42 48 52 95 91 97 71 57 53 62 87 89 88 68 67 63 95 97 95 56 58 62 88 103 110 79 65 76 102 109 74 67 56 95 89 106 54 57 76 99 99 68 76 62 97 40 69 55 27 89 116 128 147 143 140 106 134 147 136 138 121 143 150 139 112 135 138 132 123 113 119 89 86 85 113 118
39 75 85 79 57 47 52 73 97 89 89 57 54 80 89 87 90 55 57 57 89 101 95 51 75 69 93 104 104 109 142 151 153 146 106 73 66 102 99 98 58 69 70 95 99 73 72 58 106 33 64 60 27 47 106 140 146 158 151 137 143 141 154 144 142 127 119 126 137 130 131 117 130 130 127 82 74 67 99 104
41 74 77 79 46 40 50 56 91 93 93 64 57 61 90 87 103 57 56 63 90 94 97 60 58 68 131 153 175 185 187 186 189 185 186 184 110 92 93 97 58 65 64 101 109 73 63 58 88 97 48 45 29 39 103 130 143 126 152 133 146 128 130 141 143 148 133 145 145 145 134 132 126 127 134 88 72 98 109 114
37 74 71 76 66 60 47 57 86 85 86 53 56 73 88 97 92 64 59 50 89 90 84 52 60 148 178 181 187 186 185 186 183 182 181 184 184 174 91 97 62 62 70 97 106 89 82 62 92 96 37 44 26 30 104 136 144 132 136 147 155 148 137 128 138 137 142 146 141 142 142 139 111 116 122 89 75 86 102 101
41 66 79 85 64 48 48 62 98 82 86 51 62 64 72 94 86 62 53 49 78 82 82 64 145 182 185 182 186 186 181 182 181 176 182 185 181 184 174 88 60 61 66 92 100 78 71 60 92 96 79 37 23 24 105 101 149 136 150 121 153 147 140 143 132 144 140 156 151 137 139 145 139 114 130 91 72 98 109 105
124 130 132 134 138 139 140 138 131 98 95 64 52 63 57 85 84 58 60 51 81 85 79 139 182 183 182 186 183 183 185 181 186 184 181 184 182 181 182 110 61 63 62 89 94 82 58 59 85 96 93 27 24 24 137 125 135 154 152 153 156 150 143 142 136 144 112 134 145 147 147 130 123 127 125 115 77 95 97 104
147 150 151 157 157 153 142 153 160 140 89 68 48 46 57 81 83 52 44 46 87 86 129 183 182 179 182 184 183 186 184 180 183 179 184 181 181 179 182 184 59 62 61 92 80 89 51 62 79 98 83 29 18 27 127 111 132 137 144 153 153 153 114 144 137 144 148 137 136 135 150 138 126 110 117 106 76 97 114 100
145 148 146 149 155 156 147 151 156 159 86 82 44 53 50 85 80 46 49 46 81 62 141 182 180 185 184 182 183 183 183 184 182 180 181 181 180 181 178 181 91 51 56 93 84 85 66 57 74 93 98 68 13 20 87 123 125 129 150 146 148 150 154 148 151 147 151 154 148 152 154 150 149 139 134 149 151 154 153 148
150 149 153 143 154 155 154 149 152 153 123 78 44 58 54 88 93 53 52 51 73 111 180 183 180 178 180 182 184 180 184 179 183 177 177 178 180 179 175 180 180 46 48 86 91 96 58 64 71 98 100 60 10 19 87 164 159 160 163 162 168 155 158 154 156 153 157 158 151 151 149 150 154 154 158 176 184 186 192 193
144 143 150 150 147 152 154 151 156 152 158 82 47 42 47 71 67 45 47 54 46 109 175 180 180 179 179 181 180 86 15 14 19 143 178 180 179 179 180 178 179 46 57 95 80 97 59 69 56 94 103 71 37 110 145 130 125 200 195 189 197 200 202 201 191 165 151 126 102 99 109 107 80 89 90 205 204 203 202 198
145 143 148 150 157 143 141 151 155 148 159 72 46 44 44 77 73 44 46 39 39 138 180 183 175 177 178 178 52 11 11 10 12 16 175 178 178 177 178 177 176 51 57 96 94 98 69 72 58 89 86 69 75 19 147 148 157 215 214 214 212 214 213 211 205 167 161 171 176 176 171 167 173 189 178 206 204 201 200 197
143 144 141 148 148 155 153 153 149 154 163 75 42 43 41 68 79 38 39 28 41 171 177 175 175 179 175 176 25 18 14 15 21 21 119 177 177 174 175 177 177 67 51 81 89 100 65 58 59 83 87 79 65 14 142 147 157 217 215 213 212 212 211 209 216 195 198 201 201 199 194 197 203 206 205 204 212 212 210 208
142 144 144 144 147 156 146 150 152 150 159 66 40 38 41 67 71 46 35 27 45 172 178 177 172 172 172 96 41 27 21 32 36 37 111 175 174 177 174 178 176 84 47 80 93 100 84 71 58 86 83 81 55 24 147 150 158 216 216 217 220 221 220 217 220 215 213 213 208 204 205 206 206 206 202 203 214 212 209 207
144 143 145 139 145 153 144 149 154 152 152 65 35 40 44 74 66 38 29 22 57 170 174 172 172 178 174 64 64 41 46 42 45 44 113 176 176 174 176 176 174 93 45 86 96 97 60 62 54 99 81 65 55 59 152 154 164 219 216 216 225 220 219 217 220 217 220 216 206 204 203 203 208 206 205 203 212 212 209 205
143 143 145 140 142 150 144 147 148 159 65 54 34 30 48 73 83 45 30 25 57 173 174 173 178 174 174 121 140 139 141 144 146 143 135 176 172 174 174 178 174 94 46 91 93 99 60 56 59 82 71 56 42 50 149 148 162 217 216 224 220 220 220 218 217 216 218 216 206 205 203 204 203 205 206 202 212 213 209 206
134 144 140 143 148 147 147 144 152 134 59 68 35 37 67 80 93 104 91 29 61 170 174 172 173 173 171 187 174 175 175 177 176 179 175 174 173 173 176 173 172 103 45 89 93 89 65 59 58 79 63 58 41 44 149 148 162 217 215 214 218 218 217 218 216 218 215 215 212 205 204 202 202 205 206 212 214 213 212 207
138 139 145 144 149 116 126 112 52 50 64 63 39 35 70 100 131 147 147 141 132 173 177 172 172 174 176 173 177 173 174 172 178 173 173 173 174 175 177 174 178 103 45 95 100 90 72 58 56 72 63 53 104 108 150 146 163 218 216 213 211 219 219 218 218 216 216 213 212 203 203 202 203 206 204 214 213 211 209 206
142 139 147 150 143 29 40 33 32 51 58 67 43 76 110 163 169 170 169 175 174 133 171 170 171 174 176 175 175 177 172 175 176 175 171 174 174 177 175 175 175 105 49 94 96 97 64 63 59 68 64 59 131 135 148 150 159 215 214 214 211 217 218 217 217 217 217 213 213 203 203 206 203 209 205 215 214 212 209 205
139 144 141 146 141 147 58 32 29 58 64 61 58 121 174 175 163 167 177 176 179 180 143 172 170 172 177 173 173 178 173 176 174 175 175 175 174 175 176 177 172 65 53 102 95 95 86 119 150 168 165 157 138 158 145 153 161 216 214 215 212 216 215 217 216 214 215 213 212 203 202 207 205 206 206 213 213 211 209 206
145 140 139 144 143 147 53 31 33 53 59 68 88 168 168 157 158 153 160 173 163 175 173 137 171 172 171 174 173 174 173 176 173 173 177 175 175 177 177 171 168 137 162 170 170 164 162 158 173 172 169 167 138 132 150 152 157 213 213 212 212 210 217 218 214 216 214 213 212 208 202 203 206 204 212 212 213 211 209 205
137 141 138 139 144 146 139 37 36 46 50 64 145 160 155 150 155 152 155 158 163 158 175 176 165 170 172 174 174 172 174 176 172 171 169 167 177 174 170 160 165 160 158 157 155 164 162 168 172 169 172 173 149 111 149 152 157 213 213 214 211 209 219 215 214 214 214 213 211 210 202 202 203 205 213 212 213 211 210 207
141 136 141 140 146 145 151 30 24 25 49 84 167 148 154 153 148 148 156 155 158 155 159 171 134 166 168 169 174 174 168 162 163 168 159 167 159 163 170 165 161 156 153 169 161 161 159 164 166 172 171 165 149 81 146 143 161 214 212 212 210 211 216 217 214 212 213 214 213 210 207 204 202 206 213 212 212 213 210 206
136 139 138 144 142 146 148 112 29 23 46 138 145 148 153 153 153 148 155 156 154 157 154 157 180 165 167 159 162 158 165 169 171 164 164 164 171 165 164 170 160 158 158 172 150 163 175 163 165 171 170 166 142 81 145 149 162 213 214 212 210 212 209 216 214 214 213 214 214 210 207 206 205 207 213 212 211 211 207 206
139 141 144 145 142 143 149 149 22 20 79 154 156 151 153 155 146 149 153 149 151 152 153 157 180 147 174 175 166 174 169 165 173 169 169 167 158 159 165 159 153 159 157 161 160 181 149 164 168 160 167 164 141 123 146 145 163 212 210 211 213 212 210 216 215 214 214 216 212 209 211 205 205 213 211 211 211 211 208 204
138 140 144 140 142 149 147 149 67 16 93 160 151 150 145 151 151 149 154 147 149 153 145 156 169 145 205 170 169 169 162 172 168 171 167 161 162 155 155 157 160 159 150 176 186 195 206 150 151 162 170 153 125 82 141 143 160 211 210 210 210 211 209 216 214 212 214 212 212 209 211 205 204 213 210 210 212 210 206 204
137 137 138 141 143 143 144 147 153 15 114 157 151 154 149 142 147 145 162 152 147 153 152 155 178 147 168 169 173 169 169 164 169 166 159 162 160 160 157 145 149 153 152 168 197 206 205 207 153 150 155 154 129 58 139 142 160 210 211 209 210 208 208 207 214 213 213 213 211 214 210 203 203 212 209 210 209 209 206 204
88 138 143 144 145 145 153 151 144 17 119 148 151 151 152 145 147 153 86 156 145 151 156 157 167 142 157 171 171 173 177 171 162 157 164 169 157 157 158 149 140 135 189 185 195 208 223 221 205 149 156 145 121 54 139 144 156 210 209 209 210 208 207 207 214 212 214 213 211 210 209 208 205 214 209 210 209 210 206 205
36 127 140 142 147 149 150 147 140 88 117 156 142 152 148 141 143 178 186 147 141 150 157 152 159 126 151 167 163 162 204 166 173 158 155 154 160 157 149 133 128 133 206 226 219 225 224 226 217 172 149 139 117 95 136 144 155 209 212 208 207 209 208 206 214 215 213 213 212 209 208 215 214 213 209 211 210 210 207 203
141 142 140 143 144 153 149 154 139 92 123 149 138 145 145 150 127 132 172 139 149 149 150 150 157 131 150 170 161 170 167 166 169 160 154 152 152 141 146 141 127 158 214 227 228 227 218 228 228 229 145 132 89 67 135 144 158 210 209 208 207 211 210 207 205 211 213 212 210 208 207 216 215 212 209 211 211 208 206 205
136 142 143 137 145 148 145 153 137 98 114 142 146 147 145 143 141 142 106 145 141 145 150 149 158 140 152 163 164 161 169 165 153 154 153 164 165 159 145 128 178 174 205 222 226 227 232 230 229 217 177 129 73 117 132 142 153 208 208 206 206 206 208 205 205 211 212 212 211 208 208 214 214 211 211 211 211 210 206 202
137 137 143 134 143 149 144 148 132 96 103 139 137 146 142 140 138 143 146 145 144 149 152 153 155 139 158 169 161 163 173 167 169 177 163 158 160 151 139 132 158 193 183 176 220 225 206 228 205 206 215 125 75 128 127 142 151 209 211 208 206 208 205 205 203 211 205 212 210 206 206 213 214 211 210 209 210 210 206 203
132 132 136 138 140 141 143 148 137 93 95 146 133 140 143 138 146 154 148 144 150 152 153 154 145 140 155 166 166 169 167 163 164 165 165 163 148 137 119 179 163 182 186 182 219 220 198 229 194 202 195 183 70 85 127 139 149 209 209 206 205 206 207 205 203 204 212 210 211 207 206 211 212 211 210 210 210 211 199 203
134 137 138 143 144 137 148 141 139 92 89 149 143 139 144 147 150 152 155 146 144 151 148 154 127 137 158 173 170 172 170 169 167 155 151 166 144 125 107 168 157 190 191 180 223 201 191 230 210 217 205 209 76 62 122 138 151 207 208 207 206 205 207 206 203 203 209 211 211 206 206 212 214 211 211 209 210 205 196 201
131 135 141 144 143 139 145 144 141 98 85 108 142 147 144 148 148 156 149 145 150 151 153 162 105 145 171 162 172 170 168 167 160 155 157 147 136 120 161 155 153 192 213 220 200 202 231 214 227 204 229 199 177 55 123 141 149 206 206 206 205 206 207 204 202 200 210 211 209 208 204 211 213 213 210 209 210 199 196 201
127 132 139 133 141 140 140 143 142 107 89 13 145 143 148 147 146 145 144 147 149 149 156 144 110 147 164 168 164 165 166 165 153 151 148 144 128 114 184 140 155 195 216 220 185 219 237 222 223 206 217 218 182 41 121 138 148 207 205 205 204 204 205 202 203 202 205 209 210 209 207 211 212 212 210 208 209 198 195 193
