P2
80 80
255
106 101 102 103 105 109 108 107 112 113 113 119 117 119 121 123 125 126 129 129 128 130 134 134 136 138 144 144 144 146 150 149 152 152 155 157 158 158 158 160 160 158 159 160 161 163 165 163 164 165 163 160 162 162 158 155 154 157 156 154 151 152 151 146 146 148 146 144 142 141 140 143 139 138 133 136 131 129 132 139
99 101 100 104 105 109 110 111 111 113 115 119 119 117 121 125 126 126 129 131 132 132 133 136 136 138 140 144 144 144 146 145 148 149 153 152 154 155 154 156 162 157 158 164 163 168 167 166 165 164 167 164 161 162 161 163 160 162 162 160 159 159 153 153 152 147 149 146 141 144 142 140 138 137 137 135 133 132 133 140
100 102 105 106 106 107 112 110 113 115 115 120 120 119 123 125 125 126 126 129 130 134 133 138 139 138 139 142 147 144 150 148 151 150 154 155 157 158 158 157 158 160 164 163 168 165 165 164 167 166 165 168 166 165 166 164 163 165 162 161 162 159 160 158 154 154 153 151 149 147 144 143 143 139 139 136 136 132 133 139
99 100 104 106 109 109 113 113 114 115 116 118 119 121 125 126 130 130 130 133 136 135 138 139 139 143 144 143 146 149 151 153 154 156 158 159 160 159 162 163 163 163 164 165 164 167 167 167 169 167 169 167 169 165 163 164 166 165 163 162 164 165 160 159 155 158 154 154 150 150 147 147 147 146 141 140 137 135 135 141
100 103 105 107 108 108 111 114 114 117 116 118 120 123 122 125 127 127 131 132 133 137 137 140 142 140 140 138 140 141 139 138 136 136 139 139 139 139 140 143 143 143 146 148 148 149 153 151 151 153 159 159 160 161 163 163 169 170 166 161 165 160 160 157 159 156 156 156 154 153 152 152 149 145 144 143 142 138 140 145
100 102 104 104 108 108 108 114 113 116 117 118 119 120 123 119 116 113 114 116 119 122 126 129 127 134 137 135 136 137 139 142 143 141 146 147 147 147 146 147 149 148 149 150 151 152 150 148 148 146 142 144 143 141 144 140 141 141 139 141 146 151 153 155 159 157 156 153 152 153 154 157 153 147 149 142 144 140 141 148
98 102 104 105 106 109 110 111 112 107 104 103 108 115 117 121 124 125 129 129 130 134 135 134 137 137 140 140 141 143 141 144 143 147 146 147 150 150 150 149 152 151 152 153 153 156 153 152 151 149 147 146 144 145 147 149 148 151 150 149 149 144 143 137 137 136 136 140 146 149 153 151 151 154 150 150 148 149 146 153
99 104 102 103 100 96 100 105 111 112 118 118 119 122 124 126 128 130 130 133 132 135 136 137 137 138 138 142 142 141 145 143 143 146 147 151 149 150 149 151 153 155 156 156 154 155 152 153 151 149 148 146 145 146 147 152 152 151 151 150 150 147 140 141 142 142 141 142 141 139 135 134 136 146 149 150 148 146 144 152
92 91 94 103 108 108 110 115 117 118 121 120 123 125 125 126 129 128 133 131 134 135 137 140 138 141 142 142 144 145 147 147 146 148 148 151 150 153 152 153 154 156 157 158 158 158 155 154 154 152 149 146 150 147 150 151 152 151 152 148 147 144 144 142 141 143 140 143 144 142 143 142 139 136 138 132 136 140 145 151
73 95 106 107 108 109 111 114 116 117 120 122 123 122 126 128 130 133 132 137 135 137 139 139 140 143 143 143 146 145 148 147 153 150 150 153 155 152 156 159 155 157 159 158 159 158 157 157 155 152 151 148 149 152 152 155 151 153 150 150 148 147 143 144 144 143 144 145 143 144 143 140 141 139 139 138 136 133 130 136
63 94 106 109 111 111 114 116 117 118 120 121 125 125 127 130 129 134 136 136 135 138 137 143 142 142 145 148 146 149 151 149 151 154 150 155 155 157 160 158 161 161 164 164 164 163 163 162 156 156 153 154 152 151 153 154 154 153 153 154 150 150 146 147 145 146 146 144 146 146 147 145 142 140 136 139 136 136 132 140
62 92 105 110 111 112 112 117 120 120 120 123 125 127 130 129 131 135 137 137 139 140 142 144 145 147 147 149 150 149 150 150 152 157 154 157 157 157 158 158 160 160 162 165 164 167 163 163 162 160 157 155 157 158 158 157 155 156 154 153 154 152 151 147 148 150 146 148 149 148 149 147 142 142 143 141 138 137 134 139
63 91 108 109 112 114 115 118 119 121 123 124 127 128 131 134 134 137 139 139 141 142 143 145 148 147 147 148 151 152 151 155 155 156 158 158 161 160 162 161 161 164 165 167 166 168 167 163 164 163 160 162 163 156 149 157 156 158 156 153 155 153 152 149 149 148 149 149 151 148 148 144 144 145 142 140 141 140 135 142
66 88 107 110 112 116 116 119 121 122 124 124 128 128 129 135 136 135 139 140 111 118 137 143 146 149 149 152 153 154 152 151 148 117 82 154 162 163 164 163 161 80 106 148 165 168 169 167 168 165 163 166 143 72 87 158 159 159 159 159 153 102 141 149 149 151 151 153 151 151 151 149 146 144 145 143 141 138 139 141
71 85 109 110 114 117 116 117 121 123 115 111 103 96 87 128 136 138 137 141 79 96 74 70 96 131 150 153 152 149 111 75 77 70 100 138 163 162 162 165 154 88 78 85 68 97 152 168 170 168 162 97 80 88 67 152 160 160 161 159 130 65 84 76 116 148 154 154 149 149 141 120 99 145 145 145 142 141 137 145
73 83 110 113 113 116 119 120 121 117 68 89 76 111 86 117 137 138 140 139 73 134 139 118 83 66 147 153 154 137 88 70 112 66 131 107 163 167 164 163 139 119 77 133 59 59 144 171 171 146 66 59 132 70 58 107 162 163 159 157 84 128 118 63 61 104 154 154 124 72 81 57 63 141 145 145 143 140 111 115
76 81 110 113 114 117 119 120 122 118 71 79 115 119 69 105 139 140 141 140 65 63 72 71 83 68 148 156 156 156 74 92 60 138 128 74 165 166 171 168 106 147 107 96 81 59 167 175 171 145 67 150 98 106 92 76 160 161 162 155 62 86 110 90 64 144 158 157 128 83 87 75 62 139 148 146 127 70 79 97
78 81 110 113 116 118 120 122 124 125 62 87 65 72 77 91 137 141 143 140 75 84 59 112 105 74 152 155 158 160 84 77 56 137 88 61 160 168 170 167 81 137 137 130 66 72 176 179 176 168 76 95 110 70 67 62 141 166 164 127 60 91 69 140 79 163 161 159 138 107 85 120 106 134 150 142 81 118 93 71
76 80 107 114 116 119 119 122 125 124 70 86 60 88 101 76 139 143 144 135 83 116 58 65 59 87 154 158 161 161 131 115 76 141 90 108 141 170 175 167 63 120 115 112 62 111 178 181 180 179 128 132 168 89 73 106 168 169 164 84 77 140 96 74 114 164 165 162 151 79 126 74 63 121 150 147 87 100 86 78
79 79 109 115 115 119 122 124 123 125 85 57 88 66 113 68 138 143 144 140 84 68 68 115 57 103 156 160 162 163 158 65 108 103 61 84 148 175 176 173 109 76 85 65 57 158 179 182 182 179 170 73 86 76 160 175 174 172 170 160 132 84 71 61 158 169 169 165 153 86 62 58 70 132 153 150 121 90 82 75
80 78 105 115 116 119 122 126 128 128 110 77 82 91 97 106 138 145 146 147 149 148 136 108 72 121 160 162 164 165 166 83 86 134 162 170 175 174 176 180 178 174 167 130 87 180 184 187 186 186 181 107 123 178 182 181 181 180 180 175 177 173 165 145 170 170 170 167 160 113 141 156 157 159 156 153 140 58 60 122
78 78 101 113 118 120 122 125 127 130 131 132 135 136 138 140 143 145 146 149 153 155 155 157 157 156 163 163 165 168 169 170 168 175 175 178 180 180 182 184 187 186 186 183 184 191 191 191 191 188 187 183 187 184 186 185 185 183 183 178 180 179 176 173 175 173 174 172 166 166 166 165 162 162 159 155 151 110 143 157
80 79 96 118 119 122 122 127 129 131 132 133 135 136 139 143 145 148 148 150 152 155 155 156 159 163 163 166 172 173 174 174 175 179 179 181 182 182 184 185 186 191 192 191 190 193 189 192 192 192 190 190 190 190 188 190 186 188 185 183 185 182 181 179 179 177 175 170 171 167 169 166 168 165 162 160 159 150 154 156
77 78 87 117 119 122 124 126 128 131 134 135 136 138 139 144 147 146 148 149 155 157 157 160 163 166 167 168 170 171 175 178 180 182 181 185 183 186 187 190 191 193 192 194 194 195 195 193 196 196 196 192 194 192 196 193 192 191 192 189 185 181 152 183 183 179 179 179 172 146 169 168 166 165 164 159 158 152 152 160
79 79 83 113 120 122 124 126 130 132 132 136 131 115 142 142 147 145 151 150 155 155 140 124 160 167 169 172 172 179 176 180 181 181 172 176 185 187 190 191 190 192 192 189 194 196 197 199 196 196 186 181 178 173 173 193 198 195 191 185 153 81 81 181 186 183 180 179 150 63 99 168 171 167 164 163 154 79 149 165
78 79 83 115 120 121 124 125 130 131 135 136 103 56 64 123 146 151 153 155 156 159 95 110 76 144 166 174 177 174 175 166 135 91 68 95 190 191 194 193 123 88 80 79 80 154 204 201 202 144 67 83 103 104 111 198 199 196 180 87 140 133 117 165 185 188 180 172 75 133 114 83 164 167 168 159 75 103 97 161
81 79 78 109 119 122 125 127 128 132 133 134 72 54 52 53 68 132 152 156 157 154 71 146 137 60 88 164 178 176 147 64 108 145 100 68 186 193 196 195 108 182 113 99 152 162 202 205 204 127 153 99 181 166 136 200 201 183 82 85 93 72 150 113 186 189 182 98 67 164 72 74 113 170 159 78 61 106 98 148
83 80 80 100 118 123 127 128 132 133 134 130 74 114 111 75 109 69 146 157 159 125 112 96 100 96 58 86 180 182 177 80 171 145 93 123 176 198 204 198 108 158 179 105 72 169 205 210 210 110 85 98 139 65 161 203 204 195 83 82 156 65 103 76 189 192 150 60 152 94 99 75 168 173 123 99 149 143 80 111
86 79 80 92 121 123 126 127 131 134 137 104 85 70 74 126 86 92 153 159 157 80 108 166 95 150 82 139 181 184 185 93 106 75 185 105 133 199 204 207 106 94 183 153 65 187 212 216 209 103 178 93 71 120 184 210 206 205 145 77 151 100 85 148 193 191 173 74 110 57 62 167 177 177 165 84 95 130 92 168
91 80 79 83 117 124 127 129 130 134 135 122 68 83 94 138 95 128 157 159 160 130 72 134 112 106 74 175 185 186 189 154 145 108 163 64 85 199 207 208 106 149 110 122 124 193 218 214 214 96 161 151 126 70 202 215 210 208 192 77 96 118 196 199 199 200 194 181 106 59 133 184 182 181 176 148 108 96 163 172
95 81 79 80 115 120 124 129 130 134 136 139 141 122 65 56 69 148 157 161 165 165 166 119 80 130 119 182 186 188 190 190 88 101 88 139 195 211 210 212 131 101 106 114 127 210 219 219 216 182 191 197 203 208 218 219 218 218 208 130 191 208 207 207 204 201 199 197 187 164 187 188 186 184 180 170 126 170 171 176
95 84 79 78 106 124 129 128 133 133 136 139 141 141 147 124 106 150 160 162 165 169 168 175 170 115 166 184 188 193 193 196 171 195 200 203 207 208 209 215 214 216 220 218 221 223 226 228 227 228 228 225 223 220 224 221 218 220 215 216 214 212 210 210 207 202 202 200 197 192 191 191 189 184 182 178 179 174 172 177
94 88 78 77 93 120 127 129 130 135 138 140 142 145 138 152 156 158 162 164 168 171 172 174 180 181 186 188 192 196 194 197 202 202 209 207 213 215 218 218 220 223 224 229 228 232 228 228 231 229 229 225 227 228 229 228 226 224 222 220 221 218 221 213 211 209 205 202 203 198 196 194 190 190 186 186 182 178 174 180
93 94 79 78 83 119 125 129 134 134 136 141 143 149 150 150 155 159 164 165 169 171 177 181 181 185 188 188 193 197 201 200 206 207 209 213 215 218 221 224 227 222 224 229 233 234 234 236 233 230 232 225 219 229 234 231 230 223 222 216 214 210 218 218 215 212 159 102 156 192 197 199 194 185 136 134 135 148 174 182
93 96 81 78 78 117 127 130 132 135 140 140 142 148 150 117 102 156 162 166 169 172 175 177 180 176 152 178 195 200 202 202 206 202 116 165 217 224 226 230 226 141 88 209 232 241 240 238 233 212 134 81 98 228 237 236 231 109 94 70 127 104 213 222 215 205 80 161 171 88 115 201 195 157 138 83 72 126 178 187
94 95 89 79 76 110 126 130 135 135 140 142 145 147 130 78 61 75 152 164 169 173 164 115 78 61 116 106 194 203 202 202 161 69 152 96 208 232 229 232 219 82 116 143 115 230 247 243 103 186 174 156 73 224 240 239 231 117 131 125 99 107 223 225 225 170 97 163 167 84 189 208 199 120 105 76 154 167 182 188
93 92 94 78 77 93 124 131 132 137 139 143 144 141 78 85 66 85 73 145 171 174 164 67 110 156 118 62 194 203 206 113 125 85 150 93 119 227 232 232 120 181 111 147 69 178 249 249 136 136 86 122 133 215 244 246 229 135 99 166 83 128 233 232 219 84 82 147 189 114 209 206 198 98 122 75 83 185 185 189
92 95 96 82 77 82 123 129 133 137 139 142 145 89 114 79 125 134 98 64 154 177 177 106 146 78 70 102 146 203 208 196 112 182 139 82 69 199 236 211 140 185 240 157 97 246 250 252 190 188 155 154 157 195 250 246 213 124 136 116 169 177 233 233 203 86 85 118 136 194 213 213 193 91 88 68 93 189 189 193
92 93 94 89 76 78 119 127 134 134 137 141 142 145 99 69 125 123 71 125 172 178 177 166 75 168 177 94 86 206 211 214 167 63 112 70 146 232 239 240 199 109 213 159 228 253 255 255 235 73 75 129 217 249 253 254 215 153 164 174 186 228 242 241 234 227 221 190 152 218 218 216 209 204 198 197 197 195 192 195
92 92 96 94 78 77 107 126 133 134 140 141 145 148 151 132 89 96 109 170 175 178 181 180 94 75 114 173 201 209 216 216 219 106 100 217 235 240 242 247 249 246 192 161 252 255 255 255 254 248 255 254 255 255 255 255 255 252 251 252 249 251 245 242 239 236 230 230 227 221 221 218 213 208 205 204 200 199 192 197
88 92 92 95 80 75 86 125 132 135 137 142 144 149 149 155 151 115 161 167 174 178 180 186 187 193 196 200 205 209 215 217 224 224 228 233 236 240 245 249 254 252 255 254 255 255 255 255 255 255 255 255 255 255 255 255 255 255 255 254 251 248 249 241 240 238 231 232 229 224 224 220 217 212 209 207 204 201 196 201
87 89 92 93 88 75 77 123 129 132 137 139 143 147 152 154 159 163 165 169 173 178 181 187 190 195 200 204 208 213 216 220 227 226 229 237 241 247 252 251 254 254 255 252 255 255 255 255 255 230 254 255 255 255 255 255 255 255 243 198 251 253 252 248 243 192 81 209 235 232 227 222 121 101 148 196 205 206 199 202
88 89 92 94 94 78 76 114 129 134 136 140 144 144 152 156 159 161 150 165 173 179 183 185 189 160 168 200 209 214 217 223 226 220 218 219 219 245 254 255 254 235 112 110 255 255 255 255 248 139 83 191 255 255 255 230 143 93 145 103 235 253 251 247 163 100 119 82 223 232 226 202 89 188 102 105 207 205 201 203
88 87 91 93 94 82 75 98 126 131 135 140 141 147 150 152 148 93 70 103 173 178 183 186 186 90 114 72 160 207 218 224 178 90 94 110 112 243 255 253 142 173 177 155 210 255 255 255 122 111 169 91 109 255 255 207 116 152 158 117 225 255 250 138 175 130 90 187 113 232 226 124 104 129 84 193 208 206 201 204
88 90 88 91 92 89 75 82 124 130 133 137 140 144 149 118 86 121 141 75 119 177 180 183 151 107 134 79 167 100 216 227 194 96 86 177 83 246 255 255 110 88 180 141 90 255 255 187 219 217 104 78 224 255 255 239 197 196 80 78 201 255 255 172 88 97 138 116 233 232 209 125 152 171 127 214 211 208 204 205
86 90 88 92 93 91 78 75 117 125 130 133 139 142 146 118 101 118 132 149 121 135 180 180 88 118 122 162 75 190 218 224 208 87 171 128 142 247 255 255 226 130 204 111 181 255 255 253 137 151 132 169 255 255 255 253 95 85 107 176 244 255 255 250 157 78 159 238 240 236 233 219 179 127 204 215 210 210 203 208
86 88 88 90 90 93 81 74 104 127 131 132 138 140 145 147 117 123 91 105 79 159 178 181 175 114 80 168 108 214 220 228 219 101 114 125 145 252 255 255 255 153 157 254 255 255 255 255 255 253 147 255 255 255 255 255 248 255 255 255 255 255 255 254 251 223 245 245 241 237 234 233 226 222 220 216 214 203 204 200
84 85 87 89 88 91 88 75 86 121 126 129 136 139 144 146 148 110 87 127 165 173 177 182 186 193 192 150 195 213 223 227 232 235 240 248 252 255 255 255 255 255 255 255 255 255 255 255 255 255 255 255 255 255 255 255 255 255 255 255 255 255 255 252 253 248 247 246 239 237 231 228 221 220 221 218 212 207 205 184
83 85 87 88 87 90 91 76 76 116 123 128 132 136 141 143 149 148 155 161 167 173 175 183 186 190 198 202 207 214 222 227 236 236 243 249 254 255 255 255 255 255 255 255 255 255 255 255 255 255 254 255 255 255 255 255 255 244 217 255 255 255 252 242 147 163 242 243 237 231 216 136 120 212 219 215 211 207 202 164
82 84 86 87 86 87 90 82 74 110 119 123 128 134 135 142 146 149 155 155 163 171 174 179 185 190 195 184 170 210 219 227 235 237 214 118 230 255 255 255 255 121 126 211 255 255 255 230 149 99 203 215 255 255 245 141 166 104 88 251 255 255 234 141 167 108 172 235 230 151 117 77 103 175 217 214 209 204 196 159
80 82 84 85 86 86 89 87 74 91 116 120 126 130 135 135 142 136 129 123 118 123 168 175 180 181 112 81 110 189 217 224 221 121 134 137 125 254 255 255 212 189 180 153 118 255 255 170 109 196 109 143 255 255 247 170 184 182 138 237 255 225 84 130 124 171 83 219 225 121 121 189 189 122 209 207 206 203 179 157
79 81 82 85 85 86 86 86 76 77 112 119 120 127 129 133 137 88 79 80 62 69 160 173 166 86 118 117 113 86 205 221 206 149 176 134 96 143 255 255 152 170 155 235 210 255 255 235 101 174 240 113 255 255 255 126 209 202 170 215 253 242 151 118 99 121 212 221 220 189 79 104 168 203 202 205 200 194 154 153
77 80 80 82 83 84 85 87 82 75 106 112 118 120 125 128 131 103 92 75 67 91 148 165 172 137 93 141 165 103 169 217 220 167 114 103 128 234 255 255 246 151 95 135 255 255 255 255 127 153 200 244 255 255 255 140 143 199 237 248 249 240 233 149 126 217 219 217 213 206 151 199 201 198 200 195 194 185 144 146
77 79 80 82 83 85 84 85 87 74 94 110 112 117 120 123 128 116 77 77 85 70 138 160 166 167 124 132 108 188 203 211 216 219 126 190 248 255 255 255 255 255 251 252 255 255 255 255 255 255 255 255 255 255 255 255 254 255 252 244 241 236 228 221 218 214 208 210 203 201 198 193 194 193 193 188 181 164 142 142
76 77 79 81 81 82 84 83 85 76 80 103 107 111 114 119 121 124 107 114 125 132 145 151 161 163 168 162 181 188 201 205 214 222 227 240 248 254 255 255 255 255 255 255 255 255 255 254 251 249 252 252 253 254 253 251 248 246 242 235 232 221 206 204 205 204 204 199 192 185 143 129 184 184 181 178 173 143 133 137
75 76 78 79 81 82 83 83 85 82 72 97 105 107 111 114 116 120 125 127 132 137 142 147 155 160 163 167 172 181 189 198 205 208 216 226 233 247 255 255 255 175 217 244 251 255 251 193 151 147 149 217 239 237 185 146 136 130 190 230 221 200 144 130 105 131 190 180 79 132 87 108 173 174 169 167 159 130 128 133
74 75 77 77 79 79 82 83 82 83 73 92 100 102 106 110 112 116 118 121 101 123 136 141 145 150 153 84 101 152 177 186 190 147 84 104 88 189 250 255 239 195 128 125 150 244 236 150 174 142 179 194 226 226 153 163 193 143 195 217 207 143 175 102 114 164 180 169 94 128 138 107 166 162 159 156 145 128 124 128
73 75 76 78 78 79 80 81 81 82 76 80 96 99 100 104 107 109 114 85 58 80 107 129 138 141 108 86 86 119 83 174 183 142 130 105 101 175 239 248 195 167 157 197 206 238 227 133 116 114 121 187 210 210 139 138 185 149 204 210 195 95 149 135 101 172 171 163 78 90 108 144 153 152 147 143 125 120 117 119
73 74 74 76 78 79 79 80 83 81 80 73 89 96 98 101 102 105 85 91 70 66 80 88 132 132 82 79 120 77 122 166 172 142 105 161 108 164 233 238 191 165 154 133 221 223 212 144 128 102 106 182 197 198 157 151 169 179 203 204 196 181 166 134 156 165 161 158 146 149 148 146 145 137 137 131 116 113 110 115
70 73 74 75 76 76 77 79 80 81 79 73 86 93 94 96 99 100 90 65 84 88 68 116 124 126 111 94 75 75 147 156 163 155 135 156 169 194 218 229 233 234 227 210 219 210 202 191 186 182 182 180 183 182 183 186 188 194 193 188 185 178 171 163 160 152 151 145 142 140 137 134 130 128 124 115 107 107 106 109
70 71 73 74 75 76 77 77 80 79 80 76 80 88 92 92 95 99 100 99 77 65 110 118 120 124 125 126 126 130 143 149 151 159 167 171 182 192 206 214 220 222 219 213 204 196 188 183 176 169 168 168 163 165 165 169 170 172 174 171 170 163 158 151 143 140 135 130 129 127 123 120 116 116 113 106 106 102 101 107
70 71 71 71 73 75 75 75 79 78 78 78 74 85 88 90 92 93 95 99 101 104 104 111 116 116 120 125 125 129 137 139 145 146 155 165 168 178 187 197 205 206 202 194 187 177 170 162 158 155 151 151 151 148 149 150 152 155 155 153 153 148 143 138 135 127 124 120 119 114 114 111 110 106 107 103 102 98 98 102
68 68 72 72 72 74 75 75 77 77 76 78 73 83 83 87 87 90 93 96 98 99 103 104 107 109 112 113 119 119 122 128 131 137 139 144 151 159 167 176 184 184 181 174 166 161 155 146 143 140 139 135 137 134 136 137 136 138 138 134 131 128 123 119 117 115 115 114 111 111 111 106 107 106 104 99 99 96 92 99
67 68 70 72 72 72 74 74 75 75 77 77 75 80 82 83 84 86 87 89 92 93 99 98 102 103 105 110 109 112 115 119 121 124 127 130 133 136 142 145 143 142 142 137 138 134 133 135 132 128 127 126 126 125 123 122 120 121 119 122 118 120 117 116 112 114 112 110 108 109 108 104 102 103 102 102 97 93 92 97
67 67 68 68 69 72 71 72 74 75 76 77 76 78 79 82 82 83 86 86 90 90 93 93 98 98 99 102 102 102 106 109 109 112 115 119 122 122 125 124 129 128 129 129 129 129 127 127 126 127 124 122 122 120 121 121 118 119 116 118 117 115 115 112 113 110 107 108 104 106 103 104 102 100 99 98 95 91 89 94
65 66 67 68 69 69 71 71 73 74 74 75 75 75 76 78 80 79 82 84 84 85 91 94 96 98 100 100 101 103 117 107 110 112 115 116 117 121 122 122 125 127 128 126 127 127 126 124 125 124 121 121 120 118 118 115 116 114 117 115 113 111 111 111 110 107 108 105 107 104 103 101 101 100 98 96 94 90 87 91
64 65 66 67 67 67 69 71 72 72 73 73 75 75 77 78 79 80 81 83 86 88 90 93 95 97 98 101 100 100 101 102 106 107 111 112 115 116 117 120 121 124 124 123 124 125 122 122 123 121 119 117 116 116 115 113 114 114 112 111 109 110 110 109 108 106 107 107 106 104 103 101 100 96 96 93 91 87 83 90
63 64 64 65 65 67 67 69 70 71 71 70 72 73 74 77 76 80 78 83 85 88 88 91 94 97 96 100 98 98 98 102 103 104 108 110 112 114 116 119 119 121 124 122 124 125 121 120 120 120 120 117 115 114 113 111 112 111 110 110 109 108 109 108 108 106 108 105 103 101 101 99 98 96 94 92 89 88 84 88
62 63 63 64 63 66 66 68 69 68 70 71 71 72 73 74 76 78 79 81 84 87 87 89 91 92 95 98 97 94 95 99 101 103 106 109 110 116 116 118 120 122 124 122 125 124 122 124 118 119 118 115 113 111 110 110 109 109 109 107 108 106 105 104 107 104 105 102 104 102 100 99 97 95 92 91 88 85 83 87
61 62 63 63 64 65 65 66 68 69 68 70 71 71 71 72 73 77 77 80 82 85 87 85 91 91 91 95 94 93 94 97 99 101 102 107 112 112 115 116 119 120 119 122 122 122 121 118 117 117 113 112 112 112 108 108 108 107 107 107 107 107 106 104 106 105 105 102 103 100 101 99 95 93 91 86 86 82 80 86
61 61 61 64 63 64 64 64 66 66 67 69 69 70 70 71 72 73 76 78 81 80 83 84 86 88 90 92 92 92 93 94 98 100 102 105 108 109 112 114 116 117 120 121 122 122 120 116 118 114 113 112 109 107 108 106 108 104 105 105 104 104 104 105 104 103 100 101 99 96 95 94 91 89 85 83 81 79 77 83
60 60 62 63 62 64 63 63 64 65 67 68 68 68 69 71 72 73 77 80 80 80 82 83 85 86 87 89 89 90 92 93 95 96 99 104 105 107 111 114 117 119 120 121 121 125 121 119 117 117 112 112 109 108 105 104 104 104 104 103 102 103 101 100 100 102 97 95 93 92 91 89 86 83 82 79 77 77 75 82
60 61 60 61 63 60 63 64 65 65 66 68 66 66 69 68 71 73 75 77 79 81 80 81 83 85 87 86 87 86 89 92 95 96 98 103 104 107 112 113 116 118 118 120 124 126 124 117 115 113 110 110 105 104 104 104 103 102 102 103 101 98 97 96 96 93 93 92 90 88 87 84 82 79 77 78 76 75 74 82
58 60 61 61 61 62 62 63 63 63 66 66 67 67 69 68 69 73 75 77 78 78 80 81 83 84 87 85 85 86 87 88 93 94 97 100 101 104 105 108 108 111 114 111 118 120 119 114 108 106 105 103 102 101 100 100 100 98 97 96 96 94 94 92 91 89 88 86 85 83 82 80 79 78 75 75 74 74 72 79
59 58 60 59 60 61 61 62 62 63 64 64 65 66 68 68 68 71 71 75 78 77 80 80 81 83 83 83 83 83 85 88 90 91 94 96 97 98 100 102 102 105 107 107 117 125 121 110 105 103 98 100 99 95 97 96 96 94 95 94 91 92 89 89 87 86 85 83 83 81 77 79 76 76 74 73 72 70 67 75
59 58 59 58 61 59 61 60 62 62 62 63 63 63 66 67 68 70 70 74 74 77 78 80 80 81 81 79 81 81 83 82 84 88 89 90 91 91 93 97 98 97 100 100 106 109 109 101 101 99 96 94 93 93 93 92 89 90 88 89 88 86 86 86 83 84 82 81 79 79 78 77 76 74 71 68 67 66 66 75
58 58 58 59 59 59 60 61 61 61 63 62 64 63 64 64 66 66 69 72 73 74 77 77 78 76 76 77 78 78 80 81 82 84 85 87 88 89 88 91 92 94 94 100 103 102 103 101 96 94 93 94 90 92 90 91 88 86 88 85 84 85 83 83 82 81 81 80 79 76 75 72 69 69 68 68 68 67 67 76
57 57 59 59 58 59 59 61 61 61 61 62 62 63 64 64 65 65 66 69 69 71 73 73 74 74 75 74 74 76 77 76 79 79 82 81 86 84 85 87 90 92 95 98 102 105 104 98 99 93 93 90 90 87 85 87 85 84 83 82 82 81 82 80 81 79 76 74 72 69 69 69 70 71 69 70 69 68 67 76
55 56 57 57 58 59 59 60 59 60 60 61 62 62 61 62 64 65 64 67 66 68 69 68 70 71 71 72 73 73 74 76 76 76 78 78 80 83 83 85 88 90 93 98 107 107 101 99 94 90 88 87 85 86 83 83 84 81 80 79 79 77 74 72 72 70 71 69 70 72 71 73 71 70 71 70 70 70 69 77
55 55 55 55 56 56 56 57 58 58 59 60 60 61 61 61 63 62 64 64 65 66 65 67 67 68 70 70 70 72 72 71 74 76 75 77 79 77 80 83 84 84 89 94 117 129 125 99 88 88 85 83 81 80 77 76 75 73 73 71 72 71 70 71 72 71 71 72 74 72 73 73 72 72 71 70 70 70 70 77
