P2
80 80
255
106 102 104 105 104 109 108 106 112 113 115 117 118 120 123 124 127 127 130 129 127 130 135 134 135 139 143 144 145 145 147 150 154 153 152 157 157 157 159 160 161 162 160 161 164 167 166 166 163 165 164 160 160 160 157 154 156 159 156 155 154 154 152 150 149 145 145 145 142 141 138 141 138 139 135 136 132 131 131 139
100 101 103 104 106 110 112 113 112 113 115 119 119 121 123 125 126 126 132 131 133 135 135 137 137 142 143 141 144 147 144 147 150 149 150 156 156 156 157 158 161 159 162 164 167 169 167 167 166 169 167 162 162 162 162 162 162 164 161 160 160 159 157 151 153 151 147 149 144 144 142 141 139 139 138 133 134 132 133 140
100 103 102 106 107 109 111 113 115 114 116 120 119 122 126 126 128 127 126 128 131 132 136 137 137 142 142 147 146 144 150 150 153 153 154 155 158 159 158 160 160 161 164 166 168 164 166 169 168 168 167 169 165 166 161 162 165 165 161 162 163 159 159 158 157 153 155 151 149 148 145 145 145 142 140 136 135 135 133 143
102 102 104 107 108 110 111 113 115 115 117 120 119 122 125 126 127 130 133 131 136 138 138 139 141 143 144 143 146 149 151 155 153 156 158 156 159 157 162 164 162 165 164 164 165 168 170 167 168 168 168 168 168 166 165 166 166 165 162 165 162 160 162 160 157 156 154 154 151 151 149 148 149 143 142 140 135 137 135 141
101 102 105 107 109 110 113 112 113 117 118 116 118 123 123 127 126 130 130 136 138 139 140 142 144 142 142 141 146 147 142 143 145 141 142 144 141 144 146 147 147 145 148 148 148 152 152 149 151 157 160 159 159 161 164 165 165 168 165 164 164 161 160 158 159 155 155 156 153 151 154 152 150 144 144 145 143 138 139 146
101 104 104 105 108 110 109 113 114 117 118 120 120 122 123 122 124 122 119 117 117 120 121 126 125 131 135 136 136 139 140 141 140 143 146 145 146 146 147 148 148 147 152 149 153 154 152 151 149 147 143 142 142 145 145 142 139 139 141 140 144 147 151 155 158 156 154 154 152 154 155 155 153 150 150 145 144 143 142 149
101 100 104 106 108 109 111 112 114 113 110 107 105 109 113 119 123 124 127 130 131 132 135 134 138 137 137 138 140 143 143 143 145 146 148 150 149 148 148 151 149 152 154 154 156 154 152 153 148 149 146 144 146 146 149 149 151 151 149 152 149 146 143 140 139 140 136 138 142 147 155 152 152 151 151 152 148 148 144 152
98 103 105 104 107 101 99 100 107 112 116 118 120 124 125 126 128 132 132 132 135 134 137 138 139 138 140 143 143 142 145 146 145 146 146 150 148 149 149 150 151 154 154 152 156 157 153 151 150 149 146 146 146 147 148 151 150 151 152 151 149 146 143 143 142 141 143 142 138 139 137 137 133 142 148 149 151 147 144 152
94 95 93 98 105 110 113 114 116 119 119 121 123 126 126 127 130 131 131 134 137 138 138 142 139 140 142 142 144 144 146 146 148 148 151 153 151 151 152 154 156 158 156 156 155 160 156 155 154 152 147 145 148 148 149 150 155 151 151 150 144 145 145 142 144 145 139 144 143 144 140 140 141 137 137 133 132 135 143 152
76 101 106 109 109 111 112 113 116 117 121 122 123 121 127 126 130 133 134 137 136 138 141 141 144 143 145 148 147 149 149 149 150 152 150 155 154 155 158 158 157 156 159 161 162 161 160 158 156 153 152 149 149 150 153 153 152 153 148 151 148 146 142 143 144 143 144 144 147 143 143 142 141 140 138 137 136 135 131 135
65 97 107 108 111 111 114 116 118 119 121 121 125 128 127 130 129 133 137 137 140 137 139 143 142 144 147 146 148 147 151 152 151 154 151 154 157 157 158 159 161 163 161 162 162 160 161 160 159 155 154 152 154 153 156 158 155 155 153 151 152 152 149 144 147 146 145 146 145 146 147 143 142 142 141 137 135 135 133 142
62 97 105 110 111 113 113 118 120 120 123 125 126 128 129 129 132 134 135 138 141 141 142 143 146 147 147 150 150 150 151 153 154 155 156 157 161 159 158 160 164 162 164 163 166 164 164 163 161 161 158 156 157 156 158 159 155 156 155 153 155 150 150 149 147 147 147 148 148 149 148 146 144 144 140 139 137 137 134 142
62 95 107 110 112 113 116 117 122 122 123 126 125 129 131 133 134 138 139 139 140 142 144 148 147 148 149 152 151 154 153 154 156 154 158 157 158 161 161 163 162 162 165 167 168 165 167 164 164 164 162 160 162 148 160 158 157 158 153 156 156 154 151 149 148 149 150 150 152 150 150 146 145 146 144 142 138 140 134 143
65 92 108 111 114 115 117 119 119 123 125 126 127 128 131 134 137 138 140 138 118 136 141 145 150 150 149 150 153 153 153 150 143 107 117 161 160 162 163 164 135 92 134 163 168 169 170 168 168 168 164 162 106 68 143 159 163 158 158 159 125 111 142 150 152 152 151 155 151 151 150 147 146 143 145 141 142 138 139 142
71 91 109 111 114 116 118 119 123 123 122 120 116 111 105 133 137 138 138 137 68 76 70 90 124 144 149 155 155 142 104 73 73 107 75 160 164 164 166 161 102 131 77 66 79 126 171 171 173 165 144 71 73 100 86 160 161 161 160 158 79 81 70 81 126 152 153 154 150 143 129 101 91 144 145 142 141 141 138 142
74 88 110 111 112 116 118 121 124 104 69 70 83 98 64 132 136 139 142 134 85 141 136 82 93 92 152 155 154 77 106 101 102 90 78 160 166 166 165 163 75 125 132 82 56 69 172 175 170 99 60 71 139 57 62 152 164 164 161 151 77 140 91 66 64 146 155 156 86 74 91 56 70 146 148 146 143 137 90 119
75 85 111 113 115 118 119 122 123 113 92 79 119 111 60 128 138 140 141 125 61 69 82 109 68 106 153 157 157 117 122 58 93 143 96 138 167 166 168 163 81 108 148 101 57 95 174 175 173 81 107 149 117 125 97 112 167 164 163 119 61 97 71 94 69 157 157 156 97 84 75 90 66 148 150 145 106 67 84 98
78 84 112 116 117 119 119 122 125 119 59 108 81 65 76 123 142 141 143 116 107 58 86 86 105 124 154 158 159 153 63 63 70 111 64 98 169 171 170 153 111 117 153 87 56 143 178 178 178 146 73 148 79 64 67 71 165 166 163 75 66 107 94 141 110 161 160 160 113 122 88 98 91 143 149 139 93 121 78 71
78 82 111 117 118 119 120 122 124 126 62 84 63 64 93 112 140 143 144 103 121 82 60 75 57 137 157 161 161 162 74 121 124 121 110 71 168 172 174 125 68 135 91 122 58 172 179 180 181 174 75 172 137 119 67 146 170 170 159 63 115 109 136 63 157 164 165 164 129 80 128 75 61 138 150 147 77 105 82 81
78 80 111 115 115 119 124 123 124 125 66 60 103 87 115 95 143 144 146 114 68 70 99 108 55 147 158 163 163 166 112 73 134 67 66 96 169 175 175 143 85 75 100 57 68 178 181 183 184 182 129 70 85 109 173 177 175 173 167 155 121 75 68 72 166 169 167 165 140 105 58 62 87 148 153 150 114 85 80 71
79 81 109 115 115 119 121 123 124 127 86 67 72 78 85 101 141 144 148 149 148 144 122 84 65 151 159 167 165 166 157 66 98 145 166 175 177 175 179 180 178 172 151 103 117 185 187 187 186 187 174 77 164 184 180 183 180 181 176 178 176 172 161 156 171 170 170 168 155 129 151 158 159 159 156 153 137 57 64 138
79 79 104 115 118 121 120 125 130 130 131 133 133 136 138 141 141 146 148 152 153 153 155 157 155 161 162 166 169 169 172 164 169 177 174 176 179 181 180 187 185 186 186 183 187 191 191 190 191 188 186 186 187 188 185 186 185 185 184 181 182 179 177 176 176 173 173 175 168 166 166 167 163 161 160 158 150 123 146 155
79 79 98 117 117 121 123 126 130 130 133 134 136 138 140 145 144 147 150 151 151 156 156 157 162 161 165 168 170 172 173 173 176 179 180 180 180 187 185 187 187 189 191 192 192 193 191 193 193 190 190 192 188 191 188 191 188 187 184 187 185 182 182 181 181 177 174 172 170 169 167 166 166 162 162 160 155 156 152 157
80 79 90 116 119 122 124 127 127 130 133 132 137 138 141 143 147 148 149 152 154 158 158 162 166 165 169 169 172 173 174 177 180 182 180 181 186 184 191 190 189 189 192 194 196 198 194 197 196 196 195 193 194 191 194 194 192 194 192 188 190 171 171 184 183 182 177 179 173 148 169 167 165 166 165 160 158 154 153 162
80 79 84 115 119 121 125 126 130 132 133 134 125 129 144 143 149 148 152 152 156 156 114 149 163 165 168 173 174 178 176 180 180 178 166 186 188 190 192 192 192 195 194 192 196 199 199 199 197 192 186 181 180 174 186 198 197 194 191 183 113 98 112 185 186 185 183 179 113 62 114 171 172 168 165 162 149 77 147 164
79 80 81 114 121 123 124 129 129 130 135 135 84 56 81 137 146 150 152 155 155 156 78 89 98 161 172 173 177 178 174 158 122 83 64 168 191 193 194 189 91 88 82 78 81 195 201 206 198 76 82 71 77 105 178 198 196 193 157 79 167 134 82 186 187 183 181 159 86 123 89 91 167 168 171 153 73 89 99 165
81 81 78 111 119 121 125 129 127 133 134 134 64 54 53 55 90 146 154 156 158 133 85 151 122 60 128 173 178 178 90 74 77 161 63 117 192 196 194 193 98 183 121 82 90 200 207 206 199 80 174 106 186 113 189 199 201 134 119 74 110 74 126 162 191 187 178 68 81 164 71 64 141 171 154 79 60 114 92 152
85 80 80 103 120 123 126 128 132 134 135 120 88 119 92 87 117 78 154 159 158 89 130 96 68 92 56 138 180 182 141 124 166 166 114 80 195 196 199 196 98 118 174 71 68 204 204 211 202 72 72 124 119 66 197 205 206 181 62 130 157 63 103 102 193 191 106 65 163 85 115 91 174 174 113 115 149 140 81 117
86 80 79 93 119 125 127 131 130 131 136 87 79 83 71 131 87 119 157 160 152 68 145 161 87 150 66 173 185 187 181 69 111 115 183 72 189 202 204 202 66 158 136 151 69 209 214 216 202 119 158 75 97 87 205 208 211 200 87 110 129 74 81 179 197 195 155 70 89 58 67 176 180 177 163 82 105 125 97 169
93 81 80 83 120 123 128 128 131 134 135 108 63 104 107 140 73 142 157 160 159 99 87 125 96 86 105 180 184 188 188 91 140 134 129 60 155 202 206 202 86 147 156 111 83 213 216 214 201 126 161 150 93 93 212 216 212 209 160 75 91 152 199 204 198 200 191 181 89 61 159 186 182 182 175 143 108 102 163 171
94 82 78 81 115 123 127 130 132 133 135 141 140 106 60 59 83 150 160 163 166 164 160 91 108 100 160 182 188 190 192 158 118 80 100 162 198 211 213 208 98 101 109 115 138 219 218 220 211 182 188 196 201 212 220 217 215 215 200 128 201 207 208 208 205 200 201 198 188 165 189 186 186 182 177 174 131 172 172 178
96 86 78 76 109 124 126 129 132 135 135 141 140 146 145 108 126 154 160 162 168 168 170 173 163 100 179 188 187 197 197 192 177 197 205 204 208 208 214 212 214 222 219 222 221 224 227 229 225 225 229 226 227 223 223 222 219 221 216 215 213 215 212 208 206 203 201 202 198 194 192 189 188 184 183 177 178 173 173 177
95 91 77 79 95 121 126 127 131 134 138 140 144 144 140 152 154 158 161 165 167 171 175 174 177 179 188 187 192 198 198 198 203 204 206 207 215 214 216 223 223 225 225 227 227 231 234 232 232 232 229 228 227 228 231 224 224 224 218 220 219 217 216 214 214 206 205 205 202 198 197 195 192 192 187 185 180 179 176 180
94 94 80 79 84 120 125 130 132 135 138 142 143 148 152 153 158 160 162 166 169 172 178 178 183 185 185 188 194 201 201 202 203 208 210 212 220 220 224 224 228 225 228 231 235 236 231 234 235 233 233 227 219 234 234 234 232 224 221 216 212 211 219 218 215 214 123 112 169 195 199 198 194 186 139 138 136 148 177 184
94 96 84 77 78 118 127 128 134 136 138 142 145 147 147 99 120 158 163 167 172 173 175 178 181 174 142 189 195 201 203 206 205 190 84 205 221 224 228 228 227 80 128 220 235 240 242 242 232 196 114 97 132 238 237 237 222 77 105 70 136 100 220 223 218 202 71 181 156 93 138 201 196 147 132 87 73 127 178 187
94 96 90 78 76 112 127 131 134 136 140 143 144 147 117 86 59 90 158 167 171 175 151 103 69 62 125 161 198 204 203 201 120 76 131 105 219 229 231 231 169 81 135 100 164 240 245 242 101 202 152 127 97 239 242 241 212 142 126 101 128 136 228 224 220 133 92 190 159 80 198 205 200 109 101 77 151 163 184 189
93 94 94 78 77 95 126 128 132 135 138 142 146 133 82 74 69 77 76 154 171 174 145 76 106 167 80 82 202 207 205 79 100 97 172 68 188 228 232 231 100 166 112 158 70 231 248 246 85 120 145 105 95 239 242 243 197 173 91 159 78 179 231 229 211 72 88 173 186 129 211 206 200 100 113 80 85 182 186 190
91 94 96 84 77 84 124 131 135 136 138 144 143 79 114 90 117 135 80 72 167 174 174 86 123 72 65 101 191 207 211 169 164 159 84 89 74 224 236 149 165 223 240 90 164 250 254 253 109 141 195 135 115 233 251 249 161 126 175 114 156 215 234 229 173 80 79 146 112 204 212 209 190 96 92 64 92 191 190 193
92 94 97 91 78 78 119 127 134 135 137 140 144 144 92 80 114 128 69 147 173 179 180 141 79 184 156 118 123 207 210 210 105 63 88 80 186 233 238 238 160 134 234 107 245 253 255 254 163 71 80 148 229 254 254 252 177 149 160 170 186 238 243 240 238 227 217 175 153 219 217 213 207 201 198 196 193 194 194 197
92 94 95 96 78 76 106 126 133 134 138 140 144 150 151 126 93 84 133 169 173 178 180 178 73 85 135 188 206 212 218 216 214 74 141 226 235 240 242 247 248 244 152 221 255 255 255 255 249 251 255 255 255 255 255 255 254 252 252 251 249 247 243 243 239 237 230 230 226 224 221 219 215 210 207 203 201 198 191 198
89 92 95 95 83 76 87 125 133 135 137 143 145 149 153 155 149 132 162 169 174 178 184 184 187 193 199 201 209 211 217 221 222 222 229 235 237 245 248 250 254 253 255 255 255 255 255 255 255 255 255 255 255 255 255 255 255 254 254 252 253 250 249 245 240 240 232 232 227 225 222 222 215 212 211 206 201 198 196 202
89 89 92 93 90 76 78 121 129 132 137 141 142 149 148 154 157 161 164 171 174 181 182 189 191 196 197 203 205 214 218 221 226 230 231 237 244 248 255 253 255 255 253 254 255 255 255 255 255 231 255 255 255 255 255 255 255 253 242 201 255 255 253 248 242 181 85 223 234 232 228 221 119 106 162 198 204 201 198 202
89 88 92 92 94 78 76 113 129 135 136 139 146 147 152 154 158 158 141 165 174 177 183 184 190 131 178 202 210 212 220 224 221 213 215 216 225 247 254 255 254 208 93 174 255 255 255 255 208 171 93 230 255 255 255 215 135 86 151 102 252 255 254 245 150 118 130 93 230 234 226 202 91 193 102 101 207 202 203 205
88 89 90 93 93 84 74 94 127 133 136 140 143 146 149 152 141 82 72 116 171 177 184 187 177 103 80 79 175 213 223 222 116 128 117 124 120 251 255 239 112 225 113 129 254 255 255 254 115 160 100 122 138 255 255 150 121 184 122 106 248 255 244 130 175 114 92 189 128 237 226 128 111 125 81 183 209 206 202 203
88 91 89 91 94 90 75 80 125 130 132 138 141 145 146 100 98 127 131 69 131 177 183 185 113 118 98 102 155 150 219 225 140 94 91 177 105 252 255 238 102 100 217 99 124 255 255 128 184 203 98 78 249 255 255 197 233 172 83 83 238 255 252 132 94 97 132 116 231 231 208 133 140 167 126 211 211 207 203 207
86 91 90 93 93 92 79 77 116 128 130 131 138 142 147 116 108 125 142 150 114 149 179 178 90 118 148 150 72 209 221 224 162 90 189 110 110 254 255 255 166 171 238 116 219 255 255 239 106 146 167 221 255 255 255 235 94 84 107 174 251 255 255 247 118 82 161 238 241 236 230 212 161 106 195 214 212 207 204 208
85 89 90 89 93 93 84 75 101 125 128 130 139 141 146 148 117 121 96 97 95 169 179 183 175 112 88 168 154 215 224 227 194 112 124 136 159 255 255 255 255 123 195 255 255 255 255 255 255 234 159 255 255 255 255 255 244 255 255 255 255 255 255 254 252 211 244 243 243 237 234 233 226 222 221 216 209 206 202 204
84 85 88 87 89 91 90 76 83 123 126 131 131 140 145 147 149 112 83 147 169 175 177 184 188 190 193 150 210 216 224 227 234 237 243 247 254 255 255 255 255 255 255 255 255 255 255 255 255 255 255 255 255 255 255 255 255 255 255 255 255 255 255 253 249 247 244 243 242 237 233 230 224 221 222 216 210 206 205 193
85 85 87 86 88 91 91 77 75 115 122 129 131 137 142 143 150 149 156 161 165 173 177 185 188 192 198 204 211 213 222 229 237 240 242 249 255 255 255 255 255 255 255 255 255 255 255 255 255 255 254 255 255 255 255 255 255 246 235 255 255 255 255 242 146 199 240 241 235 233 220 164 108 215 219 214 210 208 201 175
83 82 85 88 87 88 89 85 74 105 122 123 130 134 137 141 146 149 154 156 161 169 176 182 187 194 193 163 183 210 220 230 234 236 186 116 247 255 255 255 255 94 131 235 255 255 255 219 135 116 180 250 255 255 225 144 161 85 105 255 255 255 233 141 158 101 204 234 229 171 106 72 107 171 215 213 211 205 198 163
81 82 84 86 85 85 86 87 75 87 113 119 126 128 133 138 141 124 113 110 102 113 169 176 179 171 85 84 104 201 218 225 206 98 125 180 123 255 255 255 152 206 188 134 126 255 255 112 114 218 97 203 255 255 223 178 217 183 118 250 253 214 86 155 112 156 82 224 224 111 115 174 179 118 209 207 207 201 187 159
79 81 82 82 85 86 86 87 79 76 109 117 121 127 130 132 135 86 92 78 61 77 160 173 159 97 143 105 122 97 208 219 183 172 183 146 90 195 255 245 201 204 166 188 247 255 255 179 146 178 220 136 255 255 251 136 226 192 167 239 254 244 117 135 114 132 205 224 220 184 92 105 140 200 203 204 201 195 169 154
77 80 82 82 82 85 86 85 85 74 105 112 117 122 125 127 132 101 84 73 70 90 152 167 168 129 109 163 150 98 196 214 220 142 101 102 139 249 255 255 238 138 94 175 255 255 255 244 149 153 200 246 255 255 255 113 136 192 233 253 248 240 233 117 117 213 219 218 214 206 123 194 205 199 199 196 195 191 150 147
77 79 80 81 83 83 84 85 86 75 89 109 113 115 120 124 126 116 70 87 85 68 145 161 167 168 116 114 139 191 208 210 217 219 118 217 250 255 255 255 255 255 245 255 255 255 255 255 255 255 255 255 255 255 255 254 254 253 252 248 245 236 230 223 215 214 215 210 204 204 202 199 198 194 193 187 184 172 140 142
76 77 78 79 80 84 84 84 85 79 78 102 108 112 116 117 121 123 118 124 130 141 146 155 158 167 166 171 183 189 200 204 211 220 229 242 247 254 255 255 255 255 255 255 255 255 255 254 252 254 255 251 252 254 253 249 248 248 243 236 232 224 215 212 211 207 202 202 197 190 172 148 185 184 182 178 175 153 137 141
75 77 78 78 80 81 84 84 84 83 74 96 105 104 109 113 117 120 123 126 131 136 142 147 154 159 163 164 173 180 190 197 202 210 213 222 231 248 255 255 255 182 223 246 254 255 254 178 159 153 154 233 240 240 169 154 146 140 213 225 221 203 134 112 110 155 191 182 98 119 88 99 177 174 169 169 162 136 129 134
74 75 77 78 79 79 81 83 82 83 74 87 99 100 105 108 111 116 118 119 85 118 135 139 145 150 148 92 97 150 175 186 192 110 86 84 94 223 250 255 204 194 138 146 193 247 237 123 174 126 167 210 225 223 132 181 179 130 205 219 209 146 179 109 113 155 179 173 90 126 133 104 166 164 162 157 149 128 124 127
73 76 76 78 79 80 81 80 83 82 80 77 96 99 99 103 107 109 110 70 62 84 103 130 137 140 84 82 86 113 91 175 181 110 139 85 115 210 242 250 165 148 159 181 229 237 226 105 111 129 108 200 213 213 128 129 176 150 209 211 197 98 143 124 93 177 173 163 80 92 108 123 156 152 149 146 133 123 120 122
73 73 74 74 76 78 80 81 82 82 82 74 91 97 98 99 101 105 74 94 62 69 88 90 131 126 94 85 106 76 146 166 173 117 87 161 120 195 229 237 184 161 171 140 226 223 214 119 124 96 102 190 197 198 135 137 163 169 205 206 196 178 152 115 151 166 163 157 130 147 149 146 144 143 137 136 118 113 110 114
71 73 72 75 74 76 78 78 80 81 80 75 86 92 95 95 98 100 97 69 83 88 73 117 125 127 114 97 79 87 148 156 160 149 142 160 171 202 220 227 231 235 225 213 217 211 204 191 185 182 183 181 181 182 182 186 186 194 194 193 188 181 176 167 161 156 151 148 146 143 139 136 131 130 127 117 109 108 105 111
70 70 72 74 75 77 77 76 79 78 79 77 77 89 89 91 95 96 98 100 84 72 111 115 120 124 127 127 128 137 143 148 152 161 165 172 182 192 204 215 225 225 218 212 204 196 188 183 176 171 167 165 165 165 166 167 169 176 175 175 171 166 160 152 144 141 139 134 132 129 124 125 120 117 115 111 105 103 102 106
70 70 73 72 73 75 76 78 77 80 78 77 74 84 88 90 90 92 96 98 101 103 107 108 113 116 119 123 125 129 135 140 140 147 153 161 166 177 188 200 204 206 202 195 191 178 171 164 159 156 152 149 151 150 148 149 154 154 156 155 157 149 147 140 133 130 127 123 120 117 116 114 113 109 108 105 103 101 99 105
69 69 71 71 72 73 75 75 76 75 78 78 74 82 84 86 88 87 92 92 96 98 101 103 107 108 112 112 117 121 124 127 128 133 138 144 149 158 166 176 181 182 180 173 165 162 153 149 145 141 139 138 135 136 136 138 138 142 140 139 137 134 129 123 121 117 115 113 111 111 110 108 106 104 104 102 100 98 96 102
67 69 69 70 70 72 73 75 75 75 74 78 75 78 80 83 84 85 86 88 92 92 96 98 102 104 105 108 109 113 113 117 120 125 123 127 131 137 138 143 144 141 142 137 136 135 136 134 129 130 128 127 125 124 124 123 120 121 122 121 121 118 115 117 114 115 112 112 111 110 107 105 105 103 103 100 98 95 92 97
66 67 68 70 68 71 71 73 74 74 76 76 77 76 79 80 82 81 84 86 89 89 91 93 94 98 98 101 101 103 106 109 111 113 115 116 121 123 123 126 127 130 128 130 130 129 129 128 128 126 122 124 122 120 122 120 120 117 117 117 116 115 115 115 113 112 109 107 106 106 106 103 104 102 99 98 94 91 89 96
65 65 66 68 67 68 70 70 72 73 74 74 74 76 76 79 78 81 82 83 86 86 91 93 98 96 100 99 103 103 116 108 110 112 114 116 118 120 124 122 127 126 128 128 126 128 126 125 123 123 121 121 118 118 117 117 115 113 114 114 114 111 111 111 110 108 109 108 107 105 104 103 100 99 97 96 93 91 88 92
63 66 67 66 67 67 68 69 70 71 72 74 72 76 75 78 78 79 81 82 83 85 92 94 97 99 99 99 101 101 102 103 108 108 111 114 115 118 117 118 124 122 125 123 124 125 122 122 122 121 118 117 118 115 117 113 112 113 113 111 109 111 111 108 108 108 105 104 106 105 105 103 101 98 96 93 92 89 86 91
63 63 64 65 65 66 68 69 69 70 71 68 72 74 75 77 77 79 79 84 84 86 88 91 94 96 97 99 98 98 100 102 104 104 109 109 112 116 116 118 121 123 123 126 125 124 122 119 121 119 117 116 115 114 113 112 111 112 112 110 108 108 108 107 108 107 106 105 105 103 102 100 98 97 94 91 89 87 86 90
61 62 63 63 63 65 65 68 68 69 70 70 71 72 73 74 76 75 80 81 83 87 87 91 91 93 94 97 96 95 95 99 101 103 107 109 110 115 116 118 122 124 124 123 125 124 124 121 118 119 118 116 115 114 111 111 108 109 109 109 107 106 106 104 105 104 105 103 102 102 100 98 97 96 96 91 89 86 83 88
61 61 61 63 63 64 65 66 67 67 70 68 70 71 71 73 73 76 77 82 83 85 88 86 88 92 91 93 95 94 94 96 100 101 105 106 108 113 114 115 120 121 122 120 121 122 121 118 119 116 113 112 111 111 107 107 107 107 106 108 106 106 105 104 105 106 102 104 102 103 100 100 100 94 92 89 86 83 81 86
60 61 61 61 64 64 64 65 66 67 67 69 70 70 70 71 73 75 75 79 83 82 84 84 86 89 89 91 91 92 93 94 96 98 102 105 107 108 112 114 117 119 119 123 121 120 119 119 118 114 113 111 110 106 108 104 107 105 105 103 103 104 106 106 104 105 105 101 101 98 97 96 91 91 86 84 83 81 80 85
59 60 61 62 63 63 64 63 66 65 66 67 68 69 70 70 71 73 77 79 80 81 83 81 85 86 88 90 90 89 92 93 95 99 102 104 105 109 112 115 118 118 119 121 123 124 122 117 116 113 113 112 110 108 107 104 105 104 104 104 104 105 103 101 102 101 99 96 96 94 91 89 87 85 83 82 78 78 77 83
60 59 60 60 62 60 63 62 63 66 65 67 67 66 68 69 71 73 74 77 79 79 79 82 83 84 86 85 87 89 89 91 94 97 99 101 107 108 111 114 116 117 118 120 130 127 120 118 118 114 110 109 107 106 105 105 104 102 103 102 102 99 98 98 98 95 95 92 91 89 87 85 83 82 78 77 75 75 74 82
57 59 59 61 60 62 62 63 64 65 65 66 67 67 67 69 70 71 74 77 75 78 80 81 82 85 87 84 84 87 87 91 94 95 95 98 103 105 105 107 108 114 113 114 121 121 120 110 107 107 107 103 102 100 101 99 100 97 98 98 96 97 94 92 90 91 89 87 86 83 82 81 80 78 77 77 75 74 73 81
59 58 58 58 60 61 61 62 63 64 64 64 65 66 67 68 69 71 72 76 77 78 78 79 81 84 83 82 82 84 87 88 89 90 93 94 96 97 99 100 104 106 106 112 122 120 119 107 103 103 101 98 99 97 96 96 97 92 94 94 92 93 90 88 88 86 86 83 83 82 78 77 76 77 74 73 73 70 70 76
58 59 60 58 59 58 60 60 62 63 63 63 63 62 65 65 68 69 70 73 75 77 78 79 80 81 79 81 80 82 83 83 85 88 89 91 92 92 95 95 96 98 100 100 107 109 108 102 101 99 95 94 94 93 93 92 91 91 89 90 90 87 87 86 85 83 81 82 80 78 78 77 75 76 73 71 69 66 66 74
57 58 58 59 59 60 60 61 62 61 62 62 62 63 64 63 66 66 69 71 73 75 76 78 77 76 76 76 77 79 80 80 81 82 84 86 88 88 89 92 93 95 97 100 102 105 102 97 97 95 92 92 91 90 89 89 89 88 87 86 84 83 83 83 83 81 81 80 79 78 76 75 72 68 68 67 67 68 67 76
56 56 57 58 59 59 59 61 61 61 61 61 63 63 64 64 64 65 68 68 70 71 72 73 74 74 74 73 74 76 76 77 79 80 81 81 84 86 84 88 91 92 97 99 105 103 103 96 96 91 90 90 90 86 86 86 85 84 84 83 83 82 82 81 80 79 77 76 73 71 68 69 69 70 70 68 68 67 67 75
54 55 56 56 57 58 59 60 59 60 59 60 60 62 62 63 64 64 63 66 67 69 70 68 70 70 71 73 73 74 74 76 77 75 79 80 80 82 83 84 88 91 96 99 107 106 100 96 93 91 87 87 85 84 84 84 82 81 80 80 80 78 77 74 74 73 71 68 71 71 69 72 71 69 72 71 69 69 68 76
54 54 56 56 56 56 56 55 56 57 56 59 59 61 61 61 63 63 63 64 65 67 67 67 66 68 68 70 70 71 72 71 73 75 76 78 79 80 83 83 85 86 92 97 124 132 122 91 88 86 84 83 81 80 78 79 77 75 73 72 71 70 70 72 70 71 71 71 74 70 72 72 71 72 71 71 69 68 70 77
