P2
80 80
255
108 102 104 106 105 110 111 111 113 111 114 118 119 121 124 126 126 126 130 129 131 135 135 138 137 141 146 146 148 146 149 149 155 154 159 159 159 161 157 160 160 158 159 157 161 163 164 166 160 164 158 159 157 155 154 153 157 158 153 152 151 150 147 148 146 145 145 144 142 140 142 140 136 136 138 136 136 136 132 136
102 105 106 107 109 108 110 114 115 116 117 120 120 120 122 124 123 127 128 128 131 133 134 137 136 138 140 146 146 147 147 148 150 152 152 155 154 157 159 157 159 161 163 163 166 166 167 166 165 168 168 164 159 164 160 154 157 157 157 154 153 154 151 151 147 147 145 144 145 142 144 141 138 140 139 137 141 133 132 141
100 105 104 106 107 108 114 114 115 115 115 118 120 121 124 127 128 128 129 133 136 134 135 139 142 138 143 145 148 145 149 150 152 154 154 157 158 158 161 161 160 160 161 164 166 168 167 170 170 169 167 166 167 165 163 162 165 163 159 162 158 156 154 153 148 148 147 149 145 147 145 143 140 138 138 140 138 135 133 141
102 102 104 107 108 110 110 113 114 117 116 120 117 120 122 125 127 130 131 134 136 138 140 141 141 144 144 146 151 150 154 156 156 158 158 157 159 160 162 162 162 163 165 167 166 167 171 166 170 167 168 167 166 167 164 166 166 165 162 164 164 161 163 157 153 154 149 151 148 148 146 145 142 142 140 137 140 139 137 143
101 102 104 107 107 110 112 112 115 114 116 113 114 114 111 111 107 110 114 115 118 121 121 126 126 124 123 127 130 128 129 128 130 128 133 135 139 140 146 151 156 159 159 162 166 168 169 171 166 166 164 168 168 167 164 166 165 168 169 164 165 161 163 159 158 156 154 154 152 150 152 151 146 141 139 142 142 140 138 146
101 103 105 106 105 103 103 100 100 105 109 115 116 121 123 122 124 124 126 129 129 133 132 135 132 134 137 140 140 139 140 142 142 144 145 146 145 147 148 147 149 148 148 148 147 146 141 140 137 139 143 149 152 160 163 164 167 167 166 164 166 165 161 162 160 157 155 154 156 155 151 149 148 147 144 141 143 139 142 146
95 90 93 100 105 107 110 112 118 114 117 121 122 121 124 123 127 129 129 131 132 135 136 137 136 137 137 139 140 143 146 144 147 147 148 147 149 149 151 148 152 152 152 153 152 153 151 152 149 148 145 145 143 145 143 141 140 142 151 156 162 161 160 159 158 159 157 159 155 158 158 152 150 149 147 145 148 145 143 149
101 103 106 108 108 110 113 114 116 117 119 119 121 123 126 130 128 130 133 132 132 137 137 137 140 138 141 143 143 143 145 144 148 149 149 152 149 152 152 149 153 154 155 157 154 155 154 153 151 151 149 149 148 147 148 150 151 151 152 149 145 141 135 139 143 151 155 158 157 159 158 157 155 155 152 150 150 149 144 153
104 105 106 108 110 112 112 115 119 119 119 121 124 126 126 128 130 133 133 133 135 135 138 142 140 142 143 144 143 147 147 149 147 147 150 151 152 151 152 154 158 156 159 158 159 161 158 155 154 151 150 147 147 148 151 149 154 153 152 150 144 145 145 143 142 142 139 138 141 149 156 159 158 154 154 155 152 150 146 152
104 108 108 109 110 111 116 118 121 118 122 121 125 125 129 131 132 133 135 136 136 139 141 141 141 143 143 146 146 150 147 149 150 150 152 150 153 154 156 158 160 159 160 162 160 161 158 159 155 155 151 152 148 150 151 151 154 155 149 150 148 145 145 144 142 143 145 145 146 144 142 141 142 150 153 157 151 152 146 158
104 107 108 109 113 113 114 119 120 119 120 125 125 127 129 131 132 133 136 136 136 140 139 144 141 144 146 148 148 149 154 150 151 153 150 156 155 159 161 166 165 164 163 163 166 162 160 161 158 157 153 152 152 152 157 155 154 156 153 152 150 148 146 145 144 146 145 145 148 146 146 145 142 144 140 135 139 148 146 156
105 108 109 111 115 113 115 118 122 124 123 125 127 126 130 132 132 134 135 136 140 141 141 141 145 147 146 150 150 150 154 152 153 153 156 159 155 158 159 161 161 165 161 167 164 164 164 160 161 159 159 159 157 153 156 157 155 156 156 152 154 151 151 148 148 148 148 148 149 149 148 145 146 146 144 141 138 137 133 145
106 108 110 112 113 116 118 120 120 122 124 125 126 127 130 133 135 139 139 130 132 139 143 145 149 148 148 151 152 153 152 153 154 153 155 158 157 160 162 163 162 163 165 165 168 167 168 165 164 164 160 164 163 160 159 157 158 157 157 156 156 154 153 150 152 150 150 151 153 152 147 147 147 145 142 143 140 140 137 144
106 109 111 113 114 118 119 118 114 107 103 97 92 91 127 135 135 138 138 109 71 67 86 123 145 149 152 151 154 153 155 145 117 82 75 154 162 165 163 164 160 98 147 168 168 170 170 165 165 164 165 163 154 124 158 161 161 158 157 159 157 155 155 153 152 155 153 155 154 154 150 149 147 145 140 140 142 140 138 143
108 109 110 114 116 116 121 118 76 87 70 94 109 71 119 132 137 137 137 95 115 138 128 69 67 94 151 152 152 105 71 72 108 77 91 150 161 165 166 164 146 101 68 72 107 161 170 173 170 170 167 126 70 80 154 164 163 161 161 130 115 146 155 153 153 156 153 156 153 151 152 152 149 147 145 143 142 140 139 144
107 110 114 116 114 118 121 121 81 98 83 119 106 61 114 135 137 139 139 83 65 100 87 108 97 100 152 153 153 118 114 68 79 68 124 121 161 166 167 163 117 134 90 90 58 65 165 174 172 156 78 84 80 61 130 164 162 162 159 90 87 75 96 140 153 156 156 154 145 125 128 152 150 147 148 146 141 143 140 142
109 110 112 115 117 120 120 121 90 58 96 83 65 79 107 134 138 142 140 76 112 54 69 69 87 114 154 157 156 148 76 66 65 140 97 85 164 167 170 169 88 137 127 116 59 73 173 175 169 71 65 142 122 61 84 164 164 163 152 81 128 83 66 83 154 157 117 72 78 57 99 151 150 150 146 122 116 140 138 147
109 112 114 116 117 120 119 123 100 71 77 70 63 86 95 135 139 143 138 73 113 55 81 104 63 129 153 157 158 156 73 102 62 143 93 65 164 168 169 169 80 139 159 111 64 106 176 177 176 108 127 127 72 102 90 155 168 165 126 67 111 74 84 119 163 162 120 88 80 79 92 153 153 138 77 84 104 140 142 146
109 111 113 115 120 119 120 123 111 60 59 91 93 116 83 137 141 143 141 67 86 72 118 75 57 140 156 158 161 162 111 125 95 116 78 91 151 171 174 160 62 120 85 120 58 149 179 178 180 160 85 163 127 83 61 133 168 163 87 70 106 123 105 151 164 163 132 105 96 100 98 153 152 98 119 96 72 133 142 148
110 112 115 116 119 121 125 124 120 63 59 63 66 70 83 136 142 146 145 144 133 97 68 63 60 148 156 161 164 165 150 61 99 77 69 105 159 175 176 164 89 76 113 63 60 173 180 182 185 178 94 132 92 75 158 177 175 166 79 94 90 107 86 166 169 168 143 81 117 75 79 153 154 110 93 89 77 124 144 152
109 114 115 117 118 121 124 128 127 129 129 132 132 135 139 143 143 146 147 150 152 150 152 141 120 154 163 160 165 165 167 92 121 154 167 171 175 176 179 180 179 170 145 90 84 182 183 187 188 186 136 64 125 179 183 185 184 179 172 157 108 69 132 174 173 170 147 92 61 76 119 161 157 135 85 87 71 123 147 152
107 113 117 118 120 123 124 129 128 131 132 135 138 139 141 144 144 147 149 153 154 156 157 157 161 161 166 163 169 168 171 168 170 177 174 176 180 181 182 186 187 188 187 185 184 191 192 192 193 190 180 178 187 187 188 185 187 185 184 180 181 172 174 174 174 175 165 155 162 166 164 163 162 148 75 83 145 151 146 156
103 113 115 120 120 121 125 129 128 132 133 135 137 140 141 144 146 146 149 151 153 156 158 159 164 163 166 168 168 171 170 173 175 178 178 181 181 182 185 188 192 192 193 193 193 192 192 193 194 195 192 194 193 191 194 192 191 188 187 187 185 184 184 183 180 177 176 173 171 170 169 168 165 158 152 158 156 150 151 157
98 114 116 120 122 124 127 129 130 133 135 133 135 140 143 144 146 151 154 151 154 157 156 161 165 166 169 169 172 173 175 177 176 178 181 182 183 186 194 191 194 189 192 192 195 195 195 195 197 197 194 196 194 195 195 193 190 190 192 187 185 186 184 184 183 178 179 175 173 172 168 167 166 163 160 160 159 155 152 157
93 114 120 119 122 123 126 128 132 136 132 79 73 128 144 147 150 151 152 155 156 147 72 118 161 166 171 174 176 176 176 178 177 175 163 175 185 191 193 192 194 193 192 196 197 199 196 198 199 195 191 194 193 195 194 199 195 194 192 176 97 166 185 185 183 182 168 115 172 174 173 172 170 164 148 156 160 155 155 160
87 116 119 121 123 125 126 128 132 134 122 60 52 53 79 135 149 151 155 156 155 115 112 123 73 144 168 175 177 176 169 142 105 80 63 115 190 193 196 196 111 94 91 89 90 188 203 201 195 90 79 78 75 96 192 200 200 193 132 104 148 135 192 193 189 180 99 69 96 165 173 174 168 129 92 136 160 159 154 162
84 112 117 121 122 123 129 129 129 133 98 59 70 54 53 62 89 148 157 157 152 82 80 124 88 56 86 165 179 177 117 68 107 161 82 78 191 194 194 198 95 184 108 87 112 188 202 205 195 86 153 142 162 116 202 203 184 84 106 145 118 112 188 192 189 137 85 160 96 90 166 174 134 67 73 100 156 161 160 166
79 110 118 120 124 126 128 130 133 130 74 96 113 122 120 125 79 144 154 158 133 94 149 132 79 105 58 138 180 183 164 104 169 142 99 108 181 195 204 200 96 143 173 80 73 199 206 211 196 78 74 157 106 122 207 207 185 85 104 121 84 110 173 195 174 72 110 132 71 110 178 145 89 121 124 76 136 166 161 167
77 101 119 123 123 129 130 130 131 118 77 79 104 91 123 68 106 152 156 157 100 65 154 147 112 145 78 170 182 185 186 80 108 85 182 87 152 200 205 207 85 125 160 152 67 205 214 213 188 142 134 71 107 150 209 210 200 104 78 95 100 82 170 193 141 70 115 83 86 172 180 173 113 115 122 101 163 168 165 168
78 95 117 120 122 126 127 130 131 134 118 68 79 75 125 82 134 154 158 160 155 106 85 92 98 89 122 179 186 188 187 125 150 114 150 61 104 202 206 207 93 148 137 118 96 207 218 214 182 154 179 167 78 172 216 213 208 156 106 122 128 198 203 202 196 161 73 62 153 187 186 182 140 113 101 163 170 169 166 169
78 86 117 120 123 124 128 135 133 134 137 139 122 68 55 85 149 157 159 163 165 166 162 99 98 90 164 183 186 188 188 177 94 87 100 156 199 208 211 210 115 99 103 106 127 217 219 218 197 162 168 178 187 218 220 218 217 198 107 194 211 212 210 208 205 199 182 150 192 195 189 185 178 132 169 174 174 173 168 173
76 81 114 120 123 125 128 130 134 138 136 142 143 145 130 124 152 158 161 165 166 170 171 174 166 129 180 188 189 192 195 192 182 196 204 205 207 212 211 215 217 221 223 224 223 225 225 226 225 226 226 230 226 225 224 225 221 223 219 216 214 214 215 208 207 203 201 199 199 196 193 188 185 183 182 178 176 173 170 173
76 78 105 119 123 127 130 130 132 138 142 144 147 149 152 153 154 160 162 167 169 174 174 177 184 185 187 189 191 197 197 196 204 208 207 214 214 213 222 224 225 229 226 231 230 232 234 233 230 232 232 232 231 232 230 227 229 227 223 221 220 218 219 214 215 212 205 206 204 202 199 195 189 191 188 182 181 179 174 172
76 77 98 121 126 128 127 134 139 140 141 145 145 149 153 155 159 163 166 169 171 173 179 181 184 190 190 191 196 198 203 202 210 209 212 216 220 222 226 228 232 226 231 234 233 240 237 241 237 236 233 228 232 236 237 235 232 226 225 219 224 228 222 221 166 122 177 205 206 205 197 149 135 132 158 186 187 180 178 170
77 76 89 120 125 130 132 134 136 142 142 147 147 147 96 112 158 161 167 169 174 176 178 180 180 169 141 191 198 202 206 206 207 198 100 185 222 229 228 233 232 109 110 221 239 244 245 247 233 181 98 102 204 243 241 238 112 95 79 134 156 229 228 214 105 166 150 92 178 207 183 128 94 91 147 193 187 181 179 171
77 77 82 116 124 130 131 135 137 140 144 147 146 105 77 58 87 152 165 168 172 174 140 96 64 65 111 163 199 204 205 201 143 73 145 99 217 231 231 240 201 85 131 117 147 244 248 228 130 205 144 89 186 246 246 231 141 140 113 113 185 234 232 181 113 168 151 122 208 215 158 100 93 135 171 196 190 186 182 167
77 76 77 107 125 129 131 136 138 139 141 144 116 83 69 67 87 72 143 166 171 174 91 90 122 163 76 99 202 206 206 90 111 91 162 82 147 234 239 236 111 170 117 158 73 230 251 242 106 98 164 141 167 251 249 226 146 107 152 100 207 241 229 117 85 162 160 175 218 212 150 139 73 95 189 199 194 189 179 167
81 76 77 98 122 130 132 132 139 140 140 129 82 112 87 133 122 104 64 135 175 179 151 118 93 80 64 87 187 208 210 174 144 179 117 84 72 210 240 186 153 209 240 111 159 251 255 253 129 123 165 141 148 252 253 210 133 142 104 143 231 240 226 136 88 119 145 218 226 214 134 107 110 150 201 200 196 191 177 165
87 78 75 88 120 127 131 134 137 142 143 143 118 66 88 119 129 68 100 165 173 180 179 93 120 185 131 126 135 208 216 214 127 65 100 76 163 233 243 245 192 119 226 130 245 254 255 255 141 76 131 220 255 255 255 238 211 221 229 242 252 249 247 242 234 223 223 231 227 226 219 217 209 209 203 202 198 194 174 168
91 78 75 78 114 125 132 133 138 142 141 146 146 142 93 114 84 92 160 176 178 180 184 147 64 85 110 175 207 214 217 220 215 85 112 221 236 246 248 248 252 251 183 210 255 255 255 255 255 255 255 255 255 255 255 255 255 255 255 254 253 253 248 247 245 242 237 236 227 225 219 221 214 213 208 204 198 191 168 168
94 82 75 76 103 124 128 134 135 138 142 146 146 152 150 122 90 156 168 173 177 183 184 186 181 196 202 205 209 214 218 223 223 223 232 235 239 245 250 254 255 255 255 255 255 255 255 255 255 255 255 255 255 255 255 255 255 255 255 255 255 254 252 245 208 240 241 238 236 217 192 214 218 215 212 209 205 192 165 168
92 85 74 74 93 125 128 131 136 139 144 144 150 152 155 159 162 164 171 172 177 179 185 189 191 195 197 206 209 218 217 224 226 233 235 242 245 249 253 253 255 255 254 255 255 255 255 255 252 208 255 255 255 255 255 255 238 162 153 254 255 255 248 156 108 162 240 237 229 167 177 127 108 207 215 209 206 184 161 169
90 90 78 73 82 118 127 132 133 138 143 146 149 150 155 158 161 164 169 173 177 183 188 188 192 177 198 207 211 216 222 226 224 223 225 229 234 254 255 255 255 208 100 153 255 255 255 255 139 133 89 219 255 255 213 150 126 143 145 251 255 242 161 131 78 110 194 247 220 131 151 99 153 218 220 213 210 177 164 167
91 93 83 75 74 109 126 129 135 138 141 146 147 150 155 158 140 80 128 170 178 180 187 188 168 102 78 139 207 219 224 226 138 107 105 115 123 250 255 247 122 212 137 142 239 255 255 221 172 210 86 143 248 255 234 135 128 170 144 248 255 178 115 142 146 121 211 240 178 131 131 156 202 222 219 217 205 172 162 166
89 92 85 74 73 97 124 130 133 138 139 142 147 151 145 94 80 120 98 136 176 181 185 185 99 117 94 95 121 155 222 227 155 104 81 177 100 250 255 247 101 99 225 112 121 255 255 143 184 116 135 198 255 255 249 176 142 75 99 244 255 255 152 107 157 225 249 246 224 159 113 162 225 225 216 216 198 168 159 162
89 91 91 79 74 84 120 126 133 133 139 137 145 135 74 99 127 125 97 87 146 178 180 163 79 119 169 99 71 206 224 230 172 119 203 137 131 254 255 255 199 164 219 119 243 255 255 255 149 92 144 255 255 255 255 135 179 241 255 255 255 255 254 182 239 253 251 247 244 240 236 232 226 228 220 215 187 163 156 164
88 91 92 86 75 76 111 126 127 132 139 137 143 148 124 105 142 130 137 104 87 171 183 151 90 109 113 158 138 217 228 229 192 91 100 110 140 255 255 255 255 138 212 255 255 255 255 255 255 255 255 255 255 255 255 255 255 255 255 255 255 255 255 255 255 255 252 251 244 239 237 232 229 227 225 214 180 159 157 160
89 88 90 88 76 72 98 124 127 132 134 138 143 146 145 124 105 123 77 119 169 179 183 184 188 179 129 89 204 218 231 230 235 237 247 252 255 255 255 255 255 255 255 255 255 255 255 255 255 255 255 255 255 255 255 255 255 255 255 255 255 255 219 193 249 252 246 240 207 142 169 233 232 225 223 210 171 158 152 151
87 88 88 88 81 74 85 118 122 130 131 134 137 143 147 146 125 98 154 165 170 178 181 186 191 196 201 206 209 219 224 231 243 245 251 252 255 255 255 255 255 252 255 255 255 255 255 255 255 225 194 255 255 255 246 192 114 140 255 255 254 205 142 145 179 245 231 152 99 94 133 228 228 224 218 200 161 154 150 151
87 86 87 89 83 73 76 111 120 126 130 130 136 140 145 147 150 156 161 164 169 176 180 188 193 194 199 201 208 218 222 235 241 244 231 129 249 255 255 255 254 99 141 197 255 255 255 141 99 158 154 255 255 255 127 208 156 117 251 255 176 108 171 141 101 210 230 115 166 200 163 206 227 223 216 185 154 147 143 147
85 86 86 88 87 76 73 98 118 121 125 131 132 138 139 144 148 151 155 160 165 170 177 182 185 190 155 74 138 214 224 231 233 150 110 168 143 255 255 255 164 190 152 160 158 255 255 105 183 182 136 252 255 255 139 222 198 174 240 255 216 111 128 131 200 231 227 156 104 152 210 218 217 214 208 170 152 147 140 144
84 86 86 84 87 82 73 85 114 117 122 126 130 135 137 140 122 102 90 83 77 150 172 178 169 85 97 127 79 161 218 229 154 169 173 171 92 193 255 247 185 212 180 173 255 255 255 165 199 206 141 234 255 255 148 108 154 208 249 250 244 205 115 203 227 225 220 212 193 209 213 215 205 206 192 156 145 139 134 137
82 85 84 85 85 85 74 76 107 116 120 122 127 130 132 135 87 88 76 64 60 133 166 174 134 122 161 167 157 117 197 221 224 130 121 147 136 241 255 255 248 150 87 203 255 255 255 239 202 252 255 255 255 255 254 253 254 252 248 243 237 231 225 223 218 217 211 208 204 205 201 200 200 197 172 150 140 136 132 133
82 82 83 84 85 84 78 73 95 110 116 116 122 124 128 133 102 82 78 69 99 118 163 168 170 125 132 154 94 172 211 219 228 216 114 183 255 255 255 255 255 255 255 255 255 255 255 255 255 255 255 255 255 255 255 255 252 247 239 235 216 207 208 210 205 202 188 149 112 159 190 190 188 184 156 139 136 128 127 127
81 80 83 83 85 84 82 72 85 105 111 113 119 120 125 128 111 74 74 79 72 104 153 163 170 167 121 118 186 196 205 212 222 228 237 251 255 255 255 255 255 255 255 255 255 255 254 249 248 241 247 254 254 234 192 170 154 210 230 217 163 155 113 117 188 180 96 139 115 149 180 175 171 168 142 135 130 124 121 123
78 80 81 83 83 83 83 76 76 99 107 110 112 116 120 122 119 109 118 129 137 145 150 155 162 168 171 180 184 193 199 207 216 222 233 244 250 255 255 255 250 155 172 207 244 253 241 143 143 163 150 238 246 201 176 186 129 191 213 193 142 131 103 137 183 168 97 116 127 141 167 163 163 149 132 128 121 116 115 117
77 79 80 80 84 80 83 80 72 91 100 106 108 110 114 119 120 125 128 132 136 140 143 149 155 160 163 147 166 181 189 198 205 156 113 109 106 227 255 255 204 175 123 119 201 238 226 127 140 154 145 223 231 192 165 185 151 204 209 161 107 135 118 161 173 165 98 121 150 157 155 152 147 133 123 118 114 111 110 112
76 78 78 81 80 83 82 82 74 81 98 102 102 106 109 113 116 117 124 110 113 128 137 143 146 150 111 111 100 116 154 185 193 122 162 99 122 213 253 255 178 131 131 154 219 225 214 119 110 86 133 212 212 187 161 183 181 201 202 192 177 166 151 163 162 157 153 150 150 146 142 138 131 120 117 113 109 108 104 108
76 76 78 78 81 81 80 81 77 75 92 99 99 104 106 106 111 114 98 56 80 91 122 134 138 138 66 73 100 81 126 173 182 126 117 164 128 202 245 249 187 145 132 130 216 213 204 177 178 180 189 194 197 201 200 200 203 194 188 181 171 164 159 154 148 145 142 138 134 131 128 123 119 113 111 107 105 103 99 104
76 75 78 77 80 80 82 79 80 71 87 94 96 96 102 102 106 96 80 76 62 78 78 122 131 97 103 102 79 79 152 166 172 134 106 146 173 214 236 237 235 228 215 208 205 200 196 185 182 181 181 178 180 181 181 181 180 178 174 164 157 150 145 137 134 131 129 125 124 119 118 115 111 110 108 103 100 98 96 99
73 74 77 76 77 79 79 79 80 73 79 89 93 95 97 98 101 83 67 73 84 73 103 121 125 128 118 98 86 125 151 159 162 169 175 185 200 210 221 225 223 220 208 201 189 184 176 173 168 166 162 161 161 157 162 162 166 161 156 151 146 138 134 127 124 119 118 118 114 114 112 110 108 106 105 102 100 96 91 96
72 73 75 75 76 77 78 79 81 77 73 87 89 91 94 95 97 101 96 76 63 94 114 117 122 123 127 131 129 137 143 151 154 160 165 176 183 196 203 209 207 198 191 179 172 164 159 155 151 147 144 144 143 146 143 142 140 137 134 125 125 121 120 120 118 118 116 116 111 110 111 107 105 102 100 99 94 90 88 92
71 72 74 75 75 75 78 79 78 77 71 83 88 88 90 94 95 95 101 104 99 105 111 114 115 117 122 123 126 129 133 136 138 145 151 156 167 174 181 183 184 179 170 160 154 147 142 142 138 132 130 129 128 127 126 125 122 125 121 121 121 119 116 116 115 115 113 110 110 108 108 104 101 101 99 94 91 88 86 91
71 71 73 74 75 76 76 77 78 77 73 76 83 87 89 89 92 92 96 96 100 101 105 106 109 111 114 115 117 119 123 125 128 131 135 140 145 150 149 146 142 137 135 132 135 133 135 134 132 129 126 127 127 126 124 121 122 119 122 118 117 117 115 114 113 112 109 109 107 106 105 101 100 100 95 92 89 87 84 88
71 70 72 71 73 74 74 75 75 77 76 74 81 83 84 87 89 89 92 93 94 96 98 102 104 105 105 108 109 106 111 116 115 115 118 121 123 126 127 126 129 130 130 129 131 130 129 129 128 126 124 124 122 122 120 119 120 116 118 115 114 112 113 115 111 111 108 108 105 106 103 101 100 96 94 90 86 84 82 89
69 70 69 72 73 72 74 73 76 76 77 71 77 79 82 83 84 86 88 89 90 92 96 99 100 100 100 101 102 105 117 109 111 112 115 118 119 120 126 123 127 128 128 128 128 126 126 125 125 125 122 118 120 117 117 117 116 115 114 116 113 111 112 111 112 108 109 107 105 105 101 99 95 95 93 89 86 84 81 86
67 68 68 69 70 71 72 72 75 75 75 76 77 77 78 79 81 82 83 84 87 90 94 94 99 100 102 103 101 104 104 103 107 110 113 115 119 119 119 121 123 124 124 125 124 125 123 121 121 121 118 118 118 116 116 112 115 113 112 113 110 113 112 109 109 107 105 105 106 103 102 101 97 92 92 86 84 83 78 84
66 67 67 67 69 70 72 74 72 73 74 72 74 75 77 78 80 82 83 84 88 92 93 95 96 97 100 102 101 102 102 105 105 105 110 110 114 117 117 120 121 122 124 125 125 124 124 121 119 122 118 118 116 116 111 113 114 112 110 113 110 110 110 108 107 108 107 107 104 101 99 95 96 89 87 85 82 79 77 80
64 66 66 67 67 68 69 70 73 73 74 75 75 76 76 78 78 81 80 84 89 90 92 93 95 95 97 100 101 100 98 100 103 104 109 110 113 116 116 119 120 123 124 124 124 122 120 120 120 119 117 116 114 113 111 111 109 109 111 109 109 108 108 107 109 106 106 103 101 98 94 92 88 87 83 83 78 77 75 82
63 64 65 66 66 67 68 69 70 71 72 71 73 75 74 75 77 79 81 84 84 87 89 90 91 95 96 97 95 96 97 99 102 103 107 108 113 113 116 117 119 119 120 121 120 121 119 119 116 117 112 112 111 111 108 109 110 110 108 109 108 110 107 104 103 102 99 98 94 92 91 89 85 83 80 77 76 75 73 79
63 63 63 65 66 67 67 67 67 69 70 71 72 73 73 75 76 77 78 81 83 85 85 88 87 89 93 94 94 93 95 97 100 102 105 106 109 112 113 115 117 120 119 121 120 122 121 118 118 116 114 112 113 106 107 105 106 107 106 105 104 104 102 101 98 97 95 93 91 88 86 85 81 78 76 76 73 73 73 77
61 62 63 64 65 64 66 65 67 67 69 70 71 70 72 73 74 74 79 80 81 83 83 86 87 88 90 91 90 92 93 95 97 99 101 104 106 109 110 112 115 118 120 121 122 124 120 118 119 118 115 112 109 108 106 105 103 104 104 103 100 98 95 94 94 91 90 88 85 82 81 79 78 77 75 73 72 69 69 75
62 62 64 63 64 62 64 65 65 67 68 69 68 69 71 70 73 74 77 78 80 81 81 84 84 85 88 87 88 90 91 93 95 97 101 105 107 106 112 114 116 116 115 117 118 115 115 114 113 109 107 106 104 102 102 101 103 100 100 96 97 94 95 91 90 86 87 84 82 80 80 79 76 74 72 70 67 67 69 77
60 61 63 64 63 64 63 65 66 66 67 68 69 69 70 71 72 73 75 78 79 80 81 83 83 85 89 86 88 88 91 92 94 98 98 102 104 106 106 107 106 110 110 110 111 110 110 111 108 105 104 102 102 99 98 97 98 95 94 94 91 93 91 88 87 87 84 82 81 78 78 76 73 69 68 67 68 68 67 77
60 60 60 61 63 63 64 65 64 65 66 66 67 68 70 70 71 72 73 78 76 79 81 81 83 85 85 85 84 85 88 90 92 94 96 97 97 99 101 101 103 102 105 104 103 105 110 108 106 102 97 96 96 94 96 93 95 91 89 91 89 86 87 86 84 85 82 82 79 75 71 70 70 71 70 69 70 69 69 77
60 60 61 60 61 61 62 62 64 65 65 66 66 65 68 68 69 70 71 75 75 77 79 81 82 86 83 82 84 85 85 85 88 90 90 92 93 94 94 95 98 96 98 98 99 100 104 102 101 98 95 93 92 91 91 91 90 87 87 87 87 85 85 84 83 81 78 73 73 71 71 72 70 71 71 70 70 71 69 80
59 60 59 61 60 61 61 63 63 63 64 64 65 65 66 66 69 69 71 73 75 76 78 79 80 79 79 78 80 82 83 82 84 84 88 88 88 90 89 91 91 92 94 96 99 99 100 101 99 93 93 90 90 89 90 90 88 86 85 84 84 81 81 78 75 74 74 74 75 73 73 73 75 73 72 73 72 70 71 78
58 60 59 61 60 61 60 62 62 63 62 63 65 65 66 66 67 67 69 71 73 75 74 75 76 76 76 77 76 78 80 80 82 82 82 84 84 85 85 86 89 88 90 93 96 97 101 102 102 96 92 89 89 88 87 85 84 83 80 77 75 75 77 75 75 75 73 78 76 77 74 75 76 77 74 73 75 74 72 79
58 58 59 60 59 59 60 62 61 61 60 63 63 63 64 64 66 66 66 69 69 71 71 71 71 73 74 75 75 75 76 78 77 77 79 80 81 82 82 83 85 86 89 93 96 99 100 102 101 94 90 87 86 81 78 76 75 74 73 74 76 76 76 76 78 78 78 76 79 79 78 78 77 77 78 76 76 75 75 82
57 58 58 58 60 60 59 59 61 60 60 62 62 62 63 63 64 64 66 66 66 68 68 69 70 70 71 72 71 72 73 72 75 75 74 77 79 79 82 81 83 82 85 86 92 96 113 112 101 87 80 78 78 76 77 75 74 75 75 74 75 75 76 75 77 78 80 80 82 81 84 84 80 81 80 79 81 79 80 83
