P2
80 80
255
105 104 103 103 105 108 109 110 112 112 114 116 118 120 123 125 125 129 130 128 128 131 133 137 135 138 143 145 145 144 150 147 152 153 155 155 157 158 156 160 161 161 161 159 163 163 164 163 164 164 166 163 160 158 157 157 154 158 156 156 153 150 151 148 147 148 146 145 142 140 139 140 137 137 135 135 132 133 132 137
99 102 102 104 107 109 109 112 112 114 115 118 120 120 122 126 126 126 130 129 130 133 134 134 136 139 140 144 144 146 144 147 149 150 150 152 156 155 156 157 159 160 160 165 163 167 167 166 166 166 166 166 163 164 162 162 163 163 160 157 159 159 156 152 150 151 147 145 145 143 141 141 140 140 136 133 132 133 133 140
99 102 103 105 108 110 111 110 111 115 116 119 122 120 123 123 125 126 126 130 132 137 135 139 139 139 139 144 147 148 150 151 152 154 153 156 155 159 160 160 158 160 162 165 168 169 170 164 165 166 167 165 165 164 165 164 164 163 160 163 161 159 159 157 155 153 152 151 150 148 144 143 141 138 140 139 134 133 134 142
101 101 102 106 107 110 114 113 111 113 117 118 118 119 124 127 127 131 131 133 135 134 135 138 141 144 143 145 148 152 153 155 155 157 157 159 157 159 165 162 163 163 162 166 164 164 169 166 168 169 168 164 166 168 167 159 162 165 164 166 161 161 162 158 157 157 155 152 151 150 146 146 147 146 143 139 139 136 133 142
101 102 104 105 109 111 111 114 115 116 117 119 120 120 122 123 126 127 129 133 134 134 137 137 140 137 132 132 133 133 132 130 131 134 134 134 139 138 139 141 140 145 143 147 147 149 153 153 152 156 156 162 160 162 162 163 166 167 165 162 164 160 161 157 157 156 157 156 154 152 152 150 147 144 143 144 138 139 137 145
99 102 103 104 108 108 111 112 111 117 116 117 118 119 116 111 109 110 112 118 122 126 129 130 131 134 135 137 139 141 140 140 142 146 145 145 147 147 148 147 148 150 150 149 150 152 153 146 149 145 144 144 144 141 140 141 137 138 142 144 152 158 158 157 158 158 156 153 153 154 157 154 151 150 150 145 144 143 138 149
98 101 104 106 108 106 110 107 106 102 103 107 113 117 120 122 124 125 129 128 130 132 136 136 138 138 136 141 141 143 144 145 144 147 144 148 149 151 149 149 152 149 153 154 153 156 152 150 148 149 146 144 146 145 146 147 148 150 151 149 146 145 141 138 138 136 139 146 150 149 157 151 151 151 150 150 148 147 143 151
98 101 103 98 96 98 104 108 113 115 118 117 121 123 125 126 127 128 131 130 131 134 136 136 141 140 139 143 143 143 145 144 146 146 148 149 147 151 150 151 152 155 154 156 154 154 154 152 151 149 149 146 148 147 147 151 152 149 152 150 147 147 142 144 144 141 143 141 137 136 133 139 143 151 154 150 148 148 147 151
86 93 102 106 106 110 113 112 117 117 117 121 124 122 126 128 130 128 130 132 133 135 136 139 140 140 141 143 144 145 145 149 146 150 149 150 153 154 152 154 153 155 156 157 155 160 155 152 152 150 148 148 147 147 151 152 153 153 151 149 146 145 141 142 145 145 142 144 143 142 142 142 140 136 135 134 141 147 148 153
69 96 106 108 107 111 112 115 117 118 120 119 122 123 127 127 131 131 134 136 135 136 138 140 141 141 144 141 146 147 148 146 150 151 152 153 153 156 155 158 155 159 159 161 158 159 157 157 155 152 152 150 148 151 151 155 152 152 151 150 146 147 146 142 144 141 147 144 143 145 142 143 142 139 137 139 136 132 129 139
62 94 106 108 109 110 112 116 116 119 119 122 124 129 128 128 130 131 135 135 137 137 136 143 142 143 145 145 147 147 151 148 151 152 152 157 158 158 158 161 163 162 162 161 164 161 162 158 157 157 153 151 151 154 154 156 156 152 152 152 151 151 148 145 146 146 146 145 144 144 144 146 143 141 139 139 136 135 134 141
62 92 107 109 110 113 116 119 118 121 123 124 127 127 129 131 131 135 134 137 139 140 139 141 144 145 147 149 149 149 153 154 152 154 154 158 157 159 161 161 162 163 162 163 164 165 164 162 160 159 156 156 157 157 160 157 156 155 155 155 153 150 147 147 148 147 145 149 147 149 146 145 145 143 141 139 140 137 133 141
65 89 105 110 112 114 115 115 119 121 124 125 126 129 130 132 133 136 138 136 142 141 143 144 146 147 146 151 153 153 151 152 153 153 154 156 157 159 161 161 161 160 164 165 166 167 166 164 165 164 160 160 161 160 150 157 156 156 157 154 154 152 152 149 150 151 151 151 153 149 149 146 144 146 143 142 140 141 136 143
68 90 108 110 113 114 117 118 121 120 121 124 127 128 129 134 135 139 137 139 122 94 124 141 145 147 149 151 153 154 153 151 148 123 84 130 159 162 163 162 164 112 89 136 162 167 168 169 168 165 166 166 158 92 69 157 159 160 159 158 156 110 140 146 150 153 153 153 151 152 150 147 145 144 142 142 140 137 139 143
72 84 110 111 112 115 117 119 122 123 102 97 86 80 71 117 137 139 136 141 106 104 93 69 73 106 143 153 153 153 119 78 74 76 127 90 163 163 164 162 164 79 122 89 66 82 129 168 169 170 165 132 70 66 82 130 160 161 161 160 148 65 87 80 121 148 154 154 154 151 144 135 116 144 147 143 143 141 139 146
74 83 111 112 114 119 118 118 122 120 67 106 66 120 106 96 136 137 140 140 92 122 140 117 69 88 127 155 151 152 69 101 106 77 113 73 161 165 165 163 161 76 98 148 73 58 88 171 169 167 82 58 91 103 57 75 160 162 163 160 115 117 127 62 62 83 154 157 140 74 71 58 62 139 146 145 142 140 122 126
77 81 111 112 114 117 117 122 120 121 67 88 104 116 82 81 136 139 140 141 78 74 62 63 102 62 141 156 156 157 88 126 57 121 133 71 152 167 169 168 154 106 93 131 103 56 130 173 173 167 65 127 129 126 112 83 149 164 165 160 74 74 127 82 66 125 158 157 137 89 93 64 62 137 150 146 134 75 75 102
78 81 110 115 115 118 118 122 124 124 71 70 70 71 66 68 137 141 142 142 72 114 55 121 95 70 148 157 157 160 135 70 59 95 106 61 126 170 170 172 127 135 114 152 77 57 163 176 179 176 110 77 147 76 63 64 106 165 165 153 62 82 70 129 90 159 162 162 145 95 83 128 106 131 150 142 80 109 92 75
78 78 110 112 116 119 121 122 124 126 84 99 60 104 88 64 134 142 143 140 69 132 62 68 63 61 152 156 162 164 156 73 95 145 98 123 85 169 173 173 89 76 133 92 94 67 178 180 181 180 163 86 168 100 101 78 159 166 165 117 64 143 76 95 83 165 167 162 154 80 116 77 67 120 151 148 81 111 76 72
78 79 110 114 116 119 121 122 124 125 102 56 68 65 102 68 133 142 143 144 108 75 63 96 71 66 153 159 162 165 167 82 74 117 62 77 123 173 177 175 135 83 77 84 56 100 180 184 182 180 176 90 74 73 133 174 175 172 169 162 135 85 70 60 140 168 167 168 160 78 66 56 64 124 152 148 116 94 87 72
79 78 105 115 117 119 122 125 125 128 124 91 97 104 110 116 134 143 148 148 148 148 144 129 91 85 158 163 164 166 166 133 78 125 158 169 173 177 177 181 182 176 171 148 99 154 183 185 189 186 181 152 91 174 183 182 180 179 175 178 175 173 163 140 170 170 169 168 162 98 130 153 156 159 155 153 137 58 59 117
78 78 100 116 118 123 123 128 127 127 132 133 133 136 141 141 141 145 147 149 152 154 156 154 158 158 160 164 167 170 171 169 169 173 174 178 177 180 183 185 183 187 189 186 184 188 190 189 189 187 189 183 185 186 187 184 185 184 183 179 180 178 176 177 175 176 171 174 168 168 164 164 163 161 159 156 148 98 142 153
79 80 93 116 118 122 123 128 129 131 131 133 135 138 139 142 143 144 147 149 152 156 154 155 162 161 161 166 167 171 172 173 176 177 181 181 183 180 186 186 186 187 190 191 191 193 191 189 191 192 189 192 190 189 188 190 185 190 185 184 180 183 180 177 177 176 172 174 170 171 166 165 165 165 161 160 156 152 151 159
78 77 86 116 117 123 122 126 129 129 132 136 135 142 139 145 148 148 148 152 155 158 157 158 163 165 164 168 170 175 176 176 178 179 180 183 188 185 190 189 191 192 190 194 193 196 199 196 198 197 194 191 193 196 192 196 191 191 193 192 188 181 154 181 182 181 178 179 177 154 168 166 167 167 162 158 158 154 153 159
79 79 82 115 120 120 124 126 131 132 131 137 133 96 135 143 147 150 148 151 155 157 154 95 157 166 170 171 173 175 177 180 179 180 174 165 184 188 190 191 192 192 190 194 193 194 197 200 198 197 185 183 179 177 173 194 196 195 192 187 171 81 83 176 183 185 180 179 164 63 98 167 169 166 169 163 155 84 152 162
80 78 82 112 120 123 124 129 131 130 134 134 118 56 57 100 144 149 153 156 155 159 127 108 77 119 165 170 176 173 177 168 147 98 76 63 186 192 195 194 174 86 83 79 77 92 202 204 198 189 65 98 96 79 81 193 199 198 190 110 111 148 144 140 185 183 184 176 78 137 120 80 163 168 167 159 77 103 107 162
82 79 79 111 121 121 125 128 130 132 135 137 82 56 52 52 59 117 151 154 157 156 80 122 138 75 66 146 176 178 177 67 105 95 136 63 167 193 197 199 173 153 155 129 131 98 200 206 201 184 115 148 161 179 91 196 200 195 75 110 84 83 138 88 188 187 183 120 63 165 76 81 105 172 162 78 60 105 91 157
82 79 80 98 120 121 127 127 132 134 135 135 67 115 123 75 104 78 136 157 160 147 88 119 127 74 67 62 170 184 181 87 156 147 136 155 119 196 197 204 173 149 135 156 74 106 205 208 206 174 85 77 137 78 106 203 203 199 118 62 154 80 87 72 182 190 169 60 143 106 93 72 169 173 125 97 149 141 77 121
84 80 79 89 120 122 126 130 132 134 137 118 85 61 83 109 86 75 148 158 159 109 75 163 128 128 122 97 180 185 186 152 86 84 171 151 74 197 204 205 175 64 178 117 89 121 212 212 211 157 173 124 69 140 137 208 208 206 181 66 152 120 90 123 194 194 177 80 117 58 62 158 179 178 165 84 97 127 97 167
91 80 79 81 118 124 128 129 130 135 136 131 75 68 91 130 118 108 154 157 162 153 78 117 106 94 68 155 186 186 188 184 91 101 143 77 64 193 207 211 179 133 123 167 146 137 214 214 216 140 155 149 138 67 171 213 213 211 203 88 86 97 191 201 200 198 192 185 120 60 115 183 182 183 179 146 109 98 166 171
92 81 79 80 115 121 126 127 130 133 137 138 141 132 75 55 60 139 157 161 164 164 167 147 73 131 85 176 187 188 190 193 96 114 78 125 185 206 208 210 189 103 109 117 127 183 219 220 221 195 188 195 203 207 218 216 216 216 212 159 179 208 207 207 204 200 199 197 191 169 187 188 187 184 178 173 127 172 168 177
96 82 79 77 105 121 125 125 129 136 134 141 142 146 146 136 92 149 159 160 166 168 170 174 176 143 144 184 188 193 193 195 182 191 201 202 205 212 212 217 216 219 218 218 221 224 228 224 229 225 227 229 223 224 222 223 218 219 215 215 217 210 209 205 206 203 200 199 197 193 193 188 189 186 183 180 177 173 174 176
95 87 77 77 91 121 127 130 130 134 137 140 143 145 139 150 154 156 159 164 167 170 174 176 178 181 183 188 192 196 196 197 203 205 207 211 212 213 214 223 223 222 223 230 225 229 229 228 229 224 228 228 226 229 226 224 225 222 222 219 216 216 217 212 216 208 206 202 201 200 195 195 191 191 185 185 180 179 176 180
93 93 78 78 81 120 125 130 131 134 136 140 142 147 152 151 153 158 161 162 167 171 174 178 180 184 187 188 194 198 201 201 204 206 209 210 215 219 222 222 223 225 223 228 230 235 233 234 234 235 232 228 222 225 229 235 231 227 219 215 215 207 217 218 216 214 177 90 148 190 198 199 192 188 134 130 129 146 176 183
94 93 79 77 76 119 126 129 133 136 139 140 144 147 150 134 84 152 161 165 169 173 178 179 179 178 162 155 195 198 203 205 204 205 153 105 214 221 225 226 229 201 71 169 230 239 239 238 236 219 153 83 108 211 238 237 231 156 79 79 109 125 204 221 221 211 92 141 182 87 102 199 198 162 139 82 76 133 181 186
93 95 85 78 76 108 124 131 134 135 140 140 144 148 142 74 67 64 145 166 170 172 172 129 85 61 82 81 191 200 202 204 186 79 144 127 178 227 231 234 230 96 112 174 84 209 240 247 169 161 191 140 73 191 240 243 234 130 159 144 84 105 219 227 222 195 107 136 172 89 183 207 201 123 105 78 154 170 185 190
93 93 93 79 78 90 125 129 133 136 140 143 143 144 81 95 64 86 70 124 170 174 173 75 105 143 150 59 166 202 207 171 109 95 148 149 74 222 233 233 190 172 149 129 89 106 246 247 212 121 77 178 158 163 244 246 239 117 119 145 93 94 230 231 220 102 80 122 192 106 208 206 200 101 128 72 81 187 185 189
93 93 95 82 76 80 121 127 135 136 137 143 142 104 105 78 127 134 121 61 129 176 176 146 139 92 76 80 91 203 208 207 95 198 173 76 77 134 234 236 99 141 234 219 75 235 251 253 243 143 101 169 152 135 246 248 236 112 106 123 150 135 234 232 218 96 88 94 159 187 214 212 197 88 84 68 99 190 191 193
93 93 96 86 76 77 117 128 132 136 137 143 145 144 112 64 131 114 84 97 168 175 180 178 75 135 182 83 89 197 211 212 204 67 94 67 107 221 238 244 226 116 181 218 169 253 255 255 252 82 73 114 201 248 255 255 241 165 173 184 195 223 240 241 238 230 226 203 162 223 214 215 210 204 198 200 197 197 194 196
91 93 95 93 76 77 104 129 133 134 139 140 143 150 150 141 84 115 85 165 172 175 181 182 137 69 98 156 199 206 213 217 222 167 79 194 232 239 242 245 249 249 228 121 250 255 255 255 255 245 255 255 255 255 255 255 255 253 254 251 249 248 243 239 239 235 233 232 224 220 219 217 214 211 209 202 202 199 195 200
89 92 94 95 79 76 84 127 131 133 138 142 144 150 149 156 154 109 156 169 173 179 181 185 186 188 195 199 205 209 216 216 221 223 229 236 236 242 245 250 254 253 254 255 255 255 255 255 255 255 255 255 255 255 255 255 255 253 253 253 252 251 247 244 241 240 230 231 230 226 223 221 214 207 211 207 202 201 197 199
88 89 93 93 89 75 76 120 132 133 136 142 145 147 148 157 159 162 163 168 173 175 182 188 191 190 196 200 203 212 215 218 227 225 229 234 237 242 249 252 255 255 254 248 255 255 255 255 255 246 250 255 255 255 255 255 255 254 243 192 238 253 252 249 242 201 81 179 233 233 228 217 123 100 130 183 206 199 197 202
90 89 91 92 93 78 75 112 128 132 136 140 143 145 152 150 158 161 157 163 174 178 182 183 190 186 154 198 208 213 218 222 226 221 218 215 220 245 253 253 255 248 144 85 250 255 255 255 255 104 97 136 253 255 255 249 146 101 119 118 207 253 254 242 177 90 101 77 211 232 228 205 86 189 111 115 210 206 200 207
88 89 93 94 93 81 74 94 128 133 135 138 144 148 151 152 154 115 71 86 164 178 182 186 191 118 151 67 138 206 219 223 221 76 127 147 157 229 255 255 183 115 236 130 133 255 255 255 167 108 229 74 122 244 255 247 106 118 189 130 183 255 254 150 178 145 88 182 103 233 228 129 104 136 95 199 209 203 200 203
88 90 90 94 94 88 74 80 122 131 134 137 140 146 147 136 79 118 142 89 97 174 179 186 179 86 148 75 166 89 214 224 222 87 84 118 87 222 253 255 141 84 144 206 83 235 255 244 193 174 107 88 170 255 255 255 147 228 87 75 153 254 254 216 83 111 148 111 228 234 215 109 149 168 135 213 211 211 202 205
86 89 90 92 93 91 76 74 117 128 130 134 140 142 145 127 87 112 115 151 136 115 179 182 119 119 113 180 90 137 217 223 225 83 129 178 189 222 255 255 254 99 159 139 144 255 255 255 187 115 91 128 255 255 255 255 113 86 108 176 243 255 255 253 203 77 156 238 240 238 231 224 201 155 207 211 211 211 202 204
85 90 89 90 91 93 80 74 100 124 129 129 137 139 142 146 127 112 98 99 76 130 178 183 176 125 84 155 103 206 220 225 227 103 111 116 138 230 255 255 255 223 132 246 255 255 255 255 255 255 181 253 255 255 255 255 254 255 255 255 255 255 255 255 252 234 244 244 244 241 234 234 227 225 220 217 212 209 204 195
86 86 88 89 88 92 87 74 84 120 127 130 136 138 142 146 148 122 99 98 161 170 176 182 187 190 190 163 157 210 221 229 231 235 238 245 252 254 255 255 255 255 255 255 255 255 255 255 255 255 255 255 255 255 255 255 255 255 255 255 255 255 255 254 252 247 246 246 241 236 233 226 212 218 219 218 211 209 205 177
84 86 87 88 88 91 90 76 74 114 123 129 129 135 142 143 147 153 150 161 166 169 176 181 188 190 197 202 207 211 220 224 233 238 240 248 252 255 255 255 255 255 255 255 255 255 255 255 255 255 255 252 255 255 255 255 255 244 202 254 255 255 255 246 155 123 239 244 237 232 215 120 139 209 219 214 212 206 201 162
80 83 86 88 87 87 90 80 72 106 120 121 129 135 136 143 144 147 152 156 159 168 172 178 186 191 192 194 152 207 214 229 234 237 234 136 179 255 255 255 255 188 111 168 255 255 255 248 166 97 202 140 255 255 255 138 168 142 77 236 255 255 238 139 175 127 126 234 229 140 124 88 109 159 215 212 209 207 193 162
80 82 85 87 87 86 87 87 73 89 116 122 124 131 136 137 140 140 138 136 132 129 162 174 181 185 149 86 102 159 210 223 228 164 138 120 175 238 255 255 253 137 158 170 150 245 255 243 106 164 139 94 255 255 255 140 146 192 167 201 255 239 90 103 149 179 89 209 226 153 116 193 188 124 210 213 204 203 171 155
79 80 83 84 87 86 87 88 76 77 110 118 121 123 130 132 137 105 69 71 71 62 151 171 174 89 102 138 101 77 191 218 217 114 159 150 131 95 254 255 137 192 206 252 137 255 255 255 84 205 246 115 251 255 255 141 194 204 153 169 252 246 205 102 95 110 212 223 222 203 74 112 183 204 204 204 201 193 149 152
78 81 82 83 83 84 86 87 82 73 104 112 118 122 125 127 132 119 98 74 75 88 135 166 168 152 86 119 175 101 123 212 222 208 128 101 139 201 255 255 255 176 116 120 255 255 255 255 125 149 194 241 255 255 255 196 145 203 238 246 247 242 235 196 125 212 218 218 213 208 172 201 202 200 196 199 193 184 144 146
78 79 80 81 83 85 84 86 85 73 91 108 112 116 120 123 127 127 81 67 85 83 115 159 168 169 140 130 89 170 203 206 216 223 171 150 241 255 255 255 255 255 255 237 255 255 255 255 255 255 255 255 255 255 255 255 254 254 251 245 241 233 227 221 218 213 210 209 203 200 202 193 193 192 191 188 183 158 139 140
77 77 78 80 82 83 85 85 86 77 77 104 109 112 115 120 124 125 96 103 117 126 143 155 162 166 167 149 179 188 196 202 212 217 228 238 250 253 255 255 255 255 255 255 255 255 255 253 253 249 255 250 253 253 250 250 246 243 238 234 231 222 194 197 201 202 198 195 189 172 121 106 183 185 178 176 171 141 134 138
74 77 79 80 81 80 84 83 84 81 73 98 104 107 111 114 117 120 125 126 132 138 141 146 152 159 162 167 175 178 188 194 201 208 217 224 234 243 255 255 255 176 199 234 249 255 254 229 151 141 148 178 243 237 213 136 125 130 149 230 217 206 132 152 111 103 187 179 75 129 99 99 172 171 166 166 158 131 131 131
74 75 77 79 80 79 81 84 83 83 72 90 99 102 107 109 113 115 119 123 115 122 137 139 143 150 153 101 102 146 175 185 192 189 85 124 82 125 251 254 253 160 140 128 121 240 241 204 178 177 182 149 226 225 191 148 201 147 166 216 209 160 170 105 120 151 176 172 83 129 129 103 165 161 157 153 138 128 119 126
73 75 75 77 79 78 82 81 82 81 77 77 95 99 100 104 108 108 114 107 57 78 106 130 139 142 135 77 93 118 78 166 181 175 105 139 79 116 236 251 238 203 147 182 153 236 227 188 107 94 129 148 209 212 172 151 180 157 189 210 201 102 145 136 99 170 167 161 76 87 123 148 151 150 144 142 123 118 116 118
74 73 74 76 77 78 79 82 83 82 80 72 91 97 97 101 102 105 100 76 77 63 74 82 130 133 80 86 116 78 82 161 170 171 111 139 98 115 229 239 216 174 139 134 202 223 210 185 125 110 110 158 195 199 181 159 177 186 199 201 193 182 173 152 153 163 159 154 148 148 146 144 141 137 136 127 113 112 106 113
71 73 74 74 77 76 78 79 81 81 80 73 86 93 94 98 100 101 92 68 72 85 71 104 127 127 111 92 86 79 139 156 164 165 127 148 162 184 217 227 234 237 224 206 214 209 201 191 189 183 184 179 182 182 183 186 189 192 192 186 184 176 167 163 156 153 148 145 139 137 136 131 127 125 121 113 109 105 103 109
71 71 73 74 74 76 77 78 78 79 80 77 78 87 92 93 95 98 99 101 78 63 97 116 119 123 128 127 125 117 143 149 155 158 163 172 179 191 207 216 220 223 219 214 205 195 186 181 177 173 169 165 166 163 162 168 169 170 172 170 168 158 155 147 141 136 135 131 127 125 120 119 117 113 111 107 106 102 100 106
70 71 72 72 73 76 76 78 78 80 78 78 73 87 87 88 92 96 95 99 101 101 106 110 115 117 120 123 126 130 134 136 145 147 152 162 169 178 187 198 205 209 202 193 187 178 171 164 158 155 153 151 148 148 148 151 150 153 158 154 151 146 142 137 130 126 122 121 118 116 112 110 107 106 107 105 102 99 97 103
69 68 72 73 73 74 76 76 78 75 77 78 74 83 86 87 88 90 93 94 95 98 103 105 107 109 114 114 119 124 123 126 128 135 142 145 151 158 168 176 183 181 181 174 166 161 154 149 143 140 139 138 135 134 133 134 133 134 132 129 128 124 122 118 116 117 113 113 110 111 110 104 106 105 102 100 99 97 95 98
68 68 69 70 71 73 74 74 76 75 78 77 76 78 81 83 85 86 88 90 92 95 97 98 100 103 107 109 111 113 115 118 120 123 126 131 133 136 142 144 145 142 143 139 137 134 135 134 131 130 128 127 124 124 123 123 121 120 120 119 118 118 116 114 115 113 112 110 110 109 108 104 105 104 101 96 98 94 92 95
67 68 69 70 71 70 72 74 75 75 77 78 78 75 80 80 82 83 87 87 88 90 94 94 96 100 101 103 100 102 105 110 111 114 115 118 119 121 126 125 127 130 130 129 128 129 128 127 127 125 123 122 121 121 122 120 121 118 117 117 117 117 114 114 113 111 110 108 105 105 104 104 100 100 98 97 93 91 90 93
66 66 67 68 68 69 70 71 73 73 74 76 76 75 74 78 79 80 82 82 85 86 90 92 96 96 97 97 102 104 117 107 108 110 113 115 118 117 122 122 125 126 130 126 127 129 126 126 125 123 123 120 119 120 118 117 116 112 116 115 113 111 110 110 111 108 108 105 106 104 104 102 100 100 96 94 92 90 85 91
64 66 65 67 67 69 69 70 72 72 74 73 75 75 78 77 79 80 82 83 83 86 90 93 94 99 98 99 100 102 103 101 106 106 110 113 115 117 119 121 122 121 123 123 124 122 122 123 122 122 119 118 118 116 115 113 115 113 112 109 109 111 110 107 107 108 107 107 107 106 102 102 100 95 95 93 91 88 83 90
64 64 65 64 66 66 69 69 70 71 71 68 73 74 76 77 78 79 78 81 84 87 90 91 93 94 97 99 97 98 101 100 102 104 107 109 114 113 116 120 120 122 122 124 124 125 122 121 121 122 120 116 115 114 112 114 113 112 109 111 110 107 109 106 107 107 105 106 104 102 100 99 99 97 94 93 89 86 83 88
62 62 64 63 63 65 65 68 69 70 69 72 73 72 73 76 76 78 79 81 84 86 89 90 92 92 94 97 98 97 95 97 100 103 105 108 109 110 114 117 119 122 122 122 122 123 120 124 120 118 115 115 112 111 110 109 108 110 108 109 108 107 106 107 106 103 104 105 101 103 101 99 97 95 93 89 87 84 83 87
61 62 62 63 65 65 65 66 67 69 69 69 71 72 71 73 74 76 78 81 82 84 87 85 88 89 91 94 92 93 95 98 98 101 104 105 108 111 113 115 118 119 120 120 119 123 121 119 118 116 113 112 113 112 108 107 108 106 106 108 106 107 106 104 103 104 104 104 102 102 101 97 96 93 90 86 84 81 80 85
61 61 61 63 64 64 64 65 65 68 68 69 70 69 70 71 73 75 75 79 81 83 84 85 85 88 90 92 90 91 92 94 96 99 102 104 107 109 113 112 115 117 118 119 120 121 120 119 118 114 114 112 109 107 107 105 107 106 105 105 103 104 104 103 103 105 104 101 99 96 94 92 90 88 84 81 81 79 78 83
61 61 61 62 63 64 64 63 65 66 66 68 67 68 69 70 70 72 76 80 81 81 81 83 85 87 87 90 88 89 91 92 96 96 98 102 106 109 111 113 114 117 120 118 121 123 123 122 118 115 115 112 109 109 105 106 103 105 104 103 102 103 101 102 98 99 96 96 94 92 90 90 85 83 83 79 77 77 76 81
61 60 61 60 62 60 62 63 64 65 66 67 66 68 68 67 70 72 76 76 77 78 79 82 83 84 87 86 87 89 89 91 92 96 98 101 103 107 110 112 116 116 118 120 118 126 123 122 116 112 110 108 108 106 104 103 103 102 103 101 99 98 99 96 97 94 95 92 89 87 86 84 81 81 78 76 75 75 74 80
58 60 59 61 62 62 62 63 64 64 65 66 66 66 68 68 70 71 74 76 79 79 81 82 82 83 87 84 85 86 86 89 93 94 96 100 101 103 106 107 106 110 111 112 115 118 117 118 111 108 105 101 103 102 100 99 98 99 98 96 95 95 95 91 90 90 87 85 85 83 83 80 78 77 76 75 73 73 72 77
59 60 60 58 60 62 62 63 62 63 66 64 66 66 67 67 69 70 70 76 77 79 79 80 81 83 83 83 82 84 87 87 91 92 92 94 97 97 99 101 102 103 106 106 109 123 123 118 106 105 101 100 98 97 96 96 96 92 95 91 93 90 90 88 86 85 84 84 82 81 78 78 77 76 73 72 71 68 67 75
59 57 60 59 60 58 61 60 62 62 62 64 64 63 66 66 68 70 70 74 75 77 78 79 81 83 80 80 80 80 83 82 86 87 88 90 91 92 94 96 97 96 98 102 105 108 109 105 102 98 96 95 93 93 93 92 90 90 88 89 88 88 86 85 85 84 81 81 79 79 76 77 75 72 70 66 67 66 67 76
58 58 58 59 59 59 60 61 61 62 62 62 63 64 64 63 65 66 68 72 73 73 77 78 77 77 76 77 78 79 80 80 80 83 83 86 87 87 90 90 92 94 93 100 101 106 103 102 98 96 93 94 92 92 91 89 89 88 86 86 84 84 83 83 83 80 80 80 78 75 73 71 68 67 70 69 68 68 67 76
57 58 58 59 59 60 58 61 61 61 61 61 63 63 63 64 65 65 67 69 70 70 72 73 74 74 74 75 75 76 76 78 79 79 81 83 83 85 83 86 88 88 92 97 100 102 106 103 98 94 93 91 88 89 86 86 84 84 83 83 83 81 81 79 81 78 74 72 71 71 68 69 71 71 70 70 70 69 69 76
55 56 57 58 58 59 59 60 59 60 61 61 61 61 61 63 64 64 64 66 67 68 70 67 70 70 72 72 72 73 73 76 76 76 78 81 81 82 82 83 87 88 90 97 102 108 103 102 96 91 89 87 86 87 83 83 83 80 79 80 80 75 73 70 71 72 71 70 71 72 72 73 72 71 72 71 70 70 69 76
54 55 55 55 57 57 56 58 59 58 58 59 61 61 60 61 62 63 63 64 65 66 67 67 67 68 69 69 69 70 72 71 73 75 76 77 77 78 80 81 83 85 89 92 101 128 129 118 90 88 86 84 83 79 76 77 74 72 71 72 71 71 70 72 70 73 72 71 73 73 72 71 73 73 72 71 71 71 71 78
