P2
80 80
255
106 102 101 102 104 107 110 112 113 113 114 115 118 120 122 122 126 127 128 130 129 132 135 138 139 138 142 145 146 146 150 151 153 155 156 159 157 160 161 160 161 163 160 158 161 163 163 166 165 163 163 161 160 157 158 155 156 156 156 154 152 152 150 147 147 146 145 143 141 140 138 139 138 136 134 136 133 133 131 138
97 100 103 106 106 110 111 112 113 115 115 116 118 121 124 125 125 128 128 130 129 132 132 136 133 136 138 142 143 145 147 148 148 151 151 153 153 156 155 155 156 158 156 162 163 167 167 165 166 166 166 164 163 165 161 162 160 161 156 157 155 155 155 152 148 148 145 146 143 145 141 139 140 140 134 135 138 134 134 142
99 101 103 106 106 108 111 113 113 117 114 118 117 119 124 124 128 127 126 133 133 138 136 139 139 142 139 140 144 148 149 150 152 153 155 155 157 157 160 158 159 160 162 164 165 166 168 166 165 167 164 166 166 167 165 166 162 162 159 164 159 162 161 157 155 153 151 149 146 147 141 142 141 141 139 137 134 133 135 141
99 102 104 106 108 111 112 112 113 117 118 119 117 121 125 124 126 129 129 132 134 137 140 140 141 143 145 146 148 149 151 154 155 157 158 159 159 160 162 165 163 165 165 166 165 166 166 166 169 168 164 166 166 166 164 161 160 166 166 166 163 163 161 158 158 156 156 152 151 146 147 147 145 145 140 139 135 136 135 142
101 100 103 105 109 108 110 110 113 117 117 117 120 120 124 124 124 125 124 124 125 124 125 124 125 124 121 123 123 125 127 128 129 128 130 133 136 134 139 137 143 142 143 147 149 150 155 157 159 159 162 165 166 166 163 165 168 169 169 163 165 163 161 160 160 160 156 156 154 150 153 149 148 143 143 142 140 139 139 144
97 101 104 105 107 108 110 111 113 114 112 109 107 105 109 112 116 119 122 126 127 129 131 133 132 137 137 138 139 141 140 142 141 145 145 145 147 146 148 149 148 149 150 150 148 151 150 150 147 144 143 141 137 137 139 137 140 147 154 157 161 163 160 158 158 160 154 154 153 155 155 153 150 149 149 144 141 140 141 150
100 100 104 103 103 101 98 101 105 108 115 118 119 121 121 122 126 127 129 131 132 133 136 137 135 139 141 140 140 143 144 143 147 147 148 148 150 149 149 151 153 153 154 154 154 153 153 153 148 148 146 144 145 147 148 146 148 150 149 148 145 141 135 137 143 147 153 153 154 152 154 154 154 152 149 148 148 147 144 152
95 93 92 100 106 108 110 114 113 117 120 119 120 122 126 124 127 129 129 132 132 136 135 140 139 140 140 143 143 141 146 145 144 146 149 150 148 151 150 151 155 155 155 153 155 154 153 153 149 149 148 147 146 147 148 149 149 150 152 149 148 145 142 143 143 139 140 137 134 140 146 153 152 154 152 150 151 151 145 154
73 100 106 110 108 111 111 113 116 117 119 120 122 125 126 127 129 129 129 134 133 137 138 140 139 143 140 143 144 145 147 147 146 149 150 152 151 153 155 154 155 156 159 157 156 156 156 152 153 148 148 146 148 148 149 151 154 154 153 148 146 145 144 142 142 143 140 143 143 145 145 140 136 136 146 150 150 148 147 153
66 102 107 107 110 111 113 116 117 119 120 122 125 125 126 128 132 131 132 134 136 137 140 141 142 143 144 146 145 146 149 148 151 154 151 155 155 154 155 159 158 159 160 159 158 159 159 157 156 152 151 151 149 151 152 151 154 154 148 147 148 146 145 144 145 145 144 143 146 144 143 141 139 141 137 139 134 135 142 152
64 101 107 109 113 111 113 116 117 119 120 126 125 127 130 130 129 132 136 136 136 138 137 142 141 144 143 146 147 148 150 151 152 154 152 154 158 159 161 161 164 163 162 162 163 163 160 159 156 157 154 153 151 154 156 155 156 152 154 151 149 151 147 147 147 143 146 146 145 148 144 144 143 140 141 137 137 135 132 136
64 100 107 111 113 115 112 117 120 121 122 125 127 127 129 130 131 133 137 136 139 138 141 143 144 147 146 149 149 149 152 152 151 152 153 158 156 155 157 162 160 162 162 165 163 164 163 162 161 160 159 158 156 158 156 156 156 155 154 155 156 150 148 149 148 147 147 149 149 149 146 146 142 144 142 139 137 138 136 141
67 101 109 108 110 114 115 117 121 122 125 125 126 130 131 131 135 134 136 136 138 139 140 144 146 149 148 149 150 150 152 154 155 153 154 155 159 160 160 162 161 164 163 164 167 166 165 168 164 163 163 163 162 159 155 157 156 156 156 154 154 155 152 150 150 149 152 151 150 148 149 145 147 143 145 143 137 138 134 144
70 101 109 110 115 115 115 118 123 122 123 124 125 126 124 130 133 136 140 138 131 66 86 122 141 145 150 149 152 154 155 151 149 122 83 75 160 162 163 163 163 158 77 117 157 168 166 168 167 168 164 165 163 133 71 155 159 159 160 157 156 138 150 151 148 155 152 153 151 150 149 148 147 144 144 142 141 139 140 142
72 100 108 112 113 116 117 119 123 118 70 66 63 68 66 96 135 137 138 141 123 91 128 100 64 70 114 151 155 152 114 76 72 105 84 77 154 163 166 165 166 135 119 68 73 75 115 166 172 166 168 159 86 67 115 108 156 161 161 159 155 67 78 102 144 154 153 156 155 152 149 147 143 147 149 142 144 141 141 143
75 98 110 112 114 116 119 120 122 119 71 107 83 125 91 83 134 138 140 142 114 82 130 115 90 118 90 153 153 156 104 124 68 82 69 117 138 162 166 164 166 98 146 99 106 57 62 164 172 169 124 61 66 132 59 67 161 163 162 160 136 103 124 62 66 95 156 157 142 97 76 63 83 145 149 145 144 141 132 145
78 94 111 114 116 119 121 121 123 123 65 88 78 103 100 70 134 140 139 143 98 102 57 60 75 73 109 153 155 157 147 85 63 69 140 95 95 165 167 169 170 74 142 146 94 62 72 173 173 174 87 86 156 126 108 78 138 165 168 163 93 68 124 85 65 119 158 158 116 105 91 57 74 148 149 146 136 79 84 139
78 91 110 114 115 119 119 124 125 123 69 71 71 60 59 62 135 139 140 142 86 124 57 96 120 77 126 156 156 161 159 63 91 63 144 81 66 166 167 171 167 79 114 143 97 57 114 176 177 176 149 81 147 70 65 79 86 165 165 160 65 90 69 102 95 155 163 157 129 97 110 120 87 148 145 121 85 100 85 123
77 87 112 112 117 119 120 122 124 126 81 94 63 93 96 71 132 139 143 143 75 115 86 92 68 56 139 158 160 164 163 95 140 103 109 80 77 163 173 173 155 60 144 109 135 58 161 178 181 182 173 75 167 142 128 64 137 168 166 143 62 140 79 112 84 164 165 160 142 105 97 93 68 145 151 130 80 117 58 97
79 83 112 115 117 120 123 126 124 126 98 54 60 62 73 65 129 142 145 147 139 106 73 66 84 57 148 157 162 164 163 143 61 113 73 72 111 167 176 174 167 104 76 88 59 60 174 182 183 183 181 132 78 97 95 167 171 173 173 158 116 76 78 62 136 167 169 167 149 90 65 57 64 147 153 143 81 89 103 79
78 81 111 115 115 119 124 125 128 127 129 119 121 124 128 130 136 146 145 150 150 151 152 148 128 87 154 162 165 165 167 166 80 120 154 167 171 175 176 180 182 177 175 165 119 97 183 185 187 184 185 174 72 154 179 182 180 179 174 177 174 171 157 114 168 168 170 170 156 77 107 142 152 157 156 151 93 59 67 130
79 78 111 116 119 122 124 125 125 129 133 133 135 137 137 141 141 143 146 149 151 153 155 157 159 158 160 164 168 168 171 170 169 173 175 176 179 177 181 182 185 186 186 186 186 186 192 188 191 186 190 185 186 185 187 183 186 184 180 182 179 180 178 174 177 175 173 170 169 170 164 166 162 160 158 155 122 99 143 155
79 79 105 116 119 123 123 126 128 128 131 133 136 137 140 143 143 146 150 151 153 155 156 158 160 161 164 166 167 171 171 171 174 179 179 180 181 182 185 187 190 189 191 191 193 191 191 191 192 192 189 191 191 190 187 191 189 189 185 184 184 184 181 178 177 177 175 170 171 168 168 166 167 165 161 158 155 152 152 156
78 78 100 118 120 122 124 127 128 130 133 133 134 138 140 143 145 146 150 151 154 158 157 160 164 164 167 167 171 174 175 177 176 179 180 181 186 185 190 191 191 190 189 193 195 194 199 198 196 196 194 193 194 193 193 193 193 194 192 189 185 184 169 182 181 181 177 177 170 164 171 168 167 166 164 159 157 153 152 160
77 79 94 119 120 119 122 124 128 132 133 139 133 74 130 142 147 146 151 155 159 157 156 81 136 165 168 171 173 178 176 179 178 181 174 163 182 185 192 194 195 193 191 192 192 192 197 197 199 197 191 186 182 182 178 190 196 196 195 185 179 96 82 180 184 184 181 179 155 68 139 169 169 165 166 161 139 121 156 161
78 79 86 115 119 123 124 126 130 132 134 137 109 56 55 74 138 150 152 156 157 159 145 91 109 80 157 174 177 179 176 172 150 106 80 61 150 192 193 196 193 84 84 75 72 77 193 202 200 200 77 85 74 74 92 187 199 198 191 140 93 162 144 148 189 186 185 174 82 103 93 124 169 165 167 143 96 82 152 163
80 79 80 115 120 124 125 128 130 133 134 135 75 56 54 52 56 88 150 156 158 158 100 84 146 107 56 104 174 180 182 95 69 90 169 65 93 192 194 196 196 83 192 117 73 99 196 203 206 203 80 172 115 181 98 195 200 197 89 115 90 96 136 95 185 186 182 110 73 166 79 70 144 167 145 71 64 103 116 165
80 79 80 111 121 123 128 130 133 135 137 130 67 122 124 90 118 89 126 156 158 156 78 144 121 66 104 57 147 182 183 156 124 171 158 104 80 194 201 203 198 82 112 182 72 67 198 209 208 201 75 71 128 107 74 201 205 200 140 61 159 86 88 76 185 192 160 61 150 100 98 90 173 166 77 138 143 93 74 165
79 79 80 105 122 125 127 130 131 133 137 107 95 62 96 100 88 71 148 157 159 131 62 156 157 99 149 71 175 183 186 185 69 106 102 185 71 179 202 207 204 65 141 146 165 67 208 214 212 201 126 160 73 112 100 207 208 205 186 66 141 113 93 115 189 196 166 70 113 61 67 174 179 173 139 94 134 82 146 170
80 78 78 92 122 124 127 129 128 134 134 133 82 66 83 121 121 100 153 160 161 161 103 86 101 91 84 121 182 187 189 186 97 153 124 135 62 138 203 209 205 83 161 143 102 80 210 219 218 194 127 154 142 79 126 215 212 212 205 101 87 92 190 199 202 199 194 180 90 61 151 184 184 181 171 98 97 146 165 170
83 78 78 83 118 122 125 127 132 132 136 139 140 136 86 56 58 135 159 162 166 166 166 162 92 104 86 172 183 188 189 193 163 106 82 111 172 204 210 213 211 110 114 120 130 147 218 218 220 211 189 196 203 203 218 215 217 214 214 171 170 208 208 207 205 200 201 195 189 160 188 188 186 185 177 158 154 172 169 175
89 80 78 79 114 124 125 128 131 134 136 139 142 146 146 141 100 150 161 163 165 171 171 169 176 165 117 183 188 192 192 194 196 185 197 204 204 208 211 215 216 217 223 223 221 225 227 227 223 227 224 226 224 227 222 223 221 220 215 215 214 210 210 208 209 203 203 201 198 194 193 193 189 184 184 179 177 174 172 178
94 80 78 77 109 122 126 128 130 136 138 139 144 146 138 153 153 157 163 162 166 169 170 175 180 182 184 187 190 193 197 199 200 203 205 209 209 213 215 220 223 222 225 230 228 228 229 231 231 227 229 231 229 229 227 225 225 222 221 221 219 218 219 213 214 207 209 204 202 198 197 197 192 188 189 180 178 178 176 178
93 84 78 77 95 124 126 128 133 132 138 140 144 148 150 154 154 159 160 164 169 169 174 177 179 185 190 189 191 198 204 201 202 209 211 209 213 219 222 222 226 228 223 228 230 236 234 236 231 232 232 230 221 221 233 234 230 227 220 214 211 207 217 218 217 209 156 96 156 191 198 197 191 159 126 127 128 175 179 184
93 87 77 78 82 121 127 130 133 135 140 142 144 147 148 136 80 152 164 163 169 172 174 177 181 179 171 136 195 199 204 203 207 205 187 79 209 219 226 226 226 229 76 114 223 238 239 243 238 226 164 93 117 174 238 235 232 182 78 85 107 132 200 221 219 211 81 170 169 100 152 198 194 111 98 99 87 177 181 187
96 92 79 78 79 117 126 131 133 135 139 142 143 145 142 73 70 63 138 165 170 174 174 139 93 63 63 111 179 201 200 204 199 110 83 138 104 223 229 233 233 158 88 147 98 158 240 245 228 122 206 126 94 139 238 242 238 151 170 144 86 108 220 228 224 172 115 167 147 86 201 205 195 106 71 127 120 186 187 190
92 93 83 78 77 110 127 130 132 136 140 143 144 144 80 97 63 83 69 109 167 175 175 102 89 119 168 65 107 203 205 203 79 96 107 177 68 192 230 236 227 106 160 127 154 73 242 250 243 92 93 176 137 113 239 246 243 127 128 136 107 98 231 229 220 88 85 160 172 146 211 206 184 142 82 68 137 191 186 190
92 95 90 77 76 95 125 129 133 136 139 142 145 104 107 80 127 133 129 62 108 174 178 169 106 100 77 64 87 197 208 212 153 179 158 79 93 78 231 237 134 159 228 239 81 194 252 252 250 100 108 171 122 103 245 248 242 113 107 124 135 135 235 231 215 107 81 120 127 209 213 210 156 87 85 82 177 192 191 195
95 94 95 79 76 81 121 129 134 135 140 144 144 146 106 62 130 114 92 80 164 179 180 181 93 101 186 123 122 159 211 212 215 91 68 81 84 201 238 243 239 161 131 233 112 249 255 254 253 126 74 110 200 247 254 254 247 187 195 204 215 231 244 241 237 233 225 208 189 221 218 216 208 207 202 199 197 195 193 196
92 94 96 83 77 76 118 130 134 136 141 141 143 148 152 138 85 119 77 161 171 176 178 183 167 63 86 136 191 207 213 218 224 210 75 151 227 239 243 247 247 250 246 155 237 255 255 255 255 251 255 255 255 255 255 255 255 254 254 251 251 244 249 241 240 236 236 233 226 226 221 218 219 211 209 205 202 196 192 198
91 93 94 89 77 76 102 126 130 135 140 143 142 150 151 155 152 102 153 169 171 178 182 183 186 190 196 197 204 212 212 217 221 223 222 228 237 242 246 248 254 254 254 255 254 255 255 255 255 255 255 255 255 255 255 255 255 254 255 254 253 249 248 247 244 239 219 234 230 225 223 221 211 213 209 208 202 201 197 199
89 89 93 94 78 75 85 125 130 134 138 140 143 149 152 152 157 160 165 168 173 176 178 185 188 192 194 198 204 211 215 220 224 222 232 239 241 242 252 250 253 255 255 251 255 255 255 255 255 255 225 255 255 255 255 255 255 254 236 164 227 254 253 252 242 162 81 196 234 233 227 207 124 108 115 191 205 203 200 200
90 90 94 94 82 76 78 119 128 134 135 140 144 146 151 154 160 163 161 166 172 177 184 184 191 189 148 197 205 213 216 225 226 220 220 218 223 233 254 255 255 252 180 88 205 255 255 255 255 130 143 94 230 255 255 253 136 115 114 140 197 254 253 245 143 90 83 85 217 236 227 137 156 123 82 199 210 205 203 202
88 89 92 95 88 76 75 110 130 134 137 142 140 148 152 154 153 134 73 82 165 174 180 185 187 161 134 65 120 201 219 222 223 89 145 144 145 157 254 255 224 101 242 98 105 255 255 255 223 144 216 79 157 219 255 255 105 100 180 156 176 255 250 123 152 126 127 154 153 233 217 141 85 120 133 210 211 207 201 200
90 90 90 92 92 78 73 94 125 131 134 138 141 146 148 146 87 103 132 107 91 171 179 187 185 81 122 71 132 124 189 224 226 103 88 90 143 145 254 255 218 94 111 233 90 157 255 255 137 153 118 111 139 255 255 255 139 227 84 72 146 255 255 226 93 101 155 181 242 237 172 97 154 109 206 217 212 209 200 190
89 90 90 92 94 84 75 78 122 128 135 133 140 144 146 118 79 99 107 143 130 108 176 185 157 104 129 182 101 82 216 225 230 115 106 203 145 144 255 255 255 131 175 211 123 250 255 255 239 106 91 126 255 255 255 255 142 93 138 215 255 255 254 254 214 89 213 243 242 238 231 229 216 199 218 214 212 210 198 174
87 89 89 91 93 90 75 75 114 127 131 133 138 140 145 147 117 121 112 102 82 99 174 183 178 123 94 128 150 187 221 226 227 143 104 108 128 177 255 255 255 254 119 228 255 255 255 255 255 255 236 245 255 255 255 255 255 255 255 255 255 255 255 255 251 244 247 242 241 237 235 231 225 220 220 218 215 210 198 166
87 87 88 90 90 91 78 74 99 123 129 131 137 139 143 146 151 115 114 79 149 170 176 181 185 192 193 164 110 211 219 225 232 236 238 245 252 255 255 255 255 255 255 255 255 255 255 255 255 255 255 255 255 255 255 255 255 255 255 255 255 255 255 254 244 245 246 247 241 237 230 214 177 223 220 220 211 209 196 162
85 88 88 87 89 92 86 74 81 120 126 130 132 138 142 142 148 150 137 160 162 172 177 182 185 189 194 198 205 214 221 224 235 238 245 249 253 255 255 255 255 255 253 255 255 255 255 255 255 255 254 228 255 255 255 255 254 219 156 250 255 255 255 228 130 114 236 241 234 222 141 85 117 219 219 217 212 205 172 161
83 85 87 88 88 88 89 74 75 114 122 124 130 134 139 141 145 151 153 158 160 169 173 179 185 191 193 197 175 204 214 223 233 239 237 182 124 255 255 255 255 246 91 131 243 255 255 255 159 93 180 134 255 255 255 121 189 161 76 226 255 255 209 158 192 138 115 233 221 80 105 146 153 205 216 216 211 200 156 157
81 83 85 88 87 86 90 79 73 102 117 124 129 130 135 138 144 144 147 147 151 151 162 174 182 187 179 94 78 131 212 223 231 205 111 115 209 183 255 255 255 113 192 152 158 188 255 255 93 157 181 94 255 255 255 140 158 181 184 188 255 241 86 140 134 198 128 224 226 117 147 172 139 201 212 211 203 192 151 152
80 83 83 84 87 87 87 86 75 86 113 120 120 127 132 135 138 107 65 66 83 60 144 171 173 127 92 133 97 78 165 219 226 122 167 186 170 83 246 255 203 229 241 223 126 255 255 255 105 215 232 129 224 255 255 170 162 162 125 173 249 244 222 94 85 161 223 221 215 187 90 176 206 206 202 203 202 170 144 148
78 81 82 84 84 86 84 87 76 75 107 117 119 122 126 130 135 119 106 71 88 68 123 166 170 158 98 133 185 124 100 211 222 217 119 93 140 158 255 255 255 215 128 103 236 255 255 255 187 153 210 250 255 255 255 236 185 231 246 243 242 236 233 210 186 217 215 215 207 207 201 203 201 201 199 195 190 149 140 141
80 80 80 83 83 84 83 86 82 73 101 113 115 119 122 126 129 127 79 69 96 102 102 159 169 172 149 123 116 130 197 209 215 222 205 117 230 255 255 255 255 255 255 240 255 255 255 255 255 255 255 255 255 255 255 255 255 252 250 247 240 230 225 222 214 212 208 205 200 195 190 192 194 192 189 184 176 141 137 136
77 77 80 82 83 85 84 85 84 73 89 105 110 114 116 121 123 128 76 77 89 102 126 154 162 163 165 140 171 187 196 202 212 223 229 239 248 253 255 255 255 255 255 255 255 255 255 251 254 250 253 248 252 254 250 246 242 236 232 228 227 213 141 156 184 197 199 188 152 114 100 156 181 180 176 176 155 136 131 133
74 78 78 80 81 82 84 83 82 76 75 102 107 109 113 114 118 122 124 130 133 139 141 147 156 159 164 170 173 178 189 196 205 215 220 228 238 243 255 255 255 216 180 216 239 253 252 241 141 134 145 137 244 236 222 130 127 137 141 219 214 191 159 135 142 130 183 170 83 126 127 147 168 166 163 157 136 129 124 128
76 76 79 79 80 80 83 83 83 81 72 96 102 104 108 111 114 116 120 125 125 127 137 142 147 148 153 141 108 153 177 185 192 200 93 109 87 103 247 254 255 145 158 140 139 233 239 221 156 186 144 132 226 229 206 135 193 153 165 211 202 124 154 82 98 172 175 161 93 105 123 144 157 155 153 144 128 123 117 120
74 77 77 78 79 79 82 83 82 82 72 86 97 102 101 105 109 112 115 117 65 74 115 131 138 143 146 74 105 116 90 146 184 188 91 159 77 113 236 249 253 186 129 143 128 230 224 211 99 89 108 126 211 215 188 147 179 162 190 204 197 122 112 112 122 169 167 158 100 140 149 151 146 143 141 131 118 115 111 115
74 74 76 77 78 79 80 81 82 81 76 77 94 96 98 102 103 108 109 70 72 70 76 93 127 137 111 91 97 88 65 159 174 179 95 103 140 124 227 240 238 179 135 144 164 218 210 201 132 133 132 156 195 197 196 186 194 203 200 198 188 180 174 163 160 157 153 150 149 144 143 139 135 130 127 116 108 107 105 112
73 73 74 75 78 77 79 79 79 81 80 73 91 94 99 97 101 101 80 82 64 85 83 76 125 127 101 94 106 80 111 153 163 170 119 134 156 180 220 230 237 236 226 211 209 208 199 191 189 184 183 181 182 181 182 185 187 188 184 181 176 170 164 155 151 144 143 137 136 131 130 126 123 118 114 109 108 104 100 105
70 71 74 74 75 78 78 79 79 79 80 73 83 89 93 94 99 99 100 93 73 68 73 115 120 124 127 127 121 101 139 149 154 161 168 173 182 194 206 216 221 222 218 209 199 195 184 180 174 169 170 166 165 162 160 167 167 168 168 168 162 155 147 142 135 130 129 126 121 120 115 115 111 108 109 105 103 100 100 103
71 71 71 73 74 76 76 78 80 81 78 76 76 87 89 90 95 96 95 98 102 87 106 113 116 117 120 126 127 128 136 141 143 148 153 163 171 181 191 200 204 207 202 192 184 178 167 163 158 151 151 149 147 147 146 148 151 153 151 150 148 140 138 133 125 122 116 114 112 114 112 108 107 106 105 102 101 98 97 100
69 70 72 73 73 76 76 77 77 77 77 78 73 85 87 89 89 92 94 97 97 99 103 107 109 111 112 116 121 124 126 130 131 138 139 147 152 161 170 178 182 183 178 172 164 159 153 147 144 140 137 135 134 131 131 130 129 125 124 122 122 119 119 115 116 114 115 113 113 109 110 106 105 104 102 100 99 97 92 96
67 70 71 71 73 74 75 75 76 78 77 77 72 81 82 85 86 90 89 92 95 95 100 102 102 106 106 110 113 112 117 118 122 123 130 131 137 142 145 147 147 142 140 137 136 133 134 134 131 132 129 127 125 123 124 124 122 122 121 118 118 116 116 115 113 114 111 110 109 109 105 103 101 102 102 96 95 94 91 95
68 68 71 70 70 72 72 74 75 76 76 78 76 76 80 82 84 85 86 89 89 93 95 96 100 100 102 104 102 101 107 110 110 113 116 117 118 123 124 124 126 132 130 129 129 129 127 128 127 126 124 125 123 119 121 120 119 118 119 117 115 112 114 111 112 112 109 106 104 106 105 102 101 99 98 97 93 90 87 91
65 68 69 69 70 70 72 71 74 74 74 76 75 77 78 81 81 81 84 85 85 86 91 94 98 97 97 97 101 103 117 107 108 111 113 116 115 118 123 121 123 126 128 127 127 128 124 123 124 123 122 119 121 115 116 117 114 114 115 116 115 110 111 110 110 108 107 107 105 107 105 102 100 98 97 95 91 87 85 91
65 67 66 68 68 69 70 71 72 72 73 75 75 76 77 77 80 80 82 83 84 87 91 93 95 98 99 100 101 101 102 101 104 107 112 113 116 118 118 119 121 122 123 123 125 124 124 122 123 121 119 119 118 117 118 114 114 113 113 110 109 110 110 108 109 105 107 106 105 103 103 100 99 97 94 93 89 88 84 90
63 66 66 66 67 68 70 70 72 71 71 70 74 76 77 77 79 80 80 83 85 89 90 91 95 96 98 98 98 97 99 100 103 104 107 107 112 114 116 120 119 120 124 123 124 124 123 122 121 120 118 116 115 114 112 113 110 111 111 111 109 108 109 108 106 108 105 104 103 101 101 101 99 97 94 91 88 86 83 85
62 64 64 65 64 66 67 69 70 71 70 72 73 75 75 75 77 78 79 83 85 89 89 90 90 93 96 98 97 97 96 99 102 102 105 107 110 112 114 116 121 123 121 124 125 121 120 122 122 119 116 114 113 114 110 111 110 108 108 108 107 106 106 104 106 104 105 105 104 102 102 100 95 94 91 89 84 82 80 86
60 62 63 64 65 66 66 67 68 69 70 69 71 71 72 75 74 76 78 80 84 86 87 85 90 92 91 94 95 93 93 97 99 100 105 104 108 111 114 115 117 119 120 118 120 122 121 121 119 118 114 113 110 109 108 108 108 107 105 107 107 107 105 104 106 105 104 103 103 99 96 95 93 88 87 83 81 78 79 84
60 61 61 63 64 64 65 65 66 66 69 70 70 71 71 72 73 75 76 78 84 82 83 84 86 88 90 91 91 89 93 94 97 100 101 105 106 112 110 113 115 117 119 119 120 121 119 119 118 116 114 112 110 106 107 106 107 107 105 105 105 102 103 104 102 101 101 98 97 94 91 91 86 85 82 82 78 77 76 81
61 61 63 63 63 64 65 64 66 66 67 69 68 69 70 70 71 74 76 78 79 80 83 82 85 87 89 88 89 90 90 92 96 98 101 103 104 108 110 111 115 117 117 119 121 121 122 118 120 117 114 113 110 109 107 106 105 105 105 103 102 101 100 99 98 97 93 93 93 89 88 86 82 80 79 77 75 76 74 80
59 60 62 62 62 60 64 64 64 67 67 67 68 68 71 69 70 73 75 78 78 80 80 82 82 84 88 86 86 87 89 90 94 94 98 103 106 104 110 112 115 116 118 118 118 120 122 117 116 112 111 108 107 105 102 103 102 103 99 101 99 97 97 93 94 91 91 88 86 86 82 81 79 77 76 75 73 73 70 78
58 60 61 62 61 62 62 64 64 64 65 66 66 68 69 69 69 72 74 77 77 79 79 80 82 84 87 85 84 86 87 88 92 95 95 100 102 104 104 107 107 108 111 111 112 115 116 118 113 108 104 103 103 102 100 98 99 96 97 94 95 93 93 90 88 87 86 83 84 82 81 79 77 77 74 73 71 70 67 75
59 60 59 60 61 61 63 63 63 64 64 64 66 67 68 68 69 70 72 75 76 78 79 80 81 83 84 82 81 85 88 88 91 94 94 95 95 97 100 101 104 102 104 106 106 108 119 116 111 104 101 99 98 96 95 94 95 93 92 91 91 88 88 86 85 85 83 83 81 81 77 77 77 74 69 67 67 67 67 75
58 58 60 59 60 59 61 60 63 63 64 63 64 65 66 67 67 69 70 73 74 75 78 80 82 83 80 81 80 81 82 82 87 88 90 89 92 92 93 95 98 97 98 99 101 103 109 104 103 101 96 95 93 93 94 92 89 90 87 88 87 86 85 85 83 82 83 80 79 77 76 73 69 69 69 68 69 67 68 76
59 59 59 59 60 59 60 61 62 63 63 64 64 63 64 65 66 67 70 71 73 75 75 77 78 77 78 78 79 79 80 80 81 84 84 86 87 88 88 90 93 92 92 96 100 102 104 102 102 94 93 92 90 92 91 90 87 88 87 84 85 84 82 83 82 81 79 76 74 71 71 70 71 70 70 70 70 69 68 76
58 57 58 59 59 59 59 59 61 61 62 62 63 63 64 63 65 64 68 69 70 71 72 74 73 75 75 75 76 76 77 78 78 80 81 82 84 86 84 85 88 88 91 94 99 99 105 108 105 96 94 91 89 88 87 85 85 85 85 84 82 81 81 77 76 71 71 71 72 72 69 72 72 72 71 72 71 70 70 77
56 59 59 58 58 59 60 59 60 60 61 62 62 62 62 63 63 64 63 67 67 70 70 68 70 71 72 72 74 74 73 76 75 76 78 81 79 81 82 83 85 85 89 93 98 104 107 106 105 98 90 89 86 85 83 83 83 79 77 77 74 71 72 73 72 73 72 71 74 75 75 73 72 74 73 72 72 71 71 77
54 55 56 58 58 58 59 59 59 59 59 61 61 61 60 61 62 64 64 64 64 66 66 68 68 69 69 69 71 71 73 71 75 76 75 77 78 78 80 81 84 81 87 87 94 103 126 125 107 91 87 84 82 78 74 74 74 73 74 72 72 72 74 73 73 75 72 72 75 74 76 74 73 75 74 73 73 73 73 80
