P2
80 80
255
107 101 102 102 103 110 110 111 111 111 116 116 117 119 123 123 126 127 130 129 128 132 134 136 138 139 143 142 145 144 149 150 151 151 153 154 153 154 158 161 160 160 160 162 163 165 165 163 165 169 162 160 163 161 156 155 157 158 157 157 157 155 151 149 145 147 143 145 140 141 139 139 142 137 133 132 131 132 131 137
100 101 104 105 106 110 112 111 113 113 116 119 117 120 123 126 125 129 130 131 132 134 134 140 141 142 145 145 145 147 147 147 148 150 151 151 156 157 160 160 159 161 162 168 167 167 168 166 166 165 165 166 164 161 160 159 159 161 162 160 161 158 156 154 149 152 152 149 148 147 142 140 139 139 137 134 134 131 131 138
102 102 104 104 108 108 111 112 115 115 115 119 119 119 125 127 130 127 128 131 131 137 134 133 134 141 143 147 145 148 149 148 151 152 152 154 157 157 157 163 157 159 165 167 167 167 167 168 168 169 165 167 165 165 163 164 164 167 163 163 163 162 158 158 157 155 153 152 150 148 144 145 141 140 138 136 135 133 132 141
100 102 102 106 108 108 111 113 114 115 116 120 122 122 126 125 124 128 128 133 131 136 139 136 138 139 141 145 149 149 147 151 152 153 155 157 156 157 161 162 162 163 162 166 167 169 170 167 170 166 166 166 163 164 168 166 165 167 161 161 162 162 159 161 157 155 155 155 151 151 151 150 145 143 141 141 138 136 137 144
100 102 103 108 108 110 113 114 115 116 119 118 121 124 125 126 126 130 132 134 136 137 140 142 145 145 145 147 149 150 152 151 152 152 148 151 148 147 150 150 148 147 146 147 146 148 146 143 145 148 148 148 151 155 156 159 158 164 162 162 161 162 163 161 158 156 154 153 153 155 155 152 148 145 147 143 141 141 139 145
99 102 106 107 110 111 112 113 114 117 118 120 119 120 124 125 126 131 131 133 130 127 125 124 120 122 126 126 131 133 135 138 138 140 145 145 143 145 147 147 149 147 147 149 152 155 152 150 148 146 143 145 144 144 144 143 146 145 145 142 138 140 137 139 144 147 150 151 151 152 154 152 153 150 147 145 144 142 142 149
101 103 104 106 108 109 109 113 115 114 117 119 117 114 110 108 111 116 122 128 128 132 135 136 136 139 136 138 139 144 142 142 144 147 146 146 149 147 148 149 150 151 150 152 154 154 153 150 149 149 146 145 146 146 146 148 147 149 150 148 148 147 146 143 142 141 141 139 135 133 137 142 146 151 149 148 146 143 142 149
99 100 104 107 107 109 110 110 108 103 105 110 116 120 120 124 127 129 132 129 134 135 137 135 142 138 142 142 143 143 143 145 146 147 149 150 147 150 151 150 151 152 152 155 154 155 154 151 153 151 147 148 144 146 147 149 151 150 151 152 147 146 143 142 142 140 139 144 141 140 138 139 135 131 132 137 141 145 142 150
95 100 101 103 98 98 104 110 113 116 118 121 123 123 127 128 129 131 130 133 135 138 136 139 139 142 143 144 143 144 146 147 148 149 147 150 152 151 153 153 156 156 155 156 156 158 155 153 153 151 149 148 148 147 151 150 153 151 151 150 146 143 142 143 142 142 139 142 142 143 141 139 140 135 137 135 133 132 126 137
91 88 99 104 106 111 112 115 117 116 119 120 123 123 127 127 130 133 134 133 133 135 137 140 143 143 143 147 147 148 148 149 152 150 151 152 153 155 155 154 159 158 157 157 157 159 157 156 154 154 150 150 149 152 153 150 152 152 150 150 146 147 146 146 144 145 142 145 142 144 142 141 141 139 138 136 136 133 133 140
78 73 105 107 109 110 113 115 118 117 119 120 124 126 129 130 130 131 136 133 136 137 136 140 142 144 145 146 148 147 152 151 152 153 154 153 157 157 160 159 160 161 160 163 161 162 162 159 157 155 153 154 151 154 153 154 153 155 150 150 146 148 145 147 145 145 145 145 146 145 146 145 142 143 140 137 136 134 131 139
67 69 104 110 110 112 114 116 120 122 124 125 125 127 131 131 131 133 133 138 139 139 141 143 144 147 147 146 149 151 153 153 154 154 156 158 160 157 159 161 160 164 161 165 164 165 164 161 158 157 156 155 156 156 156 156 156 153 154 152 150 151 152 148 146 149 146 148 148 147 148 145 143 143 141 140 140 137 133 141
64 68 106 109 111 112 116 116 120 122 123 126 128 128 129 133 135 135 136 139 140 141 142 147 147 148 149 152 152 153 154 155 153 157 157 159 160 160 161 160 158 161 163 163 168 168 167 164 164 162 161 162 160 123 156 159 157 157 156 154 155 152 149 148 149 151 151 150 152 149 148 147 144 144 143 141 140 138 135 140
63 68 103 110 110 112 114 118 118 121 125 124 129 128 129 134 134 138 136 139 137 142 142 148 148 150 149 152 153 153 154 153 150 116 151 161 165 163 164 162 98 100 146 163 167 168 169 169 167 165 165 150 75 74 148 160 159 156 158 156 111 80 117 143 149 151 152 152 152 151 148 146 144 143 146 142 141 138 138 142
68 71 104 108 114 117 118 118 121 121 123 126 128 130 129 133 136 138 137 140 66 70 94 127 143 146 153 155 155 150 118 77 66 107 111 162 162 163 162 161 71 106 87 65 83 132 169 170 170 164 112 71 70 73 90 159 161 159 159 154 72 92 72 67 84 134 154 155 148 122 93 71 64 132 146 145 141 141 137 139
73 72 103 111 112 116 116 119 120 121 81 71 66 68 63 127 136 139 140 135 81 137 128 70 69 109 153 154 153 69 80 131 94 128 72 164 165 168 166 160 81 85 150 66 57 95 171 171 166 73 58 95 130 57 63 154 164 165 161 149 69 114 106 89 60 136 158 156 122 99 93 57 57 118 147 146 142 137 88 81
75 75 102 114 113 115 118 120 124 123 70 109 88 125 75 122 137 140 140 130 62 99 104 113 89 116 155 154 154 83 134 58 106 145 73 159 168 167 168 150 115 81 124 100 56 138 176 178 169 67 137 133 107 129 115 112 163 162 161 112 61 105 69 88 69 155 159 160 136 69 93 122 78 107 148 148 116 73 92 96
78 79 100 111 115 117 118 123 123 124 69 88 81 86 98 111 139 138 140 127 102 57 70 67 92 130 157 160 158 134 65 56 100 82 59 142 169 168 170 120 145 126 149 79 57 169 180 180 177 128 71 159 100 70 60 73 162 167 159 72 68 124 89 137 94 161 159 160 145 95 71 106 95 92 148 147 117 89 123 65
76 78 96 112 117 119 119 121 124 124 80 70 66 60 67 93 138 142 144 115 113 65 64 99 60 143 157 158 159 158 73 87 141 125 123 92 170 171 174 85 80 123 85 89 64 177 178 180 179 170 74 169 110 100 83 161 170 168 159 67 90 104 134 60 147 163 164 161 154 66 109 65 57 79 147 149 136 70 91 109
79 78 89 114 115 118 120 124 124 125 95 88 73 84 116 76 139 143 144 112 69 89 112 99 57 147 158 162 163 164 82 86 142 61 68 98 173 175 174 118 75 79 89 56 99 181 182 184 182 177 110 66 70 139 176 179 175 174 170 161 149 108 70 66 165 168 167 166 157 74 62 73 106 144 155 150 146 87 77 85
80 80 85 111 115 117 122 123 125 129 115 57 59 60 67 72 139 145 148 149 143 128 92 67 59 153 163 162 163 165 136 63 94 142 166 170 177 177 177 178 177 167 140 95 152 185 181 188 185 186 167 91 174 182 181 184 184 180 177 179 176 176 170 168 172 171 171 169 162 150 157 159 159 157 157 154 150 114 60 117
80 79 82 111 118 121 121 124 125 129 129 126 130 131 136 141 144 145 148 151 152 155 155 154 150 163 163 167 169 168 171 162 171 175 176 177 181 182 182 182 186 183 189 185 188 192 189 188 189 186 189 185 188 186 186 184 187 181 185 183 181 180 176 174 177 178 173 173 169 168 166 164 165 161 159 160 155 145 145 154
82 79 81 111 117 119 121 125 125 128 131 133 135 140 140 142 144 147 150 152 153 157 155 160 160 163 166 169 169 173 175 176 177 177 180 184 184 184 185 186 187 190 189 194 194 193 190 192 192 192 190 189 190 191 188 190 191 188 187 185 185 184 184 183 178 177 175 174 172 170 168 168 163 163 160 158 159 153 153 159
82 79 80 107 118 120 124 125 128 132 132 135 135 138 141 142 146 149 149 151 155 158 156 161 164 166 167 171 168 174 175 178 181 180 183 182 185 186 189 190 190 186 192 194 196 195 194 194 194 194 192 194 193 194 194 193 193 191 189 189 187 168 139 181 181 180 180 176 175 121 160 168 167 167 162 162 161 153 147 159
86 81 81 97 118 120 122 125 130 131 133 137 138 133 139 145 146 148 151 155 155 158 132 154 164 167 170 174 174 178 178 181 180 179 169 187 188 188 192 192 190 191 191 194 195 202 200 196 198 184 182 178 168 161 185 196 197 199 190 181 105 108 82 185 185 182 182 179 154 61 68 141 168 167 167 162 158 107 84 155
89 82 81 90 119 123 122 125 129 132 135 135 127 60 83 137 148 152 153 153 155 156 80 78 120 164 167 174 174 177 174 162 129 83 64 181 188 194 193 185 93 87 83 77 82 201 201 204 196 67 93 77 76 108 182 200 201 193 146 75 168 103 109 168 188 183 181 173 71 144 139 73 115 164 166 161 105 91 66 117
93 81 78 83 117 123 123 127 131 132 134 136 99 55 52 54 93 145 153 156 156 145 82 154 120 64 142 171 178 178 81 80 75 154 61 149 193 192 193 184 127 168 133 108 79 204 206 205 196 85 175 117 184 103 194 199 199 147 113 71 106 66 155 109 188 188 183 103 61 149 108 71 75 169 166 105 99 64 127 85
94 85 79 81 111 122 123 127 130 132 134 135 74 89 94 62 88 67 148 159 155 106 113 88 66 80 55 141 176 181 119 129 165 159 136 92 195 196 201 188 128 122 162 73 77 206 211 209 200 75 70 127 107 65 199 205 203 189 65 104 156 62 104 72 188 193 155 60 128 110 115 96 160 173 165 84 146 146 125 86
94 88 81 82 107 121 125 129 132 133 135 130 71 74 73 128 104 89 155 159 155 72 142 162 82 147 64 168 185 185 175 70 113 138 176 69 193 201 203 195 65 172 113 120 83 212 212 214 195 135 159 73 103 85 204 209 210 201 110 103 156 94 78 167 195 194 181 102 92 57 58 128 177 177 172 151 74 129 101 133
95 92 80 79 96 123 124 127 130 133 136 129 70 71 111 137 103 123 156 157 160 101 89 138 104 84 100 178 185 188 185 81 124 144 108 61 177 204 205 196 101 137 174 126 93 211 217 216 190 133 156 144 90 95 211 215 209 210 184 70 89 141 198 199 200 198 194 188 152 64 87 182 182 182 178 168 117 99 130 171
96 95 82 80 85 119 125 128 127 134 136 138 139 119 65 58 70 144 158 163 164 160 161 89 109 109 158 183 191 188 189 141 130 78 99 162 201 205 209 203 95 102 109 116 148 219 219 220 208 184 192 199 204 214 217 217 214 216 208 130 200 208 207 207 204 201 199 197 190 181 182 185 186 181 179 176 166 148 168 175
95 97 86 79 81 117 126 128 131 132 133 140 141 142 145 120 91 153 159 163 166 170 169 173 161 95 179 187 190 194 191 193 174 196 202 207 209 211 210 215 215 217 222 222 222 226 224 225 225 227 229 227 224 223 223 219 218 218 217 216 215 210 210 205 208 203 201 199 197 194 195 191 189 185 183 177 177 173 173 179
95 96 91 78 78 109 125 125 130 134 137 139 143 143 137 148 152 158 161 163 166 170 171 175 175 180 186 186 191 195 195 198 202 207 205 208 210 214 214 217 224 224 226 230 227 232 229 229 230 227 230 228 226 228 227 225 225 227 221 220 216 217 217 210 212 210 205 201 203 198 196 195 190 190 185 183 177 177 177 182
94 95 94 81 79 97 124 128 131 134 136 141 143 147 150 151 156 159 161 164 168 172 175 178 180 183 187 190 195 197 200 204 207 210 211 212 216 222 221 226 223 225 226 227 231 235 232 236 234 234 233 227 221 234 232 232 228 223 220 217 211 210 216 220 216 214 188 88 138 185 195 197 193 190 165 137 137 139 154 184
94 94 95 84 78 86 122 128 129 135 136 141 142 148 149 130 93 152 164 166 169 175 177 177 177 172 143 188 196 199 202 203 206 187 81 209 220 223 227 226 219 74 139 225 235 237 238 240 230 195 111 92 126 235 237 238 226 87 96 69 126 100 214 220 217 214 111 104 185 88 83 190 197 193 106 99 105 69 142 185
95 95 97 91 78 79 119 129 133 134 138 141 142 147 142 75 67 70 151 165 169 174 157 106 72 61 128 152 195 204 201 200 113 83 128 117 220 229 226 232 150 84 143 90 175 241 244 239 101 202 154 129 90 238 240 237 224 119 118 120 100 102 224 221 221 200 86 105 199 123 106 205 200 190 107 84 91 135 168 189
90 94 94 95 80 77 109 129 132 134 136 139 145 145 85 103 67 81 74 134 169 175 160 73 104 163 86 77 199 205 205 77 100 105 178 67 198 234 234 228 109 168 118 148 71 239 248 247 82 122 140 98 95 235 242 245 216 152 98 173 76 113 230 232 224 128 79 92 200 145 189 208 202 179 111 87 81 95 182 190
92 93 94 96 83 79 93 127 133 134 135 142 144 124 92 78 125 134 102 65 153 177 177 97 140 76 69 110 183 203 203 168 163 155 79 92 78 226 235 132 159 228 235 84 171 248 249 251 106 138 195 143 123 230 250 251 198 121 145 126 178 159 233 233 216 83 103 77 178 107 207 212 203 154 109 99 63 106 185 193
91 93 94 96 91 78 82 120 131 135 136 140 141 144 134 69 129 105 81 126 171 178 179 163 72 177 165 106 114 208 213 209 108 63 86 82 199 233 239 237 150 140 235 103 246 252 255 255 161 71 77 133 218 251 253 254 193 133 140 148 161 219 240 239 238 230 219 184 129 198 212 216 209 203 195 194 193 191 192 197
90 91 93 95 96 79 78 115 130 134 138 142 144 147 150 149 92 101 109 167 175 175 181 181 88 87 141 190 205 211 212 216 215 78 148 225 233 240 244 245 247 240 146 226 254 255 255 255 247 245 255 255 255 255 255 255 252 251 250 251 249 247 244 240 240 238 232 231 225 223 218 215 213 207 204 202 198 197 195 199
90 89 90 95 95 83 74 101 128 133 134 139 143 147 148 152 155 137 163 169 173 180 181 185 190 194 197 200 206 210 215 219 223 223 230 236 237 242 247 250 255 254 255 254 255 255 255 255 255 255 255 255 255 255 255 255 255 252 254 251 249 249 248 243 241 237 234 227 228 226 224 218 217 212 210 204 200 199 195 203
88 89 90 93 94 91 76 85 125 133 135 139 144 148 150 154 157 160 165 169 174 177 183 186 189 195 198 203 207 212 217 222 227 226 232 236 242 247 250 253 253 255 252 255 255 255 255 255 255 236 255 255 255 255 255 255 255 255 252 229 251 252 247 248 245 229 127 168 229 230 227 225 211 113 155 197 205 200 197 200
87 87 89 92 94 94 79 77 121 129 134 140 143 145 152 153 156 158 136 157 176 176 183 186 189 138 155 202 209 217 217 225 216 209 206 211 222 250 253 255 253 203 93 184 255 255 255 255 221 163 96 235 255 255 255 245 171 103 126 88 229 254 252 250 223 103 141 96 193 229 228 221 176 131 185 82 109 201 201 203
85 89 89 93 91 95 83 74 108 128 135 139 143 145 149 152 144 86 92 86 163 176 182 188 184 91 102 69 151 210 221 222 122 131 117 128 122 248 255 238 108 228 110 124 253 255 255 255 106 152 111 99 123 255 255 188 146 175 157 104 210 255 252 208 141 189 69 116 113 217 228 220 114 141 97 84 181 203 204 206
86 88 87 91 92 93 90 77 91 126 130 135 139 142 144 120 75 132 145 78 90 170 180 185 133 128 110 104 146 140 219 224 149 96 103 174 106 250 254 234 101 101 217 96 127 255 255 136 195 221 108 72 233 255 255 232 198 206 94 93 178 255 255 187 85 142 129 97 138 227 228 177 146 96 156 127 209 208 202 207
83 87 91 91 91 91 93 78 79 119 129 129 138 140 146 141 97 135 139 147 125 105 179 181 85 103 125 158 77 208 221 225 177 83 173 107 110 254 255 255 164 173 237 116 213 255 255 232 106 166 176 180 255 255 255 251 108 93 80 109 196 255 255 253 174 84 141 180 235 235 230 203 140 99 88 191 212 206 205 210
84 87 89 90 90 90 93 85 75 110 125 129 133 143 144 146 144 100 121 87 99 168 177 186 183 151 86 157 144 215 221 223 204 126 137 150 168 254 254 255 255 122 189 255 255 255 255 255 255 224 120 255 255 255 255 255 208 243 255 255 255 255 255 255 249 178 213 240 244 238 234 231 223 220 216 216 213 206 204 209
81 85 87 90 88 90 90 90 76 94 122 126 133 137 140 142 148 146 96 146 165 171 178 183 189 189 192 180 206 218 222 225 231 237 243 248 252 255 255 255 255 255 255 255 255 255 255 255 255 255 255 255 255 255 255 255 255 255 255 255 255 255 255 255 251 247 243 240 240 236 233 224 223 220 221 214 209 207 205 208
81 84 86 86 89 88 91 91 78 80 117 123 130 133 139 141 147 150 154 158 165 172 178 180 185 192 197 202 207 214 221 228 234 236 240 246 254 255 255 255 255 255 255 255 255 255 255 255 255 255 255 255 255 255 255 255 255 255 249 255 255 255 254 253 234 172 240 240 239 234 228 224 195 129 216 214 215 206 204 210
80 82 82 86 87 87 88 88 84 76 110 119 126 132 134 138 141 148 151 154 156 166 173 182 184 189 191 143 145 209 217 223 234 231 171 122 245 255 255 255 255 95 133 237 255 255 255 237 168 113 168 238 255 255 249 195 152 103 83 248 255 255 254 214 110 179 147 234 230 225 195 101 73 122 203 213 209 205 204 203
78 80 81 84 83 86 87 88 88 75 98 116 121 125 129 134 138 122 81 77 80 76 164 172 181 160 76 105 117 176 215 225 196 97 133 176 113 254 255 255 154 204 192 132 121 255 255 122 102 223 106 170 255 255 246 141 189 170 99 224 255 251 170 105 201 139 96 159 228 210 72 99 154 158 165 210 205 201 198 195
77 79 79 81 85 86 87 85 87 79 83 113 118 122 126 129 134 121 102 78 76 63 151 172 168 97 154 142 153 89 199 218 202 155 174 146 94 175 255 242 192 198 161 202 240 255 255 199 128 176 235 116 255 255 255 113 230 202 209 184 254 251 144 128 169 175 131 202 222 214 99 139 161 134 171 202 202 197 194 179
75 79 80 82 81 84 85 86 86 85 76 106 114 116 122 124 129 127 77 82 86 106 132 164 170 159 95 160 129 98 196 211 219 168 105 90 149 248 255 255 245 141 95 162 255 255 255 251 153 153 166 211 255 255 255 123 99 133 174 225 253 247 237 143 98 121 215 217 217 212 168 84 162 196 199 199 192 191 185 157
76 79 79 80 81 83 84 85 83 86 74 97 108 114 116 120 126 128 78 73 75 80 126 158 162 168 150 95 156 191 204 208 213 216 138 220 247 255 255 255 255 255 244 255 255 255 255 255 253 255 254 255 255 255 254 249 251 254 249 249 246 239 232 227 190 218 215 211 205 204 200 197 196 196 195 190 187 183 176 145
75 76 77 79 80 82 82 84 85 84 79 83 103 108 110 115 117 121 122 127 132 137 144 153 157 162 166 172 180 189 196 201 212 217 222 236 246 250 255 255 255 255 255 255 255 255 255 255 252 251 252 253 249 252 251 251 250 250 243 242 237 229 224 216 215 211 208 207 202 199 193 189 189 188 184 183 181 175 157 145
73 75 76 77 79 80 81 83 83 84 82 75 97 102 106 108 113 115 120 122 127 131 137 143 150 155 160 149 164 176 187 191 197 199 205 210 215 243 255 255 254 178 224 248 255 255 253 202 186 180 185 231 238 242 213 191 190 188 213 234 228 218 159 123 163 186 197 192 182 156 118 97 137 176 174 171 167 161 136 138
72 72 76 77 79 78 80 81 82 83 81 73 93 101 103 105 108 110 114 115 69 84 123 137 144 149 146 91 85 118 162 180 189 121 92 86 97 211 243 253 213 195 137 144 181 251 242 136 169 121 184 191 224 223 165 162 161 134 152 222 217 202 135 156 135 117 179 182 146 87 142 109 130 166 167 161 158 149 129 133
72 73 73 76 77 79 79 80 82 82 82 76 84 94 97 101 104 106 107 71 71 76 78 109 132 137 91 69 87 111 79 170 178 128 128 88 113 193 237 245 165 156 168 199 226 239 231 119 106 150 114 186 208 210 148 128 166 151 175 215 209 157 140 90 84 121 177 173 148 95 100 140 125 158 156 154 147 137 125 128
71 72 73 74 76 77 77 78 80 81 82 80 77 92 94 96 99 101 92 78 64 81 87 82 128 128 86 97 105 85 142 161 166 134 82 148 114 174 225 236 181 163 175 150 230 228 216 126 130 83 87 180 197 198 134 103 156 146 193 206 204 158 123 123 91 166 166 163 146 80 115 143 151 147 144 144 134 121 117 121
70 71 73 73 75 75 76 78 79 80 80 81 74 87 91 93 97 96 99 98 75 70 77 116 123 125 127 117 89 88 146 152 161 156 153 168 172 193 216 224 230 235 228 215 220 216 207 192 184 182 182 180 185 182 182 182 185 189 198 194 192 186 182 174 165 164 162 155 149 146 146 142 141 138 136 128 125 113 109 114
69 69 72 71 73 74 75 75 78 77 79 80 75 80 88 90 94 96 98 100 101 91 107 113 116 121 123 126 130 134 137 146 149 153 162 167 176 188 197 211 219 222 223 218 209 200 190 187 179 176 172 170 167 163 167 171 171 175 182 181 178 173 170 161 156 150 146 143 138 138 131 131 128 126 121 118 112 107 105 108
68 69 70 70 71 74 75 75 76 79 76 77 78 76 84 87 87 89 91 96 97 101 102 107 110 114 117 120 122 127 131 132 137 142 149 156 162 172 182 191 199 206 204 201 192 181 176 167 163 157 155 153 154 148 151 153 153 155 159 160 159 157 154 150 144 138 132 129 126 123 123 119 117 113 113 110 106 103 100 105
66 67 70 70 71 73 73 74 75 74 75 76 78 74 80 83 84 87 89 91 92 95 97 101 103 106 109 110 113 117 119 123 126 130 134 140 146 153 161 171 177 182 183 181 172 165 157 151 145 144 141 138 136 137 136 138 140 141 146 146 147 144 141 137 131 127 124 121 117 117 113 110 108 106 103 104 102 101 98 103
67 67 69 69 70 72 72 71 73 73 74 77 77 77 79 80 82 83 85 86 90 90 94 94 99 101 103 105 107 108 111 115 116 120 121 125 126 130 136 138 138 142 140 141 137 138 134 134 133 130 128 126 126 124 123 123 123 123 121 120 118 119 117 116 114 113 111 111 111 109 108 106 105 104 104 101 100 98 95 99
65 66 66 67 68 70 70 72 72 73 74 75 78 76 76 77 79 79 81 82 85 86 86 90 94 95 98 100 100 102 108 109 111 114 117 117 120 123 124 125 126 129 131 132 130 131 130 129 128 125 126 124 121 121 121 120 119 117 117 118 116 116 117 114 115 112 110 109 104 106 107 105 104 103 100 100 97 94 92 97
65 64 64 67 66 68 68 68 71 70 72 74 75 74 76 78 80 80 81 84 85 84 88 94 96 97 99 97 101 102 116 108 108 110 112 114 117 120 121 123 125 127 127 129 126 125 126 126 124 122 123 120 121 116 117 116 115 114 116 116 116 111 113 110 111 109 108 106 108 105 104 102 101 98 99 97 94 92 92 96
62 63 63 64 65 67 68 68 69 70 71 72 73 72 74 77 78 78 79 81 83 84 90 91 94 97 99 98 99 100 100 100 104 107 111 112 116 116 116 119 122 123 126 121 125 124 123 122 122 121 120 117 116 117 115 115 113 114 113 110 110 111 110 109 108 107 106 105 106 103 102 102 102 98 98 97 94 91 88 94
61 62 62 63 65 65 67 67 68 70 69 68 71 72 74 74 76 77 77 80 84 85 87 90 92 94 97 97 95 96 99 101 101 102 107 109 114 114 117 118 121 122 123 125 124 126 121 122 118 121 116 118 113 114 113 112 112 111 110 108 110 107 109 107 108 106 107 105 105 103 101 100 100 96 96 94 91 88 85 91
60 62 61 63 61 64 65 66 66 69 68 70 69 72 72 73 75 76 77 79 82 84 85 89 90 90 93 96 93 95 95 97 101 102 104 108 111 115 117 118 120 123 122 123 124 126 121 121 118 118 116 114 112 112 112 110 109 110 109 108 108 108 108 105 108 106 104 104 103 101 101 100 98 95 95 94 90 88 85 92
60 61 61 62 63 64 64 65 66 67 68 67 69 69 70 72 73 74 76 80 81 84 85 85 87 90 92 93 93 93 94 96 99 100 102 105 109 112 113 116 119 120 119 120 123 124 123 118 117 115 114 112 111 110 106 110 107 107 107 106 107 105 105 104 104 105 103 103 101 98 100 99 97 96 93 92 91 87 82 89
60 59 60 63 63 63 64 63 64 66 66 66 68 69 69 70 70 74 76 79 80 81 82 84 85 87 89 92 91 92 91 94 98 99 101 105 107 108 113 114 116 115 120 122 120 122 120 118 115 113 112 110 110 105 107 104 105 104 105 103 104 104 105 103 104 102 103 102 101 100 99 98 95 92 90 89 86 84 82 86
59 61 60 61 63 63 63 62 64 65 66 67 67 67 69 68 70 72 76 79 79 80 83 82 85 84 87 90 88 89 90 92 95 97 100 103 104 108 112 115 119 119 120 122 123 123 120 116 115 113 114 111 109 107 105 105 102 103 103 103 103 102 103 102 103 104 101 99 99 96 95 94 91 89 87 85 82 81 78 84
58 60 60 61 61 60 63 62 64 64 65 66 66 66 67 68 70 71 75 77 79 80 79 80 82 84 86 84 86 86 90 91 95 98 99 102 106 107 111 115 117 119 119 128 128 128 122 115 115 116 111 109 106 106 104 103 103 103 102 101 103 100 101 98 97 98 96 96 94 92 92 89 85 84 83 82 79 78 76 82
57 59 60 60 61 61 61 62 63 63 65 64 65 66 67 67 68 70 74 76 77 79 80 80 81 85 87 84 84 86 88 88 93 94 95 96 99 103 104 107 106 114 112 119 125 122 114 112 110 107 105 105 105 104 102 101 100 100 100 100 97 99 97 94 94 94 90 91 87 86 87 85 84 79 78 77 77 76 74 82
58 59 59 58 60 61 61 61 62 62 64 63 64 65 64 67 68 69 71 75 76 76 78 78 82 82 82 82 82 84 86 87 89 91 92 94 95 96 101 101 102 104 108 118 125 128 111 106 104 103 102 99 99 96 97 98 98 95 96 94 93 92 92 91 89 89 88 86 85 84 80 82 80 79 76 75 74 73 71 79
58 57 59 58 61 58 59 59 61 62 63 62 62 62 64 65 66 68 69 73 75 75 77 80 80 81 79 78 80 79 82 83 85 87 87 88 90 93 94 96 96 98 102 104 110 106 106 101 100 97 95 95 93 94 93 93 92 92 91 91 89 89 87 86 85 85 83 82 81 80 78 79 77 77 76 73 72 71 69 76
56 57 58 59 59 60 59 61 62 61 62 62 62 62 63 62 66 65 67 71 73 74 76 77 76 74 75 77 77 77 80 79 81 83 83 84 85 88 90 91 94 94 97 103 103 104 100 99 97 95 93 92 91 91 90 89 89 88 89 86 86 85 84 83 84 82 80 81 80 77 78 78 75 74 73 71 69 66 65 75
56 55 56 57 57 57 57 60 61 61 61 61 62 63 62 63 64 64 66 68 68 71 71 72 73 72 73 74 74 75 77 76 78 79 80 81 84 85 83 88 89 92 98 102 103 102 97 97 94 90 89 90 89 87 87 85 85 85 84 84 82 82 82 80 82 80 79 79 79 76 74 73 69 69 66 68 67 67 66 75
55 56 57 56 56 56 57 57 56 57 59 59 61 61 61 63 63 63 63 65 67 67 68 67 69 70 71 71 72 74 73 76 76 75 78 79 80 81 85 86 89 92 95 103 106 106 96 93 93 88 89 86 85 85 84 83 84 82 80 81 80 78 80 78 80 78 76 74 71 70 70 69 69 69 70 68 69 68 66 75
55 54 57 56 56 56 56 58 56 56 56 57 57 58 58 59 60 60 62 64 64 64 64 65 66 68 68 68 69 70 71 70 72 74 74 76 79 78 82 84 87 86 93 113 129 128 100 90 87 88 84 82 83 81 80 80 79 79 78 76 75 74 71 71 70 69 70 71 71 71 70 71 70 70 71 69 68 67 67 75
