P2
80 80
255
106 103 104 106 107 109 110 112 112 113 114 117 118 121 126 125 125 127 130 130 130 134 139 137 139 141 145 145 146 145 153 151 153 156 157 158 157 158 156 162 159 157 158 159 162 164 167 165 159 161 157 158 157 154 154 156 158 157 153 153 151 147 148 149 148 147 144 146 142 141 140 139 137 138 136 137 135 134 130 135
101 104 105 107 106 107 111 113 113 115 119 118 119 121 120 123 124 125 127 128 130 133 133 136 136 139 141 145 144 148 148 148 152 153 152 153 155 157 158 160 162 159 162 163 162 165 165 167 166 169 168 165 159 163 160 154 156 159 155 152 153 154 153 149 148 148 145 146 144 143 143 139 143 139 139 138 137 134 136 138
102 104 105 108 109 109 111 111 114 116 118 118 120 121 126 128 129 130 132 136 135 138 138 139 139 143 142 144 146 148 151 151 154 153 155 155 156 157 161 158 159 159 165 167 165 167 167 168 169 168 169 164 166 165 164 166 164 163 161 161 158 155 157 151 149 146 148 148 145 145 144 141 139 139 141 138 141 138 137 139
102 102 103 107 109 109 113 113 114 116 116 120 119 121 123 124 127 128 131 133 134 138 139 140 142 145 144 146 150 152 153 156 155 156 159 156 161 158 162 161 163 161 162 167 166 170 171 167 169 168 167 167 166 165 167 165 163 162 162 161 163 163 160 157 155 150 150 151 145 147 146 144 143 141 139 138 140 138 137 143
102 103 103 105 107 110 111 115 116 117 117 116 116 113 112 109 107 109 114 114 119 122 122 125 125 125 128 128 128 128 127 128 133 130 133 136 137 142 147 151 156 157 161 165 166 170 170 170 168 165 164 166 166 167 163 165 165 164 168 164 164 162 161 160 159 159 155 154 152 152 151 149 146 143 139 143 140 141 139 149
100 102 104 105 106 101 99 99 102 106 112 114 117 119 120 123 124 127 127 128 128 131 133 134 133 135 138 136 137 139 142 142 142 144 146 145 146 145 147 147 147 148 147 147 144 144 139 138 142 142 146 152 156 161 163 166 166 166 165 165 166 162 160 161 162 160 153 157 155 154 154 153 152 147 143 143 142 142 141 147
95 91 94 101 105 109 111 115 115 114 118 120 121 122 124 124 125 130 128 133 131 133 134 135 137 136 138 141 140 143 143 145 147 149 145 148 147 148 149 150 154 152 153 152 152 153 150 152 149 149 146 144 142 145 142 140 140 146 153 159 161 162 162 161 157 157 160 159 158 156 156 153 152 151 149 148 146 145 143 148
103 104 105 108 108 113 114 113 115 116 119 118 122 124 125 126 129 131 131 131 133 135 136 139 141 141 141 142 144 143 144 146 146 146 147 149 146 149 150 150 154 154 157 156 155 153 155 152 151 151 149 147 145 147 148 149 151 150 151 150 145 140 137 142 148 153 157 158 157 161 160 159 156 152 153 151 149 147 143 150
105 106 108 109 110 111 115 114 117 119 122 121 124 126 127 129 131 132 132 132 136 136 139 141 139 141 142 143 144 148 147 146 147 150 150 150 149 152 154 154 156 159 158 158 158 159 154 155 152 152 148 145 146 147 151 151 153 153 152 148 145 146 142 144 142 143 136 140 144 151 158 159 160 155 156 156 151 148 147 153
103 105 109 109 110 113 116 118 118 119 122 123 122 124 128 128 131 134 135 135 136 139 140 142 142 143 143 146 147 148 149 150 151 150 150 151 152 153 156 158 160 158 158 161 161 160 159 156 154 152 150 148 149 149 151 152 153 151 149 148 147 146 144 144 145 143 143 145 146 147 141 138 145 156 157 155 151 151 150 157
105 106 109 111 113 113 116 119 118 119 121 123 126 128 129 133 131 134 136 135 136 138 140 143 143 145 146 149 148 148 151 150 150 152 149 153 158 158 162 163 166 163 163 164 162 164 162 160 160 156 153 150 151 152 156 156 155 153 152 151 148 151 147 147 146 145 145 144 146 147 146 146 143 141 140 136 142 148 147 155
105 107 110 111 113 116 117 120 122 123 124 125 127 129 132 133 130 135 136 138 138 140 143 144 144 146 147 150 152 149 152 150 154 153 154 156 154 157 160 162 164 164 162 165 164 163 165 163 161 159 157 157 155 157 155 158 155 157 154 153 156 150 149 149 148 147 146 149 150 148 148 146 145 143 142 139 137 137 133 150
107 109 111 111 114 117 117 118 121 123 122 125 128 130 129 134 135 137 135 125 132 140 143 147 146 146 149 152 152 149 150 152 152 152 155 157 158 159 161 163 161 163 166 166 167 168 168 166 166 164 162 162 161 160 159 159 158 156 159 155 154 156 152 150 152 150 150 152 148 151 150 144 144 143 143 140 142 140 135 142
105 111 113 114 115 116 119 118 108 103 98 93 89 88 130 135 136 139 140 88 74 67 87 127 145 150 150 150 151 152 150 141 110 80 81 156 159 161 162 165 157 106 155 167 171 169 167 167 167 164 163 164 155 138 161 160 162 159 159 155 155 156 155 152 152 152 154 156 153 152 151 150 147 146 143 142 140 139 137 143
108 109 113 115 116 118 120 118 64 91 61 103 110 62 128 133 137 138 137 73 129 139 124 61 66 111 152 153 151 91 70 76 110 91 72 156 160 163 168 167 130 116 66 72 121 165 171 171 172 168 165 117 75 78 162 164 163 163 158 115 131 154 153 154 155 154 155 156 153 153 151 153 147 148 148 145 140 141 139 145
108 109 113 115 114 118 117 118 66 95 98 121 91 59 126 135 136 137 138 64 69 106 70 107 88 125 152 153 153 94 130 68 76 72 104 145 163 166 166 165 93 143 111 69 58 70 171 173 173 153 71 105 69 63 152 160 163 163 160 71 97 75 115 150 156 157 157 153 147 127 143 153 149 148 147 144 143 143 139 144
109 109 113 117 117 120 120 122 70 62 81 93 65 68 124 137 139 140 140 66 99 54 73 79 70 137 155 156 154 139 89 57 77 135 90 109 166 165 169 170 72 121 148 111 56 86 173 176 166 62 69 150 92 59 111 166 165 163 145 91 139 65 61 107 160 156 91 70 68 60 131 152 151 147 146 113 135 142 140 145
110 113 115 114 116 119 120 122 80 81 71 85 59 78 116 135 138 140 135 74 98 55 89 90 62 145 156 156 158 155 64 90 66 139 74 72 166 171 170 165 89 138 160 105 57 139 179 180 175 77 137 95 75 103 74 167 167 165 102 74 115 77 70 151 162 161 87 105 70 69 123 152 152 131 71 94 120 141 141 149
108 113 115 116 119 121 122 124 94 60 63 78 112 105 104 137 141 143 133 61 93 62 122 62 59 150 156 159 160 159 83 136 114 98 87 70 166 173 175 145 65 119 77 118 57 171 180 180 180 140 103 155 103 66 64 159 171 164 67 74 87 147 83 164 166 165 99 102 117 99 117 154 146 92 123 71 88 142 144 150
112 112 114 117 119 122 123 124 110 60 60 66 68 73 100 140 141 145 147 141 130 91 67 59 67 157 157 163 165 163 134 62 105 69 72 110 168 178 177 151 79 81 123 61 64 178 178 185 184 174 83 142 71 83 166 178 176 158 67 115 82 80 118 170 169 167 111 96 101 75 103 157 153 77 113 77 71 144 143 150
112 114 116 118 119 121 124 126 126 128 129 134 132 135 138 141 143 148 148 151 152 154 151 142 118 158 161 164 162 163 163 90 128 156 164 170 176 178 180 182 181 165 132 76 107 184 184 189 187 185 101 67 140 183 184 185 180 179 167 142 86 63 165 174 171 169 120 94 60 80 134 160 154 111 94 96 68 143 146 153
113 113 115 120 122 123 123 126 129 132 132 134 138 138 142 145 146 148 147 152 154 154 156 158 161 163 163 165 166 168 171 167 168 174 174 175 179 181 183 183 187 187 187 184 184 191 192 191 192 186 171 181 190 188 187 186 186 184 184 181 176 172 176 176 175 174 154 157 161 166 166 165 159 136 59 104 148 151 148 154
111 115 116 117 122 122 123 126 130 133 133 135 138 138 142 144 145 149 148 152 154 158 159 157 161 163 166 164 170 171 173 172 175 177 179 178 182 184 186 189 190 188 192 190 193 194 192 194 195 190 192 194 195 190 194 190 191 189 187 186 185 187 183 180 180 178 174 171 169 168 169 167 164 156 152 155 155 152 152 157
109 113 116 120 122 125 127 130 130 133 135 133 137 141 145 149 149 149 152 153 155 158 158 162 167 166 168 171 173 171 176 175 180 180 178 183 184 186 188 191 189 193 192 193 197 194 198 197 198 196 194 194 197 194 194 194 189 190 192 187 187 187 185 180 182 178 176 175 174 171 166 168 168 163 161 159 159 155 151 158
105 115 119 122 122 123 127 128 131 133 129 62 86 134 142 147 150 149 153 156 155 132 69 137 165 168 172 173 173 175 176 179 176 174 158 181 188 188 193 193 192 194 192 195 195 198 201 200 200 195 194 193 194 197 195 197 199 194 192 167 92 187 189 186 184 178 145 150 178 174 175 172 169 161 148 160 159 155 153 162
100 115 120 121 125 125 127 132 131 132 102 54 51 55 96 143 151 153 155 156 158 86 139 103 81 157 169 174 174 176 165 137 96 80 62 158 191 193 196 193 97 98 94 93 98 198 202 205 193 80 83 82 80 127 200 199 198 192 108 126 115 181 188 188 187 173 75 69 135 175 178 173 165 94 87 161 162 159 157 165
94 114 118 120 123 125 127 129 130 131 67 58 63 52 53 65 109 151 155 157 145 67 99 104 70 57 107 171 177 177 79 79 84 158 65 106 193 192 198 193 94 180 123 91 81 202 204 206 182 95 126 167 167 152 200 202 162 77 144 123 154 140 192 193 184 88 126 134 102 119 177 172 91 73 70 140 162 163 157 164
85 116 119 121 125 126 130 130 133 125 61 115 103 120 129 108 99 148 157 156 107 118 144 131 87 75 60 168 179 183 137 136 161 165 113 77 193 202 202 196 95 125 162 76 77 209 207 207 170 81 73 181 73 176 205 206 151 84 139 73 118 89 198 195 144 69 139 113 65 161 177 97 124 111 111 78 163 161 160 167
79 113 120 124 124 126 130 131 134 91 98 61 116 91 112 61 135 154 156 156 71 79 162 119 138 132 95 179 183 186 178 73 100 115 181 70 189 204 205 203 65 166 120 129 83 210 215 214 152 171 127 65 103 197 212 211 192 67 95 77 129 88 194 189 84 83 84 91 115 185 183 150 128 129 89 135 169 166 165 168
78 110 118 121 125 126 130 132 129 131 96 62 74 91 130 80 148 155 157 157 152 82 101 91 103 67 156 180 182 188 185 84 140 125 123 61 150 203 207 204 88 140 171 123 99 215 217 215 131 187 176 163 71 207 218 212 207 106 122 98 160 202 204 200 193 118 58 72 189 187 189 177 90 108 138 171 171 169 163 170
77 106 118 124 124 125 128 132 134 136 137 137 102 58 55 120 153 157 163 164 165 165 153 78 115 87 177 182 189 187 188 146 112 79 108 169 203 208 210 208 94 98 100 105 146 220 222 219 167 155 167 177 187 219 220 218 216 173 121 204 211 208 209 209 205 195 157 180 192 194 191 184 166 142 179 176 173 172 168 169
77 93 116 121 126 127 130 131 132 136 137 143 143 144 114 142 154 158 161 166 166 170 174 171 154 149 180 186 188 192 194 191 183 196 203 205 206 214 216 216 217 219 223 222 223 224 227 230 224 225 224 226 229 226 227 224 222 221 217 215 221 214 215 208 205 201 201 199 201 196 193 190 186 183 181 178 177 171 171 167
75 80 118 122 122 126 131 131 132 139 139 141 146 148 140 153 157 157 162 164 169 171 173 173 179 182 187 188 193 193 196 195 200 204 205 211 211 214 216 223 224 224 227 230 232 231 227 230 232 230 230 231 231 231 229 226 229 224 223 219 219 220 219 212 211 208 207 205 203 201 197 193 189 189 186 177 178 179 174 161
75 77 115 122 124 127 130 133 137 139 141 143 146 148 152 155 158 160 163 166 171 172 176 181 183 186 189 192 194 200 201 199 206 207 209 213 221 222 224 229 231 225 227 233 232 238 233 235 237 235 232 225 232 232 234 232 225 221 220 218 223 224 220 215 106 151 195 207 206 201 182 138 133 133 186 185 182 179 174 156
75 75 109 121 124 128 133 132 135 139 142 146 147 139 75 141 159 161 165 169 172 175 174 179 176 160 148 190 199 198 202 203 203 184 82 209 220 226 229 232 224 74 146 228 237 237 241 241 225 153 85 92 233 239 237 220 76 91 97 118 216 229 222 188 84 194 91 99 211 207 125 110 103 88 190 191 185 181 175 160
77 75 100 123 124 128 131 134 138 142 141 146 144 73 69 59 122 159 164 167 169 163 124 83 61 82 78 190 197 203 202 194 108 91 126 120 220 232 230 233 151 89 158 86 193 243 245 167 169 185 158 73 233 243 243 198 169 147 90 109 229 231 225 112 112 198 111 188 214 203 97 71 129 125 192 192 191 183 170 163
75 74 83 121 126 127 133 136 135 140 140 140 82 89 62 82 70 90 162 170 173 164 64 112 144 151 58 155 200 204 195 82 85 120 184 67 204 232 235 225 120 168 127 126 86 245 249 217 135 76 138 130 230 250 248 167 150 134 113 114 236 235 207 75 89 202 116 217 218 201 148 94 65 168 196 194 190 185 162 166
75 76 75 119 122 127 130 133 137 141 138 95 103 87 115 132 125 75 72 164 177 174 103 149 76 81 71 84 199 207 205 121 192 168 76 84 84 228 237 125 150 234 235 77 225 254 255 244 161 123 138 157 219 252 248 136 117 129 136 161 241 241 188 105 80 157 184 226 223 189 109 112 121 199 201 196 193 185 156 166
76 75 75 109 124 127 131 135 138 139 141 139 82 59 127 108 103 61 135 170 173 178 163 85 161 183 79 105 188 208 210 208 75 67 74 86 194 236 243 241 148 147 230 138 253 254 255 253 80 85 161 242 255 255 254 212 212 224 232 245 249 246 244 240 233 219 232 230 228 222 216 213 209 207 202 201 197 189 157 167
81 75 75 96 124 127 131 132 138 140 142 143 148 118 87 118 68 128 165 172 176 177 181 90 72 83 121 182 205 211 212 217 201 70 144 229 237 246 246 248 248 241 142 250 255 255 255 255 254 255 255 255 255 255 255 255 255 255 255 254 252 252 246 244 241 238 236 232 228 222 220 216 214 210 207 202 197 179 162 165
86 75 73 79 121 126 129 133 136 138 141 145 147 151 145 82 117 163 169 172 176 181 184 179 184 194 201 205 203 211 216 217 225 219 231 236 238 247 251 252 254 255 255 255 255 255 255 255 255 255 255 255 255 255 255 255 255 252 255 255 254 253 249 228 221 243 237 235 231 175 203 217 220 214 211 204 200 167 163 166
91 74 73 74 117 124 132 130 135 137 141 143 147 153 155 157 160 165 169 171 176 178 183 185 187 194 201 201 208 214 215 224 227 230 232 241 242 248 252 254 255 255 246 255 255 255 255 255 214 238 255 255 255 255 255 252 207 120 226 255 255 255 213 117 105 230 240 236 218 135 179 78 191 214 214 203 198 161 159 164
92 80 75 72 107 126 128 129 134 138 141 144 147 152 154 157 161 164 165 172 175 181 184 185 189 187 196 204 213 218 220 222 225 221 224 228 242 251 255 255 253 160 85 229 255 255 255 254 105 84 113 247 255 255 130 165 135 156 202 255 255 202 172 76 96 116 242 239 149 139 94 93 218 220 215 208 197 162 159 164
90 88 74 73 87 123 127 131 134 137 143 142 149 151 152 152 117 87 162 172 175 180 186 186 121 114 90 180 207 214 225 222 80 138 144 146 169 253 254 218 103 242 105 101 255 255 255 138 155 208 94 136 255 255 141 131 145 170 181 255 249 108 124 148 113 171 241 226 149 126 179 191 224 221 218 211 181 165 157 161
88 94 74 72 75 119 125 131 134 136 139 143 143 147 132 76 106 114 93 165 177 181 182 179 70 162 62 138 89 206 220 222 87 83 84 132 160 254 255 203 89 128 226 90 194 255 233 208 187 90 104 255 255 255 184 208 81 78 166 255 255 236 96 138 198 250 249 241 203 147 112 225 225 222 215 208 166 162 154 161
88 90 83 72 73 112 125 129 131 137 137 139 144 100 69 119 138 95 75 99 171 177 180 114 90 120 168 81 91 214 221 228 95 130 216 159 155 255 255 255 118 176 181 156 255 255 255 239 117 88 226 255 255 255 233 149 228 255 255 255 255 255 232 222 255 252 249 248 240 237 233 231 227 221 217 206 163 163 154 157
88 90 90 75 71 96 123 126 128 134 137 137 142 139 85 131 138 133 124 100 120 177 179 105 75 124 115 132 195 219 222 229 113 105 94 115 177 255 255 255 251 124 248 255 255 255 255 255 255 249 255 255 255 255 255 255 255 255 255 255 255 255 255 255 255 254 246 242 240 232 235 235 228 224 219 192 163 156 150 156
87 87 89 77 72 78 117 123 129 132 135 138 139 144 140 88 119 99 75 145 173 177 180 183 182 151 97 108 211 217 226 228 235 238 242 250 255 255 255 255 255 255 255 255 255 255 255 255 255 255 255 255 255 255 255 255 255 255 255 255 255 245 140 239 252 252 241 229 125 120 230 230 229 222 217 171 159 153 149 149
86 87 90 84 72 73 113 122 126 128 131 134 139 144 145 141 84 110 157 167 173 177 181 186 188 195 197 204 212 218 226 233 242 242 249 252 255 255 255 255 255 248 255 255 255 255 255 255 251 181 246 255 255 254 210 141 85 236 255 255 241 149 184 104 238 240 168 129 104 137 215 231 227 221 212 163 155 148 143 145
84 86 88 87 73 73 100 117 122 129 131 131 138 142 143 147 149 156 159 163 168 176 181 187 188 197 196 203 208 218 223 232 240 244 208 150 255 255 255 255 227 101 129 232 255 255 223 127 126 184 189 255 255 185 145 199 131 201 255 232 92 172 119 134 165 234 177 130 204 172 197 225 222 217 200 156 149 145 140 142
85 85 85 88 78 71 82 115 119 124 127 130 133 140 142 142 149 153 156 160 165 172 178 180 186 186 123 77 195 216 223 226 225 120 99 203 214 255 255 255 108 181 144 167 242 255 253 88 176 218 128 255 255 227 161 235 193 168 255 250 140 126 99 181 231 234 215 79 134 215 218 218 218 211 173 153 147 141 136 138
84 85 86 84 85 72 71 110 116 121 125 129 129 135 139 139 125 116 104 89 110 167 173 178 156 70 121 132 85 205 221 226 106 127 205 182 88 253 255 185 228 243 238 146 255 255 255 104 219 180 156 255 255 250 98 135 201 241 251 243 237 141 190 228 224 222 218 203 213 211 212 210 206 203 154 148 142 135 129 133
82 84 84 84 84 76 72 101 113 118 120 123 127 132 133 118 67 76 83 57 81 160 168 167 90 148 160 173 109 113 218 223 204 152 103 173 146 255 255 255 220 119 91 255 255 255 255 186 240 255 255 255 255 255 253 255 251 248 244 237 232 223 222 218 212 211 206 206 198 200 198 198 197 185 145 142 134 132 126 130
81 82 82 84 85 81 70 85 108 114 118 120 123 125 129 127 83 81 77 70 81 154 164 167 158 89 155 111 94 191 214 222 223 173 117 226 254 255 255 255 255 255 253 255 255 255 255 255 255 255 255 255 255 255 255 252 245 239 235 222 185 200 205 206 203 188 140 93 121 188 189 186 181 160 140 137 130 126 120 124
80 80 84 82 83 83 72 72 104 108 113 115 118 120 124 126 74 66 91 93 63 144 156 163 166 155 93 145 188 195 204 213 223 230 238 254 255 255 255 255 255 255 255 255 255 255 252 244 238 229 252 255 248 183 159 142 140 224 222 193 161 132 128 176 188 103 137 122 116 176 176 170 165 141 133 130 125 120 118 117
79 80 81 83 82 83 78 71 97 103 110 111 115 117 122 121 94 95 110 123 134 148 154 157 164 166 171 181 187 190 202 208 216 225 235 244 254 255 255 255 188 155 178 206 248 248 206 152 130 187 212 237 239 146 202 148 140 212 206 131 155 79 109 180 178 108 93 125 119 163 161 159 153 132 127 122 118 113 109 114
77 79 81 83 83 80 81 72 83 100 104 106 110 112 117 120 122 126 129 134 136 141 147 149 155 159 157 162 174 183 191 196 203 135 124 104 116 254 255 255 131 148 121 114 230 235 188 130 172 129 201 226 226 162 163 176 168 212 197 101 126 109 153 171 169 126 133 157 155 152 150 147 133 122 117 114 111 109 103 109
77 78 80 81 81 82 82 74 73 97 100 101 103 109 113 114 118 118 120 112 126 134 140 145 150 150 81 83 105 139 174 189 193 105 155 87 119 246 255 250 191 117 136 145 225 220 173 144 82 96 192 213 210 167 180 192 198 202 195 184 176 165 161 162 158 154 155 145 144 139 136 132 118 115 112 108 105 104 101 103
75 75 77 80 80 82 82 79 70 91 99 98 101 104 107 110 112 114 74 61 85 117 130 135 141 115 68 78 113 67 164 178 182 111 112 131 130 231 245 236 172 128 116 191 211 208 195 181 182 185 190 191 195 198 198 198 193 188 182 173 165 157 151 146 142 138 136 129 128 125 119 117 113 110 106 106 101 100 95 100
75 76 77 77 79 81 81 79 72 82 92 96 98 101 103 107 107 76 77 65 78 74 95 129 133 78 87 119 86 107 160 165 173 92 116 147 179 224 236 232 233 221 208 204 201 192 188 179 182 177 177 175 175 177 176 178 177 171 165 155 149 141 138 133 129 126 124 118 118 115 113 111 108 106 104 102 99 96 94 98
73 73 76 75 78 80 80 78 75 71 89 91 92 96 101 101 91 75 69 90 77 68 117 125 125 119 97 79 78 145 151 160 163 170 181 190 202 212 219 223 221 212 200 191 184 175 172 170 166 161 160 159 158 157 157 161 160 157 154 143 137 131 124 120 119 117 115 116 113 112 108 108 107 103 101 99 96 91 90 93
73 74 75 76 76 78 80 79 80 70 85 87 91 94 96 96 99 98 73 60 68 107 113 119 123 127 128 130 130 139 142 146 155 158 168 179 189 199 206 206 202 194 184 175 166 159 154 150 148 146 140 143 141 140 139 136 132 127 124 122 120 118 119 117 117 115 112 112 111 108 108 104 102 101 99 95 91 87 87 90
71 72 74 76 76 76 77 78 77 71 77 86 88 91 91 93 96 98 99 95 101 107 110 113 116 118 121 123 127 132 134 137 139 148 154 161 167 176 182 181 180 171 162 155 148 143 143 138 133 131 128 130 128 125 125 124 120 122 122 119 118 118 116 116 115 113 113 111 108 107 106 101 99 98 95 90 89 84 82 90
71 72 73 74 75 75 76 77 77 76 72 84 84 86 88 90 92 94 97 98 101 103 107 107 107 111 112 116 118 121 125 125 130 133 135 142 147 149 148 144 137 136 133 132 131 131 131 131 131 129 126 126 124 121 122 122 119 118 119 117 115 114 115 111 110 109 108 106 107 105 104 102 97 95 92 90 85 84 83 88
70 70 73 72 72 76 76 77 76 76 70 80 82 85 85 86 90 91 92 92 94 99 100 99 104 105 106 109 107 110 112 115 115 115 118 121 123 124 127 125 128 129 130 130 129 128 128 126 124 125 121 121 121 120 117 117 119 116 117 116 114 116 113 111 111 109 109 107 103 105 100 98 96 94 92 88 84 82 80 86
68 70 71 72 73 73 75 74 76 75 73 76 79 79 82 85 84 87 88 91 92 92 96 98 101 101 101 101 105 105 119 109 112 113 116 119 119 122 122 125 125 125 126 126 125 125 123 125 124 122 119 118 119 116 118 115 115 111 114 111 114 109 112 111 109 109 108 104 104 101 100 98 94 93 89 87 84 82 78 84
67 69 69 70 71 73 72 72 74 74 75 74 76 79 80 80 83 82 85 85 87 90 94 96 98 101 101 101 102 105 105 103 109 110 114 115 116 118 119 124 119 124 123 123 125 122 123 121 122 119 116 115 116 115 115 113 112 111 111 110 109 112 111 108 108 105 106 106 104 103 100 97 95 90 89 84 82 79 77 82
66 67 68 69 70 70 72 72 74 74 74 72 74 75 77 78 81 80 83 85 91 92 94 97 98 99 100 102 101 99 101 104 105 105 111 110 115 116 119 118 121 123 125 121 122 124 122 122 120 118 118 115 113 113 112 112 111 110 110 110 110 108 107 109 109 106 108 104 103 98 95 93 90 86 84 80 79 77 75 80
64 66 66 67 67 69 69 72 72 73 74 74 74 77 76 77 80 81 83 86 88 90 91 94 94 96 97 100 101 97 99 100 102 104 108 111 113 117 117 118 121 122 122 124 120 121 118 119 117 115 116 112 112 112 108 109 109 110 109 108 107 108 109 107 106 105 103 99 98 94 90 88 85 82 80 78 77 76 74 80
65 63 65 66 67 68 69 70 71 72 73 72 73 74 75 76 77 79 81 85 86 89 90 89 92 92 95 97 97 95 97 100 103 105 106 108 111 113 116 116 118 120 118 120 120 120 119 117 117 114 113 110 111 110 108 109 106 108 106 108 107 106 104 102 101 101 96 95 91 88 85 84 82 80 76 76 73 74 72 77
63 64 64 64 65 67 66 68 68 71 70 73 72 73 73 75 76 78 79 82 86 87 86 86 88 90 94 95 94 94 96 96 98 102 103 106 110 111 113 114 116 117 120 119 119 120 119 117 116 115 112 111 109 106 107 107 107 107 106 102 102 101 100 98 94 94 91 89 86 84 83 80 80 77 75 73 72 72 68 73
61 63 63 65 65 65 67 66 68 68 69 71 70 71 72 73 75 74 78 82 81 82 84 84 90 87 90 92 90 92 94 94 97 101 103 106 107 110 111 115 115 117 118 120 120 118 119 114 115 113 110 109 107 106 105 103 103 105 100 101 98 95 94 92 91 88 88 84 83 81 79 78 76 73 73 71 68 67 67 76
62 62 63 64 64 63 65 65 66 67 68 69 70 69 71 70 73 74 76 79 80 81 82 85 85 86 91 89 89 92 93 94 96 96 102 105 107 108 111 114 117 116 115 117 113 113 112 111 109 107 106 103 102 101 100 100 100 98 99 95 94 92 92 90 86 86 84 82 82 79 79 77 75 71 68 67 67 69 69 76
60 62 63 62 64 63 65 65 65 67 68 67 68 70 70 71 72 73 76 78 80 79 83 83 85 85 87 88 87 87 90 92 95 97 99 103 104 106 106 108 106 108 111 108 108 109 107 107 105 104 100 99 98 98 99 94 95 95 92 92 91 89 89 86 82 85 83 81 79 76 74 70 69 69 68 69 69 68 69 77
61 62 61 62 64 64 63 65 65 66 66 68 68 68 69 71 72 72 74 76 77 79 80 82 84 85 87 86 85 87 89 91 94 95 98 98 99 100 100 102 101 103 102 103 104 104 106 104 102 100 97 96 96 91 93 91 91 89 89 89 88 89 86 85 83 82 81 78 73 70 70 70 71 71 70 70 71 69 70 78
61 60 62 61 62 60 62 63 65 66 64 66 65 65 68 68 71 72 71 74 77 77 80 82 82 83 82 83 83 85 87 86 89 89 90 92 94 94 94 95 95 94 96 97 99 99 103 99 97 97 94 91 91 90 90 89 87 87 86 85 85 85 84 83 79 75 73 74 73 71 70 73 71 73 71 70 71 70 70 79
59 60 59 61 61 61 61 63 64 64 64 65 66 65 67 67 69 68 71 73 75 77 77 78 81 78 81 80 81 81 81 83 84 86 87 88 89 90 90 90 91 92 93 96 96 97 99 96 95 91 89 89 87 87 88 88 85 85 85 83 80 78 76 77 76 76 75 77 76 75 74 73 74 73 73 74 72 72 72 79
59 59 60 60 61 61 61 63 63 63 63 64 64 65 65 65 67 67 69 71 72 74 75 75 75 77 77 77 77 79 80 80 81 82 82 85 84 84 84 86 88 89 90 91 96 97 99 97 97 92 89 86 85 86 84 83 81 78 74 75 76 76 76 75 79 78 78 78 79 78 76 78 77 77 74 76 75 74 74 82
58 58 59 59 60 60 61 61 60 62 62 63 64 64 63 65 66 67 66 69 70 70 73 71 72 74 73 75 76 77 76 77 78 77 78 80 81 82 82 84 87 87 89 92 95 98 98 99 96 93 87 86 81 76 76 76 75 75 73 74 75 75 76 76 78 79 79 81 82 80 81 81 79 80 81 78 78 77 76 83
57 57 59 59 60 60 60 60 60 61 60 61 62 63 63 63 65 66 66 67 66 67 69 69 69 70 71 73 72 72 74 74 76 75 76 77 78 79 80 80 84 81 85 87 91 95 107 100 92 81 79 77 77 75 74 75 75 75 75 74 75 75 75 77 77 78 79 81 87 90 86 88 86 85 84 84 82 81 81 87
