P2
80 80
255
104 100 104 103 105 106 110 112 115 115 117 117 119 121 123 125 126 125 129 129 129 133 133 136 139 140 141 143 146 144 149 149 154 151 154 156 156 156 161 158 161 160 163 159 165 165 164 164 166 164 163 162 162 160 161 159 159 158 160 158 158 154 152 152 148 148 145 147 142 141 138 140 137 140 136 132 131 130 131 135
99 101 103 106 108 109 109 107 113 116 116 119 119 121 123 125 125 129 129 130 132 134 133 138 140 142 144 146 147 148 147 150 150 153 152 156 156 155 161 162 160 162 161 167 166 167 167 164 165 171 163 165 164 165 164 161 162 165 159 158 158 159 159 155 154 151 151 150 145 146 145 144 141 140 139 134 134 134 131 139
102 103 101 105 106 110 112 114 114 113 115 118 121 121 125 127 129 129 127 132 133 134 135 135 137 142 142 144 144 147 148 150 152 151 153 153 156 157 159 163 156 160 164 166 169 169 164 169 170 170 163 166 165 164 159 165 167 165 161 163 163 159 159 155 157 152 157 153 148 148 145 146 142 141 141 137 138 135 134 142
101 103 102 107 107 109 111 112 115 114 116 120 122 125 124 126 126 129 130 131 134 138 138 137 139 141 141 147 148 149 150 152 150 153 154 156 155 156 160 163 160 165 164 168 168 171 169 167 167 164 164 168 166 162 164 163 165 168 163 163 163 161 161 160 160 159 155 154 152 152 152 150 148 145 144 140 141 141 136 143
100 103 104 107 110 109 111 114 115 114 116 119 119 123 128 129 127 133 129 135 135 139 140 143 146 144 145 147 151 150 154 153 154 152 155 153 151 149 149 147 146 147 144 145 143 147 145 140 142 143 142 142 141 150 150 152 155 158 158 160 161 158 161 161 156 157 156 155 155 150 153 151 151 147 145 145 143 139 139 147
101 102 105 107 110 111 113 114 115 121 118 118 120 123 125 126 128 129 132 135 134 134 134 130 127 123 122 126 126 131 134 137 140 142 145 144 144 146 145 149 146 149 151 152 151 152 153 153 149 148 146 147 143 146 147 146 148 147 148 144 140 142 136 135 138 141 141 147 150 151 155 153 151 147 148 149 144 143 145 149
101 103 105 107 110 111 110 112 115 116 117 119 119 121 119 115 113 113 115 123 128 132 133 136 136 136 137 139 137 142 143 143 145 145 147 147 150 150 148 151 150 152 155 154 152 156 155 153 149 149 147 144 145 145 149 148 149 151 150 149 149 145 145 143 143 141 143 140 136 136 133 134 136 145 146 149 146 145 142 150
100 101 103 106 110 108 112 113 113 110 104 104 109 115 119 123 125 126 129 130 132 136 137 138 140 140 140 142 142 143 145 145 147 148 146 150 150 151 149 150 152 152 156 153 155 157 153 155 152 149 149 147 145 147 148 150 149 152 152 152 151 147 144 142 143 142 142 139 141 139 141 139 140 133 134 131 131 140 143 152
97 100 103 107 105 101 98 105 109 114 116 122 120 125 127 127 130 130 131 132 132 137 139 141 139 143 141 143 146 147 147 150 147 150 149 155 153 152 152 153 154 155 161 155 158 159 158 156 153 153 148 146 148 149 149 150 153 152 149 147 146 145 143 142 143 144 142 142 142 141 142 143 143 139 138 133 136 136 130 135
96 93 94 99 105 111 111 116 116 119 120 123 124 124 126 128 131 131 132 135 135 136 139 141 141 144 145 145 147 150 152 150 152 152 152 154 154 155 156 157 156 157 160 162 159 157 160 158 153 154 153 149 149 150 153 154 151 153 149 151 149 147 145 145 145 143 146 143 146 142 143 143 141 141 137 139 137 134 132 138
84 72 104 108 110 110 112 116 117 120 121 123 123 127 128 128 133 133 136 135 136 136 138 144 142 148 145 149 149 151 151 150 153 155 156 155 158 157 160 160 161 161 162 160 163 161 163 162 158 155 155 154 152 153 154 155 156 154 153 153 151 150 147 147 146 146 148 146 145 145 145 146 146 141 140 138 135 136 132 141
76 65 99 108 111 113 113 119 120 119 122 125 125 127 130 131 133 135 136 138 140 140 141 142 146 147 147 150 149 150 151 153 156 154 157 159 160 159 160 161 164 161 160 164 165 165 163 165 161 162 159 156 157 155 156 156 154 157 154 153 154 150 151 149 149 148 148 146 149 150 150 146 143 144 141 140 139 138 135 143
68 64 100 110 112 112 114 116 120 121 123 127 126 129 130 134 134 137 137 137 141 141 142 145 148 148 150 152 153 156 153 155 156 155 159 158 159 160 161 162 161 165 164 168 166 168 167 167 164 163 162 163 156 110 157 158 158 160 154 154 152 150 148 149 149 149 151 150 151 151 149 145 147 143 143 141 141 140 136 144
63 65 94 109 112 114 115 117 121 122 126 123 126 128 130 134 138 135 138 140 139 143 144 146 148 149 151 150 151 155 153 155 152 121 155 162 163 163 164 164 94 101 143 162 168 170 166 169 166 168 163 143 69 82 139 160 159 159 160 157 117 71 95 132 147 150 154 154 152 153 149 146 139 136 145 142 140 140 138 145
67 67 93 110 114 116 116 117 121 122 124 126 129 131 131 133 136 137 137 140 69 80 110 138 145 146 154 154 156 153 129 83 66 100 119 162 165 165 165 162 71 101 90 64 83 131 171 172 170 165 102 73 75 67 81 159 160 161 160 157 77 99 79 63 71 106 153 153 151 106 79 66 59 100 144 144 143 141 139 138
71 72 91 111 113 116 117 119 121 123 101 91 77 72 66 125 138 139 139 141 73 132 114 70 67 108 153 154 150 70 74 132 94 132 76 163 165 164 165 159 86 81 150 64 57 101 172 174 163 70 59 105 137 58 62 149 164 162 164 150 66 94 120 99 60 120 155 156 145 86 82 63 58 82 145 145 142 138 91 76
76 75 88 110 113 117 117 120 123 122 75 109 69 122 96 110 138 139 139 138 65 113 117 101 102 109 154 156 155 80 131 59 101 143 71 161 168 170 169 146 122 81 119 100 56 146 173 172 173 68 142 133 98 124 125 101 163 162 162 121 60 117 69 82 77 150 158 157 148 68 90 131 101 81 146 149 132 72 89 101
78 77 84 112 115 115 116 122 123 126 88 92 89 111 100 91 139 139 142 135 88 60 63 65 95 125 155 158 159 131 66 55 107 79 59 149 169 172 169 113 150 126 151 78 58 168 178 179 176 129 69 159 110 76 60 70 165 167 164 76 69 127 80 129 79 161 161 159 153 77 88 97 104 68 145 149 137 76 118 81
78 79 82 110 116 119 119 120 124 126 102 60 83 60 60 76 137 140 144 129 101 66 66 110 62 135 158 159 159 157 75 84 139 129 119 99 170 175 175 78 84 122 86 86 68 180 179 180 180 171 74 167 112 92 90 164 170 168 162 74 75 98 121 61 131 164 168 164 157 77 100 65 57 61 143 150 147 91 92 101
81 79 81 111 116 120 121 123 126 127 118 87 62 92 101 69 139 143 143 127 74 102 101 96 56 146 159 164 164 163 79 91 145 62 67 98 174 178 177 113 75 80 87 56 104 184 181 185 184 180 116 64 72 147 173 176 176 176 169 166 159 133 85 66 164 172 166 168 160 94 67 82 119 146 155 152 147 125 65 70
82 80 80 109 115 119 122 124 126 128 125 59 56 65 67 66 135 145 148 148 140 121 82 69 58 151 162 164 166 163 136 62 89 138 164 173 179 180 178 179 178 166 143 96 159 185 186 187 183 187 172 98 178 185 183 185 183 181 179 181 178 177 171 171 175 174 172 168 166 159 158 159 159 156 154 156 152 143 68 104
84 79 79 103 116 119 123 126 125 130 128 125 122 130 133 138 142 146 149 151 155 154 153 153 146 159 165 166 170 172 169 159 172 176 178 180 183 182 185 185 185 187 186 184 190 190 192 191 191 189 188 187 188 189 187 186 187 186 187 182 184 181 182 179 180 178 175 172 172 167 168 166 164 162 157 160 157 151 143 157
87 81 80 97 117 118 122 124 127 130 131 133 135 138 140 141 145 147 151 152 154 159 159 159 162 164 164 168 170 174 173 174 177 181 184 183 184 184 187 187 189 189 188 189 193 195 193 192 192 194 191 191 191 192 193 191 187 189 186 184 185 184 182 181 180 176 178 173 170 172 171 166 163 164 162 160 158 152 156 158
89 80 79 90 118 121 124 126 128 130 132 135 136 139 139 144 145 147 151 151 155 157 161 162 167 168 169 172 173 172 176 178 183 182 183 185 186 186 191 190 190 191 191 196 197 198 195 196 197 196 196 196 194 195 196 193 192 192 192 188 186 165 109 183 180 182 179 179 174 142 133 169 168 167 164 161 160 157 142 156
93 82 82 85 115 120 122 124 128 131 133 137 138 136 141 146 149 150 151 155 156 157 143 156 164 168 171 174 174 176 177 182 178 178 174 186 189 190 192 192 193 191 190 191 196 199 199 199 198 185 179 170 162 155 179 194 194 196 192 181 105 109 83 177 187 183 181 178 167 66 62 101 163 166 168 161 160 136 80 129
93 84 80 82 115 122 124 127 129 133 134 135 136 67 81 137 148 150 156 157 157 159 90 76 122 164 170 175 176 177 175 163 133 86 65 183 191 192 195 185 93 87 82 77 83 202 204 204 199 68 96 77 82 118 173 198 195 193 150 71 167 97 137 139 187 186 181 178 84 115 148 73 81 160 168 163 138 67 81 79
96 88 79 81 109 120 124 128 129 131 133 136 128 58 53 55 89 144 155 156 158 152 79 154 123 65 146 175 180 178 86 77 74 154 61 158 194 195 195 184 132 165 134 111 81 204 205 206 197 86 177 111 188 108 189 200 200 166 100 72 103 64 149 84 187 186 185 136 59 107 148 66 62 158 171 140 80 73 97 112
95 91 82 79 100 122 122 126 131 133 135 136 96 80 99 58 73 68 144 158 159 123 105 82 71 79 57 133 178 182 120 124 164 158 137 96 196 201 202 192 130 123 161 73 79 209 210 211 199 76 71 125 108 64 198 205 202 195 71 84 143 64 102 67 180 193 176 62 86 146 111 117 127 175 171 130 107 146 147 109
94 95 83 80 89 120 124 129 128 132 138 133 73 70 81 117 111 78 149 158 161 83 136 164 83 151 64 167 180 187 174 71 115 139 176 69 194 200 205 192 65 173 111 121 85 213 215 216 199 130 163 73 98 84 202 208 209 205 134 92 167 119 76 156 192 195 186 139 76 60 56 87 177 180 174 167 93 102 121 95
95 95 85 81 82 118 127 128 127 132 135 136 75 67 116 133 124 102 154 157 159 105 82 145 112 89 93 177 187 190 187 80 121 144 110 60 180 205 207 199 104 137 173 126 94 214 214 215 192 128 152 137 91 86 214 213 212 211 195 71 83 131 196 200 200 200 195 192 177 81 67 176 182 178 178 173 156 90 92 168
94 96 90 81 80 114 124 129 130 132 136 138 141 128 70 58 70 136 156 163 166 167 161 92 103 119 150 187 191 188 189 143 132 79 100 166 202 208 213 203 94 102 107 116 152 222 220 220 212 191 195 203 208 214 219 217 217 215 210 139 197 209 208 204 205 201 200 197 191 191 178 187 187 185 180 179 171 144 164 175
95 96 95 81 81 104 122 126 132 134 133 138 141 145 146 131 79 150 156 161 163 169 171 170 164 93 176 187 190 193 194 192 174 198 203 204 208 211 211 216 216 220 220 222 225 228 227 230 225 226 229 227 226 226 221 221 217 220 216 217 213 212 211 206 209 203 203 202 201 196 195 191 189 187 184 179 174 174 172 177
93 95 98 83 78 91 122 128 128 134 138 137 142 144 137 152 152 158 160 162 165 172 172 175 177 180 188 189 193 196 197 199 203 204 206 212 213 216 218 219 221 224 228 230 230 233 232 232 229 229 230 229 228 229 228 227 225 222 223 222 218 221 216 215 212 211 206 204 201 199 197 194 194 192 184 183 184 177 176 182
93 95 96 87 79 82 121 128 131 133 138 141 143 146 149 153 156 158 162 164 170 173 174 180 182 184 188 193 197 199 202 203 208 209 209 214 218 221 224 227 227 224 231 230 229 238 233 235 235 232 229 226 221 233 233 234 232 227 223 216 211 211 217 217 216 213 202 86 123 173 196 197 194 196 183 139 136 137 142 181
92 94 95 94 78 80 116 129 131 134 136 141 143 147 148 144 84 149 160 167 170 176 178 182 179 174 147 187 198 204 202 205 207 188 84 211 221 222 228 229 223 75 140 226 237 238 238 240 230 198 116 90 112 235 237 239 230 101 91 69 113 114 197 220 215 216 159 71 191 129 89 147 196 195 159 128 73 80 84 183
93 94 96 98 82 79 101 129 133 134 138 142 145 148 147 83 78 64 137 168 171 173 165 112 74 61 129 141 197 203 202 201 117 81 131 117 219 229 229 231 153 83 145 92 175 245 246 239 100 201 160 137 81 236 242 240 230 109 126 136 86 110 217 224 223 212 88 86 200 159 80 196 201 196 130 123 67 144 119 191
93 92 96 95 90 79 88 124 131 136 138 139 146 145 103 107 67 77 74 118 167 175 169 70 105 163 96 71 198 207 207 78 104 102 176 67 199 230 234 225 109 168 116 153 71 235 248 247 83 126 128 94 105 230 244 241 227 131 108 156 79 87 227 231 226 177 72 96 192 178 136 207 203 195 100 112 87 89 148 190
90 95 93 96 92 80 79 118 131 135 135 141 144 139 79 87 122 129 118 62 138 177 177 116 147 81 71 115 176 205 210 176 157 152 82 92 78 226 232 134 159 230 238 85 170 250 252 251 113 152 191 153 133 223 252 251 216 114 121 140 170 123 233 231 227 104 89 72 174 93 200 210 204 196 99 92 68 68 174 193
93 92 93 96 95 82 80 113 130 134 137 141 143 146 142 83 116 93 98 108 171 176 181 173 70 173 170 97 101 207 214 213 115 64 89 82 198 233 242 236 154 140 230 106 247 252 255 253 171 70 74 123 212 252 254 253 210 126 131 140 150 196 240 240 234 224 220 191 132 145 216 218 208 207 193 194 187 188 192 195
92 91 93 95 96 88 79 96 129 133 136 140 143 148 150 152 115 102 94 165 174 175 183 183 107 87 141 190 203 212 216 220 215 78 149 228 237 243 243 246 249 236 146 228 255 255 255 255 249 245 254 255 255 255 255 255 255 253 251 252 247 249 244 243 238 234 233 229 223 223 221 217 213 209 206 203 200 198 194 198
90 92 91 94 97 94 78 81 123 130 135 141 141 147 151 153 155 147 158 168 174 178 184 185 186 194 197 202 209 214 217 218 224 222 230 236 238 243 250 250 254 255 255 255 255 255 255 255 255 255 255 255 255 255 255 255 255 255 254 255 251 248 246 241 241 237 233 229 227 225 224 223 219 213 210 208 204 200 195 202
86 90 90 93 96 95 81 78 117 128 134 139 141 147 149 154 157 162 166 169 172 177 181 189 190 195 198 202 208 212 218 221 224 227 231 238 239 248 251 251 254 255 254 255 255 255 255 255 255 237 255 255 255 255 255 255 255 255 253 238 247 253 251 249 245 240 183 127 231 230 229 223 215 171 149 194 205 202 200 202
87 87 90 92 95 96 89 77 104 127 132 138 141 144 148 153 155 157 140 140 174 180 185 187 189 149 138 197 207 215 217 225 216 205 208 205 218 249 255 254 254 204 95 180 255 255 255 255 235 151 97 231 255 255 255 251 196 119 110 89 200 253 252 253 238 145 147 132 148 230 228 227 211 100 192 125 79 184 202 207
84 88 91 91 94 95 93 76 86 125 133 136 140 143 149 153 146 91 98 91 150 177 181 187 187 87 122 66 132 207 222 223 135 125 110 127 116 249 255 240 111 226 115 130 252 255 255 255 106 140 129 87 118 255 255 216 152 167 184 106 169 255 255 236 131 196 78 79 138 178 230 227 165 115 161 103 104 203 206 208
85 88 87 90 92 93 94 81 78 119 132 136 136 145 145 139 73 120 143 90 80 161 181 186 149 122 117 110 137 132 220 227 162 103 108 184 100 251 255 239 103 100 210 103 124 255 255 153 210 233 122 71 211 255 255 244 173 204 105 113 138 255 254 218 94 125 146 137 100 207 232 217 125 94 118 142 183 210 203 209
83 87 88 91 91 91 94 88 76 108 127 131 137 140 144 145 121 123 144 140 123 93 175 183 94 101 118 152 85 205 221 227 185 83 166 104 110 254 255 255 174 168 238 120 206 255 255 233 109 176 163 155 255 255 255 255 112 112 75 89 156 255 255 251 202 97 129 132 226 235 232 217 133 97 117 118 205 208 202 209
82 85 88 90 91 92 93 93 76 92 124 129 134 136 142 146 149 115 119 96 96 169 179 185 186 167 97 144 134 212 223 224 214 139 147 157 177 253 255 255 255 124 183 255 255 255 255 255 255 224 106 255 255 255 255 255 190 227 254 255 255 255 255 255 252 201 160 237 242 238 234 229 225 216 210 207 213 208 206 211
83 83 85 88 89 90 89 92 83 80 120 127 133 136 141 143 146 148 115 146 165 173 180 183 188 192 196 190 207 215 223 227 231 235 241 247 251 254 255 255 255 255 255 255 255 255 255 255 255 255 255 255 255 255 255 255 255 255 255 255 255 255 255 255 253 251 244 240 238 238 229 231 225 221 216 216 210 209 206 210
82 82 84 86 88 90 89 90 85 76 108 123 126 133 138 138 145 149 156 161 166 172 178 182 185 192 198 202 205 212 224 230 236 238 240 246 255 255 255 255 255 255 255 255 255 255 255 255 255 255 255 255 255 255 255 255 255 255 255 255 255 255 255 255 246 202 238 241 241 237 231 227 215 174 208 214 209 207 205 210
80 81 84 83 86 87 88 90 89 77 94 116 124 130 133 139 142 145 149 153 154 162 168 180 185 190 191 140 123 208 219 225 233 232 164 129 240 255 255 255 255 99 133 238 255 255 255 249 188 121 160 224 255 255 255 222 171 119 85 229 255 255 254 240 143 170 121 232 236 230 221 170 83 144 158 213 209 207 203 208
78 79 80 82 84 86 88 89 89 81 81 116 119 128 131 133 138 133 75 70 84 71 153 173 176 154 73 116 125 159 213 224 193 100 139 169 108 255 255 255 163 205 198 134 121 255 255 135 105 218 110 149 255 255 254 122 180 161 96 188 255 254 222 108 214 171 136 127 231 220 98 109 102 105 112 209 207 204 200 204
77 78 80 80 84 85 86 85 88 85 76 109 115 120 124 130 133 133 92 86 85 64 135 168 168 107 151 155 165 93 191 220 211 138 177 141 101 157 255 250 184 191 153 215 230 255 255 214 113 184 240 112 255 255 255 116 210 199 207 147 252 253 169 92 191 153 180 143 224 216 153 125 175 178 125 200 200 197 197 200
74 77 80 80 80 84 85 88 87 87 78 93 111 115 117 122 127 130 85 84 89 102 109 164 167 167 99 161 117 101 196 215 220 185 106 86 151 247 255 255 245 141 94 148 255 255 255 255 149 160 154 187 255 255 255 149 101 117 140 190 252 247 240 166 121 85 183 219 219 213 199 73 116 174 199 199 198 192 190 186
75 77 78 78 81 81 82 86 84 86 82 83 106 112 115 118 123 126 100 80 87 94 122 155 163 167 163 95 159 192 199 205 216 218 154 222 247 255 255 255 255 255 248 255 255 255 255 255 251 255 255 255 255 255 255 251 241 251 253 250 247 240 239 229 173 205 215 212 211 206 206 186 198 197 195 192 191 186 184 166
74 76 77 78 80 81 81 85 84 84 83 75 101 107 112 115 118 119 122 126 133 138 143 149 156 161 167 172 178 188 192 199 208 214 224 234 242 249 255 255 255 255 255 255 255 255 255 255 254 254 254 253 251 252 254 252 252 253 250 245 239 235 231 224 218 218 211 207 204 200 199 194 190 189 187 186 183 178 172 152
71 74 75 78 79 80 81 83 83 84 82 76 93 103 105 110 112 117 118 122 126 125 135 141 149 155 159 145 158 175 183 192 201 202 199 202 210 236 255 255 255 179 222 251 255 255 255 221 198 198 200 228 240 238 227 210 211 211 220 239 233 225 201 151 186 198 202 198 190 183 163 119 101 179 179 177 170 168 157 141
72 74 75 76 79 78 78 82 83 84 83 81 82 95 102 105 106 110 113 116 70 73 113 131 141 145 144 86 85 109 151 182 190 136 99 91 97 195 246 252 223 197 135 138 168 252 246 152 171 131 191 176 227 225 189 135 147 145 126 225 222 215 140 183 126 130 140 186 175 73 129 108 91 167 166 164 162 157 142 137
72 73 74 76 77 78 79 80 80 82 82 81 76 93 95 99 103 104 107 73 80 65 80 94 128 138 98 73 90 104 74 169 177 141 127 93 107 179 235 243 171 160 170 208 218 243 235 141 110 153 123 173 211 212 168 128 174 140 151 217 210 191 122 126 79 104 177 177 169 86 128 120 103 161 160 157 151 148 127 130
70 72 73 74 75 77 77 79 80 81 82 81 75 88 93 95 98 100 101 76 65 90 78 81 127 130 89 98 108 87 139 159 167 146 79 143 106 161 223 231 181 164 176 158 230 232 221 139 136 80 84 165 200 201 153 102 157 160 167 208 205 166 116 141 120 134 170 169 160 74 83 111 136 150 149 147 140 134 118 124
69 70 73 73 74 74 76 76 77 79 80 81 78 81 90 93 94 96 100 102 86 64 77 116 122 125 128 124 100 88 145 150 158 159 155 167 175 192 209 218 229 235 229 215 224 218 209 194 186 180 180 181 183 184 182 181 180 188 194 198 197 188 187 174 159 164 164 156 156 145 146 146 143 142 140 134 129 121 111 117
69 69 71 71 72 76 74 74 77 77 79 80 77 75 86 88 91 94 97 98 99 100 108 111 114 120 122 124 130 132 139 145 147 156 161 168 177 183 197 210 218 222 223 221 213 203 196 187 182 177 175 172 169 168 169 172 173 176 182 181 181 179 177 168 160 155 152 145 143 138 136 135 134 130 127 124 121 109 107 110
68 69 70 70 71 73 73 75 75 77 78 78 78 75 84 86 88 90 90 94 96 99 102 104 110 111 115 119 120 125 130 132 136 141 145 153 159 169 179 190 199 207 209 202 197 186 177 172 164 162 157 155 154 154 152 153 156 159 161 162 165 161 160 156 149 145 136 134 131 128 126 122 119 117 115 113 107 103 103 107
66 68 69 69 70 71 73 73 75 74 74 77 79 76 81 82 83 86 88 91 91 93 97 99 105 105 108 109 113 116 118 123 124 131 134 139 143 150 159 167 177 182 186 182 177 167 162 154 150 144 144 142 139 139 138 138 141 143 144 147 149 149 147 142 136 134 127 124 117 118 117 112 110 107 107 102 104 103 98 104
66 67 67 68 69 71 72 72 74 74 76 77 77 78 79 80 83 83 86 85 88 89 92 93 98 100 101 106 106 109 110 113 116 119 121 122 127 131 134 138 140 142 142 143 141 138 138 136 134 131 130 127 127 127 125 125 124 124 125 122 123 121 121 119 116 114 112 113 111 110 109 107 106 106 104 104 99 100 96 103
65 65 66 67 67 70 70 71 71 74 73 75 76 77 78 78 79 80 83 81 86 88 89 92 94 96 99 98 100 102 104 108 110 113 116 120 120 123 125 125 127 129 129 130 131 129 130 128 127 126 125 123 123 123 123 120 120 119 118 119 118 117 115 113 114 113 111 108 108 109 107 107 105 103 102 100 99 96 94 100
64 63 66 65 66 66 69 68 70 71 72 73 73 73 76 76 78 80 81 83 85 85 90 91 95 95 98 96 101 104 117 107 108 112 114 115 118 120 121 123 126 126 128 127 127 129 124 125 126 123 122 120 119 119 120 118 117 116 115 115 116 112 114 112 111 109 108 109 107 106 104 103 102 101 100 97 95 93 90 98
62 64 63 65 65 66 66 67 69 69 70 71 73 72 74 76 77 78 80 82 82 87 90 90 94 97 97 99 97 99 102 100 106 105 109 113 114 114 117 119 122 122 124 124 125 126 126 121 121 122 121 117 118 117 116 116 111 115 113 112 111 113 111 109 110 108 106 106 105 105 104 102 100 99 99 96 94 92 90 95
62 60 63 64 64 65 66 67 67 68 69 67 71 73 73 74 75 77 78 79 83 85 87 91 93 94 95 98 96 97 99 102 101 102 107 108 113 115 116 119 121 121 125 123 123 125 123 121 121 120 118 116 114 115 111 112 113 109 110 111 109 110 108 108 106 107 106 106 105 105 103 102 100 98 96 95 93 91 88 92
60 61 62 62 62 65 64 66 68 68 68 70 70 71 70 72 75 75 77 79 82 83 88 88 90 91 95 95 95 94 96 98 100 102 105 108 111 113 115 117 122 125 124 126 125 123 123 123 119 118 117 116 115 113 109 111 110 111 110 109 108 108 107 107 108 106 104 103 104 103 102 99 98 96 96 94 91 88 86 92
59 60 61 62 63 64 65 65 67 66 69 68 68 70 70 71 73 73 75 80 83 84 85 86 86 89 91 92 92 94 93 97 100 101 103 105 109 113 114 117 120 121 121 123 123 124 121 119 118 115 113 111 113 111 108 108 108 108 108 108 105 106 106 106 104 103 104 103 102 101 100 100 98 98 94 92 91 88 85 91
59 59 59 63 63 64 63 64 64 65 65 67 69 68 69 71 71 74 74 78 79 82 83 83 84 86 89 93 92 91 93 94 98 100 102 104 106 110 113 115 116 120 121 123 121 125 119 118 116 113 112 110 112 106 109 106 106 105 105 104 104 105 103 104 106 104 101 103 103 101 101 100 97 96 91 91 87 85 83 89
59 59 60 60 62 62 63 62 65 64 65 67 68 67 68 69 70 71 75 78 79 80 81 82 83 84 88 89 88 88 91 93 93 98 100 103 107 107 113 114 118 119 120 123 125 126 122 118 117 115 115 111 110 108 105 104 104 103 102 105 103 102 103 101 102 103 103 101 100 99 97 96 92 91 88 88 85 83 81 86
58 59 60 60 61 60 62 62 62 65 64 66 66 66 67 68 69 71 75 77 79 78 79 81 83 84 86 84 86 87 89 90 93 95 99 104 104 109 111 113 117 120 119 129 133 129 120 118 117 114 113 109 109 106 106 103 103 102 103 103 102 102 101 101 101 97 100 98 96 93 93 92 89 87 85 82 80 80 78 84
57 59 59 60 59 61 61 62 63 64 65 64 65 66 66 68 67 71 73 75 76 78 81 82 82 84 86 82 85 86 88 89 94 95 94 98 101 102 105 106 109 113 116 123 126 122 112 112 109 109 108 104 103 103 105 102 102 101 101 100 97 99 99 96 94 93 92 92 91 89 87 86 86 82 81 81 78 76 75 81
58 57 58 58 60 61 61 62 62 62 63 64 63 65 65 67 68 69 70 75 77 77 77 80 81 83 81 81 81 82 85 87 88 90 93 93 96 97 100 100 104 105 110 124 127 128 109 107 103 104 101 100 100 98 99 99 97 95 96 96 96 93 92 93 91 92 89 88 87 86 81 82 80 80 77 75 76 75 74 81
57 57 58 57 59 58 59 60 62 62 62 62 63 62 66 65 66 67 68 73 75 76 78 79 80 80 77 79 80 79 81 80 84 86 89 88 91 91 94 96 97 96 101 106 111 108 103 101 101 99 97 96 94 94 94 94 93 92 91 91 90 90 88 88 87 86 84 83 82 82 79 79 77 76 75 73 74 73 70 79
56 55 56 57 58 58 59 60 61 61 61 61 62 62 63 62 65 66 68 70 72 74 76 77 76 74 75 76 77 77 78 80 81 83 83 83 87 87 91 90 92 95 99 104 102 104 100 98 96 98 92 93 90 92 90 92 89 90 87 87 87 86 86 85 84 82 81 80 79 79 78 78 76 75 74 73 70 69 66 73
55 55 56 55 56 57 56 58 59 61 60 61 61 62 63 63 64 64 66 67 69 70 72 73 72 72 73 73 73 74 77 75 77 79 80 82 84 86 86 86 90 95 99 103 103 101 98 98 94 91 90 89 89 86 86 85 85 85 86 85 84 83 83 81 81 81 79 80 79 78 76 76 73 72 68 68 66 66 66 75
55 55 57 56 56 57 57 57 56 58 56 59 60 60 61 62 63 62 63 66 67 67 69 67 69 69 71 72 71 72 72 74 75 75 77 81 81 83 84 86 90 92 94 103 105 103 93 93 91 89 87 87 86 86 85 83 84 82 80 81 80 80 79 79 79 79 77 77 75 75 71 70 69 69 69 68 68 67 67 75
54 55 56 55 56 56 56 56 56 55 56 57 57 57 58 58 59 59 61 61 63 64 65 66 66 67 68 68 68 70 70 70 73 75 75 77 77 79 82 84 85 87 94 120 130 128 96 90 88 88 85 83 82 83 81 80 81 78 78 78 76 76 74 74 71 70 70 69 70 69 71 68 70 69 70 69 68 68 69 74
