P2
80 80
255
106 102 101 105 107 108 109 111 113 114 115 116 118 120 121 124 127 128 127 130 129 134 135 139 138 139 143 145 146 147 150 150 154 155 155 159 160 161 159 161 160 162 158 159 160 163 161 167 161 163 163 161 160 158 155 154 157 156 155 154 151 152 149 148 151 145 146 143 141 141 141 138 137 138 134 137 134 134 132 136
100 103 104 104 106 110 108 110 112 116 115 118 120 121 124 125 123 125 129 128 128 133 133 134 136 136 138 142 144 146 145 147 149 152 153 153 153 157 157 157 157 160 159 161 164 166 166 163 165 165 167 166 163 163 164 157 159 157 155 157 153 155 154 150 148 147 149 147 144 143 142 143 141 136 136 137 134 134 134 141
101 103 103 106 108 107 109 113 114 114 115 119 119 119 124 126 126 128 128 133 135 136 137 141 141 141 139 143 144 148 147 150 154 154 154 156 158 159 162 160 159 163 161 164 167 167 168 166 166 166 167 168 166 167 164 163 164 162 161 162 161 158 158 154 152 152 148 146 148 143 144 145 142 140 138 135 135 134 136 143
102 103 104 107 107 110 111 112 116 117 116 119 119 119 123 125 127 128 131 131 135 138 142 140 141 142 145 146 148 150 150 154 157 157 156 157 158 161 164 164 162 165 165 165 164 166 169 167 170 169 167 167 165 163 164 162 166 168 165 165 161 163 161 159 155 156 153 153 149 148 147 146 145 144 139 137 137 138 137 142
99 104 104 106 107 107 109 112 114 114 117 119 118 120 123 122 121 120 118 117 118 118 120 121 122 122 123 124 125 125 127 126 128 131 131 132 136 135 137 140 144 145 148 151 154 155 164 161 162 165 167 166 163 167 165 166 167 168 165 162 165 159 163 160 159 159 156 155 153 151 151 150 148 144 142 143 138 139 138 144
98 102 103 106 106 107 109 111 110 107 103 102 106 110 114 117 121 123 126 127 129 131 133 134 133 135 138 137 138 141 143 141 142 144 145 144 147 146 148 148 150 148 149 149 147 150 149 149 144 140 138 136 135 137 142 146 155 163 164 164 163 161 162 156 160 157 155 155 154 156 156 154 150 149 147 145 142 138 141 147
99 102 100 100 96 96 101 107 113 114 115 117 120 121 123 123 125 129 132 131 131 134 137 138 138 136 138 141 141 142 145 146 145 148 149 147 150 149 149 150 149 154 153 154 153 154 152 148 151 147 146 145 144 148 147 150 148 146 144 145 141 138 145 146 151 155 155 158 155 155 158 156 151 151 149 148 147 145 144 151
89 95 102 104 109 109 112 113 114 117 119 119 119 123 123 128 127 127 131 132 134 132 136 136 141 143 141 143 142 144 144 144 146 147 151 150 150 151 149 152 151 154 153 153 154 153 154 153 150 152 147 145 147 147 149 147 152 152 150 152 149 146 141 141 141 139 137 138 143 152 154 158 155 155 151 153 149 148 146 152
84 104 107 108 108 111 113 115 117 117 120 121 123 126 127 125 128 130 128 133 136 136 138 141 138 142 141 145 143 146 146 145 148 148 150 149 154 152 152 153 155 158 157 158 155 157 156 152 155 153 149 148 148 147 150 151 153 151 151 148 146 146 141 142 144 142 140 144 142 142 139 137 141 149 155 151 150 149 147 152
83 106 106 110 108 113 114 116 117 119 122 122 122 125 128 129 131 132 134 136 136 137 140 141 143 142 144 144 145 148 150 148 151 152 152 152 155 154 156 155 156 158 159 159 160 160 158 158 156 156 153 152 150 150 151 153 151 151 148 149 148 146 143 144 143 141 145 143 144 144 142 144 143 138 138 137 141 147 149 152
82 104 107 111 111 112 113 114 118 119 121 123 126 127 128 131 131 134 136 136 137 138 138 142 143 144 144 146 147 149 148 150 151 153 152 154 157 158 164 159 164 165 165 163 164 161 162 158 158 157 156 155 155 154 155 155 154 152 152 151 150 148 147 147 146 145 144 145 147 144 145 145 143 142 142 139 137 137 132 142
80 106 107 110 112 114 114 118 121 122 124 125 126 127 130 130 129 135 135 134 139 140 141 140 145 146 146 148 152 149 152 151 154 153 155 156 155 158 158 161 161 162 161 164 165 163 162 161 162 163 158 156 156 158 159 156 156 156 153 153 154 150 149 147 148 148 147 149 148 148 146 145 144 145 142 140 139 138 134 141
79 107 108 111 113 115 117 117 122 122 122 125 125 131 131 130 131 138 139 137 138 139 143 145 146 145 148 149 151 152 152 153 155 156 154 156 157 159 160 161 161 163 164 168 167 167 167 165 163 164 163 162 163 160 159 158 157 156 155 155 153 153 152 152 149 150 149 151 152 149 147 146 147 143 144 140 138 137 135 142
80 107 109 112 112 116 116 117 121 122 122 121 120 122 116 133 135 136 137 140 116 66 76 111 140 146 150 150 154 153 152 150 144 112 79 82 161 162 162 165 165 154 84 130 162 171 167 169 170 166 165 165 161 133 80 157 161 158 160 158 154 148 151 154 152 153 152 153 152 152 148 147 148 145 144 141 142 139 138 143
78 106 111 111 115 117 119 119 121 94 66 65 71 82 68 122 134 137 136 138 99 119 134 107 62 67 118 152 154 154 99 70 76 109 97 71 157 163 165 163 166 122 132 70 69 86 136 170 170 172 168 160 85 65 93 147 161 165 157 160 143 71 99 139 150 153 156 153 153 152 150 148 148 147 146 144 144 139 140 144
79 109 111 112 116 117 117 120 121 101 97 88 108 123 67 113 137 140 140 139 84 84 126 89 95 105 113 153 154 155 90 131 70 77 74 103 151 164 167 166 168 85 141 117 85 57 65 170 171 171 122 61 79 93 58 93 163 162 161 160 101 104 81 66 82 145 159 155 142 113 86 71 137 147 149 147 143 138 137 146
80 107 111 115 116 119 121 121 123 111 62 104 82 71 104 98 137 141 141 141 72 111 55 61 77 70 132 154 157 159 135 96 58 80 133 85 115 167 171 171 167 72 124 153 103 58 86 174 176 172 66 87 154 139 88 71 160 163 162 157 68 84 114 102 62 151 157 154 79 82 64 58 129 149 149 146 127 72 121 149
78 106 112 113 116 121 119 125 124 120 59 95 58 59 69 84 138 139 140 141 68 114 54 105 106 68 141 157 157 159 154 64 83 68 138 72 74 169 169 171 165 93 115 154 90 57 136 177 178 176 117 97 144 65 69 78 131 166 165 147 62 115 67 107 82 160 160 156 75 97 124 83 124 150 146 82 82 92 99 146
77 104 112 116 116 119 120 123 125 123 64 69 84 86 117 69 137 141 144 140 65 114 68 105 66 58 150 156 159 163 163 80 135 120 96 88 67 168 173 175 140 62 139 94 130 59 171 177 182 182 167 82 168 128 108 65 146 168 166 101 73 134 98 108 133 166 165 160 88 89 101 93 113 151 143 91 123 67 72 146
79 102 113 116 117 119 122 124 124 125 65 54 61 59 65 64 137 143 144 145 139 113 76 65 70 61 152 160 163 163 165 129 62 108 68 76 118 173 176 178 159 95 76 98 59 65 174 183 185 183 182 92 86 82 99 170 174 173 169 131 82 73 117 63 165 168 170 164 90 100 63 58 105 157 150 95 94 103 70 135
81 98 113 115 118 120 123 124 127 130 127 126 129 130 132 135 139 144 146 150 148 153 152 148 129 99 157 163 164 164 167 163 87 130 159 172 175 175 177 180 183 177 177 155 103 112 182 186 185 187 180 155 71 157 180 183 182 179 177 178 172 164 121 100 172 171 171 165 104 72 100 135 154 158 154 122 68 69 81 147
77 91 115 118 119 122 124 126 125 128 133 131 134 138 141 140 143 146 147 151 153 151 157 156 158 161 161 165 170 168 171 170 170 173 174 175 179 181 182 184 184 186 186 188 184 186 189 191 191 189 188 184 183 187 185 185 184 181 182 181 182 178 177 178 175 176 173 169 165 165 166 164 162 162 157 144 70 128 148 155
78 87 113 119 119 121 121 124 129 130 131 133 135 138 139 141 144 146 148 150 153 153 155 157 159 160 162 166 168 172 174 175 173 175 179 180 183 181 186 187 187 190 191 191 190 191 194 193 194 190 191 193 190 189 189 191 189 187 185 185 183 183 183 180 179 177 174 175 172 169 170 167 164 164 161 156 157 153 152 157
78 84 113 117 121 124 126 128 130 133 133 136 136 140 138 144 147 147 151 150 156 158 158 157 161 163 167 172 169 172 176 179 177 180 182 180 184 184 187 191 189 188 192 193 193 194 194 197 196 196 194 191 194 193 194 193 190 191 190 187 187 182 179 181 183 180 177 176 173 169 168 167 168 165 162 157 159 153 154 160
78 79 111 119 121 122 126 126 131 134 134 136 102 77 134 145 146 147 153 155 156 157 153 73 143 167 170 174 174 179 175 179 179 179 172 160 184 187 192 190 193 192 191 194 193 194 198 196 199 198 192 189 187 188 185 195 196 192 194 190 173 84 113 185 186 182 180 176 94 110 169 172 171 165 164 159 118 155 157 162
78 78 109 117 122 124 126 129 132 134 135 134 68 53 55 87 141 150 152 157 157 159 120 117 101 86 158 172 176 177 179 168 144 97 80 60 167 191 193 197 192 84 85 79 76 81 199 201 203 195 70 88 83 75 81 195 199 198 191 116 112 158 90 184 188 185 182 146 107 88 94 167 171 169 164 91 99 141 159 162
81 79 100 119 122 123 125 129 134 132 134 129 60 64 53 53 59 101 152 157 160 156 75 100 128 83 58 116 173 178 180 77 82 83 156 63 116 190 194 199 193 101 186 124 90 83 198 204 205 196 97 157 157 178 97 198 201 192 78 82 116 77 128 168 192 187 174 67 143 112 106 92 171 166 88 62 89 102 157 167
79 78 92 117 121 124 127 130 133 134 136 94 89 126 125 104 128 71 144 155 157 142 92 141 137 72 84 59 164 183 183 130 142 160 165 125 79 194 199 205 196 105 110 173 72 75 202 211 207 188 79 72 149 84 115 204 204 198 85 82 162 63 125 115 190 188 92 90 145 96 76 160 175 116 99 135 125 68 142 167
77 79 85 120 123 126 128 128 132 135 135 71 97 87 84 128 71 95 152 160 160 95 69 162 139 123 139 85 180 188 188 178 75 96 126 179 67 194 201 208 202 62 161 125 134 81 208 216 214 180 167 131 68 136 147 209 210 205 141 72 129 82 84 154 195 190 99 97 70 68 124 182 179 165 95 106 111 112 162 171
78 79 80 115 122 126 127 129 132 133 137 125 69 87 77 132 84 131 154 158 161 158 89 98 92 93 72 150 184 187 188 186 80 134 122 110 62 164 202 207 202 98 150 167 122 94 216 214 217 163 156 159 145 70 179 211 210 209 194 83 111 119 196 203 202 198 188 136 62 81 186 184 181 176 129 113 112 167 165 169
78 79 79 108 120 125 126 130 131 133 136 139 142 127 70 55 69 145 158 160 165 165 169 159 82 116 80 178 184 189 189 193 138 111 80 119 179 203 208 209 205 108 110 117 129 160 220 221 219 200 183 190 197 204 220 219 217 218 210 120 194 206 207 210 203 201 202 194 171 180 188 188 184 185 172 129 170 171 171 175
80 77 79 97 122 123 127 130 133 139 135 140 144 144 146 132 119 154 160 164 167 167 170 172 177 156 136 185 187 193 194 194 193 188 201 203 206 212 210 216 218 218 221 218 221 225 225 228 225 229 226 228 224 227 224 223 219 220 217 215 218 211 209 207 206 205 201 202 199 193 192 188 188 186 186 176 175 174 173 178
81 77 77 87 118 124 127 127 132 137 138 142 144 146 137 152 155 155 160 165 167 171 172 177 177 182 185 189 191 193 197 198 202 203 205 210 213 215 215 220 221 223 226 227 228 230 228 228 229 229 227 230 226 230 229 228 225 224 219 220 222 219 215 213 212 210 206 204 203 201 199 193 191 190 183 184 180 179 175 179
86 77 77 80 118 126 128 131 134 135 139 144 143 150 151 149 154 158 159 166 169 170 176 177 180 181 188 189 191 198 198 200 208 208 209 210 214 218 218 224 227 225 223 228 230 234 233 237 230 233 235 230 223 226 231 233 233 224 217 215 213 209 221 217 217 206 91 133 185 200 201 199 186 133 126 127 161 180 174 181
93 78 77 76 110 124 127 131 134 138 141 143 145 147 148 103 103 155 163 165 170 173 176 178 180 177 163 143 196 200 202 200 206 207 174 80 212 222 226 228 231 221 71 136 226 237 240 241 238 220 152 84 112 213 237 238 232 117 99 72 144 108 219 221 217 163 94 191 97 98 201 201 155 130 92 83 161 182 181 185
95 81 78 76 99 124 126 131 135 135 140 144 145 145 118 80 59 76 155 167 170 174 172 130 86 62 73 87 186 201 204 205 194 93 104 137 132 227 228 235 233 130 96 167 88 183 238 246 192 158 193 137 74 197 242 238 234 119 137 127 104 134 228 226 215 105 112 189 114 161 205 202 127 93 99 132 184 187 183 189
94 84 75 77 86 121 128 131 133 137 137 145 144 128 79 73 65 88 71 141 172 174 174 74 106 136 156 60 144 201 206 197 88 91 130 180 68 211 233 237 220 131 163 133 123 85 244 249 229 120 78 180 156 171 244 244 230 131 95 171 98 173 236 229 184 75 92 196 124 207 208 200 121 124 66 102 189 190 187 189
93 92 79 76 79 121 130 129 135 137 139 144 142 75 119 80 127 127 106 62 145 177 180 141 138 89 78 71 81 202 208 209 121 194 164 76 90 92 235 237 114 144 236 235 77 226 252 254 245 129 99 155 149 148 249 249 222 135 136 95 149 211 236 232 162 91 77 162 161 215 216 200 92 89 89 145 194 190 188 193
94 93 82 77 77 110 127 132 137 139 141 144 144 138 73 74 123 132 67 106 168 176 180 177 75 135 183 92 106 190 210 211 211 76 75 72 90 215 237 242 236 143 150 226 137 251 254 255 255 90 77 134 224 251 254 254 236 195 202 214 225 240 244 242 237 228 223 203 217 225 217 215 208 205 201 200 201 195 190 193
94 95 88 78 76 96 126 130 136 136 140 141 144 149 148 107 105 91 95 165 174 175 181 182 133 65 87 137 192 209 212 217 223 198 75 169 230 237 243 247 248 250 244 140 246 255 255 255 255 253 255 255 255 255 255 255 253 253 253 253 250 247 246 242 240 238 237 230 223 225 220 218 215 209 211 205 198 196 191 197
90 93 92 77 75 81 118 127 132 134 138 143 147 150 151 153 140 94 161 169 172 181 183 184 186 188 197 201 205 209 216 218 224 224 224 231 239 241 247 251 252 255 255 254 255 255 255 255 255 255 255 255 255 255 255 255 255 254 255 251 254 252 251 245 242 229 226 235 230 229 222 212 210 209 211 209 202 201 195 192
90 91 93 81 76 76 115 127 131 137 140 140 144 148 152 156 158 161 166 167 174 177 180 187 188 192 193 201 205 210 215 221 224 228 232 237 241 247 250 251 255 254 255 247 255 255 255 255 255 241 236 255 255 255 255 255 255 249 202 140 251 255 255 250 218 98 103 233 233 232 222 134 144 92 147 207 205 202 197 188
90 90 93 89 75 74 102 125 130 135 138 141 146 148 153 155 157 161 159 166 173 179 182 184 193 189 171 198 208 212 216 223 226 221 221 224 223 239 251 255 255 251 158 84 235 255 255 255 255 101 103 107 243 255 255 223 131 100 146 126 245 255 250 205 132 78 79 132 234 233 197 113 155 108 167 213 208 204 197 177
89 90 92 95 75 74 86 124 130 134 136 140 144 146 152 156 156 121 67 119 171 174 181 186 188 136 141 71 147 204 218 223 223 80 146 158 160 191 255 255 209 101 242 108 102 255 255 255 169 139 227 78 127 251 255 234 114 116 167 141 238 255 220 132 133 130 144 134 229 228 139 100 135 132 211 216 211 206 199 170
88 90 92 92 82 75 75 121 131 132 135 138 139 146 147 138 82 89 139 87 132 176 183 187 181 75 147 66 154 98 208 224 229 87 82 92 112 181 255 255 189 88 131 225 87 199 255 248 184 171 95 109 208 255 255 248 178 169 74 78 227 255 255 166 129 145 144 236 240 228 125 109 119 177 215 218 212 206 191 166
88 90 92 93 89 73 74 108 127 130 133 135 141 146 144 82 94 109 129 126 103 145 178 184 127 98 119 182 82 104 220 224 230 91 116 207 170 176 255 255 255 110 168 172 143 255 255 255 225 109 86 151 255 255 255 255 105 121 192 247 255 255 255 249 151 160 242 246 243 238 232 227 218 220 219 212 208 205 180 165
88 89 91 91 90 78 74 91 122 129 133 135 140 142 144 138 95 141 102 126 80 109 179 183 162 93 104 136 127 200 220 225 229 112 106 105 126 199 255 255 255 248 126 243 255 255 255 255 255 255 227 255 255 255 255 255 255 255 255 255 255 255 255 255 252 248 247 247 245 240 234 233 226 227 221 217 212 206 171 164
86 87 87 91 90 84 74 78 117 125 130 132 137 142 145 146 142 95 121 80 154 170 178 182 186 191 186 136 124 211 220 226 233 235 240 246 253 255 255 255 255 255 255 255 255 255 255 255 255 255 255 255 255 255 255 255 255 255 255 255 255 255 255 251 222 248 246 242 241 235 216 144 219 223 219 217 212 197 159 161
85 88 88 86 89 90 76 74 109 124 127 130 133 139 142 143 151 143 132 158 168 173 177 181 186 191 197 201 205 213 222 226 237 237 242 249 255 255 255 255 255 255 253 255 255 255 255 255 255 255 241 234 255 255 255 255 233 168 140 255 255 255 246 156 160 169 240 242 226 157 79 129 188 220 218 217 210 186 157 156
85 85 88 88 87 88 80 74 94 119 123 124 132 137 138 143 146 152 157 158 163 174 174 181 187 191 196 198 181 209 215 225 237 240 240 172 152 255 255 255 255 221 101 137 247 255 255 244 133 92 203 141 255 255 245 109 212 120 93 253 255 240 128 206 157 108 182 234 160 88 135 157 146 217 215 215 207 171 151 153
83 85 85 87 87 88 84 73 80 115 121 123 128 132 135 138 144 145 147 152 155 159 173 175 180 188 180 90 78 168 215 226 231 202 119 110 199 216 255 255 255 116 172 151 167 228 255 255 89 153 176 101 255 255 255 148 195 160 171 241 255 204 93 181 165 149 210 227 204 107 125 145 194 213 210 210 197 156 147 146
82 82 85 86 84 87 87 77 74 107 117 121 123 128 132 137 141 86 67 70 70 67 160 175 177 121 77 122 100 78 195 220 225 113 147 184 163 86 252 255 168 218 234 243 131 255 255 255 93 215 234 110 252 255 255 127 130 150 144 228 247 240 188 103 121 217 223 218 215 118 170 208 206 206 204 201 186 148 144 144
78 82 83 85 84 85 86 82 73 97 114 118 122 123 127 132 134 90 112 67 71 65 147 168 171 132 112 140 184 118 101 212 223 210 137 99 156 169 255 255 255 204 117 103 251 255 255 255 155 176 236 255 255 255 255 223 228 247 247 244 241 232 228 207 219 216 214 212 211 206 201 203 202 198 196 191 166 142 137 140
80 80 82 82 85 84 85 85 73 82 107 113 119 121 120 127 130 105 83 65 85 99 131 160 165 169 120 149 102 133 202 213 220 224 186 121 235 253 255 255 255 255 255 242 255 255 255 255 255 255 255 255 255 255 255 255 255 252 246 240 235 223 219 214 211 207 204 199 198 182 167 189 193 188 188 179 145 136 133 134
78 79 81 82 85 84 84 84 77 73 103 108 113 114 117 123 125 116 65 76 78 85 133 160 162 167 170 116 172 189 199 207 213 221 233 240 254 254 255 255 255 255 255 255 255 255 255 255 252 251 248 251 253 254 245 235 231 218 228 226 220 192 114 126 161 194 193 145 106 106 104 180 179 174 175 162 139 130 128 131
76 78 80 81 82 83 83 84 82 72 93 105 108 112 115 118 119 121 125 129 134 139 143 149 156 162 167 172 178 184 189 198 204 216 223 231 241 248 255 255 255 189 175 210 239 253 250 226 134 126 154 167 239 241 191 162 132 120 190 219 206 143 170 136 113 174 180 112 133 125 118 170 164 163 160 144 130 126 119 123
75 78 79 80 81 80 84 82 84 74 82 100 104 106 109 110 117 118 122 126 128 133 138 142 148 155 158 134 131 165 179 191 198 203 101 119 92 112 251 255 255 142 146 128 121 236 236 204 160 185 152 161 225 227 175 144 175 165 199 211 186 99 109 100 132 176 170 112 87 112 125 157 154 152 147 130 124 118 115 118
75 77 78 77 81 80 82 81 82 77 74 94 99 101 103 106 111 111 119 116 66 95 125 138 140 145 148 81 97 111 97 162 186 186 104 152 81 113 244 254 249 195 128 149 137 229 223 188 117 82 107 159 209 213 158 146 186 150 203 203 187 141 111 93 162 164 162 143 146 150 149 148 143 139 132 121 117 109 107 113
75 75 77 77 79 79 81 82 82 82 71 89 96 99 101 102 105 108 110 65 65 84 77 111 131 136 100 75 96 90 68 162 173 178 111 122 123 122 232 244 228 174 126 124 183 215 209 193 146 151 153 176 196 200 197 196 199 199 198 194 187 178 169 162 158 151 150 146 142 141 139 135 131 127 118 112 108 107 102 109
74 73 76 77 78 79 79 79 81 81 76 81 93 96 99 100 101 105 70 90 61 71 93 80 129 128 87 99 111 81 123 155 165 171 109 132 155 183 223 231 235 234 223 208 208 204 197 188 187 182 177 181 178 180 181 183 183 186 184 177 171 161 156 151 146 139 136 132 132 128 121 122 118 116 111 107 103 103 98 106
72 72 74 74 78 78 77 78 79 78 78 73 87 91 95 95 99 101 98 75 78 83 75 117 121 125 130 125 109 92 140 150 157 162 168 177 187 198 211 221 223 222 213 207 198 190 179 177 171 168 165 164 163 160 163 162 166 166 165 160 157 149 145 135 134 127 124 122 121 119 114 110 110 109 106 103 101 99 96 101
71 72 72 74 75 77 77 78 79 80 78 72 85 89 90 91 95 98 98 100 94 77 109 113 117 118 125 125 126 130 136 141 146 152 154 167 171 185 195 202 205 205 195 190 180 174 163 159 154 152 149 148 145 148 146 147 149 149 149 146 143 135 129 124 119 116 115 113 113 112 110 108 106 104 104 99 99 97 93 97
69 72 72 72 75 75 76 78 78 79 76 75 78 86 87 88 90 93 95 99 98 102 105 105 112 112 116 116 120 122 125 131 133 139 144 151 157 163 173 178 183 182 178 170 161 156 148 145 141 138 136 136 130 129 127 128 124 123 123 123 118 118 121 116 115 114 114 113 110 112 108 107 106 103 100 98 95 92 91 95
69 70 71 73 72 74 73 77 76 77 78 76 73 83 85 86 88 90 92 94 95 97 98 102 103 106 108 112 113 115 118 120 124 126 130 133 137 145 149 148 147 142 139 134 135 132 134 133 134 129 130 127 127 123 123 123 121 122 120 119 118 117 116 115 113 112 110 109 109 106 106 102 102 101 101 97 94 91 87 91
69 70 70 71 71 72 74 74 75 76 78 77 72 80 82 82 84 86 87 90 92 95 95 97 101 103 103 105 102 106 109 112 112 114 116 119 119 123 125 126 131 126 131 130 129 129 128 129 128 128 123 123 121 123 120 119 119 117 119 117 115 115 114 113 111 110 109 106 103 106 105 103 101 99 97 93 92 89 85 91
67 67 69 70 70 71 72 72 74 76 76 77 75 77 78 81 83 83 84 86 88 86 91 94 96 97 99 99 99 103 116 108 110 111 113 116 117 119 123 125 125 125 127 128 125 126 124 126 125 125 121 119 118 121 117 117 116 115 114 113 112 109 111 110 109 108 109 108 104 105 102 102 99 97 96 92 89 85 83 88
65 67 67 69 68 69 70 71 74 74 73 75 76 75 75 78 79 79 83 83 84 87 90 93 97 99 100 99 101 102 102 103 107 107 112 113 115 117 117 119 122 123 123 123 125 123 124 123 121 122 118 117 119 115 118 115 112 112 112 109 108 111 110 108 108 105 106 105 105 103 101 99 97 94 94 92 87 85 82 85
64 65 66 67 67 68 71 69 71 72 72 70 74 76 76 78 78 80 79 83 86 88 89 92 94 95 98 99 98 98 101 102 103 103 108 109 114 114 114 117 121 120 120 124 124 122 123 121 120 121 118 117 115 115 114 111 109 112 111 110 108 108 109 107 108 106 105 105 103 103 103 100 99 96 92 88 86 85 80 85
62 64 65 65 64 67 68 70 71 70 71 73 72 74 75 77 77 79 79 83 85 87 89 92 92 93 97 97 98 95 96 101 102 103 106 107 109 112 115 117 120 122 122 122 124 122 120 121 119 119 116 116 113 114 110 110 109 109 109 110 107 107 105 104 105 105 105 104 103 102 98 97 92 92 87 87 84 81 78 84
62 63 64 64 66 65 66 67 69 70 70 69 72 71 72 74 75 77 79 82 83 86 87 87 89 93 94 95 94 93 96 97 99 102 105 105 109 111 112 116 118 121 119 119 121 121 121 119 119 116 111 112 111 111 109 109 108 109 107 106 107 106 106 106 105 105 102 101 99 96 95 91 90 87 86 82 78 78 77 82
62 62 62 63 65 64 65 67 68 69 68 70 69 72 71 72 73 75 76 80 82 82 84 85 86 88 91 93 93 93 93 94 97 101 101 104 109 109 112 114 115 117 120 120 118 120 120 119 119 115 115 113 112 107 107 106 106 105 106 104 106 103 104 102 101 100 98 97 93 93 91 89 86 83 80 78 76 75 75 80
61 61 63 63 63 64 66 63 66 66 66 70 69 68 70 72 72 72 77 78 81 82 80 82 87 87 87 89 90 89 92 93 95 96 99 102 105 106 109 112 114 116 119 118 120 120 122 119 120 117 115 112 109 108 108 106 104 105 106 102 99 100 100 96 97 96 94 89 90 86 85 83 79 79 78 75 74 73 72 79
61 62 62 63 62 61 64 64 64 67 67 68 67 67 69 69 72 72 76 77 78 80 81 83 84 85 87 86 88 88 89 92 93 96 97 102 104 105 109 112 116 116 116 117 118 118 119 118 115 111 111 107 106 104 103 102 102 101 101 100 98 96 94 93 93 89 91 86 85 84 81 80 79 77 76 74 74 71 70 75
59 61 62 62 62 63 63 64 65 65 66 66 67 67 68 71 70 72 76 77 78 79 81 82 82 84 86 85 86 85 88 89 92 94 97 100 102 105 106 105 106 109 110 110 112 111 115 113 113 108 106 102 101 101 99 98 98 97 95 93 94 93 92 89 87 87 85 83 82 81 80 79 78 74 73 71 68 67 66 76
60 60 60 60 61 63 63 62 63 64 65 66 66 67 68 69 68 72 71 76 77 77 79 81 82 82 84 85 84 83 86 90 91 94 95 96 97 98 99 101 102 103 104 106 107 109 114 114 110 105 100 100 97 96 94 95 95 91 91 93 91 88 88 88 86 86 83 81 81 80 76 77 74 71 67 67 68 67 67 76
59 59 59 60 60 59 62 61 63 64 63 64 64 64 67 67 68 70 69 74 76 76 78 80 82 82 80 80 82 82 83 83 87 88 89 89 94 93 94 96 96 96 98 98 101 102 109 104 105 98 95 96 93 94 92 92 90 88 87 87 86 84 84 84 84 83 81 81 80 74 71 71 69 69 70 69 69 68 68 76
58 59 58 60 59 60 60 61 63 64 63 63 64 63 65 65 68 65 69 72 74 75 77 77 78 77 78 78 78 79 80 81 82 85 84 86 87 88 90 90 90 92 92 96 99 100 102 103 100 95 94 93 91 90 89 91 87 87 86 85 85 83 83 82 82 78 77 73 72 72 71 70 71 73 71 70 70 68 70 77
58 57 59 58 60 60 59 60 61 61 62 61 63 64 64 64 65 66 68 69 71 72 73 73 73 75 74 76 76 76 78 77 81 80 82 82 83 85 82 86 89 89 91 94 99 97 104 105 105 97 94 91 89 87 85 86 86 84 84 84 81 79 77 73 75 72 72 74 74 73 72 72 73 73 71 72 72 71 71 78
57 57 58 59 59 59 61 61 59 61 61 61 62 62 63 65 64 65 65 68 67 70 70 70 70 73 72 72 73 74 74 76 76 76 79 80 81 82 82 82 85 87 88 93 99 102 104 106 104 97 91 89 88 87 82 83 80 77 75 74 74 72 73 72 75 75 74 73 75 75 75 74 74 75 74 72 74 72 73 79
55 56 57 58 58 59 59 59 60 59 60 60 61 62 61 62 63 65 64 65 65 67 67 68 68 69 70 71 70 72 72 71 74 78 75 75 77 79 79 81 82 81 85 87 93 99 124 123 110 92 87 82 80 76 73 75 74 72 72 74 73 74 73 73 74 75 75 75 77 75 77 77 76 74 76 76 73 75 76 81
