P2
80 80
255
106 101 105 104 105 108 111 110 116 114 117 118 118 121 120 124 125 125 131 126 130 131 132 135 136 141 142 141 145 146 148 149 151 151 153 155 153 156 158 161 159 160 161 161 164 164 163 165 164 166 165 161 161 159 162 158 159 161 160 158 158 155 152 150 151 151 144 145 144 140 140 140 134 138 135 136 132 132 130 137
101 101 103 103 107 111 110 108 112 114 115 120 117 122 125 125 124 129 129 130 129 133 134 137 138 142 144 144 146 148 151 153 149 152 155 157 156 156 159 161 159 161 161 168 166 169 168 166 167 168 166 168 164 164 161 162 162 164 160 160 160 158 158 155 152 155 152 149 148 146 146 143 142 141 140 135 134 130 131 137
101 104 103 105 107 108 111 112 112 113 116 119 121 120 125 127 127 128 130 131 132 134 133 136 138 142 141 142 142 144 147 149 151 150 150 154 153 155 157 160 160 162 164 163 169 166 167 167 170 167 164 167 166 164 157 165 164 166 164 164 161 162 158 155 156 153 153 153 151 147 146 145 142 140 139 139 139 134 133 140
103 102 101 106 108 112 114 113 115 116 117 120 121 121 126 127 127 128 131 131 131 136 137 136 137 140 141 144 148 149 150 149 152 151 155 156 154 158 161 163 163 162 164 167 168 169 169 168 171 166 166 167 166 163 165 166 167 168 166 163 162 160 160 156 158 156 155 154 152 152 151 149 148 149 141 140 139 139 134 140
99 102 104 105 109 109 111 112 115 117 118 118 121 123 124 126 129 131 133 135 136 137 138 142 143 148 143 151 151 153 154 151 157 154 152 153 151 150 151 149 146 142 146 144 142 142 141 139 138 140 139 140 137 139 141 144 146 149 149 155 155 155 159 158 158 155 153 154 153 150 152 153 149 147 147 145 143 141 140 146
100 103 104 105 110 110 112 112 114 117 120 119 121 123 123 125 127 129 132 135 135 137 139 136 133 128 125 126 125 128 131 135 138 142 143 143 146 148 148 148 148 149 150 150 153 152 153 152 149 149 148 146 146 145 146 146 147 148 147 145 145 142 140 136 136 135 133 137 141 145 149 151 150 148 149 147 146 142 144 148
100 103 105 107 107 112 111 112 114 115 116 119 120 121 124 123 122 116 113 119 122 127 133 133 136 137 138 136 140 142 143 142 143 147 149 150 148 147 150 151 151 153 153 153 154 155 153 153 152 150 146 145 145 147 148 150 150 148 150 151 149 146 145 142 142 142 144 142 140 137 137 133 129 134 139 146 147 145 142 149
102 101 103 105 108 109 109 111 114 114 115 108 105 109 115 122 123 127 132 132 132 134 134 138 138 141 142 145 145 142 145 145 147 146 147 149 148 151 150 150 151 154 156 155 155 155 155 153 152 150 148 150 147 146 148 151 152 153 151 152 145 145 142 144 142 141 141 143 142 141 141 140 136 136 134 133 131 130 133 150
98 99 101 107 107 109 104 100 104 110 115 119 122 126 125 125 129 130 133 133 132 133 138 141 138 141 142 141 143 147 149 146 149 148 151 154 152 151 153 154 157 157 157 156 157 157 160 154 154 152 149 145 149 151 150 151 155 151 151 149 147 144 144 141 143 144 141 142 143 141 142 142 138 136 138 136 135 134 133 138
96 96 98 96 98 104 109 111 114 118 120 120 122 123 126 128 130 133 132 135 136 137 140 141 143 143 143 146 146 147 149 149 150 152 151 154 152 155 156 160 155 155 158 162 160 157 161 159 154 156 149 151 150 151 154 154 153 154 149 152 148 144 146 144 146 143 144 145 144 145 142 141 143 141 140 136 137 133 134 139
88 84 89 105 109 111 114 115 115 118 121 121 123 126 128 129 129 131 135 135 136 140 138 143 142 145 145 146 149 148 150 150 155 154 152 155 156 158 161 159 161 159 161 160 161 163 160 160 157 157 155 150 153 154 151 157 154 154 155 150 149 149 146 148 146 146 146 145 148 146 146 144 144 141 141 137 135 137 130 140
80 71 81 105 111 111 112 118 117 120 123 123 124 126 131 130 133 135 138 137 140 141 142 142 144 145 148 149 152 150 154 151 156 154 156 160 159 159 161 161 161 160 161 164 164 167 164 161 161 160 157 156 157 155 156 155 155 157 154 153 153 149 149 148 147 147 148 150 148 148 148 146 145 142 141 139 137 138 135 140
76 64 79 108 112 113 113 115 119 119 122 124 126 131 130 132 136 137 136 139 140 143 142 146 146 146 149 154 152 153 153 155 158 156 157 159 161 162 161 161 161 161 166 163 166 167 165 165 163 163 161 161 158 100 154 157 158 156 156 153 153 141 145 148 148 150 150 152 152 150 149 145 143 142 142 143 140 142 137 142
67 63 73 108 111 115 116 119 120 122 124 124 128 128 130 136 136 137 137 140 139 143 144 146 147 149 151 152 151 153 154 153 155 130 152 158 164 166 165 165 94 100 142 164 168 170 168 167 168 166 161 142 67 96 121 162 160 160 159 158 134 66 79 103 138 149 152 154 151 150 149 141 132 112 142 140 140 139 139 144
66 66 74 109 113 115 117 117 120 122 124 125 129 131 132 135 137 137 138 142 84 90 120 141 144 146 150 152 156 153 139 93 67 94 116 162 164 167 169 164 70 107 93 65 78 121 171 172 171 165 95 70 90 64 69 158 161 161 158 157 91 111 102 61 64 78 152 155 151 96 71 71 57 67 141 145 142 142 140 138
71 71 75 108 113 118 118 120 123 123 120 111 98 88 79 110 138 140 140 141 72 126 104 71 69 102 153 153 153 74 72 125 104 127 75 164 166 168 167 160 82 84 151 67 58 94 173 172 168 68 58 107 148 61 60 134 163 164 164 154 65 76 134 85 65 93 156 158 150 76 92 77 60 62 138 145 141 139 99 74
76 76 78 108 114 117 118 120 122 121 102 94 73 116 116 84 137 140 138 139 67 122 133 94 111 91 153 157 155 87 134 60 92 142 74 160 167 168 169 150 118 82 122 105 56 139 178 175 172 76 142 144 84 113 131 79 163 165 164 141 59 122 67 87 105 139 161 159 153 87 107 116 120 96 132 146 142 79 111 119
79 77 78 108 113 117 118 120 123 124 113 92 81 122 90 70 139 141 141 141 72 68 60 63 97 106 154 157 159 140 69 56 97 80 59 141 169 173 172 119 146 125 150 76 57 168 179 176 177 145 68 162 120 85 59 68 162 167 164 92 64 120 71 126 73 159 163 158 160 107 111 99 86 65 119 147 148 108 78 124
80 78 79 102 116 118 118 121 123 125 124 58 106 66 59 63 135 140 141 139 79 75 62 120 66 121 156 158 160 159 69 91 132 136 116 92 167 172 173 85 79 124 87 90 64 178 178 181 179 173 75 163 129 84 92 163 172 170 162 95 72 86 92 66 98 169 165 165 161 124 98 64 55 56 107 151 146 131 83 97
86 80 80 98 114 119 121 122 123 127 125 69 68 80 77 80 133 143 145 139 71 118 81 95 57 134 158 161 165 163 88 96 146 62 67 89 174 178 175 115 76 78 86 56 96 182 182 181 182 180 135 62 70 150 176 180 178 176 173 168 167 154 113 71 154 170 169 168 163 139 68 90 126 146 152 153 150 144 79 67
88 80 80 92 116 116 120 124 124 127 130 70 55 77 72 72 125 143 146 149 138 112 77 70 57 143 161 165 164 165 142 59 82 129 162 172 177 177 177 180 178 166 146 101 153 185 183 186 187 185 174 101 177 181 185 183 184 181 180 180 177 177 176 172 173 176 173 169 168 161 160 161 159 161 158 155 152 148 113 85
91 81 80 87 116 118 119 123 126 127 131 120 117 123 130 133 136 143 147 151 153 151 153 153 143 156 163 168 168 171 169 157 170 175 178 178 182 180 183 184 184 186 184 185 188 189 191 189 192 189 187 188 192 187 186 187 186 185 187 184 182 181 181 178 177 175 174 175 168 167 167 165 164 160 161 156 156 155 148 155
93 83 80 83 112 119 120 124 126 130 131 130 134 136 138 141 145 151 149 153 154 156 158 158 162 163 166 168 170 172 173 175 178 178 182 180 185 186 187 188 189 187 191 190 194 194 193 190 194 192 192 191 193 191 189 190 188 188 186 184 185 182 183 179 179 178 177 173 172 168 169 167 165 164 163 159 159 154 154 157
92 83 80 83 111 119 123 126 125 128 132 134 135 138 138 143 147 147 151 150 156 156 158 160 163 166 167 169 172 172 177 179 180 183 182 182 186 187 189 191 190 187 191 194 194 195 196 197 199 196 194 193 194 195 195 195 193 194 190 185 187 169 89 180 182 178 178 174 175 163 88 159 169 167 165 162 159 158 151 140
92 87 81 80 105 118 122 125 128 129 133 137 136 137 139 145 147 150 154 152 156 158 155 156 164 166 169 174 175 179 179 177 180 180 174 186 188 192 192 190 190 191 192 191 194 199 202 201 201 183 172 165 156 142 161 194 196 193 191 184 113 98 115 152 184 182 181 179 174 81 62 73 141 164 167 162 162 151 80 93
95 92 82 81 97 119 122 125 128 133 134 134 138 92 74 135 146 150 154 154 156 156 114 75 119 164 170 175 176 177 177 165 140 91 65 177 191 194 190 187 93 88 80 75 79 198 205 203 198 71 94 71 91 135 149 198 199 195 154 67 162 116 156 90 185 184 182 179 127 71 162 95 85 117 167 166 156 75 85 69
95 95 82 81 88 118 122 128 129 132 133 139 137 67 53 54 80 140 153 156 156 157 77 150 130 64 141 174 178 177 98 73 72 159 61 143 194 193 196 187 122 172 130 100 80 203 204 207 201 79 173 93 189 123 174 200 199 183 79 89 93 66 105 90 178 187 186 170 60 74 164 77 60 116 171 162 76 111 76 140
95 97 84 81 82 121 125 126 129 133 133 137 129 73 101 60 65 78 125 157 159 147 91 76 79 77 56 117 180 183 135 114 168 164 125 86 195 198 202 191 121 119 167 72 72 207 208 210 205 74 73 122 106 61 191 203 204 198 95 65 123 82 90 67 132 194 184 77 62 162 77 105 84 173 172 163 82 151 135 130
94 97 91 82 82 114 121 127 131 131 136 135 103 67 98 100 128 87 143 159 161 106 121 165 92 154 64 157 181 186 180 68 121 128 176 71 195 203 204 197 64 169 117 133 76 212 215 212 202 113 172 78 88 92 201 212 208 206 172 75 176 148 70 136 194 194 190 174 82 71 55 63 167 177 173 173 145 71 131 100
93 95 95 82 82 105 125 128 128 131 136 138 93 72 110 128 138 75 150 160 159 120 72 150 125 99 80 179 187 189 187 89 135 145 121 61 172 204 206 201 96 140 166 122 84 214 217 215 203 111 148 133 99 75 210 214 215 210 202 79 75 113 195 202 201 198 196 193 185 129 62 140 180 180 177 173 168 111 89 149
94 97 97 84 80 91 123 127 129 133 136 141 141 135 83 59 71 111 156 164 166 164 163 103 89 136 128 183 188 191 191 161 130 82 93 158 203 210 209 207 95 102 110 118 145 215 223 221 216 195 199 202 208 213 219 218 214 215 212 163 193 204 205 207 205 201 200 197 194 194 181 186 184 184 179 180 172 163 155 175
95 96 98 88 80 85 120 125 130 134 132 137 140 146 146 139 82 137 157 163 166 169 169 174 169 95 172 186 190 194 194 193 168 194 203 204 208 210 215 213 215 216 218 222 224 226 225 230 227 225 225 224 225 222 222 219 219 217 216 214 214 211 209 208 207 202 204 199 199 197 196 194 188 186 184 180 178 176 171 178
95 96 96 93 80 82 116 125 129 132 136 139 143 142 136 152 152 156 160 161 166 169 173 173 178 180 183 188 189 195 198 200 203 203 207 211 213 216 216 220 221 223 228 229 227 231 230 228 228 231 228 229 227 227 224 226 228 224 220 218 218 220 216 214 211 212 205 204 201 200 196 196 194 190 187 181 180 179 175 181
91 96 96 97 80 78 104 125 131 132 136 140 143 145 150 155 153 156 163 163 168 171 176 179 183 185 187 191 197 196 201 203 207 207 212 213 217 220 222 223 226 221 226 231 230 235 236 232 233 234 233 223 216 229 231 234 230 225 220 219 210 210 213 217 213 213 204 124 97 153 189 196 194 192 187 154 136 136 140 166
92 94 94 98 84 78 91 126 132 133 137 140 139 146 149 147 90 134 161 166 168 175 175 178 180 174 152 184 198 202 205 203 205 192 85 206 220 222 227 228 222 76 132 223 238 241 238 237 234 201 121 83 93 232 234 235 229 134 79 78 89 135 148 221 218 214 197 64 170 170 80 87 196 194 187 95 83 108 66 151
92 94 96 99 92 78 81 124 131 133 137 140 143 145 148 110 90 59 115 164 171 174 170 119 77 61 122 116 196 198 204 200 127 74 133 102 219 227 227 231 165 81 134 96 164 243 243 238 90 197 168 154 72 228 240 238 233 113 151 155 81 138 189 224 221 216 134 87 169 180 88 151 201 201 184 113 81 91 131 176
93 91 95 97 98 79 78 117 129 133 134 140 143 147 132 91 72 72 73 92 168 173 173 77 108 157 111 64 197 206 204 84 114 93 165 67 185 229 231 226 101 164 113 161 69 231 246 246 88 133 103 97 123 221 244 243 237 111 136 118 94 75 215 229 226 209 74 96 135 191 107 203 205 201 166 108 76 85 98 188
92 94 93 97 97 87 79 101 129 133 133 141 142 143 90 101 101 111 133 65 114 174 180 145 144 94 75 116 156 207 208 190 141 153 91 93 73 227 235 148 165 224 239 93 150 249 251 253 135 175 175 160 155 208 249 251 234 99 96 162 145 113 229 230 227 160 74 95 112 138 153 208 207 202 133 117 110 60 103 193
91 93 93 96 97 94 79 86 126 133 136 139 142 147 146 112 90 101 118 88 168 175 178 178 75 154 175 84 86 208 213 214 137 62 102 79 189 232 241 239 162 129 231 107 244 253 255 254 199 72 72 110 192 247 250 254 233 120 124 130 138 163 235 237 238 227 223 200 143 102 210 215 209 207 191 184 182 178 184 197
91 91 91 94 95 96 82 80 123 132 134 140 143 147 150 150 139 92 81 160 170 178 181 182 137 84 138 189 204 207 213 219 218 85 139 227 234 240 243 243 246 242 156 213 255 255 255 255 251 240 252 255 255 255 255 255 255 253 251 253 251 246 245 244 238 238 232 229 225 221 216 220 216 210 207 205 202 197 192 198
88 91 90 93 94 96 85 76 109 130 134 138 144 146 150 153 156 154 155 169 173 177 182 186 187 196 197 200 205 210 218 218 225 225 231 235 237 242 248 250 253 253 255 254 255 255 255 255 255 255 255 255 255 255 255 255 254 253 252 251 247 247 246 241 240 238 231 229 229 223 218 221 218 213 211 205 201 200 197 200
86 88 90 91 95 95 93 77 93 126 134 138 139 149 148 153 155 160 165 165 173 177 181 188 188 193 197 202 208 214 215 224 224 225 231 238 239 245 250 251 253 255 255 254 255 255 255 255 255 242 255 255 255 255 255 255 255 255 255 247 243 251 250 247 245 237 223 112 222 232 225 223 218 208 148 192 202 201 198 206
85 88 91 91 93 94 97 78 79 124 132 139 140 144 147 151 154 158 144 114 172 177 182 189 190 169 116 194 208 212 221 222 214 200 197 200 209 248 252 254 253 216 96 162 255 255 255 255 249 138 92 227 255 255 255 255 218 144 99 94 147 252 254 251 245 203 110 127 97 227 229 225 220 161 163 154 75 122 200 205
85 86 89 90 91 95 95 83 77 117 130 136 138 143 148 151 148 100 89 103 125 175 181 185 189 91 147 64 110 199 219 224 158 115 97 121 102 249 255 245 114 216 127 140 247 255 255 255 108 118 153 73 110 255 255 241 144 157 201 108 124 255 254 248 170 163 112 67 118 118 229 229 211 96 176 99 84 170 203 206
83 86 87 91 92 94 95 91 77 102 128 132 137 142 144 144 83 105 135 107 80 141 180 185 164 105 120 122 134 114 219 223 182 106 112 193 89 249 254 245 102 97 204 110 108 255 255 183 221 236 142 70 173 255 255 255 138 191 127 138 102 253 255 235 96 97 139 145 95 139 230 226 159 150 79 122 110 204 203 207
81 86 88 91 93 90 93 94 80 82 123 129 135 140 140 143 140 101 145 121 120 89 168 183 115 104 119 142 104 201 219 225 204 77 156 99 112 253 255 255 190 161 233 116 186 255 255 237 115 179 140 127 255 255 255 255 119 140 74 77 112 254 255 253 230 94 93 149 185 232 233 230 132 87 138 96 184 209 207 212
81 84 88 88 92 91 91 92 85 77 120 127 133 136 141 143 147 137 107 113 91 165 180 183 185 181 117 128 116 214 222 224 220 144 154 162 177 255 255 255 255 127 172 255 255 255 255 255 255 225 97 253 255 255 255 255 187 193 241 255 255 255 255 254 252 223 101 221 237 235 233 232 223 216 209 185 209 209 205 209
81 81 83 86 87 90 90 92 92 76 107 124 130 133 138 140 146 151 135 143 165 170 174 180 190 193 196 198 204 216 221 225 231 236 239 247 250 255 255 255 255 255 255 255 255 255 255 255 255 255 255 255 255 255 255 255 255 255 255 255 255 255 255 253 253 249 241 241 239 238 233 230 227 219 219 217 208 205 202 209
81 82 84 86 87 89 89 90 91 80 88 119 127 131 136 138 144 147 151 158 163 171 176 182 184 192 197 202 206 215 218 227 234 237 241 245 252 255 255 255 255 255 255 255 255 255 255 255 255 255 255 255 255 255 255 255 255 255 255 255 255 255 255 255 251 240 236 243 238 235 233 225 220 213 192 216 209 205 205 211
79 80 82 83 86 87 88 88 90 86 77 111 124 129 132 136 139 146 148 149 153 159 169 178 182 190 190 137 98 206 215 223 230 232 167 133 227 255 255 255 255 103 134 234 255 255 255 255 206 137 150 199 255 255 255 241 202 147 94 192 255 255 254 247 204 125 105 229 236 232 223 213 144 91 104 211 210 203 202 207
77 79 80 82 83 85 87 88 87 88 75 105 120 123 129 131 138 139 81 68 90 66 133 170 177 155 74 124 133 130 211 219 197 106 141 164 107 252 255 255 179 204 197 139 120 255 255 153 113 206 113 125 255 255 255 109 173 165 96 138 255 255 246 152 186 191 132 97 228 225 172 85 80 92 115 198 205 202 202 203
76 78 80 81 82 84 84 86 88 88 77 92 113 118 122 128 130 135 94 94 86 65 112 168 170 130 137 162 174 99 173 217 213 123 178 139 110 136 255 252 169 178 146 231 213 255 255 231 98 198 235 117 255 255 255 130 186 207 184 127 254 255 198 78 163 118 201 91 205 220 201 77 180 195 164 161 204 199 196 199
74 78 78 79 81 82 84 86 88 86 84 79 108 114 118 121 126 127 104 88 86 94 87 160 166 171 111 158 108 105 196 212 219 196 102 83 147 247 255 255 246 145 93 138 255 255 255 255 139 176 148 163 251 255 255 179 111 109 123 150 249 249 246 185 104 80 119 213 220 219 207 90 106 113 187 196 195 192 190 194
74 75 77 79 80 81 82 84 84 85 84 75 102 109 112 117 122 127 117 94 102 109 125 153 159 164 167 100 164 191 201 205 213 218 168 220 246 252 255 255 255 255 247 254 255 255 255 255 247 252 255 255 255 255 255 248 228 248 251 246 247 243 239 232 181 163 215 215 212 208 206 177 188 198 193 192 190 183 182 184
74 74 77 77 79 80 82 83 85 85 85 77 92 104 107 112 116 118 123 125 131 137 143 152 156 162 167 170 177 186 192 199 206 213 222 228 240 248 255 255 255 255 255 255 255 255 255 255 255 255 255 253 251 254 252 254 253 250 249 247 247 237 234 228 221 217 212 208 209 205 198 197 193 193 188 187 183 180 179 170
71 74 76 77 77 79 80 82 82 86 84 82 81 99 105 107 110 114 117 121 122 115 131 139 145 150 158 141 145 172 184 190 197 196 191 195 202 234 252 255 255 175 226 252 255 255 255 232 212 209 213 230 242 242 233 225 224 222 231 235 236 227 216 178 201 202 201 199 194 190 184 167 127 174 179 177 174 169 166 151
72 73 73 77 76 77 79 82 82 84 82 82 74 94 98 104 107 109 112 115 72 67 97 129 138 144 148 79 90 105 136 179 188 150 103 96 94 181 242 251 226 196 134 135 157 254 245 168 170 138 191 154 225 224 204 114 137 138 113 220 223 219 179 171 142 112 109 188 181 104 82 143 87 160 171 168 166 161 155 135
71 72 73 76 76 77 79 80 81 81 82 81 75 90 93 98 102 103 107 76 90 63 80 85 123 137 101 80 95 97 71 166 176 152 125 95 101 164 232 242 176 165 171 209 208 247 237 157 113 158 129 155 210 212 185 118 171 131 139 211 216 205 117 172 93 120 153 179 175 96 140 101 136 151 160 160 155 151 142 132
71 71 73 74 76 76 77 79 80 80 81 83 79 82 91 94 96 99 102 86 64 89 81 82 126 130 100 95 106 84 132 160 167 153 76 135 100 149 219 230 177 163 174 164 232 234 222 150 142 78 82 152 198 200 171 105 148 172 146 211 209 187 109 152 141 98 173 168 165 97 77 107 105 148 149 148 142 142 122 125
70 70 70 73 74 75 75 76 80 79 80 82 80 76 88 91 94 96 99 101 97 68 78 114 122 123 126 126 111 92 143 151 158 159 157 167 175 191 207 217 224 237 228 219 231 222 212 197 188 179 178 178 185 184 180 174 179 183 191 200 197 194 187 173 141 152 165 160 154 141 141 148 144 142 143 136 133 130 117 121
68 69 70 71 73 74 74 75 77 78 80 78 77 73 84 89 88 92 96 98 99 104 107 111 112 118 121 124 128 132 138 143 148 152 158 162 171 182 191 206 215 225 226 221 215 205 195 193 182 177 175 173 172 170 169 171 173 177 181 183 184 182 180 173 164 159 155 151 147 145 139 138 135 132 129 127 123 115 109 111
67 67 68 70 70 73 74 75 76 76 77 78 78 77 81 83 88 89 89 92 96 97 99 105 107 110 114 115 119 121 127 133 135 143 144 153 161 164 175 185 198 206 205 206 200 189 180 171 166 162 160 157 156 153 153 156 155 159 163 165 166 165 165 158 154 148 143 136 133 132 126 124 123 120 117 114 112 104 104 108
67 67 69 68 70 71 73 73 74 73 73 77 78 78 77 83 82 84 87 89 89 92 94 100 100 103 107 109 112 115 116 119 125 129 132 137 144 150 157 166 174 181 187 182 177 169 159 157 151 147 144 142 142 139 140 140 140 144 145 148 151 150 149 142 140 135 130 128 123 121 119 115 114 111 108 106 104 102 99 105
65 65 67 68 69 70 71 72 73 74 74 76 75 77 77 79 81 82 84 85 86 91 91 92 94 97 98 103 105 108 109 112 115 119 120 123 125 130 132 137 139 142 144 142 143 140 138 134 135 131 131 130 127 127 127 125 126 124 128 127 127 128 126 124 120 118 114 115 112 111 109 106 105 106 103 102 102 97 97 104
63 65 65 66 67 70 69 69 71 71 73 74 76 76 77 77 79 81 81 81 85 86 87 90 93 96 97 100 100 100 106 110 112 112 114 118 120 124 124 127 128 128 130 131 130 132 129 129 128 127 125 123 122 120 121 124 121 120 119 120 117 116 116 116 114 112 112 109 108 108 108 106 105 105 103 102 99 97 95 100
63 63 63 64 65 66 68 67 70 71 71 72 72 74 75 77 77 79 80 83 85 84 87 91 96 95 98 97 100 103 117 107 109 109 113 116 115 119 123 122 125 126 128 129 129 127 126 126 125 124 123 121 120 121 118 119 116 116 116 116 113 112 114 112 113 110 109 109 107 106 105 104 101 101 99 98 96 95 91 96
61 63 64 64 64 65 66 67 69 70 70 70 71 72 74 75 76 77 79 80 81 84 89 91 94 96 97 98 98 99 101 98 105 106 109 112 115 114 117 119 123 123 124 124 124 126 125 121 120 122 117 118 119 115 116 115 115 116 112 111 111 112 110 109 110 109 105 106 107 105 105 103 101 100 98 96 95 93 90 97
61 61 62 62 63 64 66 66 67 68 69 67 70 71 72 74 74 77 76 80 81 84 87 90 92 94 97 97 97 95 99 101 101 103 109 109 112 115 117 119 120 121 125 122 124 123 122 121 119 120 118 117 115 115 115 113 115 112 113 110 111 109 110 106 107 106 106 104 105 103 102 100 101 99 98 95 95 91 88 93
59 61 61 61 61 63 64 65 67 67 67 67 68 70 71 72 73 74 76 80 81 83 87 88 90 91 94 95 95 93 95 98 100 102 105 108 110 112 115 117 122 123 123 124 125 123 123 121 120 118 117 115 114 114 110 110 109 108 111 110 109 107 107 104 106 104 106 104 102 103 101 101 99 97 95 92 91 89 87 93
59 60 60 62 63 63 64 64 65 67 67 67 69 68 70 72 71 73 76 79 82 84 84 84 88 89 92 93 92 92 95 95 99 100 103 106 108 111 111 114 120 120 122 123 122 124 122 119 117 117 114 113 114 111 106 108 107 107 108 108 108 106 105 104 105 106 102 104 102 101 99 99 97 97 95 93 91 88 86 92
59 60 59 61 62 63 63 64 64 65 67 67 68 68 69 70 70 72 74 77 80 81 82 82 84 87 89 90 89 90 91 94 96 99 101 104 107 111 111 115 115 119 122 123 123 123 119 116 117 113 112 110 111 107 108 106 105 104 104 104 105 103 103 105 103 103 103 100 101 101 99 99 98 95 93 91 91 88 83 90
59 60 61 61 61 61 62 63 64 64 65 67 68 66 69 70 70 71 76 77 79 79 81 81 84 84 87 89 90 88 91 94 95 96 97 104 107 109 112 114 118 120 121 124 122 126 120 116 116 115 115 110 109 107 106 104 104 103 104 104 102 102 102 101 102 103 103 100 100 100 100 97 94 92 90 88 86 85 81 87
58 59 60 60 60 59 61 63 62 64 64 66 65 66 67 67 70 70 74 75 78 79 80 80 82 81 87 84 85 87 87 91 92 96 99 103 106 107 111 113 116 121 121 135 133 131 119 117 117 114 112 110 110 107 104 103 103 103 103 103 102 102 100 103 100 99 100 97 96 95 95 92 91 88 87 84 81 80 79 84
57 59 58 60 59 61 61 61 62 62 63 65 64 65 66 67 68 70 73 76 77 77 79 80 81 83 85 83 84 84 87 88 91 95 94 98 99 101 104 105 109 113 117 126 125 122 113 113 111 108 107 105 104 103 103 102 101 101 100 99 100 97 98 97 95 94 94 92 92 89 89 88 86 85 82 80 78 77 76 82
58 58 58 58 60 61 61 61 61 61 64 63 63 64 65 67 66 67 70 74 74 76 78 78 80 81 81 81 82 82 85 86 88 88 92 93 95 97 98 101 103 106 109 130 128 123 106 105 104 103 101 102 101 99 99 96 98 94 96 97 96 96 94 93 91 90 91 89 88 88 82 84 81 80 78 77 75 75 75 81
56 56 58 58 59 58 60 60 61 61 61 60 62 62 64 65 66 67 69 73 75 74 78 79 80 79 79 78 77 80 80 81 84 85 86 87 89 92 93 95 100 98 102 106 109 107 103 100 101 97 96 95 94 96 95 94 94 92 91 91 92 91 91 89 88 87 85 83 82 81 81 79 78 78 75 75 74 73 72 79
55 55 55 56 56 58 60 60 60 61 62 60 62 61 62 63 65 64 67 69 73 75 76 76 77 75 75 76 77 78 78 80 79 82 82 84 85 87 89 91 94 95 98 104 104 103 100 97 95 94 92 92 91 91 91 90 89 89 89 87 86 86 87 84 85 84 82 82 80 79 77 77 77 75 75 73 70 70 69 74
56 55 56 55 56 56 55 57 58 59 59 60 60 62 62 63 64 64 65 66 68 71 70 72 71 72 72 72 73 74 76 75 77 79 79 82 83 86 83 87 91 96 103 105 104 100 96 94 92 89 91 87 88 88 86 88 87 85 84 84 85 83 82 81 82 80 81 78 79 77 77 77 75 73 72 70 67 65 64 75
55 55 56 56 56 56 56 56 57 57 55 57 58 59 60 61 61 64 62 65 66 67 68 67 68 69 70 69 71 74 72 75 76 74 77 79 79 82 83 87 91 92 98 103 106 99 92 91 91 89 88 86 85 85 84 84 84 83 80 81 82 79 81 79 80 79 78 76 77 75 73 73 69 68 69 66 67 68 67 74
54 55 56 56 56 57 56 56 56 56 57 57 57 58 58 58 58 59 60 61 62 63 65 65 65 67 68 69 69 71 71 70 73 75 74 77 80 80 82 85 87 87 102 125 129 118 94 91 89 86 83 81 82 82 80 81 79 80 79 80 78 78 77 76 74 73 70 69 69 68 70 69 69 68 70 69 67 67 68 75
