P2
80 80
255
106 100 100 106 106 108 108 109 111 112 114 116 117 121 122 124 124 126 129 128 128 130 134 136 135 138 140 144 145 143 149 149 151 152 153 154 153 157 158 160 160 159 159 160 162 165 166 162 165 165 162 163 162 157 155 154 158 156 157 156 153 151 151 146 145 145 144 144 143 141 140 139 138 135 133 132 131 130 130 136
101 102 104 104 106 108 111 111 114 114 115 120 118 122 123 125 123 129 128 132 132 133 135 139 138 142 142 145 143 145 146 149 149 151 152 152 156 154 158 158 162 160 162 165 166 168 170 165 164 165 164 162 162 162 163 160 164 160 161 160 162 158 154 151 151 151 148 148 146 144 142 143 137 137 135 136 133 128 130 139
100 102 103 106 108 109 112 114 114 116 116 118 118 122 126 127 127 126 126 129 129 132 134 136 137 139 142 144 144 145 150 148 151 153 154 157 155 155 158 159 158 163 164 166 166 165 165 166 169 166 169 168 165 166 162 164 165 162 162 164 161 158 160 158 156 154 153 150 149 146 144 146 144 143 138 136 136 133 133 143
101 103 103 104 109 111 109 112 115 116 117 120 121 123 123 124 126 129 131 132 135 136 139 138 141 140 141 144 148 149 150 150 151 155 154 157 153 156 161 162 159 164 165 167 165 169 169 166 168 167 164 168 164 164 164 165 167 167 163 165 162 165 163 159 157 157 152 154 151 150 150 148 145 144 141 138 137 134 136 143
100 102 102 106 109 110 111 114 114 117 118 118 121 120 124 129 126 128 131 133 135 138 137 141 144 144 143 145 149 148 148 148 151 147 147 146 144 146 146 144 146 148 145 145 147 152 150 149 147 153 155 154 154 159 161 164 164 167 163 162 163 160 160 160 157 157 154 152 155 152 152 149 149 145 145 143 141 140 137 147
99 104 106 106 110 110 112 113 115 117 117 120 121 123 125 124 126 126 128 124 122 119 119 123 121 126 129 133 133 137 139 142 139 142 143 143 146 147 146 148 147 147 150 151 150 152 150 152 149 148 141 143 142 142 143 141 143 141 141 140 140 142 143 146 151 153 150 155 152 151 155 153 154 148 148 147 145 141 141 148
100 101 104 107 107 107 112 113 113 114 116 114 109 106 106 112 116 122 126 130 130 133 132 135 136 138 139 137 139 141 142 142 144 146 149 147 149 148 150 149 151 152 151 155 156 155 152 153 150 149 147 145 144 145 146 148 146 148 149 152 148 145 143 140 138 137 138 135 133 138 148 148 149 152 149 151 146 147 143 149
98 101 105 105 108 107 108 102 102 107 113 115 118 122 124 125 127 130 131 132 133 134 136 138 140 140 141 139 141 141 143 142 144 147 147 148 149 150 150 150 151 152 156 155 158 155 152 152 152 149 145 145 145 144 148 152 151 151 150 151 148 145 143 140 143 142 141 143 142 143 137 137 133 134 139 145 147 146 144 149
96 100 98 94 97 105 108 112 115 117 120 123 124 124 126 125 130 129 131 135 134 135 138 141 139 144 141 142 144 146 146 147 149 148 147 152 152 152 153 153 155 156 158 158 158 161 155 153 155 150 150 148 147 147 150 151 153 155 151 151 146 145 143 142 142 144 140 142 143 142 141 140 139 139 139 135 131 130 133 149
84 92 104 107 108 112 113 116 116 118 119 124 123 125 127 127 130 132 135 134 134 140 140 141 141 141 143 144 146 148 149 148 151 150 152 152 155 155 156 156 157 157 157 160 159 160 163 157 155 155 152 148 149 150 151 152 153 153 151 151 145 148 144 143 143 143 143 143 146 144 141 144 141 139 138 138 135 133 132 136
69 89 106 108 110 110 113 115 116 119 121 123 126 128 127 128 129 133 134 137 135 138 137 144 143 147 145 146 147 149 150 152 153 154 152 154 156 159 161 161 163 162 162 165 163 163 161 159 159 158 153 151 154 154 156 155 156 154 152 151 150 149 147 149 146 146 145 144 145 147 146 142 142 140 141 139 134 135 133 139
64 85 106 108 110 112 112 116 118 121 123 126 127 128 129 130 131 136 136 136 139 140 142 145 146 148 145 148 150 153 152 154 150 152 155 160 159 159 160 161 162 164 159 164 164 165 164 162 160 159 158 156 156 156 156 157 152 155 152 154 156 151 151 148 147 148 146 149 147 151 148 147 142 143 143 139 138 136 135 139
62 81 107 109 111 114 116 114 121 122 123 127 128 128 130 131 133 133 139 138 141 142 144 145 149 149 150 150 151 152 150 155 155 154 157 159 158 160 160 162 160 163 163 166 167 166 166 164 161 163 161 163 160 136 156 158 155 157 155 153 154 152 152 150 150 148 151 150 153 147 148 147 144 144 140 141 140 139 136 141
63 78 107 110 113 114 116 119 120 121 124 127 127 130 131 133 134 138 136 140 132 142 143 145 146 149 151 150 153 154 152 152 143 109 142 162 162 164 165 162 107 98 143 163 166 168 170 167 167 165 163 157 83 70 149 158 161 156 160 157 111 96 133 146 151 152 152 152 153 152 148 145 147 146 142 141 141 140 137 144
69 79 108 110 113 115 117 117 121 122 124 124 125 124 118 132 137 139 138 137 66 68 78 112 139 145 152 152 154 147 109 74 69 113 99 161 165 166 163 162 77 116 86 66 84 131 172 171 167 165 124 69 69 81 94 160 162 161 159 154 72 90 68 73 105 148 156 153 150 136 109 82 74 143 147 144 141 140 137 139
73 78 109 112 112 116 117 118 122 113 67 65 69 78 63 132 137 139 140 131 89 139 135 70 76 105 154 156 155 69 88 122 96 117 69 160 165 166 165 163 75 97 151 70 58 84 172 171 167 81 59 85 130 58 63 155 163 164 160 146 75 130 95 74 61 145 157 157 95 89 103 56 64 140 147 145 143 136 85 92
75 78 110 113 114 117 118 120 124 118 84 91 108 116 64 128 136 139 139 125 59 85 91 117 77 120 157 156 156 91 134 57 108 143 77 158 167 166 169 156 105 85 133 102 56 127 174 174 170 69 127 136 117 131 106 121 166 164 161 109 62 101 68 94 69 158 158 156 111 75 86 109 66 136 148 145 104 69 93 101
77 78 107 113 117 119 119 121 123 122 62 100 81 70 85 122 138 140 143 116 111 56 83 74 93 136 157 158 159 141 64 57 90 88 60 130 169 171 170 132 140 126 155 82 57 163 176 175 175 129 72 155 89 66 63 74 162 165 159 69 67 116 97 139 110 162 161 157 130 118 74 109 91 127 148 143 89 114 100 64
76 78 107 113 116 117 120 124 125 123 64 85 60 62 79 109 138 142 142 102 124 69 62 85 58 144 157 159 162 158 69 96 140 121 122 82 170 172 174 93 74 127 86 99 62 177 180 179 181 172 74 168 116 110 76 158 168 168 153 64 107 100 136 63 155 166 165 163 142 69 117 65 58 113 147 149 108 81 100 103
79 78 103 113 116 120 120 124 124 124 75 70 92 84 120 91 142 142 146 103 66 76 112 99 56 150 159 162 163 162 89 79 138 61 69 97 172 177 176 125 78 79 93 56 87 180 180 184 183 179 112 66 74 129 175 176 176 172 168 159 136 86 65 72 163 169 167 168 149 86 59 67 98 144 153 149 134 75 80 89
80 77 99 112 117 120 122 124 126 127 93 59 62 66 73 89 141 146 149 148 146 137 104 71 63 155 163 163 165 165 144 64 99 143 165 172 174 176 177 178 176 168 144 96 144 187 183 185 184 184 168 84 170 181 182 183 181 178 177 175 175 174 167 164 174 171 168 167 158 142 155 160 157 157 157 155 146 72 62 129
80 78 91 114 119 119 121 126 127 129 129 131 131 137 138 140 144 145 147 150 152 150 157 153 153 158 163 167 169 171 172 164 172 178 175 176 181 182 183 181 183 186 188 181 186 189 189 187 190 189 185 186 186 187 186 184 184 181 183 182 180 180 177 173 174 175 173 173 168 167 163 166 161 160 161 156 153 136 143 154
80 79 85 117 118 121 122 125 128 128 131 133 137 139 140 143 146 145 149 152 154 155 156 159 161 163 165 169 170 174 176 174 174 178 180 181 184 184 187 189 188 187 188 190 188 192 192 192 192 192 191 192 190 187 187 189 188 186 186 185 185 181 182 177 178 178 171 174 170 168 169 166 163 164 160 157 156 152 154 157
79 78 83 112 118 120 123 124 128 130 134 136 136 139 141 145 148 147 148 152 156 158 160 161 165 164 166 168 171 172 174 177 181 180 183 183 186 186 188 188 190 191 190 195 195 198 196 195 194 194 195 194 194 196 194 195 192 190 190 188 188 167 165 182 184 180 180 178 172 125 169 169 168 164 164 158 158 154 153 160
81 80 81 112 118 120 124 126 129 132 132 134 134 134 141 145 148 148 153 154 154 155 118 155 162 167 169 174 175 176 179 177 180 176 171 186 189 188 189 190 192 191 191 194 194 200 198 198 198 188 185 180 173 168 186 196 196 194 191 183 104 106 98 184 185 181 182 178 130 60 85 164 172 168 167 161 155 80 117 161
82 79 80 106 119 121 123 125 129 131 135 136 103 57 84 137 147 151 152 155 154 154 78 78 115 162 170 175 174 176 174 159 124 83 63 177 191 191 197 186 91 89 83 75 81 199 203 202 199 68 90 75 73 101 183 197 195 195 147 79 167 121 88 179 186 182 181 166 71 143 117 75 153 168 168 158 76 109 69 155
87 80 78 98 120 122 124 126 130 133 133 134 72 54 52 56 94 147 153 157 158 136 89 152 115 62 139 171 178 176 80 81 76 156 62 146 193 195 193 188 121 172 132 102 78 202 204 203 196 85 177 119 184 101 194 200 200 133 124 73 106 69 143 145 189 186 179 77 68 165 75 69 108 168 159 78 77 81 119 109
90 81 80 86 119 122 126 125 129 133 134 132 75 108 90 74 108 72 151 157 159 93 121 95 65 83 56 146 178 182 120 133 161 162 134 89 193 197 200 194 121 119 162 74 74 206 205 210 197 75 69 129 112 67 201 203 202 181 62 124 156 61 103 84 191 189 126 59 159 86 105 75 171 173 150 80 154 151 95 82
93 82 82 83 117 122 126 129 131 133 134 108 76 80 73 135 96 110 155 159 153 69 149 160 86 145 67 173 181 185 177 72 108 135 175 69 194 201 204 196 64 169 116 126 79 212 212 213 199 137 156 73 106 86 205 210 209 199 89 110 137 78 80 172 196 194 170 76 100 57 61 165 179 178 172 110 83 132 77 161
93 84 79 80 114 122 128 128 130 134 134 116 65 89 107 138 82 139 154 159 158 96 93 128 96 81 107 179 184 185 187 80 124 139 110 61 179 204 207 199 100 137 171 121 92 214 213 214 190 137 160 147 87 100 213 214 212 208 167 72 90 150 197 202 198 201 194 185 115 59 128 183 182 179 176 161 88 85 157 169
95 89 79 80 106 122 125 126 132 132 137 138 139 109 61 58 75 150 159 164 163 165 159 87 112 96 165 182 189 189 191 142 126 77 102 165 201 210 210 203 96 101 107 115 146 216 221 220 207 181 189 200 204 212 220 218 214 215 203 128 201 208 207 204 204 200 199 195 188 172 187 187 185 183 178 177 148 165 170 178
98 92 80 78 91 120 124 129 129 133 134 138 140 144 144 111 113 154 159 161 165 168 172 172 158 98 181 188 189 191 195 189 177 196 203 203 205 209 212 216 213 221 219 222 224 223 226 227 225 225 230 227 226 224 224 220 221 219 215 215 215 210 211 207 207 204 203 201 196 194 190 190 185 184 182 181 175 174 171 177
93 94 82 79 83 119 126 127 131 135 136 139 142 144 139 150 153 156 160 164 169 171 172 178 179 179 185 188 192 196 197 198 202 203 206 210 212 210 215 221 220 225 225 229 226 233 229 231 229 228 230 229 228 228 226 223 222 222 220 218 217 217 215 212 211 209 204 201 199 199 197 196 192 189 187 181 180 176 175 181
92 94 87 78 79 115 124 129 131 136 138 140 142 146 150 153 157 157 162 167 170 173 176 178 184 184 186 190 195 197 203 202 208 207 207 214 218 218 221 223 227 222 227 231 229 236 234 235 234 233 229 226 221 232 229 234 230 222 217 215 214 209 218 216 216 212 155 99 157 191 195 197 194 190 145 135 139 139 175 183
93 95 92 78 76 105 126 128 130 136 139 143 143 147 150 112 107 156 163 166 169 174 174 178 179 170 143 192 196 200 200 203 208 185 83 209 221 222 227 231 220 74 138 228 234 238 236 239 231 191 110 95 138 238 235 235 223 78 103 68 133 96 220 221 217 206 77 153 176 83 94 201 197 181 118 72 93 80 174 183
93 95 97 81 78 89 123 128 132 134 138 140 145 145 131 78 60 81 156 166 172 174 154 102 69 62 125 165 195 205 203 199 111 85 129 119 221 229 231 232 151 83 146 91 177 242 244 233 107 202 151 120 100 237 240 240 218 134 120 104 120 115 224 225 223 173 92 151 177 88 166 206 200 163 136 68 143 114 183 188
93 93 95 87 79 80 121 128 132 134 140 141 142 139 77 87 68 80 75 151 169 174 149 76 105 165 79 85 200 204 205 78 96 109 179 66 201 230 232 226 110 170 118 146 73 237 250 243 82 115 153 103 94 238 243 240 198 170 91 167 75 153 231 231 222 85 86 125 194 105 206 206 202 127 129 76 78 140 186 191
92 94 95 94 78 80 114 130 133 136 137 140 145 95 111 80 122 134 86 69 166 176 176 87 125 73 65 101 190 206 207 159 173 157 78 89 80 227 232 131 157 226 238 84 176 250 252 249 103 132 197 139 114 240 250 248 175 126 169 119 172 196 236 232 200 79 95 105 147 170 211 211 201 98 87 74 69 169 189 192
93 94 95 96 80 77 101 128 133 136 139 140 144 144 111 71 120 121 70 139 171 180 180 147 76 180 155 114 126 208 212 212 99 64 83 82 197 231 239 237 152 141 235 106 250 251 255 254 150 70 79 141 226 254 254 255 176 139 147 157 171 231 241 241 232 229 214 177 128 220 219 213 209 202 195 194 195 195 193 196
90 93 93 96 86 77 86 123 133 134 138 143 145 148 152 138 86 93 125 168 176 176 179 180 75 86 139 187 205 212 215 213 216 74 146 227 236 241 242 247 246 235 144 230 255 254 255 255 247 248 255 255 255 255 255 255 253 253 252 254 253 249 241 243 240 235 234 230 225 222 220 216 214 209 207 203 202 194 195 196
89 90 93 94 92 78 76 119 130 132 138 142 144 150 151 154 153 128 161 169 174 176 182 185 187 195 201 199 201 214 214 216 223 219 231 234 237 243 244 250 252 254 254 255 255 255 255 255 255 255 255 255 255 255 255 254 255 254 254 252 249 251 246 242 239 238 233 234 232 228 221 223 213 211 208 205 201 199 194 200
88 87 92 92 96 80 76 109 128 131 137 138 142 148 151 153 155 161 165 168 172 176 182 187 189 192 198 202 208 213 216 222 223 229 233 239 242 244 249 251 255 255 252 255 255 255 255 255 255 232 255 255 255 255 255 255 255 255 247 214 251 251 251 247 245 213 93 209 231 232 226 221 183 104 161 197 205 201 197 203
88 88 91 91 94 86 75 91 125 133 135 138 142 147 151 154 158 159 135 166 174 179 186 184 190 127 170 204 207 214 219 223 216 213 210 212 224 249 254 254 253 199 93 189 255 255 255 255 207 164 97 236 255 255 255 228 149 92 144 93 245 253 251 247 191 99 133 82 221 233 228 217 100 188 156 72 182 204 200 205
86 89 91 93 93 93 76 77 121 130 132 137 141 145 150 151 143 81 80 99 167 179 183 186 180 101 84 73 166 207 220 223 112 135 124 128 130 251 255 231 107 227 106 121 252 255 255 254 110 163 100 114 134 255 255 162 137 185 130 102 237 255 252 163 175 156 73 169 99 229 228 191 137 146 81 105 204 205 202 208
87 88 89 92 92 94 81 75 115 127 132 137 138 143 145 106 88 133 136 72 111 175 182 183 118 123 99 104 149 154 221 227 134 95 96 170 112 254 254 233 101 101 218 96 135 255 255 127 184 207 99 76 247 255 255 208 222 193 91 84 220 255 254 153 83 114 128 86 200 234 223 115 110 121 158 191 213 210 202 205
84 88 89 89 92 90 88 75 98 125 130 132 137 141 146 134 98 135 140 150 126 129 180 176 87 110 140 156 73 212 222 222 157 90 183 113 113 254 255 255 156 174 234 117 219 255 255 232 103 153 176 208 255 255 255 241 103 84 89 138 233 255 255 248 137 79 130 225 238 233 230 204 147 100 114 212 210 209 201 207
85 87 90 89 91 92 92 76 82 120 129 130 138 141 144 145 135 108 107 89 98 169 180 182 178 128 85 165 158 216 221 225 193 120 131 141 168 254 255 255 255 123 195 255 255 255 255 255 255 223 140 255 255 255 255 255 227 253 255 255 255 255 255 255 249 175 235 242 240 234 234 232 225 222 216 216 213 207 202 205
84 85 87 89 88 90 92 81 76 113 124 127 133 138 143 144 150 132 85 147 168 174 177 182 189 192 193 165 205 217 225 227 230 238 240 249 252 255 255 255 255 255 255 255 255 255 255 255 255 255 255 255 255 255 255 255 255 255 255 255 255 255 255 255 253 249 245 244 237 236 233 230 226 220 217 218 212 207 206 208
82 84 86 86 89 88 89 87 73 101 121 123 128 135 138 139 144 153 155 163 165 171 176 181 187 193 197 201 208 215 222 228 234 235 241 245 255 255 255 255 255 255 255 255 255 255 255 255 255 255 255 255 255 255 255 255 255 255 243 255 255 255 255 251 201 181 243 243 238 232 226 211 136 173 215 213 210 208 204 201
81 82 84 87 86 86 87 89 77 86 114 120 127 131 139 140 143 149 151 155 162 168 172 180 183 192 192 152 172 213 219 228 232 233 174 116 248 255 255 255 255 95 131 240 255 255 255 226 149 114 172 249 255 255 241 167 149 91 94 255 255 255 247 167 120 133 181 235 232 214 136 72 97 108 210 213 207 204 201 189
79 81 83 85 85 86 87 87 81 77 110 117 124 126 131 134 139 116 94 91 87 93 169 172 181 163 79 93 107 191 214 226 198 95 130 185 120 255 255 255 144 204 188 129 127 255 255 113 106 221 100 197 255 255 233 165 205 180 108 245 255 237 113 131 150 131 77 199 226 166 76 114 148 133 203 208 201 201 199 169
78 79 81 82 84 85 86 86 86 73 103 114 120 124 128 131 134 103 107 73 65 69 158 169 160 97 153 121 136 92 208 220 188 169 176 150 88 192 255 240 204 207 168 185 246 255 255 180 147 174 228 128 255 255 253 121 231 202 192 221 254 247 124 153 133 159 154 221 223 205 96 119 139 157 201 204 201 194 190 152
77 79 80 81 82 86 86 85 88 76 87 110 115 119 123 127 129 118 78 74 75 99 147 164 171 146 106 163 144 99 196 216 219 150 104 97 149 250 255 255 236 138 95 171 255 255 255 245 154 150 181 230 255 255 255 111 111 158 208 244 249 239 238 123 88 187 217 218 216 208 116 141 196 201 201 199 194 190 173 150
76 78 79 82 81 84 83 84 84 81 77 104 108 115 118 122 125 124 70 78 77 70 139 157 165 169 133 100 150 193 205 208 213 215 125 220 247 255 255 255 255 255 242 255 255 255 255 255 255 255 255 255 255 255 255 253 253 252 252 246 242 238 232 223 211 216 213 212 209 206 199 198 197 198 194 190 186 178 152 144
74 76 77 79 80 83 83 84 84 84 74 96 105 110 112 116 120 123 124 126 133 140 145 154 158 165 167 173 180 189 197 201 211 219 225 235 250 253 255 255 255 255 255 255 255 255 255 254 254 252 252 253 251 254 250 251 250 247 245 238 233 226 221 216 212 211 206 201 198 196 187 176 185 185 182 182 177 170 136 141
73 76 77 78 80 79 81 84 84 85 76 87 101 104 108 110 115 117 122 126 129 135 139 146 151 157 163 158 172 178 189 194 202 204 209 217 220 243 255 254 253 181 224 247 255 255 253 189 171 169 170 229 241 238 192 171 166 164 207 228 224 213 121 110 136 171 193 188 151 110 105 101 172 177 172 170 165 151 132 136
72 74 75 77 78 78 80 82 83 82 80 77 96 100 104 108 109 113 115 118 72 105 130 139 142 148 143 95 90 133 171 185 193 110 89 83 96 220 251 254 199 193 141 147 191 248 238 124 170 121 172 204 228 221 143 177 173 126 184 221 214 183 170 122 142 110 185 176 95 133 127 120 165 164 161 160 154 137 128 132
73 73 76 77 77 77 80 80 83 81 81 72 92 97 98 102 106 107 109 70 65 86 85 124 136 139 84 72 86 112 87 174 178 114 134 85 115 204 239 246 163 152 163 186 229 239 227 107 107 143 107 194 210 207 132 126 161 158 201 212 204 114 152 92 89 161 176 168 100 88 114 107 155 157 151 150 144 127 121 126
71 73 74 74 76 78 78 79 81 81 81 75 85 93 97 98 102 104 76 89 61 70 93 86 130 126 91 90 103 82 145 164 170 121 80 155 119 189 226 235 181 161 174 144 228 224 217 119 123 86 92 185 196 195 125 118 158 155 204 205 200 167 133 108 105 166 163 161 118 119 145 149 147 144 141 139 127 117 113 119
71 71 73 73 76 75 78 79 78 80 81 78 78 88 91 95 97 99 100 83 78 83 76 118 124 126 123 105 82 90 148 154 161 152 151 165 173 200 214 223 231 234 225 210 223 212 204 190 186 180 180 180 183 180 180 186 185 194 197 193 191 183 180 170 165 160 155 150 145 145 141 138 136 136 132 124 113 109 108 111
70 70 71 72 75 75 76 77 77 77 82 80 72 86 89 90 94 96 98 100 97 80 109 113 118 122 126 129 129 135 141 147 152 156 164 173 179 188 201 211 220 223 219 213 205 197 190 186 177 174 170 166 168 168 165 169 172 175 178 177 174 171 165 157 149 147 143 137 136 132 128 128 124 122 120 114 108 104 101 107
68 70 70 71 73 74 73 75 78 78 79 77 74 83 84 88 91 92 93 96 97 102 104 108 111 114 119 121 122 127 132 136 139 144 152 157 165 176 186 193 201 205 203 200 191 181 174 166 159 155 154 151 150 150 148 151 152 155 159 157 158 156 149 143 139 133 131 127 124 119 120 117 113 111 109 107 104 100 99 105
67 68 71 70 71 72 74 75 76 75 77 78 77 76 82 84 86 88 91 91 95 96 100 102 104 107 109 112 116 119 121 127 126 132 137 142 147 156 164 170 181 182 180 179 169 160 155 150 147 142 139 139 138 136 134 138 138 142 145 145 144 142 138 132 127 123 120 115 113 111 111 106 107 104 103 101 101 98 97 101
67 68 68 69 71 72 72 73 74 74 76 77 77 75 81 82 83 85 87 87 90 91 95 97 98 103 105 107 110 110 113 116 117 122 122 126 130 134 137 138 141 140 142 140 138 136 134 133 131 128 129 126 125 125 122 123 120 121 121 120 120 116 118 116 114 114 110 113 109 110 109 104 104 105 102 101 98 95 94 100
66 67 67 68 68 70 70 72 74 74 75 76 77 77 78 78 81 81 82 82 86 87 89 91 94 97 98 100 99 103 107 109 110 113 114 117 122 123 127 126 127 128 129 130 129 131 129 128 127 126 123 122 123 123 120 119 119 117 117 118 115 117 115 114 114 113 109 109 108 107 108 103 102 101 100 98 97 93 92 96
64 66 65 66 67 68 69 69 71 72 71 73 74 76 77 78 81 81 82 83 85 85 90 93 96 97 99 98 100 102 117 107 109 111 112 116 117 120 121 123 124 125 126 125 127 129 126 124 125 121 122 120 118 120 115 118 114 114 116 116 114 110 113 111 111 108 109 107 105 106 104 103 101 98 97 97 93 91 88 93
62 64 65 65 66 66 68 68 69 70 72 72 73 74 76 76 78 78 81 81 83 87 91 91 93 96 99 99 101 101 102 101 105 107 111 112 117 117 118 120 121 123 123 123 123 124 123 122 122 121 118 116 118 115 115 114 114 114 112 112 109 112 110 108 109 107 107 106 104 103 101 103 100 97 98 95 93 89 88 93
62 63 63 64 64 65 67 67 68 70 71 69 71 73 74 75 78 78 79 81 84 85 89 91 95 94 97 99 97 97 99 101 103 103 109 107 112 114 116 116 119 123 121 125 124 124 122 120 122 119 117 117 115 113 112 112 113 112 109 110 109 108 108 108 107 105 107 105 104 106 102 99 99 96 95 94 92 88 85 90
60 62 63 63 64 65 65 66 67 69 68 71 71 72 73 74 75 75 77 80 83 85 85 89 91 91 96 96 96 95 96 98 100 103 106 107 112 113 114 117 119 123 124 122 126 123 123 122 119 119 116 114 114 114 111 111 109 109 111 109 109 108 106 106 107 104 106 103 102 102 101 100 97 97 95 93 90 87 84 90
61 61 61 63 64 64 64 65 65 68 68 68 69 70 70 73 73 75 77 80 82 86 85 87 87 90 92 93 93 93 94 97 100 101 103 105 109 113 114 117 118 123 121 121 122 122 121 120 118 117 113 111 112 111 108 107 106 107 105 107 106 107 105 103 104 104 103 101 101 101 99 99 98 96 94 90 88 85 82 88
59 60 60 61 64 63 64 65 65 67 67 68 69 69 70 72 72 74 75 78 81 82 83 84 85 89 89 92 90 92 94 94 98 100 102 103 108 109 112 114 115 119 118 122 122 123 120 118 116 113 113 109 111 106 106 105 104 107 104 103 103 102 105 103 103 105 103 102 100 100 97 97 93 92 88 86 83 82 81 84
60 59 61 61 63 62 63 63 65 65 65 68 68 67 69 71 70 72 75 79 79 80 81 81 84 85 88 89 88 90 93 93 93 98 100 102 105 109 113 113 116 117 120 121 122 126 120 118 116 114 113 109 108 107 105 104 105 104 105 103 102 103 102 101 102 102 100 98 98 95 93 92 87 85 86 83 79 80 78 82
58 60 61 61 62 59 63 63 63 64 66 67 66 66 68 68 70 72 74 77 77 80 79 81 83 83 86 84 87 88 90 93 95 98 99 101 104 106 112 113 116 118 120 124 129 128 124 117 114 114 109 109 107 105 104 102 106 101 102 103 101 100 100 98 96 95 96 93 92 91 89 90 85 82 80 80 77 78 76 82
58 59 59 60 60 62 62 62 64 64 64 65 67 66 66 68 69 71 72 78 77 77 80 81 82 86 87 85 84 86 86 89 92 94 96 99 100 103 104 107 108 111 113 116 121 121 118 113 109 106 106 105 102 101 103 100 102 99 100 98 97 96 96 93 92 93 89 90 88 86 85 83 81 78 78 77 75 73 72 81
59 58 59 58 60 61 61 62 63 63 64 64 65 66 66 67 68 69 70 75 76 76 78 79 80 83 82 83 81 83 86 88 89 90 93 94 96 97 99 102 103 108 108 112 125 123 117 106 105 103 100 99 99 96 97 95 95 93 94 93 94 92 91 91 88 87 86 85 84 82 80 80 78 77 76 73 73 72 71 78
58 57 59 58 59 59 60 61 62 62 64 62 62 63 65 64 67 68 69 74 74 78 77 79 82 81 79 80 79 79 81 82 85 86 88 89 91 92 93 96 99 98 98 103 108 108 104 101 100 98 95 94 93 95 94 93 91 91 89 90 88 90 87 86 84 83 82 81 81 80 78 77 76 75 75 72 72 68 66 74
58 57 58 59 58 59 59 60 61 61 61 62 63 63 64 64 65 66 67 70 73 75 77 78 76 76 77 77 78 78 79 79 79 83 84 84 86 88 90 92 91 96 97 100 103 104 100 98 98 96 92 92 89 91 88 89 89 88 87 86 85 86 85 83 83 83 80 80 79 77 77 76 74 72 70 67 67 66 66 74
54 55 56 57 58 59 58 61 62 61 60 60 61 63 63 63 64 63 67 67 70 71 72 73 72 73 74 74 74 75 77 75 77 78 81 81 84 86 85 86 90 91 96 100 106 102 100 96 95 91 91 88 89 88 87 86 85 84 84 82 82 83 83 79 80 79 78 78 78 75 71 70 69 70 68 68 67 68 67 75
55 55 57 56 56 57 57 58 58 60 58 61 61 61 62 62 62 64 65 66 66 68 69 69 69 70 72 70 73 73 73 76 75 74 79 79 81 82 84 86 91 91 95 102 107 106 96 93 93 89 87 87 86 85 83 83 83 82 80 82 80 78 80 78 76 76 72 70 70 69 70 69 70 70 71 68 69 68 68 75
55 55 56 57 56 56 56 56 56 56 56 57 58 59 59 60 62 61 63 63 65 65 66 66 65 67 68 69 69 71 72 70 73 75 75 76 80 79 80 83 86 87 91 106 125 131 110 91 88 87 84 83 81 82 79 79 80 78 76 73 71 72 69 70 70 71 71 71 71 71 71 71 70 71 71 68 70 68 69 76
