P2
80 80
255
106 101 102 104 104 108 110 112 115 112 115 112 116 119 123 125 125 124 129 130 128 132 135 139 137 139 142 145 146 145 146 150 151 154 156 157 158 159 156 161 162 162 160 159 163 163 163 165 165 164 164 164 160 160 159 154 155 154 156 155 153 151 150 147 148 147 145 143 141 139 138 140 138 135 132 134 134 131 133 138
99 101 102 104 107 108 110 110 112 113 114 116 121 121 122 126 127 126 128 130 131 130 133 135 134 137 138 141 146 144 146 145 150 151 148 150 152 155 156 156 158 161 161 158 163 168 168 168 167 165 166 163 163 160 163 162 161 161 160 158 158 156 154 154 151 149 146 145 145 144 141 141 141 138 135 133 135 132 134 139
98 104 105 106 107 108 111 111 115 115 115 118 121 119 122 127 123 124 128 130 133 136 136 140 140 140 142 143 144 145 149 149 151 152 154 156 157 158 161 157 159 161 162 164 168 166 167 169 163 164 168 165 168 166 165 166 162 163 160 163 160 161 160 156 157 154 151 149 148 147 142 143 140 141 140 138 134 135 134 141
99 101 103 105 107 107 112 113 114 115 119 119 119 122 121 126 127 131 130 131 137 135 138 138 144 142 147 145 149 154 150 156 156 156 158 158 158 163 161 163 160 166 165 168 165 165 167 166 168 168 167 166 166 167 164 163 162 164 165 165 162 161 160 156 156 155 155 154 149 149 147 145 146 143 141 138 137 135 132 142
101 104 103 105 109 108 112 112 116 119 118 120 119 123 124 125 124 127 129 130 131 130 131 131 133 129 129 127 127 129 128 129 131 132 129 134 135 136 137 140 141 144 143 146 149 150 154 156 154 157 161 162 165 162 163 164 167 169 166 163 164 160 161 157 157 161 156 156 154 151 153 151 148 146 143 144 140 138 139 144
97 101 104 106 106 108 110 112 113 116 115 116 115 111 109 106 110 112 119 123 128 128 131 133 130 136 137 139 140 139 142 140 143 145 144 145 145 148 147 148 148 149 151 150 151 150 149 148 146 146 144 142 143 139 139 138 139 140 147 150 156 161 158 159 160 159 157 154 152 152 154 152 153 147 148 144 143 142 143 148
97 101 105 106 106 106 106 102 102 102 108 115 116 119 120 122 125 126 127 130 133 131 137 135 137 138 139 139 140 145 143 143 145 147 148 149 146 151 150 151 151 152 150 154 152 155 153 150 148 149 144 146 145 146 148 149 147 149 148 149 148 141 141 135 135 138 146 152 154 153 154 154 152 152 150 147 147 149 144 152
96 98 96 94 98 103 110 112 116 115 118 117 120 123 125 125 127 128 132 130 133 133 135 138 139 138 139 140 142 143 143 145 145 149 149 150 151 152 152 151 153 153 154 154 156 155 154 154 152 148 147 148 148 149 148 152 152 149 153 151 146 146 141 143 144 140 142 140 138 135 139 145 149 154 153 150 148 148 147 151
80 98 102 107 109 110 114 113 115 118 119 121 123 124 126 125 129 130 129 132 134 134 138 140 136 143 141 144 144 146 147 147 149 149 150 149 152 153 154 154 154 159 159 157 156 158 154 154 155 150 146 146 148 149 152 150 155 152 150 149 145 144 142 144 144 144 141 145 144 142 143 139 139 133 135 142 150 148 145 152
65 100 107 109 111 110 113 116 117 119 117 121 121 125 128 128 130 132 133 134 135 138 139 141 143 141 146 145 146 145 148 148 148 150 149 154 152 153 157 157 158 159 160 161 158 157 161 155 154 154 151 147 148 152 154 155 152 153 148 149 149 146 145 143 145 144 145 145 144 143 143 142 139 141 138 138 136 132 133 147
62 97 105 108 110 111 115 116 117 118 121 123 126 127 129 130 129 133 135 134 138 137 137 144 139 142 145 146 146 149 150 147 152 151 151 153 157 157 162 160 163 163 163 163 162 162 161 159 157 155 153 154 154 155 153 155 155 153 151 150 149 147 147 148 145 146 146 143 146 145 146 144 142 142 140 138 135 135 134 139
61 95 106 110 111 112 110 114 120 121 123 123 126 128 129 130 131 134 135 137 138 141 140 142 143 146 145 148 150 150 152 152 154 153 154 158 156 157 158 159 162 159 162 163 163 164 163 163 163 161 158 156 156 157 158 155 155 155 154 152 153 152 148 147 147 147 146 149 148 148 146 143 142 143 142 139 139 137 135 141
64 94 108 109 114 114 115 116 120 122 124 125 126 131 130 134 134 136 136 137 140 140 139 143 146 148 148 149 151 151 153 152 155 154 156 156 158 159 159 162 160 160 163 162 167 168 167 167 165 164 161 162 162 160 156 157 156 156 158 157 154 151 149 148 151 148 151 151 150 149 150 145 144 145 142 142 141 139 135 142
68 94 108 111 113 115 118 116 120 122 123 125 127 126 127 132 135 137 139 140 132 75 104 136 146 145 148 149 153 152 152 153 150 125 87 89 160 162 163 162 162 148 80 121 159 168 168 169 166 166 167 165 159 120 69 151 161 156 159 155 156 124 144 150 148 150 152 152 153 151 153 148 147 145 143 142 141 138 138 142
73 90 108 115 113 117 117 118 120 123 87 79 71 69 65 98 137 138 136 140 125 93 113 82 65 83 128 152 153 154 122 80 72 92 101 72 158 164 166 163 164 116 132 74 69 75 121 167 172 170 168 152 75 65 107 107 159 163 160 160 154 68 80 85 131 151 156 158 154 152 148 144 134 147 146 144 142 141 139 145
74 88 110 113 113 118 117 120 122 123 66 111 68 124 108 81 135 140 141 142 113 97 136 120 78 113 101 150 154 155 86 125 81 85 76 95 154 164 166 165 165 81 138 121 95 57 65 169 172 170 108 58 69 129 58 66 159 163 163 163 135 104 131 62 63 80 155 155 143 84 72 61 65 143 148 147 142 141 128 139
77 84 110 114 114 117 119 122 123 123 69 89 91 115 92 68 136 139 140 140 96 89 57 61 92 65 118 156 156 160 127 105 58 85 139 89 121 166 167 171 166 75 124 152 100 58 86 174 174 174 80 98 152 127 118 84 135 162 166 162 91 68 121 77 68 110 156 157 135 100 92 60 63 143 146 145 138 81 81 120
78 82 112 113 114 118 120 123 124 125 75 65 75 63 58 61 133 139 141 144 86 122 56 106 112 80 134 156 156 159 155 63 75 67 130 70 81 167 170 170 162 98 110 146 88 57 135 175 178 177 142 78 148 74 63 72 85 164 162 159 65 82 71 118 102 155 163 157 146 93 92 130 96 138 150 139 80 98 82 90
76 79 110 116 116 119 119 122 124 126 89 101 59 100 83 71 133 143 143 141 74 124 79 79 64 55 146 156 162 162 163 77 131 120 107 97 68 167 173 172 134 63 141 99 127 58 167 180 180 179 170 76 170 131 124 65 146 168 166 140 62 142 79 112 77 165 165 161 153 88 103 81 67 132 147 144 72 125 64 73
79 78 107 114 116 119 122 123 125 126 105 54 62 67 86 70 128 142 142 146 129 88 66 77 85 58 148 159 161 162 167 123 64 120 68 71 113 171 177 174 157 95 75 90 59 66 176 182 183 182 180 119 74 86 107 171 173 174 170 163 131 82 69 61 128 167 171 168 158 78 67 56 62 130 153 146 95 94 101 68
79 79 108 114 116 120 123 124 126 128 128 106 109 116 121 126 135 145 146 149 151 152 146 138 109 79 157 161 163 165 165 159 77 119 157 169 171 175 176 183 179 175 174 159 111 116 183 188 186 186 182 171 75 162 180 182 182 181 178 174 174 172 163 131 168 171 169 169 161 84 117 147 155 158 154 153 124 57 61 121
79 78 103 117 121 121 123 126 127 130 131 133 136 135 138 139 143 144 146 149 151 152 155 155 159 160 160 165 168 170 173 170 167 176 175 175 178 182 182 182 184 187 186 185 189 188 189 190 189 189 187 185 182 186 185 184 183 184 184 182 180 176 174 176 175 175 172 169 170 167 164 163 164 161 160 157 146 91 143 156
79 79 99 116 121 123 124 128 128 128 132 134 136 137 139 140 144 145 147 151 149 154 156 159 162 159 163 164 170 173 171 172 177 178 181 181 183 183 182 186 186 187 189 188 192 190 191 192 190 192 190 192 189 190 190 189 187 188 187 186 183 184 182 178 179 177 174 175 173 171 167 166 166 163 161 158 155 153 153 157
78 78 90 116 118 121 124 127 128 132 133 134 136 138 142 144 146 147 150 151 154 155 158 161 164 166 167 168 169 173 174 176 180 180 179 182 186 185 186 191 189 191 191 196 194 196 194 195 199 193 195 195 193 193 195 194 191 194 190 188 190 183 164 184 181 179 176 179 174 159 168 167 168 167 163 158 157 155 154 160
79 79 84 114 119 121 124 124 128 133 133 136 136 84 132 145 145 149 150 153 158 158 157 85 148 166 167 172 172 176 174 178 180 177 176 165 184 188 191 191 193 191 192 193 192 193 198 198 198 197 187 184 183 179 176 196 196 193 194 186 181 92 82 175 187 181 182 181 164 64 113 169 168 167 167 162 150 90 154 163
78 79 81 113 120 123 125 129 129 133 134 134 120 56 55 86 140 150 153 156 157 158 143 93 92 93 160 171 175 178 178 173 153 105 79 61 171 188 192 196 192 84 84 78 74 78 197 204 202 197 71 90 79 73 88 189 197 199 193 133 97 158 153 134 188 185 185 178 80 125 111 92 168 170 170 155 79 89 135 165
80 78 78 112 119 122 126 128 129 132 136 135 83 55 53 52 57 99 149 156 157 158 97 97 143 97 60 123 175 179 183 79 82 82 157 64 123 192 195 198 192 105 183 124 90 87 199 208 205 198 88 168 130 182 91 195 199 199 85 118 86 94 131 86 186 188 182 124 64 167 73 77 120 171 159 77 59 110 86 162
81 78 82 104 119 123 125 128 133 133 135 134 66 121 126 82 112 89 127 156 161 154 79 135 122 67 89 58 159 181 183 130 139 161 163 129 83 195 204 204 195 106 112 175 72 72 204 210 210 197 77 70 132 98 81 203 206 199 140 60 157 90 81 74 180 188 172 61 147 104 92 72 172 171 100 116 144 125 68 149
81 79 79 94 121 124 128 130 132 133 136 121 85 61 91 98 90 72 149 157 160 129 66 159 150 107 145 76 178 185 188 177 73 101 131 175 68 191 203 207 199 63 158 127 140 80 209 218 212 190 144 147 71 120 107 206 209 207 190 65 141 119 91 115 194 194 175 75 120 59 63 167 181 177 160 85 113 107 118 168
85 79 79 84 118 124 126 129 130 132 135 133 81 64 90 127 125 97 150 158 159 156 90 100 102 89 76 133 185 188 189 187 82 132 129 108 62 165 204 208 201 100 148 166 119 92 210 215 217 181 140 151 142 75 138 215 212 211 203 99 83 93 188 201 200 198 192 185 109 59 128 186 181 182 174 125 117 118 164 173
91 79 78 81 116 123 126 128 131 133 137 138 141 136 81 56 59 138 157 162 162 165 169 158 83 118 82 176 183 189 190 194 138 117 79 114 177 203 210 212 208 105 112 116 128 156 216 221 222 204 190 194 202 206 215 219 215 217 211 173 169 205 206 204 203 199 200 196 187 165 188 190 185 183 177 167 134 168 171 176
95 79 78 78 112 122 128 132 129 135 134 141 140 144 146 140 95 148 159 161 165 170 169 172 174 159 120 185 189 193 196 197 190 187 201 202 207 209 211 215 218 218 221 221 222 223 226 228 226 226 226 226 228 227 221 220 221 221 215 213 213 211 213 206 207 205 204 202 196 193 195 190 188 187 183 179 176 175 173 179
95 84 79 78 99 122 127 127 130 136 138 141 142 145 139 151 155 157 161 163 165 170 172 173 176 180 186 188 189 192 196 199 201 202 208 210 210 211 216 218 223 223 229 225 228 232 226 229 228 230 231 226 231 227 224 225 226 223 223 221 221 220 214 209 214 210 206 204 202 198 198 196 189 190 186 184 181 178 176 180
95 89 78 77 85 123 127 130 133 136 136 141 144 146 151 153 155 159 162 167 165 171 175 178 180 183 185 191 191 197 200 199 206 206 208 213 214 219 223 226 224 227 224 231 231 235 232 236 237 232 232 226 223 222 234 231 231 225 222 216 212 207 216 220 215 213 177 91 146 191 198 199 194 180 128 130 128 160 175 182
94 93 77 77 79 119 125 128 133 136 139 141 144 148 147 139 82 150 160 166 169 172 175 178 181 181 165 140 194 200 202 201 206 207 175 81 213 222 223 228 229 222 73 138 226 236 240 240 237 226 164 89 113 185 236 239 233 181 77 85 101 133 199 221 219 211 88 150 182 94 119 201 195 140 125 100 82 167 180 186
93 94 82 77 78 114 125 132 134 134 139 142 144 147 142 73 69 63 139 164 168 173 173 137 92 63 68 96 187 202 203 205 196 98 105 135 135 225 224 232 233 130 95 162 86 179 241 242 213 139 204 130 85 156 240 241 235 148 168 145 84 110 218 228 225 190 109 146 159 87 194 207 199 101 80 97 125 181 184 189
94 94 87 77 77 97 126 130 133 136 141 141 144 143 81 98 63 85 70 115 169 173 174 92 96 127 160 61 133 203 206 200 87 93 130 178 67 210 231 235 217 133 163 128 128 80 243 250 241 102 86 186 145 128 240 244 241 126 131 133 102 92 229 232 221 101 81 136 187 116 210 209 194 115 107 68 94 188 183 192
91 95 94 79 77 84 124 131 134 135 136 142 145 108 103 80 127 135 127 62 114 176 179 162 119 96 78 67 81 204 206 212 126 193 166 76 87 95 232 236 111 144 234 232 76 215 252 251 251 110 97 174 131 109 246 249 242 110 106 128 136 130 234 233 221 103 85 102 146 200 215 212 189 90 85 73 138 190 189 196
93 94 95 82 75 77 120 129 132 137 139 142 142 147 111 62 133 114 90 83 165 176 180 180 84 115 181 104 110 178 212 211 214 76 75 70 89 209 238 243 233 141 154 232 128 251 255 255 254 101 73 109 196 246 253 252 248 178 184 194 205 227 241 238 238 227 224 207 174 222 218 218 209 205 200 200 198 196 192 195
92 94 95 88 75 76 111 127 131 136 140 143 143 148 151 139 82 119 77 159 174 176 182 183 159 65 88 141 193 207 212 215 221 200 75 169 233 241 244 247 245 247 242 135 244 255 255 255 255 250 254 255 255 255 255 255 255 253 254 250 253 246 244 243 239 238 234 229 227 226 220 219 215 212 204 203 202 196 195 198
89 92 94 93 78 76 91 125 131 134 139 142 144 148 152 156 153 106 149 168 173 178 181 186 188 187 194 200 201 210 213 216 223 220 225 232 235 242 246 251 253 255 254 255 255 255 255 255 255 255 255 255 255 255 255 255 255 255 255 252 254 250 247 246 243 237 223 233 230 227 224 220 211 210 213 208 204 200 197 198
88 90 93 96 82 76 80 123 129 134 138 140 143 147 151 155 158 164 162 169 173 176 179 186 188 192 199 202 204 212 215 222 225 227 231 238 241 243 248 252 254 255 255 250 255 255 255 255 255 254 236 255 255 255 255 255 255 254 241 179 228 253 254 252 245 192 79 183 234 233 229 218 109 105 118 181 209 204 197 204
88 91 92 94 90 75 75 116 130 132 136 139 145 146 150 153 159 162 160 164 173 177 180 185 190 190 150 195 206 211 215 221 225 221 220 220 216 239 254 255 255 251 168 85 231 255 255 255 255 114 123 107 244 255 255 253 144 108 110 132 196 252 249 245 164 90 91 78 213 233 225 182 110 157 94 165 208 206 204 204
88 90 91 94 93 78 74 101 130 132 138 140 144 146 152 154 153 128 72 81 166 175 181 187 190 146 145 66 127 202 218 225 220 81 149 156 161 189 253 255 211 101 241 105 102 255 255 255 207 128 223 75 144 231 255 255 103 104 187 142 170 255 252 139 171 135 102 169 118 231 223 120 85 127 100 211 210 207 203 206
88 89 89 93 92 82 73 85 126 131 133 136 141 144 147 141 84 108 136 99 94 173 180 183 185 79 133 70 152 109 204 224 226 87 85 97 111 182 255 255 184 88 124 229 85 194 255 255 157 153 112 102 144 255 255 255 137 234 87 74 139 255 255 224 88 106 159 141 234 235 201 104 160 139 175 213 214 208 198 202
86 91 90 91 93 89 76 77 120 129 133 135 139 140 146 125 81 103 109 147 133 109 175 181 144 113 123 181 98 101 215 225 226 95 107 202 170 179 255 255 255 108 167 185 127 252 255 255 218 103 89 126 255 255 255 255 131 88 122 196 247 255 255 254 217 80 183 241 237 241 234 227 212 177 216 216 212 206 200 196
88 89 88 92 91 93 77 74 107 127 129 133 137 143 144 147 124 115 104 98 79 110 176 183 176 124 90 138 130 201 219 227 229 120 107 110 131 200 255 255 255 248 124 236 255 255 255 255 255 255 218 248 255 255 255 255 255 255 255 255 255 255 255 254 253 242 243 245 240 237 233 232 225 222 221 216 213 209 202 178
85 86 89 91 90 91 84 74 91 122 127 130 135 140 144 144 150 118 106 84 155 173 176 181 186 191 189 167 128 210 221 225 234 236 241 245 249 255 255 255 255 255 255 255 255 255 255 255 255 255 255 255 255 255 255 255 255 255 255 255 255 255 255 252 249 249 245 243 241 238 237 227 190 222 219 216 211 208 201 162
86 85 87 88 89 92 89 74 76 118 125 129 131 139 143 143 150 153 144 162 166 174 177 182 184 192 198 201 205 210 224 228 234 235 242 247 252 255 255 255 255 255 253 255 255 255 255 255 255 255 254 238 255 255 255 255 255 236 177 253 255 255 254 243 137 114 237 241 236 229 187 89 133 213 219 216 211 209 192 163
83 84 87 87 87 89 89 78 73 111 122 123 130 134 139 142 147 152 154 158 162 169 172 179 182 190 194 197 163 206 211 227 233 237 238 163 140 254 255 255 255 227 98 143 251 255 255 254 166 96 191 126 255 255 255 128 177 160 77 225 255 255 226 141 195 131 114 233 229 103 121 122 139 185 217 211 211 204 171 160
82 83 86 88 85 87 88 85 73 96 116 123 125 130 133 136 143 146 145 144 144 143 163 174 180 185 170 86 85 140 213 222 230 191 120 119 200 215 255 255 255 113 170 159 157 213 255 255 97 154 169 90 255 255 255 136 148 187 181 189 255 241 87 116 138 199 99 222 222 140 145 190 163 168 211 209 205 199 154 156
80 82 83 84 86 87 87 86 76 78 115 119 122 127 130 135 137 110 66 68 80 60 146 173 175 108 95 136 92 77 177 219 221 113 159 175 158 85 252 255 173 220 233 240 122 255 255 255 91 218 236 124 238 255 255 160 179 184 135 163 250 246 218 93 90 125 218 219 219 197 77 134 200 209 202 202 201 188 150 152
77 80 82 83 84 87 85 86 79 74 106 115 119 122 126 129 131 119 103 70 85 76 128 166 171 158 91 126 183 112 103 213 221 215 123 97 141 175 255 255 255 199 125 113 247 255 255 255 158 150 200 245 255 255 255 224 164 215 244 244 245 238 232 208 155 218 217 215 210 207 193 202 201 200 194 199 190 169 142 143
78 79 80 83 83 85 83 85 84 72 94 111 113 117 121 124 128 126 82 66 92 95 104 160 164 171 147 127 102 150 200 211 217 225 193 127 235 255 255 255 255 255 255 234 255 255 255 255 255 255 255 255 255 255 255 255 255 255 251 243 241 233 227 221 217 213 209 206 202 197 198 193 194 192 191 184 180 145 139 139
77 79 79 80 84 83 84 84 85 74 81 106 109 110 117 120 123 125 83 89 101 113 135 154 160 165 168 144 174 186 198 202 210 217 227 238 251 254 255 255 255 255 255 255 255 255 255 253 252 251 252 251 253 254 253 247 244 243 240 232 228 219 171 182 197 200 196 193 179 140 95 127 181 180 178 175 168 137 133 134
75 77 78 80 81 83 84 83 86 79 73 100 106 107 110 113 119 120 123 127 133 139 144 150 155 160 163 168 174 180 190 195 205 209 218 225 234 246 255 255 255 201 191 222 244 255 250 238 146 137 147 153 238 238 221 128 123 132 140 223 215 201 144 151 131 107 187 176 73 140 103 122 172 168 164 165 145 130 124 132
75 77 78 78 81 80 82 84 83 83 71 93 102 103 108 111 114 118 117 123 122 125 136 141 144 151 155 128 106 149 175 186 194 195 89 118 84 103 251 255 255 142 151 137 131 237 236 218 169 189 162 138 224 228 201 137 201 149 162 215 208 145 165 88 112 163 174 166 82 107 138 118 161 156 155 151 131 125 121 120
74 75 77 77 78 79 82 82 82 82 75 82 96 100 102 106 110 108 113 113 59 73 111 129 139 142 145 73 98 114 82 154 182 184 97 149 76 108 240 249 249 200 137 160 132 232 227 204 98 85 121 133 209 213 181 150 177 163 188 207 202 107 127 133 103 169 166 159 79 112 145 152 149 149 142 140 120 118 114 116
73 74 76 75 77 77 79 80 83 82 79 74 91 97 98 101 103 106 108 69 76 65 74 88 128 135 97 89 106 81 67 160 174 177 102 118 120 115 230 238 234 179 136 139 181 220 213 201 125 121 120 153 193 200 191 173 185 194 200 198 194 183 175 162 159 160 154 152 149 149 145 139 138 135 130 122 110 110 104 112
72 72 74 74 77 78 80 78 80 79 80 72 88 92 96 97 101 101 85 73 64 88 78 88 125 127 105 92 101 82 127 156 166 166 120 139 158 182 216 228 236 235 226 210 210 208 202 193 188 185 181 181 183 183 182 186 183 187 190 183 180 170 167 158 153 148 143 140 138 134 134 129 125 122 119 108 107 106 104 110
71 70 73 73 75 76 78 76 79 80 80 75 81 87 91 93 96 99 101 97 73 67 83 115 120 123 126 128 123 106 143 148 153 158 165 173 182 191 207 216 223 221 216 210 202 195 184 180 177 170 167 166 164 162 163 168 169 168 169 169 166 159 152 144 139 133 130 126 125 122 118 117 115 111 108 104 104 101 99 106
69 72 71 73 73 75 76 78 79 81 77 78 74 86 87 89 93 97 97 99 101 95 108 113 115 118 122 124 125 129 135 141 145 148 155 162 171 180 191 200 204 205 198 195 186 177 168 162 157 154 150 151 148 148 145 149 148 153 153 152 149 141 138 133 130 124 121 119 114 111 113 112 108 107 105 103 102 98 97 102
69 70 72 72 73 73 75 77 76 77 76 77 72 84 86 86 89 90 93 95 98 100 103 105 107 110 114 114 119 124 125 128 131 136 142 147 150 160 167 176 184 185 182 174 167 158 152 148 144 140 139 137 135 134 131 134 130 130 127 126 123 121 119 116 118 116 114 113 112 110 108 106 106 105 102 98 98 96 94 99
67 69 70 71 72 74 74 75 76 76 77 77 73 79 83 84 86 89 90 91 94 95 99 102 102 105 106 108 110 112 114 118 122 126 125 131 134 140 144 145 148 144 141 136 135 133 133 131 131 128 127 127 127 125 122 123 122 122 120 118 120 118 117 114 113 112 111 111 109 107 108 104 104 101 99 99 95 93 90 95
67 69 69 71 70 71 73 73 73 75 76 77 77 74 79 81 84 84 86 86 90 91 93 94 98 101 102 103 101 102 106 109 110 113 116 118 122 121 125 124 128 128 130 130 128 132 130 129 129 126 124 124 122 120 122 120 118 119 119 117 117 116 112 114 111 111 109 108 106 106 104 103 102 101 97 97 93 91 89 91
65 66 68 68 68 70 71 71 74 74 75 76 74 76 78 79 79 81 81 84 84 86 89 93 96 96 97 97 101 103 117 108 107 109 115 116 118 121 121 123 125 127 129 126 129 127 127 124 124 123 121 121 120 118 119 116 115 114 114 115 115 111 112 110 110 107 107 105 105 104 104 102 100 99 96 94 92 89 86 90
63 66 65 67 67 70 69 70 72 72 74 75 75 76 76 77 80 78 81 83 84 87 89 93 97 97 98 101 99 101 103 102 106 106 109 113 115 116 118 119 121 122 123 122 123 126 124 122 123 121 118 116 116 117 116 115 112 113 114 112 107 111 110 108 109 108 107 107 105 102 102 102 100 96 94 91 90 87 84 90
64 65 66 65 66 68 70 69 69 71 71 71 72 75 75 76 77 79 80 83 85 88 91 93 94 95 97 98 96 97 99 100 101 104 106 108 112 114 118 116 120 120 122 121 122 124 123 122 121 119 119 116 117 115 113 111 110 110 110 109 108 108 110 106 108 107 107 104 102 103 100 99 99 95 94 91 89 87 83 86
62 63 64 64 64 65 66 68 68 71 71 72 73 72 74 74 77 78 79 83 84 86 87 91 91 93 94 98 97 96 95 98 102 102 105 109 109 111 115 115 120 121 121 122 123 122 123 123 123 118 118 115 114 112 109 111 108 110 109 107 108 105 107 104 106 105 104 105 103 102 101 98 98 95 92 90 87 84 81 88
62 61 63 64 65 65 66 67 67 68 71 69 71 71 72 73 74 77 78 81 82 85 86 87 87 91 91 93 94 95 93 95 100 101 104 107 107 111 113 115 119 119 119 121 121 121 120 118 117 118 114 112 113 109 108 107 107 108 106 106 106 105 105 104 105 105 104 103 102 100 99 95 94 91 88 85 84 78 78 83
61 62 61 63 64 64 64 65 65 67 67 70 70 70 72 73 71 74 76 78 82 82 84 86 85 89 89 92 90 92 92 94 95 99 103 103 105 109 111 115 115 117 118 118 118 121 119 118 118 116 115 114 111 108 109 105 106 106 106 106 104 105 104 105 103 102 101 98 98 96 93 92 89 86 84 81 80 78 76 81
61 60 62 63 62 63 64 63 65 66 67 68 69 67 70 71 72 72 75 79 79 80 81 83 85 86 87 90 88 89 90 93 95 96 100 102 105 108 109 111 113 116 118 118 119 123 122 120 120 119 115 112 110 108 106 106 105 106 104 104 102 102 102 100 99 97 96 94 94 90 88 87 83 82 80 78 75 76 74 82
58 61 62 62 63 60 64 63 64 67 66 68 68 68 69 70 72 73 74 77 78 80 81 81 82 85 87 87 87 87 89 91 93 95 100 102 104 106 111 112 116 117 117 118 117 123 122 121 115 114 110 109 107 103 105 103 103 101 102 101 99 99 97 96 95 92 92 90 88 86 85 83 80 79 77 78 74 74 74 79
58 60 60 62 62 63 63 64 64 64 65 67 67 67 68 69 70 72 74 77 78 79 80 81 82 84 87 85 85 86 88 89 92 96 96 101 100 106 106 105 106 109 110 111 112 115 117 117 112 108 105 104 102 101 100 99 98 97 97 96 94 96 93 91 90 90 86 86 84 81 81 79 78 76 75 73 74 71 69 76
59 60 59 59 61 61 62 63 63 64 66 64 65 66 68 69 70 71 70 75 75 77 79 79 81 84 83 83 83 86 88 89 89 91 93 96 97 97 99 102 103 102 104 105 107 116 122 115 108 104 101 99 99 97 97 95 95 91 91 93 92 90 87 88 86 86 84 83 80 82 77 77 77 75 71 70 69 68 66 76
58 58 59 58 60 59 60 61 62 64 64 63 65 63 66 68 67 70 71 74 74 76 77 78 81 81 80 80 80 81 83 82 87 89 91 90 91 92 94 97 95 96 99 100 102 106 109 105 104 100 97 94 93 95 94 92 89 90 88 88 86 87 86 84 84 82 81 80 80 78 76 75 73 70 69 68 66 68 67 77
58 59 59 59 59 60 60 61 62 62 61 63 63 64 64 64 66 66 69 72 73 74 76 78 78 76 77 78 78 80 81 80 82 84 84 86 88 88 90 92 91 93 94 97 100 103 104 104 98 95 94 92 92 92 91 91 88 87 87 85 84 82 83 82 82 81 79 79 77 73 71 69 69 69 70 69 68 68 67 77
57 58 58 59 59 60 59 61 61 61 60 61 62 63 64 64 64 65 66 68 69 71 73 74 75 74 74 75 75 77 76 77 79 79 82 82 84 85 84 86 88 88 93 96 101 102 104 106 101 96 93 90 89 89 87 85 85 84 84 82 81 82 80 78 77 75 71 71 72 72 70 71 72 72 71 70 71 68 69 76
56 56 58 59 58 59 60 60 59 60 60 60 61 61 61 63 64 64 63 67 68 69 70 69 68 72 72 72 73 74 74 76 76 75 78 79 80 82 84 84 85 87 89 97 100 109 108 105 102 93 89 89 86 85 83 85 82 82 78 78 76 73 72 72 73 72 72 71 73 71 72 72 72 71 72 72 70 73 70 76
54 54 56 56 58 57 58 58 59 59 59 59 60 62 61 63 62 63 64 65 65 66 66 67 68 67 69 69 70 71 72 70 74 75 75 77 78 75 80 82 82 83 87 91 97 118 128 124 97 88 87 83 83 78 76 74 74 71 73 72 72 72 73 73 72 73 73 71 74 74 76 73 72 74 72 74 72 72 71 79
