P2
80 80
255
108 100 104 101 104 110 109 112 114 117 116 118 119 121 121 123 125 126 128 128 129 133 134 137 137 139 144 145 144 144 150 149 150 150 152 152 154 158 160 161 160 161 163 163 164 167 162 166 165 164 162 161 163 162 160 161 160 162 164 159 158 156 155 152 150 148 148 148 146 142 141 140 139 140 134 135 132 132 128 138
100 101 103 105 105 109 111 114 113 118 117 118 120 122 123 124 126 127 129 128 131 135 133 138 140 142 144 146 148 149 152 153 153 154 153 154 159 157 163 160 160 163 165 167 165 167 167 168 169 169 166 166 164 165 164 163 161 162 163 163 161 162 157 158 155 155 155 153 148 148 145 144 143 140 140 137 136 131 130 138
100 102 103 107 107 107 109 110 114 115 114 120 118 122 125 127 128 130 127 134 136 136 138 140 143 142 142 143 143 146 147 145 151 152 154 153 155 158 162 162 160 167 167 167 169 167 169 171 169 165 168 167 168 161 163 164 164 163 161 164 162 160 161 158 157 154 155 150 152 152 149 147 144 141 142 139 139 136 135 141
103 102 104 105 107 111 113 114 114 117 116 119 121 124 126 128 128 129 130 130 132 134 134 136 140 142 146 148 149 150 149 152 151 153 155 155 154 159 163 164 162 163 164 168 170 170 173 170 168 169 170 165 162 163 165 167 167 168 164 165 163 161 159 160 158 156 154 151 153 153 150 150 149 145 144 143 140 140 136 144
101 103 103 105 107 111 112 111 115 116 118 119 123 121 124 126 126 129 133 134 133 139 138 141 143 143 145 148 150 155 153 153 157 156 153 154 152 154 152 154 148 144 143 141 141 141 140 137 139 137 136 135 138 141 139 139 139 142 144 142 147 145 150 150 155 154 154 152 154 151 151 150 150 145 148 146 145 145 143 146
102 104 106 107 109 110 110 113 115 117 118 120 122 123 126 129 130 131 134 135 138 142 138 142 137 137 136 132 128 128 129 132 133 140 144 144 145 144 147 149 147 149 152 151 154 153 155 153 151 148 147 147 145 147 148 145 149 148 152 147 147 145 143 140 140 139 136 134 133 134 140 145 147 148 150 147 144 141 143 148
102 101 105 109 109 110 114 114 116 118 118 120 120 124 122 124 125 122 124 122 120 122 125 130 134 137 139 141 140 143 144 143 145 146 147 148 150 148 151 150 150 154 154 155 157 153 151 153 150 151 147 145 148 148 147 151 150 151 150 152 148 146 144 142 146 142 143 142 140 141 139 134 133 131 130 132 142 143 142 149
102 103 104 106 108 111 110 113 114 116 117 118 114 112 108 113 117 127 127 131 132 136 136 138 139 141 142 145 144 145 145 145 146 147 149 151 147 151 150 154 153 151 155 157 156 159 155 153 154 151 149 148 149 148 153 151 151 152 152 151 149 147 144 142 141 142 144 142 139 141 139 139 136 137 136 136 134 130 124 134
98 100 102 107 108 109 110 111 105 105 108 116 120 123 125 125 129 131 132 134 134 136 139 139 139 144 142 143 145 148 146 147 148 151 149 153 152 151 153 154 154 158 157 156 159 162 157 156 156 152 149 148 149 151 151 153 154 152 152 150 147 146 146 144 143 144 143 144 144 142 143 141 140 137 138 137 136 135 131 138
96 99 102 104 99 99 103 112 115 116 119 123 122 125 127 129 131 133 133 136 138 141 139 138 144 142 143 146 147 149 149 150 153 153 153 155 156 155 157 158 157 158 157 160 161 159 160 160 157 155 153 149 148 150 153 154 151 154 150 150 150 147 148 145 144 144 145 145 146 147 142 142 139 141 138 138 136 133 133 140
93 90 90 106 108 110 113 116 117 117 120 120 126 127 130 129 131 134 136 136 138 139 141 143 142 143 146 149 146 150 152 152 154 155 153 157 157 157 162 160 162 162 161 164 165 161 162 161 158 157 156 156 154 156 156 157 155 154 155 153 151 148 146 145 148 146 145 144 147 147 147 147 145 142 140 138 137 136 133 140
85 78 80 108 110 114 113 116 119 120 124 125 127 128 130 129 131 135 137 138 142 141 143 143 147 145 147 150 150 151 154 154 156 156 156 160 159 163 163 162 161 162 162 167 164 164 163 163 161 161 160 158 156 157 159 160 158 159 157 154 154 150 151 148 148 148 150 150 151 150 150 148 144 145 143 140 139 138 134 142
79 69 75 107 110 113 114 115 120 121 124 124 128 130 130 135 134 138 137 139 141 143 145 145 146 149 148 153 152 156 153 158 157 156 157 161 162 164 164 164 162 163 161 167 167 167 169 163 166 165 163 160 123 111 160 158 161 157 157 155 131 132 146 146 149 150 150 152 151 151 148 148 144 144 142 140 140 139 138 143
72 64 72 108 112 113 114 117 120 122 124 125 126 130 130 134 135 138 139 141 140 141 143 148 147 148 152 150 153 156 155 156 151 133 160 161 162 166 163 151 88 128 157 165 169 172 169 169 168 165 156 81 91 69 158 164 162 158 160 155 75 70 73 92 128 147 153 155 151 149 140 120 92 85 139 142 140 138 138 144
66 64 70 110 112 114 116 117 121 125 126 127 128 131 131 134 136 140 139 140 100 128 141 145 148 148 152 155 156 155 130 83 73 69 160 165 166 165 169 124 125 71 69 68 95 167 172 172 169 129 63 134 65 56 120 166 162 163 160 149 78 138 81 62 63 99 153 155 147 70 67 81 55 68 140 145 144 144 137 127
69 70 75 108 111 114 117 118 121 125 124 123 121 113 105 134 136 141 141 138 84 97 75 69 93 145 152 154 123 70 72 135 69 93 153 166 169 169 167 90 143 107 100 56 61 168 174 174 101 59 75 155 88 62 69 160 166 165 165 121 62 84 89 112 60 140 157 159 147 74 98 69 83 64 137 144 143 131 71 87
78 75 75 105 113 115 117 122 121 124 91 75 62 98 94 115 138 141 142 131 91 138 114 76 84 141 156 157 148 89 69 65 111 136 115 168 167 169 167 73 133 145 96 63 70 175 175 174 145 81 155 75 69 90 82 138 166 164 161 76 66 90 66 122 73 156 162 159 153 78 103 101 98 99 131 149 143 92 113 131
81 78 79 104 114 116 120 121 124 124 106 103 97 125 74 99 138 139 140 124 79 59 62 93 64 147 157 160 158 66 66 57 133 66 72 169 171 171 167 80 123 149 98 58 107 175 179 179 172 76 116 146 102 74 59 113 169 167 157 63 106 136 108 85 98 163 164 161 158 92 90 124 83 60 115 149 145 120 68 121
83 78 78 100 111 117 118 123 123 124 118 60 94 86 73 80 139 143 145 119 113 58 106 103 69 150 157 158 158 108 130 72 153 110 76 165 172 176 160 62 132 100 132 57 152 182 182 180 179 144 111 159 70 68 155 174 173 171 152 94 73 68 111 59 149 167 167 163 161 106 117 57 56 61 117 152 147 139 84 99
87 80 79 95 114 118 121 123 124 127 122 72 72 93 81 69 138 143 143 113 108 96 95 63 62 154 160 162 162 155 84 122 118 59 70 156 175 180 160 84 76 94 61 58 173 185 183 184 186 176 69 66 105 177 180 180 177 176 173 167 167 157 123 87 170 172 170 167 162 127 88 128 150 155 153 151 150 146 95 63
91 81 81 87 114 118 122 122 122 126 128 65 58 84 101 72 136 144 149 146 113 81 68 72 69 156 163 166 166 166 67 67 93 144 167 177 179 182 181 177 173 157 121 89 184 188 184 188 187 189 134 158 182 187 186 186 184 184 179 177 177 179 178 173 178 174 172 171 168 166 164 164 161 160 159 155 152 148 129 108
93 84 80 84 115 120 120 124 126 128 128 101 97 106 116 125 139 145 145 151 153 153 149 141 121 162 162 165 167 171 155 161 171 174 178 181 183 182 184 186 184 186 188 184 188 193 190 189 191 189 188 190 189 188 188 186 184 188 186 184 183 179 181 176 179 174 173 170 172 168 169 167 165 162 161 162 156 155 149 158
92 85 81 83 110 119 123 126 127 130 132 132 134 138 138 142 145 146 149 153 154 156 157 159 161 163 168 169 171 172 173 176 179 181 180 184 188 186 186 191 191 189 190 192 192 191 193 193 192 193 193 194 192 193 192 194 188 188 184 184 185 183 179 178 180 179 175 175 172 171 167 167 165 164 162 164 157 154 154 156
94 89 82 82 107 120 123 125 128 130 131 133 136 139 142 143 149 149 151 150 155 160 160 160 164 163 169 172 173 174 178 177 183 181 184 187 188 190 192 191 193 187 191 196 195 197 198 196 196 196 195 193 194 195 195 197 193 190 192 187 185 130 96 182 182 178 178 177 175 145 79 153 168 166 166 164 158 158 151 116
94 92 83 81 101 118 121 123 128 130 132 136 135 138 142 145 150 149 152 155 155 158 150 161 165 170 172 173 173 181 179 180 181 182 181 190 192 192 192 191 194 193 192 195 198 201 198 200 197 177 165 154 142 131 194 196 196 195 191 165 77 149 85 173 186 184 181 181 171 73 65 76 128 166 167 165 161 152 81 104
92 95 85 81 92 121 121 125 127 130 134 135 138 88 97 140 146 153 156 155 158 160 83 79 154 168 173 175 180 178 174 164 123 78 100 187 193 194 194 120 93 84 81 81 157 202 204 202 169 62 112 126 90 86 193 197 198 187 102 85 172 83 144 127 188 187 185 178 95 79 163 81 94 99 169 165 155 73 69 74
95 95 85 82 85 116 125 126 130 133 133 137 137 66 54 57 108 147 155 156 158 149 89 154 88 93 165 177 178 172 78 87 122 118 64 187 195 194 195 102 185 104 100 166 160 208 206 204 157 145 128 175 180 82 203 202 199 140 121 67 122 61 145 81 186 191 186 146 58 84 161 75 58 126 169 162 75 113 84 133
95 96 92 81 83 116 123 126 129 134 133 136 125 69 85 56 62 69 148 159 158 119 90 96 67 62 62 170 179 181 72 158 158 92 130 176 198 198 202 110 164 183 108 75 167 211 209 207 144 96 88 116 74 85 203 206 204 188 65 91 138 62 117 65 168 193 183 66 66 156 82 99 89 173 172 167 100 138 125 144
94 96 96 84 83 110 124 128 130 131 133 137 102 72 99 118 127 81 148 157 159 82 147 157 87 127 71 176 183 185 127 87 81 182 133 114 198 203 201 115 86 191 145 63 176 214 215 214 133 188 118 76 139 109 210 208 210 207 116 118 171 117 76 171 197 195 188 170 84 62 55 65 168 179 175 174 159 73 131 104
94 96 97 86 82 98 123 128 128 132 136 138 87 78 112 125 128 88 154 161 158 88 99 143 103 78 122 180 186 186 179 111 86 165 73 70 201 205 209 122 143 108 136 143 183 218 217 214 119 151 141 129 69 139 216 215 213 210 185 68 77 151 200 204 201 199 193 188 186 132 64 149 180 180 178 174 171 134 85 133
94 96 97 91 81 85 122 126 130 133 136 136 141 129 74 59 78 127 159 163 164 169 154 78 126 100 165 184 190 188 189 86 129 74 113 180 206 211 210 146 94 101 112 122 204 221 223 222 195 193 202 208 212 219 220 219 216 216 211 150 204 210 208 207 204 203 199 197 194 193 185 187 189 184 180 181 176 169 151 174
94 96 97 95 84 83 120 127 129 132 135 139 140 145 146 131 75 143 157 162 164 168 171 172 153 95 179 189 189 195 193 172 179 201 202 206 210 212 214 215 217 220 221 224 223 229 227 226 227 228 225 230 225 224 225 225 222 217 217 216 216 210 211 207 207 204 205 202 200 197 193 192 189 187 186 182 179 175 172 180
93 94 96 98 83 80 110 125 131 132 136 137 142 146 138 152 155 157 162 163 167 168 174 176 178 182 186 189 192 198 197 200 204 207 209 213 212 216 220 221 224 225 226 230 226 231 231 232 233 229 231 229 227 229 228 227 226 225 223 221 221 218 215 213 212 207 208 202 199 198 198 196 194 190 187 183 180 179 176 183
92 95 97 98 89 79 95 124 128 134 137 139 143 146 148 154 157 160 162 165 168 171 177 179 182 185 186 194 192 201 201 204 208 212 212 216 219 221 226 228 227 222 228 233 230 239 235 233 235 233 230 227 224 235 238 233 232 222 221 218 213 210 218 219 216 216 205 113 99 154 192 195 194 193 192 161 135 135 138 152
91 94 96 98 93 79 85 121 131 133 137 139 143 148 148 149 88 142 163 166 170 173 176 182 178 174 145 191 198 202 204 205 206 159 109 215 225 226 228 230 192 75 187 231 236 240 242 240 227 177 98 103 163 238 238 237 230 88 94 68 112 117 187 222 216 213 194 64 176 168 80 87 194 196 192 107 104 92 68 112
92 94 96 97 96 83 79 119 131 132 137 139 144 147 151 102 87 61 127 165 171 173 159 108 71 63 122 173 197 203 206 191 85 137 131 182 224 232 232 229 89 109 168 89 214 246 245 186 134 206 140 98 120 239 245 239 224 114 119 134 88 119 212 223 222 218 119 82 172 178 92 138 203 199 191 107 100 72 141 143
92 90 93 97 98 87 80 106 128 133 139 138 144 146 127 95 72 73 75 104 168 176 168 75 103 167 79 92 203 206 195 93 99 141 160 71 224 231 234 184 180 150 120 88 98 243 251 234 93 100 183 121 96 242 243 244 219 145 110 160 76 82 224 231 227 204 73 104 141 187 114 198 205 200 182 92 84 99 104 169
92 93 92 96 98 95 80 92 127 135 136 141 145 146 94 94 108 115 127 64 136 177 176 114 145 80 72 109 194 207 210 132 189 157 73 84 126 234 233 94 139 235 226 76 229 252 253 250 111 94 205 143 103 240 250 250 202 108 127 153 176 116 234 229 226 140 76 94 121 131 139 209 206 204 159 123 113 60 76 185
93 94 93 96 95 97 83 81 122 131 135 139 142 145 148 112 95 100 107 105 171 179 180 170 70 175 156 102 136 212 211 213 80 82 70 103 221 235 239 230 118 185 224 147 250 255 255 252 100 69 74 130 214 253 255 253 188 108 113 120 127 174 240 239 237 225 220 190 129 95 205 215 212 207 190 173 171 170 175 195
89 93 92 93 96 97 89 79 115 130 137 140 143 145 151 153 138 91 89 165 177 176 184 185 107 103 163 195 208 211 218 219 208 75 193 233 237 241 247 244 247 226 117 248 255 255 255 255 226 249 255 255 255 255 255 255 255 254 248 251 250 247 245 240 238 237 232 231 226 223 221 220 215 209 207 205 204 199 195 198
89 90 90 92 94 97 92 78 95 127 133 139 141 145 149 153 155 155 156 168 174 177 186 186 192 195 198 203 209 213 216 221 227 226 233 235 242 244 251 252 254 255 254 255 255 255 255 255 255 255 255 255 255 255 255 255 255 254 253 250 248 247 248 246 242 241 237 230 226 223 223 219 217 213 208 207 202 199 195 200
87 87 90 91 94 96 97 81 85 125 135 137 139 147 149 154 158 162 166 168 173 179 182 188 188 193 196 204 207 215 218 225 225 226 235 237 245 248 252 253 255 254 251 255 255 255 255 255 255 250 255 255 255 255 255 255 255 255 255 247 251 254 252 249 247 241 223 135 227 228 228 226 216 214 179 197 204 203 199 206
86 86 89 92 94 96 96 87 79 119 130 137 140 145 149 151 158 158 134 110 170 178 185 187 190 129 126 199 212 215 221 226 200 196 193 198 228 249 255 255 249 171 86 238 255 255 255 255 196 139 134 251 255 255 255 255 222 151 106 83 188 255 253 252 245 209 112 110 111 228 228 226 221 191 133 140 85 118 195 206
84 85 87 91 90 94 95 91 78 103 131 136 138 142 147 152 146 89 95 112 125 174 181 185 183 92 124 66 125 207 223 224 95 147 141 152 177 254 255 204 99 239 101 111 255 255 255 252 94 196 88 90 161 255 255 196 179 165 172 127 158 255 255 250 185 151 98 68 91 129 228 227 219 121 134 145 111 109 202 211
83 86 87 91 92 93 94 95 82 88 123 134 135 139 143 147 90 100 122 117 91 142 179 185 135 117 116 126 115 171 219 227 117 117 127 130 163 253 255 195 88 117 221 86 195 255 255 125 183 223 111 75 222 255 255 233 172 170 119 157 125 255 255 223 106 107 135 139 123 120 221 228 192 140 78 125 104 180 202 207
80 83 85 89 90 92 92 95 87 79 117 127 134 139 143 144 142 104 141 110 109 91 174 182 112 89 127 145 87 211 223 225 143 101 150 140 152 255 255 255 117 164 208 122 229 255 255 188 108 152 194 168 255 255 255 255 130 152 71 73 111 255 255 255 209 104 100 165 146 228 232 228 132 93 156 148 133 207 207 210
80 84 86 88 91 91 92 92 92 77 106 125 131 136 141 144 149 142 105 100 114 171 177 185 186 181 125 119 165 218 223 226 200 161 168 174 206 254 255 255 252 125 214 255 255 255 255 255 255 167 110 255 255 255 255 255 143 173 232 253 255 255 255 254 251 202 87 192 238 237 230 232 225 214 195 148 192 208 202 213
80 82 82 86 88 91 89 93 93 82 91 122 131 134 138 141 146 150 143 154 164 172 177 184 189 194 197 201 211 219 222 227 233 238 244 249 253 255 255 255 255 255 255 255 255 255 255 255 255 255 255 255 255 255 255 255 255 255 255 255 255 255 255 253 254 252 239 243 239 236 233 230 226 220 219 213 209 205 205 207
79 80 83 85 85 87 92 91 90 87 79 117 126 132 135 136 143 150 154 157 164 169 176 178 187 192 200 202 206 214 220 229 237 237 240 243 252 255 255 255 255 255 255 255 255 255 255 255 255 255 255 255 255 255 255 255 255 255 255 255 255 255 255 255 252 244 242 246 238 238 234 229 228 217 212 215 210 207 205 211
78 80 81 83 85 87 89 89 89 89 78 104 121 125 131 133 143 143 142 141 145 149 164 177 183 187 184 97 113 209 219 222 227 225 121 130 247 255 255 255 249 94 149 252 255 255 255 252 209 145 130 249 255 255 255 251 224 169 113 224 255 255 255 253 226 130 118 236 235 231 228 221 200 125 103 203 207 206 203 209
76 79 81 81 83 85 87 88 86 89 81 92 116 121 127 130 136 137 84 78 92 64 134 170 177 120 76 117 100 146 214 221 153 105 146 203 120 255 255 255 121 197 189 130 162 255 255 117 96 208 145 189 255 255 250 101 208 154 77 171 255 255 252 193 158 187 128 116 227 231 207 120 89 70 100 163 204 204 199 202
75 77 79 80 83 84 85 86 87 86 86 81 110 117 123 126 130 133 101 86 82 75 116 167 171 132 123 154 176 115 188 217 205 149 136 168 98 192 255 216 218 227 187 164 251 255 255 160 159 175 223 124 255 255 255 122 180 182 178 138 255 255 182 76 138 130 169 83 164 224 208 73 142 177 167 120 202 200 198 203
74 76 78 79 78 82 85 87 87 88 88 79 103 112 115 120 126 128 112 75 91 96 92 159 168 171 119 160 96 140 204 209 217 178 124 87 194 253 255 255 235 142 108 185 255 255 255 236 179 182 152 150 255 255 255 139 139 141 119 134 253 252 247 145 116 96 108 188 220 217 208 112 103 103 134 184 195 197 192 196
73 75 77 77 80 81 80 85 85 86 87 80 92 108 112 116 120 122 124 114 118 127 141 155 161 166 165 118 180 193 201 203 214 216 174 231 247 253 255 255 255 255 233 255 255 255 255 255 241 252 255 255 255 255 254 233 200 230 249 250 251 248 245 235 150 112 205 217 215 211 207 178 119 182 197 194 189 187 186 187
74 75 75 77 77 80 81 82 86 85 85 83 82 103 107 111 113 118 120 126 130 135 140 146 155 159 163 171 178 185 192 200 208 215 222 230 244 248 255 255 255 255 255 255 255 255 255 255 255 255 255 254 255 254 253 255 253 254 251 249 247 243 233 230 220 217 216 210 207 207 202 199 197 194 191 190 186 183 179 182
71 72 73 77 78 78 80 81 82 84 85 84 77 95 102 105 109 112 115 120 120 97 128 141 147 151 156 113 133 167 181 190 196 185 178 183 188 236 254 254 247 186 236 255 255 255 255 234 226 223 228 238 243 237 235 234 235 236 239 240 236 233 224 213 215 210 204 203 199 194 192 185 177 177 181 180 177 174 168 170
71 71 73 74 77 77 80 82 81 82 83 84 78 88 99 101 105 107 111 111 63 73 87 120 137 143 139 86 94 108 122 177 186 116 118 76 109 211 240 252 178 188 153 162 202 255 252 139 143 115 171 182 228 227 196 111 112 132 120 225 228 226 200 141 116 113 152 191 186 159 115 110 92 122 172 172 168 166 160 156
70 73 73 75 75 77 78 79 80 80 83 82 81 83 93 98 101 103 104 73 86 62 77 84 123 134 86 83 112 81 91 168 173 125 115 92 115 196 229 239 148 145 175 194 239 251 239 126 110 177 132 176 212 211 177 109 184 131 130 216 218 213 140 184 115 134 119 182 181 127 104 126 117 117 167 162 159 157 155 140
70 71 71 72 74 75 77 78 80 80 81 83 81 77 89 92 97 98 100 98 73 74 81 98 124 127 114 97 88 77 148 159 166 133 76 123 108 179 220 229 170 154 186 169 240 238 225 124 148 75 96 171 201 200 156 120 138 162 141 211 211 192 116 149 114 92 165 175 170 130 91 102 129 114 154 153 147 146 140 130
69 69 71 72 73 74 75 77 77 80 81 80 81 77 86 89 92 95 97 100 102 84 93 111 118 122 126 127 122 115 141 149 156 158 162 168 178 189 208 216 224 234 232 220 234 225 214 195 182 174 170 178 189 184 174 149 155 159 170 197 205 197 184 149 114 121 167 168 162 138 95 126 142 148 146 141 138 136 126 123
69 69 69 70 72 74 75 74 76 76 78 79 80 78 79 88 90 91 94 96 98 101 103 107 111 117 121 123 127 131 137 139 146 152 160 164 171 179 193 203 214 222 227 228 218 209 200 193 187 179 176 173 173 172 170 173 178 179 182 187 190 187 187 179 174 167 162 156 154 149 145 144 140 139 136 133 130 126 114 118
67 69 69 69 70 72 72 75 75 77 76 78 79 78 77 83 87 87 88 91 94 96 98 102 107 108 112 117 118 120 128 130 134 139 143 150 157 163 174 185 193 206 210 208 205 193 186 174 171 165 162 157 157 156 153 157 158 159 166 166 169 171 169 165 161 155 147 144 141 137 136 131 130 127 124 121 120 114 105 112
66 66 67 68 68 69 71 73 73 73 74 77 78 79 78 81 83 85 87 87 89 91 95 96 101 102 104 106 111 114 114 120 121 127 130 136 140 147 156 163 175 180 187 187 182 173 164 159 151 146 145 145 142 139 141 140 144 145 148 151 154 155 156 151 146 140 138 133 129 126 122 119 119 116 114 112 108 105 102 108
65 66 66 67 68 69 69 72 73 73 73 76 75 77 79 78 78 81 80 84 86 87 89 92 93 95 99 101 102 105 108 111 115 116 119 119 122 128 132 136 138 141 146 142 145 142 142 139 138 134 134 132 132 129 130 130 131 133 134 137 137 141 141 137 135 130 123 122 118 116 113 110 109 107 104 104 104 102 98 105
63 64 65 66 66 67 67 70 70 72 72 74 75 75 76 78 78 80 82 83 85 86 89 92 93 96 98 100 99 102 105 108 109 112 114 118 121 123 126 125 128 130 131 132 132 130 131 130 126 128 125 125 123 119 121 120 120 120 119 118 118 118 116 115 113 112 111 111 108 109 107 108 106 103 102 102 100 98 95 103
61 63 63 64 65 65 66 68 68 71 70 72 72 73 74 77 77 80 80 82 82 84 87 91 93 97 98 95 98 102 116 106 109 109 114 116 118 121 121 123 125 124 128 129 129 130 128 124 125 125 123 121 122 119 122 118 116 115 118 115 116 114 114 112 112 110 110 109 108 107 107 105 103 101 101 100 98 95 94 100
61 61 62 62 64 65 65 66 68 67 69 70 71 72 73 76 76 77 80 79 82 83 89 91 93 94 99 98 97 98 99 100 103 107 110 113 116 117 118 120 123 123 123 124 125 125 124 123 122 120 120 118 118 119 118 117 115 115 115 114 113 113 112 110 110 110 106 107 109 105 105 105 102 99 101 99 97 93 91 97
60 62 61 63 63 64 65 64 66 66 68 67 70 71 72 74 75 76 76 79 82 84 86 90 91 94 97 96 94 97 98 100 101 102 108 111 111 115 116 118 121 122 125 125 125 124 120 120 122 119 118 116 117 115 112 112 112 112 111 112 111 111 107 108 110 107 106 106 103 104 103 100 101 99 98 97 93 91 91 93
59 60 61 61 61 64 64 64 66 66 67 68 68 70 70 72 72 74 76 79 82 83 85 88 90 90 95 94 93 93 95 97 99 103 107 108 112 114 116 118 122 126 125 129 125 124 122 121 119 118 118 116 113 112 111 111 110 110 110 110 107 108 107 107 107 107 107 103 104 103 101 101 98 98 98 96 92 90 87 92
59 60 61 62 62 63 63 64 65 66 67 67 68 70 68 71 72 74 75 79 81 84 85 84 86 89 90 92 92 92 94 95 98 101 104 105 109 112 114 117 119 120 124 123 121 124 120 119 118 115 116 113 113 112 110 109 108 107 108 107 108 108 106 106 105 107 105 104 103 102 100 99 99 99 96 93 90 88 87 93
58 58 58 60 62 62 62 63 63 65 65 66 67 68 68 70 70 73 74 78 79 81 83 83 85 87 89 90 90 90 93 94 97 99 101 105 106 109 111 113 118 118 120 123 122 121 119 117 115 114 114 113 112 106 105 104 107 107 106 106 103 104 103 103 103 104 102 101 102 100 99 99 97 95 95 94 92 91 86 91
59 59 60 60 62 62 62 62 64 64 64 67 66 66 68 68 69 71 74 77 78 79 80 81 84 84 86 90 88 88 92 92 96 100 101 105 108 108 112 115 118 119 123 126 125 122 119 117 116 114 112 110 108 108 107 105 104 105 106 105 104 103 104 102 103 103 102 102 100 99 100 98 97 95 95 92 88 86 86 88
58 59 59 59 60 58 61 61 62 63 63 65 64 65 67 65 68 71 74 77 78 79 77 80 82 83 86 85 86 87 88 92 94 95 100 103 105 108 110 114 118 121 128 134 134 124 119 116 116 115 114 110 107 106 107 104 103 104 102 103 102 103 102 102 101 100 103 101 99 99 97 94 93 91 89 87 85 84 81 87
57 59 59 59 60 61 60 61 62 62 63 64 63 64 66 67 67 70 73 76 75 76 80 81 81 84 85 82 83 85 86 88 90 94 95 97 101 103 103 107 108 113 124 126 125 118 113 112 110 110 107 107 105 106 102 103 102 102 104 100 100 101 101 98 97 96 96 95 92 94 93 90 88 86 84 85 82 80 79 85
57 56 57 57 60 60 60 61 62 62 64 63 63 64 65 65 66 68 68 74 75 76 75 79 80 82 81 81 80 83 84 84 89 90 91 94 97 98 98 102 106 107 127 136 129 110 106 106 107 104 103 102 101 101 100 98 99 98 96 99 97 95 96 95 93 93 92 91 90 89 85 86 83 83 81 79 79 77 76 83
54 54 55 56 58 56 59 60 61 61 61 61 62 62 63 64 65 66 68 73 74 75 77 77 79 78 78 78 78 81 81 80 84 85 88 90 91 90 95 95 98 99 110 109 109 105 104 101 101 99 96 96 96 96 95 96 94 94 92 94 94 93 92 90 88 88 88 88 83 83 83 83 80 78 78 76 76 75 73 81
56 55 55 55 55 56 57 57 59 60 61 61 62 62 62 61 64 64 66 70 72 73 75 76 76 73 75 74 76 76 78 77 79 82 83 85 86 87 90 92 95 96 104 103 104 101 100 96 96 96 92 92 92 92 92 93 90 90 90 91 88 87 87 86 85 85 83 82 82 81 79 78 78 77 75 74 73 72 72 79
56 56 56 56 56 57 56 57 58 57 57 57 58 61 61 62 63 62 65 66 69 71 71 72 72 72 72 73 73 73 76 75 76 78 78 81 83 86 86 89 93 96 108 107 105 96 96 95 93 89 90 88 90 88 86 87 89 86 86 85 86 84 83 82 83 82 80 79 79 80 78 77 77 75 72 73 71 71 69 74
56 55 57 56 57 57 58 58 56 57 58 57 59 58 58 59 59 61 60 65 64 66 67 66 68 69 70 70 71 72 72 75 74 74 78 79 80 82 85 89 91 95 98 104 105 97 91 93 90 88 86 86 84 86 85 84 84 83 79 84 82 80 81 81 78 81 80 77 77 78 77 76 74 72 70 68 66 66 66 74
55 56 56 57 57 57 57 56 57 57 56 56 58 59 58 57 59 59 59 60 61 62 62 63 64 66 67 67 67 69 71 69 71 75 75 76 81 79 82 87 89 90 124 129 128 100 93 90 88 85 84 83 83 83 81 82 80 80 80 79 78 78 77 77 78 76 76 76 75 70 70 69 68 68 67 67 68 66 66 73
