P2
80 80
255
107 101 101 101 102 106 107 110 112 113 117 117 115 119 120 123 123 125 129 131 131 132 133 133 137 139 143 142 147 145 149 147 151 151 148 152 154 156 158 158 161 162 162 164 163 165 162 165 162 163 165 162 162 161 160 158 160 162 159 159 160 158 155 154 153 152 150 149 146 145 143 144 141 142 137 136 134 133 129 134
97 103 103 103 104 108 109 112 115 114 119 120 120 120 119 127 126 130 130 128 132 131 133 139 140 143 141 145 147 148 146 151 152 155 152 155 156 157 159 160 158 164 164 167 163 168 164 168 164 167 164 164 162 162 162 163 162 161 161 160 159 159 157 157 153 154 153 153 148 149 147 146 142 142 140 138 134 132 130 138
100 100 104 105 106 108 111 114 114 114 115 118 120 119 126 127 127 129 129 131 131 133 136 139 141 145 144 145 144 144 147 146 149 150 153 153 154 156 159 159 162 164 166 169 169 168 168 170 168 169 165 168 165 161 165 166 166 166 160 163 161 160 162 156 159 158 154 154 152 150 148 147 147 145 144 141 138 137 135 141
102 103 101 105 106 111 110 110 114 116 117 118 119 124 125 126 127 130 131 131 134 134 134 134 137 140 144 147 146 148 149 153 153 151 154 156 154 158 161 160 161 165 164 167 171 170 170 168 168 167 166 165 161 161 163 163 161 161 156 162 160 161 160 160 158 156 157 154 153 150 151 149 151 148 148 144 142 141 140 147
102 104 104 106 108 111 112 114 117 118 119 119 120 121 127 125 127 129 129 132 135 137 140 140 141 143 142 144 145 150 153 153 157 156 158 156 155 157 155 153 147 143 139 139 140 139 139 138 141 143 141 142 141 143 143 144 144 144 144 142 141 138 138 135 135 134 134 138 140 143 146 149 147 148 145 143 144 142 141 148
99 103 102 106 108 110 111 113 114 117 119 118 120 123 125 129 130 132 131 136 135 139 138 142 141 143 146 145 142 141 135 132 130 133 140 140 144 145 147 147 147 149 149 150 151 154 152 150 150 149 147 147 148 145 146 147 151 150 150 147 146 146 144 141 142 144 139 140 138 136 135 132 131 130 130 134 140 143 142 148
101 104 105 106 109 110 112 114 115 116 118 122 121 125 124 128 127 129 132 135 134 130 129 125 124 127 131 134 140 141 142 143 145 148 147 147 146 147 148 149 152 153 152 158 154 156 152 152 150 150 147 145 146 145 148 150 148 149 151 152 149 148 145 144 143 143 143 143 140 139 137 137 133 137 134 134 133 128 126 136
102 102 105 106 110 110 112 112 114 116 121 117 121 121 124 124 117 112 115 121 128 132 136 137 140 139 140 143 144 143 145 145 147 150 150 149 149 150 151 151 151 156 156 154 158 159 157 156 151 151 149 150 146 151 151 150 152 153 152 154 149 148 142 142 143 141 140 143 140 141 139 141 139 137 136 134 133 133 130 138
102 104 104 104 105 111 111 112 113 114 117 114 107 109 116 121 126 129 130 132 134 135 139 142 137 142 142 141 144 144 147 148 148 151 152 151 153 152 154 152 155 155 159 156 157 159 158 156 158 153 152 147 149 150 152 151 154 156 154 151 148 147 144 142 145 144 141 146 141 142 142 140 141 136 136 135 135 132 132 139
98 101 101 103 105 108 107 106 102 108 115 119 121 122 127 126 128 131 130 135 135 137 139 141 143 144 143 146 147 148 148 148 151 152 153 154 158 156 157 156 158 154 159 160 159 162 159 159 157 157 154 151 151 153 152 155 153 153 149 149 149 148 146 142 146 145 146 145 145 145 143 143 141 141 139 137 137 135 131 139
96 97 99 98 96 99 108 112 115 116 119 120 122 125 127 129 130 134 135 134 137 139 139 142 143 145 147 147 148 148 151 150 153 154 155 158 159 157 159 159 160 161 160 162 164 162 160 163 162 158 157 155 155 156 156 156 155 154 155 154 152 150 147 147 146 148 146 146 145 146 147 146 144 143 141 139 136 136 134 139
90 90 87 79 108 110 111 116 117 118 121 123 125 125 127 130 131 134 134 137 137 140 144 142 146 146 149 148 152 150 152 155 155 153 157 161 157 161 161 162 162 161 162 164 163 164 164 160 162 161 158 158 160 152 159 156 157 158 159 154 156 151 148 149 149 148 148 153 151 151 148 145 142 142 142 141 138 139 136 140
87 84 79 70 106 110 114 113 118 118 121 124 125 129 131 135 134 137 137 137 138 142 144 146 147 146 149 151 152 154 153 156 157 156 157 159 161 163 162 164 160 164 164 163 167 166 168 164 166 167 165 160 131 68 147 161 156 156 157 157 152 77 95 125 145 148 150 150 151 150 149 142 143 139 130 139 141 140 136 145
81 79 73 66 103 111 115 117 119 121 124 126 127 128 129 134 135 136 138 141 141 143 144 147 146 150 150 150 152 155 153 155 156 148 158 162 162 165 164 164 81 108 144 162 164 170 171 171 169 167 161 89 61 120 90 160 162 158 160 157 142 67 113 63 66 86 128 153 154 152 118 88 71 59 64 136 142 140 137 143
77 74 66 66 101 113 114 116 119 121 123 126 128 131 130 132 137 139 137 140 139 139 144 147 147 148 153 153 153 155 152 125 78 73 144 166 167 165 168 161 81 77 91 64 73 121 171 171 170 145 66 76 111 56 61 153 160 160 160 157 108 97 136 81 81 59 127 155 154 146 72 84 91 55 59 127 142 140 141 141
74 73 69 69 97 113 114 117 121 125 124 127 125 132 130 132 137 139 140 143 125 73 69 84 112 142 153 154 154 104 69 101 87 137 101 163 167 166 168 150 115 69 141 60 58 137 175 174 159 60 66 147 149 91 67 96 165 165 162 158 68 71 105 65 92 65 153 155 156 151 71 96 103 124 75 116 143 142 120 76
78 79 74 74 93 113 117 119 120 123 124 113 81 70 70 68 124 137 140 140 115 122 142 124 88 71 152 157 158 78 121 72 76 140 71 164 167 167 170 121 149 93 92 102 58 164 175 177 171 76 135 149 65 74 101 66 159 164 163 152 59 71 100 99 141 83 156 160 156 152 85 114 72 96 84 98 145 144 125 87
84 85 78 78 89 114 118 120 122 124 126 112 105 88 126 84 111 139 141 144 107 63 79 69 82 78 156 159 155 127 96 56 121 79 59 160 168 172 172 89 151 133 143 66 62 175 178 177 176 148 73 169 156 127 58 84 163 167 165 117 62 135 94 136 61 134 161 161 161 157 101 72 106 60 56 84 146 145 138 86
86 91 82 79 86 115 117 119 122 125 126 124 71 90 109 100 92 141 144 142 99 118 55 115 98 89 156 157 161 157 73 75 119 142 97 124 172 174 175 67 102 118 99 67 84 179 181 181 181 177 77 139 136 65 138 171 173 171 168 154 126 93 67 69 62 162 165 164 165 160 124 90 57 66 94 135 148 148 146 122
89 91 85 80 82 115 120 121 122 124 124 128 64 95 68 70 73 139 145 146 93 130 64 65 61 98 155 162 161 164 78 115 149 64 76 91 176 179 176 98 74 82 72 56 134 182 180 182 182 181 147 60 83 172 180 180 176 173 172 171 171 170 164 154 137 168 169 169 163 162 146 137 152 155 154 153 153 148 151 143
92 92 89 81 82 113 119 121 124 126 130 128 74 66 87 114 75 139 148 148 117 74 66 102 61 112 160 163 164 165 133 60 75 105 155 171 179 178 177 180 177 166 142 104 173 190 183 188 189 187 179 145 182 186 188 186 181 183 177 179 179 176 176 173 175 171 171 170 168 167 161 162 158 158 158 158 157 152 153 153
91 92 93 81 82 110 120 123 123 126 128 132 92 64 71 82 92 137 146 149 153 150 148 138 105 131 161 164 169 168 169 142 164 176 176 177 182 183 185 187 186 186 186 185 186 192 192 193 194 188 191 188 191 190 188 187 187 184 184 182 179 180 177 175 174 176 174 170 167 167 164 165 163 164 159 160 158 157 151 159
92 94 94 87 81 99 120 123 124 126 129 130 136 136 135 139 142 144 151 149 152 157 157 156 161 159 163 167 171 173 172 176 178 182 182 185 186 185 188 187 190 189 189 193 190 193 192 192 194 195 192 190 194 193 191 190 189 190 188 186 185 183 179 170 179 179 177 175 175 171 170 150 164 167 162 161 158 156 154 158
92 93 95 86 82 92 119 122 126 129 130 134 134 138 138 141 144 147 148 148 157 156 160 160 164 164 165 168 170 170 178 178 179 180 181 185 185 189 189 189 190 189 192 193 198 196 199 197 196 198 194 195 194 196 193 194 191 191 191 189 187 169 77 96 182 181 180 180 175 173 136 63 104 162 164 162 160 157 156 161
94 95 95 92 84 86 117 121 126 129 133 134 136 137 141 142 146 147 149 152 158 157 162 158 164 168 170 174 175 177 178 180 181 183 176 187 192 191 193 194 191 190 192 194 194 203 198 199 198 169 147 134 117 104 119 195 196 195 195 184 105 103 167 79 175 182 185 181 176 168 72 97 102 79 154 164 159 155 155 104
94 95 97 93 84 83 116 123 125 129 133 135 138 137 111 120 145 151 154 157 157 158 157 74 126 165 171 174 177 178 179 176 158 106 70 185 192 195 197 178 94 86 80 75 81 203 203 204 199 69 104 73 114 158 123 194 199 197 152 69 126 164 75 141 124 185 184 181 178 86 66 166 90 117 66 153 164 160 94 66
94 96 96 97 84 82 107 124 126 130 129 133 137 138 78 55 66 132 150 157 158 163 137 115 134 70 146 174 179 180 124 75 70 154 60 156 192 194 197 179 141 158 130 119 81 204 203 208 200 78 166 85 192 117 149 201 201 197 100 112 81 137 61 151 74 182 186 186 137 58 102 145 92 67 96 166 165 102 75 122
93 95 97 95 89 82 98 125 127 130 133 133 136 138 66 67 55 59 78 152 157 160 101 72 103 68 56 95 177 183 146 95 168 162 127 96 194 201 197 187 139 127 162 73 80 207 207 208 202 76 80 134 86 62 171 202 207 203 175 58 87 122 61 132 64 171 188 180 72 60 146 65 94 76 167 172 166 148 89 134
93 96 97 99 92 83 89 124 127 130 134 136 139 124 76 113 124 129 83 149 160 157 82 159 141 113 75 117 182 186 183 70 134 126 178 71 195 202 204 192 65 175 112 117 83 212 215 213 202 109 187 86 95 101 191 209 208 209 198 85 159 177 88 100 186 194 192 191 179 117 60 55 59 155 172 173 171 164 119 103
93 95 97 100 98 84 85 120 126 130 133 135 136 104 90 103 114 121 88 156 160 156 69 138 146 113 82 169 183 186 186 99 139 151 129 60 180 206 208 195 106 136 173 128 92 212 216 215 203 101 133 116 95 71 208 211 210 212 205 163 64 84 186 200 201 200 196 193 190 186 165 74 120 177 178 176 173 169 163 98
93 95 96 99 99 86 84 110 126 130 133 138 139 139 129 72 60 93 122 159 163 164 169 124 71 150 85 182 189 191 192 170 134 87 88 149 200 210 212 206 95 103 113 123 154 220 222 222 216 200 208 210 209 215 224 218 217 215 213 201 178 205 209 208 205 205 200 201 194 194 191 184 187 185 183 179 179 175 169 169
95 95 98 98 99 92 82 99 127 133 133 136 137 143 146 146 129 70 144 161 164 168 172 173 171 113 135 187 189 192 195 194 153 195 203 205 209 209 214 217 215 218 221 221 224 227 226 228 225 230 226 226 224 224 221 221 221 218 218 213 212 212 211 206 210 204 203 202 199 198 195 195 188 186 185 182 179 177 176 179
94 94 95 98 98 97 82 87 123 132 132 137 138 141 135 148 153 153 160 163 165 166 174 175 177 181 184 188 192 196 196 199 202 204 206 210 211 215 218 220 222 225 225 227 229 233 232 231 231 231 229 230 229 228 228 223 225 223 220 220 220 218 217 213 213 209 205 203 200 199 195 193 193 191 189 187 180 179 178 182
94 94 94 97 98 98 83 81 121 127 132 138 139 145 146 149 151 157 159 163 169 169 175 178 182 185 190 190 192 200 204 203 206 207 211 216 217 220 223 225 224 224 228 230 229 237 233 235 235 230 228 226 216 227 232 232 231 226 221 215 212 207 205 214 218 213 210 205 127 83 131 179 190 193 189 187 181 138 134 146
91 94 93 96 95 98 90 81 110 129 133 137 141 143 148 152 150 93 145 163 169 172 175 178 182 177 166 160 196 201 203 204 205 199 90 204 219 226 226 230 223 76 132 226 237 241 240 239 235 205 129 78 91 225 237 239 233 208 71 108 66 131 107 198 217 218 212 190 67 152 178 80 79 172 190 188 165 115 65 112
92 94 96 94 96 99 97 82 96 130 132 136 137 144 147 150 110 87 63 131 166 171 177 148 96 64 75 84 191 203 205 203 141 69 140 95 219 230 230 234 163 81 135 98 164 242 244 245 87 188 180 161 67 213 243 242 236 192 148 114 107 95 102 215 222 219 209 139 79 140 193 123 90 198 196 193 141 139 72 106
89 93 95 94 97 96 99 84 84 125 133 137 140 145 148 135 93 75 77 78 111 172 175 155 93 117 155 60 172 206 207 108 133 88 153 71 173 232 235 228 100 168 112 160 67 226 249 248 98 137 79 125 158 185 239 245 238 171 181 95 177 71 88 224 224 224 208 75 109 101 189 151 165 203 198 197 105 82 80 101
91 91 94 96 97 99 100 89 81 118 133 139 141 146 149 113 90 109 109 119 64 150 176 175 92 137 80 85 95 201 209 202 109 158 108 93 72 223 236 151 165 223 240 96 138 248 251 252 160 197 144 189 155 144 246 251 245 137 105 167 152 188 121 228 232 226 155 70 119 93 160 89 200 205 202 192 99 106 90 66
90 91 94 95 94 94 99 96 81 104 131 135 140 144 149 151 131 91 102 101 124 173 179 181 148 80 180 96 85 201 214 213 179 63 121 76 187 236 241 237 168 127 228 109 243 253 255 255 228 74 68 85 157 231 253 254 250 130 98 100 102 112 174 240 234 230 227 209 171 111 85 171 208 209 205 196 142 137 134 141
86 89 91 94 93 96 99 99 83 89 129 136 140 144 146 151 153 149 90 103 166 174 179 183 184 92 141 186 202 210 214 218 220 115 137 229 235 241 242 247 247 244 157 199 254 255 255 255 254 220 250 255 255 255 255 255 254 250 249 247 248 247 243 244 237 236 231 232 222 218 219 218 214 212 207 207 201 197 195 200
86 87 90 91 93 93 94 100 90 80 124 133 138 143 148 153 153 158 156 164 169 176 181 185 187 194 198 204 207 210 214 220 222 228 232 233 239 245 249 251 252 254 254 255 255 255 255 255 255 255 255 255 255 255 255 254 255 253 254 250 250 249 245 242 242 240 234 230 227 227 220 218 214 211 209 209 201 202 196 199
83 85 88 90 93 92 96 97 95 80 112 133 138 140 147 151 155 159 162 165 167 178 180 185 188 193 194 201 209 212 216 223 226 226 229 235 240 249 249 250 254 255 252 254 255 255 255 255 255 251 255 255 255 255 255 255 255 255 255 253 249 249 249 248 248 240 234 232 181 221 225 221 217 216 210 204 199 202 197 202
82 84 86 88 91 92 95 97 98 83 94 132 137 140 146 148 156 156 156 107 100 175 176 185 189 188 85 139 205 211 219 224 218 180 177 181 189 249 255 254 254 223 101 142 255 255 255 255 255 107 97 228 255 255 255 255 253 232 170 111 84 223 251 252 245 243 228 126 77 103 222 225 223 219 212 128 104 94 147 199
82 82 85 87 88 93 93 95 97 88 83 126 133 139 144 146 152 134 85 106 125 118 179 182 186 154 129 82 88 143 219 225 208 111 85 129 97 247 255 246 115 203 145 145 238 255 255 255 149 88 181 68 105 247 255 255 120 195 139 134 151 190 254 252 250 215 114 87 75 70 120 222 220 216 193 77 185 134 68 151
81 81 82 86 87 91 92 92 97 94 78 115 131 134 140 145 149 113 104 109 141 120 142 182 181 86 115 142 118 88 216 225 218 114 140 194 81 247 255 251 101 87 188 127 97 255 255 232 202 223 196 71 98 254 255 255 155 169 129 152 177 155 254 252 215 114 136 123 90 172 141 180 222 216 128 131 119 75 84 204
78 81 82 86 89 89 93 92 96 96 82 98 129 135 139 140 149 149 111 127 93 90 114 183 181 119 102 126 167 169 218 225 221 74 139 99 137 249 255 255 217 143 220 119 155 255 255 236 119 141 89 156 241 255 255 255 207 201 142 68 69 122 255 254 251 168 90 98 137 84 190 227 223 197 113 109 126 160 155 212
78 79 82 84 86 88 92 92 92 93 87 83 123 131 136 138 145 150 151 105 87 157 173 181 188 190 185 131 91 211 220 224 228 189 188 193 202 253 255 255 255 142 151 252 255 255 255 255 255 214 86 189 255 255 255 255 244 93 125 182 231 251 255 255 254 251 161 73 120 224 233 231 227 218 197 137 92 95 202 210
78 78 81 83 83 89 89 92 93 91 92 79 116 126 132 136 144 145 152 152 161 169 172 179 185 190 197 202 207 213 218 223 229 237 237 242 252 255 255 255 255 255 255 255 255 255 255 255 255 255 255 255 255 255 255 255 255 255 255 255 255 255 255 255 253 254 241 202 233 236 235 233 226 221 220 216 209 203 206 210
77 77 80 81 84 87 88 91 89 93 92 81 102 122 129 131 139 143 148 153 156 162 169 178 180 188 194 199 196 210 219 223 230 233 236 235 249 255 255 255 255 255 255 255 255 255 255 255 255 255 255 255 255 255 255 255 255 255 255 255 255 255 255 255 252 253 247 245 238 236 231 231 228 221 219 214 210 206 204 210
75 76 79 80 82 82 86 88 89 90 91 83 88 119 124 130 134 138 143 108 101 105 105 166 179 186 185 121 74 157 212 222 227 228 150 131 170 254 255 255 255 118 125 230 255 255 255 255 251 212 160 141 255 255 255 255 255 252 224 180 252 255 255 254 254 245 180 165 235 231 228 227 223 218 205 154 179 203 203 207
73 76 77 79 80 81 83 86 87 89 88 90 79 111 121 124 131 133 135 92 105 75 66 148 172 168 92 120 104 81 190 218 217 116 125 185 130 236 255 255 216 180 186 166 124 255 255 211 165 140 141 124 255 255 255 184 114 194 119 72 226 255 255 252 234 138 115 140 164 231 225 223 205 143 73 132 117 203 200 205
73 75 76 77 81 81 83 84 87 89 87 91 80 102 115 120 124 128 134 103 93 74 101 129 163 171 127 119 176 135 101 211 220 155 189 135 149 91 253 255 128 165 156 250 152 255 255 255 84 210 175 130 235 255 255 229 185 180 185 157 181 255 251 204 84 169 145 124 81 171 225 213 77 107 95 94 105 195 197 206
72 75 76 77 78 79 81 84 84 88 88 87 84 89 109 112 120 123 127 117 71 80 80 112 161 167 169 111 133 123 192 208 213 218 103 89 150 240 255 255 253 159 104 134 255 255 255 255 110 225 202 123 183 255 255 249 123 203 210 179 139 253 253 229 84 173 132 187 116 197 218 211 123 128 173 182 124 178 191 199
72 75 73 77 78 79 80 81 83 86 86 86 85 81 103 110 115 117 122 125 127 134 140 146 155 161 166 166 172 184 195 200 209 213 211 222 239 249 255 255 255 255 252 239 255 255 255 255 221 225 248 254 255 255 255 255 127 135 178 215 241 250 247 241 220 89 78 136 213 212 210 208 184 68 112 148 186 191 189 188
71 71 75 74 76 78 77 82 82 84 86 85 85 78 97 105 108 113 117 118 125 128 126 141 149 154 157 166 167 178 186 192 201 208 215 222 233 243 252 255 255 255 255 255 255 255 255 255 255 255 255 253 254 254 253 255 251 249 246 247 246 243 237 233 229 217 189 213 212 207 205 203 197 165 192 191 188 183 184 189
69 70 74 73 76 77 78 81 81 81 83 86 84 80 90 99 106 107 112 114 115 88 74 121 138 148 152 149 95 119 167 182 191 192 140 150 156 194 242 252 255 162 220 254 255 255 255 253 245 243 244 240 242 241 240 242 238 239 239 244 241 238 238 229 225 217 212 210 207 203 201 197 193 192 187 187 181 178 178 180
69 72 72 72 73 74 78 78 80 80 81 83 85 81 82 95 100 102 105 110 85 81 72 83 111 136 141 82 82 97 94 137 180 179 106 114 73 116 230 244 243 163 139 143 144 255 254 232 158 142 141 112 227 229 227 155 139 146 159 186 229 231 228 209 133 171 198 200 197 195 190 184 170 146 120 175 174 172 167 172
70 70 71 72 73 74 75 76 79 79 81 81 83 82 77 92 95 98 101 103 82 65 89 83 80 129 128 96 91 90 68 156 169 170 111 100 78 101 216 232 203 185 160 210 170 254 249 218 144 167 132 120 210 214 210 120 161 169 119 127 221 221 212 162 186 150 128 92 186 185 151 74 128 88 85 166 165 161 159 167
67 69 69 70 72 73 75 76 78 79 79 81 81 83 78 86 92 95 96 99 100 91 65 74 117 122 126 124 102 84 109 152 160 162 88 103 92 106 206 219 191 153 153 180 219 246 235 211 128 94 89 98 198 203 200 108 105 149 134 149 210 212 203 118 167 93 122 129 178 175 150 110 112 128 98 157 155 155 149 156
67 68 70 70 71 72 74 72 76 77 78 80 81 81 79 81 88 91 93 98 100 99 100 107 113 117 123 125 129 126 138 144 150 156 160 165 173 181 196 207 215 226 229 221 236 233 224 208 172 157 141 132 187 187 185 109 92 130 121 163 201 202 186 129 157 150 106 171 171 166 146 87 96 107 101 148 148 144 145 146
66 67 68 69 71 71 73 73 73 74 77 78 77 78 79 76 85 88 89 93 95 96 99 103 107 110 114 116 122 125 130 136 140 146 152 159 163 171 181 193 205 218 223 226 223 216 211 201 192 186 181 178 179 174 171 174 173 178 180 187 192 193 190 185 179 159 150 165 163 159 149 124 139 142 141 140 136 133 134 134
66 66 66 68 68 70 70 71 72 74 74 76 77 79 79 78 81 84 84 87 91 92 93 97 100 103 106 110 110 117 121 127 127 131 137 144 149 156 166 177 187 198 208 211 212 205 197 185 178 172 167 164 163 160 159 157 161 163 166 167 173 174 178 178 174 170 162 159 153 147 144 142 139 136 133 132 129 126 122 121
65 65 66 66 67 68 70 71 70 71 71 74 76 77 78 79 79 80 83 84 87 87 91 91 96 96 101 104 108 110 113 115 117 124 128 133 135 143 149 154 167 175 185 191 189 184 173 167 162 156 151 148 147 146 146 144 145 147 149 155 158 160 163 159 159 154 150 145 140 137 133 130 126 125 122 118 118 116 111 110
63 63 63 66 66 66 68 68 70 70 71 73 74 77 78 78 79 81 82 82 83 85 88 91 90 94 96 98 100 103 107 108 111 114 115 118 122 125 129 132 135 142 144 148 151 149 146 144 144 141 137 135 134 132 133 133 133 135 138 137 142 145 148 145 146 141 135 133 129 125 121 116 116 115 111 109 107 107 104 108
61 62 64 65 64 65 66 67 68 69 71 72 72 74 75 76 77 79 79 81 82 84 87 89 92 94 95 98 98 100 103 105 107 110 112 117 120 121 124 124 128 130 130 132 131 131 130 131 129 128 123 125 123 121 121 121 120 120 120 121 121 123 124 121 123 121 120 115 115 113 110 108 107 106 104 103 100 100 99 105
60 61 63 63 64 63 65 66 68 68 69 71 70 70 72 74 75 76 80 79 82 82 84 89 93 92 96 94 98 99 116 105 106 109 111 114 115 117 119 123 125 125 127 128 129 129 125 126 127 125 123 121 121 122 120 119 117 116 118 117 116 113 115 114 113 111 110 108 111 110 108 103 105 105 103 102 100 99 97 101
58 61 61 62 63 62 64 64 66 66 67 69 68 71 72 72 74 74 76 77 79 82 85 88 90 93 94 95 96 96 97 99 102 103 108 111 113 114 117 118 120 123 124 125 124 128 125 122 123 121 119 119 118 119 117 115 115 115 112 112 110 115 112 110 109 111 109 108 107 107 103 106 104 102 101 100 98 94 94 99
59 60 60 61 62 62 64 65 65 65 68 66 68 70 70 70 73 74 75 77 80 83 84 88 90 91 93 95 93 92 96 99 99 101 105 107 110 115 116 120 121 122 125 126 124 123 122 120 121 120 118 119 116 116 114 115 113 113 112 113 112 112 110 109 109 105 108 106 104 104 103 102 102 98 98 97 95 93 92 98
58 59 60 60 60 62 61 65 65 66 65 67 68 68 69 71 72 73 73 76 79 83 83 86 87 88 91 92 91 91 92 94 99 102 105 108 109 112 112 117 122 123 123 124 124 124 124 121 119 119 117 114 114 113 112 112 109 109 109 110 107 106 107 105 107 104 104 105 102 103 102 102 99 99 98 96 93 93 91 96
57 58 59 62 62 63 63 63 64 65 66 66 67 68 68 69 71 73 75 79 80 83 83 83 85 88 89 91 91 92 91 95 97 99 100 104 108 110 111 116 121 120 121 121 123 123 120 120 119 116 115 113 116 112 109 110 106 108 106 107 106 106 106 104 105 105 105 104 103 101 103 101 100 99 98 94 94 92 89 96
58 59 58 60 61 61 62 62 63 63 65 66 66 67 67 68 70 71 73 78 80 79 80 81 83 86 86 89 88 89 90 93 94 98 99 100 107 109 110 114 117 119 121 121 121 120 120 117 117 113 115 111 111 108 110 107 108 106 105 105 104 104 103 104 104 104 102 102 102 100 99 99 98 97 95 92 92 90 88 94
58 58 59 60 60 61 61 60 63 63 63 65 65 65 65 67 67 69 72 77 76 78 80 79 82 84 87 89 87 87 89 92 93 94 102 103 105 106 113 114 118 118 121 123 122 121 119 117 115 114 113 111 109 108 105 105 105 102 103 105 102 102 102 102 103 100 102 101 101 98 98 97 96 95 96 93 93 89 87 94
57 58 58 59 58 58 61 61 61 63 63 64 63 63 65 65 67 70 73 75 76 77 78 80 81 81 85 83 85 86 88 89 91 94 99 100 103 106 110 113 118 122 129 136 132 121 120 117 117 113 114 112 107 107 106 104 104 104 103 102 101 100 100 100 99 100 101 99 99 99 98 99 97 97 94 93 88 88 86 91
54 56 58 58 59 59 59 60 60 63 62 63 63 64 64 66 67 69 70 74 74 77 78 79 79 82 83 81 82 84 85 85 89 91 91 97 98 100 102 106 108 117 128 127 127 117 114 112 111 110 110 107 108 106 106 102 101 101 101 99 101 100 101 99 100 101 99 99 96 95 97 93 93 91 89 86 87 84 83 88
56 55 55 55 56 58 59 60 61 61 62 61 63 64 65 66 66 66 67 73 73 74 75 77 79 80 79 79 79 79 81 83 84 88 89 92 92 95 99 102 104 111 136 135 123 109 108 106 106 106 103 103 103 100 101 103 100 97 98 99 98 97 98 96 95 96 95 92 95 93 90 90 88 87 85 84 83 79 80 86
56 55 55 55 56 55 56 57 57 60 60 60 61 61 63 63 64 66 67 71 73 74 76 77 78 77 76 75 78 77 79 79 83 83 85 87 88 90 93 96 95 101 111 109 108 102 104 100 102 100 98 98 97 97 97 97 95 95 93 93 94 94 93 92 92 91 91 89 88 87 87 86 84 83 81 79 79 78 76 83
56 55 56 56 55 56 56 56 57 57 58 57 58 59 61 61 63 63 66 70 72 74 74 74 74 72 74 73 74 74 76 77 78 79 82 84 86 87 89 93 95 99 106 105 104 103 99 97 98 95 93 94 92 92 93 93 91 92 90 90 90 89 90 88 87 88 85 85 84 83 83 81 80 78 78 77 77 75 74 80
56 56 55 57 56 57 56 57 58 57 57 58 58 58 57 59 60 61 63 65 67 69 70 70 70 70 71 72 71 73 74 74 76 77 79 80 83 86 85 88 94 100 111 105 102 97 96 94 93 90 91 89 88 88 88 89 88 88 88 88 87 85 85 84 85 82 81 82 82 80 79 80 78 78 76 75 74 72 72 78
56 56 57 56 55 56 57 57 57 58 58 57 58 58 57 59 59 59 59 60 62 63 64 64 65 67 69 69 69 71 72 73 73 73 77 80 81 83 83 89 92 95 99 104 101 95 90 89 91 88 87 87 86 85 85 84 84 84 83 83 81 81 81 81 81 80 80 77 78 78 78 79 77 76 76 74 72 72 70 76
56 56 56 57 57 56 58 56 57 56 57 58 57 58 59 59 59 60 59 60 61 61 62 62 62 63 63 64 64 67 67 68 71 74 74 76 79 80 83 87 88 98 130 130 116 96 89 87 86 85 84 84 82 83 81 83 81 80 81 80 80 79 78 78 78 78 76 77 78 76 76 76 74 72 71 68 68 66 66 72
