P2
80 80
255
106 101 105 105 107 110 111 111 113 112 116 118 119 120 126 126 125 127 130 133 130 136 137 135 137 140 145 145 147 145 150 153 154 153 157 155 159 158 156 159 161 159 158 160 162 165 167 165 162 163 160 159 157 155 154 157 157 158 153 153 152 150 146 147 146 148 143 144 141 139 141 141 135 139 136 134 134 135 131 135
102 103 105 107 106 111 110 113 113 116 115 118 121 122 121 125 124 123 129 130 132 133 133 137 137 138 141 143 147 146 146 148 149 154 152 154 154 154 158 159 162 160 160 166 165 166 167 166 164 169 165 163 161 161 159 156 153 160 158 155 151 154 152 150 149 147 146 144 144 144 142 140 141 141 138 138 138 134 132 140
99 104 105 109 106 109 111 112 115 115 119 118 120 120 126 125 127 130 130 134 136 134 137 141 137 140 140 143 146 148 151 151 153 155 154 156 157 159 158 161 160 162 164 165 168 169 166 166 167 169 169 166 165 165 164 162 165 164 160 161 156 155 158 151 149 145 150 148 146 146 145 143 141 139 139 140 141 137 135 141
102 102 106 106 109 110 109 112 115 116 116 118 120 122 124 124 126 130 132 133 134 139 140 139 142 143 144 147 151 151 152 156 157 156 156 158 160 161 163 161 162 164 165 167 166 170 171 167 169 166 167 165 166 164 165 162 166 165 165 164 164 163 162 157 152 152 152 151 147 145 147 144 144 140 138 136 140 138 136 144
101 104 103 107 108 107 110 113 114 117 116 112 115 112 110 110 109 109 113 114 117 122 123 123 126 127 125 125 128 127 127 129 129 128 131 137 137 138 147 149 156 159 159 165 166 169 167 169 168 168 165 165 168 167 161 163 167 169 168 166 166 161 160 161 159 158 152 154 152 151 150 150 149 142 140 144 141 142 137 144
101 103 104 104 104 103 99 100 101 108 111 114 118 120 121 125 125 126 128 127 129 131 131 133 133 136 137 138 138 142 142 143 142 145 143 145 147 146 146 148 148 149 148 145 146 142 143 139 137 142 144 152 155 160 164 162 164 166 165 164 166 165 161 160 160 158 155 155 153 153 151 151 148 145 146 144 143 141 140 145
93 90 95 102 106 107 113 113 113 113 119 120 124 121 127 126 126 128 129 130 133 134 135 137 138 137 140 140 140 143 145 142 146 146 146 148 150 149 149 150 151 152 154 152 150 155 147 151 151 148 147 143 143 144 143 140 137 145 153 158 164 159 159 158 159 158 158 159 160 156 158 153 147 150 149 147 148 145 142 146
102 104 106 108 110 111 115 114 117 117 119 119 122 123 126 127 128 129 131 133 132 134 135 138 140 140 141 142 141 143 147 146 146 150 148 150 149 150 150 154 153 153 153 156 154 154 155 154 151 151 148 149 146 147 148 151 152 152 150 150 144 141 137 139 148 155 157 159 157 158 159 161 154 155 153 149 149 149 143 150
103 105 106 108 111 113 115 117 119 119 120 120 123 126 128 128 130 131 132 132 134 136 140 141 140 144 142 142 144 149 146 148 147 148 149 151 149 152 152 155 157 159 159 157 159 157 159 155 154 153 149 146 146 147 151 150 155 152 150 150 147 146 144 143 142 139 138 142 143 149 159 158 159 156 155 152 151 149 147 151
104 105 107 109 111 113 115 116 118 119 120 123 124 126 130 129 132 132 134 137 137 137 137 142 143 145 146 148 148 148 147 147 148 148 152 153 155 152 156 156 159 161 158 160 161 162 160 155 154 152 149 148 148 148 152 151 152 153 150 148 146 147 145 144 144 144 141 145 145 144 142 140 145 155 156 154 151 151 148 155
105 105 110 109 112 113 116 118 119 120 121 125 126 128 130 129 129 133 136 135 138 140 140 143 140 144 146 147 146 149 151 150 151 154 152 152 158 158 161 162 166 164 163 163 165 161 161 160 157 158 154 153 153 155 153 156 154 154 153 151 150 150 145 146 146 147 144 141 148 147 146 145 143 141 140 136 144 150 148 157
105 107 107 110 112 116 115 120 121 121 124 126 127 128 131 133 133 134 134 138 140 141 142 144 147 151 151 149 151 152 150 153 153 153 152 156 157 159 162 162 162 164 164 165 164 166 165 161 163 159 157 154 156 157 157 159 155 157 154 155 152 152 149 151 149 146 147 149 146 148 146 145 142 143 143 142 138 137 133 150
107 109 111 111 113 116 117 119 121 123 123 124 127 130 129 135 133 137 137 125 133 139 143 144 147 148 150 149 154 152 154 155 154 153 153 157 156 160 160 161 163 166 163 167 168 168 169 164 165 162 162 164 162 160 159 158 158 158 157 155 155 154 152 151 150 151 151 151 150 151 148 146 145 145 140 141 140 139 136 140
108 110 110 114 114 116 119 119 111 105 99 93 89 88 132 134 138 138 139 90 74 67 88 128 143 150 152 150 153 155 148 141 112 78 81 158 161 163 166 165 157 107 156 166 168 170 168 169 167 169 163 163 155 136 161 163 163 156 157 156 157 156 153 152 152 155 153 153 153 152 149 149 147 147 142 141 141 138 138 142
108 108 110 113 115 117 121 116 64 90 60 105 109 62 128 136 135 136 135 73 129 137 123 60 65 113 152 152 152 91 71 76 110 93 72 155 162 163 164 166 129 112 66 75 122 164 171 172 169 169 165 115 74 78 163 165 164 162 159 116 133 152 154 155 158 152 153 155 153 152 149 149 150 148 145 143 140 142 139 144
108 111 113 116 115 118 119 122 66 94 99 121 91 59 126 138 139 139 139 63 69 104 71 109 89 124 151 156 156 93 131 69 74 72 105 146 166 166 166 167 91 144 110 69 58 70 170 176 171 152 71 106 70 63 155 162 163 165 160 71 96 74 113 150 155 158 156 154 146 125 144 153 151 146 147 146 143 139 138 146
110 111 116 115 117 120 120 119 69 63 81 96 65 67 124 139 139 142 138 66 97 54 71 79 70 138 156 157 155 138 89 57 75 133 90 110 164 167 171 167 72 120 148 110 56 87 174 176 168 63 69 150 92 59 109 165 165 161 144 90 138 66 62 106 159 157 90 70 68 59 130 152 152 152 149 113 136 143 140 146
110 112 113 115 117 121 121 123 80 81 70 85 60 78 117 136 139 142 134 74 98 54 90 89 62 146 155 157 159 154 65 89 66 141 73 71 167 170 171 164 89 137 161 105 57 138 177 177 173 78 137 97 75 104 74 169 167 164 102 74 115 78 72 149 161 160 90 103 70 69 123 153 151 129 70 93 119 143 141 147
108 113 114 115 120 120 120 124 95 60 62 78 112 104 104 138 141 142 132 62 94 62 121 63 59 152 158 157 160 162 80 134 116 99 87 71 164 172 173 146 65 120 76 120 57 172 177 179 179 138 105 158 101 66 64 161 168 163 66 74 87 144 82 165 167 163 100 102 116 98 115 157 145 93 122 69 89 144 144 150
111 113 115 117 119 120 123 124 109 60 60 66 69 70 98 138 142 145 146 142 130 91 66 59 67 154 159 163 163 162 132 62 107 68 72 108 170 173 176 148 78 80 123 61 66 178 182 185 185 174 84 144 71 82 165 177 176 159 66 116 79 80 117 170 169 166 111 97 102 75 104 158 152 78 113 79 71 143 147 151
112 113 116 117 120 123 124 125 128 128 130 132 134 134 137 143 145 146 148 151 151 152 148 140 118 157 162 163 166 165 161 89 128 157 168 171 175 180 177 183 181 167 132 77 109 185 185 188 187 184 102 68 141 182 184 185 181 178 167 141 85 63 166 174 173 167 123 94 59 79 136 159 156 113 93 97 68 143 147 152
110 114 115 119 120 124 124 128 126 134 133 135 138 139 140 144 146 146 148 149 154 155 157 157 160 163 165 166 169 167 170 168 171 174 175 177 182 183 185 184 186 187 184 182 186 192 191 193 196 189 173 179 189 188 187 188 186 186 183 182 177 172 175 176 173 173 153 154 161 166 163 164 158 136 59 105 149 151 146 156
110 114 117 118 120 122 125 128 130 131 134 135 136 139 143 142 144 147 149 152 155 155 160 161 162 163 167 168 170 173 171 175 174 176 176 180 181 185 186 190 192 190 190 189 191 194 192 193 194 194 192 195 194 193 188 190 189 191 187 188 187 185 183 179 182 176 175 172 171 168 168 164 164 156 151 153 155 151 151 155
107 114 118 122 121 125 127 129 130 134 135 133 137 140 141 145 149 150 152 153 155 157 157 161 162 168 167 170 173 173 173 176 179 180 181 182 186 186 189 191 192 190 191 195 193 196 196 198 195 195 195 194 196 194 195 194 194 190 191 187 187 185 183 183 184 176 178 175 170 169 166 166 165 165 162 159 158 154 152 160
108 117 119 120 121 124 128 130 132 131 130 62 86 134 144 147 146 149 152 155 157 136 68 138 165 166 171 172 173 177 176 179 178 175 159 183 188 188 193 192 195 197 194 193 197 197 200 201 199 198 195 196 194 197 195 197 196 194 190 167 92 186 187 186 182 180 144 152 176 176 172 171 170 164 150 161 157 155 154 158
100 117 117 123 123 127 128 131 131 133 102 55 52 55 96 139 147 154 154 155 156 87 139 104 80 158 170 172 176 176 166 136 97 81 62 158 191 195 196 192 99 99 95 91 96 197 205 201 192 80 82 82 80 128 198 202 200 187 108 129 115 183 191 190 189 174 77 68 134 176 174 173 167 94 89 161 163 159 158 162
94 115 118 119 123 126 128 130 132 131 68 58 64 53 55 64 111 151 155 159 147 67 99 105 70 57 107 171 176 178 79 80 86 160 66 104 192 195 198 194 94 179 123 92 80 204 207 206 182 93 126 167 171 153 205 200 165 78 144 123 153 142 192 191 187 88 127 136 102 119 177 169 92 74 71 139 161 165 158 165
86 118 119 119 126 127 129 131 132 122 61 118 101 120 131 111 98 152 155 159 108 122 142 131 89 78 61 167 180 181 133 137 162 162 117 75 195 198 205 200 97 125 160 75 77 205 211 212 170 82 74 184 74 178 207 204 155 84 139 73 120 91 195 195 145 68 136 114 63 162 178 97 121 109 111 78 163 162 161 166
79 114 119 123 123 126 129 130 132 90 97 61 115 90 111 62 136 152 159 157 71 79 162 119 137 134 96 180 183 183 181 73 99 115 183 71 190 202 205 203 66 165 118 128 82 210 214 213 152 175 127 66 105 195 213 211 194 67 94 77 128 89 197 192 84 84 84 93 116 182 180 152 128 130 89 135 168 165 162 168
77 110 121 123 123 127 130 131 131 132 97 62 74 90 128 78 147 155 157 159 153 82 100 90 103 67 159 181 185 184 187 84 143 124 123 61 150 202 205 204 88 139 170 125 98 215 218 216 134 189 179 163 71 208 216 214 203 106 121 99 160 203 202 200 193 118 58 73 187 187 186 179 90 107 136 168 171 169 164 168
76 105 118 123 125 126 130 132 135 138 140 136 104 59 56 121 151 157 161 165 164 164 152 79 116 87 178 185 186 186 189 147 111 79 110 169 199 209 211 208 96 97 101 105 145 219 220 219 168 157 165 176 188 219 221 218 215 172 119 208 211 212 210 211 204 197 160 179 193 192 191 186 167 142 177 176 176 171 168 170
77 93 119 119 124 129 128 130 135 139 139 143 141 142 114 143 155 156 159 164 167 171 172 172 154 149 182 187 189 195 193 194 184 200 203 206 208 209 214 214 217 217 223 223 221 227 225 230 226 225 227 229 230 228 224 224 221 220 216 217 217 214 212 208 208 201 201 200 196 193 191 188 184 185 182 181 176 172 171 165
76 82 117 122 124 127 131 131 135 138 141 141 145 148 139 154 157 162 162 165 170 172 172 177 182 183 187 189 194 194 194 197 201 203 206 208 210 213 217 219 222 226 227 232 230 231 230 233 232 230 235 232 229 231 226 227 225 225 221 220 218 219 219 212 210 209 207 206 204 200 198 194 192 187 183 184 178 171 173 159
75 77 114 122 126 126 131 133 137 139 140 146 145 148 151 156 156 159 164 167 169 172 179 179 183 186 188 190 195 199 202 199 206 208 210 214 219 223 226 226 228 222 229 234 235 236 236 234 235 233 227 221 236 235 234 232 229 220 219 218 223 224 219 214 107 150 195 206 204 202 180 137 134 136 188 185 183 179 175 158
76 77 111 122 126 128 132 133 135 139 141 146 147 140 75 140 159 164 165 168 169 174 176 179 177 160 146 192 199 202 202 202 205 183 81 208 222 223 225 230 224 76 146 228 240 239 242 239 224 155 86 92 233 241 241 220 77 89 100 118 218 228 223 186 85 192 91 98 209 206 125 109 103 89 187 189 187 179 172 159
76 75 99 123 125 131 130 133 137 139 143 145 144 72 70 59 119 160 164 169 172 164 125 81 62 83 78 191 196 202 204 196 105 92 128 120 216 228 233 232 147 89 160 88 193 245 245 170 167 183 156 73 234 243 242 197 169 149 91 110 226 234 224 108 110 196 114 184 212 207 98 71 129 123 194 194 188 183 172 164
75 74 84 118 125 127 130 136 137 138 142 140 83 89 62 80 70 89 161 167 173 164 63 114 140 152 58 153 201 205 195 82 86 120 183 67 204 228 235 228 120 169 129 125 85 247 249 215 133 76 139 130 230 250 247 168 150 131 111 113 235 235 209 75 89 200 117 217 216 201 145 94 66 168 200 193 193 186 163 165
75 75 77 118 125 129 132 134 138 140 139 98 102 86 114 129 125 74 72 163 176 177 103 149 77 81 71 82 202 207 207 122 192 168 75 85 84 227 237 127 151 231 236 79 224 252 254 245 161 125 139 155 218 254 253 137 119 130 135 163 241 239 192 105 81 157 183 222 220 192 110 116 121 197 202 195 191 187 156 163
77 75 76 111 124 128 132 134 137 139 145 140 84 59 127 111 105 60 136 170 174 176 166 82 160 183 79 105 190 206 213 210 75 67 73 87 197 237 241 240 151 145 229 137 250 255 255 254 81 84 161 239 255 255 255 211 214 223 230 245 249 245 240 239 234 219 230 227 224 221 215 216 208 207 205 200 194 186 156 163
81 75 74 96 123 128 131 132 139 140 143 146 145 119 86 118 67 127 165 174 177 180 181 92 73 83 125 184 203 209 215 217 200 70 148 227 238 242 246 249 248 242 142 249 255 255 255 255 252 255 255 255 255 255 255 255 254 253 255 255 254 251 246 243 242 242 235 228 227 222 221 214 216 208 209 204 198 181 159 165
88 74 73 79 121 127 128 132 137 137 141 145 147 153 144 84 116 162 165 172 177 180 183 179 183 193 200 205 209 212 216 217 223 219 230 238 238 245 251 254 254 255 255 255 255 255 255 255 255 255 255 255 255 255 255 255 255 254 255 255 255 252 252 224 219 244 240 236 233 177 201 217 220 213 207 202 196 166 162 165
91 74 73 75 117 124 130 130 136 140 142 144 145 152 153 156 160 166 169 169 178 180 181 188 191 197 196 204 207 216 216 221 228 228 235 239 242 247 252 253 255 255 250 255 255 255 255 255 214 238 255 255 255 255 255 252 204 119 227 255 255 254 214 119 104 231 241 238 220 133 182 78 190 216 212 205 201 158 162 163
92 79 73 72 106 124 128 130 135 138 141 144 147 150 155 157 161 162 166 173 175 181 185 188 189 188 202 207 214 218 221 222 223 223 225 227 241 251 255 255 251 162 85 226 255 255 255 255 103 85 114 246 255 255 130 168 135 156 204 255 255 204 169 76 96 115 243 236 150 138 95 93 220 220 214 209 197 162 162 165
89 88 74 73 86 122 127 128 133 138 141 143 146 150 154 154 116 85 160 172 176 180 183 185 122 116 87 178 211 216 224 224 80 137 145 148 167 254 255 217 100 242 106 101 255 255 255 140 155 209 92 136 255 255 145 132 144 172 178 255 250 109 122 147 114 169 243 229 147 126 179 185 224 219 218 212 181 162 157 164
91 91 75 74 76 121 126 128 133 135 140 141 144 146 135 75 107 114 94 161 175 182 183 177 71 162 62 140 88 207 220 226 88 86 84 130 161 254 255 204 88 128 230 91 194 255 233 205 185 88 105 255 255 255 188 206 82 77 167 255 255 236 95 139 196 250 248 241 205 144 113 228 225 221 217 211 168 163 153 160
87 90 83 74 73 111 124 129 132 134 139 139 147 101 69 119 137 94 76 99 171 177 182 114 90 121 171 80 92 216 225 226 96 129 216 155 157 255 255 255 121 178 181 154 255 255 255 241 115 87 225 255 255 255 230 149 227 255 255 255 255 255 236 220 254 250 248 250 241 235 232 230 226 224 218 210 163 162 155 160
88 91 88 74 72 95 121 126 129 131 135 136 143 141 85 131 136 131 122 102 120 178 177 109 75 125 116 136 195 217 224 230 115 104 93 113 176 255 255 255 253 124 247 255 255 255 255 255 255 249 255 255 255 255 255 255 255 255 255 255 255 255 254 254 254 251 248 244 241 231 236 236 227 223 220 194 161 159 149 155
87 88 89 78 72 78 117 124 126 132 134 136 142 145 142 88 119 101 73 146 170 177 180 183 182 155 96 108 212 219 227 229 235 237 242 253 254 255 255 255 255 255 255 255 255 255 255 255 255 255 255 255 255 255 255 255 255 255 255 255 255 247 142 240 250 250 244 227 127 120 230 234 230 221 215 173 161 152 150 150
87 88 88 83 73 73 111 122 123 130 131 136 139 142 146 142 87 112 156 164 171 177 181 183 189 196 199 206 210 217 223 231 241 245 249 252 255 255 255 255 255 249 255 255 255 255 255 255 250 184 247 255 255 255 212 142 86 232 255 255 240 150 184 103 237 239 169 127 102 134 217 230 228 222 213 162 154 150 144 146
85 86 88 88 74 72 99 118 122 126 128 128 137 140 145 147 149 153 162 164 167 176 180 183 190 197 200 199 209 218 223 232 240 241 205 145 255 255 255 255 228 101 130 231 255 255 225 130 127 184 185 255 255 185 145 202 133 198 255 234 91 169 119 135 164 236 181 130 202 173 193 224 222 216 198 159 148 144 140 143
86 85 86 87 79 71 80 114 120 121 125 130 134 137 144 145 149 153 155 160 167 172 178 183 185 189 123 75 194 215 222 231 226 121 102 206 213 255 255 255 108 180 138 169 240 255 253 87 178 214 125 255 255 231 159 235 195 165 254 248 141 128 98 181 233 232 215 80 136 212 219 220 215 209 174 153 147 141 134 135
84 83 85 85 86 72 72 110 115 120 123 128 131 135 139 139 126 113 101 88 108 165 176 178 155 70 121 135 85 205 220 222 107 131 201 183 87 250 255 186 226 242 236 143 255 255 255 104 222 179 155 255 255 251 98 134 202 243 250 243 239 141 192 228 225 222 216 201 211 214 213 211 208 204 154 149 142 136 131 132
82 85 82 86 84 74 70 99 111 118 119 121 129 130 134 121 68 79 81 57 79 159 168 167 92 149 164 173 108 109 218 225 204 151 102 171 147 255 255 255 221 119 91 254 255 255 255 187 241 255 255 255 255 255 252 254 252 248 243 236 232 222 220 219 217 211 205 204 199 202 201 198 193 183 146 143 135 130 126 129
82 83 82 86 85 80 70 83 108 114 116 120 123 125 129 128 83 81 76 71 82 153 163 167 158 88 156 110 95 190 216 222 224 175 115 225 255 255 255 255 255 255 255 255 255 255 255 255 255 255 255 255 255 255 255 252 244 240 236 221 186 200 207 205 200 188 141 93 119 188 186 187 183 161 142 135 129 125 120 123
80 81 83 81 84 85 72 72 104 109 112 115 119 121 125 127 73 66 89 94 64 145 153 163 168 154 94 145 190 197 208 215 225 230 241 254 255 255 255 255 255 255 255 255 255 255 252 243 236 228 249 254 252 186 160 146 139 229 219 194 160 135 127 174 188 107 134 123 114 175 173 173 168 141 134 131 125 119 114 120
78 80 82 84 82 83 78 71 96 104 107 111 112 118 120 124 94 97 114 124 134 147 152 158 165 170 170 178 186 194 203 209 217 224 235 242 253 255 255 255 190 157 176 206 247 250 213 154 133 188 209 238 237 145 205 148 135 215 204 132 151 80 108 180 179 109 95 125 117 165 163 159 152 131 128 122 117 112 108 113
78 80 81 81 81 81 81 71 83 100 103 107 110 112 116 121 124 125 129 136 136 140 146 151 156 162 157 165 177 186 191 199 205 132 123 104 114 253 255 255 133 146 122 112 231 233 191 130 172 131 199 228 224 164 162 177 167 210 198 102 125 110 152 170 168 130 130 156 155 153 147 148 134 124 118 115 110 106 104 110
77 77 78 79 82 82 81 74 72 96 101 101 105 108 109 112 117 120 122 113 126 133 141 146 146 150 81 83 106 138 174 185 192 103 156 84 119 243 255 247 192 116 135 142 225 220 173 142 81 93 188 211 209 166 182 192 196 198 194 181 174 164 162 161 155 153 151 145 145 140 135 131 119 115 113 109 106 103 100 104
77 78 79 79 80 80 81 80 71 89 97 100 102 102 105 110 112 114 74 61 84 116 129 137 138 114 68 77 111 66 161 176 182 109 112 133 130 233 245 237 173 131 117 189 214 205 195 180 184 185 190 195 191 198 198 198 192 190 182 173 163 156 150 147 141 138 133 132 128 126 122 119 113 109 105 106 101 98 95 101
75 73 77 79 80 80 78 78 71 81 91 95 97 100 103 105 107 76 80 67 77 74 92 129 130 79 88 120 85 105 161 166 173 93 116 146 176 223 231 233 230 220 205 202 199 191 190 180 180 177 175 176 175 177 176 178 175 172 165 154 151 140 138 133 130 126 124 120 119 114 112 111 108 106 104 100 99 95 90 97
74 74 76 77 78 81 80 79 77 70 90 91 93 94 99 101 93 74 68 91 77 68 117 121 125 117 100 80 79 145 150 160 162 169 182 187 202 212 222 224 218 209 199 194 185 176 171 169 164 163 158 157 157 159 157 162 159 156 149 147 138 132 126 121 118 117 114 115 113 111 109 108 106 104 101 97 96 91 90 93
72 72 75 76 75 77 78 78 79 70 84 89 89 94 94 98 99 99 75 60 66 108 114 119 123 126 128 129 130 137 146 146 156 163 167 178 187 196 204 205 201 194 183 175 165 158 155 151 148 144 142 142 140 139 136 135 132 128 126 121 121 119 119 117 116 116 112 111 110 107 107 105 103 100 98 96 91 88 86 90
71 72 75 74 75 75 79 78 78 72 76 85 88 92 93 96 95 99 100 98 101 106 111 113 116 118 121 123 127 131 133 136 141 146 153 158 167 177 180 183 178 172 163 157 147 145 142 137 133 131 129 131 128 125 126 126 121 123 120 118 119 116 118 116 113 114 111 109 107 106 105 101 101 98 96 93 89 86 83 90
70 73 73 75 74 76 75 77 77 76 72 82 84 88 89 91 95 94 97 97 100 103 105 108 110 110 112 116 118 120 124 126 127 133 135 143 145 151 148 142 139 135 133 131 131 131 135 133 130 130 126 127 127 123 122 122 121 118 118 117 116 116 115 113 112 110 108 108 108 105 103 101 99 98 93 90 87 85 81 86
70 71 71 72 71 75 76 76 76 75 70 80 82 83 85 86 87 91 93 92 96 97 99 100 104 107 109 110 108 111 114 115 114 116 118 122 122 127 125 125 129 129 130 129 129 130 126 128 125 128 123 122 121 121 120 117 120 117 116 117 113 113 113 109 110 109 109 107 102 104 101 99 97 94 91 88 86 82 80 85
69 69 70 71 73 72 73 74 76 74 74 75 79 79 81 83 84 86 89 89 91 92 95 100 101 99 102 98 105 105 117 110 111 111 116 119 118 121 124 123 125 126 127 126 125 127 124 125 124 123 121 119 120 117 115 115 114 114 115 114 111 109 112 110 109 108 108 105 102 102 100 99 98 92 90 87 84 82 78 84
68 70 68 72 71 72 72 74 74 75 74 76 77 79 81 80 82 83 83 84 87 90 95 95 98 100 101 102 103 105 105 104 109 110 113 115 115 119 120 122 122 123 123 124 123 123 123 122 123 122 116 116 116 116 114 113 111 112 113 112 108 110 109 109 108 105 107 105 104 103 99 97 94 88 88 85 82 78 76 83
67 67 67 69 69 70 72 73 74 74 74 73 74 75 78 78 79 80 82 85 90 92 94 96 97 100 101 101 100 101 103 104 104 105 109 111 115 115 118 118 122 122 122 123 123 122 122 120 120 119 116 114 116 113 113 112 111 110 109 109 109 109 109 108 109 108 106 105 101 100 95 92 89 87 83 80 79 77 76 80
65 66 67 68 68 70 69 72 72 73 74 76 74 77 75 77 80 80 81 85 89 90 92 94 95 95 97 102 99 98 99 102 102 106 108 110 112 112 117 118 123 124 124 123 120 119 119 118 118 117 115 114 111 112 109 108 109 109 110 110 109 108 109 108 107 103 101 100 98 94 90 88 85 82 81 78 77 75 72 80
64 64 65 66 67 68 69 69 70 72 72 71 74 74 74 77 77 79 80 84 87 88 90 89 91 95 94 96 96 97 96 100 101 106 105 110 111 112 115 118 119 120 119 119 118 119 120 117 116 117 112 112 111 109 106 108 106 110 107 107 107 108 105 104 100 99 97 95 93 90 86 83 82 79 76 75 75 73 72 77
62 64 62 64 67 67 67 69 70 70 70 72 72 73 73 76 76 78 79 80 83 84 87 87 88 92 92 94 94 95 95 97 101 102 106 106 110 112 111 114 116 117 120 119 120 118 118 118 116 115 113 112 110 106 107 106 106 107 106 105 102 100 98 98 96 94 92 87 87 83 82 82 78 78 74 73 73 72 69 74
62 63 62 64 66 65 66 65 69 69 69 72 70 71 73 73 73 75 78 81 82 83 83 86 88 89 89 92 91 93 93 96 97 99 102 107 106 108 114 115 118 120 118 120 120 119 119 115 116 110 110 109 107 105 105 101 103 102 101 99 96 96 94 92 91 90 86 86 82 81 80 77 76 74 74 71 68 68 68 75
61 62 64 63 64 62 65 66 66 67 67 69 68 69 71 69 74 73 77 78 80 81 82 83 85 86 89 87 89 92 91 93 95 97 101 104 107 108 113 114 115 116 114 114 112 114 113 112 109 107 106 101 102 101 100 99 99 98 97 95 94 92 91 90 88 86 85 82 81 79 78 76 73 69 67 67 67 68 69 77
60 62 63 63 63 63 64 65 66 66 67 68 68 68 71 70 71 73 76 78 79 80 83 84 84 85 88 86 87 88 89 91 95 98 97 102 104 105 106 106 106 109 108 108 108 109 108 108 106 104 101 97 98 97 98 93 95 92 92 91 91 90 89 85 84 84 82 80 79 76 74 71 69 69 66 68 69 68 69 77
61 61 61 60 62 63 65 64 65 65 66 67 66 68 69 70 71 71 72 78 78 79 79 83 83 86 85 85 86 86 89 89 93 94 96 98 99 100 100 100 102 102 103 102 101 104 105 105 102 98 97 93 95 93 91 92 91 89 89 88 88 85 87 86 83 82 81 78 73 70 69 71 71 70 70 69 70 69 69 78
59 60 61 60 62 61 63 63 63 64 65 64 66 65 68 67 70 71 73 75 77 79 79 81 83 83 83 83 83 84 86 86 89 89 91 92 94 93 94 97 95 95 98 97 98 101 102 99 97 96 93 92 89 89 90 90 86 86 87 84 85 85 85 82 81 75 75 73 73 71 72 72 72 71 71 70 72 71 69 78
60 60 60 60 60 61 62 63 63 63 64 65 66 66 67 66 69 69 71 72 76 76 78 78 79 80 80 80 81 82 84 82 84 85 87 87 87 89 91 92 90 91 94 95 98 97 96 97 95 91 90 90 85 87 87 87 85 86 83 84 82 78 77 76 76 76 76 74 75 74 75 74 74 75 73 73 72 71 73 79
59 59 60 60 60 61 61 62 62 63 63 63 63 65 64 66 66 67 69 70 71 73 75 77 76 77 76 78 77 79 79 79 81 81 84 85 84 85 83 85 88 87 91 93 96 93 99 99 97 94 90 88 87 87 85 84 82 77 77 73 74 75 75 75 78 77 77 78 78 76 76 77 77 77 74 75 75 74 74 81
58 58 60 60 59 60 61 62 61 62 63 63 63 64 64 65 66 67 67 69 70 72 73 70 72 73 74 75 75 76 75 77 79 78 80 80 82 82 82 84 85 86 90 91 96 98 99 101 96 91 88 85 81 77 75 76 75 74 73 75 75 76 75 77 77 79 78 80 81 82 80 82 81 79 79 78 78 77 76 84
57 58 59 59 61 61 59 60 59 60 61 61 61 62 62 64 65 65 66 67 67 67 68 70 70 70 71 71 71 72 75 72 75 77 75 76 79 78 81 82 83 82 85 88 93 94 108 102 91 83 79 77 76 75 74 77 75 74 75 75 75 75 74 77 77 79 79 83 86 89 86 88 84 86 83 83 83 81 80 86
