P2
80 80
255
105 102 103 106 105 107 110 114 114 114 117 119 118 121 123 126 128 128 130 134 132 134 137 139 138 142 146 146 147 148 150 152 155 155 156 160 159 161 159 162 160 160 161 159 161 164 166 166 166 165 162 159 160 159 155 156 156 158 156 153 154 151 148 149 149 148 148 144 141 142 140 142 139 139 136 138 136 135 135 139
100 103 105 109 108 108 109 112 114 116 117 119 120 121 124 123 123 124 128 130 134 133 133 137 138 138 141 143 146 150 148 148 152 152 153 154 156 156 159 159 160 161 161 163 166 166 168 164 169 164 167 169 165 163 164 159 157 158 157 156 154 153 153 153 150 152 147 147 144 146 144 142 140 139 137 138 137 136 134 139
101 103 105 108 107 109 112 114 113 116 119 119 120 122 126 125 128 129 133 137 135 138 138 139 141 144 142 142 147 150 153 152 155 154 158 156 155 161 162 161 158 162 163 165 168 167 168 169 168 170 168 169 166 166 165 164 166 165 165 163 159 161 157 155 152 151 149 148 145 145 144 144 142 141 139 138 138 137 136 144
103 104 104 106 109 112 111 114 115 116 119 120 120 124 123 127 126 128 129 134 134 138 140 141 146 143 147 145 150 153 153 155 155 157 158 158 159 162 161 165 166 165 167 167 164 167 171 170 170 169 167 169 169 168 166 163 168 168 164 165 165 163 160 161 158 157 153 154 150 145 146 148 145 142 142 139 137 139 136 144
101 104 104 107 107 110 109 114 114 116 118 119 119 120 119 117 116 113 112 115 117 118 121 122 124 125 124 125 126 127 129 129 130 130 130 135 138 139 139 148 150 153 153 159 165 165 167 167 169 169 169 165 168 168 167 166 170 169 167 164 167 163 162 161 158 158 154 156 152 152 152 152 153 145 142 143 139 144 142 148
99 104 105 105 110 107 107 108 102 103 104 109 112 117 121 124 124 125 129 130 129 131 131 135 134 139 138 138 139 141 141 142 144 146 145 148 148 146 147 149 152 150 149 149 151 150 149 144 142 139 137 137 142 149 157 161 165 167 168 167 167 167 159 159 163 163 158 158 154 156 158 151 150 148 148 144 143 144 141 148
100 100 97 96 96 103 109 110 114 113 118 119 122 123 124 128 128 129 131 133 132 135 135 137 138 139 139 142 142 144 146 145 148 148 150 149 151 149 151 151 152 154 155 154 155 154 149 152 149 150 147 147 149 146 146 147 145 144 143 144 149 154 154 159 159 158 159 158 159 158 160 157 150 152 149 150 147 146 143 149
95 100 106 106 109 110 112 115 117 118 120 120 121 122 125 128 128 130 133 133 133 134 137 138 141 142 141 145 144 144 145 146 146 149 151 153 151 151 149 154 154 156 156 155 155 155 155 153 152 151 150 147 149 149 148 151 151 149 151 152 150 146 140 141 141 138 145 151 154 158 159 157 158 158 153 154 152 150 146 154
100 105 104 109 109 111 113 115 118 120 119 123 123 124 127 128 130 131 133 133 135 136 142 139 140 143 144 144 146 148 148 151 149 152 151 152 153 153 156 153 156 157 159 158 159 159 158 154 154 153 151 147 149 148 151 150 154 154 151 150 146 147 143 144 146 144 140 142 140 138 141 150 154 155 157 153 152 150 149 153
100 107 110 110 111 114 114 118 118 121 121 121 124 125 128 129 129 134 134 135 137 140 142 142 145 143 145 148 144 146 149 148 153 152 150 154 155 155 156 156 160 159 162 161 163 160 159 158 157 156 152 149 150 150 155 153 155 154 151 150 151 148 144 146 146 145 144 144 145 146 144 143 141 138 143 150 151 152 149 156
100 106 107 110 113 112 113 120 120 120 122 124 126 128 129 132 130 134 139 137 137 140 138 143 143 146 147 149 149 151 153 152 153 154 155 155 157 159 162 165 166 167 166 162 167 164 161 163 160 160 155 155 155 154 153 156 154 157 155 152 149 151 148 147 147 145 144 146 147 147 146 145 147 143 143 138 134 135 141 157
100 107 108 111 114 114 115 120 120 121 123 126 127 128 131 131 131 137 137 137 139 141 142 145 145 147 148 151 148 150 152 154 154 155 156 158 157 158 160 161 163 164 164 165 165 166 165 163 162 162 160 155 160 156 158 161 155 156 153 157 153 152 152 147 152 150 152 150 150 147 146 146 144 146 144 141 138 140 136 141
102 109 109 114 114 115 119 118 122 121 125 127 128 128 131 133 135 136 138 140 134 140 143 146 147 147 148 154 152 155 153 156 156 155 154 157 157 159 161 162 161 165 167 167 168 169 169 168 167 164 164 165 163 160 159 158 157 158 157 156 156 153 153 149 152 151 151 151 154 149 152 147 146 147 142 143 139 140 136 143
100 108 110 114 114 115 120 119 120 119 117 114 112 108 111 135 135 137 139 140 82 67 76 113 141 147 152 153 154 151 154 150 140 104 76 114 159 164 165 166 164 129 106 153 167 170 171 171 169 168 166 166 162 129 126 161 160 158 162 156 156 153 155 154 151 153 153 154 154 155 152 150 150 146 146 143 142 142 139 146
100 109 113 113 115 119 121 121 120 69 76 62 90 97 67 130 136 141 136 141 74 133 134 106 61 68 135 153 154 151 89 68 85 93 123 82 159 164 165 168 164 91 119 74 74 114 161 171 174 173 171 156 79 92 87 160 163 162 160 160 105 100 139 152 158 155 156 157 154 156 150 151 151 148 146 146 143 140 140 145
99 109 111 113 116 117 119 119 122 74 99 97 120 93 63 131 137 140 141 139 66 86 126 79 94 81 138 156 156 157 74 117 82 73 101 80 158 165 165 167 165 77 112 141 67 59 92 173 175 170 115 61 121 67 63 144 165 162 162 154 76 109 69 85 129 158 161 156 147 126 99 112 149 148 149 147 143 142 139 145
97 109 113 116 117 120 122 123 124 78 69 84 99 75 75 125 138 142 141 137 76 85 56 63 93 65 145 159 156 162 104 104 57 111 126 74 142 169 172 171 161 97 93 143 90 55 127 177 178 154 60 99 152 96 65 109 164 166 164 137 79 122 78 71 98 157 160 112 80 87 57 96 151 150 151 144 105 106 142 146
92 110 113 115 119 120 120 123 124 89 67 83 71 61 69 116 139 141 142 131 85 85 56 113 81 68 149 158 160 160 144 77 68 89 125 64 107 166 170 172 139 129 132 154 93 57 164 178 179 172 82 120 97 73 100 78 163 171 165 97 81 97 73 95 137 166 162 118 85 93 99 94 153 150 125 73 92 101 138 149
88 111 112 116 119 120 120 125 126 101 67 65 82 105 103 105 139 143 145 124 67 112 69 104 59 72 152 160 162 164 160 73 110 139 87 113 78 172 175 175 102 75 122 86 97 67 177 180 183 180 128 129 163 114 71 72 162 170 160 70 91 103 136 95 161 167 163 129 106 89 98 92 153 149 106 118 94 67 129 150
88 111 115 118 118 122 124 123 126 114 57 57 62 61 66 93 142 143 144 148 139 111 74 67 62 85 153 162 162 163 166 96 66 103 64 81 127 175 179 180 136 80 83 96 57 97 181 187 186 183 172 90 126 70 115 173 177 174 156 86 86 84 89 105 170 168 169 136 80 97 63 78 152 153 119 85 95 88 111 152
84 111 113 118 119 122 125 127 128 127 129 127 131 135 135 139 144 146 148 150 151 154 153 149 131 121 160 163 164 165 167 145 95 138 162 171 175 176 182 183 185 179 170 138 83 150 186 188 189 188 182 103 76 169 185 184 183 184 178 176 165 127 78 151 174 173 167 147 77 68 98 145 157 158 138 80 79 71 124 153
80 111 116 119 119 122 125 128 128 131 133 136 137 140 141 143 144 145 149 151 153 155 158 159 162 161 161 167 167 171 171 172 171 175 176 177 180 183 186 185 189 191 190 190 185 190 190 192 193 191 190 178 189 187 188 186 187 185 184 184 182 179 179 175 177 175 177 166 162 165 165 164 165 160 153 84 92 145 148 157
79 107 116 120 119 121 126 127 131 130 134 135 139 139 141 144 147 147 149 155 154 156 159 159 163 162 164 170 170 173 175 176 175 177 180 180 185 184 184 191 192 189 193 193 191 194 191 194 194 194 193 193 193 193 192 193 189 188 188 187 187 186 184 182 180 179 177 175 173 172 171 168 167 163 161 154 157 153 152 156
78 101 117 121 122 123 128 127 130 135 135 138 136 140 141 146 149 151 151 154 159 156 159 159 168 168 171 170 172 173 175 177 180 180 182 181 187 186 186 192 193 192 193 196 196 198 196 198 197 198 198 197 197 193 196 194 193 194 193 188 186 183 185 184 183 182 179 179 174 172 173 168 169 164 162 160 160 154 153 159
79 95 118 120 121 123 126 128 131 134 135 134 71 94 139 147 150 150 154 156 159 158 130 80 152 167 172 174 176 178 177 182 180 181 174 162 187 192 192 197 196 193 195 194 197 201 201 202 202 199 195 194 194 195 193 198 198 195 194 191 156 81 174 185 185 184 183 156 96 165 174 174 169 170 165 143 154 159 158 162
78 91 117 119 122 126 128 130 133 135 136 118 57 53 57 104 147 153 157 156 158 160 90 137 88 102 163 173 176 179 178 167 134 91 78 62 181 192 196 200 182 91 88 86 81 105 204 202 202 174 72 78 83 84 128 198 202 200 186 96 142 144 144 191 190 186 180 93 77 90 158 174 175 167 128 98 122 160 158 164
78 84 114 121 123 125 130 131 132 135 134 88 58 63 52 54 63 119 154 156 159 147 67 118 115 67 61 134 181 180 181 69 108 93 141 63 152 195 196 199 181 138 158 132 130 105 203 205 206 160 120 116 170 164 152 202 203 155 86 111 126 127 109 190 193 187 123 87 158 96 81 163 171 134 63 75 93 154 162 165
77 82 113 118 124 126 129 130 132 136 133 68 111 116 121 123 117 91 153 156 159 111 124 133 123 98 67 69 176 185 185 101 156 146 152 151 105 200 201 205 181 143 134 152 79 113 206 210 210 145 80 81 166 70 172 208 206 170 71 134 110 87 99 182 194 167 66 128 123 79 108 176 150 80 131 131 75 121 162 167
77 80 108 123 124 126 126 130 135 135 115 81 71 109 85 117 65 129 157 161 159 73 91 166 110 142 116 115 185 187 186 161 89 86 155 162 70 199 206 208 182 64 180 116 95 128 213 214 212 132 171 110 68 112 191 210 212 198 82 95 93 102 89 186 194 144 71 114 74 81 174 182 175 111 107 132 91 159 168 170
78 78 98 120 122 126 129 131 133 135 134 105 63 85 92 133 79 146 157 162 162 151 78 112 100 109 69 170 184 188 189 188 90 113 132 86 63 187 210 212 186 123 129 170 138 144 218 219 215 117 177 168 144 74 208 217 215 209 138 100 101 157 204 202 201 196 168 74 63 155 192 187 180 152 108 93 162 168 165 172
77 78 89 116 123 126 129 131 134 134 137 141 142 111 60 55 104 153 160 164 166 166 169 148 76 122 101 181 186 189 191 192 107 111 80 125 186 203 211 211 196 102 106 112 121 186 221 224 222 178 180 186 192 205 221 220 220 215 190 123 205 208 212 208 203 201 197 187 152 191 191 188 186 179 134 169 177 174 171 178
77 77 83 114 123 123 126 131 133 136 135 144 142 143 146 118 136 155 161 164 169 169 171 171 175 141 158 184 189 191 192 197 188 191 200 199 209 209 212 214 217 219 222 221 223 225 226 225 227 228 226 227 226 225 225 221 221 220 219 217 216 216 213 207 207 205 204 199 198 194 193 189 187 184 182 181 179 175 171 178
78 76 78 109 120 124 128 130 131 138 139 140 146 147 139 150 153 160 159 165 165 168 172 175 180 180 184 186 188 195 195 195 199 202 204 207 212 214 217 219 220 224 224 228 226 226 226 232 230 229 231 231 228 226 227 228 223 223 222 218 218 216 215 212 213 206 204 204 202 199 195 194 188 189 184 183 180 176 172 177
78 77 77 100 121 124 127 131 133 138 137 143 142 147 151 152 158 159 162 163 168 172 177 182 180 183 187 189 192 196 203 201 203 207 210 212 215 219 220 224 224 226 223 228 231 235 236 236 238 234 234 227 218 233 234 234 230 222 218 215 216 214 222 217 214 160 111 172 199 200 201 194 146 131 128 148 182 180 176 182
80 75 75 89 121 126 127 133 133 138 139 143 145 149 145 83 133 159 162 165 169 172 174 179 178 174 155 160 193 197 202 201 204 205 161 96 215 218 223 229 231 206 71 168 228 238 238 239 236 213 135 82 104 230 238 236 218 83 103 85 136 174 224 225 208 89 173 145 97 176 206 187 123 87 88 128 185 182 180 183
87 76 77 80 115 127 128 131 135 139 139 144 144 145 88 79 59 105 159 167 169 174 163 120 79 60 97 83 186 201 201 202 191 83 132 130 164 226 229 234 234 104 112 171 85 206 243 246 139 181 171 153 77 226 241 240 203 148 140 99 114 203 228 222 171 114 167 146 107 206 205 170 106 81 145 159 188 184 181 187
91 76 76 78 111 123 131 131 133 138 142 141 144 103 90 64 71 77 81 158 171 172 165 67 113 150 140 59 173 201 205 171 106 89 144 162 72 220 232 234 192 164 152 133 91 120 249 248 183 138 82 133 127 220 245 245 186 151 111 134 98 227 232 224 100 86 166 161 168 211 208 150 145 71 79 182 191 188 187 185
92 81 75 76 98 125 129 130 135 137 140 144 121 85 102 100 132 124 83 70 162 176 176 107 143 77 75 83 103 202 208 207 98 199 171 78 82 122 233 232 102 139 235 215 78 235 252 249 225 173 135 134 147 203 248 249 160 131 148 112 133 234 236 214 120 82 123 133 216 218 209 125 93 94 122 196 195 191 186 186
94 88 77 76 85 123 126 131 135 139 139 145 145 112 62 107 110 119 63 133 170 176 177 167 80 164 181 85 88 198 213 211 204 69 87 69 101 219 237 241 230 126 172 215 180 250 254 255 247 77 84 157 238 252 254 252 213 200 211 221 230 242 243 238 236 229 218 209 224 222 215 213 207 206 203 201 197 193 189 178
93 93 78 76 78 117 128 130 135 138 139 143 145 149 140 85 122 72 121 167 174 176 180 181 93 73 89 145 194 207 215 216 219 168 77 182 232 237 241 244 250 251 232 133 252 255 255 255 255 255 255 255 255 255 255 255 255 252 255 251 252 248 247 244 236 235 234 232 229 221 219 216 217 209 209 204 202 198 189 175
92 92 82 74 75 106 123 127 133 135 139 143 145 148 151 151 109 111 158 169 175 179 184 185 183 188 195 201 205 212 212 217 219 221 223 231 238 239 246 249 252 255 254 253 255 255 255 255 255 255 255 255 255 255 255 255 255 255 255 253 252 253 251 245 239 207 234 236 231 230 218 200 213 212 210 208 201 196 189 168
90 91 89 75 76 92 124 130 132 136 139 142 146 149 152 157 160 162 165 169 172 178 181 186 189 191 198 202 207 211 214 220 223 225 230 237 238 248 251 251 255 253 255 244 255 255 255 255 255 211 247 255 255 255 255 255 255 233 159 179 253 254 253 240 148 93 179 236 236 230 173 167 115 104 207 207 205 198 187 168
89 92 92 78 75 81 120 126 131 135 136 143 146 148 151 153 158 160 163 168 173 179 181 185 190 184 182 200 207 213 217 221 227 221 221 227 225 244 254 254 255 245 138 84 251 255 255 255 250 121 83 134 251 255 255 161 144 105 151 151 254 255 239 147 108 75 101 214 240 221 118 171 109 126 212 211 208 202 183 167
89 91 92 84 73 75 113 126 130 135 136 144 143 147 151 154 153 108 72 148 171 177 182 186 187 105 123 83 177 212 218 223 218 77 125 146 160 221 254 255 184 114 231 134 130 255 255 255 135 130 183 102 132 255 255 165 120 139 175 143 255 251 142 130 143 145 122 200 236 182 135 109 144 194 216 214 212 203 171 166
89 93 89 89 74 72 98 126 131 132 136 140 142 148 148 128 78 92 133 82 157 178 184 187 168 76 159 64 159 87 214 225 223 95 79 111 92 216 254 255 150 82 153 194 85 233 255 209 221 195 94 98 247 255 255 207 219 104 72 112 254 255 246 110 114 153 218 244 237 189 118 110 134 221 220 214 210 197 161 166
86 89 91 93 79 72 84 122 128 130 136 136 143 145 123 67 103 120 123 100 92 163 180 182 101 98 129 166 71 133 219 224 226 89 134 197 183 212 255 255 255 104 169 136 170 255 255 255 208 113 95 209 255 255 255 234 105 168 235 255 255 255 255 238 127 233 247 245 244 238 234 229 223 221 221 214 208 193 156 164
89 90 90 91 85 74 75 115 125 128 135 135 140 144 148 117 112 143 104 121 86 126 176 180 135 78 102 130 104 205 220 229 230 92 106 103 126 222 255 255 255 228 137 251 255 255 255 255 255 255 225 255 255 255 255 255 255 255 255 255 255 255 255 254 251 251 246 247 242 235 234 233 226 224 224 216 209 181 159 159
89 86 87 91 89 76 72 103 122 128 129 133 137 141 143 146 118 111 114 84 157 172 176 180 183 188 172 108 148 213 220 226 231 235 240 244 251 255 255 255 255 255 255 255 255 255 255 255 255 255 255 255 255 255 255 255 255 255 255 255 255 255 254 228 226 248 246 243 238 219 152 173 230 223 220 218 207 168 156 156
86 86 87 88 90 80 72 87 117 125 128 132 135 140 143 145 148 119 134 162 164 174 175 183 187 193 195 201 205 213 220 225 238 242 245 250 254 255 255 255 255 255 255 255 255 255 255 255 255 255 215 254 255 255 255 248 197 119 194 255 255 253 208 130 123 222 241 235 173 87 88 126 224 221 218 214 200 159 154 156
84 85 86 87 88 85 72 76 113 122 125 126 133 136 138 145 150 150 154 160 163 170 176 182 187 191 195 199 194 210 218 228 235 241 239 162 185 255 255 255 255 180 120 149 252 255 255 211 115 105 214 201 255 255 199 134 197 104 148 255 252 176 133 161 135 92 228 220 86 141 187 153 210 216 217 212 182 154 146 151
83 85 86 87 87 87 75 72 103 116 121 127 129 133 137 141 145 147 151 156 159 164 175 177 184 187 180 87 82 194 215 224 233 198 123 110 168 241 255 255 251 133 156 164 148 255 255 225 105 158 176 135 255 255 232 169 221 182 148 251 250 147 138 145 155 188 226 221 132 115 126 194 215 210 208 203 167 150 143 145
83 84 86 84 86 88 81 73 90 114 118 122 125 129 134 138 135 87 76 76 67 90 166 174 175 115 71 112 99 89 207 222 218 125 135 180 140 100 255 255 136 200 209 247 174 255 255 255 100 205 209 121 255 255 248 109 111 143 190 245 245 235 138 101 197 220 220 217 196 165 208 208 208 207 203 197 153 142 139 142
81 83 83 85 83 85 85 73 76 110 115 119 125 125 130 132 131 80 106 68 61 73 156 169 168 105 131 151 183 119 122 218 224 188 155 118 161 187 255 255 255 187 104 110 255 255 255 255 147 207 251 255 255 255 255 227 245 250 249 237 236 230 222 215 217 217 210 213 207 204 202 203 201 195 193 178 144 140 133 136
79 81 82 84 84 86 85 77 71 101 113 115 118 120 124 129 132 79 92 65 77 88 149 165 171 163 100 166 92 133 203 216 222 224 150 130 240 255 255 255 255 255 255 246 255 255 255 255 255 255 255 255 255 255 255 255 251 249 243 236 226 217 211 211 207 202 197 195 176 133 180 187 188 185 184 155 136 132 129 129
79 79 82 82 83 83 83 81 71 88 107 108 114 116 122 124 126 89 61 82 80 72 144 158 164 168 160 100 173 190 200 208 216 224 229 242 255 254 255 255 255 255 255 255 255 255 255 252 251 248 247 254 253 253 230 215 202 194 229 222 213 141 116 109 150 193 170 87 146 94 163 179 177 173 166 142 135 129 124 127
76 79 80 81 83 82 83 84 73 77 102 106 109 112 117 118 121 121 123 127 133 141 146 149 158 163 167 173 179 184 192 198 209 216 225 236 244 252 255 255 255 163 174 205 236 252 249 187 125 115 158 207 241 238 153 189 140 113 212 212 187 149 129 124 144 180 164 109 111 142 151 166 165 162 148 133 125 122 116 120
76 78 80 80 81 81 82 82 79 72 94 103 106 107 110 115 117 120 124 130 130 134 140 147 149 155 159 134 149 172 182 191 197 196 107 123 98 138 255 255 255 153 130 112 120 238 234 168 146 183 150 197 228 223 156 158 155 154 212 202 133 137 108 101 168 172 157 77 103 131 154 154 151 147 133 122 119 114 109 113
76 77 78 80 80 82 82 81 82 71 87 97 100 104 106 110 112 113 118 117 78 115 133 138 142 146 145 93 89 104 118 175 185 181 124 139 89 130 245 252 235 191 132 166 169 230 221 155 138 80 107 190 209 212 144 162 180 162 204 196 180 161 127 135 165 161 158 147 152 148 144 143 137 133 120 115 113 108 105 110
74 76 77 77 78 80 82 81 80 76 75 93 95 99 101 105 108 111 109 61 67 81 92 122 136 137 84 68 92 98 72 166 179 174 133 143 109 134 238 244 217 161 122 110 205 214 206 181 160 162 166 191 196 197 197 197 201 199 194 186 178 170 163 156 152 149 146 141 141 137 132 130 126 119 111 111 103 104 101 105
73 74 75 76 77 79 80 80 80 79 71 89 94 96 100 99 104 104 68 90 61 71 96 91 129 126 86 100 106 85 136 159 169 169 102 135 156 187 227 233 232 227 217 205 207 202 196 187 185 180 180 178 179 178 179 181 179 181 179 170 164 157 147 144 140 135 132 128 125 123 121 116 114 108 108 104 102 100 97 103
72 74 74 75 76 77 79 77 79 79 73 84 90 91 95 97 100 100 84 62 82 89 78 119 124 127 126 117 93 88 145 153 157 163 170 177 190 203 213 220 223 221 210 200 194 187 179 174 170 166 163 164 162 161 161 163 164 163 161 157 151 143 139 133 126 125 121 118 116 113 112 109 108 106 104 104 98 97 97 98
71 72 72 74 77 77 77 78 80 78 74 77 88 90 91 93 96 97 99 98 75 75 110 115 120 119 125 127 128 133 140 142 145 152 159 167 175 188 199 205 208 204 193 182 180 168 163 158 151 149 146 145 146 145 145 145 147 148 145 136 134 126 122 117 118 117 114 113 111 111 111 108 106 104 101 99 97 94 93 95
70 71 72 74 75 76 77 77 79 77 75 70 84 87 87 92 92 94 98 99 100 101 107 111 112 113 119 119 123 127 129 132 135 141 145 151 160 167 174 178 184 181 175 165 158 152 149 141 138 135 131 130 128 127 127 126 123 124 123 120 122 116 117 115 117 113 112 110 109 108 108 104 102 103 97 96 96 92 88 92
69 70 71 72 72 75 74 75 77 77 76 71 79 84 87 87 91 91 94 94 96 98 101 103 106 107 109 112 113 116 117 122 124 128 130 136 139 146 150 149 145 140 136 134 132 133 133 134 131 128 128 127 125 123 121 120 121 119 120 118 116 117 117 114 114 111 110 109 107 107 104 103 102 99 98 96 92 90 84 91
70 69 70 72 70 73 74 74 76 77 78 74 75 80 83 84 86 87 90 91 92 94 97 98 102 102 104 105 105 106 111 113 113 115 115 118 122 123 126 124 128 125 128 130 129 130 129 127 125 126 125 122 120 120 121 119 120 117 117 116 116 113 115 112 111 110 108 107 105 104 105 102 101 98 94 92 89 86 82 89
67 67 68 71 71 70 73 73 75 76 76 76 73 77 80 82 82 84 86 87 90 91 93 94 97 96 100 99 103 105 117 109 110 111 113 117 118 118 125 122 126 126 127 126 126 127 124 124 124 122 123 118 120 117 117 115 114 114 114 113 111 110 110 112 109 109 109 108 106 104 102 100 96 95 92 92 86 84 81 87
66 67 68 68 70 71 71 72 73 76 74 76 74 75 76 78 79 78 82 84 86 89 92 95 97 98 100 100 101 103 104 104 107 108 112 114 115 116 119 120 120 122 122 124 123 123 122 124 120 119 118 117 118 115 114 111 112 112 112 111 108 111 110 108 107 107 105 105 104 100 100 99 100 94 93 90 86 83 81 87
65 66 66 66 68 69 70 71 71 72 74 71 75 75 76 78 78 81 81 85 87 89 90 92 96 97 97 100 99 99 100 103 103 105 108 110 115 114 116 118 121 119 120 122 125 122 122 121 121 120 116 117 114 115 112 111 110 112 111 110 109 108 108 107 106 106 107 105 105 103 101 99 97 93 89 87 84 82 78 83
65 65 65 67 65 67 69 70 72 71 72 73 74 74 75 75 77 78 80 83 86 88 90 92 92 93 95 96 96 96 95 99 102 104 106 108 110 111 115 116 120 122 122 122 122 121 120 122 119 118 116 111 112 113 110 110 108 110 109 109 106 107 106 106 107 106 105 104 102 100 97 93 91 86 84 85 81 78 77 82
62 63 64 66 65 67 67 68 69 70 71 70 72 74 74 74 75 77 80 83 85 87 86 88 90 93 92 94 94 94 96 97 100 103 103 107 110 111 113 115 118 119 120 119 120 120 121 117 117 116 112 111 111 111 107 109 107 108 107 106 106 106 106 105 104 103 102 100 98 94 94 90 88 85 82 78 76 76 74 81
61 63 61 64 64 65 66 66 67 69 68 70 71 70 72 73 74 75 77 79 83 84 84 85 85 90 91 92 92 92 93 96 97 99 100 103 108 108 111 115 114 116 117 118 119 121 118 120 116 116 116 112 111 106 106 105 104 107 106 106 105 103 102 101 99 99 96 93 92 90 88 86 82 79 79 76 75 75 73 79
62 61 62 63 63 65 64 64 67 67 68 70 70 69 71 71 72 75 76 79 80 83 82 84 85 87 88 90 89 90 90 94 95 97 100 104 106 109 110 112 115 117 117 120 120 120 120 119 120 116 113 111 109 107 105 104 106 104 102 102 100 99 98 95 94 95 91 89 87 84 83 82 79 76 77 75 72 72 71 76
61 62 62 62 63 61 64 64 65 66 66 68 67 68 70 70 72 73 76 77 79 81 80 83 84 85 88 86 88 88 89 92 96 96 100 101 106 105 110 113 115 116 114 117 116 114 117 115 114 109 108 106 104 104 101 102 101 101 100 99 98 97 96 93 91 87 88 86 83 82 82 78 77 77 73 72 70 68 67 75
60 60 62 63 62 63 63 64 64 66 65 68 68 68 69 71 71 73 76 78 78 78 79 82 83 84 86 85 85 86 89 89 92 95 96 101 102 104 106 107 106 109 108 108 110 110 113 114 111 108 104 101 100 100 98 97 97 96 94 93 92 93 91 88 85 87 84 83 81 80 79 78 76 73 71 67 66 67 68 75
60 60 61 61 63 62 63 63 63 65 66 65 66 68 67 68 70 72 71 76 77 78 80 81 82 84 84 83 84 84 88 90 91 92 94 96 97 98 99 100 102 101 103 104 107 106 112 109 107 102 100 97 97 95 95 95 94 90 90 90 91 89 85 86 84 83 82 82 81 77 75 73 70 70 67 68 69 68 69 75
59 58 60 59 62 60 62 62 63 64 66 64 65 64 68 68 69 70 71 74 76 76 79 80 81 83 81 81 80 82 85 84 87 88 89 91 91 94 94 96 96 94 98 99 99 101 108 103 102 99 95 93 92 90 93 91 89 89 88 87 86 86 84 83 82 82 81 78 75 72 68 71 70 70 70 70 70 68 68 77
59 59 59 59 60 60 60 62 64 63 64 63 65 64 66 66 67 68 69 72 74 75 77 78 78 78 79 79 79 80 80 81 82 85 86 86 87 88 89 92 91 91 93 95 99 99 103 104 101 94 93 91 89 89 89 88 88 86 85 85 84 84 82 80 79 75 73 73 73 72 71 71 72 71 72 72 70 69 70 77
58 58 58 59 59 60 60 62 61 62 62 62 63 63 63 66 66 66 66 70 71 72 75 73 74 75 75 75 76 76 79 77 79 81 82 83 83 85 83 86 87 87 89 93 98 96 101 104 102 97 93 89 89 88 87 87 84 85 81 80 78 75 73 72 74 74 73 73 74 73 73 74 75 73 74 72 72 70 70 79
57 58 59 59 59 61 61 62 59 61 60 62 63 62 63 64 65 65 66 67 69 70 71 70 72 72 73 73 74 74 74 77 78 76 79 80 81 81 82 84 85 85 88 93 96 99 102 103 102 98 91 87 87 84 81 80 78 75 72 74 73 73 73 75 76 75 76 74 76 77 76 78 75 75 74 73 74 73 73 80
56 57 58 59 60 59 59 59 60 59 59 60 60 62 62 62 64 64 64 65 65 66 67 69 68 70 72 71 71 72 73 73 75 75 75 76 79 79 80 82 83 81 84 87 92 96 115 117 108 91 84 79 77 75 74 76 74 74 74 74 74 74 75 75 75 75 76 76 79 77 81 77 77 78 78 78 76 77 77 82
