P2
80 80
255
105 100 101 101 104 106 107 109 114 114 116 117 116 117 118 119 123 124 125 130 132 134 132 134 136 138 141 141 145 145 148 145 148 149 149 152 154 155 157 159 158 162 161 162 165 164 163 165 163 161 162 162 160 163 161 160 161 161 160 158 161 157 158 155 154 151 149 149 147 145 144 143 139 138 136 138 132 132 128 137
101 100 102 103 102 107 109 111 113 116 119 121 120 121 120 123 124 127 129 129 129 130 132 137 140 141 142 144 145 148 148 152 155 154 153 154 155 157 159 159 159 161 162 166 164 164 165 167 164 165 165 161 164 161 164 165 161 161 162 161 160 161 159 158 156 155 154 150 149 149 147 147 145 140 139 136 138 134 134 138
99 100 104 106 105 106 110 111 113 116 116 118 121 118 124 126 128 127 128 130 130 133 133 136 142 144 145 146 146 145 148 145 148 147 154 154 154 157 160 159 160 164 163 168 170 168 167 170 167 166 166 166 166 162 165 164 167 166 159 163 161 160 161 155 156 154 155 153 152 151 151 147 146 147 141 140 139 137 134 142
101 103 102 105 106 111 111 111 111 118 115 119 121 121 125 125 128 131 130 134 134 136 134 136 137 140 143 144 145 150 149 151 150 149 152 154 155 158 161 158 161 163 165 166 169 171 168 166 167 165 162 160 157 159 157 161 154 157 156 157 157 158 156 156 155 155 153 152 153 149 149 148 147 147 146 142 141 138 141 144
101 105 104 105 105 109 112 113 116 118 118 120 120 125 125 129 126 129 129 129 132 136 137 139 143 141 144 145 145 145 152 153 154 157 158 155 160 156 158 155 148 142 139 137 137 140 140 141 143 145 142 145 145 146 145 144 144 149 148 143 146 141 139 138 136 135 132 133 133 133 135 141 145 143 144 146 144 140 140 145
102 103 104 106 108 109 112 114 114 116 118 120 122 123 126 126 127 131 134 136 138 136 139 140 141 147 146 148 149 149 142 139 131 133 139 139 142 145 147 147 148 147 148 153 153 152 151 153 149 149 146 144 143 147 147 145 149 148 148 146 148 146 145 143 144 141 140 140 138 137 137 134 133 131 128 126 127 133 139 148
100 102 104 108 109 110 112 114 116 114 118 120 123 122 125 125 126 130 131 138 137 137 136 133 127 124 127 130 134 140 142 144 144 145 146 147 146 147 151 150 151 153 152 153 154 154 151 151 151 150 145 147 145 148 147 148 149 152 150 151 149 148 147 146 144 143 145 143 139 139 141 137 134 135 134 134 133 130 127 131
100 104 106 105 108 112 115 114 113 116 120 119 122 121 125 125 126 121 114 115 122 128 134 135 140 138 139 140 142 143 146 146 147 146 149 150 147 150 150 150 151 151 154 154 157 157 158 154 152 150 149 146 147 147 150 147 151 149 151 150 147 147 144 145 141 142 142 143 140 142 140 140 137 137 138 132 133 132 131 137
99 103 105 105 108 109 111 113 114 116 119 120 118 111 110 115 121 126 129 131 133 137 138 140 141 143 143 144 145 146 146 147 148 149 152 152 153 151 155 152 155 155 157 155 156 158 157 155 154 153 151 148 148 149 151 155 153 152 155 148 149 145 146 143 144 146 142 143 142 143 143 141 140 138 137 135 134 133 132 136
100 100 102 103 105 109 111 112 108 104 106 115 120 122 126 125 131 134 135 136 133 138 136 140 142 142 144 145 145 148 149 147 150 150 154 153 156 156 153 158 157 157 158 162 160 163 158 159 157 155 154 151 149 153 153 152 152 154 151 149 149 149 144 144 147 144 145 145 147 146 145 142 140 140 140 139 137 134 131 139
97 97 100 102 105 99 100 108 111 118 117 120 124 125 128 128 128 129 136 136 138 138 137 144 143 146 148 148 147 150 151 147 153 155 155 157 158 159 161 160 160 161 161 161 165 163 162 161 159 159 155 153 154 156 155 157 156 154 153 153 152 151 146 147 147 145 145 146 148 145 147 145 143 143 140 138 138 137 134 142
93 92 90 89 98 109 112 116 117 120 120 123 124 125 129 130 130 134 136 136 138 140 141 143 146 147 147 149 150 149 153 152 154 154 156 160 160 158 163 163 162 161 163 165 164 164 165 163 162 163 160 158 158 151 157 156 156 155 156 154 151 147 146 147 146 148 147 149 149 150 148 145 144 144 142 140 138 138 135 142
89 88 84 76 91 110 112 113 117 118 121 124 127 130 129 131 133 136 137 139 139 143 143 146 147 147 149 152 151 154 153 156 155 155 159 160 159 160 162 163 163 164 165 164 162 168 167 168 163 164 162 161 115 65 145 159 157 158 156 156 152 74 78 106 132 145 148 152 152 150 148 146 141 130 109 133 139 139 137 144
87 82 78 67 86 112 114 116 117 118 123 125 128 128 130 133 135 138 140 140 142 143 144 149 148 149 152 150 153 154 156 153 156 153 159 162 163 165 165 162 84 111 145 162 166 168 169 171 169 167 157 78 63 112 89 160 161 159 161 157 140 71 117 63 62 70 105 152 152 151 102 73 69 57 56 117 140 139 140 143
79 78 73 64 78 110 115 114 117 121 123 126 128 130 129 133 137 136 137 141 140 143 145 147 149 148 151 154 155 157 153 136 85 70 149 166 165 166 167 158 91 71 86 64 73 131 174 170 169 131 61 82 108 55 60 151 158 162 160 157 104 82 124 87 98 58 120 153 152 148 74 97 92 57 59 98 142 140 141 138
74 74 69 67 76 112 114 117 119 122 125 127 126 130 133 134 135 139 140 145 136 68 75 100 129 146 154 155 153 117 72 93 79 133 113 165 169 167 165 138 124 74 133 59 57 148 173 172 153 60 76 152 146 103 75 95 161 164 163 156 68 73 96 63 89 69 149 157 158 152 87 98 97 131 86 86 142 141 134 74
76 78 75 74 77 112 115 118 120 122 126 125 105 90 80 69 113 139 142 141 129 109 139 122 75 69 152 153 157 76 112 81 71 140 75 164 168 168 169 109 149 105 87 91 59 168 175 178 174 72 125 145 64 68 90 65 158 166 164 149 59 70 116 96 138 78 157 159 156 154 110 117 72 92 99 70 145 145 139 90
83 83 81 77 78 112 117 119 122 124 125 125 80 98 116 107 90 138 142 143 123 65 95 72 89 74 154 159 156 119 106 56 126 82 60 163 171 173 171 80 146 135 131 64 68 173 179 178 176 143 84 172 151 133 58 99 163 169 164 114 62 124 92 135 60 128 162 159 159 159 129 70 91 59 55 64 143 146 142 124
84 88 89 80 79 111 117 119 122 125 125 126 70 87 113 90 73 137 143 142 116 117 56 98 105 82 156 158 161 154 74 69 117 142 88 135 171 175 172 62 112 113 104 61 100 180 183 183 182 174 76 126 126 69 150 172 171 170 168 156 143 113 76 65 61 161 166 161 163 160 144 71 60 77 110 141 148 148 146 145
88 90 91 82 80 104 118 121 120 124 126 129 74 92 61 58 64 137 146 148 110 127 65 64 63 92 155 162 163 161 76 115 150 64 81 100 174 178 176 92 73 83 67 56 149 180 179 185 185 181 139 60 97 175 180 182 176 172 170 170 173 170 168 159 153 168 169 169 164 161 155 149 154 155 154 152 152 151 149 152
91 93 94 83 80 99 117 121 124 126 128 129 95 82 85 97 88 135 145 151 117 69 68 112 63 104 159 163 167 166 124 60 76 101 154 174 179 179 178 179 177 164 140 104 178 185 185 189 189 186 177 157 185 186 186 185 182 182 179 177 176 178 175 173 174 172 171 173 168 165 164 164 159 161 157 158 154 153 151 157
90 94 95 87 82 91 117 122 124 125 128 133 115 59 63 66 78 129 144 151 151 150 145 127 93 121 163 166 166 167 168 133 161 173 178 178 182 183 182 185 185 187 187 184 188 189 190 191 192 189 190 186 194 189 190 187 185 183 186 185 181 178 177 177 174 173 172 171 168 167 168 167 164 161 161 161 157 154 150 159
91 93 96 92 81 83 118 120 124 124 127 132 133 133 134 138 141 145 150 151 149 155 155 157 160 160 167 164 169 171 173 172 175 179 181 184 184 185 189 189 188 187 191 192 190 192 192 192 194 192 191 195 195 193 193 192 189 187 187 185 185 183 179 166 180 178 177 176 173 173 169 138 164 164 165 162 158 153 155 157
92 93 94 94 84 83 116 121 124 128 128 132 135 138 140 143 144 147 149 151 153 158 157 160 162 164 167 167 171 172 175 177 181 182 185 183 183 188 191 194 192 189 191 193 195 196 199 198 199 197 194 195 195 191 194 193 189 193 190 189 185 160 75 82 182 180 182 178 177 175 149 59 77 153 165 160 159 155 154 163
92 95 95 95 85 81 110 121 124 127 129 134 135 139 140 143 145 149 150 154 154 158 161 161 165 169 171 173 174 177 177 182 179 183 178 190 190 188 193 191 191 192 193 192 191 198 199 200 198 162 141 125 108 94 123 194 197 193 192 182 96 110 165 88 171 184 185 181 179 170 71 128 107 68 125 164 163 160 159 130
92 95 97 96 89 83 102 122 127 127 131 133 136 139 132 121 142 149 152 156 156 160 161 78 130 166 171 172 176 178 182 174 162 110 72 186 193 195 194 167 93 86 80 77 93 202 204 204 197 67 119 79 108 155 134 198 199 197 140 71 117 157 71 150 102 183 187 184 177 101 60 161 113 108 62 126 166 160 121 71
95 95 95 96 94 83 91 122 125 130 132 135 137 139 107 57 65 132 152 155 156 161 148 105 129 75 152 174 178 179 128 76 71 148 61 168 194 196 197 161 156 146 130 137 96 204 205 205 196 88 162 96 192 106 157 200 198 197 103 104 88 145 59 139 74 184 187 182 150 57 113 149 110 79 73 166 166 140 64 140
93 95 97 96 97 84 85 120 126 131 132 134 134 137 77 63 55 57 78 151 156 161 109 72 108 69 57 99 178 183 136 95 161 153 130 110 198 201 202 171 154 140 153 73 98 210 210 208 197 83 77 127 81 63 178 204 211 204 177 58 79 117 61 141 64 160 189 182 88 58 135 64 99 71 160 168 170 161 91 142
90 94 96 99 99 86 83 116 126 129 134 136 137 138 70 123 122 128 93 143 158 157 83 157 143 108 75 112 184 184 178 73 131 137 174 74 194 202 202 177 67 179 114 95 104 212 213 213 199 124 180 90 101 94 190 212 208 207 198 88 156 176 92 103 186 192 191 188 182 144 63 55 57 129 172 171 173 168 150 80
93 95 96 96 99 91 84 108 124 130 133 136 139 129 86 81 112 129 75 152 161 157 72 133 150 115 85 163 184 189 186 94 130 154 118 60 186 207 209 187 118 127 174 141 112 213 217 216 192 107 128 114 88 73 208 216 215 211 209 168 63 85 183 198 201 197 198 193 194 186 177 95 93 181 179 174 175 172 163 137
93 94 97 98 98 95 84 92 123 128 133 136 140 141 134 77 62 97 109 158 166 165 167 126 72 151 88 178 187 190 191 163 138 84 89 149 204 211 211 194 96 102 112 124 169 222 221 220 214 204 207 210 213 214 219 216 217 216 211 201 178 209 207 206 203 201 202 199 197 194 191 187 184 188 179 180 175 174 174 175
94 94 96 97 99 101 84 84 122 129 130 137 140 143 144 148 135 71 137 159 166 167 169 170 170 112 130 185 188 191 193 194 156 195 204 206 210 210 213 213 215 219 219 219 224 227 230 228 226 229 226 226 226 224 222 221 219 217 214 213 213 210 209 208 209 202 204 203 200 195 194 193 189 187 183 181 178 175 175 179
92 95 95 97 98 100 88 81 117 133 133 135 140 140 136 148 151 154 157 160 165 167 172 174 176 181 187 187 193 193 194 200 202 203 208 211 214 215 218 218 221 226 224 227 231 230 228 230 228 228 230 231 227 228 227 226 226 223 223 219 220 218 218 211 213 211 204 203 201 198 194 194 193 190 189 185 181 177 176 182
91 95 95 97 99 99 94 81 105 127 131 138 140 143 146 149 154 154 159 165 166 169 175 177 180 184 186 192 193 199 203 200 208 210 212 215 219 218 223 227 224 221 229 231 233 238 232 234 234 231 232 227 215 231 232 231 231 225 219 212 213 210 202 212 215 213 209 205 152 78 120 171 188 191 188 188 183 143 135 144
92 93 94 95 96 99 97 82 89 129 133 139 140 144 149 151 154 104 136 162 166 171 174 177 180 181 167 159 196 201 205 202 205 194 87 209 221 224 225 230 219 72 144 228 237 240 239 240 233 199 122 80 91 226 237 237 234 206 71 107 66 133 110 192 215 217 213 197 73 124 182 100 82 138 192 190 181 88 79 111
90 93 95 95 95 99 99 87 83 125 133 135 140 143 146 150 129 87 63 116 165 171 175 152 97 66 75 87 191 204 205 202 135 74 138 109 220 228 229 235 141 87 149 91 174 240 244 239 92 193 174 157 69 222 241 239 236 185 150 114 109 94 106 213 221 221 213 163 78 110 196 152 80 189 197 193 173 117 93 77
91 91 94 95 97 98 100 93 82 117 133 138 141 143 147 144 85 86 79 75 97 171 176 157 90 116 156 61 172 206 208 101 129 95 160 69 187 230 234 224 118 166 116 145 72 232 246 245 90 137 92 113 150 196 239 244 244 163 177 94 176 70 82 221 226 223 212 79 105 89 194 171 125 201 200 194 150 80 70 117
89 91 92 97 95 99 100 98 81 100 129 134 139 144 146 135 86 91 105 130 65 143 177 178 96 142 82 85 98 205 210 202 115 149 97 98 76 222 235 132 155 227 237 85 166 250 251 253 135 181 160 186 155 158 249 250 243 132 101 167 155 187 114 231 232 224 175 68 140 83 181 78 196 204 201 195 118 136 122 65
89 90 92 95 93 95 96 100 85 86 128 135 139 143 147 150 143 83 115 101 115 172 179 183 157 77 179 97 82 204 213 214 168 62 113 80 198 234 240 240 158 138 230 106 248 255 255 255 203 74 69 88 158 233 253 253 247 121 95 95 97 104 166 233 235 230 225 210 165 109 86 131 205 210 204 199 138 125 121 127
87 88 91 94 93 94 97 100 95 81 122 135 136 143 149 151 154 152 97 95 167 175 179 186 184 99 143 189 204 208 213 218 220 109 148 228 237 239 242 245 244 242 143 219 253 254 255 255 250 225 252 255 255 255 255 255 252 251 250 247 247 247 241 241 238 236 235 232 222 221 216 214 215 209 207 205 200 197 195 199
85 87 89 91 92 93 94 98 98 80 111 131 137 144 146 153 154 158 159 162 170 174 182 184 187 192 199 204 207 213 214 219 223 225 232 235 240 241 248 253 253 250 255 255 255 255 255 255 255 255 255 255 255 255 255 255 255 252 253 250 251 248 246 242 237 236 235 231 229 224 222 221 216 211 208 205 198 198 197 201
82 84 88 89 91 94 95 96 98 82 92 130 136 142 143 151 153 156 162 168 169 176 180 185 189 194 195 201 208 213 219 221 225 225 232 236 240 245 248 253 254 255 252 255 255 255 255 255 255 250 255 255 255 255 255 255 255 255 255 252 250 248 250 245 242 243 236 231 205 215 225 222 216 214 213 206 203 199 197 203
82 82 86 87 91 94 94 95 97 92 83 127 136 139 144 148 154 156 156 109 85 169 182 185 188 187 88 129 203 210 217 224 211 169 169 176 190 251 255 255 252 207 95 170 255 255 255 255 254 113 109 238 255 255 255 255 254 237 181 117 86 217 250 252 250 245 234 153 76 95 220 226 222 218 213 178 94 97 152 194
81 82 84 87 89 92 93 93 97 97 80 116 135 138 143 147 149 133 86 106 132 101 179 181 187 155 122 84 92 139 217 228 197 121 87 134 104 249 255 236 110 216 123 133 246 255 255 255 131 104 158 69 121 251 255 255 119 191 129 134 156 188 253 250 247 225 115 88 83 71 107 219 223 217 209 86 155 162 74 98
79 82 81 85 88 91 91 94 95 97 81 99 127 135 138 144 147 133 103 114 146 133 128 181 182 88 119 152 109 92 217 224 212 125 148 193 89 247 254 244 96 95 198 109 118 255 255 216 211 228 197 70 105 255 255 255 146 153 119 156 179 155 254 253 225 108 161 137 79 164 161 147 226 221 171 146 123 78 71 178
77 82 80 85 88 91 92 95 94 96 90 82 125 133 139 141 147 149 125 125 93 92 119 180 184 131 100 120 161 180 219 224 220 75 133 95 125 250 255 255 192 157 229 121 170 255 255 219 128 154 97 142 244 255 255 255 196 212 144 69 68 121 253 255 251 161 83 107 111 81 148 228 226 213 98 102 97 161 110 207
78 80 81 83 85 88 89 92 89 95 96 77 119 128 133 137 146 148 153 115 90 160 175 182 185 191 191 142 96 213 223 227 228 193 199 206 210 255 255 255 255 130 166 255 255 255 255 255 255 195 82 202 255 255 255 255 235 84 108 163 217 249 255 255 254 248 157 72 113 203 232 231 226 219 180 120 93 79 183 208
77 79 79 83 83 86 88 91 91 92 95 82 104 127 132 136 142 144 152 155 157 166 174 179 184 192 197 200 207 215 219 222 233 237 239 243 251 255 255 255 255 255 255 255 255 255 255 255 255 255 255 255 255 255 255 255 255 255 255 255 255 255 255 254 255 253 244 179 231 236 231 228 228 220 218 215 208 201 205 210
76 77 78 80 82 85 86 89 90 92 91 87 88 121 126 131 137 144 146 152 155 164 167 175 182 187 194 201 192 206 218 223 230 232 235 235 250 255 255 255 255 255 255 255 255 255 255 255 255 255 255 255 255 255 255 255 255 255 255 255 255 255 255 255 253 253 248 244 240 235 235 231 226 220 218 213 211 206 204 208
74 76 78 80 82 82 85 88 88 90 90 87 79 116 123 127 133 137 142 100 85 91 89 160 178 182 179 105 77 150 214 220 227 222 131 147 183 255 255 255 255 105 131 239 255 255 255 255 253 215 165 173 255 255 255 255 255 255 237 203 254 255 255 254 253 248 211 177 236 232 230 227 224 220 210 198 171 205 202 207
73 76 77 78 79 82 83 84 87 89 89 91 81 107 117 125 128 133 137 100 111 76 66 140 173 167 99 132 96 83 187 219 212 127 117 193 113 239 255 255 182 190 196 146 131 255 255 180 144 142 151 122 255 255 255 172 120 178 110 72 232 255 255 252 242 162 104 146 175 231 230 225 215 187 99 103 99 201 200 206
73 73 76 78 79 81 81 84 85 87 89 90 85 93 113 118 122 127 131 112 94 77 98 121 166 173 135 118 174 129 103 210 219 150 173 151 150 103 255 251 151 176 150 236 181 255 255 242 89 195 183 112 249 255 255 209 188 187 194 136 191 255 253 226 97 177 173 135 89 175 226 218 93 113 71 85 107 187 198 203
73 74 75 76 76 81 82 82 85 87 87 86 88 81 105 112 116 121 126 122 80 84 86 114 160 166 167 115 116 142 196 209 217 216 105 88 174 243 255 255 253 153 99 134 255 255 255 255 115 225 209 112 208 255 255 242 128 220 216 198 147 253 254 222 80 177 127 199 124 169 217 213 137 94 176 185 158 154 193 195
72 74 73 76 77 78 79 81 82 84 87 89 86 78 102 110 114 116 121 123 126 133 139 145 155 160 167 168 175 188 195 203 208 215 212 223 239 249 255 255 255 255 249 246 255 255 255 255 207 222 247 255 255 255 255 253 109 116 156 196 230 251 245 244 212 93 83 101 209 218 214 209 193 71 124 107 175 187 190 194
70 72 74 74 77 79 81 80 82 83 85 86 86 82 94 103 108 113 114 118 122 128 124 138 145 150 158 166 163 177 183 190 199 206 214 221 233 241 249 255 255 255 255 255 255 255 255 255 255 255 255 254 254 254 253 249 247 247 250 244 245 244 241 235 228 209 160 215 212 213 207 203 197 132 177 191 188 185 181 188
69 71 73 72 75 75 78 80 81 82 83 86 85 83 85 99 104 106 112 111 116 81 69 112 135 146 149 141 101 112 165 179 190 186 127 137 142 194 243 249 255 159 226 255 255 255 255 254 248 247 244 242 246 241 239 239 241 236 241 243 241 237 240 231 226 222 215 213 208 205 202 199 195 193 190 186 182 179 177 182
70 70 72 73 73 73 76 77 79 80 82 84 84 83 78 94 97 101 103 109 81 88 66 81 100 134 139 77 75 96 86 143 178 177 115 105 84 139 228 241 229 177 134 142 157 255 255 215 151 135 141 125 229 230 222 160 152 168 182 207 234 230 229 215 166 199 203 201 201 201 191 187 185 172 155 177 176 175 169 176
70 70 71 73 73 74 76 77 78 79 80 81 82 83 78 90 94 95 101 103 90 66 89 80 88 129 126 96 97 83 71 157 170 167 116 112 85 122 218 229 173 166 161 216 194 252 248 204 155 179 145 121 214 215 208 111 168 148 121 131 221 221 213 174 180 156 105 104 186 187 169 95 101 93 91 163 167 165 162 165
68 68 70 71 72 72 74 75 77 77 79 79 82 81 81 84 90 93 96 97 100 98 68 83 117 120 126 126 108 87 123 152 158 161 96 111 98 124 207 215 177 145 155 179 234 245 239 193 135 88 103 107 199 204 194 109 103 139 141 151 209 213 205 126 181 107 124 109 180 178 159 86 120 114 105 158 157 155 151 158
68 68 69 70 72 72 72 73 74 75 77 79 80 81 80 78 87 90 94 94 98 100 101 106 110 115 119 126 128 129 138 145 150 154 159 167 174 181 194 204 215 225 224 218 239 232 229 206 168 149 131 131 187 190 186 94 88 144 113 163 200 201 179 130 163 145 107 169 175 171 154 90 88 122 96 147 148 146 144 148
65 67 67 69 69 69 73 72 73 75 76 78 77 78 79 75 83 86 89 91 94 96 99 102 106 110 114 117 119 125 128 135 141 146 153 157 164 172 183 193 204 213 221 227 224 219 212 203 193 187 183 178 178 177 174 174 174 174 179 185 192 191 191 188 174 142 135 168 164 160 149 92 122 141 143 143 142 137 135 139
66 64 66 68 67 70 70 72 72 73 74 76 76 78 79 79 82 83 84 86 88 92 92 97 101 103 109 109 112 116 120 124 129 132 135 143 149 156 166 176 186 198 207 210 210 206 197 185 179 173 169 166 166 160 158 158 161 163 168 168 174 180 182 180 179 171 166 162 156 150 150 144 142 138 136 134 132 127 126 128
63 64 67 66 67 67 68 70 70 70 71 75 75 77 78 79 78 79 82 82 85 87 90 92 94 97 100 102 105 108 110 115 117 122 125 131 132 140 147 153 166 174 187 188 188 185 175 167 160 155 154 152 148 147 143 146 147 147 150 153 158 164 165 167 164 158 155 150 144 138 138 131 130 128 127 123 121 118 115 116
62 63 63 65 65 66 67 68 70 70 70 72 72 75 76 78 79 80 80 82 84 86 88 88 91 93 96 98 102 103 106 109 110 113 116 117 120 126 129 131 135 139 144 148 151 151 149 148 144 140 138 137 135 134 131 133 134 133 138 140 142 146 148 148 146 145 140 135 132 128 122 118 117 118 114 112 108 107 106 108
61 61 63 62 63 65 65 67 68 68 70 71 72 74 74 75 78 78 80 81 83 85 87 88 91 93 96 97 96 98 103 106 107 112 113 116 119 122 124 125 127 129 131 129 129 131 128 131 128 127 126 124 122 122 122 121 121 121 122 124 125 127 129 130 130 129 128 124 118 116 115 112 110 106 104 104 101 100 100 105
59 60 61 62 63 63 64 64 66 67 67 68 70 71 73 73 75 76 78 81 81 83 85 89 94 93 94 93 95 100 115 103 105 108 111 115 115 119 119 124 126 128 129 127 129 129 127 126 126 124 123 122 123 120 119 120 116 116 117 116 115 111 116 113 114 112 111 111 110 108 107 106 104 104 104 101 100 99 96 102
59 61 61 63 61 63 64 65 65 66 67 69 69 69 72 73 74 74 77 78 79 81 86 88 90 93 94 95 93 97 99 98 102 102 108 111 114 116 115 121 123 122 123 124 125 126 123 122 125 123 119 119 117 117 116 115 115 113 116 112 110 113 111 110 112 111 110 109 108 107 106 105 103 101 101 99 98 96 95 100
59 60 60 61 62 62 63 64 65 66 67 64 68 68 69 71 73 73 74 78 80 82 84 87 90 90 93 96 91 94 96 99 101 102 105 107 112 115 117 118 120 122 123 125 123 124 121 120 120 120 118 119 116 115 114 113 111 110 110 112 110 111 111 108 110 107 108 107 105 105 103 102 102 100 98 98 98 94 93 97
58 59 61 61 60 61 62 64 65 66 65 66 67 68 68 70 72 73 74 76 79 81 84 86 86 89 92 93 90 91 93 96 99 102 104 107 111 111 116 118 120 124 124 125 125 122 121 122 119 118 118 115 113 113 110 112 112 111 108 109 108 106 107 105 106 105 106 106 104 102 101 102 100 100 98 96 95 94 91 98
58 59 60 60 61 62 62 62 63 65 65 64 67 67 68 69 70 72 76 77 80 83 83 83 84 88 89 89 88 89 93 93 97 99 102 104 108 109 113 115 120 121 122 120 121 121 120 119 118 117 114 113 112 110 110 108 108 108 106 107 106 105 105 104 104 105 104 103 101 102 102 100 100 99 98 95 93 91 91 96
58 58 57 59 61 61 62 63 62 65 64 65 67 66 67 68 69 71 73 77 79 79 81 81 82 85 86 88 88 88 91 92 95 99 101 102 107 110 111 114 115 120 121 122 121 121 118 117 115 115 113 111 109 107 108 106 106 108 104 103 106 103 103 104 103 104 102 101 103 99 99 99 97 96 94 92 91 90 90 96
57 59 58 59 59 61 61 60 62 62 63 65 65 64 66 66 68 69 74 75 78 78 79 79 83 83 85 87 87 87 90 91 96 97 98 104 105 109 109 114 117 120 124 124 121 121 119 114 117 114 112 110 110 108 107 104 105 104 104 102 101 102 101 100 103 102 102 98 100 99 99 97 96 94 94 93 91 90 88 93
55 58 58 59 59 58 61 61 60 63 62 65 63 64 65 64 67 69 73 75 75 76 76 79 80 81 86 84 84 85 87 90 91 96 98 101 103 106 110 114 119 127 132 133 125 120 119 118 114 114 113 109 107 106 107 102 103 102 103 102 102 104 101 101 100 100 101 99 99 99 98 97 96 96 95 95 91 88 86 92
54 55 56 56 59 59 59 61 62 61 63 62 63 63 65 65 66 68 72 73 75 76 77 78 79 80 82 83 83 83 84 85 88 90 91 97 99 101 103 106 111 122 128 127 121 116 112 112 111 111 110 108 107 106 105 103 101 102 100 99 102 100 101 100 99 101 99 97 99 97 97 95 95 92 92 88 88 86 84 90
56 54 55 55 56 56 57 59 59 61 62 61 63 62 64 63 64 66 68 72 73 75 76 77 79 81 79 79 79 81 82 85 87 87 89 93 94 96 98 102 107 127 135 135 115 110 108 107 105 104 103 104 102 101 101 99 102 98 99 99 98 98 98 97 96 97 96 94 92 92 91 93 90 89 86 84 85 84 80 87
55 54 55 55 57 55 56 56 57 58 59 59 61 61 63 64 63 66 65 72 72 74 76 77 77 77 76 77 76 75 80 77 81 83 85 87 89 91 93 97 98 108 113 108 104 101 103 100 99 100 97 99 97 97 95 97 95 95 95 94 95 95 94 92 92 91 88 89 89 88 88 88 85 84 83 81 80 79 77 85
56 55 56 55 55 56 56 57 57 58 57 58 57 58 60 62 63 62 65 68 72 73 75 74 73 72 73 72 74 74 75 76 78 81 82 84 87 85 90 92 96 106 106 104 101 102 98 95 95 93 93 95 94 95 92 93 91 91 90 90 91 91 90 89 88 89 87 86 85 86 83 82 82 80 78 79 77 76 75 82
56 56 56 57 57 57 56 57 57 58 57 58 58 59 59 59 60 59 62 64 67 69 70 68 70 70 69 71 71 73 74 74 76 78 79 81 85 87 85 88 95 105 110 105 98 94 94 93 92 91 89 89 90 89 87 89 88 87 87 89 86 84 87 84 86 84 81 83 83 80 79 80 79 78 75 76 74 73 74 79
56 57 57 57 57 58 58 58 57 57 57 58 59 59 58 59 60 59 59 60 63 63 63 63 66 67 68 69 71 72 71 74 74 73 77 80 83 85 87 90 93 98 101 102 99 96 92 90 91 88 86 87 86 85 86 85 84 85 82 83 84 81 82 81 81 80 80 79 79 78 79 77 76 77 75 74 72 73 72 78
56 56 57 57 57 57 57 58 58 56 57 57 58 59 58 59 60 60 60 61 60 62 61 61 62 62 64 63 63 65 66 67 71 74 73 76 81 81 86 89 92 118 131 129 102 92 89 88 85 84 84 82 83 82 81 82 82 81 80 80 80 79 77 78 78 79 78 78 77 76 77 76 75 73 72 73 70 67 66 72
