P2
80 80
255
107 103 103 103 105 107 110 111 113 112 113 115 117 119 122 123 122 124 127 131 129 134 133 135 134 139 139 140 142 140 146 144 148 149 151 153 154 156 156 157 158 159 158 160 159 163 162 163 162 163 162 158 158 155 153 156 154 156 155 154 155 152 150 148 147 147 144 145 142 142 139 141 135 136 134 135 133 132 132 136
99 101 103 104 105 106 109 110 111 115 115 117 119 120 121 124 122 126 128 128 132 131 133 139 139 142 141 143 142 147 146 149 149 150 150 152 154 153 156 158 159 161 160 163 161 165 168 166 164 164 166 165 164 162 162 158 158 155 155 154 156 154 152 152 148 148 145 146 143 144 140 138 138 137 136 136 135 132 135 140
98 101 103 104 106 106 110 109 113 113 114 114 115 113 117 116 118 120 119 123 124 128 130 131 133 134 136 138 138 142 147 148 150 152 157 156 155 157 159 159 157 161 160 162 166 166 169 168 167 167 164 168 165 167 163 165 165 165 161 157 158 157 154 153 150 149 148 147 145 145 144 143 137 138 139 138 137 137 135 139
97 99 101 101 103 103 103 105 107 108 110 110 112 113 116 117 118 121 122 126 124 127 126 127 130 131 130 133 134 135 137 137 139 140 141 142 145 148 154 155 157 161 163 163 166 168 166 167 168 166 165 166 165 167 166 163 163 166 166 161 161 160 160 157 155 153 149 146 148 146 146 142 145 141 139 137 138 138 138 144
93 98 97 100 102 104 105 108 110 112 113 112 117 117 119 119 121 123 123 124 126 131 130 132 134 136 134 137 138 138 140 139 138 138 138 141 142 140 142 142 144 145 146 145 146 152 154 157 160 167 166 166 165 167 166 164 165 167 165 166 164 161 164 163 160 157 154 153 149 148 150 148 146 143 142 140 139 140 139 145
89 101 101 102 103 105 108 110 111 115 118 118 120 121 123 123 125 128 129 128 129 131 132 137 131 137 136 138 137 139 141 142 142 145 145 142 145 145 144 147 148 146 147 149 148 149 146 146 141 142 140 141 144 151 157 164 166 165 167 164 165 163 163 161 160 161 155 155 153 153 152 151 149 147 141 143 139 139 140 145
92 101 103 106 108 110 112 112 115 116 118 121 121 122 123 126 126 127 130 132 132 133 135 136 137 136 140 140 140 140 141 142 143 146 144 146 148 146 147 150 149 151 151 153 152 154 150 151 149 146 146 146 144 144 145 143 139 143 152 160 162 162 160 160 159 159 159 158 156 157 156 152 151 151 146 145 146 144 140 150
96 102 106 107 109 113 113 114 113 117 119 121 121 123 126 128 127 130 133 131 133 135 138 136 141 138 140 144 142 141 144 144 144 146 148 147 148 152 149 150 153 154 156 155 153 154 153 154 151 148 147 147 147 146 148 149 151 149 148 148 142 141 134 144 153 155 157 159 157 158 158 159 157 152 153 148 145 148 143 151
97 105 106 108 111 111 112 116 118 119 122 121 125 124 127 129 129 130 131 132 136 138 135 140 140 141 144 143 144 147 148 147 146 151 152 151 152 152 153 155 156 156 158 158 156 157 157 155 153 152 148 149 147 147 149 150 153 152 149 148 145 145 145 141 143 140 135 141 152 159 160 160 160 154 156 153 151 148 147 154
99 105 107 109 110 114 114 118 118 118 121 123 123 126 129 129 133 133 133 137 135 138 140 139 142 142 144 148 145 147 149 148 151 148 151 152 152 153 157 156 157 158 160 159 160 158 159 156 154 154 152 147 149 148 153 154 153 153 150 148 147 146 143 145 146 144 145 145 141 144 139 148 156 157 156 156 154 153 148 156
102 105 108 111 112 113 116 117 120 119 121 122 126 126 127 132 130 133 135 134 137 138 137 141 141 144 145 149 148 149 151 150 153 152 151 153 153 157 160 161 164 162 162 162 164 160 160 159 157 157 153 153 152 151 155 155 154 152 154 152 147 150 146 146 145 147 147 147 146 145 145 144 141 141 145 152 150 151 149 157
102 106 108 110 113 114 115 118 119 114 111 111 111 113 116 128 131 133 137 136 117 110 123 133 143 145 145 147 149 148 152 152 152 155 153 155 154 159 161 160 163 165 161 164 166 164 163 163 161 161 158 155 157 156 157 156 156 156 155 152 154 149 151 150 145 146 147 150 149 148 149 145 143 144 141 139 138 141 146 156
105 110 109 112 116 117 117 118 112 90 99 89 102 104 106 131 134 136 139 123 89 110 113 113 120 131 143 150 151 155 151 149 142 124 108 127 157 159 159 162 161 159 156 166 165 167 164 163 163 166 163 164 161 158 158 158 157 158 157 154 153 152 155 151 150 150 151 151 155 149 147 147 146 145 142 141 140 139 136 141
105 109 112 111 113 116 117 118 97 86 82 91 103 82 101 130 132 137 137 104 88 106 111 99 93 110 135 150 151 147 109 88 82 88 91 124 157 165 162 165 157 108 101 125 148 168 168 170 167 168 166 164 159 143 149 160 161 156 159 156 156 154 155 153 149 154 152 154 154 152 150 149 148 145 142 141 142 140 138 142
104 107 111 114 115 118 119 116 91 83 77 99 91 74 100 129 136 136 137 96 88 105 88 73 86 89 144 153 154 119 90 93 99 79 95 123 153 163 165 164 144 105 92 86 92 117 147 169 173 170 170 135 86 82 130 161 161 160 160 141 141 149 156 156 155 156 154 154 151 152 151 149 149 146 146 145 141 140 137 146
106 109 111 113 115 118 118 120 93 72 94 85 75 65 100 132 137 137 138 84 93 74 65 95 87 104 150 154 155 129 111 77 63 103 119 105 147 163 166 164 124 113 109 108 77 65 134 173 169 159 92 83 90 70 111 155 165 161 161 115 86 80 120 150 156 157 157 155 152 147 151 150 149 149 147 146 145 141 142 145
108 109 113 116 118 120 122 119 93 76 65 76 70 89 102 131 138 140 137 84 97 76 78 89 63 114 154 154 154 146 102 69 77 114 93 86 142 166 170 168 108 117 143 110 80 78 153 175 168 101 68 125 122 72 90 147 166 164 151 114 122 89 63 93 142 159 131 114 99 86 116 146 151 149 148 135 144 143 142 147
104 111 113 115 118 119 120 125 100 78 63 81 78 81 95 131 140 138 133 97 97 64 89 85 59 127 153 158 157 156 106 95 87 140 88 93 133 170 170 164 104 113 118 107 63 105 173 179 175 121 115 113 84 101 97 136 165 166 129 85 95 95 82 108 148 162 120 100 81 66 98 143 150 143 119 113 122 141 141 149
104 112 113 117 118 121 123 123 107 86 92 92 106 100 121 137 140 145 136 116 116 100 109 75 66 140 156 159 163 162 123 97 111 93 73 70 138 171 176 152 75 107 114 119 67 133 179 181 181 154 109 148 124 81 64 122 169 164 106 73 84 106 102 137 166 164 122 90 116 105 100 142 146 118 108 82 98 137 146 148
105 113 116 117 120 123 122 128 117 108 110 113 117 120 130 139 145 146 145 144 142 133 124 108 110 156 158 162 162 164 144 85 93 102 124 149 171 173 175 165 129 109 100 61 66 158 181 183 183 175 115 126 100 79 141 175 174 160 90 105 113 94 108 151 167 167 127 108 89 92 102 145 151 99 114 90 76 129 145 151
104 113 116 117 119 120 123 126 126 132 132 133 135 137 139 142 142 146 147 151 153 153 154 151 148 160 161 163 165 164 165 143 156 168 173 172 177 177 178 183 178 173 155 126 123 181 184 187 189 187 129 71 120 174 182 183 179 177 167 132 77 71 124 169 172 170 131 92 73 73 101 148 154 115 88 105 73 122 148 152
104 112 117 117 122 122 126 126 128 131 133 137 136 141 139 144 145 146 149 152 154 154 157 157 163 164 165 166 167 167 169 170 173 173 174 177 179 182 186 185 186 185 186 184 185 193 191 192 193 187 175 176 192 187 185 187 184 185 182 180 176 160 159 174 174 173 153 116 123 134 150 160 161 133 71 95 116 127 144 154
103 116 117 120 121 123 125 128 129 130 135 113 119 135 143 144 147 148 150 152 153 154 146 158 164 165 164 170 170 171 169 172 176 179 178 180 182 183 184 187 188 189 190 193 193 190 193 193 196 191 190 194 191 193 191 192 190 191 188 184 185 182 182 177 177 176 176 172 167 168 165 166 164 151 114 121 141 151 153 157
100 113 117 121 121 126 128 129 133 134 130 86 96 112 129 145 147 149 151 150 154 146 110 130 157 166 169 168 170 171 173 175 178 179 176 179 184 188 191 192 189 190 194 194 193 196 197 197 195 195 194 195 197 194 193 197 191 191 190 188 187 183 185 183 181 176 176 176 173 172 168 169 166 163 159 155 155 154 151 157
97 114 117 119 123 122 125 129 131 133 101 58 68 84 105 121 141 148 153 155 153 99 103 122 126 148 167 171 176 179 173 170 153 134 107 155 185 189 190 192 188 184 190 190 193 198 198 196 196 193 194 195 193 195 196 195 195 194 192 174 131 183 187 184 187 178 157 170 177 175 173 171 166 160 159 160 158 156 155 158
94 113 120 122 123 125 128 129 132 132 73 73 76 67 83 116 117 152 155 158 149 73 121 110 74 103 132 166 175 175 129 91 90 116 70 129 190 192 197 193 92 98 81 81 93 191 204 202 187 83 80 79 80 123 196 197 198 192 135 118 102 171 191 186 187 175 103 75 159 176 175 174 165 127 120 163 160 157 155 161
90 114 116 122 124 125 125 131 132 118 70 81 85 77 94 81 111 150 154 156 117 96 118 113 74 72 81 164 178 179 105 96 128 152 76 106 188 196 198 195 104 182 137 95 99 199 203 204 177 98 128 152 157 144 202 202 170 92 130 128 141 144 188 191 184 119 128 110 83 156 173 171 126 101 80 153 162 161 156 165
84 112 120 121 125 125 130 129 133 104 78 85 98 116 122 78 128 152 157 157 85 108 153 118 121 91 79 171 182 183 143 105 138 135 151 89 186 201 204 198 102 118 173 82 81 205 210 209 170 80 76 177 85 165 205 207 148 92 118 77 123 105 193 194 152 79 132 114 79 132 175 123 117 84 96 103 160 163 159 164
79 110 118 123 123 127 129 128 133 108 104 85 92 93 100 80 143 153 157 156 104 100 135 105 124 95 133 180 183 185 178 88 105 139 166 64 171 202 204 199 69 136 141 128 91 210 214 212 149 165 123 66 99 187 209 211 190 70 99 86 108 89 193 190 92 92 105 99 111 168 179 123 126 142 103 108 163 166 164 164
77 105 119 121 123 125 128 132 132 134 118 104 93 88 87 114 151 153 159 159 156 128 117 99 118 77 171 182 185 184 186 104 139 102 97 75 164 202 208 204 97 143 151 121 111 210 218 215 131 181 175 159 74 206 217 214 204 103 145 115 137 193 200 201 180 86 64 76 166 183 188 173 88 108 124 149 167 167 163 165
75 100 118 120 123 126 130 131 133 137 139 140 127 102 91 138 154 158 162 165 166 167 160 126 119 127 181 181 185 187 189 151 115 127 162 190 204 210 211 211 138 140 139 142 176 220 224 223 175 164 171 175 186 218 223 220 215 154 110 194 211 210 209 206 204 188 106 154 191 192 188 181 129 134 161 177 172 170 166 167
76 91 117 121 125 129 130 132 136 136 138 142 143 144 135 147 155 158 161 164 169 171 177 176 167 172 183 187 191 192 193 194 194 200 204 205 210 214 219 218 218 224 223 225 224 229 229 227 227 228 226 224 225 224 226 226 221 219 217 215 216 214 214 208 204 201 199 198 196 194 191 189 180 169 180 179 177 169 170 164
77 84 117 122 125 129 130 133 133 140 142 142 146 146 134 154 157 160 163 167 170 172 174 176 180 182 187 188 194 193 198 198 205 204 205 214 212 212 220 221 224 224 227 230 229 232 229 234 231 232 233 233 231 230 228 227 226 223 221 220 218 219 216 210 211 207 202 203 200 200 192 190 190 188 185 182 177 174 173 162
74 78 113 122 124 130 131 133 135 140 139 143 143 130 116 142 159 163 166 170 168 174 176 178 177 173 179 191 196 199 200 203 204 205 190 214 215 220 227 225 228 210 230 231 231 234 234 236 236 233 232 224 232 232 234 231 225 222 222 222 223 221 219 214 146 183 203 207 204 201 181 164 160 163 185 185 182 179 171 160
75 76 109 122 123 127 130 132 135 140 144 145 130 100 70 112 140 158 166 170 171 166 151 140 125 121 126 192 198 201 203 202 189 130 78 206 224 224 227 231 211 70 131 227 240 245 242 237 214 139 87 103 235 241 240 206 86 87 107 107 220 229 223 177 94 150 104 154 208 204 121 90 92 106 191 185 184 178 171 158
75 76 100 123 125 130 130 135 137 142 141 137 110 78 71 75 101 137 163 169 174 144 92 91 87 107 71 188 196 203 198 149 79 122 151 115 220 232 230 231 113 132 172 82 184 247 245 136 186 167 157 81 242 243 244 171 153 140 106 119 228 231 222 106 128 191 109 188 213 201 116 85 126 138 194 191 188 185 168 164
75 74 87 120 127 127 132 136 137 138 141 111 92 82 91 95 93 79 141 169 172 161 75 107 118 108 62 160 202 203 189 100 137 138 169 65 199 235 236 193 135 159 158 99 126 248 248 179 146 84 117 110 238 250 247 141 139 150 95 142 235 236 190 90 115 189 126 219 214 189 127 85 93 175 195 194 191 186 161 167
74 75 78 118 124 130 132 133 138 141 139 105 97 78 120 123 103 73 114 170 177 175 106 135 108 110 97 91 198 203 207 128 156 134 71 99 101 232 237 110 126 237 216 81 237 251 255 224 185 150 127 132 236 253 249 121 115 127 155 194 243 241 150 106 93 140 198 224 219 161 112 98 102 198 201 196 193 185 159 165
78 74 75 112 124 130 130 136 139 141 142 141 106 79 117 102 90 100 155 170 173 180 162 75 147 150 88 114 197 207 210 208 79 86 76 136 217 239 246 239 167 142 203 185 253 254 255 248 78 95 181 244 255 255 255 192 195 201 212 242 249 244 239 231 206 182 230 226 226 216 206 202 200 205 201 197 196 184 159 167
81 74 76 100 124 128 134 134 138 141 142 144 143 129 105 101 100 148 167 174 176 177 181 107 110 131 161 194 205 212 215 219 199 107 190 234 239 244 249 247 253 247 163 254 255 255 255 255 255 255 255 255 255 255 255 255 255 253 255 253 252 248 245 244 239 235 234 231 227 224 220 218 213 209 206 202 195 170 162 166
86 73 73 83 121 128 127 133 136 138 140 147 146 151 147 114 140 161 166 174 176 180 183 181 185 195 198 203 210 211 218 219 221 222 235 237 241 246 251 255 255 255 255 255 255 255 255 255 255 255 255 255 255 255 255 255 255 253 255 254 253 252 251 226 232 243 237 239 227 193 212 219 219 214 211 204 199 164 161 166
89 75 73 76 118 125 128 133 139 139 140 145 149 152 154 160 160 165 168 169 177 181 182 188 188 193 196 204 209 214 223 224 229 230 235 241 244 250 255 254 255 254 231 255 255 255 255 255 183 247 255 255 255 255 255 251 206 131 243 255 255 254 200 104 148 236 241 239 200 142 153 123 208 216 211 207 197 162 160 164
92 80 73 72 110 125 128 131 135 139 140 145 146 150 155 150 134 150 166 171 176 181 186 185 145 156 192 204 211 215 217 218 191 190 189 189 240 254 255 255 229 147 83 244 255 255 255 229 135 80 142 253 255 255 129 140 143 137 232 255 253 183 148 81 102 175 244 236 126 169 112 114 219 217 213 210 186 163 161 165
90 86 74 73 95 125 126 129 134 137 142 146 145 149 137 123 108 90 155 168 178 178 185 172 111 105 83 151 199 215 221 212 93 118 144 133 206 254 255 171 117 221 131 125 255 255 255 155 167 156 126 186 255 255 131 124 153 151 219 255 218 127 135 137 123 189 241 208 148 129 155 203 223 220 214 208 171 162 160 162
91 91 74 73 79 120 125 131 132 135 140 142 142 123 112 92 117 102 91 162 176 181 182 137 88 141 79 134 106 212 223 220 102 110 128 107 204 255 255 175 87 177 193 89 229 255 181 210 164 121 128 255 255 255 165 184 76 83 212 255 255 183 102 146 213 249 247 205 166 147 138 228 226 223 219 209 165 164 156 160
88 90 81 72 74 113 125 129 131 136 137 140 143 102 84 122 134 117 94 100 170 177 169 100 103 131 161 78 142 214 222 223 86 134 175 165 199 255 255 255 121 190 151 201 255 255 255 227 105 97 248 255 255 255 180 162 236 255 255 255 255 254 184 234 255 252 249 244 239 229 231 230 223 221 215 196 163 160 153 158
89 89 87 74 72 105 121 127 128 132 136 137 141 141 92 126 123 118 105 112 145 177 176 130 93 107 130 134 203 219 226 227 127 136 135 155 215 255 255 255 239 169 253 255 255 255 255 255 255 255 255 255 255 255 255 255 255 255 255 255 255 255 255 255 255 252 247 244 240 232 231 235 226 222 215 178 161 157 149 152
86 88 86 76 72 86 118 123 127 131 134 136 140 146 141 95 111 103 109 156 172 179 183 183 185 165 119 154 217 219 228 231 236 240 249 253 255 255 255 255 255 255 255 255 255 255 255 255 255 255 255 255 255 255 255 255 255 255 255 255 255 240 170 246 254 250 240 224 130 162 233 233 228 221 212 167 159 154 148 150
87 86 88 82 72 74 114 119 122 129 131 135 138 143 147 140 108 131 161 166 169 174 182 187 189 198 201 206 213 218 227 234 243 243 247 255 255 255 255 255 251 248 255 255 255 255 255 255 233 161 254 255 255 251 198 126 105 249 255 255 224 145 160 152 241 236 155 110 110 149 223 229 227 223 201 161 153 148 146 146
84 84 87 86 74 71 105 116 122 127 128 132 134 141 144 149 149 154 162 163 168 176 183 185 190 194 181 194 212 216 224 234 239 220 178 171 255 255 255 255 175 142 131 235 255 255 184 113 142 167 228 255 255 155 171 181 126 231 255 203 99 171 135 117 203 229 133 150 196 148 212 226 222 219 182 156 151 144 138 141
84 84 86 86 77 70 89 114 119 124 127 130 134 137 142 141 144 145 148 151 165 169 175 181 178 155 106 84 201 215 223 220 184 128 126 170 231 255 255 233 118 152 159 157 253 255 209 133 176 199 181 255 255 184 192 217 181 205 255 228 132 127 113 200 228 232 175 98 150 214 219 218 217 210 163 154 145 140 134 137
84 85 83 84 84 72 75 112 117 120 122 127 130 134 137 116 104 100 91 80 126 167 173 163 131 89 111 116 93 212 223 216 124 144 184 159 102 253 255 158 226 208 216 196 255 255 243 140 208 165 193 255 255 210 105 154 213 246 252 244 219 132 207 226 225 221 208 207 214 213 215 210 207 194 151 148 142 134 131 134
81 84 83 85 82 73 71 103 112 117 120 122 128 128 135 102 81 72 76 62 102 162 169 164 93 141 163 166 109 138 218 225 190 144 106 169 189 255 255 255 218 110 131 255 255 255 255 205 248 255 255 255 255 255 254 254 250 248 243 238 229 224 225 222 216 215 207 202 202 204 201 201 198 171 148 142 134 131 128 128
82 84 83 82 84 79 71 92 109 112 116 119 122 125 129 113 85 77 79 80 95 154 161 166 155 96 150 112 126 197 213 221 227 162 151 240 255 255 255 255 255 255 255 255 255 255 255 255 255 255 255 255 255 255 255 251 244 237 233 217 188 201 207 210 199 184 136 99 152 189 187 186 183 152 140 135 130 122 122 122
81 82 83 82 84 85 72 77 105 109 110 113 119 121 124 122 74 70 88 93 83 147 156 165 168 150 113 160 191 199 207 216 224 232 242 254 255 255 255 255 255 255 255 255 255 254 248 237 230 225 250 252 240 177 152 137 169 228 215 171 161 126 126 187 176 97 139 124 142 177 175 174 165 140 133 130 125 120 115 119
80 80 82 83 83 83 75 71 97 105 105 111 113 116 119 121 100 104 117 126 136 148 153 157 163 168 172 179 187 192 200 209 215 225 234 241 253 255 255 255 177 145 166 211 248 245 178 155 146 172 223 239 224 159 197 143 165 213 199 131 131 90 133 179 169 104 98 121 140 166 161 158 147 132 124 122 117 113 110 111
77 80 80 81 81 80 80 70 88 100 104 106 108 112 117 118 121 123 127 133 136 140 146 150 157 157 143 158 171 182 191 203 182 122 121 105 145 254 255 246 145 148 119 140 231 232 156 121 167 130 209 226 209 165 176 167 182 208 179 110 123 107 161 172 164 117 137 156 156 154 149 145 131 122 116 114 111 107 104 109
77 77 80 80 81 81 82 73 77 96 100 102 105 108 110 113 119 117 109 110 126 135 139 145 146 133 92 91 105 136 176 189 173 118 138 99 144 247 252 224 171 127 141 170 223 221 151 133 84 108 197 210 203 170 186 190 200 197 192 181 172 164 163 158 156 153 150 146 146 140 135 130 119 115 112 107 106 104 101 103
76 79 78 79 80 80 81 76 73 93 97 97 101 104 104 109 110 102 70 68 84 114 128 137 137 100 72 83 102 85 167 178 166 114 131 131 149 235 248 227 176 135 120 199 210 203 191 182 185 185 193 193 194 198 198 195 191 188 180 168 164 155 152 145 143 140 135 133 127 126 123 117 113 109 107 104 101 98 94 101
75 75 77 78 79 80 79 79 71 83 92 95 98 100 102 105 99 78 74 65 83 75 106 130 121 86 91 109 86 120 161 167 167 106 131 159 188 224 236 234 230 221 205 204 198 194 187 181 180 177 174 173 177 178 176 179 173 170 161 153 147 142 137 133 128 126 123 121 118 117 112 111 108 106 103 99 97 96 92 98
74 74 76 77 79 79 79 78 73 74 89 91 93 96 98 100 91 73 71 88 75 80 117 123 127 118 101 83 91 146 151 161 164 174 182 191 206 211 222 219 218 209 199 191 180 174 172 164 164 158 160 156 158 157 158 158 159 153 148 143 137 129 126 122 119 116 114 114 112 112 107 109 106 102 101 98 96 90 89 92
74 73 75 76 77 76 79 79 77 71 85 91 89 92 96 95 100 97 77 62 77 109 114 119 124 125 128 130 131 139 146 147 153 161 169 178 187 197 202 203 201 193 178 171 164 157 154 149 148 143 142 139 141 139 137 135 131 126 124 122 121 118 120 117 118 115 112 111 110 108 106 107 102 100 96 95 91 87 86 91
72 72 74 74 76 77 78 78 77 71 79 85 88 91 92 94 97 98 99 97 102 107 110 114 115 120 121 122 126 131 133 137 139 147 152 159 168 176 180 181 176 167 161 151 148 143 138 135 134 131 129 128 127 127 125 125 124 123 121 119 120 116 117 114 113 111 111 109 107 107 106 102 101 98 96 91 90 85 84 90
70 72 72 74 74 76 77 76 76 74 73 84 85 87 88 93 94 94 97 97 99 103 106 108 108 113 112 115 120 119 122 124 128 133 135 143 145 147 145 142 140 135 133 130 132 132 132 130 132 127 127 126 124 122 122 122 120 121 120 118 116 116 114 113 110 110 110 108 106 105 103 100 99 96 93 89 87 84 83 87
69 71 71 73 72 75 76 76 76 75 70 80 82 83 85 88 89 91 93 93 96 97 101 101 106 106 106 108 108 108 115 114 115 117 117 122 122 126 128 125 128 128 128 130 128 130 127 127 127 125 120 122 121 120 119 120 117 116 115 115 115 112 111 112 110 111 110 107 102 102 102 98 94 93 90 88 85 83 80 86
67 70 71 72 72 72 75 73 75 76 72 76 79 80 80 84 85 87 89 91 91 91 97 98 100 100 101 100 104 107 118 109 111 113 117 119 119 122 125 124 126 127 127 124 126 126 124 124 122 122 121 118 117 118 116 117 114 112 114 112 113 110 110 110 110 108 106 105 105 102 101 98 94 92 91 88 84 82 78 83
68 69 70 69 71 71 73 72 74 75 75 75 77 78 79 80 82 84 85 85 88 90 94 95 99 100 102 101 101 102 104 103 109 109 111 114 117 119 118 120 123 123 124 125 123 123 122 120 121 120 118 117 116 115 114 113 112 114 113 109 110 112 110 108 107 106 108 106 105 103 100 96 93 88 87 85 82 80 76 82
66 68 68 67 68 71 71 72 74 75 75 72 75 77 79 80 80 81 81 87 90 91 94 95 97 100 101 103 101 102 102 104 106 105 110 111 113 116 118 120 120 122 123 124 125 124 122 120 119 118 117 116 115 113 112 111 110 110 109 109 109 108 109 108 108 108 107 106 100 98 95 91 90 85 83 80 79 78 73 80
65 66 67 67 66 70 71 71 72 73 73 74 75 77 76 78 79 81 82 86 89 90 93 94 95 96 99 101 101 98 98 101 104 104 107 112 112 116 118 119 121 120 125 123 124 121 120 119 117 116 115 111 112 111 108 111 107 109 111 110 109 108 109 108 106 104 101 99 97 92 91 89 85 82 80 78 77 74 74 79
63 64 65 66 68 68 69 71 70 72 73 72 74 76 76 76 77 80 81 85 86 88 90 89 91 94 96 95 98 96 96 99 103 103 104 109 113 116 116 118 120 120 121 121 120 119 119 118 116 115 113 110 110 108 107 108 106 109 108 109 106 107 106 103 100 99 95 94 91 88 87 83 82 80 78 75 74 74 70 77
63 64 62 65 66 68 68 67 69 70 71 71 74 73 74 75 75 79 79 81 85 85 88 89 88 93 92 96 91 94 96 96 99 101 105 107 109 111 114 115 116 116 119 120 121 121 119 117 115 111 114 111 108 106 108 104 105 106 105 103 103 99 100 97 95 94 92 88 88 85 83 80 79 77 75 73 73 70 69 73
62 62 64 65 66 67 65 65 69 68 70 71 70 70 72 73 75 75 79 82 82 84 84 87 88 88 90 92 91 91 95 95 97 100 102 106 107 110 112 115 118 117 119 120 119 120 119 115 115 113 110 109 107 106 106 101 102 103 103 100 97 96 96 93 91 89 87 85 82 81 79 79 74 73 71 70 67 69 68 76
61 62 64 64 64 62 65 65 66 67 67 68 69 70 71 70 73 74 77 78 80 83 82 84 87 86 90 87 90 89 93 93 96 98 101 104 106 109 114 114 116 114 114 116 114 112 111 112 111 107 106 102 101 101 100 98 101 97 99 96 95 93 90 89 86 85 85 82 81 79 77 77 73 70 68 68 68 68 70 77
60 61 62 63 63 64 64 65 66 66 68 68 68 69 71 71 71 73 75 79 80 81 83 83 84 86 89 87 87 88 90 92 95 97 99 102 105 106 106 105 105 110 109 107 109 109 107 107 103 102 100 99 99 99 96 94 95 94 92 91 91 90 90 86 83 84 83 80 79 77 74 71 69 69 69 69 68 68 70 78
61 61 61 62 63 63 64 64 65 66 67 68 68 69 69 70 71 73 72 77 78 80 80 82 83 86 85 83 86 86 88 89 94 93 95 98 99 99 102 101 101 100 102 102 104 104 105 105 101 97 95 95 95 92 93 93 91 89 89 88 88 87 87 86 84 84 80 77 73 71 68 71 70 69 70 70 70 71 69 79
61 59 61 61 64 60 63 63 65 65 64 65 65 65 67 70 69 70 73 75 77 78 80 82 83 84 82 83 84 86 87 85 89 90 90 93 94 92 94 95 95 96 96 96 100 99 103 98 98 94 94 92 90 89 91 89 87 87 85 86 85 84 85 83 79 74 73 73 71 72 71 72 72 73 72 70 71 71 69 78
60 60 60 60 61 61 61 62 64 64 64 65 67 65 67 66 69 68 72 73 75 77 77 78 79 79 80 81 80 83 82 82 83 86 85 89 87 87 89 90 91 93 93 95 96 96 97 97 96 92 91 90 87 88 87 87 87 86 84 83 80 77 76 75 77 76 75 76 76 74 75 75 75 74 74 73 72 74 71 80
59 59 59 60 60 61 61 62 63 62 63 63 65 65 66 67 67 68 70 71 72 75 75 75 76 76 76 76 77 78 78 78 80 81 82 83 86 86 84 85 87 88 91 93 97 93 97 99 98 93 91 86 87 86 84 83 80 77 74 75 74 75 75 76 79 78 75 77 80 77 76 78 78 77 74 76 74 75 75 82
58 58 59 60 60 61 61 62 61 62 63 62 63 64 63 64 65 66 65 68 69 71 72 71 72 73 75 74 75 76 76 78 77 77 79 81 81 83 83 85 85 86 90 92 96 98 98 98 95 91 87 83 80 76 75 75 76 74 74 76 75 75 78 78 79 79 79 82 82 83 83 82 79 81 80 77 78 78 76 84
57 58 58 60 60 59 59 59 61 61 62 60 62 63 63 63 64 65 66 67 67 68 69 69 71 70 72 73 72 74 74 72 74 77 75 77 77 80 80 81 83 82 85 87 92 95 107 99 93 82 78 76 77 75 75 76 75 74 76 75 74 75 75 76 77 81 79 83 87 88 86 87 86 85 86 86 82 81 80 88
