P2
80 80
255
105 101 102 104 104 109 108 112 114 115 117 118 119 120 121 123 126 126 129 127 130 131 134 134 137 140 143 144 147 143 150 150 151 151 150 153 156 158 156 158 160 158 162 162 164 164 164 165 164 164 163 161 162 161 160 161 164 163 161 160 160 157 154 151 150 148 148 147 145 143 141 139 137 137 135 134 131 131 128 137
100 101 102 105 104 109 109 110 112 114 115 119 119 121 126 125 126 125 129 129 129 132 133 137 140 142 144 145 146 149 145 153 152 151 153 153 155 155 159 159 161 164 163 169 163 167 167 165 169 168 166 165 164 165 163 164 161 162 163 161 161 160 158 156 156 155 153 150 148 146 144 144 143 139 139 137 134 133 131 138
99 102 103 105 107 110 110 110 115 115 114 118 122 122 126 124 128 128 128 132 133 136 135 138 139 143 141 142 144 146 148 149 152 152 150 155 154 156 160 161 161 163 164 164 169 169 168 168 168 169 165 168 165 163 162 166 164 166 165 163 161 163 160 156 155 155 153 152 151 151 148 147 146 141 140 138 136 134 133 140
101 103 102 105 107 110 111 113 114 115 117 120 118 122 127 127 128 130 132 132 132 134 136 137 140 139 143 146 149 149 148 151 151 155 154 154 154 156 161 162 163 162 164 162 167 170 168 167 172 166 166 166 165 166 164 166 165 166 162 163 163 161 158 157 157 155 154 154 151 151 150 148 149 146 143 141 139 138 136 141
99 101 104 104 108 111 109 111 114 116 117 120 121 122 126 126 127 129 130 134 136 138 139 142 143 144 144 148 149 153 155 153 154 154 152 155 151 150 151 149 144 144 142 142 142 140 139 137 137 139 136 138 136 138 138 139 140 142 145 147 150 151 153 155 157 155 153 153 153 152 152 150 148 146 146 148 141 143 142 147
100 103 107 105 110 111 112 114 114 117 118 118 120 123 124 127 129 127 133 137 137 140 138 139 136 134 130 128 124 128 131 133 136 139 143 144 146 145 146 148 148 148 149 150 150 154 152 152 151 148 146 146 144 147 150 148 148 148 150 146 145 147 141 140 138 136 132 132 132 138 149 148 149 149 149 144 144 141 143 148
101 101 104 108 108 110 113 114 116 115 118 120 121 124 124 124 125 120 116 117 118 124 132 134 132 137 138 139 141 143 143 144 143 145 145 148 146 150 150 150 153 152 153 154 155 154 153 150 151 149 146 145 146 147 148 148 151 150 152 153 149 144 145 141 142 143 143 141 136 140 138 134 131 130 129 140 146 143 142 148
102 101 103 105 111 111 110 111 114 119 116 115 108 106 111 119 124 128 131 130 132 134 135 138 139 138 143 145 144 144 146 144 145 149 147 148 150 152 150 150 151 154 156 155 156 158 156 155 151 153 149 146 148 149 148 151 150 152 153 153 147 145 141 141 143 141 141 143 142 141 140 141 136 137 135 135 132 127 127 143
100 99 101 106 107 109 109 105 101 107 113 117 120 123 124 124 128 129 131 135 133 135 138 140 140 143 141 142 145 146 145 148 147 149 152 154 152 151 153 156 154 156 157 156 157 160 155 156 155 153 150 147 149 152 152 152 155 150 151 149 147 146 146 142 143 142 140 141 141 142 141 141 139 138 136 136 135 131 133 138
95 99 101 99 95 99 110 113 115 117 119 123 124 124 125 129 129 131 134 135 135 137 139 140 143 142 144 148 146 149 148 150 153 151 152 154 154 155 158 156 157 154 163 159 160 159 161 156 156 152 151 149 152 152 153 151 152 152 150 150 148 145 146 144 144 146 145 147 144 146 144 143 141 139 140 136 137 134 134 140
88 87 89 106 109 109 114 115 114 119 119 122 125 128 127 129 129 133 136 137 138 136 139 142 142 145 147 147 149 150 151 150 155 154 151 155 158 157 162 159 162 158 161 161 160 163 162 160 158 159 154 151 153 153 155 154 156 154 153 152 149 150 146 147 146 146 146 146 147 150 146 144 143 140 142 136 137 135 132 140
82 73 82 107 110 112 114 118 115 120 123 124 124 127 128 131 131 134 135 137 138 140 142 143 146 145 148 149 150 150 154 154 155 156 157 161 158 159 162 159 161 161 159 165 162 163 165 163 162 159 157 156 156 155 157 157 156 155 153 154 154 149 150 148 149 148 148 147 150 148 148 145 145 144 140 140 138 138 137 141
76 65 78 109 110 111 116 116 120 121 121 126 127 130 132 134 136 138 137 136 141 143 144 146 147 148 147 153 154 154 154 155 156 157 161 160 160 161 162 163 161 164 164 168 167 169 168 165 164 163 162 161 146 100 157 159 157 158 155 152 144 138 143 147 147 148 150 148 151 150 149 146 144 144 143 141 140 139 138 142
68 64 74 108 111 113 116 118 119 121 123 126 128 129 127 134 133 137 139 142 141 143 144 147 144 149 150 151 153 151 153 153 151 128 159 164 164 162 162 159 86 113 148 163 168 170 168 167 167 164 162 109 75 85 139 160 164 159 160 157 102 67 77 99 133 150 153 152 155 151 146 134 113 103 142 142 143 139 139 143
65 65 76 107 112 115 117 114 120 123 123 126 127 132 130 134 136 139 137 139 87 109 134 143 146 147 155 156 152 152 133 86 70 80 146 161 163 166 166 147 99 79 80 67 86 146 170 169 169 149 74 103 75 59 98 160 160 162 160 155 82 128 86 61 63 91 152 153 145 80 68 72 56 71 142 144 141 142 139 132
71 71 77 108 111 116 117 120 122 125 121 117 110 100 89 125 137 140 141 137 84 115 88 67 78 130 153 155 135 72 70 129 80 120 117 164 167 170 167 126 121 87 125 60 59 143 174 172 135 62 66 138 114 62 66 149 163 164 162 137 64 83 107 100 63 121 156 156 147 80 98 69 67 64 137 145 145 133 83 80
76 74 79 109 113 117 118 119 121 123 90 85 69 110 103 105 138 138 141 132 82 131 116 89 95 123 155 159 150 82 96 62 106 142 89 163 170 166 166 103 132 115 101 83 62 164 176 175 157 75 151 104 78 102 105 116 166 164 162 103 64 99 65 107 87 149 158 159 151 83 97 111 104 94 132 147 141 84 115 123
80 77 80 106 115 117 118 121 122 123 100 95 94 120 81 92 140 141 141 125 84 60 61 77 74 132 157 160 157 93 68 56 127 70 64 159 168 171 168 88 139 139 124 64 81 174 181 177 172 103 92 149 113 80 58 90 166 167 158 72 87 127 96 108 92 163 162 159 156 95 100 111 92 65 122 147 145 108 76 121
80 78 79 103 115 116 120 121 124 125 112 61 90 72 63 82 138 142 144 120 102 64 88 108 67 140 159 158 161 130 105 77 146 119 95 138 173 174 169 65 114 108 114 65 115 182 181 179 180 154 98 163 93 74 128 169 170 168 154 90 73 76 109 63 130 168 170 162 161 104 103 58 56 60 116 152 148 133 87 98
85 79 80 102 115 117 119 122 123 126 121 80 66 92 86 78 137 143 143 116 92 100 97 74 60 148 158 160 163 158 80 112 129 61 72 128 175 178 167 96 75 87 68 56 150 183 181 183 184 177 94 65 86 168 178 179 176 175 171 167 167 152 112 77 163 169 171 168 161 120 77 112 138 148 155 149 150 143 79 64
89 80 81 94 115 119 119 123 125 128 125 65 59 73 84 71 132 143 148 146 128 95 68 70 67 152 162 163 165 166 93 64 94 138 166 175 177 178 177 177 173 161 129 94 175 186 184 184 185 187 147 139 184 185 187 186 181 184 180 181 178 177 174 173 174 172 173 172 167 164 161 163 159 161 157 155 154 146 111 101
91 80 81 90 113 117 119 124 125 128 127 110 109 121 126 131 138 144 148 151 151 151 152 148 131 157 162 165 168 170 161 160 170 177 177 180 179 181 185 185 184 188 185 186 187 192 194 190 194 189 187 188 189 190 189 185 187 186 182 182 183 179 179 177 178 176 174 174 171 170 165 167 163 161 161 160 155 153 147 156
93 82 81 84 113 118 122 126 125 130 130 133 133 136 139 142 143 148 152 150 152 157 159 158 162 163 165 168 171 171 171 175 178 181 180 185 183 186 187 188 188 189 189 192 193 196 193 196 194 192 190 192 189 191 192 190 187 186 186 185 183 181 180 178 177 178 174 173 173 170 167 167 167 165 163 158 159 153 153 159
94 84 81 83 113 120 123 125 128 130 132 133 136 139 139 143 148 149 149 152 154 157 158 161 165 163 168 170 172 173 176 176 177 180 185 186 185 185 191 192 188 189 191 194 197 195 198 196 196 196 193 196 195 195 194 196 193 191 192 186 186 141 108 181 183 179 178 179 172 139 93 161 167 164 165 159 161 156 150 138
94 88 80 80 109 119 125 122 128 131 132 136 135 137 141 144 148 150 154 156 157 156 148 161 163 170 171 172 175 179 175 180 180 179 177 188 189 192 193 191 191 191 191 195 197 201 201 200 197 179 170 162 148 138 184 197 195 193 192 172 87 130 92 168 186 182 183 177 165 76 62 76 147 166 165 162 161 149 82 94
93 92 82 80 101 120 120 125 127 131 134 134 137 78 94 141 147 152 153 154 157 157 88 78 143 165 169 173 177 178 176 162 126 79 87 183 192 193 189 140 93 85 82 77 129 202 203 205 177 63 105 107 91 100 183 198 196 189 117 86 169 97 134 133 186 183 186 177 94 93 158 82 78 124 169 166 151 69 78 70
95 95 82 81 93 120 123 127 127 133 134 136 132 61 53 58 103 149 154 158 158 146 93 153 96 84 159 172 177 171 79 86 110 128 63 179 193 194 197 126 169 123 111 148 134 205 204 205 168 126 141 153 184 93 192 201 199 141 118 72 109 64 139 92 184 191 185 134 59 91 159 70 60 138 167 156 71 109 78 137
95 96 85 81 85 119 125 127 130 133 133 138 110 70 87 57 68 70 144 158 158 113 93 92 68 66 60 156 180 183 86 149 157 111 130 151 197 198 202 133 156 163 122 76 137 211 207 209 160 87 83 124 81 84 200 204 205 188 70 95 141 67 104 67 168 191 177 65 74 144 99 107 107 173 173 161 83 151 136 126
94 97 91 82 81 116 124 126 130 130 133 137 84 73 88 120 123 83 150 157 158 81 147 156 92 127 72 176 184 185 138 83 91 171 143 103 201 201 203 137 80 186 136 78 149 212 213 213 148 168 129 74 129 108 207 210 211 205 116 115 167 111 78 167 191 194 187 156 76 62 56 73 173 179 173 169 137 75 124 93
95 95 93 83 80 110 122 128 128 133 133 135 80 71 118 130 119 101 153 160 156 91 101 140 103 80 118 180 187 189 181 105 98 160 80 67 196 204 204 142 133 112 149 137 159 213 215 214 139 146 145 130 76 128 213 217 213 205 178 70 79 147 199 202 200 198 192 190 182 104 64 163 181 178 178 171 165 102 85 155
93 97 97 83 81 98 124 127 127 133 136 141 139 124 71 60 74 133 157 163 166 165 154 81 125 101 162 183 191 190 190 101 129 76 111 175 205 207 210 161 94 102 110 121 192 219 218 220 195 193 198 206 210 217 219 218 219 214 208 149 200 211 210 205 203 200 198 197 192 188 178 187 184 185 180 179 176 163 158 178
95 95 97 86 79 89 122 124 131 132 134 139 138 143 145 126 78 145 161 159 165 172 169 172 152 102 180 187 189 192 196 175 179 199 207 206 209 212 213 213 215 219 221 222 225 227 225 228 223 227 224 229 223 226 224 221 218 220 216 215 214 211 212 204 206 201 202 203 199 195 192 191 186 189 182 180 177 174 171 176
94 93 97 95 80 80 118 127 129 131 135 139 141 144 137 152 154 155 159 165 167 169 173 175 180 182 186 190 191 195 193 197 203 203 207 211 214 212 219 220 224 223 224 232 227 231 230 231 230 230 229 230 228 228 224 223 225 224 221 219 219 219 217 213 211 210 204 202 199 201 195 193 193 190 190 185 180 178 177 180
92 95 96 97 81 77 113 126 130 134 134 141 143 147 149 152 157 159 161 165 169 172 175 177 182 184 188 193 198 199 202 201 210 211 209 215 217 221 223 227 226 225 231 231 232 236 234 235 235 232 232 223 219 232 235 230 231 219 219 216 214 211 218 217 216 213 204 94 112 165 190 196 195 189 188 145 135 139 138 168
93 94 96 97 83 79 101 127 130 134 136 139 143 147 147 145 86 150 160 165 171 172 176 179 177 170 144 190 199 200 204 204 205 160 109 216 224 224 226 228 196 76 179 229 235 239 237 236 229 179 99 99 164 237 238 237 224 86 94 68 118 107 199 221 214 214 167 69 184 144 84 115 197 196 180 108 76 109 66 162
91 94 95 97 91 78 86 126 130 134 136 140 142 147 148 86 79 65 141 166 170 175 155 103 69 63 113 170 196 202 202 190 89 131 126 175 223 227 227 231 99 105 161 93 212 243 246 187 134 201 143 99 127 239 239 238 217 125 122 122 96 106 217 224 221 211 93 83 191 169 82 180 203 197 170 134 73 106 117 181
93 92 95 96 97 79 80 121 131 133 140 140 145 146 105 104 67 76 77 122 170 178 159 79 106 164 76 103 201 205 194 96 100 138 157 72 221 233 231 184 167 151 118 97 97 244 250 230 97 99 176 126 109 239 243 240 209 156 102 166 75 96 227 230 227 180 74 101 179 182 112 202 205 200 133 108 75 82 99 187
92 93 95 96 97 83 79 112 130 133 136 142 142 142 81 85 122 125 111 64 148 178 177 100 139 79 69 101 192 208 208 127 188 163 74 81 126 230 233 101 144 235 225 77 224 249 254 246 118 100 202 143 105 240 250 249 183 112 144 145 181 137 234 231 223 107 89 76 164 99 185 210 206 201 105 101 95 61 125 193
92 93 94 96 96 91 78 96 127 134 134 141 144 146 145 90 115 94 94 124 172 174 179 159 72 177 145 101 145 208 210 208 79 83 71 103 221 236 241 226 120 178 222 146 249 253 255 252 105 69 77 134 216 254 253 255 172 114 120 126 135 199 240 239 233 230 214 180 121 117 214 217 212 205 185 181 178 175 186 198
92 92 92 94 95 95 80 81 126 134 137 139 143 149 150 152 122 95 101 167 175 177 181 179 91 101 161 195 207 210 214 218 200 77 191 234 237 238 244 244 246 223 119 247 255 255 255 255 227 248 255 255 255 255 254 254 254 251 252 250 248 247 241 240 239 235 233 229 223 220 220 216 214 208 206 203 200 196 194 200
89 90 90 92 96 97 81 76 117 129 135 141 142 148 148 152 157 150 157 167 173 179 180 187 187 195 200 202 205 214 215 220 221 226 231 234 240 242 249 247 253 254 255 255 255 255 255 255 255 255 255 255 255 254 255 254 255 254 253 252 249 248 245 239 239 238 233 229 228 224 218 218 218 211 209 204 203 196 195 201
87 88 90 92 95 95 91 76 105 128 135 138 142 146 147 153 155 160 166 167 175 178 182 188 189 195 199 202 205 213 219 221 230 229 231 240 243 248 251 252 255 255 252 255 255 255 255 255 255 250 255 255 255 255 255 255 255 255 253 243 251 251 253 250 245 239 202 137 228 229 228 221 217 206 162 197 205 201 201 201
87 87 91 89 93 95 94 77 87 126 134 137 141 144 150 153 157 159 125 137 172 179 182 184 190 114 145 200 212 215 220 223 204 202 199 197 232 248 253 255 251 165 87 238 255 255 255 255 177 133 137 252 255 255 255 250 203 126 111 83 220 254 251 248 239 171 132 129 149 231 225 223 215 127 179 132 78 146 198 207
84 86 89 92 90 95 94 80 79 122 133 137 139 143 150 153 140 84 107 97 153 177 182 185 179 106 98 70 143 212 219 223 88 149 147 154 188 249 255 200 101 240 107 117 255 255 255 245 94 203 83 98 169 255 255 168 176 176 151 118 196 255 255 240 138 186 77 71 115 176 228 223 207 90 190 101 78 185 201 207
83 87 87 91 91 93 94 92 77 113 129 137 135 142 142 138 74 112 135 98 87 162 177 185 116 125 105 125 122 184 219 222 103 109 119 119 177 253 255 181 88 118 220 87 204 255 255 124 171 202 97 78 240 255 255 211 200 185 113 130 162 255 255 193 114 126 155 160 108 168 228 223 121 122 94 120 122 206 204 210
81 85 88 91 92 90 94 94 77 92 126 129 133 139 141 144 127 119 141 129 108 97 177 178 92 92 135 157 89 211 221 227 121 105 159 155 167 254 255 255 111 163 193 121 239 255 255 184 101 130 192 199 255 255 255 244 136 116 71 80 153 255 254 254 176 120 125 124 211 235 234 218 104 91 157 94 196 205 203 208
83 84 86 90 90 91 93 93 82 81 121 126 133 138 141 143 149 122 119 88 119 171 177 185 184 169 102 131 179 214 221 224 181 148 158 167 211 255 255 255 247 126 219 255 255 255 255 255 255 167 130 255 255 255 255 255 156 209 246 255 255 255 255 255 250 173 122 231 239 237 231 229 223 213 200 178 206 208 206 210
81 84 83 88 87 91 88 93 88 76 114 125 130 137 138 143 148 150 126 156 165 172 179 181 186 193 194 195 212 216 223 226 233 235 241 245 253 255 255 255 255 255 255 255 255 255 255 255 255 255 255 255 255 255 255 255 255 255 255 255 255 255 255 255 254 247 240 241 238 235 232 228 226 221 216 217 211 204 202 208
80 82 84 84 86 91 89 90 89 77 98 121 127 134 136 140 144 148 151 160 165 170 174 182 185 191 197 202 206 214 223 226 237 237 242 246 255 255 255 255 255 255 255 255 255 255 255 255 255 255 255 255 255 255 255 255 255 255 255 255 255 255 255 253 251 231 243 243 238 237 232 223 222 213 205 210 208 207 204 209
79 79 81 84 85 87 89 89 89 82 84 112 124 127 130 137 141 143 145 149 154 162 171 177 183 187 184 99 140 210 219 225 233 228 121 120 250 255 255 255 239 95 155 255 255 255 255 245 186 133 129 254 255 255 255 234 190 128 96 248 255 255 255 249 172 145 149 237 235 228 226 210 134 115 125 210 209 205 199 205
75 78 81 82 84 84 87 88 88 86 76 111 118 123 129 132 136 130 72 71 85 68 157 174 178 122 75 114 95 180 215 222 147 100 151 207 143 255 255 255 113 189 181 139 179 255 255 121 107 204 131 220 255 255 236 113 217 134 78 221 255 255 232 128 209 200 131 153 233 226 138 109 71 80 98 207 206 202 199 205
75 77 79 79 84 85 85 87 87 88 76 100 113 119 122 127 132 133 92 77 89 73 142 168 169 107 143 154 164 105 201 218 188 171 134 163 85 219 255 194 229 234 212 141 255 255 255 129 187 171 220 148 255 255 254 126 210 163 203 180 255 254 127 84 192 124 190 99 219 220 166 86 173 191 146 186 203 196 193 200
75 76 77 79 80 82 86 88 86 87 81 85 110 114 118 121 125 127 85 72 95 99 121 161 166 167 103 169 101 135 205 214 217 150 124 95 196 254 255 255 223 139 117 212 255 255 255 215 188 168 147 178 255 255 255 109 115 139 122 172 253 250 240 120 134 83 145 216 222 218 202 73 123 118 188 197 195 193 190 193
75 76 77 78 80 80 83 84 85 85 85 76 103 107 113 118 121 125 109 101 105 113 138 156 163 166 157 107 179 193 200 206 214 216 165 230 244 253 255 255 255 255 227 255 255 255 255 255 248 255 255 254 255 255 254 228 230 245 252 252 248 243 239 227 127 188 216 215 213 207 205 145 187 197 194 191 192 185 183 183
73 76 77 78 80 81 81 83 84 85 85 76 95 104 108 113 115 119 122 128 131 138 140 150 156 163 165 171 180 186 196 200 208 215 224 233 241 249 255 255 255 255 255 255 255 255 255 255 255 254 255 252 251 252 252 252 251 253 251 244 243 238 233 228 222 218 213 208 206 203 200 195 195 191 187 190 184 179 177 170
71 74 75 77 79 79 81 83 83 84 84 80 86 101 104 107 110 114 118 121 121 119 133 138 149 154 159 116 153 175 185 193 197 188 191 190 202 243 253 255 234 191 238 255 255 255 255 220 216 216 218 237 242 239 231 227 225 228 235 236 233 227 212 195 208 204 203 201 197 190 188 167 140 179 179 177 173 169 165 146
71 72 73 76 77 77 80 81 82 82 81 82 78 96 99 103 105 110 112 111 59 78 104 132 139 145 134 107 98 106 146 183 190 91 113 70 103 223 242 252 159 181 163 170 227 254 247 125 149 118 159 208 227 227 160 136 113 136 140 227 223 217 146 178 109 106 145 190 182 95 97 113 88 167 172 167 163 162 157 138
71 73 74 74 76 77 78 80 81 82 82 80 75 92 96 99 102 104 103 71 79 61 77 89 130 134 76 70 110 83 110 171 178 100 112 80 115 211 231 239 160 148 175 173 244 247 236 103 101 170 119 198 210 208 143 111 178 143 157 219 212 197 139 160 99 99 171 178 174 85 137 116 113 159 162 159 156 152 141 132
71 71 72 72 75 76 77 79 80 81 82 81 78 85 92 96 97 100 101 81 67 81 72 105 125 126 97 97 79 75 150 160 167 107 75 127 114 199 219 228 173 157 190 166 237 233 222 109 134 76 91 188 198 197 122 105 165 141 176 209 207 157 130 137 142 117 173 169 161 79 81 111 102 149 154 147 142 143 125 127
71 68 71 72 74 75 76 76 77 81 81 81 80 78 89 92 94 96 97 101 93 66 97 115 119 125 128 127 106 116 142 151 157 157 161 168 176 194 207 218 228 231 227 220 228 220 214 191 183 178 175 183 185 188 174 171 174 179 192 200 197 192 185 164 124 165 165 163 157 124 140 146 145 146 142 136 135 130 117 121
69 69 70 71 72 73 75 75 75 77 80 80 78 72 85 88 90 92 94 97 100 102 106 110 114 117 121 125 129 134 136 146 148 155 158 167 177 181 192 206 217 224 226 223 217 202 197 189 182 177 174 174 171 171 170 172 176 175 182 185 186 182 181 174 163 160 157 152 148 146 139 138 137 135 132 128 125 114 109 113
68 68 69 70 69 72 73 74 76 76 76 77 79 77 81 83 86 87 89 94 94 97 99 104 107 111 113 117 118 122 128 131 136 141 146 154 160 169 179 189 195 208 208 203 198 188 179 170 167 160 157 157 154 156 152 154 157 159 162 165 167 168 165 160 153 147 144 139 136 132 130 127 124 123 120 116 114 105 104 109
66 67 68 68 69 71 72 73 73 73 76 77 79 77 78 82 83 86 88 87 91 93 94 97 101 104 106 108 111 115 118 122 123 128 134 140 145 148 157 167 175 183 185 184 178 167 161 153 150 146 143 145 140 140 138 140 140 142 149 148 152 151 151 145 140 137 132 127 124 121 118 113 113 112 109 106 105 102 100 105
65 66 67 67 69 70 70 71 73 73 74 74 76 78 78 79 81 82 83 84 89 89 90 91 95 98 100 102 106 105 108 112 114 119 122 122 125 130 134 137 137 142 142 143 141 141 138 139 134 133 131 130 129 126 126 127 128 128 129 131 132 129 131 126 124 121 116 116 112 111 110 106 105 105 103 102 101 100 98 103
65 65 65 66 66 69 69 70 71 73 74 74 75 77 78 78 79 79 81 82 85 86 89 91 94 97 98 99 99 99 104 109 108 110 114 115 120 125 125 125 127 131 131 132 129 130 129 128 126 126 124 122 122 119 122 120 120 119 118 119 116 117 116 114 112 113 112 110 108 108 108 106 104 104 103 101 98 96 94 102
63 63 64 65 65 66 68 67 70 70 71 73 73 74 75 78 78 80 82 84 84 84 89 92 96 96 98 97 99 101 116 106 110 110 112 115 118 121 123 121 125 126 128 126 126 128 126 126 125 124 123 120 120 117 119 118 115 115 116 114 114 113 114 112 113 110 109 110 108 106 106 106 101 101 101 100 97 95 91 97
60 63 63 64 64 65 66 66 67 69 69 71 72 72 75 75 76 76 79 80 83 86 88 90 93 96 99 98 98 100 101 100 106 107 110 112 116 118 118 122 120 123 126 124 124 126 121 120 123 122 118 118 118 118 116 115 115 114 113 113 110 111 112 110 107 107 108 107 107 104 104 102 104 100 99 96 94 92 90 97
61 62 62 62 64 64 65 66 66 67 69 66 70 71 73 73 75 76 76 80 82 84 87 89 92 93 96 96 95 97 98 100 102 102 107 109 112 116 117 119 120 123 125 126 125 123 122 119 118 118 118 116 115 116 111 112 111 112 112 111 110 110 109 107 108 107 107 106 105 103 104 100 101 100 97 96 93 92 90 93
60 60 62 62 62 64 62 65 66 67 67 70 69 70 70 72 74 76 75 80 82 84 85 88 89 91 95 95 93 95 94 95 100 103 106 110 109 112 114 119 121 124 125 125 126 123 121 122 118 118 117 115 113 112 111 112 110 110 108 110 108 108 107 106 106 104 106 104 103 103 101 100 98 97 96 94 91 90 88 93
59 59 61 61 63 63 63 65 65 66 68 65 68 69 68 71 72 73 76 80 80 84 85 85 86 89 90 93 93 92 93 98 99 100 103 105 106 113 114 117 118 122 122 123 122 121 120 119 119 117 111 112 112 110 108 108 106 107 107 107 106 107 108 106 103 106 102 104 102 100 102 98 97 96 94 92 91 88 86 92
59 60 59 61 62 62 63 64 63 66 67 68 68 67 69 70 70 72 75 78 80 81 82 83 84 87 89 90 90 90 94 93 96 99 101 105 107 109 111 114 117 120 123 120 122 123 121 116 115 115 112 112 109 105 108 106 105 108 106 104 104 103 104 103 102 103 102 100 102 99 98 97 96 96 91 91 89 88 85 90
58 59 60 60 61 62 62 63 64 64 64 66 67 67 68 69 70 71 75 78 78 79 80 81 84 85 88 90 88 89 90 92 96 100 101 103 106 108 112 115 118 120 121 125 121 121 122 114 116 114 113 109 109 105 104 105 105 105 101 103 101 102 102 101 102 103 103 102 101 99 97 97 94 93 89 89 85 83 82 89
59 59 59 61 61 60 60 62 62 64 64 66 65 66 66 68 68 71 74 76 78 78 79 81 82 83 88 85 87 89 90 93 95 96 101 102 106 106 111 113 118 121 126 134 131 126 119 117 116 115 112 109 108 105 105 103 103 103 102 102 101 102 102 100 102 100 100 97 96 95 95 93 90 86 88 85 81 82 81 86
57 58 59 59 60 60 60 63 62 63 63 64 64 65 65 67 68 70 73 76 77 78 79 80 80 83 85 84 83 85 86 89 91 94 95 98 100 104 104 106 109 112 122 125 127 117 112 112 110 108 105 105 104 102 103 102 101 102 101 100 98 100 99 98 96 95 95 94 94 91 90 89 87 84 82 81 78 79 77 83
58 58 59 59 59 59 60 60 62 63 63 63 64 65 65 66 66 68 70 74 75 75 78 79 80 81 83 80 81 82 84 86 88 90 91 93 97 97 100 101 104 105 121 132 128 113 107 106 106 105 102 101 99 99 98 98 99 97 96 96 97 96 95 93 91 92 90 88 87 86 83 82 82 81 78 78 78 76 73 82
55 55 58 58 59 58 60 59 61 62 63 61 62 61 64 65 65 67 69 73 75 75 77 80 80 80 78 78 79 78 81 81 84 86 88 89 91 92 94 98 97 100 106 109 111 103 103 100 101 99 96 96 95 95 95 96 94 94 92 92 91 91 90 89 88 87 85 85 84 83 81 80 79 78 77 74 75 74 71 79
55 55 56 56 56 57 57 60 62 61 61 61 61 61 62 62 65 64 68 70 71 74 75 76 75 74 74 76 76 77 78 79 79 83 83 85 87 89 91 94 96 97 101 105 102 102 99 97 96 94 92 90 91 91 91 91 90 88 88 87 89 88 86 85 85 84 84 81 80 79 78 78 77 77 74 72 73 71 71 77
55 56 55 56 56 57 56 57 58 59 59 60 61 63 62 63 64 63 66 66 69 71 73 71 71 71 72 73 73 74 76 75 78 78 81 81 84 88 85 87 92 96 107 105 104 96 94 94 93 89 90 87 88 87 88 87 85 87 85 85 84 85 83 82 83 80 80 79 79 78 77 78 76 75 71 71 69 66 66 73
55 56 57 58 57 57 56 57 55 57 56 58 58 59 59 61 61 62 62 65 65 67 68 67 68 69 70 70 71 74 73 75 75 74 78 79 81 82 86 87 91 94 100 104 106 94 92 91 91 89 87 85 85 84 84 83 83 83 80 83 83 80 81 80 79 78 79 76 76 77 75 74 70 69 68 67 66 67 66 73
55 56 56 57 56 57 56 57 57 56 56 57 58 58 58 58 58 58 59 60 61 62 64 64 66 66 67 69 69 70 71 70 73 74 74 77 80 82 84 86 88 90 116 126 128 103 92 89 86 86 84 83 83 80 80 80 79 79 80 79 78 78 78 77 75 75 72 71 71 68 69 69 69 69 68 68 68 67 68 74
