P2
80 80
255
105 101 101 103 102 107 109 109 112 114 117 117 117 120 122 124 125 126 128 129 131 135 134 135 138 140 142 143 145 144 148 150 151 152 150 152 155 158 158 161 162 160 164 165 163 164 161 167 166 166 166 163 162 161 162 160 161 163 161 159 160 158 158 153 155 150 149 149 146 144 141 143 139 140 135 136 131 132 130 138
100 102 103 104 105 107 113 113 116 117 116 118 118 121 122 126 126 129 128 129 133 133 134 139 140 141 144 144 148 147 148 153 155 156 155 151 157 155 160 159 162 163 165 168 165 166 167 167 165 165 165 164 164 163 165 163 163 163 160 161 161 161 157 156 156 156 153 152 149 147 147 145 143 139 139 138 134 132 132 137
101 101 103 105 107 109 110 109 113 116 116 118 120 121 127 125 128 127 130 132 133 136 139 140 143 144 145 143 144 146 147 146 150 151 152 154 155 156 162 160 161 164 165 168 169 166 167 171 169 165 165 167 166 163 162 165 163 163 160 163 163 162 161 160 159 156 154 152 153 153 148 148 144 143 142 141 141 135 135 141
101 104 103 105 107 111 112 113 115 116 117 122 120 121 126 128 128 131 130 131 132 134 133 133 140 140 144 145 147 151 149 152 151 150 152 154 156 158 161 163 162 164 165 167 170 171 169 167 171 166 164 166 163 164 164 170 162 167 162 165 162 161 161 159 157 156 156 154 151 153 152 151 149 146 143 140 140 135 138 145
102 104 103 104 109 110 112 112 118 116 116 118 122 126 125 128 127 128 131 133 133 138 139 142 143 144 143 148 148 155 155 154 155 155 158 158 154 155 154 152 147 143 141 141 139 139 139 139 137 140 139 140 140 139 141 139 139 140 140 139 138 138 140 139 142 146 147 148 150 151 151 150 147 144 145 147 144 143 142 151
100 104 104 105 110 109 111 113 115 117 117 120 122 124 127 130 130 132 133 136 138 140 141 146 140 142 140 140 135 132 128 129 130 137 139 140 145 146 147 149 151 148 150 150 152 153 152 151 153 148 148 146 145 147 148 149 151 149 150 148 147 147 143 142 141 141 138 138 135 133 134 132 136 138 144 147 143 142 143 146
101 102 105 107 110 110 113 116 118 116 119 122 120 123 124 126 129 131 130 131 126 124 124 126 128 133 136 137 140 141 144 146 144 147 146 147 146 149 149 150 150 152 153 155 154 155 152 153 149 151 147 147 145 148 149 149 151 152 155 152 152 146 144 144 142 143 142 142 142 140 140 138 134 134 131 131 130 133 136 146
101 105 105 107 109 110 113 112 115 117 117 119 119 120 114 111 110 117 125 130 134 133 136 139 140 140 142 142 145 145 147 146 147 149 151 149 149 152 151 151 155 152 157 154 156 159 156 155 151 153 149 149 148 150 150 151 150 151 155 153 150 148 142 145 140 140 144 143 141 143 141 141 141 136 137 134 132 133 129 134
101 101 102 106 108 109 111 112 113 112 106 107 112 121 123 125 126 128 131 135 137 138 138 142 140 141 143 143 144 147 146 148 150 149 152 153 150 152 155 152 156 158 159 158 158 161 159 155 156 155 151 149 149 152 154 151 153 155 152 152 147 148 146 143 144 143 140 145 143 143 145 141 139 139 136 137 135 133 133 137
98 100 102 104 107 105 104 102 109 113 118 121 123 124 129 129 131 130 133 134 136 138 140 141 142 142 143 146 147 147 150 149 150 150 151 155 157 157 155 160 158 157 159 160 158 162 160 159 155 155 151 151 150 154 152 153 154 154 151 152 149 149 145 145 143 145 145 144 146 146 144 143 142 141 138 138 136 135 131 141
94 96 92 97 104 109 113 114 118 117 121 120 125 127 129 131 130 132 136 135 136 140 140 145 142 144 145 146 148 148 150 150 153 156 154 156 158 158 163 161 161 161 160 162 161 161 165 160 161 158 156 154 155 155 157 159 157 156 155 153 151 148 149 148 147 148 147 146 146 144 145 146 142 141 142 137 135 137 134 139
89 86 75 99 110 112 110 116 116 121 122 124 124 128 129 132 131 135 136 138 141 142 144 143 142 147 146 149 149 150 152 154 154 156 159 161 162 161 162 163 164 163 161 164 165 164 163 163 163 162 157 159 156 158 158 157 158 158 156 154 154 151 150 146 148 148 149 149 150 150 148 145 145 144 141 141 138 138 137 142
82 80 68 93 109 112 114 114 119 122 124 125 125 129 130 134 134 135 139 137 139 144 145 148 147 147 148 153 152 154 155 157 156 156 160 160 161 162 161 164 163 164 166 162 170 168 167 165 163 164 166 160 127 79 156 160 159 158 158 155 145 100 132 145 149 150 150 151 153 151 149 145 144 142 139 141 141 140 137 143
78 74 64 89 109 112 113 116 120 120 122 125 127 128 131 134 137 137 140 140 144 143 141 149 147 151 152 153 153 153 154 154 154 139 162 162 164 162 164 160 83 116 149 163 169 169 169 167 168 167 157 83 74 86 139 162 161 159 160 156 106 64 91 70 88 127 151 155 156 150 131 104 79 65 114 143 142 139 139 143
73 64 65 86 111 113 116 116 119 123 126 127 129 132 131 135 136 139 137 143 122 133 142 149 148 147 151 153 154 156 145 101 70 71 157 163 165 165 164 146 108 67 78 66 83 149 173 170 170 136 64 114 73 56 79 161 163 161 160 157 76 131 122 63 62 68 152 156 154 98 86 92 59 57 99 145 142 140 140 134
75 70 70 85 109 116 115 118 121 123 126 127 125 128 124 127 136 140 141 142 80 86 70 74 103 140 152 154 145 80 65 124 69 119 131 164 169 167 165 119 138 85 122 58 59 155 174 177 129 60 72 150 129 77 65 143 168 166 163 148 61 78 120 79 75 93 156 157 158 113 70 95 101 86 87 145 144 139 87 77
80 75 75 83 111 115 119 118 123 123 123 73 66 71 86 74 136 139 141 141 76 137 136 89 106 109 154 158 152 73 92 66 91 148 89 166 169 168 166 91 147 123 87 78 62 169 177 176 165 67 143 107 67 83 102 91 164 166 164 115 60 93 68 127 106 135 159 162 156 131 101 78 107 93 79 144 147 136 89 121
85 79 78 83 111 116 116 121 123 123 122 79 95 110 110 66 134 141 141 141 71 62 72 85 68 120 155 158 156 90 82 55 140 71 62 166 169 173 169 74 137 140 119 61 77 174 178 180 174 108 98 166 136 107 58 95 169 169 164 76 77 144 77 107 68 160 163 161 161 143 73 118 86 68 66 139 145 141 97 89
88 83 79 80 109 116 118 120 125 125 128 78 88 79 75 78 130 143 144 140 80 80 73 118 84 129 157 160 158 142 101 65 143 128 90 152 170 175 170 61 123 110 118 60 120 179 181 183 183 168 82 145 93 68 146 171 174 169 165 130 92 71 77 63 97 168 164 165 162 155 83 73 57 62 93 146 148 144 127 89
91 86 80 80 105 116 120 120 124 125 124 95 75 68 71 86 121 143 144 140 82 126 70 68 57 139 159 161 163 161 72 107 140 60 74 125 176 177 172 92 75 88 64 57 160 184 181 183 185 180 102 62 94 175 181 182 177 176 173 170 171 167 156 120 152 169 168 166 167 159 105 133 152 156 153 153 152 150 140 86
92 89 82 80 99 116 120 124 124 127 128 111 62 85 79 108 104 143 146 147 111 78 65 91 59 145 162 164 164 165 96 61 83 127 164 175 178 179 182 179 175 161 133 98 180 188 186 186 187 190 168 152 185 186 187 186 184 181 179 178 180 178 176 174 175 174 172 171 170 166 163 165 159 161 157 157 155 150 150 125
94 93 83 81 95 118 120 123 126 127 129 126 77 85 94 105 120 145 145 150 152 152 149 139 110 153 160 166 171 172 162 152 170 175 177 178 184 180 187 184 183 187 188 181 190 190 192 192 193 191 191 189 193 191 189 189 186 185 185 181 182 180 181 176 175 176 174 173 169 169 165 167 166 162 161 159 159 157 153 159
92 95 86 82 90 114 120 123 125 130 131 133 134 137 137 142 144 146 148 150 149 156 158 159 161 161 167 169 171 173 173 174 178 176 183 183 184 186 186 188 186 189 191 192 196 193 191 192 195 194 193 195 194 191 187 191 190 188 186 184 185 183 181 180 181 179 176 176 175 171 164 167 167 164 164 157 159 154 154 159
93 95 89 82 85 113 122 124 126 130 132 133 136 137 140 143 146 148 151 153 157 156 161 161 164 166 168 171 173 174 177 176 179 182 184 185 186 189 189 193 189 190 194 193 194 197 196 200 199 197 196 195 197 192 195 196 193 189 191 189 187 150 72 165 182 181 180 177 173 169 80 91 158 163 163 161 162 158 156 142
93 95 92 82 82 109 121 124 127 129 131 134 136 138 140 144 145 149 152 157 159 158 158 161 163 167 173 175 174 177 178 180 180 179 179 188 190 193 192 192 191 191 193 194 193 197 199 201 199 170 158 144 128 118 166 198 196 196 191 177 86 124 148 111 185 186 181 184 176 119 92 74 79 137 166 162 161 158 133 96
95 94 94 85 82 105 120 123 126 129 133 135 137 133 84 133 147 151 152 158 157 160 128 72 141 165 169 173 178 179 178 169 147 91 73 188 193 193 194 154 94 85 80 78 110 201 203 204 192 64 124 94 86 126 170 197 198 195 126 66 160 132 130 85 178 186 185 183 160 61 131 144 90 76 125 165 164 133 62 73
95 96 94 87 81 96 120 125 127 130 134 134 140 117 57 55 83 141 153 157 158 157 95 146 116 76 155 175 177 179 99 80 87 146 61 178 197 196 194 145 170 131 125 152 112 206 210 206 193 106 159 126 190 94 185 200 201 187 82 88 107 77 79 129 138 189 185 180 76 74 130 134 64 67 156 171 139 69 112 104
94 96 98 89 82 89 119 125 129 132 136 136 138 95 68 61 57 71 106 155 155 151 83 79 80 67 58 130 179 179 103 125 162 131 142 133 197 197 200 156 164 151 143 74 117 209 211 210 187 88 75 120 85 65 196 207 210 200 112 63 100 93 86 78 89 190 189 129 60 97 106 107 87 136 171 171 157 95 138 133
93 95 97 95 85 85 115 126 130 130 134 137 134 76 100 100 129 118 111 158 162 132 112 162 104 143 63 156 183 184 165 75 111 160 163 79 200 203 204 163 69 181 117 84 123 216 214 213 183 151 160 81 107 85 203 211 211 208 179 77 174 162 69 134 193 194 191 185 147 72 56 57 100 176 173 173 169 140 82 126
93 95 96 96 85 84 107 125 126 131 134 137 130 76 78 123 130 84 135 158 160 127 70 154 132 101 84 177 186 189 186 85 106 153 97 63 195 205 210 172 127 120 166 145 131 214 215 215 176 128 137 121 83 86 213 216 213 212 206 100 67 114 194 202 200 198 193 191 192 179 104 76 174 179 179 174 172 164 114 86
92 96 98 99 89 81 99 125 128 131 135 139 141 138 102 62 68 84 150 159 162 166 162 100 90 139 123 182 189 188 192 133 141 75 97 163 202 213 214 189 95 103 110 123 175 219 218 223 210 199 205 211 211 217 220 217 216 215 211 183 191 206 206 204 208 202 199 196 195 194 190 184 188 185 180 179 175 175 163 167
95 95 98 98 94 81 88 122 127 131 132 138 138 142 147 142 101 100 153 164 165 168 170 174 166 93 166 186 189 194 194 188 168 198 202 205 211 209 212 217 215 218 223 223 225 226 226 227 225 227 226 227 223 223 224 218 218 221 216 214 213 212 212 207 207 203 201 199 202 197 194 191 191 190 187 181 178 174 174 179
92 92 96 97 97 83 84 116 125 131 134 136 142 143 137 150 153 155 158 164 167 170 172 175 180 183 186 188 188 196 197 198 202 203 210 212 213 216 221 219 222 222 227 225 228 232 229 231 230 230 232 227 226 227 229 228 225 220 222 219 219 217 218 211 213 208 204 206 199 195 196 194 190 189 188 188 180 175 175 180
92 93 95 97 97 87 80 106 125 133 135 138 141 144 148 150 152 157 162 165 169 171 175 176 181 181 188 190 193 197 204 200 209 211 210 215 219 221 225 224 223 223 227 232 228 235 234 234 233 234 231 222 214 233 234 231 231 226 217 219 212 208 206 214 213 216 206 188 82 111 161 190 193 196 192 182 149 135 137 146
92 94 94 98 97 93 81 95 126 133 134 138 141 144 149 152 131 101 157 165 170 175 175 181 178 175 154 181 197 201 205 206 207 185 86 212 222 227 227 228 217 71 154 229 237 241 239 240 230 195 113 87 102 232 239 236 231 156 73 88 76 136 104 216 216 214 211 126 85 188 132 83 120 194 192 178 109 87 97 75
93 95 94 97 96 96 82 85 122 132 135 138 144 146 150 144 82 69 80 156 166 174 174 129 83 63 108 111 193 201 201 201 115 87 134 127 222 231 228 232 128 91 156 89 190 243 245 231 102 201 162 144 75 229 238 239 232 133 161 145 86 137 129 222 222 217 198 84 88 197 164 84 172 197 195 170 118 89 85 135
91 93 94 95 98 99 87 81 114 132 136 138 145 146 147 96 103 74 75 79 152 175 176 105 105 148 122 65 192 206 202 84 111 106 174 67 201 230 230 219 129 167 117 135 73 239 249 246 84 128 120 97 120 221 243 243 238 121 160 99 133 71 161 228 225 222 141 82 102 179 175 120 199 204 199 149 89 78 98 112
90 94 95 95 95 98 93 80 102 130 130 140 142 147 139 86 78 121 133 83 83 169 175 163 122 113 81 113 140 208 208 183 145 148 84 95 84 228 233 120 149 228 235 82 181 248 254 250 117 157 182 167 146 197 249 247 238 100 95 184 148 159 196 231 230 215 87 105 77 163 94 175 203 206 199 131 119 106 60 96
92 91 93 94 95 96 98 83 91 126 134 135 140 145 147 148 91 120 97 84 154 176 180 182 97 121 176 82 88 203 214 213 134 65 95 85 205 234 240 237 146 145 233 109 247 253 255 255 174 71 71 101 180 247 254 251 236 110 102 109 114 129 226 239 235 228 222 202 151 99 114 212 210 211 203 172 157 156 152 172
88 91 94 93 95 96 99 88 82 121 132 137 139 146 148 150 153 119 82 139 171 176 183 182 165 91 148 191 207 210 212 217 218 89 161 228 236 241 245 245 247 236 139 229 255 255 255 255 245 238 250 255 254 255 255 255 253 251 253 249 245 247 244 241 236 236 232 230 222 219 217 217 213 210 205 205 200 198 197 198
86 88 89 91 92 96 98 94 79 106 131 137 138 145 148 152 153 158 153 164 170 177 180 186 190 195 199 202 206 212 215 221 223 227 231 232 240 242 248 252 251 252 255 255 255 255 255 255 255 255 255 255 255 255 255 254 255 254 253 250 251 249 248 244 240 238 236 232 226 223 218 218 217 211 207 205 202 201 196 200
83 86 89 91 93 96 97 95 82 94 127 134 137 143 145 152 155 159 163 165 171 176 183 185 188 194 198 201 207 212 217 222 227 225 229 238 243 245 249 252 255 253 255 254 255 255 255 255 255 249 255 255 255 255 255 255 255 255 255 253 245 250 249 246 246 235 234 211 180 225 224 221 218 216 210 191 200 201 201 205
84 84 87 88 92 94 95 96 89 83 123 133 138 142 146 151 155 157 151 92 146 176 183 185 189 177 93 171 205 213 217 224 209 185 187 186 203 252 254 255 252 204 93 182 255 255 255 255 248 126 106 239 255 255 255 255 247 201 130 99 102 245 251 253 247 239 178 102 92 177 223 224 221 215 168 127 100 99 161 203
81 84 86 89 89 94 94 93 92 78 111 132 137 140 145 149 150 113 83 124 99 158 180 185 189 112 155 66 95 179 218 223 166 123 98 131 113 249 255 232 107 223 116 129 251 255 255 255 113 121 147 72 121 255 255 251 131 183 169 117 117 240 253 251 238 153 146 75 72 83 191 224 221 207 105 148 141 93 120 206
82 84 83 90 90 93 91 95 95 82 98 126 133 138 142 146 137 81 105 120 120 103 172 183 175 83 109 144 115 108 217 223 184 121 133 187 97 248 255 238 97 97 204 106 123 255 255 191 213 236 171 71 135 255 255 255 128 164 141 168 131 224 255 247 139 148 127 119 147 151 125 224 218 169 130 89 106 87 172 208
80 83 84 88 91 92 92 95 94 86 85 120 129 136 140 143 148 136 116 112 118 88 142 183 163 96 126 128 133 196 218 226 206 78 143 99 117 252 255 255 177 160 232 122 184 255 255 219 121 167 124 126 254 255 255 255 152 196 93 70 76 200 255 255 244 113 139 108 133 154 228 228 215 108 112 161 152 142 200 211
78 82 83 86 88 91 92 93 92 91 79 111 128 134 139 141 147 148 130 109 94 163 176 181 188 188 169 106 110 213 220 223 225 175 179 185 198 254 255 255 255 128 172 255 255 255 255 255 255 203 87 237 255 255 255 255 198 118 171 228 249 255 255 254 253 239 108 94 202 236 231 231 225 215 198 144 101 186 204 209
77 80 81 85 85 90 89 90 94 93 81 98 123 132 134 140 143 144 152 152 162 167 177 179 186 193 196 201 205 215 221 224 233 235 240 244 251 254 255 255 255 255 255 255 255 255 255 255 255 255 255 255 255 255 255 255 255 255 255 255 255 255 255 255 254 252 241 230 238 238 234 229 226 218 217 218 209 210 204 210
78 79 81 81 85 88 89 90 90 92 86 86 117 126 131 133 141 147 149 156 160 167 170 178 183 191 196 201 199 211 220 224 231 236 237 239 251 255 255 255 255 255 255 255 255 255 255 255 255 255 255 255 255 255 255 255 255 255 255 255 255 255 255 255 254 249 244 245 240 238 232 232 226 220 218 213 210 208 204 209
77 77 80 81 83 83 87 88 88 91 88 77 111 122 127 133 136 140 142 122 123 126 133 174 182 184 182 115 78 190 213 225 229 226 142 143 208 255 255 255 255 101 133 238 255 255 255 255 237 184 142 183 255 255 255 255 252 225 172 161 255 255 255 255 251 211 113 209 236 233 230 225 221 202 149 120 207 204 200 210
76 78 79 81 82 83 84 87 89 89 88 81 101 118 124 128 129 135 125 84 86 70 80 164 176 150 87 121 114 90 208 222 196 121 133 181 108 246 255 255 180 197 201 143 126 255 255 168 132 175 134 119 255 255 255 129 153 201 90 88 255 255 254 246 178 150 177 92 205 230 226 206 144 76 77 115 188 202 200 206
73 76 77 79 80 82 85 85 87 87 89 84 89 112 120 122 127 131 131 85 86 73 98 154 168 167 106 135 184 118 124 214 219 125 173 151 128 116 255 251 161 175 146 232 199 255 255 237 95 204 206 122 252 255 255 175 186 211 155 152 235 255 242 122 81 196 104 127 81 213 223 157 73 101 149 146 150 198 196 200
73 76 75 79 79 81 82 84 86 87 87 86 81 106 113 115 121 125 130 86 71 80 73 140 164 169 158 121 116 125 194 210 216 212 101 82 166 244 255 255 252 148 97 137 255 255 255 255 124 211 178 119 227 255 255 223 144 167 176 160 203 253 250 210 102 149 133 142 180 219 215 196 94 131 156 138 161 197 192 195
73 75 75 78 79 79 80 83 83 86 86 87 79 98 109 111 116 121 124 124 126 134 138 151 157 162 168 150 174 190 197 201 209 217 198 223 241 247 255 255 255 255 249 249 255 255 255 255 227 237 253 254 255 255 255 250 148 184 222 241 251 249 243 237 198 86 115 203 215 209 212 204 118 97 158 191 192 188 188 190
71 72 74 75 77 78 79 82 83 84 84 85 82 86 102 108 110 115 118 122 126 132 132 145 149 157 161 167 175 181 190 195 203 212 215 229 236 246 253 254 255 255 255 255 255 255 255 255 255 255 255 254 253 255 255 249 252 254 251 247 247 243 237 232 225 218 212 212 210 207 202 203 193 191 191 190 189 186 179 185
71 72 73 75 76 78 79 81 80 82 85 84 84 80 98 103 107 109 113 115 119 82 103 129 141 146 151 139 102 145 176 184 197 195 160 165 173 213 245 254 255 168 228 255 255 255 255 249 237 234 239 238 243 241 242 240 239 237 237 239 241 235 230 221 220 213 210 208 202 200 199 193 189 186 182 182 179 173 173 176
70 72 73 75 74 76 78 79 80 81 83 83 83 79 93 98 102 104 107 110 77 68 84 91 126 138 142 74 95 109 92 162 183 169 117 99 90 150 233 248 230 186 136 140 152 255 254 205 161 141 162 125 227 228 220 118 123 124 131 191 230 229 219 167 114 139 179 192 195 189 175 154 118 98 149 175 171 167 165 169
70 71 72 74 73 76 78 78 79 80 82 83 83 80 85 94 99 99 103 96 81 64 76 91 94 132 116 104 97 82 68 163 170 164 126 102 87 134 220 234 177 169 169 216 196 251 244 192 137 171 134 124 209 211 206 104 166 168 121 178 217 215 200 138 172 141 139 134 184 176 86 103 137 97 139 164 162 159 156 160
69 69 71 72 72 74 76 77 79 78 78 81 81 81 81 89 94 95 100 102 97 76 75 79 118 124 124 111 95 87 124 156 162 161 80 114 93 125 210 220 181 155 165 180 233 241 234 183 141 81 90 116 198 202 194 110 104 156 136 191 211 208 164 137 107 85 109 174 173 168 92 122 100 134 132 157 149 150 147 147
68 69 70 70 72 72 73 74 76 77 79 81 79 81 76 88 90 92 95 98 100 101 91 108 116 119 123 127 129 118 138 145 156 157 161 167 176 184 199 210 222 233 228 220 232 228 219 201 178 165 155 157 188 186 183 120 118 136 133 190 201 200 176 136 132 107 139 170 166 161 93 76 105 121 144 146 144 141 136 135
67 68 69 69 70 72 72 72 74 76 77 79 78 79 76 84 87 88 92 93 96 98 103 106 108 113 117 122 125 126 132 137 142 149 153 158 165 175 187 198 211 221 225 228 221 215 207 198 188 184 180 176 173 175 172 173 174 176 182 185 192 189 188 184 177 167 166 163 158 154 147 145 143 143 140 139 136 130 128 126
67 67 69 69 69 71 71 73 73 75 75 76 76 79 78 79 84 87 86 89 93 93 96 100 103 106 108 111 115 118 123 127 130 136 141 146 152 159 168 181 190 205 210 210 207 201 191 183 173 170 165 164 160 157 155 156 159 160 165 168 173 174 174 174 169 162 156 153 147 142 139 137 135 131 129 128 124 120 114 115
64 64 67 67 67 69 70 71 72 72 73 76 75 78 79 79 80 82 84 87 87 89 91 92 98 98 102 105 109 111 113 116 119 125 130 132 138 141 151 159 168 178 188 188 183 178 170 163 160 150 150 146 147 143 141 143 143 145 150 148 154 158 158 155 152 146 142 140 135 131 127 125 120 119 118 113 115 110 106 108
64 64 66 66 66 68 69 71 70 70 73 73 73 75 77 77 78 80 81 80 85 86 89 89 91 95 95 98 101 103 106 109 112 115 115 120 121 128 130 133 137 142 145 148 147 146 144 144 141 140 136 134 134 134 130 132 134 136 138 137 142 143 145 143 142 136 130 128 122 120 118 113 113 111 109 106 105 102 100 106
63 64 65 65 64 66 67 67 69 69 71 72 73 76 76 76 77 79 80 82 84 86 88 89 92 94 95 99 98 101 105 107 107 109 114 115 117 123 123 124 127 129 132 129 130 132 130 130 127 128 125 125 122 123 122 121 121 119 118 118 117 118 117 115 117 116 112 110 108 111 108 106 106 106 104 102 100 99 99 104
61 61 62 63 64 63 66 66 68 68 69 70 70 72 73 75 76 76 78 80 82 83 88 90 94 93 96 96 99 101 115 105 108 110 110 114 114 119 120 121 124 127 127 129 128 127 127 125 126 125 124 122 119 120 119 119 116 115 118 117 116 112 114 112 113 112 110 110 108 108 108 104 104 103 101 101 98 99 94 101
60 61 62 62 62 64 64 66 66 67 67 70 69 71 73 73 74 77 76 79 80 84 86 89 92 95 97 96 95 98 97 99 105 106 108 111 115 115 116 119 120 123 123 124 125 125 123 123 124 121 120 118 119 117 116 115 114 114 115 112 112 112 113 112 111 108 109 109 108 105 105 103 104 99 99 100 97 95 93 99
60 60 60 61 62 63 65 65 65 67 66 64 68 69 70 73 72 74 74 77 81 83 84 89 88 91 94 94 94 95 95 99 100 102 108 107 112 113 118 118 121 121 122 124 125 124 122 121 123 121 117 117 115 115 114 113 113 111 112 112 110 110 109 109 108 109 106 105 104 104 102 101 100 99 98 96 94 94 92 95
58 60 60 60 61 63 63 64 65 67 67 67 67 69 69 70 72 73 75 78 79 84 85 88 88 89 92 93 93 92 93 96 98 101 105 108 111 112 114 117 121 124 125 124 125 124 119 122 120 119 117 114 114 113 110 111 110 109 108 110 109 105 107 105 106 106 103 104 103 103 101 102 101 100 98 96 93 93 90 96
58 60 61 60 61 62 64 63 65 65 66 66 67 68 68 70 71 72 74 78 79 82 82 84 85 88 90 92 91 92 92 96 96 98 102 104 108 108 113 114 118 121 123 122 122 121 123 119 118 119 113 113 112 113 110 108 109 109 107 106 107 107 104 106 103 104 105 103 103 102 102 99 100 98 98 94 91 90 89 95
58 59 58 60 60 62 62 63 63 65 65 67 67 67 67 69 71 72 73 77 80 80 81 83 83 87 89 88 89 88 91 92 96 98 100 104 106 107 111 115 116 118 121 123 123 120 119 119 116 114 115 111 111 106 109 107 105 106 106 106 105 102 103 102 101 102 102 101 100 99 98 97 97 96 94 93 93 91 88 93
57 59 59 60 60 61 62 61 63 63 64 66 65 65 66 67 69 69 74 77 78 80 79 79 83 83 87 88 86 88 90 93 93 96 100 104 105 109 110 115 118 119 122 124 121 122 119 117 116 115 113 109 110 108 105 105 104 105 104 103 100 102 101 100 101 99 101 101 100 98 99 100 96 95 95 93 89 90 87 91
58 59 58 58 61 58 61 60 62 63 63 64 63 65 65 65 68 71 73 75 77 77 78 80 81 82 85 81 84 86 88 89 93 94 98 102 104 107 110 114 117 122 129 136 137 122 119 118 118 113 115 110 108 107 103 106 102 103 101 103 101 101 102 101 102 100 102 100 98 98 98 96 97 93 92 89 88 85 83 89
55 57 58 59 58 59 60 61 61 62 62 64 63 65 65 66 67 67 72 74 74 77 79 78 80 81 83 83 82 84 86 86 90 92 92 97 99 102 104 107 109 113 125 126 128 118 114 113 111 110 108 107 106 105 105 102 103 103 100 99 99 100 100 102 98 98 97 96 95 94 93 93 92 90 88 87 85 82 80 87
55 55 55 57 58 59 59 61 61 61 63 62 63 63 64 65 65 66 68 74 73 76 77 77 79 80 80 80 79 81 84 84 85 88 90 93 95 96 100 103 105 106 130 133 128 109 107 108 106 104 102 103 101 99 100 99 100 97 97 98 99 96 97 96 96 93 94 93 92 91 87 88 87 84 84 82 81 79 78 85
55 54 55 55 56 54 57 58 60 60 60 61 61 61 63 63 65 66 67 71 74 75 76 78 78 78 75 78 78 77 81 80 83 84 86 87 90 90 93 96 97 100 108 109 109 103 104 103 103 99 97 96 99 98 95 95 95 95 95 94 92 92 93 91 91 89 87 89 88 87 84 84 83 81 79 78 77 77 74 83
56 55 55 56 56 56 55 57 57 60 59 60 61 61 62 61 64 63 66 69 72 74 74 75 74 74 73 74 74 75 76 77 78 81 81 84 87 88 89 91 95 98 104 104 102 102 99 96 96 95 92 92 92 94 92 91 92 92 90 90 88 89 88 87 87 85 85 84 84 81 81 80 79 78 77 75 74 74 74 79
56 56 56 57 58 57 56 57 58 58 57 57 57 58 60 60 62 62 64 65 68 70 70 70 70 70 71 71 71 73 74 75 76 78 80 81 84 86 84 89 91 96 108 108 103 98 94 94 94 91 89 88 89 89 88 88 87 88 85 87 86 86 85 83 83 82 80 81 80 79 78 79 78 76 74 73 72 71 71 78
55 56 56 56 57 57 58 58 56 57 57 58 58 58 57 58 60 59 59 62 62 65 67 65 66 68 69 70 70 71 70 73 75 73 77 78 81 82 83 87 91 94 99 103 105 95 92 90 90 88 87 87 86 85 86 83 85 83 82 83 82 80 82 80 80 80 79 77 78 76 78 77 75 73 74 72 71 68 66 73
55 56 57 57 58 57 56 57 57 56 57 57 58 58 58 58 59 60 61 60 61 61 61 63 62 62 64 65 65 69 69 69 72 74 74 76 79 81 83 86 87 93 127 128 122 96 91 89 86 86 84 82 83 82 79 82 81 80 81 79 79 78 78 78 76 78 78 75 77 76 75 73 70 69 68 67 66 66 66 73
